<?xml version="1.0" encoding="utf-8"?>
<!-- Generator: Adobe Illustrator 15.1.0, SVG Export Plug-In . SVG Version: 6.00 Build 0)  -->
<!DOCTYPE svg PUBLIC "-//W3C//DTD SVG 1.1//EN" "http://www.w3.org/Graphics/SVG/1.1/DTD/svg11.dtd">
<svg version="1.1" id="background_03" xmlns="http://www.w3.org/2000/svg" xmlns:xlink="http://www.w3.org/1999/xlink" x="0px"
	 y="0px" width="300px" height="300px" viewBox="0 0 300 300" enable-background="new 0 0 300 300" xml:space="preserve">
<g>
	<g>
		<path d="M0,300v-2.828l4.091-4.091l1.414,1.414L0,300z M9.048,290.952l-1.414-1.414l7.087-7.088l1.414,1.414L9.048,290.952z
			 M19.68,280.32l-1.414-1.414l7.087-7.087l1.414,1.414L19.68,280.32z M30.311,269.689l-1.414-1.414l7.087-7.087l1.414,1.414
			L30.311,269.689z M40.942,259.058l-1.414-1.414l7.087-7.087l1.414,1.414L40.942,259.058z M51.573,248.427l-1.414-1.414
			l7.087-7.087l1.414,1.414L51.573,248.427z M62.204,237.796l-1.414-1.414l7.087-7.088l1.414,1.414L62.204,237.796z M72.835,227.165
			l-1.414-1.414l7.087-7.088l1.414,1.414L72.835,227.165z M83.466,216.534l-1.414-1.414l7.087-7.088l1.414,1.414L83.466,216.534z
			 M94.097,205.903l-1.414-1.414l7.087-7.088l1.414,1.414L94.097,205.903z M104.729,195.271l-1.414-1.414l7.087-7.087l1.414,1.414
			L104.729,195.271z M115.359,184.641l-1.414-1.414l7.087-7.087l1.414,1.414L115.359,184.641z M125.991,174.009l-1.414-1.414
			l7.087-7.087l1.414,1.414L125.991,174.009z M136.622,163.378l-1.414-1.414l7.087-7.087l1.414,1.414L136.622,163.378z
			 M147.253,152.747l-1.414-1.414l7.087-7.087l1.414,1.414L147.253,152.747z M157.884,142.116l-1.414-1.414l7.087-7.087l1.414,1.414
			L157.884,142.116z M168.516,131.485l-1.414-1.414l7.087-7.087l1.414,1.414L168.516,131.485z M179.146,120.854l-1.414-1.414
			l7.087-7.087l1.414,1.414L179.146,120.854z M189.777,110.223l-1.414-1.414l7.088-7.087l1.414,1.414L189.777,110.223z
			 M200.408,99.592l-1.414-1.414l7.088-7.087l1.414,1.414L200.408,99.592z M211.039,88.96l-1.414-1.414l7.088-7.087l1.414,1.414
			L211.039,88.96z M221.67,78.33l-1.414-1.414l7.088-7.087l1.414,1.414L221.67,78.33z M232.302,67.698l-1.414-1.414l7.087-7.087
			l1.414,1.414L232.302,67.698z M242.933,57.067l-1.414-1.414l7.087-7.087l1.414,1.414L242.933,57.067z M253.564,46.436
			l-1.414-1.414l7.087-7.087l1.414,1.414L253.564,46.436z M264.195,35.805l-1.414-1.414l7.087-7.087l1.414,1.414L264.195,35.805z
			 M274.826,25.174l-1.414-1.414l7.088-7.087l1.414,1.414L274.826,25.174z"/>
	</g>
	<g>
		<rect x="285.518" y="9.568" transform="matrix(0.7071 0.7071 -0.7071 0.7071 92.4527 -199.0642)" width="2" height="5.001"/>
	</g>
</g>
</svg>
