<?xml version="1.0" encoding="utf-8"?>
<!-- Generator: Adobe Illustrator 15.1.0, SVG Export Plug-In . SVG Version: 6.00 Build 0)  -->
<!DOCTYPE svg PUBLIC "-//W3C//DTD SVG 1.1//EN" "http://www.w3.org/Graphics/SVG/1.1/DTD/svg11.dtd">
<svg version="1.1" id="Layer_1" xmlns="http://www.w3.org/2000/svg" xmlns:xlink="http://www.w3.org/1999/xlink" x="0px" y="0px"
	 width="100px" height="125px" viewBox="0 0 100 125" enable-background="new 0 0 100 125" xml:space="preserve">
<rect fill="#FFFFFF" width="100" height="125"/>
<polygon fill="#FF0000" points="55.963,30.935 72.875,30.935 72.875,71.427 "/>
<polygon fill="#FF0000" points="44.047,30.935 27.123,30.935 27.123,71.427 "/>
<polygon fill="#FF0000" points="50.005,45.857 60.782,71.425 53.72,71.425 50.496,63.282 42.61,63.282 "/>
<g>
	<defs>
		<rect id="SVGID_1_" width="100" height="125"/>
	</defs>
	<clipPath id="SVGID_2_">
		<use xlink:href="#SVGID_1_"  overflow="visible"/>
	</clipPath>
	<path clip-path="url(#SVGID_2_)" d="M30.32,90.078l-0.744,3.521c-0.023,0.135-0.068,0.158-0.181,0.158h-2.144
		c-0.135,0-0.18-0.046-0.158-0.227l2.956-12.75c0.091-0.383,0.091-0.587,0.091-1.241c0-0.09,0.045-0.135,0.135-0.135h3.069
		c0.113,0,0.158,0.045,0.181,0.157l3.453,14.015c0.022,0.135-0.023,0.181-0.136,0.181H34.45c-0.113,0-0.18-0.068-0.18-0.158
		l-0.79-3.521H30.32z M33.006,87.663c-0.316-1.647-0.903-4.13-1.128-5.731h-0.023c-0.226,1.557-0.655,3.746-1.038,5.731H33.006z"/>
	<path clip-path="url(#SVGID_2_)" d="M37.354,88.272c0-3.254,1.917-5.772,4.971-5.772h0.356v-3.834c0-0.067,0.045-0.111,0.134-0.111
		h2.385c0.089,0,0.111,0.044,0.111,0.111v12.839c0,0.334-0.022,0.78,0.067,1.493c0,0.067,0,0.112-0.089,0.157
		c-0.914,0.467-2.095,0.779-3.232,0.779C39.249,93.935,37.354,92.107,37.354,88.272 M42.682,84.885
		c-0.111-0.045-0.223-0.066-0.49-0.066c-1.248,0-2.185,1.137-2.185,3.365c0,2.363,0.937,3.344,2.163,3.344
		c0.156,0,0.378-0.022,0.512-0.066V84.885z"/>
	<path clip-path="url(#SVGID_2_)" d="M54.853,88.184c0,3.522-1.472,5.751-4.058,5.751c-2.898,0-4.056-2.541-4.056-5.773
		c0-3.299,1.47-5.661,4.101-5.661C53.358,82.5,54.853,84.595,54.853,88.184 M49.346,88.184c0,2.073,0.446,3.433,1.449,3.433
		c0.959,0,1.427-1.159,1.427-3.41c0-2.095-0.356-3.388-1.404-3.388C49.904,84.818,49.346,85.865,49.346,88.184"/>
	<path clip-path="url(#SVGID_2_)" d="M58.774,78.555c0.09,0,0.112,0.044,0.112,0.134v3.944c0.312-0.066,0.69-0.133,1.203-0.133
		c2.318,0,4.079,1.783,4.079,5.238c0,4.034-2.296,6.196-5.171,6.196c-0.825,0-1.672-0.111-2.586-0.401
		c-0.067-0.022-0.134-0.089-0.134-0.178V78.688c0-0.09,0.045-0.134,0.134-0.134H58.774z M59.688,84.862
		c-0.178,0-0.557,0.022-0.802,0.111v6.575c0.178,0.045,0.334,0.045,0.468,0.045c1.003,0,2.185-1.025,2.207-3.789
		C61.584,85.643,60.714,84.862,59.688,84.862"/>
	<path clip-path="url(#SVGID_2_)" d="M67.778,88.83c0,1.718,0.647,2.764,2.453,2.764c0.602,0,1.093-0.088,1.694-0.312
		c0.111-0.045,0.178-0.045,0.178,0.111v1.851c0,0.155-0.044,0.245-0.155,0.289c-0.624,0.334-1.472,0.401-2.207,0.401
		c-3.276,0-4.547-2.407-4.547-5.55c0-3.344,1.471-5.885,4.079-5.885c2.741,0,3.544,2.43,3.544,4.413
		c0,0.713-0.067,1.404-0.111,1.672c-0.022,0.111-0.09,0.156-0.201,0.179c-0.223,0.021-0.913,0.066-2.117,0.066H67.778z
		 M69.674,86.734c0.424,0,0.603,0,0.669-0.021c0.022-0.112,0.022-0.157,0.022-0.246c0-0.848-0.268-1.739-1.182-1.739
		c-0.892,0-1.248,0.914-1.359,2.006H69.674z"/>
</g>
</svg>
