<?xml version="1.0" encoding="utf-8"?>
<!-- Generator: Adobe Illustrator 15.1.0, SVG Export Plug-In . SVG Version: 6.00 Build 0)  -->
<!DOCTYPE svg PUBLIC "-//W3C//DTD SVG 1.1//EN" "http://www.w3.org/Graphics/SVG/1.1/DTD/svg11.dtd">
<svg version="1.1" id="background_02" xmlns="http://www.w3.org/2000/svg" xmlns:xlink="http://www.w3.org/1999/xlink" x="0px"
	 y="0px" width="200px" height="375px" viewBox="0 0 200 375" enable-background="new 0 0 200 375" xml:space="preserve">
<g>
	<path d="M136.255,172.458L0,36.203v14.142l129.184,129.184c36.386,36.385,36.386,95.588,0,131.973
		C92.799,347.889,36.385,348.518,0,312.132l0.002,13.54c40.267,33.617,98.257,30.898,136.254-7.097
		C176.539,278.29,176.539,212.742,136.255,172.458z"/>
	<path fill="#F28D71" d="M153.933,154.78L0,0.848v28.285l139.791,139.79c20.459,20.459,31.726,47.661,31.726,76.594
		c0,28.934-11.267,56.135-31.726,76.594s-47.661,31.727-76.594,31.727c-24.091,0-45.048-7.375-63.197-21.654l0,24.118
		c48.673,29.345,111.476,22.408,153.932-20.048C204.045,286.14,204.045,204.892,153.933,154.78z"/>
	<g>
		<g>
			<rect x="90.692" y="275.926" transform="matrix(0.7071 0.7072 -0.7072 0.7071 223.1295 15.2219)" width="5.001" height="2"/>
		</g>
		<g>
			<path d="M175.711,360.859l-6.787-6.788l1.414-1.414l6.787,6.788L175.711,360.859z M165.529,350.676l-6.789-6.788l1.414-1.414
				l6.789,6.788L165.529,350.676z M155.347,340.495l-6.788-6.789l1.414-1.414l6.788,6.789L155.347,340.495z M145.164,330.312
				l-6.787-6.788l1.414-1.414l6.787,6.788L145.164,330.312z M124.8,309.948l-6.788-6.789l1.414-1.414l6.788,6.789L124.8,309.948z
				 M114.617,299.765l-6.788-6.788l1.414-1.414l6.788,6.788L114.617,299.765z M104.436,289.583l-6.789-6.788l1.414-1.414
				l6.789,6.788L104.436,289.583z"/>
		</g>
		<g>
			<rect x="179.08" y="364.314" transform="matrix(0.707 0.7072 -0.7072 0.707 311.5526 -21.3807)" width="5" height="2"/>
		</g>
	</g>
</g>
</svg>
