<?xml version="1.0" encoding="utf-8"?>
<!-- Generator: Adobe Illustrator 15.1.0, SVG Export Plug-In . SVG Version: 6.00 Build 0)  -->
<!DOCTYPE svg PUBLIC "-//W3C//DTD SVG 1.1//EN" "http://www.w3.org/Graphics/SVG/1.1/DTD/svg11.dtd">
<svg version="1.1" id="background_01" xmlns="http://www.w3.org/2000/svg" xmlns:xlink="http://www.w3.org/1999/xlink" x="0px"
	 y="0px" width="1280px" height="490px" viewBox="0 0 1280 490" enable-background="new 0 0 1280 490" xml:space="preserve">
<g>
	<rect y="445.141" fill="#B9ECFE" width="220" height="19.857"/>
	<polygon fill="#B9ECFE" points="1116.758,139.906 791.902,465.051 220,465.051 220,485.051 800.191,485.051 1130.9,154.048 	"/>
	<rect y="464.998" width="220" height="4.963"/>
	<polygon points="1280,12.02 1134.437,157.583 1130.9,154.048 1280,4.949 	"/>
	<g>
		<g>
			<rect x="1184.47" y="210.531" transform="matrix(0.7072 0.7071 -0.7071 0.7072 497.1625 -777.311)" width="5.001" height="2"/>
		</g>
		<g>
			<path d="M1122.728,148.704l1.414-1.415l6.863,6.863l-1.414,1.415L1122.728,148.704z M1119.297,145.272l-6.863-6.863l1.414-1.414
				l6.863,6.863L1119.297,145.272z M1109.001,134.977l-6.862-6.863l1.414-1.414l6.862,6.863L1109.001,134.977z M1098.707,124.682
				l-6.863-6.863l1.414-1.414l6.863,6.863L1098.707,124.682z M1088.412,114.388l-6.863-6.863l1.415-1.414l6.862,6.863
				L1088.412,114.388z M1078.118,104.093l-6.863-6.863l1.414-1.414l6.863,6.863L1078.118,104.093z M1181.064,207.04l-6.863-6.863
				l1.414-1.414l6.863,6.863L1181.064,207.04z M1170.77,196.745l-6.863-6.863l1.415-1.415l6.862,6.863L1170.77,196.745z
				 M1160.476,186.451l-6.863-6.863l1.414-1.414l6.863,6.863L1160.476,186.451z M1150.18,176.155l-6.862-6.863l1.414-1.414
				l6.863,6.863L1150.18,176.155z M1139.886,165.861l-6.863-6.863l1.414-1.414l6.863,6.863L1139.886,165.861z"/>
		</g>
		<g>
			<rect x="1064.262" y="90.323" transform="matrix(0.7072 0.7071 -0.7071 0.7072 376.9662 -727.5192)" width="5.001" height="2"/>
		</g>
	</g>
</g>
</svg>
