<svg width="76" height="39" viewBox="0 0 76 39" fill="none" xmlns="http://www.w3.org/2000/svg">
<path d="M0.774994 24.2689C0.774994 23.1759 1.06099 22.2479 1.63299 21.4849C2.20499 20.7219 2.98699 20.1369 3.97899 19.7299C4.10599 19.6799 4.19499 19.7179 4.24599 19.8449C4.29699 19.9719 4.28499 20.0869 4.20799 20.1879C3.74999 20.4419 3.38799 20.8359 3.12099 21.3699C2.85399 21.9039 2.72099 22.5529 2.72099 23.3149C2.72099 24.8659 3.29299 26.0869 4.43699 26.9769C5.58099 27.8669 7.06899 28.3119 8.89999 28.3119C11.29 28.3119 13.001 27.8419 14.03 26.8999C15.06 25.9599 15.574 24.7269 15.574 23.1999C15.574 21.7759 15.282 20.5239 14.697 19.4429C14.112 18.3619 13.47 17.3449 12.77 16.3909C12.071 15.4379 11.429 14.4779 10.844 13.5109C10.259 12.5449 9.96699 11.4509 9.96699 10.2309C9.96699 9.51993 10.126 8.83293 10.444 8.17093C10.762 7.50993 11.207 6.91892 11.779 6.39792C12.351 5.87692 13.031 5.46393 13.82 5.15793C14.608 4.85293 15.472 4.70093 16.414 4.70093C17.711 4.70093 18.734 4.97393 19.484 5.51993C20.234 6.06693 20.609 6.72192 20.609 7.48492C20.609 7.91792 20.424 8.44492 20.056 9.06792C19.687 9.69092 19.312 10.2309 18.931 10.6889C18.829 10.7399 18.741 10.7269 18.664 10.6499C18.587 10.5729 18.562 10.4849 18.588 10.3829C18.715 10.1799 18.822 9.93192 18.912 9.63992C19.001 9.34692 19.045 9.02393 19.045 8.66693C19.045 8.26093 18.956 7.87193 18.778 7.50293C18.6 7.13493 18.345 6.81693 18.015 6.54993C17.685 6.28293 17.303 6.06692 16.871 5.90192C16.439 5.73692 15.981 5.65393 15.498 5.65393C14.226 5.65393 13.298 5.95893 12.714 6.56993C12.128 7.17893 11.836 7.96692 11.836 8.93492C11.836 9.69792 11.982 10.4159 12.275 11.0889C12.567 11.7629 12.929 12.4379 13.362 13.1109C13.794 13.7849 14.258 14.4589 14.754 15.1319C15.25 15.8069 15.714 16.5059 16.147 17.2299C16.579 17.9549 16.941 18.7169 17.234 19.5189C17.526 20.3199 17.673 21.1909 17.673 22.1319C17.673 23.1239 17.425 24.0519 16.929 24.9169C16.433 25.7819 15.752 26.5379 14.888 27.1859C14.023 27.8349 13.019 28.3439 11.875 28.7119C10.731 29.0809 9.49699 29.2649 8.17499 29.2649C5.75899 29.2649 3.92299 28.7949 2.66299 27.8539C1.40399 26.9149 0.774994 25.7189 0.774994 24.2689Z" fill="black"/>
<path d="M26.357 22.934C26.205 22.986 26.128 22.922 26.128 22.744C26.306 22.21 26.274 21.7399 26.033 21.3329C25.791 20.9259 25.352 20.723 24.717 20.723C23.903 20.723 23.248 21.231 22.753 22.248C22.258 23.265 22.009 24.587 22.009 26.215C22.009 27.41 22.479 28.007 23.42 28.007C23.852 28.007 24.329 27.848 24.85 27.53C25.371 27.213 25.848 26.8 26.281 26.291C26.383 26.24 26.472 26.2529 26.548 26.3289C26.624 26.4059 26.636 26.4949 26.586 26.5959C25.95 27.4099 25.238 28.059 24.45 28.541C23.662 29.024 22.823 29.266 21.932 29.266C21.372 29.266 20.902 29.069 20.521 28.675C20.14 28.281 19.949 27.728 19.949 27.016C19.949 26.125 20.133 25.2299 20.502 24.327C20.87 23.425 21.347 22.618 21.932 21.905C22.516 21.193 23.153 20.614 23.84 20.17C24.527 19.725 25.2 19.502 25.861 19.502C26.445 19.502 26.903 19.668 27.235 19.998C27.565 20.329 27.731 20.698 27.731 21.104C27.731 21.257 27.687 21.423 27.598 21.6C27.509 21.779 27.394 21.956 27.255 22.134C27.115 22.313 26.963 22.478 26.797 22.63C26.63 22.782 26.484 22.884 26.357 22.934Z" fill="black"/>
<path d="M28.195 28.9229C29.339 24.5499 30.655 20.6079 32.143 17.0979C33.631 13.5889 35.201 10.6009 36.854 8.13493C38.506 5.66793 40.178 3.76693 41.87 2.43193C43.561 1.09693 45.169 0.429932 46.695 0.429932C47.331 0.429932 47.833 0.575928 48.202 0.867928C48.57 1.15993 48.825 1.51593 48.965 1.93593C49.105 2.35593 49.124 2.80793 49.023 3.28993C48.921 3.77293 48.73 4.20494 48.451 4.58694C48.375 4.66394 48.298 4.68993 48.222 4.66393C48.145 4.63893 48.108 4.57494 48.108 4.47294C48.234 3.96594 48.095 3.48093 47.688 3.02393C47.281 2.56593 46.632 2.33693 45.743 2.33693C44.369 2.33693 43.066 2.70493 41.833 3.44193C40.6 4.17993 39.398 5.40693 38.229 7.12293C37.059 8.83993 35.915 11.1159 34.796 13.9509C33.677 16.7869 32.532 20.3149 31.363 24.5359C31.744 23.8489 32.183 23.2009 32.679 22.5909C33.175 21.9799 33.715 21.4459 34.3 20.9889C34.885 20.5309 35.508 20.1689 36.169 19.9019C36.83 19.6349 37.517 19.5009 38.229 19.5009C38.534 19.5009 38.756 19.5769 38.896 19.7299C39.036 19.8829 39.106 20.0609 39.106 20.2639C39.106 20.5949 38.991 20.9639 38.763 21.3699C38.229 22.3109 37.796 23.2769 37.466 24.2689C37.135 25.2609 36.97 26.1639 36.97 26.9769C36.97 27.3329 37.008 27.6239 37.084 27.8539C37.161 28.0829 37.3 28.1969 37.504 28.1969C37.757 28.1969 38.038 28.0639 38.343 27.7969C38.649 27.5289 38.902 27.2309 39.106 26.8999C39.182 26.8499 39.258 26.8569 39.335 26.9189C39.412 26.9829 39.437 27.0529 39.412 27.1289C39.081 27.6889 38.617 28.1849 38.019 28.6169C37.421 29.0499 36.881 29.2649 36.398 29.2649C35.965 29.2649 35.609 29.1449 35.33 28.9039C35.05 28.6619 34.911 28.2489 34.911 27.6629C34.911 27.2049 34.955 26.7159 35.044 26.1949C35.133 25.6739 35.247 25.1589 35.387 24.6509C35.526 24.1429 35.692 23.6399 35.883 23.1449C36.073 22.6479 36.283 22.1969 36.512 21.7909C36.638 21.4859 36.702 21.2699 36.702 21.1429C36.702 20.9139 36.575 20.7989 36.321 20.7989C35.838 20.7989 35.316 20.9839 34.757 21.3519C34.197 21.7209 33.651 22.2429 33.117 22.9159C32.583 23.5899 32.068 24.3969 31.572 25.3379C31.076 26.2789 30.65 27.3219 30.294 28.4659C30.243 28.6449 30.04 28.8219 29.684 28.9999C29.328 29.1779 28.934 29.2669 28.501 29.2669C28.246 29.2659 28.144 29.1519 28.195 28.9229Z" fill="black"/>
<path d="M45.081 20.607C45.081 20.989 45.043 21.421 44.966 21.904C44.89 22.387 44.788 22.883 44.661 23.392C45.169 22.17 45.729 21.217 46.339 20.53C46.949 19.844 47.61 19.5 48.322 19.5C48.703 19.5 48.995 19.589 49.199 19.767C49.403 19.946 49.505 20.175 49.505 20.455C49.505 20.709 49.41 21.04 49.219 21.446C49.028 21.854 48.869 22.133 48.742 22.286C48.691 22.311 48.64 22.305 48.59 22.266C48.538 22.228 48.513 22.184 48.513 22.132C48.513 21.954 48.443 21.802 48.304 21.674C48.164 21.548 47.954 21.484 47.675 21.484C46.785 21.484 45.978 22.088 45.253 23.296C44.528 24.504 43.861 26.239 43.251 28.502C43.226 28.63 43.137 28.737 42.984 28.826C42.831 28.916 42.659 28.992 42.468 29.055C42.278 29.119 42.08 29.17 41.877 29.207C41.673 29.246 41.496 29.265 41.343 29.265C41.063 29.265 40.987 29.113 41.114 28.808C41.343 28.274 41.565 27.696 41.781 27.073C41.996 26.449 42.194 25.821 42.372 25.184C42.55 24.549 42.703 23.932 42.83 23.334C42.957 22.737 43.059 22.184 43.135 21.674C43.186 21.293 43.204 21.001 43.192 20.797C43.179 20.594 43.071 20.492 42.868 20.492C42.614 20.492 42.353 20.6 42.086 20.816C41.819 21.033 41.571 21.306 41.342 21.636C41.24 21.713 41.145 21.719 41.056 21.656C40.967 21.593 40.948 21.51 40.999 21.408C41.151 21.205 41.335 20.995 41.552 20.779C41.768 20.563 42.01 20.359 42.277 20.169C42.544 19.979 42.823 19.82 43.116 19.692C43.408 19.564 43.708 19.501 44.013 19.501C44.419 19.501 44.699 19.597 44.852 19.787C45.004 19.979 45.081 20.252 45.081 20.607Z" fill="black"/>
<path d="M50.661 22.171C50.585 22.222 50.521 22.204 50.47 22.114C50.419 22.026 50.407 21.943 50.432 21.866C51.372 21.103 52.682 20.316 54.361 19.501C54.564 19.501 54.666 19.616 54.666 19.845C54.335 20.43 54.011 21.065 53.694 21.752C53.375 22.438 53.096 23.119 52.855 23.792C52.613 24.467 52.417 25.115 52.264 25.738C52.112 26.361 52.035 26.876 52.035 27.282C52.035 27.79 52.213 28.045 52.569 28.045C52.849 28.045 53.122 27.925 53.389 27.682C53.656 27.441 53.968 27.129 54.324 26.748C54.375 26.697 54.439 26.703 54.515 26.767C54.591 26.831 54.604 26.926 54.553 27.0529C53.993 27.7149 53.44 28.249 52.894 28.656C52.347 29.062 51.82 29.265 51.311 29.265C50.421 29.265 49.976 28.846 49.976 28.007C49.976 27.549 50.046 27.009 50.186 26.385C50.326 25.763 50.516 25.127 50.758 24.478C51 23.83 51.267 23.195 51.559 22.572C51.851 21.948 52.15 21.408 52.455 20.951C52.175 21.103 51.864 21.294 51.52 21.523C51.176 21.752 50.89 21.968 50.661 22.171ZM54.742 17.8609C54.665 17.9369 54.583 17.9369 54.494 17.8609C54.405 17.7849 54.335 17.677 54.284 17.537C54.233 17.397 54.208 17.244 54.208 17.079C54.208 16.913 54.247 16.767 54.322 16.64C54.602 16.285 55.015 15.833 55.562 15.286C56.108 14.74 56.674 14.275 57.259 13.894C57.309 13.869 57.373 13.888 57.449 13.951C57.526 14.014 57.551 14.072 57.526 14.123C56.992 14.606 56.483 15.185 56 15.858C55.518 16.533 55.098 17.1999 54.742 17.8609Z" fill="black"/>
<path d="M73.504 1.53589C73.986 1.53589 74.4 1.65589 74.743 1.89689C75.087 2.13989 75.347 2.45089 75.525 2.83289C75.703 3.21389 75.786 3.63389 75.773 4.09089C75.76 4.54889 75.652 5.00588 75.449 5.46488C75.245 5.61688 75.118 5.57889 75.068 5.34989C75.016 4.84189 74.737 4.39688 74.229 4.01488C73.72 3.63388 72.907 3.44289 71.788 3.44289C71.101 3.44289 70.465 3.50689 69.88 3.63389C69.295 3.76189 68.742 4.01489 68.221 4.39689C67.699 4.77789 67.184 5.33189 66.676 6.05589C66.167 6.78189 65.633 7.74088 65.074 8.93688C64.514 10.1319 63.917 11.6059 63.281 13.3609C62.645 15.1149 61.946 17.2139 61.183 19.6549C61.818 19.6289 62.467 19.6159 63.128 19.6159C63.789 19.6159 64.438 19.6159 65.074 19.6159C65.2 19.6669 65.251 19.7429 65.226 19.8449C65.2 19.9469 65.086 20.0109 64.883 20.0349C64.298 20.0599 63.675 20.0789 63.014 20.0919C62.352 20.1059 61.692 20.1359 61.031 20.1879C60.98 20.3149 60.936 20.4489 60.897 20.5879C60.859 20.7289 60.815 20.8609 60.764 20.9889C59.772 24.1679 58.704 26.8699 57.56 29.0939C56.415 31.3179 55.227 33.1299 53.994 34.5289C52.761 35.9269 51.509 36.9449 50.236 37.5819C48.965 38.2169 47.706 38.5349 46.46 38.5349C45.621 38.5349 44.979 38.3299 44.534 37.9239C44.09 37.5179 43.867 36.9959 43.867 36.3609C43.867 35.6739 44.109 35.0509 44.592 34.4919C44.669 34.4159 44.739 34.4029 44.802 34.4549C44.866 34.5049 44.897 34.5689 44.897 34.6449C44.77 34.8979 44.719 35.1719 44.745 35.4649C44.77 35.7559 44.878 36.0289 45.069 36.2849C45.259 36.5379 45.546 36.7479 45.927 36.9139C46.308 37.0789 46.804 37.1619 47.415 37.1619C48.585 37.1619 49.627 36.9909 50.543 36.6469C51.458 36.3039 52.342 35.5659 53.194 34.4349C54.046 33.3029 54.91 31.6819 55.788 29.5719C56.665 27.4609 57.651 24.6259 58.744 21.0649L58.973 20.3789C58.49 20.4299 58.032 20.4879 57.599 20.5499C57.167 20.6129 56.747 20.6839 56.341 20.7599C56.213 20.7349 56.188 20.6709 56.265 20.5689C56.341 20.4669 56.461 20.3649 56.627 20.2629C56.792 20.1619 56.989 20.0669 57.218 19.9779C57.447 19.8889 57.663 19.8319 57.866 19.8059C58.069 19.7809 58.279 19.7629 58.496 19.7489C58.711 19.7369 58.934 19.7179 59.163 19.6919C60.205 16.5389 61.305 13.8169 62.462 11.5289C63.619 9.23989 64.808 7.35288 66.028 5.86388C67.249 4.37688 68.488 3.28289 69.747 2.58389C71.006 1.88489 72.258 1.53589 73.504 1.53589Z" fill="black"/>
<path d="M72.143 19.6919C72.269 19.7429 72.32 19.8119 72.295 19.9009C72.269 19.9899 72.155 20.0599 71.952 20.1099C71.571 20.1099 71.132 20.1229 70.636 20.1479C70.14 20.1739 69.612 20.2119 69.053 20.2619C68.544 21.5089 68.124 22.7229 67.794 23.9059C67.463 25.0879 67.298 26.0489 67.298 26.7859C67.298 27.6509 67.629 28.0829 68.29 28.0829C68.951 28.0829 69.688 27.5109 70.502 26.3659C70.579 26.3149 70.648 26.3149 70.712 26.3659C70.775 26.4179 70.794 26.5059 70.769 26.6329C70.336 27.3459 69.79 27.9629 69.129 28.4829C68.467 29.0039 67.819 29.2649 67.183 29.2649C66.521 29.2649 66.033 29.1069 65.714 28.7879C65.396 28.4699 65.237 28.0319 65.237 27.4719C65.237 26.7349 65.415 25.7179 65.771 24.4209C66.127 23.1239 66.584 21.8019 67.144 20.4539C66.482 20.5299 65.872 20.6319 65.313 20.7589C65.186 20.7339 65.153 20.6699 65.217 20.5679C65.28 20.4659 65.395 20.3579 65.56 20.2439C65.725 20.1299 65.922 20.0279 66.151 19.9389C66.38 19.8489 66.596 19.8049 66.799 19.8049C66.901 19.8049 67.002 19.8049 67.104 19.8049C67.205 19.8049 67.307 19.7919 67.409 19.7659C67.739 19.0289 68.082 18.3169 68.439 17.6299C68.795 16.9429 69.15 16.3209 69.507 15.7619C69.659 15.5839 69.869 15.4249 70.136 15.2839C70.403 15.1439 70.663 15.0359 70.918 14.9599C71.172 14.8829 71.382 14.8399 71.547 14.8259C71.712 14.8129 71.782 14.8579 71.757 14.9599C71.324 15.6219 70.899 16.3589 70.479 17.1719C70.06 17.9869 69.659 18.8379 69.277 19.7269C69.76 19.7029 70.25 19.6899 70.746 19.6899C71.242 19.6899 71.709 19.6919 72.143 19.6919Z" fill="black"/>
</svg>
