<svg width="97" height="23" viewBox="0 0 97 23" fill="none" xmlns="http://www.w3.org/2000/svg">
<path d="M9.04999 22.184C6.65399 22.184 5.27899 22.1 4.92499 21.93C3.71899 21.55 2.64299 21.035 1.69799 20.385C1.08299 19.963 0.774994 19.389 0.774994 18.662C0.774994 18.291 0.853994 17.877 1.01499 17.42C1.66399 16.77 2.31799 16.42 2.97499 16.369C3.08399 16.361 3.28199 16.357 3.56999 16.357C4.08399 16.357 4.67899 16.411 5.35299 16.522C5.74899 16.59 6.33899 16.69 7.12399 16.826C7.27599 16.85 7.44299 16.864 7.62999 16.864C8.19399 16.864 8.78099 16.732 9.38799 16.471C9.573 16.167 9.66599 15.888 9.66599 15.635C9.66599 15.365 9.57299 15.134 9.38699 14.938C9.00799 14.542 8.55999 14.317 8.04499 14.267C6.14499 13.524 4.77599 12.9 3.94099 12.392C2.47299 11.49 1.47199 10.412 0.939994 9.16298C0.829994 8.63998 0.775994 8.14198 0.775994 7.66798C0.775994 7.12798 0.850994 6.38098 1.00399 5.42698C2.33799 2.89398 4.28399 1.36998 6.84299 0.85498C11.749 0.85498 14.117 2.13798 13.948 4.70598C13.653 5.37298 13.319 5.80898 12.948 6.01098C12.711 6.13698 12.172 6.25998 11.326 6.37798C10.988 6.28398 10.482 6.15398 9.80599 5.98398C9.23299 5.84098 8.72199 5.76597 8.27399 5.75597C7.02399 5.72197 6.39999 6.27898 6.39999 7.42798C7.15099 8.17898 8.02 8.70398 9.009 8.99798L11.415 9.70698C12.327 10.113 13.163 10.865 13.923 11.962C14.386 12.959 14.712 13.815 14.898 14.533C14.966 14.794 15 15.09 15 15.419C15 15.994 14.895 16.661 14.684 17.42C14.101 18.679 13.397 19.621 12.571 20.246C12.107 20.592 11.066 21.154 9.44599 21.93C9.34999 22.075 9.21899 22.158 9.04999 22.184ZM7.24699 21.385H7.80299C8.05699 21.385 8.25599 21.315 8.39899 21.171C8.37399 21.027 8.35999 20.925 8.35999 20.867C8.35199 20.798 8.35999 20.617 8.38499 20.321C8.44399 20.321 8.54199 20.338 8.67699 20.372C8.82899 20.626 8.99799 20.879 9.18299 21.133C9.571 21.133 10.006 20.963 10.488 20.626C10.488 20.389 10.319 20.076 9.98199 19.688C10.032 19.605 10.079 19.549 10.121 19.524H10.589C10.699 19.659 10.813 19.797 10.931 19.942C11.024 20.026 11.197 20.09 11.45 20.132C11.628 20.005 11.889 19.811 12.235 19.549C12.556 19.305 12.746 19.064 12.805 18.827C12.332 18.489 12.036 18.181 11.919 17.901C12.493 18.003 12.954 18.083 13.299 18.142C13.67 18.202 13.857 17.987 13.857 17.496C13.857 17.319 13.831 17.107 13.781 16.863L12.932 16.698C12.577 16.58 12.4 16.402 12.4 16.166C12.754 16.149 13.004 16.142 13.147 16.142C13.29 16.142 13.616 16.154 14.122 16.179C14.181 15.656 14.211 15.234 14.211 14.912C14.211 14.735 14.203 14.588 14.186 14.47C13.468 14.47 12.822 14.368 12.248 14.166C12.695 14.031 13.194 13.849 13.742 13.622C13.742 12.937 13.654 12.562 13.476 12.494C13.426 12.477 13.362 12.47 13.286 12.47C13.142 12.47 12.921 12.543 12.621 12.692C12.321 12.839 12.138 12.913 12.071 12.913C11.909 12.913 11.796 12.748 11.729 12.42C11.981 12.318 12.366 12.166 12.882 11.963C12.882 11.38 12.653 11.088 12.197 11.088C12.053 11.088 11.906 11.109 11.754 11.151C11.255 11.295 10.875 11.367 10.614 11.367C10.47 11.367 10.361 11.346 10.285 11.304C10.285 11.144 10.288 11.03 10.297 10.963C10.5 10.861 10.775 10.679 11.121 10.419C10.648 10.038 10.281 9.84798 10.018 9.84798C9.77399 9.84798 9.40599 10.056 8.91699 10.469C8.67999 10.385 8.50599 10.33 8.39699 10.304C8.37999 10.22 8.37199 10.14 8.37199 10.064C8.37199 9.87798 8.42299 9.72998 8.52399 9.62098C8.50599 9.59598 8.461 9.54398 8.384 9.46898C7.19399 8.97198 6.35299 8.43098 5.863 7.84798C5.686 7.63698 5.59699 7.38397 5.59699 7.08797C5.59699 6.58897 5.85899 5.98198 6.38199 5.26498C6.75399 5.19698 7.27399 5.02798 7.94099 4.75798C7.95799 4.43798 7.99099 4.02698 8.04299 3.52898C8.47299 3.61498 8.68899 3.80298 8.68899 4.09898C8.68899 4.13298 8.67999 4.18598 8.66399 4.25798C8.64699 4.32898 8.63899 4.38298 8.63899 4.41498C8.63899 4.74498 9.07399 4.90897 9.94399 4.90897C10.027 4.65597 10.088 4.27098 10.121 3.75798H10.489C10.598 4.05298 10.653 4.32198 10.653 4.56798C10.653 4.62698 10.643 4.71198 10.621 4.82098C10.6 4.93098 10.589 5.01497 10.589 5.07397C10.589 5.33597 10.94 5.46698 11.641 5.46698C11.725 4.92698 11.793 4.52598 11.843 4.26398C12.105 4.31398 12.333 4.56798 12.528 5.02398H12.743C13.03 4.54298 13.157 4.18698 13.124 3.95998C13.09 3.73098 12.958 3.40598 12.731 2.98398C11.253 2.23298 9.91099 1.85698 8.70299 1.85698C8.28099 1.85698 7.88899 1.90098 7.52599 1.98398C6.03099 2.32998 4.52399 3.14498 3.00399 4.42798C1.96499 5.61798 1.44599 6.66898 1.44599 7.58198C1.44599 9.33098 2.90699 10.913 5.82799 12.332C6.27499 12.543 7.38699 13.021 9.16299 13.763C9.60899 14.159 9.90799 14.442 10.06 14.612C10.321 14.916 10.519 15.279 10.653 15.701C10.653 16.656 10.207 17.238 9.31499 17.449C8.62399 17.61 8.00199 17.69 7.44599 17.69C7.26099 17.69 7.07899 17.681 6.90299 17.664C5.47099 17.268 4.44799 17.069 3.83399 17.069C3.15999 17.069 2.50699 17.301 1.87499 17.765C1.67299 18.145 1.57199 18.487 1.57199 18.791C1.57199 19.366 1.94799 19.809 2.69899 20.121C3.83799 20.595 4.81899 20.933 5.63699 21.136C5.70399 21.034 5.73599 20.88 5.73199 20.673C5.72799 20.465 5.764 20.303 5.83899 20.186C6.253 20.186 6.51899 20.561 6.63699 21.313L7.24699 21.385Z" fill="black"/>
<path d="M24.401 22.233C23.337 22.243 22.67 22.196 22.4 22.095C19.994 21.419 18.469 19.565 17.828 16.534C17.668 15.775 17.587 15.014 17.587 14.255C17.587 13.749 17.63 13.199 17.713 12.608C17.907 11.275 18.321 10.13 18.955 9.17699C20.433 7.42799 22.197 6.39898 24.248 6.08698C24.578 6.03498 24.89 6.01099 25.186 6.01099C26.892 6.01099 28.517 6.73699 30.062 8.18899C30.357 8.78899 30.506 9.27798 30.506 9.65898C30.506 9.86198 30.472 10.022 30.404 10.14C30.066 10.748 29.273 11.052 28.023 11.052C27.905 11.052 27.694 11.038 27.39 11.013C26.774 10.963 26.175 10.936 25.592 10.936C24.596 11.511 23.895 12.063 23.489 12.596C23.016 13.229 22.751 14.073 22.692 15.129C22.987 16.345 23.426 17.028 24.009 17.18C24.295 17.257 24.591 17.295 24.895 17.295C25.232 17.295 25.578 17.25 25.933 17.16C26.609 17.001 27.335 16.854 28.112 16.721C28.221 16.707 28.344 16.7 28.48 16.7C29.105 16.708 29.679 16.971 30.203 17.485C30.355 17.984 30.431 18.447 30.431 18.879C30.431 20.035 29.803 20.926 28.544 21.551L26.416 22.007C25.739 22.149 25.068 22.226 24.401 22.233ZM24.337 21.423L26.047 21.221C26.764 21.086 27.267 20.875 27.554 20.588C27.529 20.511 27.398 20.377 27.161 20.183C27.161 20.073 27.174 19.967 27.2 19.867C27.435 19.867 27.668 19.875 27.896 19.892C28.183 19.917 28.424 19.862 28.618 19.727V19.588C28.272 19.275 28.087 19.01 28.061 18.79C28.508 18.901 28.853 18.956 29.099 18.956C29.403 18.956 29.556 18.871 29.556 18.702C29.556 18.618 29.522 18.516 29.455 18.398C29.133 17.833 28.601 17.549 27.858 17.549C26.364 18.005 25.228 18.234 24.451 18.234C23.919 18.065 23.471 17.98 23.108 17.98C23.049 17.98 22.966 17.984 22.861 17.993C22.756 18.001 22.673 18.005 22.613 18.005C22.267 18.005 21.866 17.892 21.41 17.663V17.32C21.486 17.312 21.798 17.295 22.347 17.269C22.085 16.679 21.887 16.075 21.752 15.458C21.33 15.28 21.059 15.154 20.941 15.078C20.654 14.892 20.489 14.659 20.447 14.381L21.752 14.584C21.827 14.094 21.896 13.693 21.954 13.381C21.683 13.195 21.434 12.955 21.207 12.659C21.207 12.599 21.224 12.527 21.257 12.443C21.451 12.477 21.768 12.502 22.207 12.519C22.654 11.877 22.878 11.438 22.878 11.203C22.878 11.084 22.823 11.016 22.712 11C22.467 10.974 22.345 10.806 22.345 10.493C22.345 10.374 22.362 10.236 22.396 10.076C22.7 10.076 23.05 10.325 23.447 10.823C23.523 10.772 23.874 10.604 24.498 10.317C24.498 9.86899 24.502 9.53599 24.511 9.31599C24.544 9.29099 24.612 9.24399 24.713 9.17699C24.789 9.37999 24.996 9.67798 25.334 10.076C25.41 10.067 25.781 10.051 26.449 10.025C26.457 9.92299 26.462 9.82999 26.462 9.74699C26.462 9.59499 26.449 9.48398 26.423 9.41798C26.373 9.29898 26.469 9.13498 26.714 8.92298C26.941 9.19398 27.147 9.57798 27.332 10.076C27.878 10.118 28.278 10.139 28.53 10.139C28.614 9.88498 28.698 9.67798 28.782 9.51798C29.11 9.76298 29.329 9.88499 29.438 9.88499C29.614 9.61499 29.703 9.36499 29.703 9.13799C29.703 8.95299 29.64 8.77898 29.514 8.61798C29.008 7.99298 28.079 7.52398 26.73 7.21198C26.14 7.07798 25.756 6.98398 25.579 6.93498C23.53 6.93498 21.822 7.64798 20.455 9.07498C19.139 10.46 18.435 12.191 18.342 14.267C18.671 16.699 19.149 18.371 19.773 19.283C20.64 20.541 22.159 21.255 24.337 21.423Z" fill="black"/>
<path d="M36.056 22.8541C35.743 22.7101 35.279 22.4951 34.663 22.2081C34.063 21.2971 33.764 20.1361 33.764 18.7261C33.764 18.3461 33.785 17.9541 33.827 17.5481C34.03 15.5631 34.186 13.9511 34.296 12.7091C34.254 9.41707 34.228 6.52907 34.22 4.04607C34.448 2.72907 34.938 1.78807 35.69 1.22207C35.977 1.00307 36.301 0.893066 36.666 0.893066C37.239 0.893066 37.907 1.16707 38.667 1.71607C39.013 2.19707 39.187 2.75907 39.187 3.40107C39.187 3.79007 39.124 4.20807 38.997 4.65507C38.837 5.22107 38.756 5.71807 38.756 6.15007C38.756 6.62307 38.857 7.01507 39.06 7.32807C39.439 7.21807 40.001 7.06607 40.744 6.87207C41.167 6.82107 41.571 6.79607 41.96 6.79607C43.294 6.79607 44.438 7.07007 45.393 7.61907C46.635 8.32807 47.423 9.67007 47.761 11.6471L47.686 15.6751C47.678 16.4261 47.656 17.7731 47.623 19.7151C47.615 20.0691 47.543 20.4871 47.408 20.9691C47.306 21.3321 47.057 21.7111 46.661 22.1091C46.214 22.1681 45.807 22.1981 45.445 22.1981C44.702 22.1981 44.141 22.0711 43.761 21.8181C42.975 21.2951 42.582 20.2481 42.582 18.6771C42.582 18.4321 42.595 18.1481 42.62 17.8291C42.679 17.0771 42.641 16.1891 42.506 15.1681C42.464 14.2481 42.371 13.5461 42.228 13.0651C42.042 12.4651 41.569 12.1281 40.81 12.0531C40.708 12.3731 40.506 12.5121 40.202 12.4711C39.823 12.7231 39.544 13.6651 39.367 15.2951C39.315 15.9021 39.227 16.9951 39.1 18.5751C38.796 20.1381 38.56 21.0921 38.392 21.4381C37.956 22.3131 37.179 22.7871 36.056 22.8541ZM35.79 21.8791C36.102 21.8791 36.292 21.8451 36.359 21.7771V21.1701L36.46 21.1061C36.578 21.2331 36.756 21.4151 36.992 21.6521C37.128 21.5241 37.267 21.4111 37.41 21.3091C37.41 21.1401 37.241 20.8741 36.904 20.5111C36.904 20.4281 36.916 20.3471 36.942 20.2701C36.967 20.2781 37.119 20.3171 37.397 20.3841C37.601 20.4351 37.739 20.4561 37.816 20.4471C38.01 19.8731 38.107 19.4501 38.107 19.1801C38.107 18.9611 38.039 18.8471 37.905 18.8381C37.609 18.8301 37.288 18.5601 36.942 18.0281L36.992 17.9271C37.246 17.9431 37.625 17.9721 38.132 18.0151C38.267 17.5681 38.336 16.9181 38.336 16.0641L37.563 15.7351C37.326 15.6331 37.157 15.4901 37.057 15.3041C37.09 15.2451 37.137 15.1861 37.196 15.1271C37.568 15.1271 37.944 15.1401 38.323 15.1651C38.407 15.0401 38.45 14.8781 38.45 14.6791C38.45 14.5541 38.433 14.4121 38.399 14.2551C38.121 14.2301 37.951 14.2061 37.893 14.1811C37.792 14.1381 37.661 14.0351 37.5 13.8691V13.5941C37.652 13.5941 37.825 13.5941 38.019 13.5941C38.264 13.6201 38.462 13.5901 38.614 13.5061C38.682 13.1511 38.774 12.7031 38.893 12.1631C39.273 11.8421 39.754 11.2891 40.336 10.5041C40.497 10.4871 40.675 10.5521 40.869 10.7001C41.063 10.8481 41.308 10.9221 41.604 10.9221C41.73 10.4241 41.856 10.1751 41.983 10.1751C42.042 10.1751 42.102 10.2201 42.16 10.3141C42.354 10.6261 42.469 11.0231 42.502 11.5041C43.135 12.4241 43.448 14.0241 43.44 16.3041C43.431 17.5621 43.448 18.3901 43.49 18.7861C43.583 19.7241 43.819 20.5051 44.199 21.1301C44.562 21.3321 45.031 21.4451 45.605 21.4721C45.605 21.3621 45.608 21.2851 45.617 21.2431C45.304 21.0321 45.106 20.9001 45.022 20.8501V20.3691C45.562 20.3181 45.955 20.4451 46.2 20.7491C46.259 20.8171 46.309 20.8511 46.352 20.8511C46.512 20.8511 46.613 20.4501 46.656 19.6481C46.309 19.5811 46.005 19.3521 45.744 18.9631C45.777 18.8871 45.841 18.7911 45.934 18.6721H46.656C46.817 18.3511 46.897 18.0891 46.897 17.8871C46.897 17.7101 46.837 17.5741 46.72 17.4811C46.365 17.2111 46.091 17.0001 45.897 16.8471C45.897 16.7121 45.905 16.6201 45.922 16.5691C46.454 16.5271 46.757 16.4081 46.834 16.2151C46.851 15.8441 46.873 15.4721 46.897 15.1011C46.195 15.0591 45.812 14.8601 45.745 14.5061C46.006 14.4211 46.391 14.2691 46.897 14.0491V13.3651C46.668 13.2631 46.377 13.1291 46.023 12.9601C46.005 12.9001 45.985 12.7711 45.96 12.5671C46.019 12.5081 46.281 12.4281 46.745 12.3261C46.762 12.0481 46.715 11.6251 46.605 11.0591C46.141 10.9831 45.794 10.8651 45.567 10.7041C45.567 10.5691 45.579 10.4421 45.605 10.3251C45.722 10.2481 45.968 10.1601 46.339 10.0591C46.339 9.87307 46.347 9.73407 46.364 9.64107C45.891 9.25307 45.169 8.67907 44.199 7.91907C43.633 7.64107 43.05 7.50107 42.451 7.50107C42.164 7.50107 41.881 7.53106 41.603 7.59007C40.699 7.78407 39.931 8.11007 39.297 8.56607V9.45207C39.002 9.46007 38.79 9.43107 38.664 9.36307C38.537 8.95007 38.402 8.63707 38.258 8.42607C38.089 8.42607 37.925 8.42607 37.764 8.42607C37.629 8.42607 37.498 8.41707 37.371 8.40107C37.143 8.39207 37.03 8.27507 37.03 8.04707C37.03 7.98807 37.038 7.92107 37.055 7.84507C37.307 7.75307 37.603 7.66407 37.942 7.58007C37.924 7.37807 37.916 7.08007 37.916 6.68407L37.727 6.65907C37.507 6.62507 37.38 6.60007 37.347 6.58307C37.195 6.52407 37.06 6.39807 36.942 6.20607C37.119 5.85207 37.389 5.69307 37.753 5.72707C38.057 5.76007 38.209 5.44907 38.209 4.79307C38.209 4.66607 38.205 4.53107 38.196 4.38907C37.681 4.38907 37.356 4.29307 37.221 4.10007C37.229 3.97307 37.254 3.86007 37.297 3.75807C37.525 3.66507 37.834 3.55707 38.221 3.43107C38.246 3.25407 38.259 3.10307 38.259 2.97707C38.259 2.60707 38.157 2.39707 37.955 2.34607C37.676 2.27907 37.309 2.23307 36.852 2.20807C36.219 2.45207 35.789 2.71607 35.56 2.99907C35.332 3.28207 35.15 3.76207 35.016 4.43707C35.016 7.28207 35.007 9.60307 34.991 11.4031C34.983 12.0021 34.903 14.3491 34.751 18.4441C34.751 18.7921 34.742 19.4321 34.726 20.3701C34.708 21.0911 35.063 21.5931 35.79 21.8791Z" fill="black"/>
<path d="M53.368 22.247C52.903 22.104 52.536 21.884 52.265 21.588C52.071 21.378 51.848 21.011 51.594 20.486C51.56 19.954 51.548 18.945 51.556 17.459C51.556 17.071 51.543 16.353 51.518 15.306L51.467 13.077C51.467 13.06 51.493 12.115 51.543 10.239C51.594 8.33095 52.19 7.21696 53.329 6.89596C53.506 6.84496 53.722 6.81895 53.975 6.81895C54.54 6.81895 55.253 6.95895 56.115 7.23695C56.072 7.23695 56.203 7.21995 56.508 7.18595C57.285 6.61295 58.104 6.32495 58.966 6.32495C59.261 6.32495 59.548 6.35396 59.826 6.41396C61.009 6.66596 61.599 7.60095 61.599 9.21295C61.067 9.85595 60.333 10.453 59.395 11.011C58.187 11.729 57.398 12.239 57.026 12.543C56.672 13.684 56.457 15.009 56.38 16.521C56.363 16.833 56.347 18.18 56.33 20.562C55.891 21.296 55.5 21.76 55.158 21.956C54.818 22.149 54.22 22.247 53.368 22.247ZM53.772 21.385C54.21 21.385 54.617 21.199 54.988 20.829C54.98 20.744 54.976 20.63 54.976 20.487C54.393 20.327 54.076 20.086 54.026 19.765C54.532 19.748 54.933 19.718 55.229 19.676C55.398 19.651 55.483 19.536 55.483 19.334C55.483 19.166 55.423 18.938 55.306 18.65C55.069 18.617 54.892 18.596 54.773 18.587C54.621 18.368 54.549 18.241 54.558 18.207C54.566 18.165 54.571 18.094 54.571 17.993C54.859 17.941 55.133 17.909 55.395 17.891C55.412 17.662 55.42 17.456 55.42 17.27C55.42 17.009 55.403 16.78 55.37 16.586C54.829 16.418 54.559 16.269 54.559 16.143C54.559 16.016 54.863 15.91 55.471 15.826C55.53 15.395 55.565 15.13 55.573 15.028C55.581 14.927 55.581 14.778 55.573 14.585C55.201 14.501 54.855 14.424 54.534 14.357C54.517 14.297 54.495 14.167 54.471 13.963C54.691 13.88 55.104 13.82 55.712 13.786C55.847 13.246 55.915 12.756 55.915 12.317C55.653 12.198 55.497 12.103 55.446 12.031C55.395 11.959 55.37 11.788 55.37 11.518C55.876 11.57 56.247 11.598 56.484 11.607C56.712 11.615 57.084 11.4 57.599 10.962C57.565 10.818 57.388 10.569 57.067 10.214C57.109 9.90095 57.201 9.74496 57.345 9.74496C57.489 9.74496 57.784 9.93396 58.232 10.315C58.485 10.289 58.853 10.145 59.334 9.88296C59.334 9.74696 59.249 9.54496 59.08 9.27496C59.08 9.17396 59.093 9.07696 59.119 8.98396C59.254 8.97496 59.461 9.01695 59.739 9.11095C59.917 9.16995 60.048 9.19895 60.132 9.19895C60.192 9.19895 60.238 9.18596 60.272 9.16096C60.272 7.87796 60.01 7.23595 59.487 7.23595C59.183 7.23595 58.41 7.43896 57.169 7.84296C56.933 8.13996 56.477 8.54895 55.801 9.07195C55.48 9.31695 55.223 9.43896 55.029 9.43896C54.8 9.43896 54.657 9.27795 54.598 8.95795C54.937 8.54395 55.213 8.23196 55.421 8.02096C55.404 7.98696 55.375 7.90595 55.331 7.77995C54.82 7.60195 54.386 7.51295 54.029 7.51295C53.271 7.51295 52.849 7.90596 52.763 8.69096C52.687 9.30796 52.589 10.418 52.469 12.021C52.478 12.765 52.478 14.111 52.469 16.062L52.394 20.166C52.546 20.571 52.707 20.846 52.875 20.989C53.017 21.111 53.316 21.242 53.772 21.385Z" fill="black"/>
<path d="M66.542 22.3349C64.777 21.8879 63.894 20.3559 63.894 17.7379C63.894 17.0789 63.95 16.3829 64.06 15.6479C64.185 14.8119 64.288 14.0099 64.364 13.2419C64.329 12.7529 64.313 12.2799 64.313 11.8229C64.313 11.1819 64.346 10.5659 64.415 9.97386C64.524 9.00286 65.01 8.11286 65.871 7.30087C66.31 7.10686 66.715 7.00986 67.087 7.00986C67.5 7.00986 67.872 7.12386 68.201 7.35186C68.843 7.79086 69.257 8.46686 69.442 9.37886C69.509 10.8389 69.556 12.3759 69.581 13.9889C69.598 15.0609 69.459 16.6319 69.164 18.6999C69.079 19.3589 68.931 20.2039 68.721 21.2329C68.459 21.9679 67.732 22.3349 66.542 22.3349ZM66.491 6.54186C65.275 5.97586 64.498 5.29586 64.16 4.50186C64.084 3.08286 64.464 2.13686 65.301 1.66486C65.866 1.34386 66.424 1.18286 66.972 1.18286C67.251 1.18286 67.525 1.22086 67.796 1.29786C68.614 1.53286 69.206 2.05287 69.569 2.85487C69.661 3.05787 69.708 3.28186 69.708 3.52586C69.708 4.18486 69.328 4.93586 68.568 5.78086C67.834 6.15286 67.141 6.40586 66.491 6.54186ZM66.01 21.4119H66.606C66.623 21.3599 66.631 21.3049 66.631 21.2459C66.631 21.0939 66.559 20.8879 66.416 20.6259C66.273 20.3639 66.2 20.1399 66.2 19.9539C66.428 19.9879 66.651 20.1479 66.871 20.4349C66.989 20.5949 67.166 20.8319 67.403 21.1429H67.606C67.927 20.7219 68.087 20.2449 68.087 19.7129C67.698 19.4599 67.373 19.2359 67.111 19.0419V18.7879C67.363 18.8139 67.744 18.8349 68.251 18.8519C68.259 18.3709 68.293 17.8209 68.353 17.2049C68.167 17.1289 67.977 17.0529 67.783 16.9769C67.665 16.9099 67.606 16.7529 67.606 16.5079C67.777 16.4659 67.957 16.4449 68.145 16.4449C68.256 16.4449 68.375 16.4529 68.504 16.4699C68.53 16.1409 68.543 15.8619 68.543 15.6339C68.543 15.4149 68.538 15.2709 68.53 15.2039C68.495 14.9409 68.288 14.6679 67.909 14.3799V14.0379C68.12 13.9959 68.314 13.9619 68.491 13.9359C68.525 13.8609 68.542 13.7849 68.542 13.7079C68.542 13.6409 68.529 13.4169 68.504 13.0369C68.09 12.8589 67.757 12.7069 67.504 12.5809V12.1749C67.648 12.0819 67.96 12.0359 68.441 12.0359C68.543 11.7749 68.593 11.5589 68.593 11.3899C68.593 11.1629 68.508 11.0149 68.34 10.9479C68.027 10.8209 67.762 10.6049 67.543 10.3019C67.619 10.2179 67.665 10.1629 67.682 10.1379H68.404C68.531 9.82386 68.594 9.54286 68.594 9.29686C68.594 8.90686 68.426 8.58387 68.088 8.32887C67.783 8.09986 67.433 7.98486 67.036 7.98486C66.749 7.98486 66.458 8.06486 66.162 8.22586C65.521 9.30786 65.179 10.5119 65.137 11.8389C65.103 12.5649 65.049 13.8809 64.972 15.7819C64.954 16.3309 64.909 17.3199 64.832 18.7479C64.765 19.7289 65.158 20.6159 66.01 21.4119ZM66.339 5.54086C66.474 5.54086 66.576 5.50787 66.643 5.43887C66.643 5.16087 66.542 4.96587 66.339 4.85587C66.204 4.78887 66.137 4.66986 66.137 4.50186C66.137 4.41786 66.158 4.31686 66.2 4.19786C66.613 4.19786 66.935 4.44286 67.162 4.93186C67.238 5.09286 67.348 5.17286 67.491 5.17286C67.711 5.17286 68.002 5.01686 68.365 4.70586L68.364 4.37786C68.112 4.19786 67.893 4.03586 67.709 3.89086C67.709 3.65586 67.721 3.51686 67.747 3.47486C67.772 3.43286 67.885 3.38586 68.088 3.33586C68.171 3.39586 68.307 3.49186 68.492 3.62686C68.602 3.71186 68.707 3.75486 68.809 3.75486C68.893 3.75486 68.974 3.71586 69.05 3.63986C69.05 2.70286 68.696 2.18786 67.987 2.09486C67.851 2.07886 67.712 2.06986 67.569 2.06986C67.011 2.06986 66.488 2.21386 65.998 2.50086C65.221 2.95686 64.832 3.50587 64.832 4.14687C64.832 4.67087 65.334 5.13486 66.339 5.54086Z" fill="black"/>
<path d="M77.789 22.3859C76.919 22.2849 76.252 22.0229 75.788 21.6009C75.222 20.2079 74.855 18.6499 74.686 16.9279C74.618 16.2679 74.551 14.6649 74.483 12.1149C74.407 12.0219 73.93 11.7589 73.053 11.3289C72.622 10.7049 72.407 10.1559 72.407 9.68293C72.407 9.37093 72.499 9.09193 72.686 8.84693C73.149 8.23893 73.919 7.82093 74.991 7.59293C75.008 7.55093 75.041 7.49593 75.092 7.42793C75.186 5.67993 75.312 4.57793 75.473 4.12193C75.785 3.24393 76.537 2.46793 77.727 1.79093C78.318 1.58093 78.985 1.46693 79.728 1.44993C81.383 1.42393 82.456 1.93093 82.945 2.96993C83.037 3.16393 83.084 3.39193 83.084 3.65493C83.084 4.06793 82.953 4.55293 82.691 5.11093C82.083 5.64193 81.45 5.89193 80.791 5.85793C80.267 5.83293 80.006 6.16593 80.006 6.85893C80.006 7.04393 80.023 7.25593 80.056 7.49193C81.374 7.98193 82.188 8.35293 82.501 8.60593C83.116 9.11393 83.4 9.92293 83.349 11.0379C83.104 11.5279 82.643 11.8619 81.968 12.0389C81.741 12.0989 81.153 12.2289 80.207 12.4319C80.215 12.7439 80.266 13.5969 80.359 14.9909C80.427 16.0029 80.452 16.8559 80.435 17.5489C80.375 19.8619 79.848 21.4489 78.852 22.3109C78.481 22.3189 78.126 22.3439 77.789 22.3859ZM77.446 21.6769C78.41 21.3809 78.891 20.8999 78.891 20.2319C78.764 20.1559 78.645 20.0819 78.536 20.0039L78.207 19.7759C78.207 19.7339 78.225 19.6529 78.258 19.5339C78.635 19.4839 78.916 19.4509 79.105 19.4329C79.174 19.2819 79.208 19.1239 79.208 18.9639C79.208 18.8799 79.193 18.7479 79.164 18.5719C79.134 18.3949 79.119 18.2639 79.119 18.1789C78.369 18.0019 77.993 17.7529 77.993 17.4319C78.128 17.4489 78.326 17.4659 78.589 17.4829C78.792 17.4999 78.999 17.4449 79.209 17.3179C79.201 17.0309 79.197 16.6219 79.197 16.0889C78.935 16.0139 78.542 15.8869 78.019 15.7099C78.001 15.6159 77.993 15.4849 77.993 15.3169C78.078 15.3169 78.297 15.3199 78.652 15.3289C79.006 15.3369 79.238 15.2869 79.349 15.1769C79.349 14.9669 79.302 14.6789 79.209 14.3159C78.703 14.1729 78.386 14.0329 78.26 13.8989C78.31 13.7969 78.374 13.6949 78.449 13.5939L78.778 13.5689C78.888 13.5619 79.007 13.5479 79.133 13.5309C79.335 13.2779 79.437 13.0589 79.437 12.8719C79.437 12.6779 79.323 12.5309 79.095 12.4289C78.647 12.2259 78.348 12.0279 78.196 11.8339C78.246 11.7489 78.293 11.6939 78.335 11.6689C79.483 11.6689 80.223 11.5049 80.551 11.1739C80.518 11.0819 80.446 10.9259 80.336 10.7059C80.243 10.5209 80.197 10.3599 80.197 10.2249C80.449 10.3009 80.822 10.5039 81.311 10.8329C81.395 10.7819 81.458 10.7399 81.501 10.7059C81.501 10.5799 81.513 10.4659 81.538 10.3639C81.673 10.3819 81.939 10.4159 82.336 10.4659C82.48 10.2869 82.551 10.1309 82.551 9.99593C82.551 9.91093 82.521 9.83493 82.462 9.76693C82.36 9.65693 82.204 9.49093 81.993 9.27093C81.765 9.14393 81.343 9.01193 80.726 8.87693C80.152 8.75093 79.759 8.61393 79.548 8.47093C79.211 8.24293 79.024 7.87393 78.99 7.36593C78.636 7.18693 78.39 6.98393 78.256 6.75593C78.433 6.52693 78.593 6.41293 78.737 6.41293C78.762 6.41293 78.794 6.42293 78.832 6.44393C78.87 6.46493 78.897 6.47593 78.914 6.47593C79.058 6.47593 79.155 6.19293 79.205 5.62693C78.834 5.31393 78.648 5.04893 78.648 4.82793C78.648 4.71893 78.694 4.61793 78.787 4.52393L80.287 4.99293C80.312 5.00993 80.342 5.01893 80.375 5.01893C80.613 5.01893 80.731 4.64293 80.731 3.89193C81.061 3.92493 81.417 4.01893 81.799 4.17093C82.12 3.79793 82.282 3.48993 82.282 3.24593C82.282 2.92493 82.024 2.70493 81.507 2.58693C80.576 2.37593 79.891 2.26993 79.452 2.26993C77.877 2.62493 76.87 3.24993 76.431 4.14493C76.134 4.74493 75.986 5.95993 75.986 7.79193C76.104 7.80893 76.311 7.91593 76.607 8.10893C76.59 8.19193 76.582 8.31593 76.582 8.47593C76.21 8.59293 75.69 8.66993 75.023 8.70393C74.449 8.72893 74.061 8.80593 73.858 8.93193C73.545 9.12593 73.355 9.51793 73.288 10.1099C73.524 10.5479 73.963 10.8519 74.604 11.0219C75.389 11.2319 75.922 11.4599 76.2 11.7059C76.191 11.7989 76.188 11.9379 76.188 12.1239C76.053 12.2259 75.871 12.2889 75.644 12.3139C75.66 13.8499 75.808 16.4709 76.087 20.1789C76.244 20.9089 76.695 21.4059 77.446 21.6769Z" fill="black"/>
<path d="M91.11 22.4381C89.346 22.1921 88.434 20.6891 88.375 17.9291C88.349 16.7961 88.396 15.6861 88.514 14.5971C88.573 14.0481 88.603 13.5711 88.603 13.1661C88.603 12.7091 88.569 12.3181 88.501 11.9891C86.872 11.5571 86.057 10.8361 86.057 9.82208C86.057 9.15508 86.526 8.48908 87.463 7.82108C88.189 7.59308 88.548 7.30608 88.539 6.96108C88.539 6.61508 88.539 6.05709 88.539 5.28909C88.818 3.97109 89.34 3.08108 90.108 2.61608C90.327 2.48108 90.566 2.41309 90.828 2.41309C91.435 2.41309 92.131 2.80109 92.914 3.57809C93.15 4.13609 93.31 5.19109 93.395 6.74509C93.487 6.99809 93.808 7.23009 94.356 7.44209C94.575 7.52509 94.988 7.67409 95.596 7.88509C96.059 8.10509 96.434 8.43008 96.721 8.86008C96.898 9.12208 96.986 9.47309 96.986 9.91109C96.986 10.1991 96.948 10.5241 96.873 10.8871C96.527 11.2331 96.066 11.4911 95.493 11.6591C95.332 11.7011 94.804 11.8111 93.91 11.9891C93.681 12.2161 93.543 13.5211 93.492 15.9021C93.474 16.6361 93.466 17.5231 93.466 18.5621V20.2331C93.255 21.0281 93.014 21.5731 92.744 21.8681C92.39 22.2471 91.845 22.4381 91.11 22.4381ZM90.625 21.5881H91.224C91.232 21.5121 91.228 21.4021 91.211 21.2591C91.195 21.1161 91.186 21.0141 91.186 20.9551C91.313 20.8451 91.41 20.7901 91.477 20.7901C91.536 20.7981 91.654 20.9031 91.831 21.1061C92.228 21.0391 92.46 20.6541 92.527 19.9541L91.629 19.2961C91.679 19.2111 91.726 19.1481 91.768 19.1061H92.566V17.8281C92.363 17.7171 92.03 17.5571 91.566 17.3471C91.574 17.2781 91.594 17.1811 91.628 17.0551C91.916 17.0551 92.209 17.0681 92.505 17.0941C92.513 16.7561 92.534 16.2671 92.567 15.6251C92.262 15.4641 91.916 15.2661 91.528 15.0291V14.7511C91.823 14.7251 92.124 14.7381 92.428 14.7891C92.58 14.6361 92.647 14.4171 92.63 14.1301C92.605 13.7841 92.592 13.5681 92.592 13.4841C92.567 13.4671 92.36 13.3361 91.972 13.0911V12.7111H92.63C92.697 12.5671 92.766 12.2731 92.833 11.8241C92.639 11.7911 92.457 11.6771 92.288 11.4821C92.205 11.3811 92.163 11.2961 92.163 11.2301C92.163 11.1531 92.208 11.0901 92.302 11.0391C92.885 11.0731 93.53 11.0771 94.24 11.0531C94.898 11.0281 95.443 10.7071 95.874 10.0891C95.933 9.11808 95.561 8.49009 94.76 8.20309C94.591 8.14409 93.771 8.02608 92.303 7.84808C92.226 7.78108 92.167 7.64208 92.126 7.43008C92.253 7.40508 92.447 7.24408 92.709 6.94908C92.498 6.68808 92.261 6.52309 92 6.45509C91.535 6.33709 91.265 6.26108 91.189 6.22708C91.181 6.15208 91.176 6.03709 91.176 5.88409C91.446 5.86009 91.716 5.83908 91.986 5.82108C92.29 5.76208 92.485 5.60208 92.569 5.34008C92.519 5.28108 92.45 5.18509 92.366 5.04909C92.281 5.06609 92.201 5.07408 92.126 5.07408C91.847 5.07408 91.602 4.99008 91.391 4.82108C91.391 4.69508 91.429 4.56809 91.504 4.44209L92.328 4.34008C92.286 4.22208 92.23 4.04408 92.163 3.80808C91.73 3.43708 91.349 3.25108 91.018 3.25108C90.525 3.25108 90.127 3.58808 89.822 4.26408C89.61 4.73708 89.469 5.28509 89.403 5.91009C89.378 6.24009 89.365 6.49708 89.365 6.68208C89.365 6.96908 89.386 7.22309 89.428 7.44209C89.816 7.46709 90.045 7.48808 90.112 7.50508C90.316 7.54708 90.522 7.65208 90.734 7.82108C90.717 7.88108 90.709 7.97308 90.709 8.09908C89.914 8.23508 89.265 8.34909 88.758 8.44109C87.998 8.58609 87.437 8.88408 87.074 9.34008C86.99 9.63608 86.947 9.88908 86.947 10.1001C86.947 10.6241 87.208 10.9141 87.732 10.9731C88.189 11.0251 88.656 11.0501 89.138 11.0501C89.433 11.0501 89.729 11.0421 90.025 11.0251C90.262 11.2611 90.379 11.4381 90.379 11.5561C90.379 11.7171 90.076 11.8481 89.468 11.9501C89.468 13.3771 89.45 14.3861 89.417 14.9761C89.35 16.1591 89.32 17.2821 89.328 18.3451C89.328 18.4041 89.367 19.0251 89.442 20.2071C89.489 20.9251 89.885 21.3851 90.625 21.5881Z" fill="black"/>
</svg>
