<svg width="108" height="18" viewBox="0 0 108 18" fill="none" xmlns="http://www.w3.org/2000/svg">
<path d="M6.38999 1.61298C5.55999 1.89598 4.83899 2.50898 4.83899 3.40398C4.83899 4.47398 5.42899 5.13096 8.02799 6.13496C11.895 7.61996 12.769 9.67397 12.769 11.684C12.769 15.071 9.94999 17.278 6.71699 17.343V16.075C7.76499 15.748 8.66099 15.267 8.70499 14.065C8.74799 12.688 7.13199 12.121 6.08199 11.662C3.32999 10.504 0.773987 9.25896 0.773987 5.82896C0.773987 2.50796 3.17599 0.454971 6.38899 0.344971V1.61298H6.38999ZM0.774986 12.122C0.774986 11.663 0.860988 11.052 1.47399 11.052C1.91099 11.052 2.21699 11.402 2.28299 11.773C2.58799 13.52 3.81199 15.684 5.73399 16.077V17.345C3.83299 17.301 3.41799 16.536 2.63199 16.536C1.93199 16.536 1.99699 17.257 1.45099 17.257C0.774987 17.257 0.774986 16.449 0.774986 16.339V12.122ZM12.18 5.06396C12.18 5.56797 12.092 6.11298 11.458 6.11298C10.934 6.11298 10.737 5.69897 10.672 5.26097C10.432 3.64397 9.07699 1.98398 7.37299 1.61298V0.344971C8.74899 0.365971 10.214 1.19698 10.454 1.19698C11.022 1.19698 10.978 0.411972 11.546 0.411972C12.224 0.411972 12.18 1.15396 12.18 1.32896V5.06396Z" fill="black"/>
<path d="M22.412 17.3439C17.605 17.2559 15.333 13.609 15.333 9.12895C15.333 4.08195 18.173 0.498947 22.412 0.345947V1.61395C21.363 1.83295 21.014 2.72696 21.014 3.64496V14.001C21.014 14.919 21.364 15.814 22.412 16.076V17.3439ZM23.395 0.345947C24.203 0.366947 25.886 1.21996 26.454 1.21996C26.781 1.21996 26.912 1.08895 27.044 0.804947C27.175 0.519947 27.328 0.345947 27.634 0.345947C28.333 0.345947 28.333 1.02395 28.333 1.13295V6.20096C28.333 6.30996 28.333 6.98796 27.634 6.98796C27.175 6.98796 26.912 6.61696 26.826 6.20096C26.454 4.43096 25.428 2.15896 23.395 1.61296V0.345947ZM27.699 12.2749C28.115 12.2749 28.355 12.625 28.355 13.017C28.311 14.809 25.667 17.431 23.396 17.343V16.075C25.079 15.704 26.499 14.59 26.979 12.972C27.109 12.603 27.24 12.2749 27.699 12.2749Z" fill="black"/>
<path d="M37.872 14.5688C37.872 15.3768 37.85 15.5068 38.614 15.7488C38.899 15.8358 39.095 16.0328 39.095 16.3378C39.095 16.9728 38.374 17.0159 38.287 17.0159H32.103C32.016 17.0159 31.295 16.9728 31.295 16.3378C31.295 16.0328 31.491 15.8358 31.775 15.7488C32.539 15.5078 32.518 15.3768 32.518 14.5688V3.12085C32.518 2.31185 32.539 2.18184 31.775 1.94084C31.491 1.85284 31.295 1.65585 31.295 1.35085C31.295 0.715845 32.015 0.672852 32.103 0.672852H38.287C38.373 0.672852 39.095 0.715845 39.095 1.35085C39.095 1.65585 38.899 1.85284 38.614 1.94084C37.85 2.18084 37.872 2.31185 37.872 3.12085V14.5688ZM40.777 9.34685H38.854V8.07985H40.777V3.12085C40.777 2.31185 40.798 2.18184 40.033 1.94084C39.75 1.85284 39.553 1.65585 39.553 1.35085C39.553 0.715845 40.275 0.672852 40.362 0.672852H46.545C46.633 0.672852 47.354 0.715845 47.354 1.35085C47.354 1.65585 47.158 1.85284 46.874 1.94084C46.11 2.18084 46.131 2.31185 46.131 3.12085V14.5688C46.131 15.3768 46.11 15.5068 46.874 15.7488C47.158 15.8358 47.354 16.0328 47.354 16.3378C47.354 16.9728 46.633 17.0159 46.545 17.0159H40.362C40.275 17.0159 39.553 16.9728 39.553 16.3378C39.553 16.0328 39.75 15.8358 40.033 15.7488C40.798 15.5078 40.777 15.3768 40.777 14.5688V9.34685Z" fill="black"/>
<path d="M51.668 3.12085C51.668 2.31185 51.689 2.18184 50.924 1.94084C50.64 1.85284 50.443 1.65585 50.443 1.35085C50.443 0.715845 51.165 0.672852 51.252 0.672852H57.02V14.5688C57.02 15.3768 56.999 15.5068 57.763 15.7488C58.047 15.8358 58.243 16.0328 58.243 16.3378C58.243 16.9728 57.522 17.0159 57.434 17.0159H51.251C51.164 17.0159 50.442 16.9728 50.442 16.3378C50.442 16.0328 50.639 15.8358 50.923 15.7488C51.688 15.5078 51.667 15.3768 51.667 14.5688V3.12085H51.668ZM58.004 0.673843H58.113C59.533 0.673843 61.019 0.629855 62.33 1.26385C63.794 1.98485 64.537 3.18585 64.559 4.84685C64.602 7.35985 62.942 8.45085 60.713 8.97585V9.01985C62.658 9.30385 64.515 9.87285 64.559 12.1879V14.1108C64.559 14.3068 64.493 14.7439 64.777 14.7439C65.127 14.7439 65.193 14.1108 65.716 14.1108C66.001 14.1108 66.35 14.4389 66.35 14.7439C66.35 15.3779 65.629 16.1859 65.149 16.5569C64.406 17.1689 63.619 17.3438 62.68 17.3438C61.741 17.3438 60.888 17.1038 60.211 16.4258C59.447 15.6398 59.337 14.6778 59.337 13.6518V12.1669C59.337 11.1609 59.315 9.93785 58.004 9.80685V8.51785C59.184 8.40985 59.337 7.68785 59.337 6.61885V3.97385C59.337 2.88185 59.096 2.35685 58.004 1.96385V0.673843Z" fill="black"/>
<path d="M75.217 14.5688C75.217 15.3768 75.196 15.5068 75.96 15.7488C76.245 15.8358 76.441 16.0328 76.441 16.3378C76.441 16.9728 75.72 17.0159 75.632 17.0159H69.449C69.362 17.0159 68.64 16.9728 68.64 16.3378C68.64 16.0328 68.837 15.8358 69.121 15.7488C69.885 15.5078 69.863 15.3768 69.863 14.5688V3.12085C69.863 2.31185 69.885 2.18184 69.121 1.94084C68.837 1.85284 68.64 1.65585 68.64 1.35085C68.64 0.715845 69.362 0.672852 69.449 0.672852H75.632C75.72 0.672852 76.441 0.715845 76.441 1.35085C76.441 1.65585 76.245 1.85284 75.96 1.94084C75.196 2.18084 75.217 2.31185 75.217 3.12085V14.5688Z" fill="black"/>
<path d="M80.55 3.12085C80.55 2.31185 80.571 2.18184 79.807 1.94084C79.523 1.85284 79.326 1.65585 79.326 1.35085C79.326 0.715845 80.048 0.672852 80.135 0.672852H85.903V14.5688C85.903 15.3768 85.882 15.5068 86.646 15.7488C86.93 15.8358 87.126 16.0328 87.126 16.3378C87.126 16.9728 86.405 17.0159 86.317 17.0159H80.134C80.047 17.0159 79.325 16.9728 79.325 16.3378C79.325 16.0328 79.522 15.8358 79.806 15.7488C80.57 15.5078 80.549 15.3768 80.549 14.5688V3.12085H80.55ZM86.885 0.673843H91.757V5.10985C91.757 5.21885 91.735 5.63284 91.079 5.63284C90.708 5.63284 90.599 5.41385 90.489 5.08784C89.921 3.31684 88.807 2.24585 86.885 1.94185V0.673843ZM86.885 7.97084C87.802 7.73084 88.218 6.87884 88.414 6.04884C88.523 5.67684 88.654 5.32684 89.113 5.32684C89.791 5.32684 89.681 6.11285 89.681 6.28885V11.0078C89.681 11.1828 89.79 11.9688 89.113 11.9688C88.654 11.9688 88.523 11.6188 88.414 11.2478C88.218 10.4178 87.803 9.56485 86.885 9.32585V7.97084Z" fill="black"/>
<path d="M94.165 0.674072H97.311V1.94208C96.174 2.75108 95.869 4.19208 95.672 5.35008C95.606 5.83008 95.498 6.39908 94.885 6.39908C94.231 6.39908 94.165 5.85208 94.165 5.76408V0.674072ZM98.294 0.674072H103.647V14.5701C103.647 15.3781 103.625 15.5081 104.39 15.7501C104.674 15.8371 104.87 16.0341 104.87 16.3391C104.87 16.9741 104.149 17.0171 104.062 17.0171H97.879C97.792 17.0171 97.071 16.9741 97.071 16.3391C97.071 16.0341 97.267 15.8371 97.551 15.7501C98.316 15.5091 98.294 15.3781 98.294 14.5701V0.674072ZM107.775 5.76408C107.775 5.85208 107.709 6.39908 107.054 6.39908C106.443 6.39908 106.333 5.83108 106.267 5.35008C106.07 4.19208 105.765 2.75008 104.628 1.94208V0.674072H107.774V5.76408H107.775Z" fill="black"/>
</svg>
