<svg width="70" height="117" viewBox="0 0 70 117" fill="none" xmlns="http://www.w3.org/2000/svg">
<g clip-path="url(#clip0)">
<path d="M70.203 0V117H0.203995V0" fill="#FE0000"/>
<path d="M39.975 50.293H53.457V82.463L39.975 50.293Z" fill="white"/>
<path d="M30.467 50.293H16.968V82.463L30.467 50.293Z" fill="white"/>
<path d="M35.218 62.146L43.813 82.461H38.182L35.607 75.993H29.317L35.218 62.146Z" fill="white"/>
<path d="M56.215 50.292C57.078 50.292 57.768 50.987 57.768 51.855C57.768 52.735 57.079 53.432 56.207 53.432C55.338 53.432 54.633 52.736 54.633 51.855C54.633 50.987 55.338 50.292 56.207 50.292H56.215ZM56.207 50.559C55.516 50.559 54.959 51.14 54.959 51.86C54.959 52.584 55.516 53.163 56.215 53.163C56.904 53.17 57.455 52.584 57.455 51.86C57.455 51.14 56.904 50.559 56.215 50.559H56.207ZM55.922 52.767H55.606V51.028C55.754 51.002 55.899 50.976 56.131 50.976C56.41 50.976 56.584 51.032 56.697 51.121L56.849 51.477C56.849 51.703 56.701 51.849 56.511 51.897V51.913C56.663 51.941 56.761 52.078 56.794 52.337C56.839 52.609 56.876 52.715 56.903 52.767H56.583C56.54 52.715 56.507 52.555 56.47 52.322C56.433 52.115 56.318 52.029 56.105 52.029H55.921V52.767H55.922ZM55.922 51.787H56.113C56.338 51.787 56.527 51.711 56.527 51.508C56.527 51.354 56.418 51.214 56.125 51.214L55.922 51.22V51.787Z" fill="white"/>
<path d="M21.869 95.913L21.442 93.39C21.317 92.66 21.165 91.523 21.051 90.738H21.007C20.879 91.527 20.705 92.699 20.575 93.396L20.115 95.914H21.869V95.913ZM19.885 97.561L19.33 100.36H17.27L19.833 88.706H22.351L24.678 100.36H22.612L22.069 97.561H19.885Z" fill="white"/>
<path d="M29.353 95.153L29.323 94.649C29.242 94.077 28.93 93.553 28.438 93.553C27.6 93.553 27.285 94.774 27.285 96.194C27.285 97.833 27.733 98.766 28.408 98.766C28.724 98.766 29.086 98.604 29.283 97.92C29.327 97.785 29.353 97.598 29.353 97.383V95.153ZM31.467 88.393V97.944C31.467 98.706 31.504 99.633 31.535 100.362H29.711L29.589 99.389H29.547C29.241 99.989 28.575 100.502 27.784 100.502C26.039 100.502 25.173 98.582 25.173 96.158C25.173 93.209 26.468 91.775 27.867 91.775C28.597 91.775 29.079 92.132 29.318 92.648H29.352V88.392H31.467V88.393Z" fill="white"/>
<path d="M35.854 98.887C36.656 98.887 36.861 97.377 36.861 96.121C36.861 94.935 36.656 93.387 35.819 93.387C34.927 93.387 34.738 94.936 34.738 96.121C34.738 97.56 34.977 98.887 35.836 98.887H35.854ZM35.813 100.502C33.877 100.502 32.654 98.941 32.654 96.158C32.654 93.121 34.221 91.773 35.859 91.773C37.783 91.773 38.984 93.404 38.984 96.113C38.984 99.59 37.101 100.502 35.83 100.502H35.813Z" fill="white"/>
<path d="M42.271 97.346C42.271 97.555 42.308 97.752 42.351 97.883C42.564 98.594 42.925 98.766 43.21 98.766C44.023 98.766 44.358 97.739 44.358 96.088C44.358 94.59 44.003 93.553 43.2 93.553C42.8 93.553 42.462 93.989 42.346 94.455L42.27 94.988V97.346H42.271ZM40.164 88.393H42.271V92.793H42.304C42.72 92.147 43.273 91.773 44.079 91.773C45.667 91.773 46.468 93.576 46.468 95.923C46.468 98.903 45.273 100.501 43.734 100.501C42.992 100.501 42.504 100.173 42.06 99.349H42.017L41.9 100.359H40.093C40.122 99.656 40.163 98.705 40.163 97.943V88.393H40.164Z" fill="white"/>
<path d="M51.52 95.333C51.526 94.144 51.186 93.308 50.514 93.308C49.744 93.308 49.422 94.431 49.399 95.333H51.52ZM49.391 96.817C49.414 98.346 50.221 98.844 51.221 98.844C51.86 98.844 52.405 98.705 52.807 98.549L53.094 100.059C52.531 100.301 51.668 100.452 50.838 100.452C48.574 100.452 47.342 98.915 47.342 96.282C47.342 93.454 48.772 91.764 50.647 91.764C52.456 91.764 53.461 93.258 53.461 95.711C53.461 96.268 53.436 96.58 53.395 96.83L49.391 96.817Z" fill="white"/>
</g>
<defs>
<clipPath id="clip0">
<rect width="70" height="117" fill="white"/>
</clipPath>
</defs>
</svg>
