<svg width="30" height="26" viewBox="0 0 30 26" fill="none" xmlns="http://www.w3.org/2000/svg">
<path d="M9.435 25.191C20.756 25.191 26.948 15.812 26.948 7.67796C26.948 7.41196 26.942 7.14596 26.93 6.88196C28.131 6.01296 29.176 4.92996 30 3.69496C28.896 4.18496 27.71 4.51496 26.465 4.66396C27.736 3.90196 28.712 2.69696 29.172 1.25996C27.983 1.96496 26.666 2.47796 25.264 2.75396C24.141 1.55796 22.541 0.80896 20.772 0.80896C17.372 0.80896 14.616 3.56496 14.616 6.96396C14.616 7.44696 14.671 7.91696 14.776 8.36696C9.66 8.10996 5.124 5.65996 2.089 1.93596C1.56 2.84496 1.255 3.90196 1.255 5.02996C1.255 7.16496 2.342 9.05096 3.994 10.153C2.985 10.122 2.036 9.84396 1.206 9.38296C1.205 9.40896 1.205 9.43396 1.205 9.46196C1.205 12.443 3.327 14.931 6.143 15.496C5.626 15.637 5.081 15.713 4.52 15.713C4.123 15.713 3.737 15.674 3.363 15.602C4.147 18.048 6.418 19.827 9.113 19.878C7.006 21.528 4.352 22.513 1.468 22.513C0.971 22.513 0.481 22.484 0 22.427C2.724 24.172 5.958 25.191 9.435 25.191Z" fill="white"/>
</svg>
