<?xml version="1.0" encoding="utf-8"?>
<!-- Generator: Adobe Illustrator 15.1.0, SVG Export Plug-In . SVG Version: 6.00 Build 0)  -->
<!DOCTYPE svg PUBLIC "-//W3C//DTD SVG 1.1//EN" "http://www.w3.org/Graphics/SVG/1.1/DTD/svg11.dtd">
<svg version="1.1" id="Layer_1" xmlns="http://www.w3.org/2000/svg" xmlns:xlink="http://www.w3.org/1999/xlink" x="0px" y="0px"
	 width="42px" height="69px" viewBox="0 0 42 69" enable-background="new 0 0 42 69" xml:space="preserve">
<rect fill="#EE3124" width="42" height="69"/>
<path fill="#FFFFFF" d="M24.128,27.945h8.843V49.14L24.128,27.945z"/>
<path fill="#FFFFFF" d="M17.896,27.945H9.048V49.14L17.896,27.945z"/>
<path fill="#FFFFFF" d="M21.012,35.754l5.635,13.385h-3.694l-1.685-4.262h-4.123L21.012,35.754z"/>
<path fill="#FFFFFF" d="M12.124,57.638c-0.165-0.861-0.472-2.162-0.59-3.001h-0.012c-0.117,0.817-0.341,1.961-0.542,3.001H12.124z
	 M10.721,58.902l-0.39,1.844c-0.011,0.07-0.036,0.081-0.095,0.081H9.115c-0.071,0-0.094-0.023-0.083-0.116l1.545-6.675
	c0.049-0.2,0.049-0.308,0.049-0.649c0-0.048,0.023-0.073,0.069-0.073h1.605c0.061,0,0.083,0.025,0.095,0.084l1.805,7.335
	c0.012,0.07-0.011,0.094-0.071,0.094h-1.25c-0.06,0-0.094-0.036-0.094-0.081l-0.414-1.844H10.721z"/>
<path fill="#FFFFFF" d="M17.184,56.184c-0.059-0.023-0.117-0.034-0.256-0.034c-0.654,0-1.143,0.594-1.143,1.761
	c0,1.235,0.489,1.75,1.131,1.75c0.081,0,0.198-0.014,0.268-0.035V56.184z M14.397,57.958c0-1.703,1.003-3.022,2.599-3.022h0.188
	v-2.007c0-0.035,0.022-0.059,0.07-0.059H18.5c0.047,0,0.058,0.024,0.058,0.059v6.719c0,0.176-0.011,0.41,0.036,0.782
	c0,0.037,0,0.059-0.046,0.083c-0.479,0.244-1.095,0.408-1.691,0.408C15.389,60.921,14.397,59.966,14.397,57.958z"/>
<path fill="#FFFFFF" d="M20.667,57.911c0,1.085,0.233,1.797,0.758,1.797c0.501,0,0.746-0.607,0.746-1.785
	c0-1.097-0.187-1.773-0.733-1.773C20.959,56.15,20.667,56.697,20.667,57.911z M23.546,57.911c0,1.844-0.769,3.01-2.121,3.01
	c-1.516,0-2.121-1.331-2.121-3.022c0-1.728,0.769-2.964,2.145-2.964C22.765,54.935,23.546,56.032,23.546,57.911z"/>
<path fill="#FFFFFF" d="M26.074,56.171c-0.091,0-0.291,0.013-0.418,0.06v3.441c0.093,0.025,0.175,0.025,0.244,0.025
	c0.525,0,1.143-0.538,1.156-1.984C27.065,56.581,26.611,56.171,26.074,56.171z M25.597,52.87c0.047,0,0.059,0.024,0.059,0.072v2.064
	c0.164-0.034,0.361-0.07,0.629-0.07c1.212,0,2.132,0.934,2.132,2.741c0,2.114-1.199,3.246-2.703,3.246
	c-0.431,0-0.875-0.06-1.352-0.211c-0.035-0.012-0.07-0.046-0.07-0.093v-7.677c0-0.048,0.024-0.072,0.07-0.072H25.597z"/>
<path fill="#FFFFFF" d="M31.296,57.152c0.222,0,0.314,0,0.35-0.012c0.012-0.058,0.012-0.082,0.012-0.128
	c0-0.444-0.14-0.909-0.618-0.909c-0.466,0-0.652,0.477-0.71,1.049H31.296z M30.306,58.249c0,0.897,0.339,1.447,1.282,1.447
	c0.314,0,0.571-0.049,0.886-0.164c0.059-0.022,0.093-0.022,0.093,0.058v0.97c0,0.081-0.024,0.128-0.082,0.151
	c-0.326,0.175-0.769,0.21-1.154,0.21c-1.712,0-2.376-1.26-2.376-2.905c0-1.75,0.77-3.08,2.134-3.08c1.433,0,1.852,1.272,1.852,2.31
	c0,0.374-0.035,0.736-0.059,0.876c-0.01,0.058-0.045,0.082-0.104,0.093c-0.117,0.013-0.479,0.035-1.107,0.035H30.306z"/>
</svg>
