<?xml version="1.0" encoding="utf-8"?>
<!-- Generator: Adobe Illustrator 15.1.0, SVG Export Plug-In . SVG Version: 6.00 Build 0)  -->
<!DOCTYPE svg PUBLIC "-//W3C//DTD SVG 1.1//EN" "http://www.w3.org/Graphics/SVG/1.1/DTD/svg11.dtd">
<svg version="1.1" xmlns="http://www.w3.org/2000/svg" xmlns:xlink="http://www.w3.org/1999/xlink" x="0px" y="0px" width="640px"
	 height="640px" viewBox="0 0 640 640" enable-background="new 0 0 640 640" xml:space="preserve">
<g id="memory_background">
	<rect fill="#FFFFFF" width="640" height="640"/>
</g>
<g id="memory_letter">
	<g>
		<path d="M110.271,156.961c0-66.15-2.09-77.987-30.639-81.469L57.35,72.707c-4.875-3.482-4.875-14.623,0.696-17.408
			c38.993-3.481,87.039-5.571,155.278-5.571c43.173,0,84.256,3.482,116.286,20.89c33.423,17.408,57.793,48.742,57.793,97.484
			c0,66.15-52.223,102.359-87.038,116.285c-3.482,4.178,0,11.142,3.48,16.712c55.705,89.825,92.609,145.529,139.961,185.22
			c11.837,10.445,29.245,18.104,48.046,19.497c3.481,1.392,4.177,6.964,0.695,9.749c-6.267,2.088-17.407,3.481-30.638,3.481
			c-59.187,0-94.699-17.408-144.138-87.736c-18.104-25.764-46.653-73.81-68.238-105.144c-10.445-15.319-21.586-22.282-49.439-22.282
			c-31.334,0-32.727,0.696-32.727,15.319v87.737c0,73.112,1.393,81.468,41.778,87.038l14.623,2.09
			c4.179,3.481,2.785,15.318-1.393,17.407c-31.334-1.393-55.009-2.089-82.862-2.089c-29.244,0-54.312,0.696-87.04,2.089
			c-4.177-2.089-5.57-12.534-1.392-17.407l17.407-2.09c40.387-4.874,41.78-13.926,41.78-87.038V156.961z M167.368,256.534
			c0,12.534,0,20.194,2.089,22.979c2.089,2.088,12.533,3.481,48.046,3.481c25.067,0,51.528-2.785,71.72-18.105
			c18.803-14.622,34.817-38.993,34.817-86.342c0-55.009-34.12-107.234-111.412-107.234c-43.171,0-45.26,2.786-45.26,22.282V256.534z
			"/>
	</g>
</g>
</svg>
