<?xml version="1.0" encoding="utf-8"?>
<!-- Generator: Adobe Illustrator 15.1.0, SVG Export Plug-In . SVG Version: 6.00 Build 0)  -->
<!DOCTYPE svg PUBLIC "-//W3C//DTD SVG 1.1//EN" "http://www.w3.org/Graphics/SVG/1.1/DTD/svg11.dtd">
<svg version="1.1" xmlns="http://www.w3.org/2000/svg" xmlns:xlink="http://www.w3.org/1999/xlink" x="0px" y="0px" width="640px"
	 height="640px" viewBox="0 0 640 640" enable-background="new 0 0 640 640" xml:space="preserve">
<g id="memory_background">
	<rect fill="#FFFFFF" width="640" height="640"/>
</g>
<g id="memory_letter">
	<g>
		<path d="M533.956,369.684c15.712,0,32.405,18.167,32.405,30.933c0,25.532-22.586,46.645-32.405,52.537
			c-12.274,8.838-39.28,18.167-53.028,21.112c20.131,23.568,38.789,40.753,54.01,61.866c6.875,7.364,11.293,10.802,14.73,10.802
			c9.82,0,30.441-18.658,36.824-24.059c1.965,0.49,4.91,5.892,2.455,9.819c-8.347,13.748-35.352,45.172-56.955,45.172
			c-2.455,0-3.928-0.491-4.91-1.964c-65.793-90.344-70.213-97.708-87.889-99.182c-2.945,7.365-11.293,69.23-15.221,89.361
			c-3.438,1.474-14.73,5.401-21.604,5.401c-3.438,0-8.348-3.437-7.856-6.383c1.964-9.329,20.622-102.618,48.118-282.324
			c3.928-24.55,3.437-28.969-1.965-28.478c-7.855,0.491-24.059,3.928-32.405,5.401c-1.474-0.491-1.474-7.856,0-8.838
			c16.694-10.311,61.866-30.442,65.794-30.442s6.873,5.892,6.873,8.838c-4.418,25.041-22.586,109.493-35.352,193.944
			c-0.49,1.964,1.473,5.401,3.438,3.928c11.293-7.855,75.123-57.446,84.451-57.446H533.956z M517.753,397.18
			c-18.657,0-74.141,45.662-77.087,68.248c30.934,4.419,96.727-11.293,96.236-51.555c0-7.364-6.383-16.693-18.658-16.693H517.753z"
			/>
	</g>
</g>
</svg>
