<?xml version="1.0" encoding="utf-8"?>
<!-- Generator: Adobe Illustrator 15.1.0, SVG Export Plug-In . SVG Version: 6.00 Build 0)  -->
<!DOCTYPE svg PUBLIC "-//W3C//DTD SVG 1.1//EN" "http://www.w3.org/Graphics/SVG/1.1/DTD/svg11.dtd">
<svg version="1.1" xmlns="http://www.w3.org/2000/svg" xmlns:xlink="http://www.w3.org/1999/xlink" x="0px" y="0px" width="640px"
	 height="640px" viewBox="0 0 640 640" enable-background="new 0 0 640 640" xml:space="preserve">
<g id="memory_background">
	<rect fill="#FFFFFF" width="640" height="640"/>
</g>
<g id="memory_letter">
	<g>
		<path d="M212.227,604.249V234.037h74.141c27.986,0,54.5,1.964,76.596,21.604c22.586,19.64,30.932,47.136,30.932,76.595
			c0,33.879-13.256,58.92-42.717,75.614c45.664,9.328,76.596,46.153,76.596,93.289c0,29.951-11.293,56.956-34.369,76.596
			c-26.023,22.095-53.52,26.514-86.416,26.514H212.227z M235.795,401.958h40.752c25.041,0,45.172,1.473,66.285-13.748
			c21.111-15.221,27.496-33.879,27.496-59.411c0-24.058-9.33-47.626-30.443-60.883c-18.658-11.784-41.734-11.784-63.338-11.784
			h-40.752V401.958z M235.795,582.154h56.463c26.023,0,53.029,0.981,75.615-14.239s36.332-38.298,36.332-65.793
			c0-27.005-13.256-54.01-38.297-66.285c-22.586-11.293-53.52-11.784-78.068-11.784h-52.045V582.154z"/>
	</g>
</g>
</svg>
