<?xml version="1.0" encoding="utf-8"?>
<!-- Generator: Adobe Illustrator 15.1.0, SVG Export Plug-In . SVG Version: 6.00 Build 0)  -->
<!DOCTYPE svg PUBLIC "-//W3C//DTD SVG 1.1//EN" "http://www.w3.org/Graphics/SVG/1.1/DTD/svg11.dtd">
<svg version="1.1" xmlns="http://www.w3.org/2000/svg" xmlns:xlink="http://www.w3.org/1999/xlink" x="0px" y="0px" width="640px"
	 height="640px" viewBox="0 0 640 640" enable-background="new 0 0 640 640" xml:space="preserve">
<g id="memory_background">
	<rect fill="#FFFFFF" width="640" height="640"/>
</g>
<g id="memory_letter">
	<g>
		<path d="M329.24,316.729l62.961,60.344c4.142,0,6.759,0.191,7.85,0.572c1.088,0.384,2.044,1.173,2.861,2.372
			c0.817,1.2,1.227,2.509,1.227,3.925c0,1.962-0.711,3.597-2.126,4.905c-1.419,1.309-3.817,1.963-7.195,1.963h-44.154
			c-3.381,0-5.78-0.654-7.196-1.963c-1.418-1.309-2.125-2.943-2.125-4.905c0-2.07,0.707-3.733,2.125-4.988
			c1.416-1.252,3.815-1.881,7.196-1.881h22.731l-53.476-51.187l-53.149,51.187h22.895c3.271,0,5.614,0.629,7.032,1.881
			c1.416,1.255,2.126,2.918,2.126,4.988c0,1.962-0.71,3.597-2.126,4.905c-1.418,1.309-3.761,1.963-7.032,1.963H245.02
			c-3.271,0-5.616-0.654-7.032-1.963c-1.418-1.309-2.126-2.943-2.126-4.905c0-1.416,0.409-2.725,1.227-3.925
			c0.817-1.199,1.743-1.988,2.78-2.372c1.035-0.381,3.624-0.572,7.769-0.572l62.96-60.344l-55.929-53.64
			c-3.925,0-6.405-0.217-7.44-0.654c-1.038-0.435-1.962-1.251-2.78-2.453c-0.817-1.198-1.227-2.507-1.227-3.925
			c0-1.962,0.708-3.598,2.125-4.906s3.816-1.962,7.196-1.962h37.45c3.377,0,5.748,0.654,7.113,1.962c1.361,1.308,2.045,3,2.045,5.07
			c0,1.962-0.684,3.597-2.045,4.906c-1.365,1.308-3.736,1.962-7.113,1.962h-16.354l46.28,44.645l46.606-44.645h-16.354
			c-3.271,0-5.642-0.654-7.113-1.962c-1.472-1.309-2.208-2.997-2.208-5.069c0-1.962,0.708-3.598,2.126-4.906
			c1.416-1.308,3.815-1.962,7.195-1.962h37.45c3.271,0,5.613,0.654,7.032,1.962c1.415,1.308,2.126,3,2.126,5.07
			c0,1.309-0.409,2.563-1.228,3.761c-0.817,1.201-1.745,2.018-2.78,2.453c-1.037,0.437-3.516,0.654-7.44,0.654L329.24,316.729z"/>
	</g>
</g>
</svg>
