<?xml version="1.0" encoding="utf-8"?>
<!-- Generator: Adobe Illustrator 15.1.0, SVG Export Plug-In . SVG Version: 6.00 Build 0)  -->
<!DOCTYPE svg PUBLIC "-//W3C//DTD SVG 1.1//EN" "http://www.w3.org/Graphics/SVG/1.1/DTD/svg11.dtd">
<svg version="1.1" xmlns="http://www.w3.org/2000/svg" xmlns:xlink="http://www.w3.org/1999/xlink" x="0px" y="0px" width="640px"
	 height="640px" viewBox="0 0 640 640" enable-background="new 0 0 640 640" xml:space="preserve">
<g id="memory_background">
	<rect fill="#FFFFFF" width="640" height="640"/>
</g>
<g id="memory_letter">
	<g>
		<path d="M357.48,314.923v-4.795c-9.59-3.038-16.984-8.192-22.176-15.464c-5.195-7.271-7.791-16.1-7.791-26.491
			c0-13.265,3.273-23.813,9.828-31.646c6.553-7.829,17.022-13.426,31.407-16.782v-5.034c-10.392-6.713-17.981-14.224-22.776-22.536
			c-4.795-8.309-7.191-17.98-7.191-29.009c0-17.58,6.99-32.684,20.977-45.312c13.984-12.624,31.047-18.939,51.186-18.939
			c11.186,0,21.338,1.839,30.447,5.514c9.111,3.679,17.659,9.35,25.653,17.021c6.072-8.151,11.905-13.942,17.501-17.381
			c5.593-3.436,11.665-5.154,18.221-5.154c7.192,0,12.744,1.641,16.662,4.914c3.914,3.278,5.874,7.874,5.874,13.785
			c0,5.915-1.36,10.31-4.075,13.187c-2.721,2.877-6.713,4.315-11.988,4.315c-5.754,0-10.511-2.436-14.264-7.313
			c-3.758-4.874-6.035-7.313-6.834-7.313c-2.396,0-4.955,0.881-7.672,2.638c-2.719,1.761-4.955,3.997-6.712,6.713
			c4.473,6.713,7.63,12.867,9.47,18.46c1.836,5.597,2.757,12.069,2.757,19.419c0,19.341-7.072,34.726-21.218,46.151
			c-14.145,11.429-33.365,17.142-57.658,17.142c-2.396,0-6.195-0.079-11.387-0.24c-5.196-0.157-9.152-0.239-11.868-0.239
			c-12.788,0-22.696,1.88-29.728,5.634c-7.035,3.757-10.549,9.072-10.549,15.942c0,5.436,1.877,9.313,5.634,11.628
			c3.753,2.318,10.106,3.477,19.06,3.477c6.713,0,11.748-0.038,15.104-0.12c3.356-0.079,6.552-0.198,9.59-0.359l41.476-1.918
			c4.154-0.157,8.032-0.277,11.628-0.359c3.596-0.079,6.911-0.12,9.949-0.12c22.536,0,38.239,4.116,47.109,12.347
			c8.871,8.233,13.307,22.416,13.307,42.555c0,27.17-9.83,49.106-29.489,65.81c-19.659,16.699-45.473,25.053-77.437,25.053
			c-23.975,0-43.795-5.154-59.457-15.463c-15.666-10.309-23.494-22.979-23.494-38c0-9.11,2.277-16.823,6.832-23.135
			C337.941,327.188,345.973,320.995,357.48,314.923z M369.708,314.923c-3.518,4.473-6.196,9.986-8.032,16.542
			c-1.838,6.552-2.756,13.823-2.756,21.816c0,14.063,5.191,25.091,15.583,33.085c10.388,7.99,24.693,11.988,42.914,11.988
			c22.214,0,41.194-6.197,56.938-18.58c15.741-12.389,23.615-27.452,23.615-45.192c0-7.994-2.559-13.905-7.672-17.741
			c-5.117-3.836-12.867-5.754-23.255-5.754h-5.515l-50.586,2.877c-0.959,0-5.993,0.12-15.104,0.359
			C386.729,314.563,378.017,314.762,369.708,314.923z M384.332,141.108v47.709c0,12.148,1.918,20.498,5.754,25.054
			c3.836,4.555,10.945,6.832,21.338,6.832c10.387,0,17.58-2.314,21.576-6.952c3.994-4.634,5.994-12.946,5.994-24.934v-47.709
			c0-11.987-2-20.296-5.994-24.934c-3.996-4.634-11.189-6.952-21.576-6.952c-10.393,0-17.502,2.277-21.338,6.833
			C386.25,120.61,384.332,128.964,384.332,141.108z"/>
	</g>
</g>
</svg>
