<?xml version="1.0" encoding="utf-8"?>
<!-- Generator: Adobe Illustrator 15.1.0, SVG Export Plug-In . SVG Version: 6.00 Build 0)  -->
<!DOCTYPE svg PUBLIC "-//W3C//DTD SVG 1.1//EN" "http://www.w3.org/Graphics/SVG/1.1/DTD/svg11.dtd">
<svg version="1.1" xmlns="http://www.w3.org/2000/svg" xmlns:xlink="http://www.w3.org/1999/xlink" x="0px" y="0px" width="640px"
	 height="640px" viewBox="0 0 640 640" enable-background="new 0 0 640 640" xml:space="preserve">
<g id="memory_background">
	<rect fill="#FFFFFF" width="640" height="640"/>
</g>
<g id="memory_letter">
	<g>
		<path d="M595.904,385.744c-18.305-23.898-57.967-39.661-87.965-39.661c-14.747,0-38.137,5.084-38.137,24.406
			c0,41.187,133.221,6.102,133.221,117.457c0,67.627-48.305,106.779-115.424,106.779c-36.609,0-75.254-12.204-102.711-31.017
			v-86.948c14.746,23.898,59.491,43.729,86.949,43.729c15.254,0,38.643-3.052,38.643-26.949c0-48.813-133.22,0.507-133.22-131.694
			c0-68.136,56.95-102.204,120.001-102.204c35.083,0,78.813,11.187,98.643,33.051V385.744z"/>
	</g>
</g>
</svg>
