<?xml version="1.0" encoding="utf-8"?>
<!-- Generator: Adobe Illustrator 15.1.0, SVG Export Plug-In . SVG Version: 6.00 Build 0)  -->
<!DOCTYPE svg PUBLIC "-//W3C//DTD SVG 1.1//EN" "http://www.w3.org/Graphics/SVG/1.1/DTD/svg11.dtd">
<svg version="1.1" xmlns="http://www.w3.org/2000/svg" xmlns:xlink="http://www.w3.org/1999/xlink" x="0px" y="0px" width="400px"
	 height="400px" viewBox="0 0 400 400" enable-background="new 0 0 400 400" xml:space="preserve">
<g id="back_dunkel">
	<path fill="#74DAFD" d="M51.005,150L150,51.005l98.976,98.976c0.006,0.006,0.013,0.013,0.02,0.019
		c0.006,0.006,0.013,0.013,0.019,0.02l98.977,98.976l-98.995,98.994c-54.673,54.674-143.316,54.674-197.99,0
		S-3.668,204.674,51.005,150z"/>
</g>
<g id="back_hell">
	<circle fill="#A2E6FE" cx="248.995" cy="150.001" r="140.001"/>
</g>
<g id="linie_v">
	<g>
		<rect x="246.495" y="250.297" width="5" height="144.383"/>
	</g>
</g>
<g id="schild">
	<polygon fill="#E94112" points="209.645,245.297 153.995,189.65 153.995,110.947 209.645,55.297 288.346,55.297 343.994,110.947 
		343.994,189.65 288.346,245.297 	"/>
	<path fill="#FFFFFF" d="M286.273,60.297l52.721,52.721v74.561l-52.719,52.718h-74.561l-52.72-52.718v-74.561l52.72-52.721H286.273
		 M290.416,50.297h-82.842l-58.58,58.578v82.846l58.58,58.576h82.842l58.578-58.576v-82.846L290.416,50.297L290.416,50.297z"/>
	<g>
		<path fill="#FFFFFF" d="M249.873,116.901c-0.695-2.951-2.605-5.189-5.674-6.653c-2.955-1.411-6.811-2.126-11.459-2.126
			c-9.838,0-17.576,2.332-22.998,6.934c-3.855,3.298-5.811,6.763-5.811,10.298c0,4.056,2.193,7.593,6.527,10.518
			c1.922,1.264,5.551,3.033,11.092,5.409c5.355,2.296,8.938,4.142,10.621,5.467c3.123,2.664,4.641,5.633,4.641,9.078
			c0,1.515-0.309,3.104-0.922,4.737c-1.961,5.575-6.357,10.195-13.063,13.731c-3.137,1.621-6.441,2.803-9.818,3.51
			c-3.391,0.709-6.098,1.068-8.047,1.068c-1.98,0-3.482-0.053-4.49-0.158c-8.735-0.623-14.935-3.309-18.425-7.981
			c-1.93-2.586-2.907-5.653-2.907-9.118c0-5.352,1.476-10.383,4.387-14.956c1.339-2.113,3.148-4.079,5.399-5.859
			c1.172-0.995,1.541-1.552,1.41-2.128c-0.077-0.339-0.339-0.6-0.7-0.694c-0.57-0.154-1.285-0.048-2.32,0.368
			c-3.977,1.877-7.372,5.112-10.092,9.615c-2.711,4.497-4.086,8.686-4.086,12.448c0,5.939,2.253,10.865,6.69,14.637
			c5.637,4.87,13.321,7.339,22.84,7.339c9.85,0,18.393-2.146,25.389-6.378c6.078-3.635,10.762-8.045,13.916-13.105
			c1.838-2.896,2.77-5.79,2.77-8.603c0-1.993-0.639-4.171-1.9-6.472c-1.262-2.302-3.557-4.478-6.816-6.468
			c-2.098-1.292-5.467-2.997-10.012-5.068c-4.48-2.041-7.498-3.528-8.957-4.417c-3.768-2.359-5.678-5.013-5.678-7.886
			c0-2.12,1.291-4.31,3.836-6.502c1.689-1.436,3.721-2.58,6.039-3.404c4.508-1.624,8.668-2.447,12.369-2.447
			c4.119,0,7.381,1.12,9.688,3.325c1.578,1.528,2.344,3.088,2.344,4.769c0,0.471-0.072,0.971-0.217,1.497
			c-0.508,1.941-1.854,3.022-4.1,3.305c-1.217,0.135-1.973,0.445-2.381,0.979c-0.256,0.333-0.354,0.736-0.279,1.213
			c0.146,0.66,0.697,1.055,1.471,1.055c0.307,0,0.656-0.057,1.076-0.173c2.334-0.666,4.234-1.577,5.67-2.726
			c2.094-1.803,3.156-3.888,3.156-6.195C250.053,118.105,249.994,117.514,249.873,116.901z"/>
		<path fill="#FFFFFF" d="M314.303,145.455c-0.447-0.126-0.922-0.189-1.41-0.189c-1.641,0-3.332,0.829-5.018,2.458
			c-1.01,0.957-1.977,1.91-2.879,2.838c-0.705,0.729-1.688,2.06-2.979,4.044c0.461-2.068,0.693-4.025,0.693-5.854
			c0-0.604-0.08-1.167-0.236-1.672c-0.133-0.426-0.529-1.148-1.684-1.208c-0.014-0.001-0.109-0.003-0.121-0.003
			c-0.43,0-1.484,0.08-5.668,0.774c-0.328,0.055-0.582,0.319-0.621,0.65c-0.041,0.33,0.143,0.647,0.447,0.779
			c0.324,0.14,0.672,0.929,0.672,2.728c0,1.85-0.467,3.902-1.387,6.099l-0.311,0.724c-0.18,0.133-0.316,0.305-0.408,0.513
			c-0.105,0.24-0.412,0.905-0.918,1.997c-0.516,1.113-0.916,1.927-1.225,2.489c-0.322,0.59-0.83,1.513-1.525,2.771
			c-0.66,1.196-1.785,2.617-3.361,4.246c-1.146,1.291-2.305,1.918-3.539,1.918c-1.297,0-2.225-0.375-2.818-1.142
			c2.844-2.791,5.021-5.919,6.473-9.29c1.221-2.658,1.84-5.198,1.84-7.551c0-6.733-3.602-8.146-6.621-8.146
			c-2.801,0-5.77,1.39-8.822,4.132c-2.99,2.69-5.338,5.998-6.973,9.813c-0.17,0.37-0.313,0.732-0.453,1.095l-0.055,0.158
			c-2.654,4.967-5.111,8.316-7.223,9.905c-1.01,0.576-1.912,0.868-2.684,0.868c-0.531,0-0.861-0.194-1.107-0.653
			c-0.318-0.591-0.473-1.145-0.473-1.694c0-0.614,0.074-1.246,0.223-1.884l1.799-7.975c4.039-3.759,7.547-8.098,10.436-12.905h4.238
			c0.563,0,1.031-0.322,1.287-0.885c0.205-0.454,0.246-0.937,0.119-1.391c-0.17-0.623-0.635-0.994-1.244-0.994h-2.627
			c0.988-1.923,2.018-4.02,3.064-6.248c1.273-2.716,1.918-5.082,1.918-7.033c0-2.152-0.764-3.609-2.32-4.354
			c-0.371-0.146-0.879-0.215-1.604-0.215c-0.795,0-1.893,0.518-3.449,1.627c-1.496,1.063-3.064,3.02-4.797,5.981
			c-1.607,2.749-3.361,6.192-5.219,10.241h-4.346c-0.563,0-1.029,0.321-1.283,0.882c-0.205,0.45-0.246,0.932-0.121,1.391
			c0.168,0.624,0.635,0.997,1.246,0.997h3.066c-4.082,10.082-6.068,17.154-6.068,21.6c0,2.053,0.604,3.787,1.791,5.154
			c1.215,1.396,2.785,2.105,4.668,2.105c3.365,0,6.545-2.246,9.449-6.667c0.518,5.398,3.777,6.589,6.549,6.589
			c2.088,0,4.355-0.84,6.748-2.499c1.328,1.231,3.086,1.854,5.232,1.854c1.313,0,2.713-0.442,4.16-1.313
			c0.584-0.346,1.186-0.83,1.838-1.479c0.621-0.623,1.123-1.166,1.531-1.659c0.254-0.305,0.527-0.667,0.824-1.097
			c-1.283,2.924-2.939,6.412-4.965,10.452c-5.902,11.77-8.051,15.105-8.813,15.832c-0.234,0.224-0.299,0.572-0.16,0.865
			c0.139,0.292,0.445,0.461,0.771,0.422c0.355-0.046,0.912,0.01,1.654,0.155c1.234,0.233,1.449,0.253,1.588,0.253h1.166
			c0.809,0,1.639-0.322,2.469-0.959c0.803-0.619,1.611-1.814,2.488-3.693l7.336-18.299c1.648,0.772,3.203,1.164,4.631,1.164
			c1.59,0,3.021-0.172,4.283-0.518c3.234-1.004,6.02-2.896,8.273-5.624c2.205-2.666,3.961-5.485,5.217-8.38
			c1.268-2.925,1.91-5.649,1.91-8.097C318.869,148.596,317.328,146.241,314.303,145.455z M267.801,131.977
			c0.975-1.386,1.555-1.921,1.848-2.127c0.025,0.154,0.047,0.386,0.047,0.729c0,2.277-1.682,6.461-4.996,12.438h-2.428
			C264.834,137.264,266.693,133.553,267.801,131.977z M260.813,146.286h1.93c-1.426,2.241-2.918,4.316-4.463,6.208
			C259.473,149.527,260.311,147.475,260.813,146.286z M274.6,166.518c0,1.328,0.352,2.598,1.049,3.787
			c-1.314,1.044-2.494,1.572-3.516,1.572c-0.961,0-2.064-0.335-2.064-2.947c0-2.344,0.922-5.425,2.744-9.17
			c1.508-3.224,3.24-5.801,5.15-7.66c1.828-1.779,3.383-2.682,4.621-2.682c1.037,0,2.225,0.362,2.225,3.191
			c0,2.494-0.65,5.088-1.938,7.716c-0.67,1.401-1.299,2.625-1.883,3.66c-0.141-0.235-0.324-0.475-0.553-0.718
			c-0.602-0.635-1.365-0.957-2.273-0.957C276.904,162.311,274.766,162.853,274.6,166.518z M311.27,158.362
			c-2.354,4.343-5.322,8.028-8.826,10.955c-2.613,2.183-4.023,2.641-4.746,2.641c-0.795,0-1.436-0.159-1.941-0.483
			c4.486-8.328,7.982-14.257,10.389-17.625c2.303-3.214,4.357-4.913,5.945-4.913c0.457,0,0.748,0.198,0.973,0.661
			c0.297,0.619,0.447,1.308,0.447,2.046C313.51,153.329,312.756,155.59,311.27,158.362z"/>
	</g>
</g>
<g id="linie_dia_2">
	<g>
		<rect x="228.995" y="289.257" transform="matrix(0.7071 0.7071 -0.7071 0.7071 278.1584 -91.0529)" width="40" height="2"/>
	</g>
</g>
<g id="linie_dia_1">
	<g>
		<g>
			<rect x="125.914" y="269.52" transform="matrix(0.7071 0.7071 -0.7071 0.7071 229.519 -10.0688)" width="2" height="4.999"/>
		</g>
		<g>
			<path d="M132.652,267.695l-1.414-1.414l6.527-6.527l1.414,1.414L132.652,267.695z M142.443,257.904l-1.414-1.414l6.527-6.527
				l1.414,1.414L142.443,257.904z M152.233,248.115l-1.414-1.414l6.527-6.527l1.414,1.414L152.233,248.115z M162.024,238.324
				l-1.414-1.414l6.527-6.527l1.414,1.414L162.024,238.324z"/>
		</g>
		<g>
			<rect x="171.876" y="223.557" transform="matrix(0.7071 0.7071 -0.7071 0.7071 210.4802 -56.031)" width="2" height="4.999"/>
		</g>
	</g>
	<g>
		<g>
			<rect x="324.113" y="71.741" transform="matrix(0.7071 0.7071 -0.7071 0.7071 147.7196 -208.1452)" width="2" height="4.999"/>
		</g>
		<g>
			<path d="M330.852,69.917l-1.414-1.414l6.527-6.527l1.414,1.414L330.852,69.917z M340.643,60.125l-1.414-1.414l6.527-6.527
				l1.414,1.414L340.643,60.125z M350.434,50.335l-1.414-1.414l6.527-6.527l1.414,1.414L350.434,50.335z M360.225,40.544
				l-1.414-1.414l6.527-6.527l1.414,1.414L360.225,40.544z"/>
		</g>
		<g>
			<rect x="370.076" y="25.778" transform="matrix(0.7071 0.7071 -0.7071 0.7071 128.6812 -254.1081)" width="2" height="4.999"/>
		</g>
	</g>
</g>
</svg>
