<svg width="200" height="23" viewBox="0 0 200 23" fill="none" xmlns="http://www.w3.org/2000/svg">
<path d="M60.897 8.94C60.628 8.201 59.924 7.396 59.05 7.162C58.312 6.927 57.451 7.21 56.801 7.778C55.322 9.206 55.337 11.31 55.919 13.133L60.897 8.94ZM62.71 8.873L56.394 14.322C56.937 15.761 59.176 17.207 61.402 14.614L62.242 15.517C60.925 17.107 58.517 17.575 56.529 17.144C54.716 16.753 53.258 15.056 52.775 13.336C52.158 11.189 52.689 8.926 54.409 7.529C55.911 6.242 59.71 4.655 62.71 8.873ZM122.951 8.94C122.681 8.201 121.978 7.396 121.105 7.162C120.367 6.927 119.504 7.21 118.855 7.778C117.376 9.206 117.392 11.31 117.974 13.133L122.951 8.94ZM124.766 8.873L118.449 14.322C118.991 15.761 121.231 17.207 123.456 14.614L124.296 15.517C122.98 17.107 120.571 17.575 118.584 17.144C116.771 16.753 115.313 15.056 114.828 13.336C114.211 11.189 114.742 8.926 116.462 7.529C117.965 6.242 121.764 4.655 124.766 8.873ZM147.061 8.94C146.79 8.201 146.084 7.396 145.21 7.162C144.473 6.927 143.611 7.21 142.962 7.778C141.483 9.206 141.499 11.31 142.079 13.133L147.061 8.94ZM148.872 8.873L142.555 14.322C143.098 15.761 145.338 17.207 147.565 14.614L148.403 15.517C147.087 17.107 144.677 17.575 142.69 17.144C140.877 16.753 139.419 15.056 138.936 13.336C138.319 11.189 138.85 8.926 140.569 7.529C142.07 6.242 145.87 4.655 148.872 8.873ZM91.487 7.336C91.446 7.392 90.658 8.451 90.658 8.451C89.317 7.404 87.112 6.636 85.526 7.36C84.336 7.954 84.554 9.303 86.27 9.766C87.383 10.123 91.014 10.432 91.427 13.165C91.559 14.284 91.034 15.285 90.15 15.982C88.083 17.566 84.808 17.189 82.526 16.412C82.517 16.377 83.058 14.611 83.058 14.611C83.777 15.081 84.396 15.308 85.084 15.57C88.595 16.825 90.602 14.695 88.422 13.435C87.453 12.859 86.197 12.81 84.969 12.314C84.056 11.939 83.102 11.245 82.82 10.225C82.522 9.166 82.723 7.951 83.386 7.304C85.453 5.336 89.206 6.102 91.487 7.336ZM17.133 3.968C17.133 3.188 17.764 2.554 18.547 2.554C19.327 2.554 19.961 3.188 19.961 3.968C19.961 4.75 19.327 5.382 18.547 5.382C17.764 5.382 17.133 4.75 17.133 3.968ZM132.257 15.883C134.434 15.962 136.926 15.529 138.94 15.075C138.858 15.238 138.233 16.691 138.233 16.691H128.287L135.166 1.104C134.454 1.104 133.028 1.115 133.028 1.115C130.307 1.115 129.401 1.469 126.958 2.966L127.126 0.119H139L132.257 15.883ZM106.111 4.241V8.579C107.722 7.129 110.021 5.592 112.169 6.692C113.594 7.578 113.391 9.205 113.361 10.916C113.312 13.675 113.142 16.691 113.142 16.691H110.423C110.504 13.125 110.531 10.503 110.329 9.383C110.224 8.864 110.097 8.31 109.518 8.052C108.229 7.535 106.992 8.746 106.108 9.705V16.688H103.045V5.046H101.928V4.241H106.111ZM159.098 7.027L159.266 16.692H156.209L156.343 7.027H154.44V6.222H156.343V5.784C156.343 5.784 157.073 5.513 157.721 5.214C158.594 4.811 159.098 4.442 159.098 4.442V6.222H165.192C165.192 6.222 164.504 12.984 165.294 14.943C165.491 15.431 165.946 15.65 166.482 15.523C167.513 15.251 168.523 14.566 169.381 13.816V7.026H167.771V6.222H172.443V16.689H169.381V15.079C168.86 15.348 164.601 18.154 162.963 16.471C161.998 15.397 161.97 13.442 161.915 11.723C161.89 10.136 162.185 8.533 162.317 7.029H159.098V7.027ZM19.499 6.222C19.499 6.222 18.811 12.984 19.6 14.943C19.797 15.431 20.255 15.65 20.788 15.523C21.817 15.251 22.829 14.566 23.688 13.814V7.028H22.077V6.222H26.75V16.689H23.688V15.079C23.166 15.348 18.906 18.154 17.27 16.471C16.305 15.397 16.277 13.44 16.222 11.723C16.196 10.136 16.491 8.532 16.625 7.03H15.068L15.066 6.222H19.499ZM67.29 6.222C67.29 6.222 66.602 12.984 67.391 14.943C67.588 15.431 68.045 15.65 68.579 15.523C69.61 15.251 70.62 14.566 71.479 13.814V7.028H69.868V6.222H74.541V16.689H71.479V15.079C70.958 15.348 66.698 18.154 65.061 16.471C64.095 15.397 64.068 13.44 64.013 11.723C63.987 10.136 64.282 8.532 64.417 7.03H62.858L62.856 6.222H67.29ZM23.562 3.968C23.562 3.188 24.196 2.554 24.977 2.554C25.757 2.554 26.391 3.188 26.391 3.968C26.391 4.749 25.757 5.382 24.977 5.382C24.195 5.382 23.562 4.749 23.562 3.968ZM153.423 6.222V16.689H150.371V7.028H148.826V6.222H153.423ZM150.464 3.968C150.464 4.749 151.096 5.382 151.877 5.382C152.659 5.382 153.291 4.749 153.291 3.968C153.291 3.188 152.659 2.554 151.877 2.554C151.096 2.554 150.464 3.188 150.464 3.968ZM80.447 4.441C80.447 4.441 79.943 4.81 79.072 5.213C78.425 5.512 77.695 5.783 77.695 5.783V6.221H75.547V7.028H77.695L77.561 16.694H80.616L80.449 7.028H82.597V6.222H80.449V4.441H80.447ZM101.432 7.564C100.143 6.41 98.099 6.039 96.409 6.496C94.693 6.978 93.033 8.641 92.71 10.409C92.335 12.472 92.915 14.402 94.506 15.877C95.98 17.245 98.269 17.514 100.215 16.838C100.89 16.634 101.487 16.186 101.487 16.186L100.48 15.081C100.079 15.45 99 16.169 98.003 16.034C96.721 15.832 95.952 14.432 95.711 13.252C95.364 11.162 95.363 8.528 97.292 7.405C98.254 6.878 99.981 7.274 100.819 8.463L101.432 7.564ZM36.148 11.585C36.148 11.585 36.33 7.681 33.902 7.681C31.475 7.681 31.434 11.566 31.434 11.566C31.434 11.566 31.353 15.712 33.681 15.712C36.009 15.712 36.148 11.585 36.148 11.585ZM38.844 4.238V16.692H36.019V15.504C34.811 16.687 32.957 17.249 31.293 16.632C29.492 15.905 28.579 14.028 28.445 12.202C28.231 10.16 29.009 8.174 30.863 7.072C33.962 5.443 36.018 7.798 36.018 7.798V5.043H34.983V4.238H38.844ZM48.155 11.59C48.155 11.59 48.338 7.684 45.91 7.684C43.482 7.684 43.441 11.568 43.441 11.568C43.441 11.568 43.36 15.717 45.687 15.717C48.014 15.717 48.155 11.59 48.155 11.59ZM50.851 4.241V16.691H48.026V15.505C46.817 16.689 44.964 17.251 43.299 16.634C41.498 15.908 40.587 14.029 40.451 12.203C40.237 10.16 41.016 8.175 42.869 7.074C45.969 5.444 48.026 7.799 48.026 7.799V5.046H46.991V4.241H50.851ZM185.582 10.753C185.546 6.804 183.971 6.356 183.398 6.236C181.413 5.836 179.521 7.317 178.099 8.659V6.222H173.966V7.028H175.142V16.692H178.099V9.868C179.011 8.873 180.207 7.889 181.499 8.166C183.538 8.602 182.746 14.258 182.554 16.686C182.554 16.686 184.638 16.686 185.547 16.686C185.616 14.393 185.594 12.605 185.582 10.753ZM14.261 2.376C11.549 0.336 7.741 -0.743 4.351 0.583C2.855 1.137 1.129 2.646 0.968 4.337C0.727 6.11 1.721 7.586 3.117 8.579C5.775 10.431 9.513 9.996 11.689 12.574C12.99 14.304 11.443 17.053 6.728 15.273C4.906 14.503 4.478 14.244 2.487 12.761L0 15.283L0.498 15.714L1.61 14.587C3.748 16.35 12.676 19.475 14.18 13.011C14.421 11.695 14.125 10.372 13.213 9.547C11.227 7.693 6.41 6.221 6.41 6.221C6.41 6.221 2.802 5.295 2.848 3.478C2.894 2.461 3.975 1.759 4.78 1.489C7.895 0.604 11.013 2.228 13.376 4.028L15.825 1.945L15.337 1.489L14.261 2.376ZM192.725 16.426C194.317 16.426 195.606 14.389 195.606 11.874C195.606 9.36 194.317 7.32 192.725 7.32C191.134 7.32 189.846 9.36 189.846 11.874C189.846 14.389 191.134 16.426 192.725 16.426ZM200 7.901C200 8.658 199.4 9.275 198.65 9.306C198.467 9.325 198.228 9.305 197.916 9.227C198.561 10.705 198.805 12.934 197.941 14.437C196.921 16.208 195.093 17.37 193.109 17.452C190.496 17.666 191.006 18.741 191.728 18.826C193.025 19.011 195.23 18.252 196.197 19.864C196.466 20.345 196.351 21.118 196.073 21.496C194.767 23.314 191.966 23.105 190.756 22.648C190.057 22.406 189.421 21.929 188.786 21.42L189.846 20.591C190.84 21.531 192.25 22.279 193.619 21.821C193.941 21.714 194.264 21.444 194.372 21.096C194.45 20.664 194.264 20.288 193.889 20.102C192.438 19.592 189.475 20.572 189.504 18.71C189.557 17.641 190.481 17.415 190.8 17.28C188.948 16.634 187.122 14.757 186.934 12.715C186.61 10.298 187.741 8.043 189.913 6.916C191.927 5.895 194.828 6.107 196.574 7.612C196.769 7.769 197.082 8.072 197.159 8.19C197.122 7.777 197.296 7.353 197.297 7.347C197.512 6.843 198.012 6.49 198.592 6.49C199.37 6.494 200 7.125 200 7.901Z" fill="#C9C9C9"/>
</svg>
