<?xml version="1.0" encoding="utf-8"?>
<!-- Generator: Adobe Illustrator 15.1.0, SVG Export Plug-In . SVG Version: 6.00 Build 0)  -->
<!DOCTYPE svg PUBLIC "-//W3C//DTD SVG 1.1//EN" "http://www.w3.org/Graphics/SVG/1.1/DTD/svg11.dtd">
<svg version="1.1" id="vs_bg" xmlns="http://www.w3.org/2000/svg" xmlns:xlink="http://www.w3.org/1999/xlink" x="0px" y="0px"
	 width="1080px" height="1080px" viewBox="0 0 1080 1080" enable-background="new 0 0 1080 1080" xml:space="preserve">
<rect fill="#E0D0A7" width="1080" height="1080"/>
<polygon fill="#D8C491" points="0,1080 0.003,612.554 269.88,1080 "/>
<polygon fill="#D8C491" points="0.002,768.369 0.002,456.739 179.92,768.369 "/>
<polygon fill="#D8C491" points="0,519.797 0.001,363.982 89.96,519.797 "/>
<g>
	<polygon fill="#D8C491" points="255.996,921.201 428.682,622.104 601.363,921.201 	"/>
	<polygon fill="#D8C491" points="313.558,721.804 428.681,522.405 543.802,721.804 	"/>
	<polygon fill="#D8C491" points="371.119,562.754 428.681,463.055 486.241,562.754 	"/>
</g>
<g>
	<polygon fill="#DCCA9C" points="821.426,766.838 895.863,637.908 970.301,766.838 	"/>
	<polygon fill="#DCCA9C" points="846.238,680.885 895.863,594.932 945.487,680.885 	"/>
	<polygon fill="#DCCA9C" points="871.051,612.324 895.863,569.349 920.676,612.324 	"/>
</g>
<g>
	<polygon fill="#DCCA9C" points="164.683,668.15 239.121,539.221 313.558,668.15 	"/>
	<polygon fill="#DCCA9C" points="189.495,582.197 239.121,496.245 288.745,582.197 	"/>
	<polygon fill="#DCCA9C" points="214.308,513.637 239.121,470.661 263.933,513.637 	"/>
</g>
<g>
	<polygon fill="#D8C491" points="588.676,1033.115 728.328,791.234 867.979,1033.115 	"/>
	<polygon fill="#D8C491" points="635.227,871.861 728.327,710.607 821.426,871.861 	"/>
	<polygon fill="#D8C491" points="681.776,743.237 728.326,662.611 774.876,743.237 	"/>
</g>
<g>
	<path fill="#EBE1C8" d="M997.802,900H1034v86.771L997.802,900z"/>
	<path fill="#EBE1C8" d="M972.299,900h-36.226v86.771L972.299,900z"/>
	<path fill="#EBE1C8" d="M985.05,931.979l23.069,54.786H993l-6.899-17.447h-16.879L985.05,931.979z"/>
	<path fill="#EBE1C8" d="M948.668,1021.562c-0.676-3.527-1.934-8.85-2.417-12.281h-0.047c-0.483,3.337-1.402,8.026-2.222,12.281
		H948.668z M942.919,1026.736l-1.595,7.544c-0.048,0.291-0.145,0.338-0.386,0.338h-4.59c-0.288,0-0.383-0.098-0.339-0.484
		l6.327-27.321c0.195-0.819,0.195-1.255,0.195-2.658c0-0.192,0.096-0.289,0.289-0.289h6.567c0.242,0,0.34,0.097,0.389,0.339
		l7.389,30.029c0.049,0.288-0.047,0.386-0.289,0.386h-5.12c-0.241,0-0.388-0.146-0.388-0.338l-1.69-7.544L942.919,1026.736
		L942.919,1026.736z"/>
	<path fill="#EBE1C8" d="M969.375,1015.609c-0.236-0.098-0.477-0.145-1.048-0.145c-2.672,0-4.677,2.437-4.677,7.212
		c0,5.063,2.005,7.164,4.629,7.164c0.334,0,0.813-0.047,1.096-0.143V1015.609L969.375,1015.609z M957.974,1022.869
		c0-6.977,4.104-12.37,10.641-12.37h0.762v-8.217c0-0.144,0.097-0.239,0.287-0.239h5.104c0.19,0,0.24,0.097,0.24,0.239v27.513
		c0,0.716-0.05,1.671,0.143,3.199c0,0.144,0,0.24-0.191,0.334c-1.955,1.004-4.483,1.672-6.917,1.672
		C962.029,1035,957.974,1031.085,957.974,1022.869z"/>
	<path fill="#EBE1C8" d="M983.642,1022.678c0,4.443,0.954,7.354,3.103,7.354c2.05,0,3.052-2.483,3.052-7.308
		c0-4.487-0.763-7.26-3.005-7.26C984.833,1015.466,983.642,1017.709,983.642,1022.678z M995.427,1022.678
		c0,7.546-3.151,12.322-8.684,12.322c-6.203,0-8.686-5.444-8.686-12.371c0-7.069,3.148-12.13,8.778-12.13
		C992.229,1010.499,995.427,1014.988,995.427,1022.678z"/>
	<path fill="#EBE1C8" d="M1005.776,1015.56c-0.38,0-1.19,0.051-1.717,0.24v14.089c0.382,0.098,0.716,0.098,1.001,0.098
		c2.147,0,4.677-2.196,4.726-8.119C1009.833,1017.229,1007.972,1015.56,1005.776,1015.56L1005.776,1015.56z M1003.821,1002.043
		c0.189,0,0.238,0.097,0.238,0.287v8.453c0.669-0.145,1.479-0.284,2.574-0.284c4.965,0,8.731,3.82,8.731,11.224
		c0,8.646-4.913,13.277-11.068,13.277c-1.766,0-3.579-0.238-5.534-0.859c-0.142-0.047-0.284-0.189-0.284-0.382v-31.429
		c0-0.19,0.095-0.287,0.284-0.287H1003.821L1003.821,1002.043z"/>
	<path fill="#EBE1C8" d="M1027.15,1019.573c0.905,0,1.289,0,1.432-0.049c0.047-0.238,0.047-0.336,0.047-0.525
		c0-1.815-0.572-3.727-2.529-3.727c-1.905,0-2.67,1.957-2.907,4.301H1027.15L1027.15,1019.573z M1023.095,1024.063
		c0,3.678,1.386,5.923,5.249,5.923c1.288,0,2.337-0.19,3.625-0.668c0.24-0.099,0.381-0.099,0.381,0.237v3.965
		c0,0.334-0.094,0.525-0.333,0.62c-1.336,0.716-3.148,0.859-4.723,0.859c-7.014,0-9.733-5.158-9.733-11.893
		c0-7.164,3.15-12.608,8.731-12.608c5.867,0,7.586,5.204,7.586,9.455c0,1.528-0.144,3.01-0.24,3.584
		c-0.046,0.237-0.188,0.334-0.428,0.381c-0.478,0.047-1.956,0.145-4.533,0.145H1023.095L1023.095,1024.063z"/>
</g>
</svg>
