<?xml version="1.0" encoding="utf-8"?>
<!-- Generator: Adobe Illustrator 15.1.0, SVG Export Plug-In . SVG Version: 6.00 Build 0)  -->
<!DOCTYPE svg PUBLIC "-//W3C//DTD SVG 1.1//EN" "http://www.w3.org/Graphics/SVG/1.1/DTD/svg11.dtd">
<svg version="1.1" id="vs_bg" xmlns="http://www.w3.org/2000/svg" xmlns:xlink="http://www.w3.org/1999/xlink" x="0px" y="0px"
	 width="1080px" height="1080px" viewBox="0 0 1080 1080" enable-background="new 0 0 1080 1080" xml:space="preserve">
<rect fill="#45CDFD" width="1080" height="1080"/>
<g>
	<path fill="#7FDDFD" d="M990.877,991.201c-1.374,0-1.666,2.389-1.666,4.219c0,2.221,0.367,4.268,1.693,4.268h0.027
		c1.238,0,1.555-2.329,1.555-4.268C992.486,993.59,992.17,991.201,990.877,991.201z"/>
	<path fill="#7FDDFD" d="M1002.268,991.457c-0.617,0-1.139,0.673-1.316,1.392l-0.117,0.824v3.638c0,0.32,0.057,0.625,0.123,0.826
		c0.328,1.098,0.886,1.363,1.326,1.363c1.254,0,1.771-1.586,1.771-4.132C1004.055,993.059,1003.507,991.457,1002.268,991.457z"/>
	<path fill="#7FDDFD" d="M979.49,991.457c-1.293,0-1.778,1.883-1.778,4.074c0,2.527,0.69,3.969,1.732,3.969
		c0.488,0,1.046-0.25,1.351-1.306c0.066-0.206,0.107-0.497,0.107-0.827v-3.441l-0.048-0.778
		C980.731,992.266,980.248,991.457,979.49,991.457z"/>
	<path fill="#7FDDFD" d="M968.093,987.111h-0.065c-0.199,1.219-0.467,3.025-0.666,4.103l-0.712,3.883h2.706l-0.66-3.892
		C968.503,990.076,968.268,988.324,968.093,987.111z"/>
	<path fill="#7FDDFD" d="M935.928,899.039V1080h108V899.039H935.928z M1018.092,924.713v49.635l-20.802-49.635H1018.092z
		 M1003.211,974.346h-8.688l-3.971-9.982h-9.707l9.106-21.361L1003.211,974.346z M961.795,924.713h20.826l-20.826,49.635V924.713z
		 M970.504,1001.959l-0.838-4.318h-3.371l-0.856,4.318h-3.177l3.954-17.981h3.884l3.592,17.981H970.504z M981.455,1001.963
		l-0.188-1.502h-0.066c-0.47,0.925-1.498,1.718-2.718,1.718c-2.694,0-4.029-2.961-4.029-6.702c0-4.549,1.998-6.761,4.155-6.761
		c1.127,0,1.871,0.552,2.24,1.347h0.053v-6.565h3.262v14.733c0,1.176,0.057,2.607,0.104,3.732H981.455z M990.896,1002.179h-0.026
		c-2.987,0-4.873-2.408-4.873-6.702c0-4.686,2.416-6.764,4.944-6.764c2.969,0,4.821,2.515,4.821,6.694
		C995.762,1000.771,992.857,1002.179,990.896,1002.179z M1003.091,1002.179c-1.146,0-1.898-0.507-2.583-1.778h-0.066l-0.181,1.56
		h-2.787c0.045-1.085,0.108-2.554,0.108-3.729v-14.733h3.252v6.787h0.051c0.642-0.997,1.494-1.571,2.738-1.571
		c2.451,0,3.687,2.779,3.687,6.402C1007.31,999.713,1005.465,1002.179,1003.091,1002.179z M1017.995,996.514l-6.178-0.021
		c0.036,2.359,1.28,3.128,2.823,3.128c0.986,0,1.826-0.213,2.447-0.454l0.443,2.33c-0.868,0.373-2.2,0.604-3.48,0.604
		c-3.493,0-5.395-2.369-5.395-6.432c0-4.363,2.206-6.971,5.1-6.971c2.789,0,4.342,2.306,4.342,6.09
		C1018.098,995.646,1018.059,996.127,1017.995,996.514z M1022.334,929.556c-1.341,0-2.429-1.076-2.429-2.434
		c0-1.339,1.088-2.41,2.429-2.41h0.012c1.332,0,2.396,1.071,2.396,2.41C1024.742,928.479,1023.678,929.556,1022.334,929.556z"/>
	<path fill="#7FDDFD" d="M1022.207,926.134l-0.313,0.009v0.876h0.295c0.347,0,0.639-0.118,0.639-0.431
		C1022.828,926.35,1022.66,926.134,1022.207,926.134z"/>
	<path fill="#7FDDFD" d="M1013.55,991.077c-1.187,0-1.685,1.733-1.72,3.125h3.271
		C1015.111,992.367,1014.587,991.077,1013.55,991.077z"/>
	<path fill="#7FDDFD" d="M1022.346,925.123h-0.012c-1.066,0-1.926,0.896-1.926,2.007c0,1.118,0.859,2.012,1.938,2.012
		c1.064,0.011,1.914-0.894,1.914-2.012C1024.26,926.02,1023.41,925.123,1022.346,925.123z M1022.916,928.529
		c-0.066-0.08-0.117-0.326-0.175-0.688c-0.058-0.316-0.235-0.453-0.563-0.453h-0.283v1.141h-0.488v-2.684
		c0.229-0.039,0.452-0.079,0.811-0.079c0.431,0,0.699,0.085,0.873,0.224l0.236,0.549c0,0.348-0.229,0.574-0.521,0.648v0.023
		c0.234,0.043,0.385,0.255,0.437,0.654c0.069,0.42,0.126,0.584,0.169,0.664H1022.916z"/>
</g>
<g>
	<rect x="604.645" y="832.863" fill="#62D5FD" width="150" height="15"/>
	
		<rect x="604.645" y="832.863" transform="matrix(0.309 -0.9511 0.9511 0.309 -329.61 1227.0571)" fill="#62D5FD" width="150" height="15"/>
	
		<rect x="604.644" y="832.863" transform="matrix(-0.809 -0.5878 0.5878 -0.809 735.5339 1919.7174)" fill="#7FDDFD" width="150" height="15.001"/>
	
		<rect x="604.646" y="832.863" transform="matrix(-0.809 0.5878 -0.5878 -0.809 1723.4451 1120.7416)" fill="#7FDDFD" width="149.999" height="15.001"/>
	
		<rect x="604.645" y="832.863" transform="matrix(0.309 0.9511 -0.9511 0.309 1268.8574 -65.7032)" fill="#62D5FD" width="150.001" height="15"/>
</g>
<g>
	<rect x="138.207" y="547.061" fill="#62D5FD" width="7.5" height="75"/>
	
		<rect x="104.457" y="580.811" transform="matrix(-0.9511 -0.309 0.309 -0.9511 96.3229 1184.3784)" fill="#62D5FD" width="75" height="7.5"/>
	
		<rect x="104.457" y="580.811" transform="matrix(-0.5878 0.809 -0.809 -0.5878 698.3182 813.3109)" fill="#7FDDFD" width="75" height="7.501"/>
	
		<rect x="104.457" y="580.81" transform="matrix(0.5878 0.809 -0.809 0.5878 531.4343 126.1171)" fill="#7FDDFD" width="75" height="7.501"/>
	
		<rect x="104.457" y="580.81" transform="matrix(0.9511 -0.309 0.309 0.9511 -173.6947 72.4795)" fill="#62D5FD" width="75" height="7.501"/>
</g>
<g>
	
		<rect x="155.752" y="183.291" transform="matrix(-0.2588 -0.9659 0.9659 -0.2588 63.7607 423.207)" fill="#7FDDFD" width="76.994" height="7.7"/>
	
		<rect x="155.752" y="183.291" transform="matrix(-0.9659 -0.2588 0.2588 -0.9659 333.4426 418.181)" fill="#62D5FD" width="76.994" height="7.699"/>
	
		<rect x="155.752" y="183.291" transform="matrix(0.7071 -0.7071 0.7071 0.7071 -75.4345 192.168)" fill="#7FDDFD" width="76.993" height="7.7"/>
</g>
<g>
	<rect x="185.658" y="372.16" fill="#7FDDFD" width="204.589" height="20.459"/>
	
		<rect x="185.658" y="372.16" transform="matrix(0.866 -0.5 0.5 0.866 -152.6166 195.2073)" fill="#62D5FD" width="204.588" height="20.459"/>
	
		<rect x="185.659" y="372.16" transform="matrix(0.5 -0.866 0.866 0.5 -187.1827 440.5707)" fill="#62D5FD" width="204.589" height="20.459"/>
	<rect x="277.723" y="280.095" fill="#7FDDFD" width="20.46" height="204.589"/>
	
		<rect x="185.658" y="372.16" transform="matrix(-0.5 -0.866 0.866 -0.5 100.7689 822.9584)" fill="#7FDDFD" width="204.589" height="20.46"/>
	
		<rect x="185.659" y="372.16" transform="matrix(-0.866 -0.5 0.5 -0.866 346.1324 857.5259)" fill="#62D5FD" width="204.588" height="20.46"/>
</g>
<g>
	<rect x="800.678" y="622.061" fill="#7FDDFD" width="10.229" height="102.295"/>
	
		<rect x="754.645" y="668.094" transform="matrix(0.5 0.866 -0.866 0.5 985.9111 -361.2327)" fill="#62D5FD" width="102.295" height="10.23"/>
	
		<rect x="754.645" y="668.093" transform="matrix(0.866 0.5 -0.5 0.866 444.5606 -312.7034)" fill="#62D5FD" width="102.295" height="10.23"/>
	<rect x="754.645" y="668.094" fill="#7FDDFD" width="102.295" height="10.229"/>
	
		<rect x="754.645" y="668.093" transform="matrix(0.866 -0.5 0.5 0.866 -228.6487 493.0896)" fill="#7FDDFD" width="102.295" height="10.23"/>
	
		<rect x="754.645" y="668.093" transform="matrix(0.5 -0.866 0.866 0.5 -180.1165 1034.4478)" fill="#62D5FD" width="102.294" height="10.23"/>
</g>
</svg>
