<?xml version="1.0" encoding="utf-8"?>
<!-- Generator: Adobe Illustrator 15.1.0, SVG Export Plug-In . SVG Version: 6.00 Build 0)  -->
<!DOCTYPE svg PUBLIC "-//W3C//DTD SVG 1.1//EN" "http://www.w3.org/Graphics/SVG/1.1/DTD/svg11.dtd">
<svg version="1.1" id="vs_text" xmlns="http://www.w3.org/2000/svg" xmlns:xlink="http://www.w3.org/1999/xlink" x="0px" y="0px"
	 width="1080px" height="1080px" viewBox="0 0 1080 1080" enable-background="new 0 0 1080 1080" xml:space="preserve">
<g>
	<path d="M48.536,548.998c-3.644-12.827-4.956-14.576-12.827-16.18v-12.391h43.73v12.391c-6.123,0-8.455,1.166-8.455,4.082
		c0,1.02,0.438,2.77,1.458,6.997l13.556,49.27l13.265-43.002c-3.499-15.014-4.665-16.471-13.265-17.346v-12.391h45.479v12.391
		h-3.936c-4.373,0-5.977,1.166-5.977,4.227c0,1.021,0.292,2.916,0.729,4.373l12.828,51.748l13.411-51.311
		c0.437-1.749,0.729-3.207,0.729-4.519c0.146-3.207-2.77-4.519-10.058-4.519v-12.391h35.567v12.391
		c-6.851,0.437-9.912,3.353-11.807,11.225l-19.241,73.611h-25.947l-11.516-41.252l-11.953,41.252H67.34L48.536,548.998z"/>
	<path d="M244.422,594.479c-4.519,17.199-15.888,25.654-34.546,25.654c-22.157,0-36.587-14.285-36.587-36.441
		c0-22.449,13.993-36.442,36.441-36.442c16.18,0,27.842,7.143,33.235,20.407c2.332,5.831,2.624,7.58,2.624,18.805h-47.083
		c0.437,14.431,4.227,19.97,14.139,19.97c4.956,0,9.621-1.896,11.953-4.81c1.166-1.459,2.041-3.645,2.624-7.143H244.422z
		 M221.1,574.799c-0.146-5.685-0.729-8.309-2.333-10.786c-1.749-2.771-4.956-4.373-8.6-4.373c-3.645,0-7.288,1.895-9.038,4.665
		c-1.312,2.186-1.75,4.518-2.187,10.494H221.1z"/>
	<path d="M251.567,549.29h35.567v49.853c0,5.685,1.166,6.851,6.56,6.851h3.644v11.661h-45.771v-11.661h4.373
		c5.539,0,6.705-1.166,6.705-6.851v-29.299c0-7.872-0.437-8.602-6.559-8.602h-4.519V549.29z M285.677,531.652
		c0,6.414-5.685,12.099-12.099,12.099c-6.705,0-12.099-5.394-12.099-12.245c0-6.56,5.394-11.953,12.099-11.953
		C279.992,519.554,285.677,525.093,285.677,531.652z"/>
	<path d="M304.41,605.993h3.499c5.539,0,6.851-1.312,6.851-6.851V538.94c0-5.539-1.312-6.851-6.851-6.851h-3.499v-11.662h33.381
		v38.629c8.746-8.893,14.722-11.662,24.634-11.662c7.289,0,13.557,2.188,17.347,5.977c3.79,3.791,4.956,8.309,4.956,19.387v26.385
		c0,5.539,1.312,6.851,6.851,6.851h3.353v11.661h-42.709v-11.661h1.603c5.394,0,6.706-1.312,6.706-6.851v-26.385
		c0-8.309-3.207-12.244-9.912-12.244c-8.163,0-11.662,5.394-11.662,17.93v20.699c0,5.539,1.312,6.851,6.706,6.851h1.604v11.661
		H304.41V605.993z"/>
	<path d="M401.903,605.993h3.936c5.539,0,6.851-1.312,6.851-6.851v-31.34c0-5.539-1.312-6.852-6.851-6.852h-3.936V549.29h33.818
		v10.495c7.58-9.184,13.994-12.391,24.635-12.391c7.288,0,13.557,2.188,17.347,5.831c3.79,3.79,4.956,8.309,4.956,19.532v26.385
		c0,5.539,1.312,6.851,6.705,6.851h3.353v11.661h-42.564v-11.661h1.604c5.393,0,6.705-1.312,6.705-6.851v-26.385
		c0-8.309-3.353-12.39-10.058-12.39c-7.434,0-11.516,5.539-11.516,15.597v23.178c0,5.539,1.313,6.851,6.706,6.851h1.458v11.661
		h-43.147V605.993z"/>
	<path d="M583.473,599.143c0,8.162-1.02,11.661-4.227,15.16c-3.645,3.936-8.893,5.83-15.743,5.83
		c-9.475,0-13.848-2.624-17.492-10.35c-5.394,5.394-7.871,7.143-12.827,8.746c-3.645,1.166-7.289,1.75-10.933,1.75
		c-13.265,0-21.72-7.727-21.72-19.533c0-5.977,2.333-10.933,6.414-14.14c3.936-3.062,6.268-3.79,18.221-6.269
		c7.872-1.604,11.953-2.915,14.577-4.227c3.061-1.604,4.956-4.956,4.956-8.746c0-6.705-5.831-11.225-14.723-11.225
		c-4.665,0-7.435,0.729-10.933,2.916c5.685,0.729,8.601,3.645,8.601,8.454c0,4.956-5.248,9.038-11.662,9.038
		c-7.289,0-12.39-4.52-12.39-11.078c0-11.516,12.536-18.658,32.506-18.658c11.953,0,22.157,2.77,26.967,7.434
		c3.499,3.498,4.373,6.705,4.373,17.783v26.385c0,4.373,1.166,6.559,3.645,6.559c2.624,0,3.644-1.895,3.644-6.559v-5.977h8.746
		V599.143z M544.116,583.982c-1.458,0.729-3.062,1.604-4.665,2.479c-2.915,1.457-5.831,2.915-8.892,4.227
		c-3.353,1.604-5.248,4.228-5.248,7.143c0,4.665,3.644,7.871,8.6,7.871c6.414,0,10.204-4.372,10.204-11.66V583.982z"/>
	<path d="M655.938,593.604c-0.438,8.309-2.624,13.557-7.58,18.658c-5.248,5.393-12.391,7.871-22.594,7.871
		c-12.391,0-21.137-3.498-27.113-10.787c-5.394-6.559-8.309-15.742-8.309-26.092c0-22.448,13.702-36.441,35.858-36.441
		c18.075,0,30.319,9.475,30.319,23.468c0,8.892-5.83,14.868-14.722,14.868c-7.143,0-11.953-4.664-11.953-11.369
		c0-3.645,1.312-6.852,3.644-8.746c1.604-1.313,3.499-1.896,7.435-2.041c-3.498-3.207-5.685-4.082-9.62-4.082
		c-10.496,0-15.451,7.727-15.451,23.469c0,17.055,4.081,24.344,13.41,24.344c7.288,0,10.641-3.791,11.516-13.119H655.938z"/>
	<path d="M662.396,605.993h3.498c5.539,0,6.852-1.312,6.852-6.851V538.94c0-5.539-1.313-6.851-6.852-6.851h-3.498v-11.662h33.381
		v38.629c8.746-8.893,14.723-11.662,24.635-11.662c7.288,0,13.557,2.188,17.346,5.977c3.79,3.791,4.957,8.309,4.957,19.387v26.385
		c0,5.539,1.312,6.851,6.851,6.851h3.353v11.661h-42.71v-11.661h1.604c5.394,0,6.705-1.312,6.705-6.851v-26.385
		c0-8.309-3.206-12.244-9.912-12.244c-8.163,0-11.661,5.394-11.661,17.93v20.699c0,5.539,1.313,6.851,6.705,6.851h1.604v11.661
		h-42.855V605.993z"/>
	<path d="M754.832,561.098v-10.934c11.516-1.604,17.637-10.349,19.095-27.549h14.431v26.675h17.347v11.808h-17.347v35.858
		c0,5.831,0.292,6.997,1.604,8.601c0.875,0.874,1.458,1.166,2.77,1.312c1.021,0,1.021,0,1.604,0.146
		c1.604,0.146,3.645-1.457,4.373-3.498c0.584-1.75,1.021-6.705,1.021-11.808v-6.413h11.661v10.203c0,9.037-1.02,12.974-4.227,17.055
		c-4.228,5.248-10.787,7.871-19.679,7.871c-9.476,0-15.597-2.623-19.388-8.454c-3.061-4.519-3.644-7.435-3.644-18.658v-32.214
		H754.832z"/>
	<path d="M892.613,594.479c-4.52,17.199-15.889,25.654-34.547,25.654c-22.157,0-36.588-14.285-36.588-36.441
		c0-22.449,13.994-36.442,36.441-36.442c16.181,0,27.842,7.143,33.235,20.407c2.332,5.831,2.624,7.58,2.624,18.805h-47.083
		c0.438,14.431,4.228,19.97,14.14,19.97c4.956,0,9.62-1.896,11.953-4.81c1.166-1.459,2.04-3.645,2.623-7.143H892.613z
		 M869.29,574.799c-0.146-5.685-0.729-8.309-2.332-10.786c-1.749-2.771-4.956-4.373-8.601-4.373s-7.288,1.895-9.037,4.665
		c-1.313,2.186-1.75,4.518-2.187,10.494H869.29z"/>
	<path d="M899.423,605.993h3.936c5.539,0,6.852-1.312,6.852-6.851v-31.34c0-5.539-1.313-6.852-6.852-6.852h-3.936V549.29h33.818
		v10.495c7.579-9.184,13.993-12.391,24.634-12.391c7.289,0,13.557,2.188,17.347,5.831c3.79,3.79,4.956,8.309,4.956,19.532v26.385
		c0,5.539,1.313,6.851,6.705,6.851h3.354v11.661h-42.564v-11.661h1.604c5.394,0,6.705-1.312,6.705-6.851v-26.385
		c0-8.309-3.353-12.39-10.058-12.39c-7.435,0-11.516,5.539-11.516,15.597v23.178c0,5.539,1.312,6.851,6.705,6.851h1.458v11.661
		h-43.147V605.993z"/>
	<path d="M1008.153,580.484c-0.438-4.373-0.875-8.455-1.458-12.244c-0.729-4.373-1.457-8.746-2.332-13.119
		c-1.604-9.475-2.479-16.764-2.479-20.991c0-5.102,2.041-10.496,4.957-13.411c2.04-2.187,5.102-3.207,9.037-3.207
		c8.163,0,13.265,5.831,13.265,15.451c0,5.685-1.021,14.868-2.624,23.177l-1.457,8.455c-1.166,5.685-1.604,10.203-2.624,22.594
		h-13.557L1008.153,580.484z M1027.832,608.617c0,6.56-5.394,11.807-12.244,11.807c-6.852,0-12.245-5.393-12.245-12.098
		c0-6.561,5.685-12.391,12.099-12.391C1022.438,595.936,1027.832,601.475,1027.832,608.617z"/>
</g>
<g>
	<path d="M324.183,466.067h5.685c8.6,0,9.475-0.875,9.475-9.038v-56.995c0-8.163-0.875-9.038-9.475-9.038h-5.685v-11.078h90.23
		v40.377h-11.078c-0.146-11.953-1.312-17.784-4.373-22.594c-3.207-4.956-8.6-6.705-21.136-6.705H359.75v29.882h2.478
		c7.726,0,11.37-1.312,13.119-4.519c1.02-2.041,1.166-2.77,2.332-13.119h11.079v48.541h-11.079
		c-1.458-17.93-2.916-19.824-15.305-19.824h-2.624v25.071c0,8.163,0.875,9.038,9.621,9.038h6.851v11.078h-52.039V466.067z"/>
	<path d="M470.9,477.146h-46.062v-9.767h4.664c6.851,0,8.309-1.604,8.309-8.6v-31.631c0-6.997-1.458-8.601-8.309-8.601h-4.664
		v-9.766h30.465v10.349c5.685-9.037,10.641-12.244,18.513-12.244c9.912,0,17.2,6.56,17.2,15.743c0,7.143-4.81,12.244-11.661,12.244
		c-5.977,0-9.912-3.645-9.912-8.892c0-5.102,2.478-7.872,8.746-9.912c-2.624-0.875-4.956-1.458-6.414-1.458
		c-3.936,0-9.037,3.353-11.953,7.872c-2.916,4.373-4.519,11.078-4.519,17.929v18.367c0,6.997,1.458,8.6,8.309,8.6h7.289V477.146z"/>
	<path d="M574.761,443.036c0,22.011-15.306,36.587-38.482,36.587c-23.76,0-38.774-14.431-38.774-37.17
		c0-21.574,15.597-36.15,38.628-36.15C559.455,406.303,574.761,420.879,574.761,443.036z M517.328,442.599
		c0,18.221,5.977,26.821,18.804,26.821c12.536,0,18.804-8.746,18.804-26.53c0-17.638-6.269-26.384-18.804-26.384
		S517.328,425.106,517.328,442.599z"/>
	<path d="M579.633,379.919h29.591v40.814c9.037-10.495,15.306-14.139,24.489-14.139c6.268,0,12.682,2.333,16.325,5.976
		c3.645,3.645,4.956,8.892,4.956,19.242v26.967c0,6.997,1.458,8.6,8.309,8.6h4.082v9.767h-40.961v-9.767h2.916
		c6.705,0,8.162-1.604,8.162-8.6v-26.967c0-5.977-0.438-8.017-2.041-10.204c-1.748-2.479-4.81-3.79-8.6-3.79
		c-5.248,0-10.059,2.478-13.41,7.143c-3.207,4.081-4.228,8.309-4.228,16.763v17.055c0,6.997,1.458,8.6,8.309,8.6h2.915v9.767
		h-40.814v-9.767h3.79c6.851,0,8.309-1.458,8.309-8.6v-60.494c0-7.143-1.458-8.6-8.309-8.6h-3.79V379.919z"/>
	<path d="M740.402,452.803c-1.896,10.641-4.52,15.597-10.787,20.407c-5.831,4.227-13.265,6.56-21.865,6.56
		c-21.137,0-35.422-14.723-35.422-36.588c0-22.156,14.432-36.879,36.005-36.879c10.933,0,19.096,3.353,24.635,10.204
		c5.394,6.56,7.288,13.265,7.871,27.841h-48.687c0.584,9.184,1.75,13.119,4.52,17.347c3.207,4.519,7.288,6.414,13.702,6.414
		c10.495,0,14.868-3.79,17.929-15.305H740.402z M721.744,434.145c-1.604-13.702-4.957-18.221-13.411-18.221
		c-8.746,0-13.265,5.248-15.597,18.221H721.744z"/>
</g>
</svg>
