<?xml version="1.0" encoding="utf-8"?>
<!-- Generator: Adobe Illustrator 15.1.0, SVG Export Plug-In . SVG Version: 6.00 Build 0)  -->
<!DOCTYPE svg PUBLIC "-//W3C//DTD SVG 1.1//EN" "http://www.w3.org/Graphics/SVG/1.1/DTD/svg11.dtd">
<svg version="1.1" id="vs_text" xmlns="http://www.w3.org/2000/svg" xmlns:xlink="http://www.w3.org/1999/xlink" x="0px" y="0px"
	 width="1080px" height="1080px" viewBox="0 0 1080 1080" enable-background="new 0 0 1080 1080" xml:space="preserve">
<g>
	<path d="M458.881,795.849h9.576l7.751-87.244h-12.16l0.912-9.575h35.263c27.511,0,32.223,13.679,32.223,23.862
		c0,15.959-11.552,25.687-23.711,26.751v0.304c13.679,0,26.446,7.6,26.446,23.255c0,17.783-12.007,32.223-39.518,32.223H457.97
		L458.881,795.849z M480.616,795.849h13.832c18.239,0,27.663-8.968,27.663-22.647c0-9.575-5.775-18.695-23.863-18.695h-13.983
		L480.616,795.849z M485.024,745.994h10.184c14.439,0,25.079-8.055,25.079-22.19c0-8.663-5.32-15.199-21.127-15.199h-10.791
		L485.024,745.994z"/>
	<path d="M562.999,736.571H550.84l0.912-9.575h23.862l-6.231,68.853h11.551l-0.912,9.575h-23.254L562.999,736.571z M580.63,695.989
		c0,4.712-3.952,8.663-8.663,8.663c-4.712,0-8.664-3.951-8.664-8.663s3.952-8.664,8.664-8.664
		C576.678,687.325,580.63,691.277,580.63,695.989z"/>
	<path d="M609.602,698.117h-13.982l0.911-9.576h25.839l-9.424,107.308h11.552l-0.912,9.575h-23.406L609.602,698.117z"/>
	<path d="M652.102,698.117h-13.984l0.912-9.576h25.839l-9.423,107.308h11.551l-0.912,9.575h-23.406L652.102,698.117z"/>
	<path d="M690.664,736.571h-12.16l0.912-9.575h23.863l-6.232,68.853h11.552l-0.912,9.575h-23.255L690.664,736.571z M708.295,695.989
		c0,4.712-3.952,8.663-8.664,8.663s-8.663-3.951-8.663-8.663s3.951-8.664,8.663-8.664S708.295,691.277,708.295,695.989z"/>
	<path d="M720.639,826.854c4.56,3.496,11.703,7.144,21.887,7.144c7.903,0,14.439-1.823,18.848-6.383
		c11.551-11.855,7.6-32.831,13.982-61.405l-0.304-0.304c-4.712,12.463-14.743,38.605-33.895,38.605
		c-14.439,0-18.847-13.375-18.847-26.902c0-29.791,15.655-52.134,41.494-52.134c6.991,0,13.375,1.824,18.999,3.192h5.472
		c-2.584,19.303-3.192,41.949-6.536,72.956c-3.191,30.095-13.071,41.95-37.542,41.95c-7.144,0-18.087-2.28-24.015-5.624
		L720.639,826.854z M734.47,777.609c0,11.551,3.192,17.327,8.968,17.327c12.768,0,27.358-26.599,32.223-57.605
		c-2.433-0.912-6.384-2.28-12.615-2.28C740.701,735.051,734.47,757.698,734.47,777.609z"/>
	<path d="M856.37,801.168c-3.8,2.28-12.615,5.775-23.711,5.775c-19.304,0-29.03-9.879-29.03-35.262
		c0-13.68,4.256-25.23,11.095-33.438c6.84-8.056,15.048-12.768,27.358-12.768c15.048,0,21.584,8.815,21.584,17.783
		c0,18.695-21.432,28.727-47.878,31.767c0,15.959,7.903,21.583,19.911,21.583c6.688,0,14.895-2.432,22.039-6.992L856.37,801.168z
		 M839.955,735.051c-14.439,0-22.495,14.439-24.167,31.463c21.735-2.736,35.718-8.968,35.718-22.495
		C851.506,739.763,848.01,735.051,839.955,735.051z"/>
	<path d="M878.442,726.996h22.799c-0.608,6.688-1.368,18.543-3.647,33.894l0.304,0.305c4.407-21.432,11.399-35.719,27.511-35.719
		c3.039,0,5.623,0.304,7.447,0.76l-1.824,11.096c-1.52-0.304-3.344-0.608-5.168-0.608c-15.351,0-25.23,17.328-30.854,68.701h-11.552
		c3.191-23.711,4.56-47.726,6.231-68.853H877.53L878.442,726.996z"/>
	<path d="M940.077,789.616c4.712,0,8.663,3.952,8.663,8.664s-3.951,8.663-8.663,8.663s-8.663-3.951-8.663-8.663
		S935.365,789.616,940.077,789.616z"/>
</g>
<g>
	<path d="M115.037,126.006h-11.399l0.9-9.45h33.749l-0.9,9.45h-9.45l17.85,73.646c1.05,4.05,1.649,7.35,2.25,12.45h0.3
		c1.05-4.2,2.85-8.25,4.5-12.3l23.399-55.048l-4.95-18.749h-11.399l0.9-9.45h33.749l-0.9,9.45h-9.449l17.249,70.197
		c1.05,4.499,2.1,9.299,2.55,15.149h0.3c1.05-5.25,3.3-10.5,4.8-14.55l25.949-70.797h-11.399l0.9-9.45h32.849l-0.9,9.45h-9.45
		l-37.349,95.546h-13.799l-15.299-61.348h-0.3l-26.699,61.348h-13.799L115.037,126.006z"/>
	<path d="M323.548,212.103l-0.9,9.449h-22.5c1.05-12.899,3-28.799,5.7-38.698l-0.3-0.3c-3.9,14.249-12.449,40.498-31.349,40.498
		c-12.75,0-19.649-11.55-19.649-28.049c0-20.249,7.35-35.249,13.799-41.698c8.7-8.7,18.599-10.649,28.349-10.649
		c6.15,0,11.25,1.199,16.5,3.6h5.1c-2.25,10.649-4.8,44.248-6.149,65.848H323.548z M275.55,211.952
		c15.899,0,27.749-34.648,30.148-57.897c-3-1.2-6.3-1.95-10.799-1.95c-22.199,0-28.349,22.499-28.349,42.748
		C266.55,206.252,269.7,211.952,275.55,211.952z"/>
	<path d="M339.391,198.753h9.75l-0.6,11.85c3.45,1.5,9.6,3,16.199,3c10.95,0,16.8-6.3,16.8-13.65
		c0-15.599-39.898-11.399-39.898-34.198c0-13.499,9.149-23.099,28.499-23.099c9.9,0,18.449,2.399,23.249,4.05l-1.5,19.499h-9.75
		l0.6-11.85c-3.45-1.35-8.55-2.25-13.2-2.25c-12.749,0-16.499,6.6-16.499,11.55c0,6.899,5.85,9.449,14.25,12.6l8.7,3.3
		c9.899,3.75,16.949,7.649,16.949,18.749c0,16.199-11.1,24.749-29.249,24.749c-11.85,0-19.799-2.55-25.799-4.8L339.391,198.753z"/>
	<path d="M462.24,144.155h24.149c-1.05,15.149-3.6,37.798-3.6,46.947c0,13.95,2.25,20.85,10.35,20.85
		c15.899,0,23.099-34.349,24.749-67.797h11.4c-1.05,17.249-2.55,26.549-2.55,46.947c0,13.95,2.25,20.85,10.05,20.85
		c13.649,0,22.799-23.249,24.449-58.348h-12l0.9-9.449h22.499c-1.351,40.498-10.649,78.896-37.648,78.896
		c-14.549,0-18.299-14.55-17.699-30.148h-0.3c-1.05,8.549-8.1,30.148-25.799,30.148c-16.349,0-20.399-12.6-20.399-28.499
		c0-17.85,1.8-30.599,2.55-40.948h-12L462.24,144.155z"/>
	<path d="M656.141,212.103l-0.899,9.449h-22.499c1.05-12.899,3-28.799,5.699-38.698l-0.3-0.3
		c-3.899,14.249-12.449,40.498-31.349,40.498c-12.749,0-19.648-11.55-19.648-28.049c0-20.249,7.35-35.249,13.799-41.698
		c8.699-8.7,18.6-10.649,28.349-10.649c6.149,0,11.25,1.199,16.499,3.6h5.101c-2.25,10.649-4.8,44.248-6.149,65.848H656.141z
		 M608.143,211.952c15.9,0,27.75-34.648,30.149-57.897c-3-1.2-6.3-1.95-10.8-1.95c-22.199,0-28.349,22.499-28.349,42.748
		C599.144,206.252,602.293,211.952,608.143,211.952z M611.893,111.156c4.5,0,8.1,3.6,8.1,8.1s-3.6,8.1-8.1,8.1s-8.1-3.6-8.1-8.1
		S607.393,111.156,611.893,111.156z M642.642,111.156c4.5,0,8.1,3.6,8.1,8.1s-3.6,8.1-8.1,8.1s-8.1-3.6-8.1-8.1
		S638.142,111.156,642.642,111.156z"/>
	<path d="M668.594,144.155h22.499c-0.6,6.6-1.35,18.299-3.6,33.448l0.3,0.3c4.35-21.148,11.25-35.248,27.149-35.248
		c2.999,0,5.55,0.3,7.35,0.75l-1.8,10.949c-1.5-0.3-3.301-0.6-5.1-0.6c-15.15,0-24.899,17.099-30.449,67.797h-11.399
		c3.149-23.399,4.499-47.098,6.149-67.947h-11.999L668.594,144.155z"/>
	<path d="M779.531,217.352c-3.75,2.25-12.449,5.7-23.398,5.7c-19.05,0-28.649-9.75-28.649-34.799c0-13.499,4.2-24.898,10.95-32.998
		c6.75-7.95,14.85-12.6,26.998-12.6c14.85,0,21.3,8.699,21.3,17.549c0,18.449-21.149,28.349-47.248,31.349
		c0,15.75,7.8,21.3,19.649,21.3c6.6,0,14.699-2.4,21.749-6.9L779.531,217.352z M763.332,152.104
		c-14.249,0-22.199,14.25-23.849,31.049c21.449-2.7,35.249-8.85,35.249-22.199C774.732,156.755,771.282,152.104,763.332,152.104z"/>
	<path d="M115.037,318.006h-11.399l0.9-9.45h33.749l-0.9,9.45h-9.45l17.85,73.646c1.05,4.05,1.649,7.35,2.25,12.45h0.3
		c1.05-4.2,2.85-8.25,4.5-12.3l23.399-55.048l-4.95-18.749h-11.399l0.9-9.45h33.749l-0.9,9.45h-9.449l17.249,70.197
		c1.05,4.499,2.1,9.299,2.55,15.149h0.3c1.05-5.25,3.3-10.5,4.8-14.55l25.949-70.797h-11.399l0.9-9.45h32.849l-0.9,9.45h-9.45
		l-37.349,95.546h-13.799l-15.299-61.348h-0.3l-26.699,61.348h-13.799L115.037,318.006z"/>
	<path d="M306.208,409.352c-3.75,2.25-12.45,5.7-23.399,5.7c-19.049,0-28.649-9.75-28.649-34.799c0-13.499,4.2-24.898,10.95-32.998
		c6.75-7.95,14.849-12.6,26.999-12.6c14.849,0,21.299,8.699,21.299,17.549c0,18.449-21.149,28.349-47.248,31.349
		c0,15.75,7.8,21.3,19.649,21.3c6.6,0,14.699-2.4,21.749-6.9L306.208,409.352z M290.009,344.104
		c-14.25,0-22.199,14.25-23.849,31.049c21.449-2.7,35.249-8.85,35.249-22.199C301.409,348.755,297.959,344.104,290.009,344.104z"/>
	<path d="M339.225,345.604h-12l0.9-9.449h23.549l-6.15,67.947h11.399l-0.9,9.449h-22.949L339.225,345.604z M356.624,305.556
		c0,4.65-3.9,8.55-8.55,8.55s-8.55-3.899-8.55-8.55c0-4.649,3.9-8.549,8.55-8.549S356.624,300.906,356.624,305.556z"/>
	<path d="M372.315,298.206h25.499c-2.1,17.25-3.9,55.948-8.85,75.598l0.3,0.3c5.25-20.1,19.649-39.448,34.498-39.448
		c10.05,0,14.85,6.149,14.85,19.648c0,12.45-3,32.399-5.1,49.799h11.399l-0.9,9.449h-23.099c3-24.749,6.3-47.398,6.3-57.147
		c0-8.399-1.95-10.649-6.6-10.649c-16.799,0-29.249,37.198-31.049,48.598l-3.15,19.199h-11.399
		c5.399-38.698,8.7-91.796,10.199-105.896h-13.799L372.315,298.206z"/>
	<path d="M457.124,336.155h23.549c-2.1,12.149-2.85,21.299-5.7,37.798l0.3,0.15c5.25-20.1,19.649-39.448,34.499-39.448
		c10.05,0,14.85,6.149,14.85,19.648c0,12.45-3,32.399-5.1,49.799h11.399l-0.9,9.449h-23.099c3-24.749,6.3-47.398,6.3-57.147
		c0-8.399-1.95-10.649-6.6-10.649c-16.799,0-29.249,37.198-31.049,48.598l-3.15,19.199h-11.399c3.15-24.149,5.25-46.798,7.2-67.947
		h-12L457.124,336.155z"/>
	<path d="M614.049,404.103l-0.899,9.449H590.65c1.05-12.899,3-28.799,5.699-38.698l-0.3-0.3
		c-3.899,14.249-12.449,40.498-31.349,40.498c-12.75,0-19.648-11.55-19.648-28.049c0-20.249,7.35-35.249,13.799-41.698
		c8.699-8.7,18.6-10.649,28.349-10.649c6.149,0,11.25,1.199,16.499,3.6h5.1c-2.249,10.649-4.799,44.248-6.149,65.848H614.049z
		 M566.051,403.952c15.9,0,27.749-34.648,30.149-57.897c-3-1.2-6.3-1.95-10.8-1.95c-22.199,0-28.349,22.499-28.349,42.748
		C557.052,398.252,560.201,403.952,566.051,403.952z"/>
	<path d="M670.525,345.005c-2.25-0.601-4.35-0.9-7.05-0.9c-17.699,0-25.499,15.449-25.499,35.549c0,18.149,8.55,25.199,19.5,25.199
		c6.749,0,14.549-2.851,19.949-5.7l-1.051,10.649c-5.1,2.7-11.999,5.25-21.449,5.25c-21.749,0-28.948-18.299-28.948-34.499
		c0-25.349,12.599-45.897,37.948-45.897c5.399,0,12.149,0.899,17.249,2.699l-1.5,19.5h-9.749L670.525,345.005z"/>
	<path d="M691.106,298.206h25.499c-2.1,17.25-3.9,55.948-8.85,75.598l0.3,0.3c5.25-20.1,19.649-39.448,34.499-39.448
		c10.049,0,14.849,6.149,14.849,19.648c0,12.45-2.999,32.399-5.1,49.799h11.399l-0.9,9.449h-23.099c3-24.749,6.3-47.398,6.3-57.147
		c0-8.399-1.949-10.649-6.6-10.649c-16.799,0-29.249,37.198-31.049,48.598l-3.15,19.199h-11.398
		c5.399-38.698,8.699-91.796,10.199-105.896h-13.8L691.106,298.206z"/>
	<path d="M786.654,345.604h-12.449l0.75-9.449h12.6l1.8-19.35l11.399-0.45l-1.8,19.8h22.049l-0.75,9.449h-22.199l-4.2,47.248
		c-0.75,7.5,1.801,12,7.95,12c6.3,0,11.399-2.101,16.05-4.65l-0.9,10.649c-3.75,1.95-9.899,4.2-17.399,4.2
		c-12.149,0-18.599-6.3-17.099-23.549L786.654,345.604z"/>
	<path d="M881.616,409.352c-3.75,2.25-12.449,5.7-23.399,5.7c-19.049,0-28.648-9.75-28.648-34.799
		c0-13.499,4.199-24.898,10.949-32.998c6.75-7.95,14.85-12.6,26.999-12.6c14.85,0,21.3,8.699,21.3,17.549
		c0,18.449-21.149,28.349-47.248,31.349c0,15.75,7.799,21.3,19.648,21.3c6.6,0,14.699-2.4,21.749-6.9L881.616,409.352z
		 M865.417,344.104c-14.249,0-22.199,14.25-23.849,31.049c21.449-2.7,35.248-8.85,35.248-22.199
		C876.816,348.755,873.366,344.104,865.417,344.104z"/>
	<path d="M903.263,336.155h23.55c-2.101,12.149-2.851,21.299-5.7,37.798l0.3,0.15c5.25-20.1,19.649-39.448,34.498-39.448
		c10.051,0,14.85,6.149,14.85,19.648c0,12.45-3,32.399-5.1,49.799h11.399l-0.899,9.449h-23.1c3-24.749,6.3-47.398,6.3-57.147
		c0-8.399-1.95-10.649-6.6-10.649c-16.8,0-29.249,37.198-31.049,48.598l-3.149,19.199h-11.4c3.15-24.149,5.25-46.798,7.2-67.947
		h-11.999L903.263,336.155z"/>
	<path d="M140.386,526.655c21.749,0,28.949,18.299,28.949,34.648c0,25.349-12.6,45.748-35.849,45.748
		c-21.749,0-28.949-18.299-28.949-34.499C104.538,547.804,117.137,526.655,140.386,526.655z M134.386,596.853
		c10.95,0,22.949-8.25,22.949-36.149c0-16.349-7.8-23.849-17.849-23.849c-10.95,0-22.949,8.25-22.949,36.148
		C116.537,589.353,124.337,596.853,134.386,596.853z"/>
	<path d="M182.163,490.206h25.499c-2.1,17.25-3.899,55.948-8.85,75.598l0.3,0.3c5.25-20.1,19.649-39.448,34.499-39.448
		c10.05,0,14.85,6.149,14.85,19.648c0,12.45-3,32.399-5.1,49.799h11.399l-0.9,9.449H230.76c3-24.749,6.3-47.398,6.3-57.147
		c0-8.399-1.95-10.649-6.6-10.649c-16.799,0-29.249,37.198-31.049,48.598l-3.15,19.199h-11.399c5.4-38.698,8.7-91.796,10.2-105.896
		h-13.799L182.163,490.206z"/>
	<path d="M266.971,528.155h23.549c-2.1,12.149-2.85,21.299-5.7,37.798l0.3,0.15c5.25-20.1,19.649-39.448,34.499-39.448
		c10.049,0,14.849,6.149,14.849,19.648c0,12.45-3,32.399-5.1,49.799h11.399l-0.9,9.449h-23.099c3-24.749,6.3-47.398,6.3-57.147
		c0-8.399-1.95-10.649-6.6-10.649c-16.799,0-29.249,37.198-31.048,48.598l-3.15,19.199h-11.399
		c3.149-24.149,5.25-46.798,7.199-67.947h-11.999L266.971,528.155z"/>
	<path d="M404.938,601.352c-3.75,2.25-12.45,5.7-23.399,5.7c-19.049,0-28.649-9.75-28.649-34.799c0-13.499,4.2-24.898,10.949-32.998
		c6.75-7.95,14.85-12.6,26.999-12.6c14.85,0,21.299,8.699,21.299,17.549c0,18.449-21.149,28.349-47.248,31.349
		c0,15.75,7.8,21.3,19.649,21.3c6.6,0,14.7-2.4,21.75-6.9L404.938,601.352z M388.738,536.104c-14.25,0-22.199,14.25-23.849,31.049
		c21.449-2.7,35.249-8.85,35.249-22.199C400.138,540.755,396.688,536.104,388.738,536.104z"/>
	<path d="M475.289,596.103h9.45l7.65-86.097h-12l0.9-9.45h33.448l-0.9,9.45h-9.45l-3.45,38.548l43.798-38.548h-12l0.6-9.45h34.648
		l-0.601,9.45h-8.549l-44.999,40.648l41.399,45.448h9.449l-0.6,9.449h-35.249l0.6-9.449h10.2l-38.999-43.349l-3.9,43.349h12
		l-0.9,9.449h-33.449L475.289,596.103z"/>
	<path d="M587.818,537.604h-12l0.9-9.449h23.549l-6.15,67.947h11.4l-0.9,9.449h-22.949L587.818,537.604z M605.217,497.556
		c0,4.65-3.899,8.55-8.549,8.55c-4.65,0-8.551-3.899-8.551-8.55c0-4.649,3.9-8.549,8.551-8.549
		C601.317,489.007,605.217,492.906,605.217,497.556z"/>
	<path d="M617.563,528.155h23.549c-2.101,12.149-2.851,21.299-5.7,37.798l0.301,0.15c5.249-20.1,19.648-39.448,34.498-39.448
		c10.05,0,14.85,6.149,14.85,19.648c0,12.45-3,32.399-5.1,49.799h11.399l-0.9,9.449h-23.099c3-24.749,6.3-47.398,6.3-57.147
		c0-8.399-1.95-10.649-6.601-10.649c-16.799,0-29.248,37.198-31.048,48.598l-3.15,19.199h-11.399
		c3.15-24.149,5.25-46.798,7.199-67.947h-11.999L617.563,528.155z"/>
	<path d="M759.864,499.656h-13.8l0.9-9.45h25.499l-9.3,105.896h11.4l-0.9,9.449h-22.35c1.051-12.899,3.15-28.799,5.55-38.849h-0.3
		c-3.899,14.1-12.449,40.349-31.349,40.349c-15.449,0-19.649-14.85-19.649-28.049c0-20.249,7.35-35.249,13.8-41.698
		c6.45-6.45,13.499-10.649,26.099-10.649c3.6,0,10.35,0.899,12,1.5L759.864,499.656z M726.566,595.952
		c15.898,0,27.748-34.648,30.148-57.897c-3-1.2-6.3-1.95-10.8-1.95c-22.199,0-28.349,22.499-28.349,42.748
		C717.566,590.252,720.716,595.952,726.566,595.952z"/>
	<path d="M838.975,601.352c-3.75,2.25-12.449,5.7-23.398,5.7c-19.05,0-28.649-9.75-28.649-34.799c0-13.499,4.2-24.898,10.949-32.998
		c6.75-7.95,14.85-12.6,26.999-12.6c14.85,0,21.299,8.699,21.299,17.549c0,18.449-21.148,28.349-47.248,31.349
		c0,15.75,7.8,21.3,19.649,21.3c6.601,0,14.7-2.4,21.749-6.9L838.975,601.352z M822.775,536.104c-14.25,0-22.199,14.25-23.85,31.049
		c21.449-2.7,35.249-8.85,35.249-22.199C834.175,540.755,830.725,536.104,822.775,536.104z"/>
	<path d="M860.756,528.155h22.5c-0.601,6.6-1.351,18.299-3.601,33.448l0.3,0.3c4.35-21.148,11.25-35.248,27.149-35.248
		c3,0,5.55,0.3,7.35,0.75l-1.8,10.949c-1.5-0.3-3.3-0.6-5.1-0.6c-15.15,0-24.899,17.099-30.449,67.797h-11.399
		c3.149-23.399,4.5-47.098,6.149-67.947h-11.999L860.756,528.155z"/>
	<path d="M938.756,589.952c4.649,0,8.549,3.9,8.549,8.55s-3.899,8.55-8.549,8.55c-4.65,0-8.551-3.9-8.551-8.55
		S934.105,589.952,938.756,589.952z M938.006,574.053c-3.15-3.3-6-8.55-6-13.049c0-7.05,3.6-11.399,9-15l17.998-12.299
		c10.051-6.9,12.6-10.8,12.6-18.899c0-7.2-4.35-15.6-19.199-15.6c-7.499,0-13.949,1.65-18.749,3.3l-0.45-10.199
		c6.6-2.25,15.6-3.3,20.25-3.3c19.499,0,30.148,11.399,30.148,25.648c0,13.05-7.8,20.85-17.1,26.699l-11.249,7.199
		c-9.6,6.15-11.25,9-11.25,12.6s2.101,6.15,4.2,8.1L938.006,574.053z"/>
</g>
</svg>
