<?xml version="1.0" encoding="utf-8"?>
<!-- Generator: Adobe Illustrator 15.1.0, SVG Export Plug-In . SVG Version: 6.00 Build 0)  -->
<!DOCTYPE svg PUBLIC "-//W3C//DTD SVG 1.1//EN" "http://www.w3.org/Graphics/SVG/1.1/DTD/svg11.dtd">
<svg version="1.1" id="vs_text" xmlns="http://www.w3.org/2000/svg" xmlns:xlink="http://www.w3.org/1999/xlink" x="0px" y="0px"
	 width="1080px" height="1080px" viewBox="0 0 1080 1080" enable-background="new 0 0 1080 1080" xml:space="preserve">
<g>
	<path d="M81.489,74.186h11l57.64,60.94v-60.94h12.98v80.081h-11l-57.641-60.94v60.94h-12.98V74.186z"/>
	<path d="M179.388,131.387V85.626h12.32v45.761c0,7.04,5.28,12.54,12.32,12.54c7.26,0,12.32-5.5,12.32-12.54V85.626h12.32v45.761
		c0,14.3-12.32,23.979-24.86,23.979C189.508,155.366,179.388,145.687,179.388,131.387z"/>
	<path d="M244.947,102.786c0-10.12,7.26-17.16,17.16-17.16h4.4v11.44h-3.52c-3.3,0-5.72,2.2-5.72,5.72v51.48h-12.32V102.786z"/>
	<path d="M312.706,74.186h8.8l31.9,31.9l32.12-31.9h8.58v80.081h-12.76v-58.96l-27.94,26.84l-27.94-26.84v58.96h-12.76V74.186z"/>
	<path d="M410.385,131.387V85.626h12.32v45.761c0,7.04,5.28,12.54,12.32,12.54c7.26,0,12.32-5.5,12.32-12.54V85.626h12.32v45.761
		c0,14.3-12.32,23.979-24.86,23.979C420.505,155.366,410.385,145.687,410.385,131.387z"/>
	<path d="M479.464,97.066h-6.16v-11.44h6.16v-23.98h12.32v23.98h6.16v11.44h-6.16v57.2h-12.32V97.066z"/>
	<path d="M512.464,147.776c0-4.18,3.41-7.59,7.59-7.59c4.181,0,7.59,3.41,7.59,7.59c0,4.181-3.41,7.59-7.59,7.59
		C515.874,155.366,512.464,151.957,512.464,147.776z"/>
</g>
<g>
	<path d="M81.488,923.099h70.4v11.439h-57.42v22.88h56.541v11.44H94.468v22.88h57.42v11.44h-70.4V923.099z"/>
	<path d="M166.187,992.398h25.301c5.06,0,9.02-3.96,9.02-9.02c0-5.061-3.96-9.021-9.02-9.021h-6.601c-11.88,0-20.02-8.14-20.02-19.8
		c0-11.221,9.02-20.021,20.02-20.021h21.34v10.78h-20.9c-5.061,0-9.021,3.96-9.021,9.02c0,5.061,3.96,9.021,9.021,9.021h6.6
		c11.88,0,20.021,7.92,20.021,19.58c0,11.22-9.021,20.24-20.021,20.24h-25.74V992.398z"/>
	<path d="M252.646,934.538h11.88l11.88,51.04l7.26-33.88l-4.18-17.16h11.22l11,51.04l11.88-51.04h11.88l-18.48,68.641h-10.56
		l-7.26-29.48l-7.479,29.48h-10.561L252.646,934.538z"/>
	<path d="M337.346,917.269c0-4.181,3.41-7.591,7.59-7.591c4.18,0,7.59,3.41,7.59,7.591c0,4.18-3.41,7.59-7.59,7.59
		C340.755,924.858,337.346,921.448,337.346,917.269z M338.556,934.538h12.32l0.11,68.641h-12.32L338.556,934.538z"/>
	<path d="M371.004,951.698c0-10.12,7.26-17.16,17.16-17.16h4.4v11.44h-3.52c-3.3,0-5.72,2.2-5.72,5.72v51.48h-12.32V951.698z"/>
	<path d="M404.883,980.299v-22.881c0-13.199,11-23.979,24.2-23.979c4.4,0,8.8,1.1,12.76,3.96v-26.62h12.32v69.521
		c0,13.2-11.44,23.979-24.64,23.979C415.223,1004.278,404.883,994.599,404.883,980.299z M441.843,980.299v-22.881
		c0-7.26-5.06-12.539-12.32-12.539c-7.04,0-12.101,5.279-12.101,12.539l-0.22,22.881c0,7.04,5.28,12.54,12.32,12.54
		C436.783,992.839,441.843,987.339,441.843,980.299z"/>
	<path d="M504.321,1003.619h11.66c0,7.479,5.28,12.76,12.76,12.76s12.32-5.721,12.32-13.2v-3.96c-2.42,3.08-7.92,5.06-13.64,5.06
		c-13.641,0-23.54-9.68-23.54-23.979v-22.881c0-13.199,11.439-23.979,24.64-23.979c14.301,0,24.641,9.68,24.641,23.979v45.761
		c0,14.3-11.44,23.98-24.42,23.98C514.001,1027.159,504.321,1018.139,504.321,1003.619z M540.842,980.299v-22.881
		c0-7.26-5.06-12.539-12.32-12.539c-7.04,0-12.32,5.279-12.32,12.539v22.881c0,7.04,5.28,12.54,12.32,12.54
		C535.782,992.839,540.842,987.339,540.842,980.299z"/>
	<path d="M568.561,980.299v-45.761h12.32v45.761c0,7.04,5.28,12.54,12.32,12.54c7.26,0,12.32-5.5,12.32-12.54v-45.761h12.319v45.761
		c0,14.3-12.319,23.979-24.86,23.979C578.681,1004.278,568.561,994.599,568.561,980.299z"/>
	<path d="M637.64,945.979h-6.159v-11.44h6.159v-23.979h12.32v23.979h6.16v11.44h-6.16v57.2h-12.32V945.979z"/>
	<path d="M670.64,996.688c0-4.18,3.41-7.59,7.59-7.59c4.181,0,7.591,3.41,7.591,7.59c0,4.181-3.41,7.59-7.591,7.59
		C674.05,1004.278,670.64,1000.869,670.64,996.688z"/>
</g>
</svg>
