<?xml version="1.0" encoding="utf-8"?>
<!-- Generator: Adobe Illustrator 15.1.0, SVG Export Plug-In . SVG Version: 6.00 Build 0)  -->
<!DOCTYPE svg PUBLIC "-//W3C//DTD SVG 1.1//EN" "http://www.w3.org/Graphics/SVG/1.1/DTD/svg11.dtd">
<svg version="1.1" id="vs_text" xmlns="http://www.w3.org/2000/svg" xmlns:xlink="http://www.w3.org/1999/xlink" x="0px" y="0px"
	 width="1080px" height="1080px" viewBox="0 0 1080 1080" enable-background="new 0 0 1080 1080" xml:space="preserve">
<g enable-background="new    ">
	<path fill="#FFFFFF" d="M105.72,441.121l26.84-66.44l26.84,66.44l21.78-62.15h10.01l-31.79,87.23l-26.84-66.771l-26.84,66.771
		l-31.79-87.23h10.01L105.72,441.121z"/>
	<path fill="#FFFFFF" d="M196.25,437.931c0.11,9.57,6.93,17.271,16.94,17.271c7.48,0,12.32-4.51,15.73-10.67l7.48,4.29
		c-4.95,9.24-13.31,14.52-23.87,14.52c-15.4,0-25.3-11.77-25.3-26.62c0-15.29,8.91-27.939,25.08-27.939
		c16.61,0,25.41,13.75,24.53,29.149H196.25z M227.6,430.451c-1.21-7.48-7.48-13.53-15.18-13.53c-7.59,0-14.63,6.05-15.73,13.53
		H227.6z"/>
	<path fill="#FFFFFF" d="M259.72,416.48h0.22c3.63-4.949,8.36-7.699,14.74-7.699c14.3,0,17.6,10.34,17.6,22.439v30.69h-8.8v-29.15
		c0-8.359-0.66-15.84-10.89-15.84c-12.1,0-12.87,11.22-12.87,20.46v24.53h-8.8v-51.7h8.8V416.48z"/>
	<path fill="#FFFFFF" d="M319.779,416.48h0.22c3.63-4.949,8.36-7.699,14.74-7.699c14.3,0,17.6,10.34,17.6,22.439v30.69h-8.8v-29.15
		c0-8.359-0.66-15.84-10.89-15.84c-12.1,0-12.87,11.22-12.87,20.46v24.53h-8.8v-51.7h8.8V416.48z"/>
	<path fill="#FFFFFF" d="M445.29,454.761h-0.22c-4.29,5.61-10.78,8.58-17.82,8.58c-15.18,0-24.75-12.87-24.75-27.17
		c0-14.74,9.35-27.39,24.86-27.39c6.93,0,13.53,3.3,17.71,8.8h0.22V371.16h8.8v90.751h-8.8V454.761z M411.519,435.511
		c0,10.12,5.94,19.69,16.94,19.69c11.33,0,17.271-9.13,17.271-19.58c0-10.34-6.49-18.7-17.38-18.7
		C418.119,416.921,411.519,425.831,411.519,435.511z"/>
	<path fill="#FFFFFF" d="M484.669,390.741c0,3.52-2.86,6.27-6.27,6.27s-6.27-2.75-6.27-6.27c0-3.41,2.86-6.271,6.27-6.271
		S484.669,387.331,484.669,390.741z M482.799,461.911h-8.8v-51.7h8.8V461.911z"/>
	<path fill="#FFFFFF" d="M511.508,415.821h0.22c3.08-4.07,5.72-7.04,11.44-7.04c2.97,0,5.39,0.989,7.92,2.42l-4.18,8.029
		c-1.76-1.21-2.97-2.31-5.28-2.31c-9.68,0-10.12,12.43-10.12,19.14v25.851h-8.8v-51.7h8.8V415.821z"/>
</g>
<g enable-background="new    ">
	<path fill="#FFFFFF" d="M119.25,586.761h-0.22c-4.29,5.61-10.78,8.58-17.82,8.58c-15.18,0-24.75-12.87-24.75-27.17
		c0-14.74,9.35-27.39,24.86-27.39c6.93,0,13.53,3.3,17.71,8.8h0.22V503.16h8.8v90.751h-8.8V586.761z M85.48,567.511
		c0,10.12,5.94,19.69,16.94,19.69c11.33,0,17.271-9.13,17.271-19.58c0-10.34-6.49-18.7-17.38-18.7
		C92.08,548.921,85.48,557.831,85.48,567.511z"/>
	<path fill="#FFFFFF" d="M193.5,593.911h-8.8v-7.15h-0.22c-4.51,5.721-10.56,8.58-17.82,8.58c-15.18,0-24.75-12.87-24.75-27.17
		c0-14.74,9.35-27.39,24.86-27.39c7.04,0,13.42,3.3,17.71,8.8h0.22v-7.37h8.8V593.911z M150.93,567.511
		c0,10.12,5.94,19.69,16.94,19.69c11.33,0,17.27-9.13,17.27-19.58c0-10.34-6.49-18.7-17.38-18.7
		C157.53,548.921,150.93,557.831,150.93,567.511z"/>
	<path fill="#FFFFFF" d="M232.659,554.201c-1.21-2.75-3.85-5.28-7.04-5.28c-3.08,0-6.38,2.42-6.38,5.72
		c0,4.73,5.94,6.49,11.99,9.021c6.05,2.53,11.99,6.16,11.99,14.85c0,9.79-7.92,16.83-17.49,16.83c-8.69,0-15.51-4.949-18.26-13.09
		l7.81-3.3c2.2,4.84,4.73,8.25,10.56,8.25c4.73,0,8.36-3.19,8.36-7.92c0-11.55-23.32-7.59-23.32-23.87c0-8.69,7.04-14.63,15.4-14.63
		c5.94,0,11.44,4.18,13.75,9.569L232.659,554.201z"/>
	<path fill="#FFFFFF" d="M302.728,585.331h22.88v8.58h-32.12v-82.94h9.24V585.331z"/>
	<path fill="#FFFFFF" d="M341.118,569.931c0.11,9.57,6.93,17.271,16.94,17.271c7.48,0,12.32-4.51,15.73-10.67l7.48,4.29
		c-4.95,9.24-13.31,14.52-23.87,14.52c-15.4,0-25.3-11.77-25.3-26.62c0-15.29,8.91-27.939,25.08-27.939
		c16.61,0,25.41,13.75,24.53,29.149H341.118z M372.468,562.451c-1.21-7.48-7.48-13.53-15.18-13.53c-7.59,0-14.63,6.05-15.73,13.53
		H372.468z"/>
	<path fill="#FFFFFF" d="M395.347,503.16h8.8v46.421h0.22c4.18-5.5,10.67-8.8,17.71-8.8c15.4,0,24.86,12.649,24.86,27.279
		c0,14.41-9.57,27.28-24.75,27.28c-7.15,0-13.64-2.97-17.82-8.58h-0.22v7.15h-8.8V503.16z M403.708,567.511
		c0,10.12,5.94,19.69,16.94,19.69c11.33,0,17.27-9.13,17.27-19.58c0-10.34-6.49-18.7-17.38-18.7
		C410.308,548.921,403.708,557.831,403.708,567.511z"/>
	<path fill="#FFFFFF" d="M465.637,569.931c0.11,9.57,6.93,17.271,16.94,17.271c7.48,0,12.32-4.51,15.73-10.67l7.48,4.29
		c-4.95,9.24-13.31,14.52-23.87,14.52c-15.4,0-25.3-11.77-25.3-26.62c0-15.29,8.91-27.939,25.08-27.939
		c16.61,0,25.41,13.75,24.53,29.149H465.637z M496.987,562.451c-1.21-7.48-7.48-13.53-15.18-13.53c-7.59,0-14.63,6.05-15.73,13.53
		H496.987z"/>
	<path fill="#FFFFFF" d="M529.106,548.48h0.22c3.63-4.949,8.36-7.699,14.74-7.699c14.301,0,17.6,10.34,17.6,22.439v30.69h-8.799
		v-29.15c0-8.359-0.66-15.84-10.891-15.84c-12.1,0-12.87,11.22-12.87,20.46v24.53h-8.8v-51.7h8.8V548.48z"/>
</g>
<g enable-background="new    ">
	<path fill="#FFFFFF" d="M85.26,701.931c0.11,9.57,6.93,17.271,16.94,17.271c7.48,0,12.32-4.51,15.73-10.67l7.48,4.29
		c-4.95,9.24-13.31,14.52-23.87,14.52c-15.4,0-25.3-11.77-25.3-26.62c0-15.29,8.91-27.939,25.08-27.939
		c16.61,0,25.41,13.75,24.53,29.149H85.26z M116.61,694.451c-1.21-7.48-7.48-13.53-15.18-13.53c-7.59,0-14.63,6.05-15.73,13.53
		H116.61z"/>
	<path fill="#FFFFFF" d="M152.25,654.741c0,3.52-2.86,6.27-6.27,6.27s-6.27-2.75-6.27-6.27c0-3.41,2.86-6.271,6.27-6.271
		S152.25,651.331,152.25,654.741z M150.38,725.911h-8.8v-51.7h8.8V725.911z"/>
	<path fill="#FFFFFF" d="M179.529,680.48h0.22c3.63-4.949,8.36-7.699,14.74-7.699c14.3,0,17.6,10.34,17.6,22.439v30.69h-8.8v-29.15
		c0-8.359-0.66-15.84-10.89-15.84c-12.1,0-12.87,11.22-12.87,20.46v24.53h-8.8v-51.7h8.8V680.48z"/>
	<path fill="#FFFFFF" d="M235.189,701.931c0.11,9.57,6.93,17.271,16.94,17.271c7.48,0,12.32-4.51,15.73-10.67l7.48,4.29
		c-4.95,9.24-13.31,14.52-23.87,14.52c-15.4,0-25.3-11.77-25.3-26.62c0-15.29,8.91-27.939,25.08-27.939
		c16.61,0,25.41,13.75,24.53,29.149H235.189z M266.539,694.451c-1.21-7.48-7.48-13.53-15.18-13.53c-7.59,0-14.63,6.05-15.73,13.53
		H266.539z"/>
</g>
<g enable-background="new    ">
	<path fill="#FFFFFF" d="M378.188,720.961v4.95h-58.411l50.601-77.99h-45.76v-4.95h55l-50.6,77.99H378.188z"/>
	<path fill="#FFFFFF" d="M401.287,658.15c0,2.53-1.98,4.511-4.51,4.511c-2.53,0-4.51-1.98-4.51-4.511c0-2.42,1.98-4.51,4.51-4.51
		C399.307,653.641,401.287,655.73,401.287,658.15z M399.197,725.911h-4.95v-50.82h4.95V725.911z"/>
	<path fill="#FFFFFF" d="M426.587,725.911h-4.95v-46.2h-5.61v-4.62h5.61v-18.15h4.95v18.15h8.91v4.62h-8.91V725.911z"/>
	<path fill="#FFFFFF" d="M451.997,681.69h0.22c1.98-4.619,5.61-7.699,11-7.699c1.98,0,3.63,0.439,5.39,1.21l-2.64,4.399
		c-1.21-0.66-2.2-0.989-3.52-0.989c-11.11,0-10.45,13.859-10.45,21.34v25.96h-4.95v-50.82h4.95V681.69z"/>
	<path fill="#FFFFFF" d="M528.777,700.501c0,15.07-11.77,26.51-26.73,26.51c-14.63,0-26.4-11.989-26.4-26.399
		c0-14.631,11.66-26.62,26.4-26.62C517.007,673.991,528.777,685.431,528.777,700.501z M480.597,700.611
		c0,11.55,9.13,21.78,21.12,21.78c12.43,0,22.11-9.461,22.11-21.78c0-12.54-9.57-22-22.11-22
		C489.617,678.611,480.597,688.841,480.597,700.611z"/>
	<path fill="#FFFFFF" d="M548.686,683.011h0.221c2.97-5.61,8.471-9.02,15.07-9.02c13.09,0,16.72,8.14,16.72,21.229v30.69h-4.95
		v-30.69c0-9.13-1.1-16.609-12.21-16.609c-12.76,0-14.851,11.88-14.851,22.22v25.08h-4.949v-50.82h4.949V683.011z"/>
	<path fill="#FFFFFF" d="M600.605,700.941c-0.33,12.87,8.58,21.45,20.35,21.45c7.92,0,14.301-4.73,17.931-11.551l4.18,2.42
		c-4.62,8.801-12.76,13.75-22.771,13.75c-15.07,0-24.64-12.21-24.64-26.62c0-14.189,9.79-26.399,24.64-26.399
		c15.4,0,24.531,12.319,24.42,26.95H600.605z M639.766,696.321c-1.21-9.351-8.91-17.71-19.36-17.71c-10.34,0-18.92,8.14-19.8,17.71
		H639.766z"/>
</g>
<g enable-background="new    ">
	<path fill="#FFFFFF" d="M744.375,723.381c0,8.25,0,15.4-5.279,22.221c-4.84,6.16-12.32,9.13-20.021,9.13
		c-14.41,0-25.08-9.13-25.41-23.761h8.8c0.11,9.57,7.04,15.62,16.5,15.62c13.641,0,16.61-10.01,16.61-21.67v-6.16h-0.22
		c-4.18,5.391-11,8.58-17.93,8.58c-15.07,0-24.641-12.649-24.641-27.06c0-14.521,9.68-27.5,24.971-27.5
		c7.149,0,13.42,3.189,17.6,8.8h0.22v-7.37h8.8V723.381z M701.805,699.511c0,10.12,5.94,19.69,16.94,19.69
		c11.33,0,17.271-9.13,17.271-19.58c0-10.34-6.49-18.7-17.381-18.7C708.405,680.921,701.805,689.831,701.805,699.511z"/>
	<path fill="#FFFFFF" d="M775.834,654.741c0,3.52-2.86,6.27-6.271,6.27s-6.271-2.75-6.271-6.27c0-3.41,2.86-6.271,6.271-6.271
		S775.834,651.331,775.834,654.741z M773.963,725.911h-8.799v-51.7h8.799V725.911z"/>
	<path fill="#FFFFFF" d="M793.873,635.16h8.8v46.421h0.22c4.18-5.5,10.67-8.8,17.711-8.8c15.399,0,24.859,12.649,24.859,27.279
		c0,14.41-9.57,27.28-24.75,27.28c-7.15,0-13.641-2.97-17.82-8.58h-0.22v7.15h-8.8V635.16z M802.232,699.511
		c0,10.12,5.94,19.69,16.94,19.69c11.33,0,17.271-9.13,17.271-19.58c0-10.34-6.49-18.7-17.381-18.7
		C808.832,680.921,802.232,689.831,802.232,699.511z"/>
	<path fill="#FFFFFF" d="M869.002,725.911h-8.799v-43.561h-5.391v-8.14h5.391v-18.59h8.799v18.59h9.24v8.14h-9.24V725.911z"/>
	<path fill="#FFFFFF" d="M904.531,716.671l-12.43,28.16l-5.94-2.42l10.229-28.6L904.531,716.671z"/>
</g>
<g enable-background="new    ">
	<path fill="#FFFFFF" d="M90.43,857.911h-8.8v-43.561h-4.84v-8.14h4.84v-20.57c0-4.29,0-9.68,2.31-13.42
		c2.86-4.62,8.03-6.49,13.31-6.49c2.09,0,4.18,0.44,6.27,1.101v8.909c-1.98-0.659-3.74-1.21-5.94-1.21
		c-7.15,0-7.15,5.061-7.15,14.19v17.49h13.09v8.14H90.43V857.911z"/>
	<path fill="#FFFFFF" d="M121.339,811.821h0.22c3.08-4.07,5.72-7.04,11.44-7.04c2.97,0,5.39,0.989,7.92,2.42l-4.18,8.029
		c-1.76-1.21-2.97-2.31-5.28-2.31c-9.68,0-10.12,12.43-10.12,19.14v25.851h-8.8v-51.7h8.8V811.821z"/>
	<path fill="#FFFFFF" d="M198.998,857.911h-8.8v-7.15h-0.22c-4.51,5.721-10.56,8.58-17.82,8.58c-15.18,0-24.75-12.87-24.75-27.17
		c0-14.74,9.35-27.39,24.86-27.39c7.04,0,13.42,3.3,17.71,8.8h0.22v-7.37h8.8V857.911z M156.428,831.511
		c0,10.12,5.94,19.69,16.94,19.69c11.33,0,17.27-9.13,17.27-19.58c0-10.34-6.49-18.7-17.38-18.7
		C163.028,812.921,156.428,821.831,156.428,831.511z"/>
	<path fill="#FFFFFF" d="M263.897,855.381c0,8.25,0,15.4-5.28,22.221c-4.84,6.16-12.32,9.13-20.02,9.13
		c-14.41,0-25.08-9.13-25.41-23.761h8.8c0.11,9.57,7.04,15.62,16.5,15.62c13.64,0,16.61-10.01,16.61-21.67v-6.16h-0.22
		c-4.18,5.391-11,8.58-17.93,8.58c-15.07,0-24.64-12.649-24.64-27.06c0-14.521,9.68-27.5,24.97-27.5c7.15,0,13.42,3.189,17.6,8.8
		h0.22v-7.37h8.8V855.381z M221.327,831.511c0,10.12,5.94,19.69,16.94,19.69c11.33,0,17.27-9.13,17.27-19.58
		c0-10.34-6.49-18.7-17.38-18.7C227.927,812.921,221.327,821.831,221.327,831.511z"/>
	<path fill="#FFFFFF" d="M327.696,812.48h0.22c3.63-4.949,8.36-7.699,14.74-7.699c14.3,0,17.6,10.34,17.6,22.439v30.69h-8.8v-29.15
		c0-8.359-0.66-15.84-10.89-15.84c-12.1,0-12.87,11.22-12.87,20.46v24.53h-8.8v-51.7h8.8V812.48z"/>
	<path fill="#FFFFFF" d="M426.146,857.911h-8.8v-7.15h-0.22c-4.51,5.721-10.56,8.58-17.82,8.58c-15.18,0-24.75-12.87-24.75-27.17
		c0-14.74,9.35-27.39,24.86-27.39c7.04,0,13.42,3.3,17.71,8.8h0.22v-7.37h8.8V857.911z M383.576,831.511
		c0,10.12,5.94,19.69,16.94,19.69c11.33,0,17.271-9.13,17.271-19.58c0-10.34-6.49-18.7-17.38-18.7
		C390.176,812.921,383.576,821.831,383.576,831.511z"/>
	<path fill="#FFFFFF" d="M482.795,821.611h-0.22c-4.07-5.171-9.13-8.69-16.06-8.69c-10.67,0-18.26,8.8-18.26,19.14
		c0,10.23,7.04,19.141,17.82,19.141c7.37,0,12.54-3.3,16.83-8.91h0.22v11.771c-5.06,3.409-10.23,5.279-16.39,5.279
		c-15.62,0-27.5-11.66-27.5-27.28c0-15.399,12.43-27.279,27.61-27.279c5.61,0,11.33,1.869,15.95,5.17V821.611z"/>
	<path fill="#FFFFFF" d="M507.545,767.16v45.101l0.22,0.22c3.63-4.949,8.36-7.699,14.74-7.699c14.3,0,17.6,10.34,17.6,22.439v30.69
		h-8.8v-29.15c0-8.359-0.66-15.84-10.89-15.84c-12.1,0-12.87,11.22-12.87,20.46v24.53h-8.8V767.16H507.545z"/>
</g>
<g enable-background="new    ">
	<path fill="#FFFFFF" d="M117.49,925.23c-3.08-4.18-7.04-6.819-12.43-6.819c-5.17,0-10.12,3.96-10.12,9.35
		c0,13.97,32.89,8.14,32.89,35.971c0,16.609-10.34,28.38-27.28,28.38c-11.44,0-19.8-6.601-25.521-16.17l10.45-10.23
		c2.2,6.38,8.03,12.101,14.96,12.101c6.6,0,10.67-5.61,10.67-11.99c0-8.58-7.92-11-14.41-13.53c-10.67-4.4-18.48-9.79-18.48-22.66
		c0-13.75,10.23-24.86,24.2-24.86c7.37,0,17.601,3.63,22.66,9.24L117.49,925.23z"/>
	<path fill="#FFFFFF" d="M188.879,989.911h-15.18v-4.95h-0.22c-3.3,4.29-9.02,6.71-14.63,6.71c-15.84,0-24.86-14.41-24.86-29.04
		c0-14.3,9.13-28.49,24.64-28.49c5.61,0,11.33,2.42,15.07,6.82V935.9h15.18V989.911z M175.239,962.851
		c0-7.26-4.95-15.069-12.87-15.069s-12.76,7.81-12.76,15.069c0,7.261,4.84,15.181,12.76,15.181S175.239,970.111,175.239,962.851z"/>
	<path fill="#FFFFFF" d="M217.367,989.911h-15.4v-93.28h15.4V989.911z"/>
	<path fill="#FFFFFF" d="M275.887,976.931v12.98h-51.26l27.61-41.03h-23.32V935.9h48.73l-27.39,41.03H275.887z"/>
</g>
<g enable-background="new    ">
	<path fill="#FFFFFF" d="M332.865,967.031c0,8.689,0.99,16.17,11.66,16.17s11.66-7.48,11.66-16.17v-28.82h8.8v29.811
		c0,13.75-5.17,23.319-20.46,23.319s-20.46-9.569-20.46-23.319v-29.811h8.8V967.031z"/>
	<path fill="#FFFFFF" d="M391.824,944.48h0.22c3.63-4.949,8.36-7.699,14.74-7.699c14.3,0,17.6,10.34,17.6,22.439v30.69h-8.8v-29.15
		c0-8.359-0.66-15.84-10.89-15.84c-12.1,0-12.87,11.22-12.87,20.46v24.53h-8.8v-51.7h8.8V944.48z"/>
	<path fill="#FFFFFF" d="M481.475,982.761h-0.22c-4.29,5.61-10.78,8.58-17.82,8.58c-15.18,0-24.75-12.87-24.75-27.17
		c0-14.74,9.35-27.39,24.86-27.39c6.93,0,13.53,3.3,17.71,8.8h0.22V899.16h8.8v90.751h-8.8V982.761z M447.704,963.511
		c0,10.12,5.94,19.69,16.94,19.69c11.33,0,17.27-9.13,17.27-19.58c0-10.34-6.49-18.7-17.38-18.7
		C454.304,944.921,447.704,953.831,447.704,963.511z"/>
</g>
<g enable-background="new    ">
	<path fill="#FFFFFF" d="M570.023,989.911h-16.17v-68.86h-16.72v-14.08h49.61v14.08h-16.721V989.911z"/>
	<path fill="#FFFFFF" d="M595.654,965.381c0,6.82,2.64,14.521,10.67,14.521c5.06,0,8.25-3.08,10.34-7.37l14.189,2.31
		c-3.74,10.78-13.199,16.83-24.529,16.83c-16.721,0-26.951-11.88-26.951-28.27c0-16.391,8.69-29.261,26.181-29.261
		c17.71,0,25.63,13.09,25.63,29.37v1.87H595.654z M616.664,955.811c-0.77-5.5-4.29-10.89-10.23-10.89c-6.16,0-9.57,5.28-10.34,10.89
		H616.664z"/>
	<path fill="#FFFFFF" d="M691.463,1018.731h-15.4v-33.88h-0.22c-3.19,4.399-8.91,6.819-14.521,6.819
		c-15.84,0-24.859-14.41-24.859-29.04c0-14.3,9.13-28.49,24.64-28.49c5.61,0,11.33,2.42,14.74,6.71h0.22v-4.95h15.4V1018.731z
		 M677.603,962.851c0-7.26-4.84-15.069-12.76-15.069s-12.761,7.81-12.761,15.069c0,7.261,4.841,15.181,12.761,15.181
		S677.603,970.111,677.603,962.851z"/>
	<path fill="#FFFFFF" d="M719.512,935.9v29.261c0,6.16,0.99,13.53,8.8,13.53s8.8-7.37,8.8-13.53V935.9h15.4v31.791
		c0,15.729-8.141,23.979-24.2,23.979s-24.2-8.25-24.2-23.979V935.9H719.512z"/>
	<path fill="#FFFFFF" d="M782.87,913.24c0,5.061-4.069,9.131-9.13,9.131s-9.131-4.07-9.131-9.131c0-4.949,4.07-9.13,9.131-9.13
		S782.87,908.291,782.87,913.24z M781.439,989.911H766.04V935.9h15.399V989.911z"/>
	<path fill="#FFFFFF" d="M810.479,989.911h-15.399v-93.28h15.399V989.911z"/>
	<path fill="#FFFFFF" d="M838.748,989.911h-15.399v-93.28h15.399V989.911z"/>
	<path fill="#FFFFFF" d="M902.659,989.911h-15.181v-4.95h-0.22c-3.3,4.29-9.021,6.71-14.63,6.71c-15.84,0-24.86-14.41-24.86-29.04
		c0-14.3,9.13-28.49,24.64-28.49c5.611,0,11.33,2.42,15.07,6.82V935.9h15.181V989.911z M889.02,962.851
		c0-7.26-4.951-15.069-12.871-15.069s-12.76,7.81-12.76,15.069c0,7.261,4.84,15.181,12.76,15.181S889.02,970.111,889.02,962.851z"/>
</g>
</svg>
