<?xml version="1.0" encoding="utf-8"?>
<!-- Generator: Adobe Illustrator 15.1.0, SVG Export Plug-In . SVG Version: 6.00 Build 0)  -->
<!DOCTYPE svg PUBLIC "-//W3C//DTD SVG 1.1//EN" "http://www.w3.org/Graphics/SVG/1.1/DTD/svg11.dtd">
<svg version="1.1" id="vs_text" xmlns="http://www.w3.org/2000/svg" xmlns:xlink="http://www.w3.org/1999/xlink" x="0px" y="0px"
	 width="1080px" height="1080px" viewBox="0 0 1080 1080" enable-background="new 0 0 1080 1080" xml:space="preserve">
<g>
	<path d="M99.93,175.782c0,3.4-2.89,5.95-6.29,5.95H67.46c-7.31,0-10.37-3.06-10.37-10.2V72.933c0-7.14,3.06-10.2,10.37-10.2h26.18
		c3.4,0,6.29,2.55,6.29,5.95c0,3.4-2.89,5.95-6.29,5.95H70.01v35.7h21.08c3.4,0,6.29,2.55,6.29,5.95s-2.89,5.95-6.29,5.95H70.01
		v47.599h23.63C97.04,169.832,99.93,172.382,99.93,175.782z"/>
	<path d="M113.886,154.192c0-7.48,1.7-13.26,2.89-15.98c1.7-3.91,5.27-5.44,9.01-4.25c3.4,1.02,4.42,5.1,3.06,8.67
		c-1.36,3.91-2.04,6.97-2.04,10.88c0,10.37,5.1,17.34,13.77,17.34c8.33,0,13.77-5.95,13.77-23.12c0-13.6-3.57-20.74-14.79-28.05
		l-6.46-4.25c-11.05-7.14-16.32-14.79-16.32-28.39c0-15.64,10.03-25.669,24.48-25.669c15.13,0,23.97,8.5,23.97,25.669v1.36
		c0,3.91-2.72,6.29-6.29,6.29c-3.4,0-6.29-2.38-6.29-6.63v-1.02c0-10.54-4.59-13.77-11.05-13.77c-7.14,0-11.9,5.61-11.9,13.77
		c0,7.99,2.89,12.41,9.52,16.66l6.46,4.25c15.98,10.2,21.76,19.379,21.76,38.929c0,26.69-11.39,36.04-27.2,36.04
		C124.596,182.922,113.886,172.212,113.886,154.192z"/>
	<path d="M263.482,138.212v37.74c0,3.57-2.89,6.46-6.46,6.46c-3.57,0-6.46-2.89-6.46-6.46v-34.169c0-9.69-5.78-17.17-14.109-17.17
		h-9.18v51.339c0,3.57-2.89,6.46-6.46,6.46s-6.46-2.89-6.46-6.46V68.513c0-3.57,2.89-6.46,6.46-6.46s6.46,2.89,6.46,6.46v43.52
		h10.03c8.16,0,12.07-4.08,12.07-12.41v-31.11c0-3.57,2.89-6.46,6.46-6.46c3.57,0,6.46,2.89,6.46,6.46v32.3
		c0,9.52-3.74,16.15-8.33,18.36C258.723,122.403,263.482,128.863,263.482,138.212z"/>
	<path d="M334.27,88.913v86.699c0,3.57-2.89,6.46-6.46,6.46c-3.57,0-6.46-2.89-6.46-6.46v-36.72h-25.16v36.72
		c0,3.57-2.89,6.46-6.46,6.46c-3.57,0-6.459-2.89-6.459-6.46V88.913c0-17.17,8.84-27.88,25.5-27.88S334.27,71.743,334.27,88.913z
		 M321.35,126.993v-35.87c0-12.75-4.42-17.85-12.58-17.85c-8.16,0-12.58,5.1-12.58,17.85v35.87H321.35z"/>
	<path d="M354.278,175.612V88.913c0-17.17,8.67-27.88,25.16-27.88c16.49,0,25.16,10.71,25.16,27.88v86.699
		c0,3.57-2.89,6.46-6.46,6.46c-3.57,0-6.46-2.89-6.46-6.46V91.123c0-12.75-4.25-17.85-12.24-17.85c-7.99,0-12.24,5.1-12.24,17.85
		v84.489c0,3.57-2.89,6.46-6.46,6.46S354.278,179.182,354.278,175.612z"/>
	<path d="M424.606,175.612V88.913c0-17.17,8.67-27.88,25.16-27.88c16.49,0,25.16,10.71,25.16,27.88v86.699
		c0,3.57-2.89,6.46-6.46,6.46c-3.57,0-6.46-2.89-6.46-6.46V91.123c0-12.75-4.25-17.85-12.24-17.85c-7.99,0-12.24,5.1-12.24,17.85
		v84.489c0,3.57-2.89,6.46-6.46,6.46S424.606,179.182,424.606,175.612z"/>
	<path d="M525.245,175.612V88.913c0-17.17,8.67-27.88,25.16-27.88c16.49,0,25.16,10.71,25.16,27.88v86.699
		c0,3.57-2.891,6.46-6.461,6.46c-3.569,0-6.459-2.89-6.459-6.46V91.123c0-12.75-4.25-17.85-12.24-17.85s-12.24,5.1-12.24,17.85
		v84.489c0,3.57-2.89,6.46-6.46,6.46S525.245,179.182,525.245,175.612z"/>
	<path d="M595.42,155.212V68.513c0-3.57,2.89-6.46,6.46-6.46c3.569,0,6.46,2.89,6.46,6.46v84.489c0,12.75,4.42,17.85,12.58,17.85
		c8.159,0,12.579-5.1,12.579-17.85V68.513c0-3.57,2.89-6.46,6.46-6.46s6.46,2.89,6.46,6.46v86.699c0,17.17-8.84,27.88-25.499,27.88
		C604.26,183.092,595.42,172.382,595.42,155.212z"/>
	<path d="M705.408,128.183c4.76,2.72,9.689,9.69,9.689,19.72v27.71c0,3.57-2.89,6.46-6.46,6.46c-3.569,0-6.46-2.89-6.46-6.46v-24.14
		c0-9.69-5.1-17.17-13.43-17.17h-9.01v41.31c0,3.57-2.891,6.46-6.46,6.46s-6.46-2.89-6.46-6.46V72.933c0-7.14,3.061-10.2,10.37-10.2
		h11.39c17,0,26.859,11.22,26.859,31.79v7.99C715.438,114.243,712.378,122.913,705.408,128.183z M702.857,99.793v-2.55
		c0-15.3-4.59-22.61-15.469-22.61h-7.65v47.77h7.65C698.268,122.403,702.857,115.093,702.857,99.793z"/>
</g>
<g>
	<path d="M338.396,582.502c0,37.888-13.056,55.808-38.912,55.808h-24.063c-14.592,0-20.992-7.937-20.992-20.224V475.751
		c0-12.288,6.4-20.224,20.992-20.224h22.271c25.6,0,37.12,18.688,37.12,44.799c0,20.224-5.12,30.464-11.52,37.632
		C331.74,544.615,338.396,558.183,338.396,582.502z M284.125,523.367h9.216c7.68,0,11.775-5.376,11.775-21.504
		s-4.096-19.712-11.775-19.712h-9.216V523.367z M307.165,581.223c0-22.271-4.608-28.928-11.52-28.928h-11.52v57.855h11.52
		C302.557,610.15,307.165,603.238,307.165,581.223z"/>
	<path d="M357.725,618.086V475.751c0-13.312,7.424-20.224,20.992-20.224h36.096c8.448,0,15.104,6.656,15.104,15.104
		c0,8.448-6.656,15.104-15.104,15.104h-26.368v36.864h22.528c8.448,0,15.104,6.656,15.104,15.104s-6.656,15.104-15.104,15.104
		h-22.528v55.295h26.368c8.448,0,15.104,6.656,15.104,15.104c0,8.448-6.656,15.104-15.104,15.104h-36.096
		C365.148,638.31,357.725,631.397,357.725,618.086z"/>
	<path d="M444.072,595.814c0-9.984,1.28-18.688,3.84-25.088c4.096-9.984,11.776-14.08,19.968-12.544
		c8.448,1.536,13.567,8.448,10.752,17.919c-1.792,6.145-3.84,10.496-3.84,20.225c0,11.52,5.376,16.127,12.032,16.127
		c4.352,0,7.936-1.791,10.24-7.167c1.792-4.608,2.816-12.032,2.816-19.456c0-6.912-1.024-14.08-2.56-18.432
		c-2.816-7.68-7.936-13.824-17.152-20.736L473,541.287c-15.872-12.032-24.832-26.112-24.832-46.08
		c0-26.624,15.872-41.728,40.704-41.728c22.528,0,38.399,11.008,38.399,38.912v3.072c0,8.96-5.888,15.104-14.08,15.104
		c-8.704,0-14.592-5.632-14.592-15.104v-1.792c0-8.96-3.328-12.8-9.216-12.8c-6.144,0-9.984,4.864-9.984,13.056
		c0,9.472,3.328,14.336,12.544,21.248l11.008,8.448c17.152,13.056,28.16,30.976,28.16,57.855c0,39.936-15.36,58.879-44.288,58.879
		C459.176,640.357,444.072,622.438,444.072,595.814z"/>
	<path d="M546.623,595.814c0-9.984,1.279-18.688,3.84-25.088c4.096-9.984,11.775-14.08,19.967-12.544
		c8.448,1.536,13.568,8.448,10.752,17.919c-1.791,6.145-3.84,10.496-3.84,20.225c0,11.52,5.376,16.127,12.032,16.127
		c4.352,0,7.936-1.791,10.239-7.167c1.793-4.608,2.816-12.032,2.816-19.456c0-6.912-1.023-14.08-2.561-18.432
		c-2.815-7.68-7.936-13.824-17.151-20.736l-7.168-5.375c-15.872-12.032-24.831-26.112-24.831-46.08
		c0-26.624,15.871-41.728,40.703-41.728c22.527,0,38.399,11.008,38.399,38.912v3.072c0,8.96-5.888,15.104-14.079,15.104
		c-8.705,0-14.593-5.632-14.593-15.104v-1.792c0-8.96-3.327-12.8-9.216-12.8c-6.144,0-9.983,4.864-9.983,13.056
		c0,9.472,3.327,14.336,12.544,21.248l11.008,8.448c17.151,13.056,28.159,30.976,28.159,57.855c0,39.936-15.36,58.879-44.287,58.879
		C561.727,640.357,546.623,622.438,546.623,595.814z"/>
	<path d="M652.526,618.086V475.751c0-13.312,7.424-20.224,20.991-20.224h36.096c8.448,0,15.104,6.656,15.104,15.104
		c0,8.448-6.655,15.104-15.104,15.104h-26.367v36.864h22.527c8.448,0,15.104,6.656,15.104,15.104s-6.655,15.104-15.104,15.104
		h-22.527v55.295h26.367c8.448,0,15.104,6.656,15.104,15.104c0,8.448-6.655,15.104-15.104,15.104h-36.096
		C659.95,638.31,652.526,631.397,652.526,618.086z"/>
	<path d="M824.172,586.598v36.096c0,8.704-6.656,15.616-15.359,15.616c-8.705,0-15.36-6.912-15.36-15.616v-29.695
		c0-16.896-5.12-23.808-15.104-23.808h-4.096v53.503c0,8.704-6.399,15.616-15.104,15.616s-15.104-6.912-15.104-15.616V475.751
		c0-12.288,6.399-20.224,20.991-20.224h18.176c29.44,0,40.448,18.944,40.448,45.055v20.48c0,13.312-3.328,25.599-13.568,33.792
		C821.1,560.998,824.172,572.519,824.172,586.598z M793.964,502.119c0-14.08-4.864-19.711-13.312-19.711h-6.4v59.903h5.376
		c9.728,0,14.336-7.424,14.336-24.576V502.119z"/>
</g>
<g>
	<path d="M480.42,995.999V909.3c0-3.569,2.89-6.46,6.459-6.46c3.57,0,6.46,2.891,6.46,6.46v84.829c0,12.24,4.08,17.85,11.9,17.85
		c7.82,0,11.899-5.609,11.899-17.85V909.3c0-3.569,2.89-6.46,6.46-6.46c3.57,0,6.46,2.891,6.46,6.46v84.829
		c0,12.24,4.08,17.85,11.899,17.85c7.82,0,11.9-5.609,11.9-17.85V909.3c0-3.569,2.891-6.46,6.46-6.46c3.57,0,6.46,2.891,6.46,6.46
		v86.699c0,17.17-8.84,27.88-24.82,27.88c-7.649,0-14.109-3.4-18.359-9.18c-4.25,5.779-10.71,9.18-18.359,9.18
		C489.26,1023.879,480.42,1013.169,480.42,995.999z"/>
	<path d="M630.204,1016.568c0,3.4-2.89,5.95-6.29,5.95h-26.18c-7.31,0-10.369-3.06-10.369-10.2V913.72c0-7.14,3.06-10.2,10.369-10.2
		h26.18c3.4,0,6.29,2.551,6.29,5.95c0,3.4-2.89,5.95-6.29,5.95h-23.629v35.699h21.079c3.4,0,6.29,2.551,6.29,5.95
		s-2.89,5.95-6.29,5.95h-21.079v47.6h23.629C627.314,1010.619,630.204,1013.169,630.204,1016.568z"/>
	<path d="M687.289,968.969c4.76,2.721,9.689,9.69,9.689,19.721v27.709c0,3.57-2.891,6.46-6.46,6.46c-3.57,0-6.46-2.89-6.46-6.46
		v-24.14c0-9.689-5.1-17.169-13.43-17.169h-9.01v41.309c0,3.57-2.891,6.46-6.46,6.46c-3.57,0-6.46-2.89-6.46-6.46V913.72
		c0-7.14,3.06-10.2,10.369-10.2h11.391c17,0,26.859,11.221,26.859,31.79v7.99C697.318,955.029,694.259,963.699,687.289,968.969z
		 M684.738,940.58v-2.551c0-15.3-4.59-22.609-15.47-22.609h-7.649v47.77h7.649C680.148,963.189,684.738,955.879,684.738,940.58z"/>
	<path d="M716.799,1012.658V913.72c0-7.14,3.06-10.2,10.369-10.2h12.07c17,0,26.859,11.221,26.859,31.79v55.76
		c0,20.569-9.859,31.789-26.859,31.789h-12.07C719.858,1022.858,716.799,1019.799,716.799,1012.658z M738.049,1010.959
		c10.879,0,15.129-7.311,15.129-22.609v-50.32c0-15.3-4.25-22.609-15.129-22.609h-8.67v95.539H738.049z"/>
	<path d="M828.929,1016.568c0,3.4-2.891,5.95-6.29,5.95h-26.18c-7.311,0-10.37-3.06-10.37-10.2V913.72c0-7.14,3.06-10.2,10.37-10.2
		h26.18c3.399,0,6.29,2.551,6.29,5.95c0,3.4-2.891,5.95-6.29,5.95h-23.63v35.699h21.079c3.4,0,6.291,2.551,6.291,5.95
		s-2.891,5.95-6.291,5.95h-21.079v47.6h23.63C826.038,1010.619,828.929,1013.169,828.929,1016.568z"/>
	<path d="M847.032,1016.398v-86.699c0-17.17,8.67-27.879,25.159-27.879c16.49,0,25.16,10.709,25.16,27.879v86.699
		c0,3.57-2.891,6.46-6.46,6.46c-3.57,0-6.46-2.89-6.46-6.46V931.91c0-12.75-4.25-17.851-12.24-17.851
		c-7.989,0-12.239,5.101-12.239,17.851v84.488c0,3.57-2.89,6.46-6.46,6.46S847.032,1019.969,847.032,1016.398z"/>
</g>
</svg>
