<?xml version="1.0" encoding="utf-8"?>
<!-- Generator: Adobe Illustrator 15.1.0, SVG Export Plug-In . SVG Version: 6.00 Build 0)  -->
<!DOCTYPE svg PUBLIC "-//W3C//DTD SVG 1.1//EN" "http://www.w3.org/Graphics/SVG/1.1/DTD/svg11.dtd">
<svg version="1.1" id="vs_text" xmlns="http://www.w3.org/2000/svg" xmlns:xlink="http://www.w3.org/1999/xlink" x="0px" y="0px"
	 width="1080px" height="1080px" viewBox="0 0 1080 1080" enable-background="new 0 0 1080 1080" xml:space="preserve">
<g>
	<path fill="#FFFFFF" d="M85.3,150.633V89.436c0-2.52,2.04-4.56,4.56-4.56c2.52,0,4.56,2.04,4.56,4.56v59.877
		c0,8.64,2.88,12.6,8.399,12.6c5.52,0,8.4-3.96,8.4-12.6V89.436c0-2.52,2.04-4.56,4.56-4.56c2.52,0,4.56,2.04,4.56,4.56v59.877
		c0,8.64,2.88,12.6,8.399,12.6c5.52,0,8.4-3.96,8.4-12.6V89.436c0-2.52,2.04-4.56,4.56-4.56c2.52,0,4.56,2.04,4.56,4.56v61.197
		c0,12.12-6.24,19.68-17.52,19.68c-5.4,0-9.959-2.4-12.959-6.48c-3,4.08-7.56,6.48-12.959,6.48
		C91.54,170.313,85.3,162.752,85.3,150.633z"/>
	<path fill="#FFFFFF" d="M169.082,144.633v5.28c0,8.28,2.64,12,8.399,12c5.52,0,7.8-3.6,7.8-8.28v-0.24c0-2.76,1.68-4.56,4.2-4.56
		c2.64,0,4.2,1.8,4.2,4.56v1.08c0,9-5.399,15.72-16.199,15.72c-11.04,0-17.279-6.84-17.279-18.839v-29.999
		c0-12,6.24-18.839,17.039-18.839c10.8,0,16.8,6.839,16.8,18.839v15.959c0,5.04-2.16,7.32-7.32,7.32H169.082z M169.082,122.794
		v13.32h16.319v-13.32c0-8.279-2.64-11.999-8.16-11.999C171.722,110.795,169.082,114.515,169.082,122.794z"/>
	<path fill="#FFFFFF" d="M206.497,164.913v-43.798c0-12,6.24-18.839,17.04-18.839c10.799,0,17.039,6.84,17.039,18.839v43.798
		c0,2.4-2.04,4.44-4.44,4.44c-2.399,0-4.439-2.04-4.439-4.44v-42.358c0-8.28-2.64-12-8.16-12c-5.52,0-8.16,3.72-8.16,12v42.358
		c0,2.4-2.04,4.44-4.44,4.44S206.497,167.313,206.497,164.913z"/>
	<path fill="#FFFFFF" d="M253.669,164.913v-43.798c0-12,6.24-18.839,17.04-18.839c10.799,0,17.039,6.84,17.039,18.839v43.798
		c0,2.4-2.04,4.44-4.44,4.44c-2.399,0-4.439-2.04-4.439-4.44v-42.358c0-8.28-2.64-12-8.16-12c-5.52,0-8.16,3.72-8.16,12v42.358
		c0,2.4-2.04,4.44-4.44,4.44S253.669,167.313,253.669,164.913z"/>
	<path fill="#FFFFFF" d="M357.467,84.996v66.478c0,12-6.24,18.839-17.279,18.839s-17.279-6.84-17.279-18.839v-30.359
		c0-12,6.24-18.839,17.279-18.839c3,0,6,0.96,8.399,2.4V84.996c0-2.4,2.04-4.44,4.44-4.44S357.467,82.596,357.467,84.996z
		 M348.587,122.554c0-7.8-3.84-12-8.399-12c-5.76,0-8.399,3.72-8.399,12v27.479c0,8.279,2.64,12,8.399,12s8.399-3.72,8.399-12
		V122.554z"/>
	<path fill="#FFFFFF" d="M370.199,89.795c0-2.88,2.28-5.16,5.16-5.16s5.16,2.28,5.16,5.16s-2.28,5.16-5.16,5.16
		S370.199,92.675,370.199,89.795z M370.919,164.913v-57.118c0-2.4,2.04-4.44,4.44-4.44s4.44,2.04,4.44,4.44v57.118
		c0,2.4-2.04,4.44-4.44,4.44S370.919,167.313,370.919,164.913z"/>
	<path fill="#FFFFFF" d="M392.997,164.913v-44.039c0-11.999,5.88-18.599,16.199-18.599c10.2,0,15.6,6.24,15.6,18.959v2.88
		c0,2.76-1.92,4.56-4.32,4.56c-2.28,0-4.32-1.8-4.32-4.56v-1.8c0-7.92-1.68-11.76-6.6-11.76c-5.04,0-7.68,3.48-7.68,11.76v42.598
		c0,2.4-2.04,4.44-4.44,4.44S392.997,167.313,392.997,164.913z"/>
	<path fill="#FFFFFF" d="M357.333,204.996v66.478c0,12-6.24,18.839-17.279,18.839s-17.279-6.84-17.279-18.839v-30.359
		c0-12,6.24-18.839,17.279-18.839c3,0,6,0.96,8.4,2.4v-19.679c0-2.4,2.04-4.44,4.439-4.44S357.333,202.596,357.333,204.996z
		 M348.453,242.554c0-7.8-3.84-12-8.4-12c-5.76,0-8.4,3.72-8.4,12v27.479c0,8.279,2.64,12,8.4,12s8.4-3.72,8.4-12V242.554z"/>
	<path fill="#FFFFFF" d="M403.1,241.354v43.558c0,2.4-2.04,4.44-4.44,4.44c-2.04,0-3.48-1.2-4.2-3c-2.4,2.64-5.04,3.96-9.6,3.96
		c-9.48,0-15.12-5.88-15.12-17.879v-10.08c0-12,5.64-17.879,15.12-17.879c4.439,0,7.08,1.2,9.359,3.72v-5.4
		c0-8.279-2.64-11.999-8.16-11.999s-7.56,3-7.56,7.68v0.12c0,2.28-1.32,4.08-4.2,4.08c-2.28,0-4.08-1.92-4.08-4.44v-1.2
		c0-8.399,5.04-14.519,15.839-14.519S403.1,229.354,403.1,241.354z M394.22,270.033v-5.28c0-7.8-3.84-12-8.399-12
		c-5.16,0-7.2,3.12-7.2,11.399v6.479c0,8.28,2.04,11.4,7.2,11.4C390.38,282.033,394.22,277.833,394.22,270.033z"/>
	<path fill="#FFFFFF" d="M414.692,274.113c0-1.92,0.12-3.84,0.84-6.24c0.84-3.24,3.24-4.439,5.88-3.84c2.52,0.6,3.36,3.12,2.64,5.64
		c-0.36,1.44-0.48,2.88-0.48,3.72c0,4.919,2.4,8.64,8.52,8.64c6.239,0,8.64-4.44,8.64-10.919c0-8.52-2.28-11.88-10.56-16.319
		l-4.2-2.28c-6.959-3.6-9.6-8.52-9.6-15.239c0-7.8,4.8-15,15.839-15c10.56,0,15.6,6.12,15.6,14.52v1.32c0,2.52-1.56,4.32-4.2,4.32
		c-2.52,0-4.08-1.8-4.08-4.08v-0.12c0-4.8-2.04-7.8-7.32-7.8c-4.919,0-6.959,2.64-6.959,6.48c0,3.6,1.44,6,5.399,8.04l5.4,2.88
		c9.72,5.16,13.56,11.16,13.68,22.319c0.12,12.959-6.6,20.039-17.879,20.039S414.692,282.993,414.692,274.113z"/>
	<path fill="#FFFFFF" d="M484.41,282.152v-72.717c0-2.52,2.04-4.56,4.56-4.56s4.56,2.04,4.56,4.56v71.277h15.839
		c2.64,0,4.56,1.8,4.56,4.319c0,2.52-1.92,4.32-4.56,4.32H491.73C486.57,289.353,484.41,287.192,484.41,282.152z"/>
	<path fill="#FFFFFF" d="M533.009,264.633v5.28c0,8.28,2.64,12,8.4,12c5.52,0,7.799-3.6,7.799-8.28v-0.24
		c0-2.76,1.681-4.56,4.2-4.56c2.64,0,4.2,1.8,4.2,4.56v1.08c0,9-5.4,15.72-16.199,15.72c-11.04,0-17.28-6.84-17.28-18.839v-29.999
		c0-12,6.24-18.839,17.04-18.839s16.799,6.839,16.799,18.839v15.959c0,5.04-2.159,7.32-7.319,7.32H533.009z M533.009,242.794v13.32
		h16.319v-13.32c0-8.279-2.64-11.999-8.159-11.999C535.649,230.795,533.009,234.515,533.009,242.794z"/>
	<path fill="#FFFFFF" d="M604.983,241.114v30.359c0,12-6.239,18.839-17.279,18.839c-11.039,0-17.279-6.84-17.279-18.839v-66.478
		c0-2.4,2.04-4.44,4.44-4.44c2.399,0,4.439,2.04,4.439,4.44v19.679c2.399-1.44,5.399-2.4,8.399-2.4
		C598.744,222.275,604.983,229.115,604.983,241.114z M596.104,242.554c0-8.28-2.64-12-8.399-12c-4.56,0-8.399,4.2-8.399,12v27.479
		c0,8.279,2.64,12,8.399,12s8.399-3.72,8.399-12V242.554z"/>
	<path fill="#FFFFFF" d="M626.318,264.633v5.28c0,8.28,2.641,12,8.4,12c5.52,0,7.799-3.6,7.799-8.28v-0.24
		c0-2.76,1.681-4.56,4.2-4.56c2.64,0,4.2,1.8,4.2,4.56v1.08c0,9-5.4,15.72-16.199,15.72c-11.04,0-17.279-6.84-17.279-18.839v-29.999
		c0-12,6.239-18.839,17.039-18.839c10.799,0,16.799,6.839,16.799,18.839v15.959c0,5.04-2.16,7.32-7.319,7.32H626.318z
		 M626.318,242.794v13.32h16.319v-13.32c0-8.279-2.64-11.999-8.159-11.999S626.318,234.515,626.318,242.794z"/>
	<path fill="#FFFFFF" d="M663.734,284.913v-43.798c0-12,6.24-18.839,17.039-18.839c10.8,0,17.04,6.84,17.04,18.839v43.798
		c0,2.4-2.04,4.44-4.44,4.44c-2.399,0-4.439-2.04-4.439-4.44v-42.358c0-8.28-2.64-12-8.16-12c-5.52,0-8.159,3.72-8.159,12v42.358
		c0,2.4-2.04,4.44-4.44,4.44C665.774,289.353,663.734,287.313,663.734,284.913z"/>
	<path fill="#FFFFFF" d="M152.378,384.633v5.28c0,8.279,2.64,11.999,8.4,11.999c5.52,0,7.8-3.6,7.8-8.279v-0.24
		c0-2.76,1.68-4.56,4.2-4.56c2.64,0,4.2,1.8,4.2,4.56v1.08c0,9-5.4,15.72-16.199,15.72c-11.04,0-17.279-6.84-17.279-18.839v-29.999
		c0-12,6.24-18.84,17.04-18.84c10.799,0,16.799,6.84,16.799,18.84v15.959c0,5.04-2.16,7.319-7.319,7.319H152.378z M152.378,362.794
		v13.319h16.319v-13.319c0-8.279-2.64-11.999-8.159-11.999C155.018,350.795,152.378,354.515,152.378,362.794z"/>
	<path fill="#FFFFFF" d="M189.35,329.795c0-2.88,2.28-5.16,5.16-5.16s5.16,2.28,5.16,5.16s-2.28,5.16-5.16,5.16
		S189.35,332.675,189.35,329.795z M190.07,404.912v-57.117c0-2.4,2.04-4.439,4.44-4.439s4.439,2.039,4.439,4.439v57.117
		c0,2.4-2.04,4.44-4.439,4.44S190.07,407.313,190.07,404.912z"/>
	<path fill="#FFFFFF" d="M212.148,404.912v-43.798c0-11.999,6.24-18.839,17.04-18.839c10.799,0,17.039,6.84,17.039,18.839v43.798
		c0,2.4-2.04,4.44-4.439,4.44c-2.4,0-4.44-2.04-4.44-4.44v-42.357c0-8.28-2.64-12-8.16-12c-5.52,0-8.16,3.72-8.16,12v42.357
		c0,2.4-2.04,4.44-4.44,4.44S212.148,407.313,212.148,404.912z"/>
	<path fill="#FFFFFF" d="M267.827,384.633v5.28c0,8.279,2.64,11.999,8.4,11.999c5.52,0,7.8-3.6,7.8-8.279v-0.24
		c0-2.76,1.68-4.56,4.2-4.56c2.64,0,4.2,1.8,4.2,4.56v1.08c0,9-5.4,15.72-16.199,15.72c-11.04,0-17.279-6.84-17.279-18.839v-29.999
		c0-12,6.24-18.84,17.04-18.84c10.799,0,16.799,6.84,16.799,18.84v15.959c0,5.04-2.16,7.319-7.319,7.319H267.827z M267.827,362.794
		v13.319h16.319v-13.319c0-8.279-2.64-11.999-8.159-11.999C270.467,350.795,267.827,354.515,267.827,362.794z"/>
	<path fill="#FFFFFF" d="M327.106,401.313l20.039-67.317h-16.679c-2.28,0-4.2-1.92-4.2-4.2s1.92-4.2,4.2-4.2h22.079
		c3.96,0,5.52,3.12,4.2,7.56l-20.159,67.798h18.12c2.28,0,4.2,1.92,4.2,4.199c0,2.28-1.92,4.2-4.2,4.2h-23.519
		C327.227,409.353,325.667,406.112,327.106,401.313z"/>
	<path fill="#FFFFFF" d="M370.81,329.795c0-2.88,2.28-5.16,5.16-5.16s5.16,2.28,5.16,5.16s-2.28,5.16-5.16,5.16
		S370.81,332.675,370.81,329.795z M371.529,404.912v-57.117c0-2.4,2.04-4.439,4.44-4.439s4.44,2.039,4.44,4.439v57.117
		c0,2.4-2.04,4.44-4.44,4.44S371.529,407.313,371.529,404.912z"/>
	<path fill="#FFFFFF" d="M430.194,393.993v1.56c0,8.399-5.52,14.52-14.159,14.52c-9.48,0-15.24-6-15.24-16.56v-41.519h-6.24
		c-2.28,0-4.2-1.92-4.2-4.199c0-2.28,1.92-4.2,4.2-4.2h6.24v-15.479c0-2.4,2.04-4.44,4.44-4.44s4.44,2.04,4.44,4.44v15.479h8.759
		c2.28,0,4.2,1.92,4.2,4.2c0,2.279-1.92,4.199-4.2,4.199h-8.759v40.079c0,6.84,2.64,9.72,6.72,9.72c3.48,0,5.52-3,5.52-7.68v-0.24
		c0-2.76,1.68-4.56,4.2-4.56C428.754,389.313,430.194,391.233,430.194,393.993z"/>
	<path fill="#FFFFFF" d="M440.382,404.912v-44.038c0-11.999,5.88-18.599,16.2-18.599c10.199,0,15.599,6.239,15.599,18.959v2.88
		c0,2.76-1.92,4.56-4.32,4.56c-2.28,0-4.32-1.8-4.32-4.56v-1.8c0-7.92-1.68-11.76-6.6-11.76c-5.04,0-7.68,3.479-7.68,11.76v42.598
		c0,2.4-2.04,4.44-4.44,4.44S440.382,407.313,440.382,404.912z"/>
	<path fill="#FFFFFF" d="M483.185,391.473v-30.238c0-12,6.24-18.84,17.039-18.84c10.8,0,17.04,6.84,17.04,18.84v30.238
		c0,12-6.24,18.84-17.04,18.84C489.424,410.313,483.185,403.473,483.185,391.473z M508.384,390.033v-27.359
		c0-8.279-2.64-11.999-8.16-11.999c-5.52,0-8.159,3.72-8.159,11.999v27.359c0,8.279,2.64,11.999,8.159,11.999
		C505.744,402.032,508.384,398.313,508.384,390.033z"/>
	<path fill="#FFFFFF" d="M529.983,404.912v-43.798c0-11.999,6.24-18.839,17.04-18.839s17.039,6.84,17.039,18.839v43.798
		c0,2.4-2.04,4.44-4.439,4.44c-2.4,0-4.44-2.04-4.44-4.44v-42.357c0-8.28-2.64-12-8.159-12s-8.16,3.72-8.16,12v42.357
		c0,2.4-2.04,4.44-4.44,4.44S529.983,407.313,529.983,404.912z"/>
	<path fill="#FFFFFF" d="M585.662,384.633v5.28c0,8.279,2.641,11.999,8.4,11.999c5.52,0,7.799-3.6,7.799-8.279v-0.24
		c0-2.76,1.681-4.56,4.2-4.56c2.64,0,4.2,1.8,4.2,4.56v1.08c0,9-5.4,15.72-16.199,15.72c-11.04,0-17.279-6.84-17.279-18.839v-29.999
		c0-12,6.239-18.84,17.039-18.84c10.799,0,16.799,6.84,16.799,18.84v15.959c0,5.04-2.16,7.319-7.319,7.319H585.662z
		 M585.662,362.794v13.319h16.319v-13.319c0-8.279-2.64-11.999-8.159-11.999S585.662,354.515,585.662,362.794z"/>
	<path fill="#FFFFFF" d="M679.621,361.114v56.277c0,8.88-4.92,13.8-13.8,13.8h-16.56c-2.64,0-4.56-1.92-4.56-4.439
		c0-2.521,1.92-4.44,4.56-4.44h16.079c3.48,0,5.4-1.92,5.4-5.399v-9c-2.4,1.44-5.4,2.4-8.399,2.4c-11.04,0-17.279-6.84-17.279-18.84
		v-30.358c0-11.999,6.239-18.839,17.279-18.839C673.381,342.275,679.621,349.115,679.621,361.114z M670.741,390.033v-27.479
		c0-8.28-2.64-12-8.399-12s-8.4,3.72-8.4,12v27.479c0,8.279,2.641,11.999,8.4,11.999
		C666.901,402.032,670.741,397.833,670.741,390.033z"/>
	<path fill="#FFFFFF" d="M692.232,329.795c0-2.88,2.28-5.16,5.16-5.16s5.16,2.28,5.16,5.16s-2.28,5.16-5.16,5.16
		S692.232,332.675,692.232,329.795z M692.953,404.912v-57.117c0-2.4,2.039-4.439,4.439-4.439c2.399,0,4.439,2.039,4.439,4.439
		v57.117c0,2.4-2.04,4.44-4.439,4.44C694.992,409.353,692.953,407.313,692.953,404.912z"/>
	<path fill="#FFFFFF" d="M749.709,361.114v30.358c0,12-6.239,18.84-17.279,18.84c-11.039,0-17.279-6.84-17.279-18.84v-66.477
		c0-2.4,2.04-4.44,4.439-4.44c2.4,0,4.44,2.04,4.44,4.44v19.679c2.399-1.439,5.399-2.399,8.399-2.399
		C743.47,342.275,749.709,349.115,749.709,361.114z M740.829,362.555c0-8.28-2.64-12-8.399-12c-4.56,0-8.399,4.2-8.399,12v27.479
		c0,8.279,2.64,11.999,8.399,11.999s8.399-3.72,8.399-11.999V362.555z"/>
	<path fill="#FFFFFF" d="M798.141,393.993v1.56c0,8.399-5.521,14.52-14.16,14.52c-9.479,0-15.239-6-15.239-16.56v-41.519h-6.239
		c-2.28,0-4.2-1.92-4.2-4.199c0-2.28,1.92-4.2,4.2-4.2h6.239v-15.479c0-2.4,2.04-4.44,4.44-4.44c2.399,0,4.439,2.04,4.439,4.44
		v15.479h8.76c2.279,0,4.199,1.92,4.199,4.2c0,2.279-1.92,4.199-4.199,4.199h-8.76v40.079c0,6.84,2.64,9.72,6.72,9.72
		c3.479,0,5.52-3,5.52-7.68v-0.24c0-2.76,1.68-4.56,4.2-4.56C796.7,389.313,798.141,391.233,798.141,393.993z"/>
	<path fill="#FFFFFF" d="M806.852,414.152l2.76-16.8c0.36-2.04,2.04-3.479,4.439-3.479c2.76,0,4.44,2.279,3.96,4.92l-2.76,16.799
		c-0.36,2.04-2.04,3.48-4.08,3.48C808.052,419.072,806.371,416.792,806.852,414.152z"/>
	<path fill="#FFFFFF" d="M114.698,451.955v1.561c0,2.52-1.56,4.319-4.08,4.319s-4.08-1.8-4.08-4.199v-0.36
		c0-4.08-1.56-6.12-4.92-6.12c-3.72,0-5.64,2.641-5.64,8.28v8.159h7.799c2.28,0,4.2,1.92,4.2,4.2c0,2.279-1.92,4.199-4.2,4.199
		h-7.799v53.038c0,2.4-2.04,4.44-4.44,4.44s-4.44-2.04-4.44-4.44v-53.038h-4.08c-2.28,0-4.2-1.92-4.2-4.199c0-2.28,1.92-4.2,4.2-4.2
		h4.08v-8.159c0-9.96,5.16-15.96,14.52-15.96C110.019,439.476,114.698,444.516,114.698,451.955z"/>
	<path fill="#FFFFFF" d="M117.279,524.912v-44.038c0-11.999,5.88-18.599,16.2-18.599c10.199,0,15.599,6.239,15.599,18.959v2.88
		c0,2.76-1.92,4.56-4.32,4.56c-2.28,0-4.32-1.8-4.32-4.56v-1.8c0-7.92-1.68-11.76-6.6-11.76c-5.04,0-7.68,3.479-7.68,11.76v42.598
		c0,2.4-2.04,4.44-4.44,4.44S117.279,527.313,117.279,524.912z"/>
	<path fill="#FFFFFF" d="M192.96,481.354v43.558c0,2.4-2.04,4.44-4.44,4.44c-2.04,0-3.48-1.2-4.2-3c-2.4,2.64-5.04,3.96-9.6,3.96
		c-9.48,0-15.12-5.88-15.12-17.88v-10.079c0-12,5.64-17.879,15.12-17.879c4.439,0,7.08,1.199,9.359,3.72v-5.4
		c0-8.279-2.64-11.999-8.16-11.999s-7.56,3-7.56,7.68v0.12c0,2.279-1.32,4.079-4.2,4.079c-2.28,0-4.08-1.92-4.08-4.439v-1.2
		c0-8.399,5.04-14.52,15.839-14.52S192.96,469.354,192.96,481.354z M184.08,510.033v-5.28c0-7.8-3.84-11.999-8.399-11.999
		c-5.16,0-7.2,3.12-7.2,11.399v6.479c0,8.28,2.04,11.399,7.2,11.399C180.24,522.032,184.08,517.833,184.08,510.033z"/>
	<path fill="#FFFFFF" d="M240.144,481.114v56.277c0,8.88-4.92,13.8-13.799,13.8h-16.56c-2.64,0-4.56-1.92-4.56-4.439
		c0-2.521,1.92-4.44,4.56-4.44h16.08c3.479,0,5.399-1.92,5.399-5.399v-9c-2.399,1.44-5.399,2.4-8.399,2.4
		c-11.04,0-17.279-6.84-17.279-18.84v-30.358c0-11.999,6.24-18.839,17.279-18.839S240.144,469.115,240.144,481.114z
		 M231.264,510.033v-27.479c0-8.28-2.64-12-8.399-12s-8.399,3.72-8.399,12v27.479c0,8.279,2.64,11.999,8.399,11.999
		C227.424,522.032,231.264,517.833,231.264,510.033z"/>
	<path fill="#FFFFFF" d="M275.663,524.912v-43.798c0-11.999,6.24-18.839,17.04-18.839c10.799,0,17.039,6.84,17.039,18.839v43.798
		c0,2.4-2.04,4.44-4.439,4.44c-2.4,0-4.44-2.04-4.44-4.44v-42.357c0-8.28-2.64-12-8.16-12c-5.52,0-8.16,3.72-8.16,12v42.357
		c0,2.4-2.04,4.44-4.44,4.44S275.663,527.313,275.663,524.912z"/>
	<path fill="#FFFFFF" d="M355.509,481.354v43.558c0,2.4-2.04,4.44-4.439,4.44c-2.04,0-3.48-1.2-4.2-3
		c-2.399,2.64-5.04,3.96-9.6,3.96c-9.479,0-15.119-5.88-15.119-17.88v-10.079c0-12,5.64-17.879,15.119-17.879
		c4.44,0,7.08,1.199,9.36,3.72v-5.4c0-8.279-2.64-11.999-8.16-11.999s-7.56,3-7.56,7.68v0.12c0,2.279-1.32,4.079-4.2,4.079
		c-2.28,0-4.08-1.92-4.08-4.439v-1.2c0-8.399,5.04-14.52,15.839-14.52S355.509,469.354,355.509,481.354z M346.629,510.033v-5.28
		c0-7.8-3.84-11.999-8.4-11.999c-5.16,0-7.199,3.12-7.199,11.399v6.479c0,8.28,2.04,11.399,7.199,11.399
		C342.79,522.032,346.629,517.833,346.629,510.033z"/>
	<path fill="#FFFFFF" d="M368.23,511.233v-29.759c0-12,6.24-18.84,17.04-18.84c10.799,0,15.839,6.12,15.839,14.52v1.2
		c0,2.52-1.56,4.319-4.2,4.319c-2.52,0-4.08-1.8-4.08-4.079v-0.12c0-4.68-2.16-7.56-7.56-7.56c-5.52,0-8.16,3.72-8.16,11.999v26.879
		c0,8.279,2.64,12,8.16,12c5.52,0,7.56-3,7.56-7.561v-0.119c0-2.4,1.56-4.32,4.08-4.32c2.64,0,4.2,1.92,4.2,4.2v1.56
		c0,8.399-5.04,14.52-15.839,14.52C374.47,530.072,368.23,523.232,368.23,511.233z"/>
	<path fill="#FFFFFF" d="M447.429,481.114v43.798c0,2.4-2.04,4.44-4.44,4.44s-4.44-2.04-4.44-4.44v-42.357c0-8.28-2.64-12-8.159-12
		c-5.52,0-8.16,3.72-8.16,12v42.357c0,2.4-2.04,4.44-4.439,4.44s-4.44-2.04-4.44-4.44v-79.916c0-2.4,2.04-4.44,4.44-4.44
		s4.439,2.04,4.439,4.44v20.039c2.52-1.68,5.64-2.76,8.64-2.76C441.189,462.275,447.429,469.115,447.429,481.114z"/>
	<path fill="#FFFFFF" d="M318.249,653.713c0-5.85,0.75-10.949,2.25-14.699c2.4-5.85,6.899-8.249,11.699-7.35
		c4.95,0.9,7.95,4.95,6.3,10.5c-1.05,3.6-2.25,6.149-2.25,11.85c0,6.749,3.15,9.449,7.05,9.449c2.55,0,4.65-1.05,6-4.2
		c1.05-2.699,1.65-7.05,1.65-11.399c0-4.05-0.6-8.249-1.5-10.8c-1.65-4.499-4.65-8.1-10.05-12.149l-4.2-3.149
		c-9.3-7.05-14.549-15.3-14.549-26.999c0-15.6,9.3-24.449,23.849-24.449c13.199,0,22.499,6.45,22.499,22.799v1.801
		c0,5.249-3.45,8.85-8.25,8.85c-5.1,0-8.55-3.3-8.55-8.85v-1.051c0-5.249-1.95-7.499-5.4-7.499c-3.6,0-5.85,2.85-5.85,7.649
		c0,5.55,1.95,8.399,7.35,12.449l6.45,4.95c10.05,7.649,16.5,18.149,16.5,33.898c0,23.399-9,34.499-25.949,34.499
		C327.099,679.813,318.249,669.313,318.249,653.713z"/>
	<path fill="#FFFFFF" d="M424.985,611.115v58.497c0,4.95-3.9,8.85-8.85,8.85c-1.95,0-3.9-0.6-5.25-1.8c-3,2.101-7.5,3.15-10.65,3.15
		c-12.75,0-20.999-7.5-20.999-21.6v-16.949c0-14.399,8.25-21.899,20.999-21.899c2.1,0,4.8,0.601,7.2,1.5v-9.749
		c0-6.9-1.65-8.85-4.8-8.85c-3.45,0-5.1,2.399-5.1,6.449v0.3c0,4.65-3.3,8.25-8.25,8.25c-5.1,0-8.4-3.45-8.4-9v-1.199
		c0-12,7.95-20.699,21.599-20.699C417.635,586.366,424.985,595.065,424.985,611.115z M407.436,643.664c0-7.05-2.25-10.35-5.55-10.35
		c-3.6,0-5.25,2.25-5.25,9.6v13.349c0,7.05,1.65,9.6,5.25,9.6c3.3,0,5.55-3.6,5.55-10.499V643.664z"/>
	<path fill="#FFFFFF" d="M436.837,669.612v-95.996c0-4.949,3.9-8.999,8.85-8.999s8.85,4.05,8.85,8.999v95.996
		c0,4.95-3.9,8.85-8.85,8.85S436.837,674.563,436.837,669.612z"/>
	<path fill="#FFFFFF" d="M507.53,670.063c0,4.8-3.6,8.55-8.4,8.55h-24.599c-6.6,0-9.75-4.8-7.5-12.449l18.6-61.348h-13.2
		c-4.8,0-8.4-3.75-8.4-8.55s3.6-8.55,8.4-8.55h24.899c6.6,0,9.45,4.8,7.2,12.449l-18.599,61.348h13.199
		C503.93,661.513,507.53,665.263,507.53,670.063z"/>
	<path fill="#FFFFFF" d="M539.63,655.063v-54.598c0-3,2.55-5.55,5.55-5.55s5.55,2.55,5.55,5.55v52.798
		c0,10.35,3.3,14.999,10.199,14.999c6.9,0,10.2-4.649,10.2-14.999v-52.798c0-3,2.55-5.55,5.55-5.55s5.55,2.55,5.55,5.55v54.598
		c0,14.999-7.8,23.549-21.3,23.549C547.43,678.612,539.63,670.063,539.63,655.063z"/>
	<path fill="#FFFFFF" d="M598.43,671.862v-54.747c0-15,7.8-23.55,21.299-23.55s21.299,8.55,21.299,23.55v54.747
		c0,3-2.55,5.55-5.55,5.55s-5.55-2.55-5.55-5.55v-52.947c0-10.35-3.3-15-10.199-15s-10.199,4.65-10.199,15v52.947
		c0,3-2.551,5.55-5.55,5.55C600.979,677.412,598.43,674.862,598.43,671.862z"/>
	<path fill="#FFFFFF" d="M700.128,571.967v83.097c0,14.999-7.8,23.549-21.6,23.549c-13.799,0-21.599-8.55-21.599-23.549v-37.948
		c0-15,7.8-23.55,21.599-23.55c3.75,0,7.5,1.2,10.5,3v-24.599c0-3,2.55-5.55,5.55-5.55S700.128,568.967,700.128,571.967z
		 M689.028,618.915c0-9.75-4.8-15-10.5-15c-7.199,0-10.499,4.65-10.499,15v34.349c0,10.35,3.3,14.999,10.499,14.999
		c7.2,0,10.5-4.649,10.5-14.999V618.915z"/>
	<path fill="#FFFFFF" d="M582.696,728.366c0,4.95-3.899,8.85-8.85,8.85h-6.3v80.247c0,5.1-4.05,9.149-9.149,9.149
		s-9.149-4.05-9.149-9.149v-80.247h-6.3c-4.95,0-8.85-3.899-8.85-8.85s3.899-8.85,8.85-8.85h30.898
		C578.797,719.517,582.696,723.416,582.696,728.366z"/>
	<path fill="#FFFFFF" d="M586.208,802.163v-42.898c0-16.349,9.149-25.049,22.799-25.049c13.949,0,22.799,8.7,22.799,25.049v20.999
		c0,7.5-4.05,11.1-11.549,11.1h-16.35v10.8c0,6.6,2.1,9.45,5.85,9.45c4.35,0,5.25-2.851,5.25-6.75v-0.9
		c0-4.649,3.6-8.249,8.249-8.249c4.65,0,8.25,3.6,8.25,8.249v2.25c0,13.949-8.55,21.299-21.899,21.299
		C595.357,827.512,586.208,818.813,586.208,802.163z M614.406,777.114v-18.449c0-7.2-1.5-9.6-5.399-9.6c-3.45,0-5.1,2.399-5.1,9.6
		v18.449H614.406z"/>
	<path fill="#FFFFFF" d="M688.43,758.815v84.296c0,4.95-3.899,8.85-8.85,8.85c-4.949,0-8.85-3.899-8.85-8.85v-16.049
		c-1.649,0.6-3.449,0.75-5.399,0.75c-13.649,0-22.799-8.7-22.799-25.199v-43.798c0-16.5,9.149-25.199,22.799-25.199
		C679.28,733.616,688.43,742.315,688.43,758.815z M670.73,801.563v-42.448c0-7.2-1.649-9.75-5.399-9.75c-3.6,0-5.1,2.55-5.1,9.75
		v43.348c0,7.2,1.5,9.45,5.1,9.45C668.781,811.913,670.73,808.613,670.73,801.563z"/>
	<path fill="#FFFFFF" d="M699.741,802.613v-58.348c0-4.95,3.899-8.85,8.85-8.85c4.949,0,8.85,3.899,8.85,8.85v57.748
		c0,7.199,1.649,9.749,5.1,9.749c3.899,0,5.399-2.55,5.399-9.749v-57.748c0-4.95,3.9-8.85,8.85-8.85c4.95,0,8.85,3.899,8.85,8.85
		v58.348c0,16.499-9.149,25.199-23.099,25.199C708.891,827.813,699.741,819.112,699.741,802.613z"/>
	<path fill="#FFFFFF" d="M757.339,721.616c0-5.1,3.899-8.999,9-8.999c5.1,0,8.999,3.899,8.999,8.999c0,5.101-3.899,9-8.999,9
		C761.238,730.616,757.339,726.717,757.339,721.616z M757.489,817.612v-73.196c0-4.95,3.899-9,8.85-9c4.949,0,8.85,4.05,8.85,9
		v73.196c0,4.95-3.9,8.85-8.85,8.85C761.389,826.462,757.489,822.563,757.489,817.612z"/>
	<path fill="#FFFFFF" d="M787.519,817.612v-95.996c0-4.949,3.9-8.999,8.85-8.999c4.95,0,8.85,4.05,8.85,8.999v95.996
		c0,4.95-3.899,8.85-8.85,8.85C791.419,826.462,787.519,822.563,787.519,817.612z"/>
	<path fill="#FFFFFF" d="M817.473,817.612v-95.996c0-4.949,3.9-8.999,8.85-8.999c4.95,0,8.85,4.05,8.85,8.999v95.996
		c0,4.95-3.899,8.85-8.85,8.85C821.373,826.462,817.473,822.563,817.473,817.612z"/>
	<path fill="#FFFFFF" d="M891.36,759.115v58.497c0,4.95-3.899,8.85-8.85,8.85c-1.95,0-3.899-0.6-5.25-1.8
		c-3,2.101-7.499,3.15-10.649,3.15c-12.749,0-20.999-7.5-20.999-21.6v-16.949c0-14.399,8.25-21.899,20.999-21.899
		c2.1,0,4.8,0.601,7.2,1.5v-9.749c0-6.9-1.65-8.85-4.8-8.85c-3.45,0-5.1,2.399-5.1,6.449v0.3c0,4.65-3.301,8.25-8.25,8.25
		c-5.1,0-8.399-3.45-8.399-9v-1.199c0-12,7.949-20.699,21.599-20.699C884.011,734.366,891.36,743.065,891.36,759.115z
		 M873.812,791.664c0-7.05-2.25-10.35-5.55-10.35c-3.601,0-5.25,2.25-5.25,9.6v13.349c0,7.05,1.649,9.6,5.25,9.6
		c3.3,0,5.55-3.6,5.55-10.499V791.664z"/>
</g>
</svg>
