<?xml version="1.0" encoding="utf-8"?>
<!-- Generator: Adobe Illustrator 15.1.0, SVG Export Plug-In . SVG Version: 6.00 Build 0)  -->
<!DOCTYPE svg PUBLIC "-//W3C//DTD SVG 1.1//EN" "http://www.w3.org/Graphics/SVG/1.1/DTD/svg11.dtd">
<svg version="1.1" id="vs_text" xmlns="http://www.w3.org/2000/svg" xmlns:xlink="http://www.w3.org/1999/xlink" x="0px" y="0px"
	 width="1080px" height="1080px" viewBox="0 0 1080 1080" enable-background="new 0 0 1080 1080" xml:space="preserve">
<g>
	<path d="M54.324,167.135l18.177,56.579l18.177-56.579h13.569l18.177,56.579l18.177-56.579h20.481l-29.057,85.38h-16.641
		l-17.921-51.842l-17.92,51.842H62.901l-29.057-85.38H54.324z"/>
	<path d="M226.563,183.775h-28.545v16.513h27.137v16.641h-27.137v18.945h28.545v16.641h-48.258v-85.38h48.258V183.775z"/>
	<path d="M271.259,167.135v85.38h-19.713v-85.38H271.259z"/>
	<path d="M317.441,199.648h34.05v-32.513h19.713v85.38h-19.713v-36.226h-34.05v36.226h-19.713v-85.38h19.713V199.648z"/>
	<path d="M397.708,252.515v-85.38h17.153l46.338,55.042v-55.042h19.713v85.38h-17.152l-46.338-55.299v55.299H397.708z"/>
	<path d="M557.146,236.386h-32.258l-6.528,16.129h-20.481l34.434-85.38h18.049l33.665,85.38h-20.48L557.146,236.386z
		 M551.77,221.281l-10.497-28.673l-10.625,28.673H551.77z"/>
	<path d="M658.482,249.827c-7.553,3.84-13.697,4.608-18.817,4.608c-15.745,0-26.369-5.376-33.538-12.417
		c-7.68-7.424-13.313-18.689-13.313-32.385c0-13.441,5.633-24.705,13.313-32.13c7.553-7.296,18.562-12.289,31.874-12.289
		c5.632,0,12.16,1.152,20.481,4.736v22.785c-4.353-4.608-10.881-9.088-19.97-9.088c-7.168,0-12.929,2.304-17.409,6.656
		c-4.736,4.608-8.064,11.521-8.064,19.713c0,8.833,3.585,15.105,7.425,18.817c1.792,1.792,7.937,7.168,18.433,7.168
		c5.121,0,12.033-1.408,19.586-8.833V249.827z"/>
	<path d="M702.601,199.648h34.05v-32.513h19.713v85.38H736.65v-36.226h-34.05v36.226h-19.713v-85.38h19.713V199.648z"/>
	<path d="M811.886,183.775v68.739h-19.713v-68.739h-18.561v-16.641h56.835v16.641H811.886z"/>
	<path d="M895.879,183.775h-28.545v16.513h27.137v16.641h-27.137v18.945h28.545v16.641h-48.258v-85.38h48.258V183.775z"/>
	<path d="M920.543,252.515v-85.38h17.152l46.338,55.042v-55.042h19.713v85.38h-17.152l-46.338-55.299v55.299H920.543z"/>
	<path d="M1039.518,231.266c6.528,0,11.648,5.12,11.648,11.648s-5.12,11.648-11.648,11.648s-11.648-5.12-11.648-11.648
		S1032.989,231.266,1039.518,231.266z M1030.045,224.993v-57.858h18.945v57.858H1030.045z"/>
</g>
<g>
	<path d="M87.853,58.979H60.203v16.513h25.602v16.641H60.203v35.586H40.49v-85.38h47.362V58.979z"/>
	<path d="M139.242,42.339c10.88,0,17.665,3.584,21.761,7.424c3.584,3.456,7.424,9.6,7.424,19.073c0,5.376-1.152,12.033-6.656,17.409
		c-2.944,2.816-7.168,5.376-11.905,6.528l26.241,34.945h-24.065l-23.041-33.666v33.666h-19.713v-85.38H139.242z M129.001,81.125
		h4.48c3.584,0,8.448-0.384,11.777-3.712c1.408-1.408,3.2-4.096,3.2-8.32c0-4.864-2.304-7.424-3.968-8.704
		c-3.2-2.432-8.32-2.688-10.881-2.688h-4.608V81.125z"/>
	<path d="M266.757,52.835c8.064,7.809,13.313,19.073,13.313,32.258c0,11.393-4.096,23.041-13.313,32.001
		c-7.937,7.68-18.688,12.544-33.025,12.544c-16.001,0-26.881-6.4-33.282-12.544c-8.192-7.68-13.313-19.201-13.313-31.746
		c0-12.288,5.504-24.705,13.185-32.385c5.76-5.76,16.385-12.544,33.41-12.544C247.044,40.419,258.181,44.515,266.757,52.835z
		 M214.915,65.892c-3.712,3.584-7.552,9.856-7.552,19.329c0,7.809,2.56,14.081,7.808,19.201c5.504,5.248,11.649,7.04,18.305,7.04
		c8.704,0,14.849-3.2,18.945-7.296c3.328-3.2,7.424-9.216,7.424-19.073c0-8.833-3.584-15.361-7.424-19.201
		c-4.224-4.096-11.009-7.296-18.817-7.296C226.179,58.596,219.522,61.284,214.915,65.892z"/>
	<path d="M321.756,74.853h34.049V42.339h19.713v85.38h-19.713V91.493h-34.049v36.226h-19.713v-85.38h19.713V74.853z"/>
	<path d="M450.28,58.979h-28.545v16.513h27.138v16.641h-27.138v18.945h28.545v16.641h-48.258v-85.38h48.258V58.979z"/>
</g>
</svg>
