<?xml version="1.0" encoding="utf-8"?>
<!-- Generator: Adobe Illustrator 15.1.0, SVG Export Plug-In . SVG Version: 6.00 Build 0)  -->
<!DOCTYPE svg PUBLIC "-//W3C//DTD SVG 1.1//EN" "http://www.w3.org/Graphics/SVG/1.1/DTD/svg11.dtd">
<svg version="1.1" id="vs_text" xmlns="http://www.w3.org/2000/svg" xmlns:xlink="http://www.w3.org/1999/xlink" x="0px" y="0px"
	 width="1080px" height="1080px" viewBox="0 0 1080 1080" enable-background="new 0 0 1080 1080" xml:space="preserve">
<g>
	<path d="M157.456,359.565c0,7.8-2.34,19.76-10.4,29.119c-10.66,12.22-31.719,21.32-40.299,21.32c-6.76,0-13.78-4.94-13.78-8.84
		c0-1.561,2.08-5.46,3.9-5.721c27.299-3.38,41.599-14.299,41.599-30.419c0-10.399-6.5-18.979-17.939-28.34
		c-13-10.659-20.279-22.879-21.319-26.779c-1.82-7.279-1.82-20.539,1.82-28.599c7.28-16.9,29.379-28.859,41.339-28.859
		c4.16,0,10.14,4.939,10.919,8.579c0,1.561-2.08,6.24-4.16,6.5c-19.5,1.3-32.239,12.22-32.239,26
		c0,10.399,1.82,16.899,17.939,30.419c17.939,14.819,22.62,24.959,22.62,35.359V359.565z"/>
	<path d="M240.966,308.866c0.26,2.34-2.08,7.28-3.9,7.54c-27.04,0.78-43.679,16.12-43.679,32.76
		c0,15.859,14.82,31.979,40.039,37.438c1.82,0.521,2.86,2.601,2.86,3.9c0,3.38-10.399,7.02-15.6,6.5
		c-21.839-1.561-46.799-24.439-46.799-49.399c0-21.579,28.079-47.839,59.019-47.839c3.64,0,7.8,5.2,8.06,8.84V308.866z"/>
	<path d="M344.86,355.405c0,14.56-3.38,35.88-5.72,44.72c-1.04,3.64-7.8,8.579-11.44,8.579c-2.08,0-5.46-2.6-4.94-4.42
		c2.08-8.579,4.94-29.899,4.94-41.858c0-11.18-1.82-19.76-3.9-22.62c-1.56-1.819-5.98-4.42-9.1-4.42
		c-9.36,0-26.259,17.42-36.139,37.18c-2.08,4.16-4.42,11.96-5.979,16.119c-1.561,3.12-15.86,1.561-15.6-4.159
		c0.52-25.479,1.56-112.578,3.64-145.077c0.26-3.38,7.54-7.54,12.74-7.54c2.08-0.26,6.5,2.86,5.98,5.979
		c-3.12,26-5.46,90.479-5.2,112.838c0,1.82,1.3,3.12,2.86,1.04c10.659-15.08,28.859-34.579,44.199-34.579
		c6.76,0,15.34,4.42,18.72,9.1c2.34,3.38,4.94,15.08,4.94,28.859V355.405z"/>
	<path d="M387.655,395.705c-0.26,3.64-3.38,7.8-5.46,7.8c-3.38,0-11.7-2.08-11.7-4.94c0-17.68,0-44.979-0.52-70.198
		c-0.26-34.319-1.3-62.919-2.08-84.498c0-3.12,5.459-8.84,9.62-8.84c2.34,0,8.06,3.12,8.32,5.979c0.26,17.68,1.3,53.299,1.56,90.479
		c0,25.999,0.26,51.738,0.26,63.958V395.705z"/>
	<path d="M491.963,399.864c-1.82,1.301-6.76,2.34-8.06,0.78c-5.459-6.5-12.479-17.939-15.859-17.939
		c-5.2,0-29.64,11.699-50.699,11.699c-6.5,0-13.259-10.399-13.259-14.819c0-16.38,31.719-41.859,31.719-49.919
		c0-4.16-5.459-15.079-12.739-23.399c-1.82-2.34,4.42-9.359,10.399-9.88c2.86-0.26,7.02,0.78,8.06,2.34
		c4.42,9.1,11.44,26.779,25.739,48.879c10.66,16.9,23.4,33.54,29.64,40.039C499.243,389.984,496.123,397.005,491.963,399.864z
		 M460.764,369.445c0-2.6-14.3-24.439-15.86-24.439c-2.08,0-21.839,20.539-21.839,28.339c0,2.601,2.34,5.98,5.2,5.98
		c13,0,32.5-7.28,32.5-9.62V369.445z"/>
	<path d="M569.232,243.868c0,1.56-3.899,5.979-5.979,6.239c-7.8,0.78-15.34,4.681-20.28,11.44
		c-4.939,6.76-10.659,22.1-11.439,47.059c0,2.34,0.78,3.38,2.6,3.64c6.5,0.261,14.3,0.78,21.58,0.78c1.3,0,3.38,2.86,3.38,4.68
		c0,2.08-3.38,7.54-4.94,8.061c-3.119,1.3-14.299,1.04-20.539,1.04c-1.82,0-3.38,1.56-3.64,3.899
		c-0.78,18.72-1.3,47.839-1.56,69.419c0,2.6-5.2,7.02-7.28,7.02c-3.38,0-10.14-2.08-10.14-4.42c0.78-26.52,1.3-67.079,3.12-96.198
		c2.08-32.239,11.18-52.519,23.399-62.658c6.24-5.2,17.68-9.1,23.919-9.1c2.34,0,7.8,4.939,7.8,8.84V243.868z"/>
	<path d="M619.619,401.165c-11.96,0-35.359-9.62-45.76-25.22c-9.359-13.78-8.319-34.06-3.64-43.939
		c8.06-17.68,32.239-33.799,46.539-33.799c4.42,0,9.1,3.64,9.1,9.619c0,2.601-1.56,4.681-3.899,4.94
		c-17.939,1.82-31.72,13.779-32.76,22.359c-0.779,1.56,0.52,2.86,2.6,3.12c4.94,0.26,18.98,1.04,30.939,1.56
		c5.98,0.26,0.26,13.26-4.939,13c-10.66-0.26-23.66-0.78-29.64-1.3c-1.3,0-2.6,1.3-2.6,2.859c0.26,14.82,12.999,28.6,40.039,33.02
		c2.601,0.26,4.42,3.12,4.16,5.2C628.979,395.705,622.998,401.165,619.619,401.165z"/>
	<path d="M736.071,350.726c0,16.899-2.601,35.1-4.94,41.339c-1.819,4.681-9.619,9.101-12.219,9.101c-1.561,0-4.681-2.08-4.16-3.641
		c1.56-9.1,3.64-25.219,3.64-38.219c0-13.78-1.56-21.06-3.64-24.439c-1.04-2.34-4.16-4.42-6.5-4.42
		c-9.359,0-25.22,16.64-38.479,38.999c-2.34,3.899-5.46,10.66-6.76,14.04c-2.08,4.42-14.3-0.521-14.819-4.681
		c-0.78-12.22-2.08-59.278-4.94-74.358c-0.52-2.6,4.16-5.979,7.54-5.979c4.939,0,10.14,2.6,10.66,5.2
		c1.56,7.02,1.819,37.699,2.34,45.759c0,1.3,0.52,2.6,1.56,2.6c2.86,0,24.96-40.039,47.319-40.039c7.8,0,16.64,4.68,19.239,9.88
		c1.82,3.64,4.16,16.12,4.16,28.6V350.726z"/>
	<path d="M783.496,383.745c0,4.42-4.94,8.06-11.439,8.06c-5.98,0-9.101-4.42-9.101-8.84c0-5.979,5.979-10.399,12.22-10.399
		c4.16,0,8.32,6.239,8.32,10.92V383.745z M788.176,258.168c0,18.72-2.08,68.378-4.16,86.317c-0.52,3.9-8.06,9.101-9.88,9.101
		c-1.56,0-5.2-2.86-5.2-5.2c1.041-24.96,1.82-64.479,1.561-91.519c0-2.859,5.98-6.499,9.88-6.499c3.64,0,7.8,4.939,7.8,7.539
		V258.168z"/>
</g>
<g>
	<path d="M127.544,141.107c0,3.008-1.261,8.536-4.268,11.834c-4.365,5.044-12.416,9.507-16.49,9.507
		c-4.365,0-9.021-3.104-9.021-5.529c0-0.679,1.649-3.88,2.619-3.88c9.7-0.098,14.259-4.269,14.259-8.439
		c0-3.007-2.037-5.82-6.208-9.409c-4.462-3.782-6.887-7.954-7.372-9.118c-1.164-3.104-0.679-9.699,0.485-12.609
		c2.619-6.693,11.155-12.901,17.751-12.901c2.619,0,6.402,2.716,6.984,5.142c0.097,0.582-1.067,4.364-2.231,4.462
		c-7.275,0.291-10.961,3.977-10.961,7.954c0,2.909,0.485,4.946,5.723,9.021c7.081,5.432,8.73,9.604,8.73,13.871V141.107z"/>
	<path d="M152.53,123.26c0,7.275-0.097,20.079-1.164,28.615c-0.194,1.357-4.074,3.492-6.305,3.492c-2.522,0-6.596-3.492-6.305-5.238
		c0.873-5.724,1.746-19.788,2.425-27.742c0.097-1.358,2.91-3.201,3.977-3.201c3.201,0,7.372,2.328,7.372,3.978V123.26z
		 M153.888,105.994c0,3.491-3.783,5.723-6.984,5.723c-2.425,0-5.141-3.589-5.141-5.82c0-2.521,3.589-5.626,5.723-5.626
		c2.91,0,6.402,2.328,6.402,5.626V105.994z"/>
	<path d="M177.808,153.232c-0.097,2.231-2.425,4.851-3.395,4.851c-2.328,0-7.954-0.873-7.954-3.104c0-5.626,0-17.266-0.194-25.996
		c-0.291-11.834-0.679-19.594-1.164-29.391c-0.097-1.649,3.492-5.626,6.305-5.626c1.261,0,5.432,1.746,5.529,3.88
		c0.291,6.014,0.97,20.176,0.97,34.338c0,8.245,0.097,16.199-0.097,20.952V153.232z"/>
	<path d="M210.778,157.985c-1.455,2.522-9.118,0.291-9.991-1.745c-3.201-8.052-10.767-23.087-13.192-27.16
		c-1.164-2.037,3.88-5.82,6.499-5.82c1.649,0,5.141,1.455,6.014,2.813c2.231,3.687,5.529,15.133,7.372,17.558
		c0.291,0.388,0.776,0.194,1.067-0.097c2.134-3.008,6.111-12.416,10.185-17.17c0.776-0.97,4.074-2.425,5.044-2.425
		c3.492,0,6.596,3.396,5.626,4.656C223.582,136.452,215.337,150.226,210.778,157.985z"/>
	<path d="M263.924,152.65c-0.582,1.844-3.88,5.142-5.723,5.142c-5.142,0-14.162-3.201-18.818-9.7
		c-3.88-5.335-3.589-13.483-1.552-17.751c3.104-6.596,12.513-13.58,19.206-13.58c2.134,0,5.529,2.328,5.529,6.111
		c0,1.455-0.873,2.716-1.843,2.91c-5.141,0.581-8.245,2.327-9.312,4.559c-0.679,0.776,0,1.164,1.066,1.358
		c1.164,0.193,5.335,0.388,8.633,0.581c2.328,0.194,0,8.052-2.619,7.954c-3.395-0.097-6.402-0.388-8.245-0.484
		c-0.582,0-0.97,0.291-0.97,0.775c0.194,3.687,4.462,7.275,13.289,8.73c0.873,0.097,1.649,2.23,1.358,3.298V152.65z"/>
	<path d="M293.353,146.442c0,7.47-9.894,14.356-16.102,14.356c-2.619,0-5.917-2.619-5.917-4.074c0-0.873,1.261-2.91,2.134-3.007
		c5.142-0.776,7.954-3.492,7.954-6.111c0-2.037-2.23-3.977-4.365-5.723c-3.201-2.813-4.171-5.626-4.171-9.313
		c0-6.014,7.663-14.064,15.132-14.064c2.619,0,6.111,2.91,6.111,5.335c0,0.97-1.067,3.201-1.94,3.201
		c-5.238,0-7.178,2.134-7.178,4.753c0,1.843,1.358,3.298,3.589,5.141c3.298,2.522,4.753,5.626,4.753,9.409V146.442z"/>
	<path d="M332.123,131.505c-1.746,0.775-5.044,0.679-6.887,1.066c-0.97,0.194-1.261,1.262-1.358,2.522
		c-0.485,5.432-0.485,15.326-1.358,18.818c-0.97,3.782-4.85,5.917-6.79,5.917c-1.164,0-4.074-2.135-3.977-3.396
		c0.582-4.947,0.97-18.042,0.97-22.116c0-0.484-0.485-1.164-1.455-1.164c-2.522,0-3.589,0.194-5.82,0.291
		c-2.328,0.194-4.268-4.268-4.268-6.983c0-1.067,1.261-2.813,1.94-3.007c1.843-0.194,5.238,0.193,8.148-0.291
		c1.261-0.194,1.746-0.582,1.94-2.231c0.291-2.813-0.485-9.409-0.291-12.028c0.097-1.648,5.238-3.88,6.887-3.88
		c2.231,0,4.85,1.455,4.85,2.813c0,2.328-0.776,9.409-0.776,13.095c0,1.358,0.388,2.037,1.067,2.037
		c2.716,0,6.305-0.097,9.118-0.582c1.261-0.194,2.521,1.746,2.619,3.298C336.682,126.558,334.936,130.341,332.123,131.505z"/>
	<path d="M370.331,152.65c-0.582,1.844-3.88,5.142-5.723,5.142c-5.141,0-14.162-3.201-18.818-9.7
		c-3.88-5.335-3.589-13.483-1.552-17.751c3.104-6.596,12.513-13.58,19.206-13.58c2.134,0,5.529,2.328,5.529,6.111
		c0,1.455-0.873,2.716-1.843,2.91c-5.141,0.581-8.245,2.327-9.312,4.559c-0.679,0.776,0,1.164,1.067,1.358
		c1.164,0.193,5.335,0.388,8.633,0.581c2.328,0.194,0,8.052-2.619,7.954c-3.395-0.097-6.402-0.388-8.245-0.484
		c-0.582,0-0.97,0.291-0.97,0.775c0.194,3.687,4.462,7.275,13.289,8.73c0.873,0.097,1.649,2.23,1.358,3.298V152.65z"/>
	<path d="M407.268,124.715c0,3.589-1.843,6.984-3.298,6.887c-2.328,0-5.141,0.291-7.081,0.679c-2.23,0.485-3.977,2.426-4.365,5.627
		c-0.194,1.357-0.388,4.462-0.388,6.983c0.097,2.522,0.194,4.851,0.291,7.081c0,0.873-2.134,3.589-3.88,3.589
		c-2.716,0-7.469-1.552-7.566-3.201c-0.291-7.469,0.582-24.832,1.261-31.331c0.194-1.843,3.686-3.782,6.305-3.782
		c1.552,0,4.559,1.455,4.559,2.425v2.716c0,0.485,0.291,1.067,1.067,1.067c1.067,0,7.275-1.94,9.506-2.522
		c1.843-0.679,3.589,1.649,3.589,3.687V124.715z"/>
	<path d="M439.928,132.087c0,2.619-2.134,6.208-3.492,6.305c-4.365,0.679-15.326,0.97-19.788,1.067c-0.97,0-2.328-2.231-2.328-3.201
		c0-1.455,0.582-3.687,1.164-4.269c1.455-1.454,18.624-2.521,21.631-3.104c0.97-0.194,2.813,2.037,2.813,3.104V132.087z"/>
	<path d="M491.716,124.327c0,9.699-13.968,18.139-19.691,18.139c-0.776,0-4.074-3.687-4.074-4.753c0-1.649,0.291-3.978,1.455-4.269
		c6.887-1.357,10.088-5.237,10.088-8.438c0-2.134-2.134-5.335-3.687-6.305c-1.746-1.358-5.723-2.619-7.566-2.619
		c-0.776,0-1.261,0.388-1.261,1.066c0,3.687-0.193,10.282-0.291,15.617c-0.388,9.409-1.067,20.564-2.037,23.086
		c-0.776,2.134-3.977,5.626-6.499,5.626c-1.455,0-4.947-3.686-4.753-4.462c0.679-3.589,1.261-11.058,1.746-23.474
		c0.291-5.529,0.485-18.236,0-19.4c-0.484-1.066-3.977-2.037-3.977-3.492c0-3.298,2.328-7.081,4.074-7.081
		c6.014,0,22.989,3.008,29.973,8.148c4.171,3.007,6.499,8.536,6.499,12.513V124.327z"/>
	<path d="M513.89,153.232c-0.097,2.231-2.425,4.851-3.395,4.851c-2.328,0-7.954-0.873-7.954-3.104c0-5.626,0-17.266-0.194-25.996
		c-0.291-11.834-0.679-19.594-1.164-29.391c-0.097-1.649,3.492-5.626,6.305-5.626c1.261,0,5.432,1.746,5.529,3.88
		c0.291,6.014,0.97,20.176,0.97,34.338c0,8.245,0.097,16.199-0.097,20.952V153.232z"/>
	<path d="M559.005,156.919c-0.776,0.582-3.687,1.357-4.462,0.291c-2.426-3.201-4.463-5.335-5.433-5.335
		c-1.745,0-11.058,3.298-18.624,3.298c-3.104,0-6.305-5.141-6.305-7.566c0-5.819,11.252-14.55,11.252-17.557
		c0-1.455-1.164-4.268-4.074-7.081c-1.066-0.97,2.716-5.432,6.499-5.82c1.94-0.291,5.335,0.291,5.724,1.164
		c1.648,3.492,4.462,9.506,8.826,16.394c3.59,5.723,8.536,11.64,10.864,13.968C564.242,149.644,562.012,154.882,559.005,156.919z
		 M544.648,143.824c0-0.582-3.007-5.045-3.492-5.045c-0.775,0-4.268,3.881-4.268,5.626c0,0.582,0.679,1.262,1.067,1.262
		c3.298,0,6.693-1.164,6.693-1.746V143.824z"/>
	<path d="M612.383,137.81c0,6.208-1.164,12.223-2.037,14.55c-1.164,3.008-6.208,5.82-7.954,5.82c-0.873,0-3.2-1.261-3.007-2.037
		c0.291-2.619,1.067-7.469,1.067-12.707c0-3.395-0.485-6.208-1.067-7.081c-0.388-0.582-1.357-1.455-2.425-1.455
		c-2.522,0-6.693,4.269-10.67,10.67c-0.873,1.455-2.716,4.947-3.201,5.724c-1.164,1.746-9.409-1.261-9.797-3.396
		c-0.388-3.782-0.873-21.437-2.037-26.771c-0.291-1.358,3.298-4.074,4.85-4.074c3.007,0,7.275,1.746,7.566,3.395
		c0.388,2.037,0,8.73,0.194,11.641c0.097,0.679,0.388,1.164,0.775,1.164c1.358,0,8.245-11.252,16.394-11.252
		c3.491,0,8.051,2.037,9.603,4.85c0.873,1.649,1.746,6.887,1.746,10.864V137.81z"/>
	<path d="M663.86,138.004c0,4.365-0.388,10.573-0.97,12.804c-0.776,3.007-5.044,5.724-6.499,5.724c-0.97,0-3.589-1.358-3.492-2.037
		c0.097-1.553,0.194-5.142,0.194-7.663c0-1.844-0.098-3.104-0.098-4.947c0-0.776-0.193-0.97-0.775-0.873
		c-0.971,0.194-6.79,10.864-15.424,10.864c-3.298,0-7.76-2.231-9.699-5.044c-1.746-2.522-2.91-7.081-2.91-13.774
		c0-2.521,0.388-6.208,0.775-7.76c0.873-3.298,5.627-6.596,8.634-6.596c1.066,0,3.589,1.745,3.395,2.813
		c-0.388,1.843-0.97,6.693-0.97,9.7c0,3.201,0.582,6.014,1.455,7.372c0.582,0.873,1.746,1.455,2.521,1.455
		c3.201,0,7.76-5.529,10.864-11.834c2.813-5.724,3.104-6.111,5.335-6.111c4.559,0,6.984,1.552,7.178,3.783
		c0.389,2.619,0.485,8.051,0.485,12.028V138.004z"/>
	<path d="M717.209,137.81c0,6.208-1.164,12.223-2.037,14.55c-1.164,3.008-6.208,5.82-7.954,5.82c-0.873,0-3.2-1.261-3.007-2.037
		c0.291-2.619,1.067-7.469,1.067-12.707c0-3.395-0.485-6.208-1.067-7.081c-0.388-0.582-1.357-1.455-2.425-1.455
		c-2.522,0-6.693,4.269-10.67,10.67c-0.873,1.455-2.716,4.947-3.201,5.724c-1.164,1.746-9.409-1.261-9.797-3.396
		c-0.388-3.782-0.873-21.437-2.037-26.771c-0.291-1.358,3.298-4.074,4.85-4.074c3.007,0,7.275,1.746,7.566,3.395
		c0.388,2.037,0,8.73,0.194,11.641c0.097,0.679,0.388,1.164,0.775,1.164c1.358,0,8.245-11.252,16.394-11.252
		c3.491,0,8.051,2.037,9.603,4.85c0.873,1.649,1.746,6.887,1.746,10.864V137.81z"/>
	<path d="M756.91,166.134c-0.291,2.328-4.559,4.656-6.983,4.656c-0.873,0-2.813-1.649-2.813-2.425
		c0.291-2.813,1.164-9.991,1.164-12.707c0-0.776-0.679-1.164-1.455-1.358c-8.535-2.037-15.908-5.82-18.817-12.901
		c-0.776-1.939-0.582-6.887,0.097-9.021c2.813-8.245,14.453-15.326,19.982-15.326c3.686,0,6.887,2.619,6.887,5.238
		c0,0.775-1.552,3.201-2.425,3.395c-6.499,1.455-11.059,4.56-12.707,8.051c-0.679,1.553-0.291,3.881,0.291,5.044
		c1.164,2.717,4.946,5.142,8.536,5.142c0.484,0,0.775-0.582,0.873-1.358c0.388-3.395,0.097-5.237,0.291-6.983
		c0.097-1.455,2.813-2.91,4.655-2.91c2.134,0,6.984,2.91,6.402,5.044C759.336,144.212,757.783,155.561,756.91,166.134z"/>
	<path d="M795.293,120.35c0,5.433-3.2,9.797-8.633,14.259c-2.134,1.844-5.529,5.917-5.917,8.73c-0.097,0.873-2.037,2.23-2.909,2.23
		c-1.746,0-4.754-2.521-4.754-4.753c0-3.686,1.844-7.274,4.947-10.476c3.88-3.978,5.626-6.887,5.626-9.409
		c0-3.492-2.91-5.723-11.349-6.887c-1.746-0.582-2.619-3.687-2.619-5.335c0-1.164,3.298-5.335,5.335-5.142
		c6.692,0.68,12.804,2.91,17.072,7.566c1.454,1.552,3.2,6.693,3.2,9.118V120.35z M784.526,154.591c0,3.201-4.753,5.044-7.663,5.044
		c-2.521,0-3.686-2.813-3.686-4.947c0-3.589,2.91-5.917,6.401-5.917c2.716,0,4.947,2.813,4.947,5.724V154.591z"/>
</g>
</svg>
