<?xml version="1.0" encoding="utf-8"?>
<!-- Generator: Adobe Illustrator 15.1.0, SVG Export Plug-In . SVG Version: 6.00 Build 0)  -->
<!DOCTYPE svg PUBLIC "-//W3C//DTD SVG 1.1//EN" "http://www.w3.org/Graphics/SVG/1.1/DTD/svg11.dtd">
<svg version="1.1" id="vs_text" xmlns="http://www.w3.org/2000/svg" xmlns:xlink="http://www.w3.org/1999/xlink" x="0px" y="0px"
	 width="1080px" height="1080px" viewBox="0 0 1080 1080" enable-background="new 0 0 1080 1080" xml:space="preserve">
<g>
	<path d="M223.247,458.137c0,1.318-0.703,2.197-2.197,2.549c-2.197,0.439-8.438,0.791-18.896,1.055
		c-0.703,4.922-1.055,10.547-1.055,16.963v16.348h12.744c2.197,0,3.252,1.055,3.252,3.252v14.063c0,2.285-1.055,3.428-3.076,3.428
		h-12.92v10.371c0,15.381-4.834,28.74-16.963,37.705c-6.064,4.57-13.359,6.768-21.885,6.768c-4.57,0-8.877-0.791-12.92-2.461
		s-7.031-3.516-8.877-5.361c-1.934-1.846-2.9-3.34-2.9-4.57c0-1.318,1.582-4.043,4.746-8.086c3.164-3.955,5.273-5.977,6.24-5.977
		c0.439,0,1.582,0.703,3.252,2.021c3.955,3.252,7.559,4.834,10.635,4.834c6.064,0,10.635-2.461,13.535-7.383
		s4.395-11.162,4.395-18.721v-9.141h-9.316c-2.285,0-3.428-1.055-3.428-3.076v-14.414c0-2.197,1.055-3.252,3.076-3.252h9.668V484.24
		c0-10.986,1.23-18.545,3.779-22.5c-15.205-0.615-24.434-0.879-27.686-0.879c-4.922,0-8.877,1.406-11.865,4.131
		s-4.482,6.152-4.482,10.107c0,6.68,4.57,11.25,10.547,13.096c1.055,0.352,1.582,0.879,1.67,1.67c0,0.967-0.791,3.164-2.461,6.768
		s-3.164,6.328-4.395,8.174c-0.703,0.967-1.494,1.406-2.373,1.406c-4.57,0-9.756-2.725-15.469-8.086s-8.613-13.008-8.613-22.852
		c0-10.195,3.691-18.369,11.162-24.434s16.436-9.053,26.982-9.053c5.186,0,11.689,0.176,19.6,0.615
		c7.822,0.439,13.711,0.615,17.666,0.615c8.174,0,16.699-0.439,21.182-0.879c2.197-0.264,3.428-0.352,3.516-0.352
		c1.318,0,2.021,0.527,2.285,1.582C222.543,450.227,223.159,455.148,223.247,458.137z"/>
	<path d="M334.165,527.395c3.516,1.846,5.273,3.252,5.273,4.043c0,0.439-0.088,1.055-0.352,1.758
		c-2.9,9.492-7.91,17.666-15.205,24.434s-16.084,10.195-26.543,10.195c-8.789,0-15.908-2.461-21.445-7.295
		s-8.262-11.162-8.262-18.809c0-9.229,3.955-21.182,11.865-35.859l-0.352-0.527c-6.24,1.582-12.217,2.373-18.018,2.373
		c-2.9,0-5.537-0.176-8.086-0.615c-0.264,12.568-3.076,24.082-8.613,34.453c-0.439,0.791-0.967,1.23-1.494,1.23
		c-1.055,0-3.428-0.967-7.119-2.988c-3.779-2.021-5.625-3.428-5.625-4.395c0-0.264,0.176-0.879,0.527-2.021
		c4.57-9.404,6.855-19.072,6.855-29.092v-1.494c-2.373-1.318-4.482-2.725-6.328-4.131c-1.143-1.055-1.758-2.285-1.758-3.604
		c0-1.582,1.406-4.482,4.307-8.789c2.9-4.219,5.098-6.328,6.68-6.328c0.791-0.352,9.053,8.262,25.488,7.91
		c10.811,0.176,23.467-4.482,23.994-4.307c1.494,0,4.043,2.021,7.646,6.064c3.604,4.131,5.449,6.855,5.449,8.35
		c0,0.439-2.109,5.625-6.416,15.469s-6.504,17.666-6.504,23.555c0,6.68,3.691,11.162,11.689,11.162c5.273,0,10.02-2.197,14.238-6.68
		c4.131-4.395,7.295-9.58,9.492-15.469c0.439-0.967,0.967-1.406,1.67-1.406C328.276,524.582,330.561,525.549,334.165,527.395z"/>
	<path d="M333.725,555.959c-7.734-7.822-11.602-17.93-11.602-30.146c0-12.568,4.131-22.939,12.48-31.025
		c8.262-8.086,19.072-12.129,32.344-12.129c12.568,0,22.852,3.955,30.674,11.953s11.777,17.93,11.777,29.795
		c0,11.689-3.955,21.797-11.953,30.41c-7.998,8.701-18.984,13.008-33.047,13.008C351.655,567.824,341.459,563.869,333.725,555.959z
		 M380.571,542.336c3.516-5.01,5.273-11.162,5.273-18.633c0-6.768-1.67-12.305-5.01-16.611c-3.428-4.307-8.174-6.416-14.238-6.416
		c-6.504,0-11.602,2.461-15.381,7.471s-5.713,10.811-5.713,17.49c0,6.943,1.846,12.744,5.625,17.314s8.613,6.855,14.59,6.855
		C372.133,549.807,377.055,547.346,380.571,542.336z"/>
	<path d="M487.27,560.529c-5.186-4.834-7.822-10.898-7.822-18.105c0-3.252,0.176-7.734,0.439-13.623
		c0.264-5.801,0.439-10.195,0.439-13.184c0-8.877-3.34-13.359-10.107-13.359c-4.834,0-9.053,2.988-12.744,8.965
		c-3.779,6.064-6.504,12.92-8.174,20.566c-1.758,7.646-2.637,15.029-2.637,22.148v6.68c0,3.34-1.494,5.01-4.482,5.01h-13.535
		c-2.9,0-4.307-1.758-4.307-5.186V446.975c0-3.252,1.494-4.834,4.482-4.834h13.359c2.988,0,4.482,1.582,4.482,4.834v27.07
		c0,12.129-0.439,21.797-1.318,29.092l0.791,0.176c6.24-12.217,16.611-20.654,31.289-20.654c16.523,0,26.279,9.053,26.279,25.225
		c0,1.494-0.176,5.273-0.439,11.338s-0.439,10.986-0.439,14.59c0,9.58,3.076,14.414,9.141,14.326c4.131,0,8.086-2.285,11.953-6.855
		c3.779-4.482,6.768-9.668,8.965-15.469c0.352-0.791,0.879-1.23,1.582-1.23c0.967,0,3.164,0.967,6.767,2.813
		c3.516,1.846,5.273,3.252,5.273,4.043c0,0.439-0.088,1.055-0.352,1.758c-2.373,8.174-7.031,15.908-13.886,23.379
		c-6.943,7.471-15.469,11.25-25.664,11.25C498.959,567.824,492.456,565.363,487.27,560.529z"/>
	<path d="M541.938,556.047c-8.525-7.822-12.744-18.105-12.744-30.938c0-11.777,3.691-21.797,10.986-30.059
		c7.294-8.262,16.523-12.393,27.685-12.393c7.91,0,14.502,2.373,19.688,7.119s7.734,10.723,7.734,17.93
		c0,9.756-3.428,17.139-10.371,22.236s-15.645,7.646-26.191,7.646c-1.582,0-3.428-0.176-5.625-0.439
		c3.428,7.734,12.656,12.656,24.873,12.656c8.525,0,15.732-2.197,21.621-6.592s10.195-10.195,12.92-17.402
		c0.352-0.791,0.879-1.23,1.67-1.23c0.967,0,3.164,0.967,6.768,2.813c3.516,1.846,5.273,3.252,5.273,4.043
		c0,0.439-0.088,1.055-0.352,1.758c-3.076,10.547-9.141,18.984-18.105,25.225s-20.039,9.404-33.223,9.404
		C561.273,567.824,550.375,563.869,541.938,556.047z M570.59,518.43c4.219-2.549,6.328-6.152,6.328-10.986
		c0-5.01-3.516-8.438-9.229-8.438c-5.01,0-9.316,2.197-12.744,6.592c-3.516,4.395-5.186,9.404-5.01,15.029v1.23
		c1.67,0.264,3.34,0.352,5.186,0.352C561.186,522.209,566.371,520.979,570.59,518.43z"/>
	<path d="M635.189,565.715c-4.131-1.406-7.207-2.9-9.404-4.57c-2.197-1.582-3.34-2.813-3.34-3.779c0-1.494,1.055-4.131,3.164-8.086
		c2.021-3.867,3.516-5.801,4.395-5.801c0.088,0,2.109,0.791,5.889,2.285c3.779,1.582,7.031,2.373,9.756,2.373
		c4.219,0,7.646-1.406,10.283-4.131s3.955-5.977,3.955-9.668c0-7.119-3.955-11.777-12.656-18.721
		c-10.635-8.613-16.084-13.096-16.348-13.359l-0.527,0.352c0.352,1.934,0.527,4.307,0.527,7.207c0,4.834-0.791,10.283-2.461,16.348
		c-1.67,6.152-3.691,11.25-5.977,15.381c-0.439,0.791-0.879,1.23-1.318,1.23c-1.143,0-3.604-0.967-7.207-2.988
		c-3.691-2.021-5.537-3.428-5.537-4.395c0-0.088,0.527-1.406,1.582-3.955c3.955-8.35,5.977-18.018,5.977-28.828
		c0-2.988-0.176-6.592-0.527-10.723s-0.527-6.24-0.527-6.328c0-1.582,2.461-3.867,7.383-6.855s8.35-4.482,10.371-4.482
		c0.703,0,1.406,0.439,2.197,1.23c7.119,8.262,15.908,16.26,26.455,23.906c7.295,5.537,12.832,10.811,16.611,15.996
		c3.691,5.186,5.537,11.602,5.537,19.16c0,10.107-3.34,18.105-10.02,24.17s-15.293,9.141-25.84,9.141
		C643.363,567.824,639.232,567.121,635.189,565.715z"/>
	<path d="M557.934,740.529c-5.186-4.834-7.822-10.898-7.822-18.105c0-3.252,0.176-7.822,0.439-13.799
		c0.264-5.889,0.439-10.371,0.439-13.359c0-8.613-3.428-12.92-10.283-13.008c-3.603,0-6.855,1.758-9.931,5.186
		c-3.076,3.516-5.537,7.998-7.383,13.359c-3.691,10.811-6.064,23.379-6.064,34.189v5.625c0,3.34-1.494,5.01-4.482,5.01h-13.359
		c-2.988,0-4.482-1.67-4.482-5.01v-70.4c0-3.428,1.582-5.186,4.658-5.273h13.184c2.988,0,4.482,1.582,4.482,4.746
		c0,0.967-0.439,5.449-1.318,13.447l0.791,0.176c7.119-13.799,17.666-20.742,31.816-20.654c7.998,0,14.326,2.197,18.896,6.592
		c4.57,4.482,6.855,10.371,6.855,17.666c0,1.494-0.176,5.361-0.439,11.777s-0.439,11.514-0.439,15.117
		c0,9.58,2.988,14.414,8.965,14.326c4.131,0,8.086-2.197,11.953-6.68c3.779-4.395,6.855-9.58,9.141-15.645
		c0.352-0.791,0.879-1.23,1.582-1.23c0.967,0,3.164,0.967,6.768,2.813c3.516,1.846,5.273,3.252,5.273,4.043
		c0,0.439-0.088,1.055-0.352,1.758c-2.373,8.174-7.031,15.908-13.887,23.379c-6.943,7.471-15.469,11.25-25.664,11.25
		C569.623,747.824,563.119,745.363,557.934,740.529z"/>
	<path d="M612.602,736.047c-8.525-7.822-12.744-18.105-12.744-30.938c0-11.777,3.691-21.797,10.986-30.059
		s16.523-12.393,27.686-12.393c7.91,0,14.502,2.373,19.688,7.119s7.734,10.723,7.734,17.93c0,9.756-3.428,17.139-10.371,22.236
		s-15.645,7.646-26.191,7.646c-1.582,0-3.428-0.176-5.625-0.439c3.428,7.734,12.656,12.656,24.873,12.656
		c8.525,0,15.732-2.197,21.621-6.592s10.195-10.195,12.92-17.402c0.352-0.791,0.879-1.23,1.67-1.23c0.967,0,3.164,0.967,6.768,2.813
		c3.516,1.846,5.273,3.252,5.273,4.043c0,0.439-0.088,1.055-0.352,1.758c-3.076,10.547-9.141,18.984-18.105,25.225
		s-20.039,9.404-33.223,9.404C631.938,747.824,621.039,743.869,612.602,736.047z M641.254,698.43
		c4.219-2.549,6.328-6.152,6.328-10.986c0-5.01-3.516-8.438-9.229-8.438c-5.01,0-9.316,2.197-12.744,6.592
		c-3.516,4.395-5.186,9.404-5.01,15.029v1.23c1.67,0.264,3.34,0.352,5.186,0.352C631.85,702.209,637.035,700.979,641.254,698.43z"/>
	<path d="M689.506,739.475c-4.57-5.537-6.855-13.008-6.855-22.5v-47.285c0-3.076,1.494-4.658,4.482-4.746h14.063
		c2.988,0,4.482,1.494,4.482,4.57c0,3.604-0.176,10.371-0.439,20.479s-0.439,17.139-0.439,21.27
		c0,11.689,2.813,16.875,10.811,16.875c6.24,0,11.689-5.273,16.348-15.908s7.031-22.764,7.031-36.475v-6.064
		c0-3.076,1.406-4.658,4.307-4.746h14.238c2.988,0,4.482,1.582,4.482,4.746c0,0.791-0.264,6.855-0.879,18.193
		s-0.879,19.951-0.879,25.664c0,8.438,3.428,14.59,9.844,14.59c4.482,0,8.613-2.373,12.393-7.119
		c3.779-4.658,6.68-9.756,8.877-15.205c0.352-0.791,0.879-1.23,1.582-1.23c1.055,0,3.34,0.879,6.855,2.637
		c3.428,1.846,5.186,3.252,5.186,4.219c0,0.439-0.088,1.055-0.352,1.758c-2.9,9.229-7.734,17.314-14.678,24.258
		s-15.469,10.371-25.576,10.371c-7.207,0-12.92-1.67-17.227-5.186c-4.307-3.428-6.416-7.822-6.416-13.184
		c0-1.582,0.088-2.549,0.176-2.9l-0.703-0.176c-2.725,6.064-6.768,11.162-12.041,15.293s-11.602,6.152-19.072,6.152
		C700.58,747.824,694.076,745.012,689.506,739.475z"/>
	<path d="M800.424,736.047c-8.525-7.822-12.744-18.105-12.744-30.938c0-11.777,3.691-21.797,10.986-30.059
		s16.523-12.393,27.686-12.393c7.91,0,14.502,2.373,19.688,7.119s7.734,10.723,7.734,17.93c0,9.756-3.428,17.139-10.371,22.236
		s-15.645,7.646-26.191,7.646c-1.582,0-3.428-0.176-5.625-0.439c3.428,7.734,12.656,12.656,24.873,12.656
		c8.525,0,15.732-2.197,21.621-6.592s10.195-10.195,12.92-17.402c0.352-0.791,0.879-1.23,1.67-1.23c0.967,0,3.164,0.967,6.768,2.813
		c3.516,1.846,5.273,3.252,5.273,4.043c0,0.439-0.088,1.055-0.352,1.758c-3.076,10.547-9.141,18.984-18.105,25.225
		s-20.039,9.404-33.223,9.404C819.76,747.824,808.861,743.869,800.424,736.047z M829.076,698.43
		c4.219-2.549,6.328-6.152,6.328-10.986c0-5.01-3.516-8.438-9.229-8.438c-5.01,0-9.316,2.197-12.744,6.592
		c-3.516,4.395-5.186,9.404-5.01,15.029v1.23c1.67,0.264,3.34,0.352,5.186,0.352C819.672,702.209,824.857,700.979,829.076,698.43z"
		/>
	<path d="M893.676,745.715c-4.131-1.406-7.207-2.9-9.404-4.57c-2.197-1.582-3.34-2.813-3.34-3.779c0-1.494,1.055-4.131,3.164-8.086
		c2.021-3.867,3.516-5.801,4.395-5.801c0.088,0,2.109,0.791,5.889,2.285c3.779,1.582,7.031,2.373,9.756,2.373
		c4.219,0,7.646-1.406,10.283-4.131s3.955-5.977,3.955-9.668c0-7.119-3.955-11.777-12.656-18.721
		c-10.635-8.613-16.084-13.096-16.348-13.359l-0.527,0.352c0.352,1.934,0.527,4.307,0.527,7.207c0,4.834-0.791,10.283-2.461,16.348
		c-1.67,6.152-3.691,11.25-5.977,15.381c-0.439,0.791-0.879,1.23-1.318,1.23c-1.143,0-3.604-0.967-7.207-2.988
		c-3.691-2.021-5.537-3.428-5.537-4.395c0-0.088,0.527-1.406,1.582-3.955c3.955-8.35,5.977-18.018,5.977-28.828
		c0-2.988-0.176-6.592-0.527-10.723s-0.527-6.24-0.527-6.328c0-1.582,2.461-3.867,7.383-6.855s8.35-4.482,10.371-4.482
		c0.703,0,1.406,0.439,2.197,1.23c7.119,8.262,15.908,16.26,26.455,23.906c7.295,5.537,12.832,10.811,16.611,15.996
		c3.691,5.186,5.537,11.602,5.537,19.16c0,10.107-3.34,18.105-10.02,24.17s-15.293,9.141-25.84,9.141
		C901.85,747.824,897.719,747.121,893.676,745.715z"/>
	<path d="M206.459,816.027c0,1.143-0.703,2.109-2.109,2.9c-1.846,0.703-4.834,1.67-9.053,2.813
		c-0.439,2.285-0.703,7.91-0.703,16.963V928c0,13.447-3.34,24.434-9.932,33.047c-6.68,8.525-16.523,12.832-29.619,12.832
		c-13.975,0-23.906-7.119-28.477-19.072c-0.615-1.846-0.879-2.988-0.879-3.428c0-0.967,2.285-2.813,6.855-5.713
		c4.482-2.9,7.295-4.395,8.262-4.395c0.791,0,1.406,0.527,1.758,1.494c3.34,7.559,7.91,11.338,13.711,11.338
		c10.898,0,16.348-9.141,16.348-27.422v-78.135c0-10.459,1.143-17.666,3.428-21.709c-23.818,6.064-35.684,14.326-35.596,24.785
		c0,6.24,4.746,10.635,10.635,12.041c1.055,0.352,1.582,0.879,1.582,1.494c0,1.055-0.967,3.516-2.813,7.295
		c-1.846,3.867-3.428,6.504-4.57,7.998c-0.615,0.791-1.143,1.23-1.758,1.23c-5.537,0-10.898-2.813-16.172-8.35
		c-5.361-5.537-7.998-12.48-7.998-20.742c0-22.324,15.996-37.441,48.076-45.264c4.834-1.143,9.844-2.549,15.029-4.131
		c5.186-1.494,9.141-2.725,11.777-3.516s4.219-1.143,4.658-1.143c1.23,0,2.197,0.703,2.9,2.197
		C204.877,808.381,206.459,813.479,206.459,816.027z"/>
	<path d="M221.665,916.486c-6.328-7.559-9.492-17.49-9.492-29.707c0-12.568,3.604-23.115,10.898-31.553
		c7.295-8.35,16.436-12.568,27.598-12.568c9.844,0,18.105,3.076,24.873,9.141l0.527-0.176v-2.285c0-2.9,1.406-4.307,4.131-4.395
		h13.887c2.9,0,4.307,1.582,4.307,4.746c0,0.264-0.352,6.152-0.967,17.754c-0.703,11.689-1.055,20.303-1.055,25.928
		c0,8.438,3.604,14.766,9.58,14.766c4.219,0,8.174-2.197,11.953-6.68c3.691-4.395,6.768-9.58,9.141-15.645
		c0.352-0.791,0.791-1.23,1.406-1.23c0.967,0,3.252,0.967,6.855,2.813s5.361,3.252,5.361,4.043c0,0.439-0.088,1.055-0.352,1.758
		c-2.109,6.943-5.977,14.15-12.393,21.709s-16.611,12.92-27.949,12.92c-6.592,0-11.953-1.494-16.084-4.482
		c-4.131-2.9-6.24-6.943-6.24-12.129v-1.758l-0.703-0.176c-2.373,5.361-6.24,9.844-11.426,13.271
		c-5.186,3.516-11.514,5.273-18.809,5.273C236.254,927.824,227.905,924.045,221.665,916.486z M265.17,901.281
		c3.955-4.482,6.768-9.58,8.438-15.205c1.67-5.537,2.461-10.898,2.461-15.908c-5.537-5.273-11.426-7.91-17.666-7.91
		c-6.592,0-12.129,2.373-16.436,7.207c-4.395,4.834-6.592,10.986-6.592,18.545c0,5.977,1.494,10.811,4.482,14.502
		c2.988,3.779,6.855,5.625,11.514,5.625C256.645,908.137,261.215,905.852,265.17,901.281z"/>
	<path d="M389.36,920.529c-5.186-4.834-7.822-10.898-7.822-18.105c0-3.252,0.176-7.734,0.439-13.623
		c0.264-5.801,0.439-10.195,0.439-13.184c0-8.877-3.34-13.359-10.107-13.359c-4.834,0-9.053,2.988-12.744,8.965
		c-3.779,6.064-6.504,12.92-8.174,20.566c-1.758,7.646-2.637,15.029-2.637,22.148v6.68c0,3.34-1.494,5.01-4.482,5.01h-13.535
		c-2.9,0-4.307-1.758-4.307-5.186V806.975c0-3.252,1.494-4.834,4.482-4.834h13.359c2.988,0,4.482,1.582,4.482,4.834v27.07
		c0,12.129-0.439,21.797-1.318,29.092l0.791,0.176c6.24-12.217,16.611-20.654,31.289-20.654c16.523,0,26.279,9.053,26.279,25.225
		c0,1.494-0.176,5.273-0.439,11.338s-0.439,10.986-0.439,14.59c0,9.58,3.076,14.414,9.141,14.326c4.131,0,8.086-2.285,11.953-6.855
		c3.779-4.482,6.768-9.668,8.965-15.469c0.352-0.791,0.879-1.23,1.582-1.23c0.967,0,3.164,0.967,6.768,2.813
		c3.516,1.846,5.273,3.252,5.273,4.043c0,0.439-0.088,1.055-0.352,1.758c-2.373,8.174-7.031,15.908-13.887,23.379
		c-6.943,7.471-15.469,11.25-25.664,11.25C401.049,927.824,394.545,925.363,389.36,920.529z"/>
	<path d="M534.731,887.395c3.516,1.846,5.273,3.252,5.273,4.043c0,0.439-0.088,1.055-0.352,1.758
		c-2.9,9.492-7.91,17.666-15.205,24.434s-16.084,10.195-26.543,10.195c-8.789,0-15.908-2.461-21.445-7.295
		s-8.262-11.162-8.262-18.809c0-9.229,3.955-21.182,11.865-35.859l-0.352-0.527c-6.24,1.582-12.217,2.373-18.018,2.373
		c-2.9,0-5.537-0.176-8.086-0.615c-0.264,12.568-3.076,24.082-8.613,34.453c-0.439,0.791-0.967,1.23-1.494,1.23
		c-1.055,0-3.428-0.967-7.119-2.988c-3.779-2.021-5.625-3.428-5.625-4.395c0-0.264,0.176-0.879,0.527-2.021
		c4.57-9.404,6.855-19.072,6.855-29.092v-1.494c-2.373-1.318-4.482-2.725-6.328-4.131c-1.143-1.055-1.758-2.285-1.758-3.604
		c0-1.582,1.406-4.482,4.307-8.789c2.9-4.219,5.098-6.328,6.68-6.328c0.791-0.352,9.053,8.262,25.488,7.91
		c10.811,0.176,23.467-4.482,23.994-4.307c1.494,0,4.043,2.021,7.646,6.064c3.604,4.131,5.449,6.855,5.449,8.35
		c0,0.439-2.109,5.625-6.416,15.469s-6.504,17.666-6.504,23.555c0,6.68,3.691,11.162,11.689,11.162c5.273,0,10.02-2.197,14.238-6.68
		c4.131-4.395,7.295-9.58,9.492-15.469c0.439-0.967,0.967-1.406,1.67-1.406C528.842,884.582,531.127,885.549,534.731,887.395z"/>
	<path d="M560.307,915.344c0-6.943,5.361-11.865,12.832-11.865c7.119,0,12.217,4.307,12.217,11.689
		c0,7.471-4.746,12.656-12.744,12.656C565.492,927.824,560.307,922.814,560.307,915.344z M567.338,886.955
		c-2.637,0-3.955-1.406-3.955-4.307c0-4.307-0.264-15.557-0.791-33.75c-0.527-18.105-0.791-32.168-0.791-42.275
		c0-2.988,1.406-4.482,4.307-4.482h13.271c3.076,0,4.658,1.582,4.746,4.658c0,10.107-0.264,24.082-0.703,42.1
		c-0.527,18.018-0.791,29.18-0.791,33.486c0,2.988-1.406,4.482-4.307,4.57H567.338z"/>
</g>
</svg>
