<?xml version="1.0" encoding="utf-8"?>
<!-- Generator: Adobe Illustrator 15.1.0, SVG Export Plug-In . SVG Version: 6.00 Build 0)  -->
<!DOCTYPE svg PUBLIC "-//W3C//DTD SVG 1.1//EN" "http://www.w3.org/Graphics/SVG/1.1/DTD/svg11.dtd">
<svg version="1.1" id="vs_text" xmlns="http://www.w3.org/2000/svg" xmlns:xlink="http://www.w3.org/1999/xlink" x="0px" y="0px"
	 width="1080px" height="1080px" viewBox="0 0 1080 1080" enable-background="new 0 0 1080 1080" xml:space="preserve">
<g>
	<path d="M136.428,820.225c-0.64-1.408-1.664-5.376-3.712-5.376c-2.432,0-3.328,3.328-6.656,11.521l-7.809,19.329
		c-2.688,6.656-3.968,11.393-12.288,11.393c-7.168,0-9.089-4.48-11.393-10.368l-23.81-60.803c-3.584-9.217-8.704-4.48-8.704-12.289
		c0-8.832,17.281-9.088,23.169-9.088c18.689,0,21.889,2.943,21.889,8.191c0,3.84-2.944,4.353-2.944,8.32
		c0,3.713,3.968,13.057,4.48,14.594c0.64,2.047,3.456,11.008,6.4,11.008c3.328,0,6.016-9.217,6.656-11.137
		c0.384-0.768,1.664-4.096,1.664-4.992c0-1.152-2.688-9.088-6.528-11.264c-2.56-1.281-4.736-3.072-4.736-6.273
		c0-0.768-1.792-8.447,24.961-8.447c24.833,0,24.321,5.76,24.321,7.936c0,4.225-5.76,5.377-5.76,8.576
		c0,3.457,4.353,11.393,5.632,14.209c0.896,2.049,3.712,9.984,6.785,9.984c4.352,0,9.856-21.761,9.856-23.553
		c0-5.504-8.321-2.688-8.321-9.729c0-7.809,13.057-7.424,18.305-7.424c5.248,0,14.849,0.64,14.849,7.808
		c0,6.272-5.376,4.608-8.833,13.569l-22.017,57.602c-2.688,6.913-5.632,13.569-12.929,13.569c-6.4,0-8.448-3.456-10.752-8.833
		L136.428,820.225z"/>
	<path d="M230.197,826.241c-1.408,0-3.456-0.384-3.456,1.792c0,6.4,8.32,11.777,14.337,11.777c9.6,0,14.336-5.761,17.024-5.761
		c2.688,0,4.992,3.968,4.992,6.399c0,9.857-18.049,17.025-29.569,17.025c-23.041,0-34.945-16.641-34.945-33.153
		c0-19.713,16.769-34.05,35.97-34.05c21.761,0,31.361,16.77,31.361,26.369c0,8.449-3.84,9.601-7.937,9.601H230.197z
		 M241.334,810.112c0-4.608-2.816-8.192-7.553-8.192c-4.224,0-7.68,4.353-7.68,8.449c0,4.607,4.352,3.584,7.68,3.584
		C237.238,813.953,241.334,814.721,241.334,810.112z"/>
	<path d="M309.275,832.002c0,15.104,7.552,9.6,7.552,16.385c0,8.704-16.257,8.704-22.017,8.704c-22.018,0-22.913-4.992-22.913-8.064
		c0-4.608,5.248-4.864,6.784-8.833c1.664-4.479,1.92-23.041,0.512-27.777c-1.152-4.479-7.68-3.072-7.68-8.832
		c0-9.088,32.514-12.928,33.793-12.928c3.84,0,3.968,2.943,3.968,5.631V832.002z M283.93,786.56c-5.376,0-11.137-2.433-11.137-8.704
		c0-8.449,16.897-11.905,23.425-11.905c5.121,0,12.417,1.665,12.417,8.064C308.635,784,291.226,786.56,283.93,786.56z"/>
	<path d="M405.008,836.609c0,10.881,6.272,8.193,6.272,13.186c0,7.424-16.385,7.296-21.121,7.296c-3.968,0-19.457,0-19.457-6.528
		c0-3.713,3.584-3.584,4.608-10.113c0.769-4.096,0.896-8.576,0.896-12.8c0-6.4-0.128-18.433-9.217-18.433
		c-7.808,0-7.552,6.656-7.552,12.416v14.85c0,10.624,5.121,8.447,5.121,13.057c0,7.424-14.593,7.552-19.457,7.552
		c-18.305,0-22.529-3.841-22.529-7.809c0-5.12,4.992-2.815,7.168-11.136c1.536-6.018,1.536-22.914,1.536-29.954
		c0-5.761-0.384-11.648-0.512-17.409c-0.256-9.088-7.937-5.888-7.937-11.904c0-10.24,33.282-12.929,33.41-12.929
		c3.84,0,4.096,1.152,4.096,4.864l-0.768,24.321c-0.128,2.433-0.256,6.528,3.072,6.528c3.84,0,5.504-11.393,19.841-11.393
		c23.553,0,21.889,22.145,22.017,25.729L405.008,836.609z"/>
	<path d="M453.543,834.306c0,12.417,4.353,10.24,4.353,15.104c0,7.937-17.025,7.681-22.273,7.681c-5.12,0-18.177,0-18.177-7.681
		c0-6.145,5.889-0.64,6.272-13.185l0.512-19.2c0.256-9.473-7.552-6.4-7.552-13.186c0-6.784,29.441-13.184,32.001-13.184
		c2.816,0,4.608,2.432,4.608,4.992c0,0.768-0.128,1.535-0.128,2.304c0,1.536,0.64,3.328,2.56,3.328c2.048,0,3.2-2.688,5.76-5.376
		c2.561-2.561,6.4-5.248,13.697-5.248c26.498,0,22.017,25.984,23.297,45.441c0.64,10.112,5.888,7.809,5.888,13.313
		c0,2.305,0.512,7.681-23.553,7.681c-4.608,0-16.897,0.256-16.897-6.913c0-4.607,4.224-2.432,4.864-10.752
		c0.64-9.088,4.224-29.569-7.808-29.569c-8.192,0-7.425,8.833-7.425,14.593V834.306z"/>
	<path d="M574.811,825.09c0,22.528,7.68,10.24,7.68,17.152c0,7.297-9.984,15.232-19.328,15.232c-10.113,0-10.369-6.528-13.569-6.528
		c-1.536,0-3.2,1.664-6.017,3.2c-2.815,1.664-6.656,3.328-12.544,3.328c-10.625,0-21.249-5.633-21.249-18.305
		c0-9.088,8.704-20.354,31.233-20.354c3.968,0,5.761,0.256,5.761-4.352c0-4.225-0.129-13.057-6.017-13.057
		c-7.681,0-8.449,13.824-19.841,13.824c-4.097,0-7.169-2.943-7.169-7.04c0-10.88,21.633-17.921,33.794-17.921
		c7.296,0,27.266,2.816,27.266,22.018V825.09z M536.408,836.354c0,3.328,1.792,6.912,5.504,6.912c4.865,0,5.249-5.248,5.249-9.088
		c0-2.816,0.128-6.017-3.456-6.017C539.353,828.161,536.408,832.258,536.408,836.354z"/>
	<path d="M624.562,790.271c19.201,0,29.313,10.625,29.313,19.585c0,7.169-5.376,12.673-12.545,12.673
		c-13.824,0-7.424-15.873-17.536-15.873c-5.633,0-8.704,5.76-8.704,10.881c0,9.473,7.04,19.072,17.152,19.072
		c8.064,0,10.752-3.328,13.44-3.328c3.456,0,5.761,3.84,5.761,6.912c0,7.553-11.521,17.281-29.441,17.281
		c-19.329,0-34.946-14.209-34.946-33.793C587.056,805.248,603.057,790.271,624.562,790.271z"/>
	<path d="M741.133,836.609c0,10.881,6.271,8.193,6.271,13.186c0,7.424-16.385,7.296-21.121,7.296c-3.968,0-19.456,0-19.456-6.528
		c0-3.713,3.584-3.584,4.608-10.113c0.768-4.096,0.896-8.576,0.896-12.8c0-6.4-0.128-18.433-9.216-18.433
		c-7.809,0-7.553,6.656-7.553,12.416v14.85c0,10.624,5.12,8.447,5.12,13.057c0,7.424-14.593,7.552-19.457,7.552
		c-18.305,0-22.529-3.841-22.529-7.809c0-5.12,4.992-2.815,7.169-11.136c1.535-6.018,1.535-22.914,1.535-29.954
		c0-5.761-0.384-11.648-0.512-17.409c-0.256-9.088-7.936-5.888-7.936-11.904c0-10.24,33.281-12.929,33.409-12.929
		c3.84,0,4.096,1.152,4.096,4.864l-0.768,24.321c-0.128,2.433-0.256,6.528,3.072,6.528c3.84,0,5.504-11.393,19.841-11.393
		c23.553,0,21.889,22.145,22.017,25.729L741.133,836.609z"/>
	<path d="M790.513,828.033c0,8.576,3.584,10.625,7.04,10.625c3.969,0,6.272-2.944,8.576-2.944c2.561,0,4.353,3.584,4.353,5.888
		c0,8.449-14.593,15.873-27.521,15.873c-6.528,0-22.913-2.816-22.913-23.169v-26.369c0-2.304,0-3.2-0.64-3.585
		c-0.64-0.383-2.048-0.127-4.992-0.127c-3.328,0-4.992,0.127-5.633-0.512c-0.896-0.896-0.64-2.177-0.64-5.121
		c0-1.792-0.384-3.2,1.152-4.225l29.186-18.561c2.943-1.792,2.815-1.408,6.656-1.408c5.12,0,5.376-0.512,5.376,5.377
		c0,3.968-0.256,7.936,0.384,9.473c0.384,1.023,1.28,1.023,4.608,1.023h8.96c5.505,0,5.505,0.385,5.505,6.145
		c0,7.297-0.896,7.809-5.889,7.809h-8.832c-4.48,0-4.736,0.127-4.736,4.736V828.033z"/>
	<path d="M846.537,826.241c-1.407,0-3.455-0.384-3.455,1.792c0,6.4,8.32,11.777,14.336,11.777c9.601,0,14.337-5.761,17.025-5.761
		c2.688,0,4.992,3.968,4.992,6.399c0,9.857-18.049,17.025-29.569,17.025c-23.042,0-34.946-16.641-34.946-33.153
		c0-19.713,16.77-34.05,35.97-34.05c21.761,0,31.362,16.77,31.362,26.369c0,8.449-3.841,9.601-7.938,9.601H846.537z
		 M857.674,810.112c0-4.608-2.815-8.192-7.552-8.192c-4.225,0-7.681,4.353-7.681,8.449c0,4.607,4.353,3.584,7.681,3.584
		C853.578,813.953,857.674,814.721,857.674,810.112z"/>
	<path d="M924.719,834.306c0,12.417,4.353,10.24,4.353,15.104c0,7.937-17.024,7.681-22.272,7.681c-5.121,0-18.178,0-18.178-7.681
		c0-6.145,5.889-0.64,6.272-13.185l0.513-19.2c0.256-9.473-7.553-6.4-7.553-13.186c0-6.784,29.441-13.184,32.002-13.184
		c2.815,0,4.607,2.432,4.607,4.992c0,0.768-0.128,1.535-0.128,2.304c0,1.536,0.641,3.328,2.561,3.328c2.048,0,3.2-2.688,5.761-5.376
		c2.56-2.561,6.399-5.248,13.696-5.248c26.497,0,22.017,25.984,23.297,45.441c0.64,10.112,5.888,7.809,5.888,13.313
		c0,2.305,0.513,7.681-23.553,7.681c-4.608,0-16.896,0.256-16.896-6.913c0-4.607,4.225-2.432,4.864-10.752
		c0.64-9.088,4.224-29.569-7.809-29.569c-8.192,0-7.425,8.833-7.425,14.593V834.306z"/>
	<path d="M985.119,797.824c-5.376,0-9.6-3.84-9.6-9.345c0-11.009,11.008-24.321,30.977-24.321c13.313,0,31.618,8.832,31.618,24.065
		c0,7.808-4.864,13.952-14.337,17.536c-13.185,4.992-5.633,14.85-18.049,14.85c-5.248,0-8.576-3.201-8.576-8.449
		c0-10.88,11.008-16.641,11.008-27.648c0-2.688-1.151-6.529-4.479-6.529c-3.585,0-3.841,3.457-4.097,6.145
		C998.688,792.447,993.696,797.824,985.119,797.824z M1004.704,857.475c-7.808,0-14.208-6.4-14.208-14.209s6.4-14.209,14.208-14.209
		c7.809,0,14.209,6.4,14.209,14.209S1012.513,857.475,1004.704,857.475z"/>
</g>
<g>
	<path d="M106.494,111.649c-0.575,20.325-21.667,22.242-27.036,22.242c-11.121,0-27.707-4.602-27.707-18.312
		c0-6.231,4.314-11.504,10.738-11.504c5.561,0,11.121,3.451,11.121,9.491c0,1.63-0.671,3.26-0.671,4.506
		c0,2.397,1.918,3.739,4.219,3.547c11.313-1.15,5.944-20.708,6.711-37.965c0.479-10.642-8.628-4.985-8.628-11.409
		c0-1.822,0.767-7.958,19.461-7.958c18.12,0,20.229,4.41,20.229,7.095c0,4.985-7.478,2.684-7.669,10.737L106.494,111.649z"/>
	<path d="M162.922,109.636c0,16.873,5.752,7.669,5.752,12.847c0,5.465-7.478,11.409-14.477,11.409c-7.574,0-7.765-4.89-10.163-4.89
		c-1.15,0-2.396,1.247-4.506,2.397c-2.109,1.246-4.985,2.493-9.395,2.493c-7.958,0-15.915-4.218-15.915-13.709
		c0-6.807,6.519-15.244,23.393-15.244c2.972,0,4.314,0.192,4.314-3.26c0-3.164-0.096-9.779-4.506-9.779
		c-5.752,0-6.328,10.354-14.86,10.354c-3.068,0-5.369-2.205-5.369-5.273c0-8.149,16.202-13.422,25.31-13.422
		c5.465,0,20.42,2.109,20.42,16.49V109.636z M134.161,118.072c0,2.493,1.342,5.177,4.122,5.177c3.643,0,3.931-3.931,3.931-6.807
		c0-2.109,0.096-4.506-2.588-4.506C136.366,111.937,134.161,115.004,134.161,118.072z"/>
	<path d="M179.708,146.546c0-1.63,4.793-7.382,4.793-11.217c0-4.123-10.546-2.109-10.546-13.709c0-6.136,4.985-11.601,11.217-11.601
		c8.725,0,12.751,8.437,12.751,16.106c0,8.533-5.848,24.16-13.422,24.16C182.488,150.285,179.708,148.751,179.708,146.546z"/>
</g>
<g>
	<path d="M641.023,114.813c0,11.313,5.656,7.19,5.656,12.271c0,6.52-12.176,6.52-16.49,6.52c-16.489,0-17.16-3.739-17.16-6.04
		c0-3.451,3.931-3.643,5.081-6.615c1.246-3.355,1.438-17.256,0.384-20.804c-0.863-3.355-5.752-2.301-5.752-6.615
		c0-6.807,24.351-9.683,25.31-9.683c2.876,0,2.972,2.205,2.972,4.218V114.813z M622.041,80.778c-4.026,0-8.341-1.821-8.341-6.519
		c0-6.328,12.655-8.916,17.544-8.916c3.836,0,9.3,1.247,9.3,6.04C640.544,78.861,627.506,80.778,622.041,80.778z"/>
	<path d="M674.836,84.134c1.727,0.384,3.26,0.671,3.932,0.671c0.959,0,1.726-0.288,2.588-0.671c0.863-0.288,1.727-0.575,2.589-0.575
		c4.41,0,8.82,8.82,8.82,12.751c0,2.588-2.205,4.506-4.698,4.506c-5.465,0-8.532-7.574-12.75-7.574c-1.727,0-3.451,1.438-3.451,3.26
		c0,6.136,21.091,7.286,21.091,22.146c0,9.012-8.724,15.244-18.694,15.244c-1.918,0-4.698-0.288-7.095-0.671
		c-2.397-0.288-4.506-0.575-5.081-0.575c-0.672,0-1.246,0.096-1.918,0.192c-0.574,0.096-1.15,0.192-1.821,0.192
		c-1.917,0-2.876-0.288-4.218-1.822c-2.397-2.684-4.794-8.149-4.794-11.792c0-2.493,0.862-4.506,3.644-4.506
		c4.218,0,8.053,9.491,13.422,9.491c1.917,0,3.738-0.959,3.738-3.068c0-5.656-18.791-6.328-18.791-22.146
		c0-9.587,7.861-15.627,17.736-15.627C671.002,83.559,673.016,83.846,674.836,84.134z"/>
	<path d="M726.653,111.841c0,6.423,2.685,7.957,5.272,7.957c2.973,0,4.698-2.205,6.424-2.205c1.918,0,3.26,2.685,3.26,4.41
		c0,6.328-10.93,11.888-20.612,11.888c-4.89,0-17.161-2.109-17.161-17.353v-19.75c0-1.726,0-2.397-0.479-2.685
		s-1.534-0.096-3.739-0.096c-2.492,0-3.738,0.096-4.218-0.384c-0.671-0.671-0.479-1.629-0.479-3.834
		c0-1.342-0.287-2.397,0.863-3.164l21.858-13.901c2.205-1.342,2.109-1.055,4.985-1.055c3.835,0,4.026-0.384,4.026,4.026
		c0,2.972-0.191,5.944,0.288,7.095c0.287,0.767,0.958,0.767,3.451,0.767h6.711c4.122,0,4.122,0.288,4.122,4.602
		c0,5.464-0.671,5.848-4.41,5.848h-6.614c-3.355,0-3.548,0.096-3.548,3.547V111.841z"/>
	<path d="M833.835,116.347c0,6.711,5.081,4.506,5.081,9.491c0,7.286-20.996,7.766-22.051,7.766c-4.889,0-1.438-5.273-4.602-5.273
		c-0.862,0-2.301,1.342-4.506,2.78c-2.205,1.342-5.177,2.78-9.395,2.78c-12.56,0-22.339-13.326-22.339-25.118
		c0-12.751,10.354-25.214,23.585-25.214c6.615,0,10.354,2.876,11.408,2.876c1.438,0,1.534-3.164,1.534-4.218
		c0-5.944-6.999-2.78-6.999-7.958c0-7.094,24.447-8.916,24.734-8.916c2.877,0,3.548,2.013,3.548,5.177V116.347z M807.087,94.009
		c-6.423,0-7.573,11.025-7.573,15.531c0,4.506,1.15,12.367,7.094,12.367c6.424,0,6.04-11.792,6.04-16.011
		C812.647,102.158,812.647,94.009,807.087,94.009z"/>
	<path d="M864.475,110.499c-1.055,0-2.589-0.288-2.589,1.342c0,4.793,6.231,8.82,10.737,8.82c7.19,0,10.738-4.314,12.751-4.314
		c2.014,0,3.739,2.972,3.739,4.793c0,7.382-13.518,12.751-22.146,12.751c-17.257,0-26.173-12.463-26.173-24.831
		c0-14.764,12.56-25.502,26.94-25.502c16.298,0,23.488,12.559,23.488,19.75c0,6.328-2.877,7.19-5.944,7.19H864.475z M872.814,98.419
		c0-3.452-2.108-6.136-5.656-6.136c-3.163,0-5.752,3.259-5.752,6.327c0,3.452,3.26,2.685,5.752,2.685
		C869.747,101.295,872.814,101.87,872.814,98.419z"/>
	<path d="M921.113,116.539c0,9.299,3.26,7.669,3.26,11.313c0,5.944-12.751,5.752-16.682,5.752c-3.835,0-13.613,0-13.613-5.752
		c0-4.602,4.41-0.479,4.697-9.875l0.383-14.381c0.192-7.094-5.656-4.793-5.656-9.875s22.051-9.875,23.969-9.875
		c2.108,0,3.451,1.822,3.451,3.739c0,0.575-0.096,1.15-0.096,1.726c0,1.15,0.479,2.493,1.917,2.493c1.534,0,2.396-2.013,4.313-4.027
		c1.918-1.917,4.794-3.931,10.259-3.931c19.845,0,16.489,19.462,17.448,34.034c0.479,7.574,4.41,5.848,4.41,9.971
		c0,1.726,0.384,5.752-17.641,5.752c-3.451,0-12.654,0.191-12.654-5.177c0-3.451,3.164-1.821,3.643-8.053
		c0.479-6.807,3.164-22.146-5.848-22.146c-6.136,0-5.561,6.615-5.561,10.929V116.539z"/>
	<path d="M988.911,116.539c0,9.299,3.26,7.669,3.26,11.313c0,5.944-12.751,5.752-16.682,5.752c-3.835,0-13.614,0-13.614-5.752
		c0-4.602,4.41-0.479,4.698-9.875l0.384-14.381c0.191-7.094-5.656-4.793-5.656-9.875s22.05-9.875,23.967-9.875
		c2.109,0,3.451,1.822,3.451,3.739c0,0.575-0.096,1.15-0.096,1.726c0,1.15,0.479,2.493,1.918,2.493c1.533,0,2.396-2.013,4.314-4.027
		c1.917-1.917,4.793-3.931,10.258-3.931c19.846,0,16.49,19.462,17.448,34.034c0.479,7.574,4.41,5.848,4.41,9.971
		c0,1.726,0.384,5.752-17.64,5.752c-3.452,0-12.655,0.191-12.655-5.177c0-3.451,3.163-1.821,3.643-8.053
		c0.479-6.807,3.164-22.146-5.848-22.146c-6.136,0-5.561,6.615-5.561,10.929V116.539z"/>
	<path d="M530.43,693.482c0,8.148,4.698,6.135,4.698,9.874c0,5.561-12.271,5.465-15.819,5.465c-2.972,0-14.572,0-14.572-4.89
		c0-2.78,2.684-2.684,3.451-7.574c0.575-3.067,0.671-6.423,0.671-9.586c0-4.794-0.096-13.807-6.902-13.807
		c-5.848,0-5.656,4.986-5.656,9.301v11.12c0,7.958,3.834,6.327,3.834,9.779c0,5.56-10.929,5.656-14.572,5.656
		c-13.709,0-16.874-2.876-16.874-5.849c0-3.834,3.739-2.109,5.369-8.34c1.15-4.506,1.15-17.162,1.15-22.435
		c0-4.313-0.288-8.724-0.384-13.038c-0.191-6.807-5.944-4.41-5.944-8.916c0-7.67,24.926-9.684,25.022-9.684
		c2.876,0,3.068,0.863,3.068,3.644l-0.575,18.216c-0.096,1.821-0.192,4.889,2.301,4.889c2.876,0,4.123-8.532,14.86-8.532
		c17.64,0,16.394,16.586,16.49,19.271L530.43,693.482z"/>
	<path d="M560.369,685.717c-1.055,0-2.589-0.288-2.589,1.342c0,4.793,6.231,8.82,10.737,8.82c7.191,0,10.738-4.314,12.752-4.314
		c2.013,0,3.738,2.973,3.738,4.793c0,7.383-13.518,12.752-22.146,12.752c-17.256,0-26.172-12.464-26.172-24.831
		c0-14.765,12.559-25.502,26.94-25.502c16.298,0,23.488,12.56,23.488,19.749c0,6.328-2.877,7.191-5.944,7.191H560.369z
		 M568.71,673.637c0-3.451-2.109-6.136-5.656-6.136c-3.164,0-5.753,3.259-5.753,6.327c0,3.451,3.26,2.685,5.753,2.685
		C565.643,676.513,568.71,677.088,568.71,673.637z"/>
	<path d="M616.078,687.059c0,3.835,0.287,9.779,5.465,9.779c6.902,0,5.943-9.013,5.943-13.614c0-3.163,0.096-7.286-0.383-10.354
		c-0.768-4.793-5.465-3.163-5.465-7.189c0-5.656,19.27-6.615,22.913-6.615c3.451,0,4.89,2.014,4.89,5.369
		c0,3.067-0.191,6.039-0.191,9.107v19.27c0,5.752,5.272,3.068,5.272,7.67c0,6.52-16.97,8.341-22.242,8.341
		c-7.382,0-2.493-5.753-6.327-5.753c-1.055,0-2.589,1.438-4.89,2.877c-2.302,1.438-5.369,2.876-9.587,2.876
		c-18.216,0-16.682-14.381-16.682-28.761c0-14.669-6.615-8.246-6.615-14.573c0-6.136,24.159-6.423,24.926-6.423
		c2.686,0,2.973,1.246,2.973,3.643V687.059z"/>
	<path d="M685.275,687.059c0,6.424,2.686,7.957,5.273,7.957c2.973,0,4.697-2.205,6.424-2.205c1.917,0,3.26,2.685,3.26,4.41
		c0,6.328-10.93,11.889-20.613,11.889c-4.889,0-17.16-2.109-17.16-17.354v-19.749c0-1.726,0-2.397-0.479-2.685
		s-1.534-0.096-3.739-0.096c-2.492,0-3.738,0.096-4.219-0.384c-0.67-0.671-0.479-1.63-0.479-3.835c0-1.342-0.288-2.396,0.862-3.164
		l21.858-13.9c2.205-1.342,2.109-1.055,4.986-1.055c3.834,0,4.025-0.384,4.025,4.026c0,2.972-0.191,5.944,0.288,7.095
		c0.288,0.767,0.959,0.767,3.451,0.767h6.711c4.123,0,4.123,0.288,4.123,4.603c0,5.464-0.671,5.848-4.41,5.848h-6.615
		c-3.355,0-3.548,0.096-3.548,3.547V687.059z"/>
	<path d="M760.725,659.352c1.725,0.384,3.259,0.672,3.93,0.672c0.959,0,1.727-0.288,2.589-0.672
		c0.862-0.287,1.726-0.575,2.589-0.575c4.41,0,8.82,8.82,8.82,12.751c0,2.588-2.205,4.506-4.698,4.506
		c-5.464,0-8.532-7.574-12.751-7.574c-1.726,0-3.451,1.438-3.451,3.26c0,6.137,21.092,7.287,21.092,22.146
		c0,9.012-8.725,15.244-18.695,15.244c-1.917,0-4.697-0.288-7.094-0.672c-2.396-0.287-4.506-0.575-5.082-0.575
		c-0.67,0-1.246,0.097-1.917,0.192c-0.575,0.096-1.15,0.191-1.821,0.191c-1.918,0-2.876-0.287-4.219-1.822
		c-2.396-2.684-4.793-8.148-4.793-11.791c0-2.493,0.862-4.506,3.643-4.506c4.219,0,8.053,9.49,13.422,9.49
		c1.918,0,3.739-0.959,3.739-3.067c0-5.656-18.791-6.327-18.791-22.146c0-9.587,7.862-15.627,17.736-15.627
		C756.889,658.776,758.902,659.064,760.725,659.352z"/>
	<path d="M810.461,658.776c14.38,0,21.954,7.958,21.954,14.669c0,5.368-4.026,9.49-9.396,9.49c-10.354,0-5.561-11.888-13.135-11.888
		c-4.218,0-6.519,4.314-6.519,8.149c0,7.094,5.272,14.285,12.847,14.285c6.039,0,8.053-2.493,10.066-2.493
		c2.588,0,4.314,2.876,4.314,5.177c0,5.656-8.629,12.943-22.051,12.943c-14.477,0-26.173-10.643-26.173-25.311
		C782.37,669.994,794.354,658.776,810.461,658.776z"/>
	<path d="M895.852,693.482c0,8.148,4.697,6.135,4.697,9.874c0,5.561-12.271,5.465-15.818,5.465c-2.973,0-14.572,0-14.572-4.89
		c0-2.78,2.684-2.684,3.451-7.574c0.575-3.067,0.671-6.423,0.671-9.586c0-4.794-0.096-13.807-6.902-13.807
		c-5.849,0-5.657,4.986-5.657,9.301v11.12c0,7.958,3.836,6.327,3.836,9.779c0,5.56-10.93,5.656-14.572,5.656
		c-13.71,0-16.874-2.876-16.874-5.849c0-3.834,3.739-2.109,5.369-8.34c1.15-4.506,1.15-17.162,1.15-22.435
		c0-4.313-0.288-8.724-0.384-13.038c-0.191-6.807-5.943-4.41-5.943-8.916c0-7.67,24.926-9.684,25.021-9.684
		c2.877,0,3.068,0.863,3.068,3.644l-0.575,18.216c-0.097,1.821-0.192,4.889,2.301,4.889c2.876,0,4.122-8.532,14.86-8.532
		c17.64,0,16.394,16.586,16.489,19.271L895.852,693.482z"/>
	<path d="M902.148,685.621c0-17.162,15.053-26.845,30.871-26.845c16.777,0,26.364,13.134,26.364,25.022
		c0,15.723-16.873,25.311-30.966,25.311C914.229,709.109,902.148,700.768,902.148,685.621z M928.896,670.09
		c-3.163,0-4.889,2.972-4.697,5.752c0.384,6.039,2.109,20.804,8.725,21.188c3.643,0.191,4.41-2.877,4.41-5.944
		C937.334,686.771,935.416,670.09,928.896,670.09z"/>
	<path d="M988.911,691.756c0,9.3,3.259,7.67,3.259,11.313c0,5.944-12.75,5.753-16.682,5.753c-3.834,0-13.613,0-13.613-5.753
		c0-4.602,4.41-0.479,4.697-9.874l0.385-14.381c0.191-7.095-5.657-4.794-5.657-9.874c0-5.082,22.051-9.875,23.968-9.875
		c2.109,0,3.451,1.821,3.451,3.738c0,0.576-0.096,1.15-0.096,1.727c0,1.15,0.479,2.492,1.918,2.492c1.533,0,2.396-2.014,4.314-4.027
		c1.917-1.916,4.793-3.93,10.258-3.93c19.846,0,16.49,19.461,17.448,34.033c0.479,7.574,4.41,5.849,4.41,9.971
		c0,1.727,0.384,5.753-17.64,5.753c-3.452,0-12.656,0.191-12.656-5.177c0-3.451,3.164-1.822,3.644-8.054
		c0.479-6.807,3.164-22.146-5.848-22.146c-6.136,0-5.561,6.615-5.561,10.929V691.756z"/>
</g>
</svg>
