<?xml version="1.0" encoding="utf-8"?>
<!-- Generator: Adobe Illustrator 15.1.0, SVG Export Plug-In . SVG Version: 6.00 Build 0)  -->
<!DOCTYPE svg PUBLIC "-//W3C//DTD SVG 1.1//EN" "http://www.w3.org/Graphics/SVG/1.1/DTD/svg11.dtd">
<svg version="1.1" id="vs_text" xmlns="http://www.w3.org/2000/svg" xmlns:xlink="http://www.w3.org/1999/xlink" x="0px" y="0px"
	 width="1080px" height="1080px" viewBox="0 0 1080 1080" enable-background="new 0 0 1080 1080" xml:space="preserve">
<g>
	<path d="M137.41,136.417c0,6.825,0,13.439,0.21,16.904c-0.735,1.261-3.675,2.415-6.195,2.415c-0.104,0-3.569-5.354-8.504-11.444
		l-24.254-30.029c-6.09-7.455-9.555-11.865-11.445-13.439c-0.524,1.05-0.524,2.835-0.524,6.72v20.369
		c0,8.505,0.42,16.379,1.575,19.214c0.945,2.205,3.36,2.939,6.089,3.359l2.94,0.42c0.84,0.841,0.63,3.045,0,3.676
		c-5.67-0.211-9.87-0.315-14.07-0.315c-3.885,0-7.77,0.104-11.759,0.315c-0.63-0.631-0.84-2.835,0-3.676l1.785-0.314
		c2.834-0.525,4.935-1.26,5.774-3.465c1.155-2.835,1.47-10.709,1.47-19.214v-26.669c0-5.775-0.104-7.455-0.735-8.924
		c-0.84-1.785-2.31-3.045-5.985-3.57l-2.939-0.42c-0.735-0.84-0.63-3.359,0.42-3.675c4.935,0.21,10.185,0.315,14.489,0.315
		c3.57,0,6.615-0.105,8.819-0.315c1.05,4.725,7.875,12.705,17.325,23.939l8.82,10.395c4.62,5.459,7.664,9.134,10.079,11.549
		c0.42-1.05,0.42-2.835,0.42-4.725v-14.489c0-8.504-0.42-16.379-1.575-19.214c-0.945-2.205-3.255-2.94-6.09-3.36l-2.834-0.42
		c-0.84-0.84-0.63-3.045,0-3.675c5.669,0.21,9.765,0.315,14.069,0.315c3.885,0,7.665-0.105,11.759-0.315
		c0.63,0.63,0.84,2.835,0,3.675l-1.89,0.315c-2.729,0.42-4.725,1.26-5.669,3.465c-1.155,2.834-1.575,10.709-1.575,19.214V136.417z"
		/>
	<path d="M194.288,140.407c0,6.194,0.315,8.925,2.835,8.925c1.365,0,2.94-0.42,4.2-0.84c0.945,0.21,1.05,3.989-0.315,4.515
		c-10.29,0.42-19.109,3.779-19.424,3.779c-0.735-0.104-1.155-0.63-1.26-1.26c0.21-1.26,0.315-2.939,0.315-3.779
		c0-0.63-0.525-1.05-1.155-1.05c-4.095,2.624-7.77,5.039-14.279,5.039c-8.715,0-12.285-4.515-12.285-13.439v-17.849
		c0-5.565-0.63-6.09-3.15-6.825l-1.365-0.42c-0.734-0.945-0.63-2.94,0.42-3.675c3.465-0.105,7.14-0.42,10.185-0.945
		c3.15-0.524,6.195-1.785,6.615-1.785c0.63,0,1.155,0.735,1.26,1.26c-0.21,2.625-0.315,5.459-0.315,9.239v17.324
		c0,5.04,0.735,9.45,7.455,9.45c2.94,0,4.62-1.365,5.46-1.995c0.735-0.525,1.155-2.101,1.155-3.15v-19.844
		c0-4.2-0.735-5.145-4.515-5.67l-1.47-0.21c-0.84-0.735-0.735-3.255,0.525-3.675c3.779-0.21,7.56-0.63,10.919-1.05
		c3.675-0.525,6.825-1.68,7.455-1.68c0.42,0,0.945,0.525,1.05,1.26c-0.104,1.89-0.315,5.354-0.315,9.239V140.407z"/>
	<path d="M212.548,126.443c0-4.2,0-5.46-1.995-6.72l-1.47-0.945c-0.735-0.63-0.735-2.52,0-3.15c4.83-1.365,12.074-4.2,15.329-6.3
		c0.84,0,1.47,0.315,1.89,0.945c-0.21,2.1-0.42,3.57-0.42,4.515c0,0.735,0.21,1.05,1.05,1.26c2.834-1.785,5.879-5.25,10.289-5.25
		c2.835,0,5.775,2.205,5.775,6.195c0,4.83-3.36,6.825-6.72,6.825c-1.47,0-2.73-0.63-4.095-1.89c-2.415-1.995-3.36-2.1-3.99-2.1
		c-1.47,0-1.995,2.31-1.995,6.3v15.959c0,7.35,0.42,8.189,3.885,8.505l3.36,0.314c0.84,0.631,0.84,3.045-0.105,3.676
		c-5.04-0.211-9.239-0.315-14.174-0.315c-4.305,0-8.924,0.104-12.389,0.315c-0.945-0.631-0.945-3.045-0.105-3.676l1.995-0.209
		c3.465-0.315,3.885-1.261,3.885-8.61V126.443z"/>
	<path d="M273.551,88.329c-0.84-0.84-0.84-3.359,0.315-3.675c3.57,0.21,8.084,0.315,13.229,0.315c3.465,0,6.51,0,10.29-0.315
		c0,6.51,3.675,12.915,8.295,22.784l6.93,14.805c0.945,2.1,4.725,8.714,6.194,11.339c1.365-2.52,3.045-5.775,5.88-11.97
		l5.355-11.549c5.04-10.814,7.665-16.379,9.975-25.409c4.83,0.42,7.245,0.315,10.395,0.315c3.465,0,8.294-0.105,12.075-0.315
		c1.155,0.63,1.155,2.625,0.314,3.675l-3.045,0.525c-4.305,0.735-6.404,1.995-6.404,7.56c0,21.629,0.21,32.969,0.84,46.198
		c0.21,4.829,0.63,7.35,4.725,7.874l3.36,0.42c0.84,0.841,0.84,3.256-0.21,3.676c-4.83-0.211-9.345-0.315-14.49-0.315
		c-4.725,0-10.5,0.104-15.54,0.315c-1.26-0.525-1.365-2.94-0.314-3.676l3.149-0.42c4.83-0.63,4.83-1.89,4.83-8.294l-0.21-27.299
		v-11.969h-0.21c-7.77,16.799-16.169,34.333-23.099,52.078c-0.525,0.42-1.26,0.734-2.1,0.734c-0.945,0-2.1-0.21-2.729-0.63
		c-4.095-13.02-17.01-39.059-22.89-52.708h-0.21c-0.42,6.825-0.524,11.445-0.63,16.904c-0.105,6.825-0.21,17.325-0.21,23.624
		c0,5.25,0.63,6.72,4.83,7.35l4.095,0.63c0.84,0.735,0.63,3.15-0.21,3.676c-3.885-0.211-8.399-0.315-12.39-0.315
		c-3.36,0-7.35,0.104-11.55,0.315c-1.365-0.42-1.365-3.15-0.42-3.676l1.89-0.314c5.355-0.945,5.985-1.575,6.615-8.085
		c0.525-5.145,0.84-14.279,1.47-24.254c0.42-7.035,0.63-15.539,0.63-21.209c0-5.985-2.31-7.56-6.509-8.295L273.551,88.329z"/>
	<path d="M412.137,140.407c0,6.194,0.315,8.925,2.835,8.925c1.365,0,2.94-0.42,4.2-0.84c0.945,0.21,1.05,3.989-0.315,4.515
		c-10.29,0.42-19.109,3.779-19.424,3.779c-0.735-0.104-1.155-0.63-1.26-1.26c0.21-1.26,0.315-2.939,0.315-3.779
		c0-0.63-0.525-1.05-1.155-1.05c-4.095,2.624-7.77,5.039-14.279,5.039c-8.715,0-12.285-4.515-12.285-13.439v-17.849
		c0-5.565-0.63-6.09-3.15-6.825l-1.365-0.42c-0.734-0.945-0.63-2.94,0.42-3.675c3.465-0.105,7.14-0.42,10.185-0.945
		c3.15-0.524,6.195-1.785,6.615-1.785c0.63,0,1.155,0.735,1.26,1.26c-0.21,2.625-0.315,5.459-0.315,9.239v17.324
		c0,5.04,0.735,9.45,7.455,9.45c2.94,0,4.62-1.365,5.46-1.995c0.735-0.525,1.155-2.101,1.155-3.15v-19.844
		c0-4.2-0.735-5.145-4.515-5.67l-1.47-0.21c-0.84-0.735-0.735-3.255,0.525-3.675c3.779-0.21,7.56-0.63,10.919-1.05
		c3.675-0.525,6.825-1.68,7.455-1.68c0.42,0,0.945,0.525,1.05,1.26c-0.104,1.89-0.315,5.354-0.315,9.239V140.407z"/>
	<path d="M441.37,117.938c-1.365,0-1.47,0.105-1.47,2.415v15.75c0,5.88,0,12.39,7.35,12.39c1.47,0,3.15-0.735,4.41-1.575
		c1.05,0.315,1.68,1.47,1.47,2.729c-2.939,3.15-8.609,6.09-15.119,6.09c-8.715,0-11.76-5.039-11.76-11.969v-23.415
		c0-2.205-0.104-2.415-1.995-2.415H421c-1.155-0.42-1.47-2.52-0.63-3.255c3.255-1.155,6.195-3.045,8.715-4.725
		c1.89-1.365,4.515-3.57,7.77-8.19c0.735-0.42,2.625-0.315,3.15,0.525v7.875c0,1.995,0.104,2.1,1.995,2.1h9.345
		c0.525,0.42,0.84,1.05,0.84,1.995c0,1.155-0.315,3.045-1.365,3.675H441.37z"/>
	<path d="M458.296,147.232c0-4.936,3.78-8.715,8.505-8.715c5.04,0,8.504,4.2,8.504,8.715c0,4.829-3.465,8.504-8.504,8.504
		C462.601,155.736,458.296,152.377,458.296,147.232z"/>
</g>
<g>
	<path d="M533.937,112.269c0,2.939,0.105,3.149,2.94,3.149h7.245c5.46,0,6.72-0.735,7.77-5.774l0.525-2.625
		c0.734-0.84,3.359-0.84,3.885,0.105c-0.21,3.36-0.315,7.14-0.315,11.129c0,3.99,0.105,7.77,0.315,11.13
		c-0.525,0.945-3.15,1.05-3.885,0.104l-0.525-2.625c-1.05-5.04-2.31-5.88-7.77-5.88h-7.245c-2.835,0-2.94,0.105-2.94,3.255v12.495
		c0,4.83,0.42,8.189,1.68,9.975c1.365,1.89,3.36,2.729,11.024,2.729c9.135,0,12.705-0.314,18.479-12.179
		c0.84-1.155,3.465-0.735,3.885,0.525c-0.42,5.46-2.939,13.965-4.409,16.8c-5.565-0.211-15.645-0.315-24.254-0.315h-13.649
		c-5.04,0-10.185,0.104-18.059,0.315c-0.84-0.631-0.84-3.15,0-3.676l4.935-0.734c4.725-0.735,5.354-1.365,5.354-11.024V99.984
		c0-9.555-0.63-10.185-5.354-11.129l-2.625-0.525c-0.945-0.63-0.84-3.045,0.21-3.675c4.935,0.21,10.08,0.315,15.12,0.315h22.259
		c6.72,0,12.704-0.105,14.069-0.315c0.104,1.68,0.84,9.24,1.364,16.274c-0.42,1.155-2.834,1.365-3.885,0.42
		c-1.154-3.675-2.625-6.825-3.989-8.294c-1.995-1.995-5.146-3.255-10.29-3.255h-8.399c-3.465,0-3.465,0.21-3.465,4.095V112.269z"/>
	<path d="M575.295,152.481c-1.154-2.1-1.89-7.14-1.68-11.864c0.631-1.05,2.94-1.155,3.57-0.21
		c1.365,4.305,5.354,10.499,10.709,10.499c3.15,0,5.46-1.89,5.46-5.459c0-3.885-3.359-6.09-6.93-7.875
		c-6.3-3.15-10.814-6.93-10.814-13.229c0-9.135,7.665-13.544,16.694-13.544c5.355,0,10.08,1.365,11.234,2.205
		c1.051,2.31,1.575,6.51,1.575,10.5c-0.42,1.155-3.045,1.155-3.675,0.42c-2.1-6.09-4.725-8.295-8.189-8.295
		c-3.045,0-5.25,1.785-5.25,4.62c0,2.415,1.995,4.41,6.72,6.72c7.14,3.465,11.55,7.875,11.55,14.699
		c-0.105,9.345-8.085,14.069-17.955,14.069C582.33,155.736,578.131,154.687,575.295,152.481z"/>
	<path d="M668.848,112.269c6.614,0,11.864-0.105,18.584-0.315c1.154,0.105,1.05,3.255,0.314,3.675l-1.574,0.315
		c-2.416,0.525-3.885,1.05-3.885,1.575c0,0.84,0.209,1.47,0.84,3.255c1.89,5.04,4.829,11.865,7.139,16.904
		c2.521-6.09,4.2-11.234,5.881-16.064c0.629-1.89,0.944-3.36,0.944-4.095c0-0.525-0.84-1.05-2.625-1.47l-1.784-0.42
		c-0.631-0.735-0.631-3.255,0.42-3.675c3.465,0.21,5.984,0.315,8.609,0.315c3.045,0,5.774-0.105,8.084-0.315
		c0.945,0.42,1.155,2.73,0.315,3.675l-1.47,0.315c-3.465,0.735-4.2,1.785-5.88,5.669c-4.83,10.709-9.659,22.259-14.069,33.389
		c-0.63,0.63-1.365,0.734-2.415,0.734s-1.785-0.104-2.415-0.734c-2.205-5.67-7.664-17.955-10.814-24.674
		c-2.73,5.459-9.029,19.424-11.444,24.674c-0.63,0.63-1.365,0.734-2.415,0.734s-1.785-0.104-2.415-0.734
		c-5.04-11.865-10.185-23.939-15.329-34.859c-1.471-3.045-2.52-3.465-4.305-3.99l-1.891-0.525c-0.734-0.84-0.734-3.149,0.315-3.675
		c4.305,0.21,7.665,0.315,12.074,0.315H668.848z M666.012,116.573c-1.47-0.315-3.149-0.42-5.039-0.42
		c-3.36,0-5.355,0.42-5.355,1.575c0,0.63,0.315,1.89,0.945,3.465c1.47,3.675,5.67,13.125,7.455,16.484
		c1.47-2.835,5.039-10.395,5.564-12.495c0.314-1.365,0.314-2.31,0.314-3.149C669.896,120.353,668.112,116.993,666.012,116.573z"/>
	<path d="M732.109,142.087c0,7.35,0.42,8.295,3.885,8.61l1.995,0.209c0.84,0.631,0.84,3.045-0.105,3.676
		c-3.675-0.211-7.77-0.315-12.6-0.315c-4.725,0-9.134,0.104-12.599,0.315c-0.945-0.631-0.945-3.045-0.105-3.676l1.995-0.209
		c3.465-0.315,3.885-1.261,3.885-8.61v-15.854c0-4.2,0-5.46-1.995-6.72l-1.47-0.945c-0.735-0.63-0.735-2.521,0-3.15
		c4.935-1.365,12.39-4.2,15.539-6.09c0.84,0,1.47,0.315,1.89,0.945c-0.21,3.15-0.314,7.77-0.314,12.494V142.087z M732.949,94.629
		c0,5.04-3.885,7.665-7.875,7.665c-4.619,0-7.35-3.15-7.35-7.455c0-4.62,3.675-7.665,7.875-7.665
		C730.01,87.174,732.949,90.429,732.949,94.629z"/>
	<path d="M749.508,126.443c0-4.2,0-5.46-1.995-6.72l-1.47-0.945c-0.735-0.63-0.735-2.52,0-3.15c4.83-1.365,12.074-4.2,15.329-6.3
		c0.84,0,1.47,0.315,1.89,0.945c-0.21,2.1-0.42,3.57-0.42,4.515c0,0.735,0.21,1.05,1.051,1.26c2.834-1.785,5.879-5.25,10.289-5.25
		c2.835,0,5.774,2.205,5.774,6.195c0,4.83-3.359,6.825-6.72,6.825c-1.47,0-2.729-0.63-4.095-1.89c-2.415-1.995-3.359-2.1-3.989-2.1
		c-1.471,0-1.995,2.31-1.995,6.3v15.959c0,7.35,0.42,8.189,3.885,8.505l3.36,0.314c0.84,0.631,0.84,3.045-0.105,3.676
		c-5.04-0.211-9.24-0.315-14.175-0.315c-4.305,0-8.925,0.104-12.39,0.315c-0.944-0.631-0.944-3.045-0.104-3.676l1.995-0.209
		c3.465-0.315,3.885-1.261,3.885-8.61V126.443z"/>
	<path d="M827.74,137.047c0,9.87,0.42,12.285,2.415,12.285c1.89,0,2.729-0.21,4.515-0.84c1.155,0.944,1.155,3.569,0.105,4.515
		c-10.395,0.63-18.585,3.779-18.899,3.779c-0.735,0-1.575-0.63-1.785-1.47l0.315-3.255c-0.105-0.84-0.525-1.155-0.945-0.84
		c-3.675,2.31-7.455,4.515-11.34,4.515c-11.969,0-20.054-9.345-20.054-20.684c0-14.804,11.13-24.254,24.989-24.254
		c2.31,0,4.829,0.21,5.984,0.525c0.734-0.315,1.05-1.155,1.05-1.995V95.889c0-4.199,0-5.354-2.1-6.614l-1.785-1.05
		c-0.84-0.63-0.735-2.52,0-3.15c4.515-1.05,10.919-3.57,16.064-5.879c0.735,0,1.364,0.21,1.784,0.735
		c-0.209,4.305-0.314,8.715-0.314,15.329V137.047z M814.091,123.083c0-1.68-0.315-2.73-0.735-3.57
		c-1.26-2.205-3.569-3.885-5.984-3.885c-5.354,0-10.604,5.565-10.604,16.59c0,6.93,3.149,16.484,11.76,16.484
		c1.47,0,2.939-0.42,4.305-1.261c1.155-0.734,1.26-2.1,1.26-3.989V123.083z"/>
	<path d="M914.152,114.683c0.735,0.63,0.945,1.47,0.945,2.625c0,1.68-0.525,3.57-1.575,4.2h-7.77c0.21,0.945,0.315,1.89,0.315,3.675
		c0,8.295-4.936,18.374-21.524,18.374c-1.68,0-3.149-0.21-4.305-0.314c-1.05,0.42-1.785,1.26-1.785,2.52
		c0,2.311,2.205,3.78,5.354,3.78c3.57,0,7.875-0.21,12.81-0.21c7.875,0,16.274,2.1,16.274,12.704c0,6.615-3.989,12.495-9.449,15.854
		c-5.46,3.255-12.285,4.62-18.375,4.62c-15.119,0-20.578-6.93-20.578-13.439c0-2.521,1.574-4.2,3.359-5.25
		c2.1-1.26,3.99-2.625,5.145-3.255c1.26-0.735,0.945-1.26,0.105-1.47c-3.885-1.261-6.51-4.726-6.51-8.399
		c0-0.841,0.21-1.681,0.734-2.205c2.94-1.891,6.09-4.305,6.721-4.936c0.944-0.734,1.364-1.364,0.84-2.31
		c-5.25-2.1-8.925-7.14-8.925-13.544c0-8.714,6.824-16.904,20.474-16.904c6.195,0,11.76,1.785,15.645,3.885H914.152z
		 M884.544,160.146c-2.835,0-4.935,0.63-5.88,1.365c-1.05,0.944-1.47,2.31-1.47,3.675c0,7.14,5.354,11.759,13.649,11.759
		c6.615,0,11.024-3.255,11.024-8.294c0-6.09-4.515-8.505-10.29-8.505H884.544z M886.854,138.832c3.255,0,5.985-3.045,5.985-10.709
		c0-8.504-3.045-12.495-6.825-12.495c-3.255,0-6.404,3.15-6.404,10.29C879.609,133.897,882.654,138.832,886.854,138.832z"/>
	<path d="M964.814,140.407c0,6.194,0.314,8.925,2.834,8.925c1.365,0,2.94-0.42,4.2-0.84c0.945,0.21,1.05,3.989-0.315,4.515
		c-10.289,0.42-19.108,3.779-19.424,3.779c-0.734-0.104-1.154-0.63-1.26-1.26c0.21-1.26,0.314-2.939,0.314-3.779
		c0-0.63-0.524-1.05-1.154-1.05c-4.095,2.624-7.77,5.039-14.279,5.039c-8.715,0-12.285-4.515-12.285-13.439v-17.849
		c0-5.565-0.63-6.09-3.149-6.825l-1.365-0.42c-0.734-0.945-0.63-2.94,0.42-3.675c3.465-0.105,7.14-0.42,10.185-0.945
		c3.15-0.524,6.195-1.785,6.615-1.785c0.63,0,1.154,0.735,1.26,1.26c-0.21,2.625-0.314,5.459-0.314,9.239v17.324
		c0,5.04,0.734,9.45,7.454,9.45c2.94,0,4.62-1.365,5.46-1.995c0.734-0.525,1.154-2.101,1.154-3.15v-19.844
		c0-4.2-0.734-5.145-4.514-5.67l-1.471-0.21c-0.84-0.735-0.734-3.255,0.525-3.675c3.779-0.21,7.56-0.63,10.92-1.05
		c3.674-0.525,6.824-1.68,7.454-1.68c0.42,0,0.945,0.525,1.05,1.26c-0.104,1.89-0.314,5.354-0.314,9.239V140.407z"/>
	<path d="M994.047,117.938c-1.365,0-1.471,0.105-1.471,2.415v15.75c0,5.88,0,12.39,7.35,12.39c1.471,0,3.15-0.735,4.41-1.575
		c1.05,0.315,1.68,1.47,1.47,2.729c-2.939,3.15-8.609,6.09-15.119,6.09c-8.715,0-11.76-5.039-11.76-11.969v-23.415
		c0-2.205-0.104-2.415-1.995-2.415h-3.254c-1.155-0.42-1.471-2.52-0.631-3.255c3.255-1.155,6.195-3.045,8.715-4.725
		c1.891-1.365,4.515-3.57,7.77-8.19c0.735-0.42,2.625-0.315,3.15,0.525v7.875c0,1.995,0.104,2.1,1.994,2.1h9.346
		c0.524,0.42,0.84,1.05,0.84,1.995c0,1.155-0.315,3.045-1.365,3.675H994.047z"/>
	<path d="M1010.973,147.232c0-4.936,3.78-8.715,8.505-8.715c5.04,0,8.505,4.2,8.505,8.715c0,4.829-3.465,8.504-8.505,8.504
		C1015.277,155.736,1010.973,152.377,1010.973,147.232z"/>
</g>
</svg>
