<?xml version="1.0" encoding="utf-8"?>
<!-- Generator: Adobe Illustrator 15.1.0, SVG Export Plug-In . SVG Version: 6.00 Build 0)  -->
<!DOCTYPE svg PUBLIC "-//W3C//DTD SVG 1.1//EN" "http://www.w3.org/Graphics/SVG/1.1/DTD/svg11.dtd">
<svg version="1.1" id="vs_text" xmlns="http://www.w3.org/2000/svg" xmlns:xlink="http://www.w3.org/1999/xlink" x="0px" y="0px"
	 width="1080px" height="1080px" viewBox="0 0 1080 1080" enable-background="new 0 0 1080 1080" xml:space="preserve">
<g>
	<path d="M107.637,930.362c0.768,0,1.152,0.384,1.152,1.536c0.384,6.144,1.92,13.44,7.296,21.888
		c5.76,9.217,15.744,13.824,25.344,13.824c10.368,0,24.96-6.527,24.96-22.464c0-17.664-8.064-23.424-28.417-31.104
		c-6.144-2.304-18.816-7.68-28.032-16.128c-6.528-6.144-9.6-15.744-9.6-27.456c0-10.752,4.224-19.584,13.44-26.88
		c7.68-6.528,16.128-9.217,27.264-9.217c12.672,0,20.352,3.072,24.192,4.608c1.92,0.768,3.072,0.384,4.032-0.576l2.496-2.496
		c0.768-0.768,1.536-1.151,2.688-1.151s1.536,1.151,1.536,3.071c0,3.072,3.072,29.952,3.072,31.873c0,0.768-0.384,1.151-1.152,1.344
		l-3.072,0.96c-0.768,0.191-1.536,0-1.92-1.152c-1.92-5.376-4.992-13.056-11.904-20.352c-4.992-5.376-11.136-8.064-19.968-8.064
		c-15.36,0-21.504,12.288-21.504,19.393c0,6.527,0.768,12.288,5.376,17.279c4.992,4.992,15.744,9.601,23.424,11.904
		c11.136,3.456,20.352,7.296,27.648,14.977c6.144,6.527,9.6,14.592,9.6,27.456c0,23.424-15.36,42.624-40.705,42.624
		c-15.744,0-24.96-3.456-32.64-9.216c-2.304-1.536-3.456-2.304-4.608-2.304s-1.92,1.535-3.072,3.456
		c-1.152,1.92-1.92,2.304-3.456,2.304c-1.536,0-2.304-1.152-2.304-3.072c0.384-2.304,3.072-33.408,3.456-35.712
		c0.192-1.152,0.384-1.536,1.152-1.536L107.637,930.362z"/>
	<path d="M275.98,958.395c0.576,0.576,0.768,1.344,0,2.304c-4.8,5.952-18.24,14.784-32.448,14.784
		c-13.056,0-23.424-3.456-30.72-12.672c-7.296-9.216-9.216-16.896-9.216-26.496c0-12.096,4.608-25.536,14.208-34.368
		c8.064-7.296,17.28-11.136,28.032-11.136c22.272,0,27.264,11.52,27.264,17.279c0,4.608-3.072,8.448-8.448,8.448
		c-6.528,0-9.6-4.607-11.52-9.6c-2.688-6.528-6.912-7.872-11.904-7.872c-7.68,0-17.28,8.64-17.28,22.271
		c0,11.521,0.384,19.393,7.488,31.104c5.184,8.448,13.632,10.368,19.776,10.368c9.6,0,15.552-3.264,20.736-7.296
		c0.384-0.384,1.152-0.384,1.728,0.192L275.98,958.395z"/>
	<path d="M351.264,931.131c0-9.984,0-20.736-4.992-25.729c-3.072-3.072-6.144-4.608-10.752-4.608c-4.992,0-9.984,2.688-14.208,6.912
		c-1.536,1.92-3.456,5.76-3.456,9.408v41.473c0,6.144,0.768,8.063,3.456,8.063h4.608c1.152,0,1.92,0.385,1.92,1.729v3.456
		c0,1.151-0.384,1.92-1.536,1.92c-1.536,0-9.984-0.576-19.968-0.576c-11.904,0-19.2,0.576-20.736,0.576
		c-0.96,0-1.536-0.384-1.536-1.536v-4.224c0-0.96,0.768-1.345,1.728-1.345h4.8c3.072,0,5.76-0.768,6.336-3.071
		c0.768-3.841,0.96-14.977,0.96-23.809l-0.384-68.545c0-10.752-2.304-14.592-8.832-17.279l-3.456-1.152
		c-1.152-0.384-1.536-0.769-1.536-1.536v-1.92c0-0.768,0.384-1.152,2.688-2.304c5.76-1.536,18.816-8.064,24.96-11.137
		c2.304-0.768,3.456-1.536,5.376-1.536c1.536,0,1.92,1.536,1.536,4.608c-0.384,3.456-0.384,42.24-0.384,51.648v11.904h1.152
		c5.376-7.488,15.744-11.712,24.768-11.712c8.448,0,13.44,2.688,19.2,7.68c8.832,7.68,8.448,17.28,8.448,28.225v36.864
		c0,2.688,3.456,3.071,6.528,3.071h3.456c1.536,0,1.92,0.385,1.92,1.345v4.224c0,0.96-0.384,1.536-1.536,1.536
		c-1.152,0-7.296-0.576-19.008-0.576c-11.52,0-18.432,0.576-20.352,0.576c-1.152,0-1.536-0.384-1.536-1.344v-4.608
		c0-0.768,0.384-1.152,1.344-1.152h3.264c2.304,0,4.992-0.768,5.376-3.84c0.384-2.688,0.384-12.672,0.384-18.816V931.131z"/>
	<path d="M406.463,864.698c-0.384-6.528-3.648-9.601-9.792-11.521l-3.84-1.152c-1.152-0.384-1.152-0.768-1.152-1.535v-2.305
		c0-0.384,0.384-1.151,1.536-1.536c7.68-2.304,22.656-7.296,28.8-11.136c2.304-0.768,3.456-1.152,4.224-1.152
		c1.152,0,1.92,0.769,1.92,3.456c-0.384,10.368-0.768,50.305-0.768,60.865v27.647c0,8.832,0,28.416,0.384,34.177
		c0.384,3.456,0.768,6.144,4.992,6.144h7.296c1.92,0,2.304,0.385,2.304,1.729v3.456c0,1.151-0.384,1.92-1.152,1.92
		c-1.536,0-9.984-0.576-23.424-0.576c-14.592,0-22.272,0.576-23.809,0.576c-1.152,0-1.536-0.769-1.536-1.92v-3.648
		c0-1.151,0.384-1.536,2.688-1.536h7.296c1.92,0,4.8-1.536,4.8-6.912v-60.096C407.231,886.202,406.847,869.69,406.463,864.698z"/>
	<path d="M494.955,963.771c-4.224,4.608-9.216,7.872-16.704,10.368c-4.416,1.344-8.448,1.344-12.288,1.344
		c-7.104,0-13.248-5.76-13.248-16.512c0-8.832,3.84-17.473,17.664-23.616c11.904-5.76,19.2-8.832,23.424-11.904v-9.984
		c-0.384-3.84-0.768-8.447-3.072-10.752c-1.92-2.111-5.376-2.88-9.6-2.88c-3.456,0-8.064,1.152-11.136,3.456
		c-2.688,1.92-0.768,4.8-0.768,9.408c0,6.912-3.456,11.136-11.52,11.136c-3.456,0-6.528-2.304-6.528-6.527
		c0-5.376,3.072-11.521,8.832-15.744c8.064-6.145,18.432-10.752,31.104-10.752c10.752,0,14.208,2.304,17.664,5.376
		c4.224,3.84,4.608,9.216,4.608,14.399l0.384,30.337v9.216c0,10.368,1.536,13.44,4.992,13.44c2.688,0,5.376-1.536,6.145-3.072
		c0.768-1.152,1.152-1.152,1.92-0.769l2.304,1.536c0.768,0.384,1.152,1.152,0.384,3.072c-1.92,3.456-6.528,11.136-17.664,11.136
		c-7.296,0-13.44-3.456-16.128-11.712H494.955z M493.803,930.555c-8.448,5.376-21.12,8.64-21.12,22.656
		c0,7.872,4.224,11.712,8.832,11.712c5.376-0.384,12.288-5.76,12.288-9.216V930.555z"/>
	<path d="M573.424,919.418c0,15.36-0.191,36.48,0.191,41.856c0.385,3.456,1.921,5.376,5.377,5.376h8.832
		c1.535,0,1.92,0.385,1.92,1.729v3.456c0,1.151-0.385,1.92-1.152,1.92c-1.152,0-8.447-0.576-25.344-0.576
		c-11.521,0-21.504,0.576-23.041,0.576c-1.152,0-1.536-0.384-1.536-1.536v-4.416c0-0.768,0.384-1.152,1.92-1.152h7.68
		c3.84,0,4.992-2.304,4.992-6.527v-57.601h-13.056c-0.768,0-1.152-0.576-0.96-2.112l0.768-6.528c0-0.768,0.96-0.96,2.496-0.96
		h10.752v-3.647c0-19.584,5.76-32.257,14.208-41.089c10.368-9.983,20.736-13.824,32.257-13.824c10.367,0,18.815,3.841,18.815,11.904
		c0,5.376-5.76,9.216-9.6,9.216c-2.304,0-4.608-0.384-6.145-1.535c-2.304-0.769-4.224-3.072-5.376-4.992
		c-2.304-3.456-4.992-4.992-7.68-4.992c-4.608,0-8.448,1.152-11.904,6.144c-4.992,6.912-4.225,22.272-4.416,36.673v6.144h22.848
		c1.537,0,1.537,0.96,1.537,1.729l-0.961,6.912c-0.191,0.768-0.96,0.96-2.496,0.96h-20.928V919.418z"/>
	<path d="M620.961,930.555c0,19.584,14.016,31.104,24.96,31.104c11.903,0,19.2-4.991,23.231-11.136
		c0.769-1.344,1.537-1.344,2.305-0.96l2.88,1.729c0.96,0.575,1.344,1.344,0,3.84c-4.032,7.296-13.824,20.352-34.944,20.352
		c-12.288,0-20.928-2.688-27.648-10.368c-8.832-10.176-10.752-19.775-10.752-31.68c0-10.561,1.152-17.664,9.408-28.416
		c8.064-10.368,16.704-14.208,33.408-14.208c21.889,0,28.992,22.848,28.992,30.72c0,2.88-1.92,3.072-5.376,3.072h-46.464V930.555z
		 M644.769,917.69c4.032,0,6.336-1.152,6.336-2.688c0-5.76-1.92-17.088-11.903-17.088c-9.408,0-15.168,6.912-17.664,19.776H644.769z
		"/>
	<path d="M707.359,892.346c1.535-0.768,2.688-1.535,3.84-1.535c1.151,0,1.92,0.768,2.304,2.304l1.536,9.984h1.152
		c2.304-2.688,5.76-5.761,9.6-7.681c4.607-2.688,9.6-4.607,15.359-4.607c6.529,0,12.673,1.151,16.896,4.607
		c8.448,6.145,10.561,11.904,10.561,19.776v27.648c0,6.144-0.192,14.592-0.192,18.432c0,4.225,2.304,5.376,4.608,5.376h5.376
		c1.728,0,2.304,0.385,2.304,1.345v4.416c0,0.96-0.384,1.344-1.536,1.344c-1.536,0-7.296-0.576-20.735-0.576
		c-11.521,0-17.664,0.576-18.816,0.576s-1.536-0.769-1.536-2.304v-3.265c0-1.151,0.384-1.536,2.304-1.536h3.84
		c1.536,0,3.072-1.151,3.457-4.607c0.575-4.992,0.768-10.368,0.768-18.049v-22.08c0-7.68-0.385-12.672-4.992-16.512
		c-3.84-3.456-7.296-3.456-11.52-3.456c-3.072,0-7.681,0.768-12.289,4.992c-3.072,3.072-4.031,8.448-4.031,13.632v39.553
		c0,4.224,0.959,6.527,3.647,6.527h3.456c1.536,0,1.92,0.385,1.92,1.729v3.456c0,1.151-0.384,1.92-1.535,1.92
		c-1.152,0-6.529-0.576-18.049-0.576c-11.904,0-18.048,0.576-19.2,0.576c-0.769,0-1.151-0.769-1.151-1.92v-3.648
		c0-1.151,0.383-1.536,1.92-1.536h3.84c2.304,0,4.992-0.768,4.992-3.84v-43.2c0-5.76-3.457-8.832-8.064-11.136l-1.536-0.769
		c-1.151-0.384-1.536-1.151-1.536-1.92v-1.536c0-0.768,0.768-1.536,1.92-1.92L707.359,892.346z"/>
	<path d="M796.484,963.194c0-4.224,3.264-11.903,13.057-11.903c6.911,0,12.287,5.376,12.287,12.672c0,6.912-4.8,11.52-12.479,11.52
		C803.204,975.482,796.484,972.026,796.484,963.194z M806.66,933.818c-1.152,0-1.152-0.768-1.152-1.92
		c-1.151-18.433-8.447-67.2-8.447-75.265c0-8.063,3.84-14.592,11.904-14.592c7.68,0,12.672,4.224,12.287,13.056
		c0,8.064-8.832,59.137-9.6,77.185c0,1.152-0.384,1.536-1.536,1.536H806.66z"/>
</g>
<g>
	<path d="M101.406,156.555c-1.08-0.81-1.62-1.08-2.07-1.08c-0.54,0-0.9,0.63-1.44,1.53c-0.54,0.99-0.99,1.08-1.62,1.08
		c-0.54,0-0.99-0.45-0.81-1.44c0.36-2.25,1.26-13.679,1.53-16.289c0.09-0.54,0.27-0.54,0.63-0.54l1.35,0.09
		c0.36,0,0.54,0.181,0.54,0.721c0.09,2.88,0.27,5.85,3.24,10.439c2.7,4.229,7.65,6.659,12.6,6.659c5.4,0,12.239-3.33,12.239-11.43
		c0-9.27-6.66-12.689-13.859-15.209c-2.79-0.99-9.27-3.24-13.139-7.29c-2.97-2.97-4.5-7.199-4.5-13.139c0-4.5,2.79-8.91,5.58-11.52
		c3.24-3.061,7.74-4.32,12.6-4.32c5.13,0,9.089,1.53,10.62,2.25c0.81,0.45,1.26,0.36,1.71-0.09l1.17-1.08
		c0.45-0.36,0.72-0.54,1.17-0.54s0.72,0.72,0.72,1.53c0,3.149,1.17,12.329,1.26,14.309c0,0.45-0.09,0.631-0.45,0.721l-1.08,0.27
		c-0.271,0.09-0.45,0-0.54-0.27c-0.72-2.61-1.89-6.12-5.58-9.99c-2.43-2.609-5.58-3.869-9.81-3.869
		c-8.01,0-10.89,5.939-10.89,10.529c0,2.52,0.54,5.489,2.79,7.83c2.61,2.609,7.649,4.589,10.26,5.399
		c6.209,1.979,11.25,3.51,14.489,7.47c2.34,2.79,3.96,6.3,3.96,12.239c0,10.62-6.48,19.709-18.359,19.709
		C109.416,161.234,105.006,159.345,101.406,156.555z"/>
	<path d="M149.052,133.696c0-3.061-0.54-4.681-5.04-5.4c-0.63-0.09-0.81-0.27-0.81-0.63v-0.81c0-0.271,0.18-0.45,0.63-0.63
		c2.88-1.08,6.3-2.521,9.72-4.41c0.72-0.36,1.17-0.54,1.71-0.54c0.45,0,0.54,0.45,0.45,1.08c-0.18,1.53-0.18,7.199-0.18,14.669v9.81
		c0,3.51,0,6.75,0.09,7.74c0.18,1.71,0.45,2.34,1.44,2.34h4.14c0.72,0,0.9,0.27,0.9,0.81v1.53c0,0.63-0.18,0.899-0.81,0.899
		c-0.72,0-4.86-0.27-8.64-0.27c-5.22,0-8.729,0.27-9.72,0.27c-0.45,0-0.72-0.18-0.72-0.72v-1.8c0-0.54,0.27-0.72,0.9-0.72h4.41
		c0.99,0,1.35-0.36,1.44-1.8c0.09-2.7,0.09-5.49,0.09-8.189V133.696z M144.822,106.067c0-2.341,1.98-5.04,5.669-5.04
		c3.33,0,4.86,2.699,4.86,4.77c0,2.43-1.62,5.31-5.4,5.31C147.881,111.106,144.822,109.037,144.822,106.067z"/>
	<path d="M182.9,133.065c0,4.681,0,18.27,0.09,21.06c0.09,1.53,0.45,2.79,2.34,2.79h4.05c0.81,0,0.99,0.27,0.99,0.81v1.53
		c0,0.54-0.18,0.899-0.54,0.899c-0.63,0-4.59-0.27-10.169-0.27c-5.76,0-9.359,0.27-10.169,0.27c-0.45,0-0.63-0.359-0.63-0.899v-1.53
		c0-0.63,0.18-0.81,1.17-0.81h4.32c0.99,0,1.89-0.63,1.979-2.25c0.09-2.79,0.09-18.27,0.09-23.489v-5.67
		c0-6.39-0.09-14.579-0.27-16.919c-0.18-3.06-1.62-4.5-4.5-5.399l-1.8-0.631c-0.45-0.18-0.54-0.27-0.54-0.449v-0.721
		c0-0.27,0.27-0.449,0.81-0.63c3.15-1.439,7.2-3.06,10.53-5.22c0.81-0.54,1.35-0.72,1.89-0.72c0.63,0,0.81,0.45,0.72,1.62
		c-0.09,4.949-0.36,23.669-0.36,28.619V133.065z"/>
	<path d="M213.311,151.605h0.27c1.44-3.51,7.74-18.989,8.64-22.499c0.63-2.431,0-3.87-1.62-3.87h-1.8c-0.27,0-0.36-0.45-0.36-0.9
		v-1.62c0-0.539,0.18-0.72,0.54-0.72c1.26,0,3.24,0.271,7.199,0.271c3.51,0,5.67-0.271,6.48-0.271c0.72,0,0.81,0.09,0.81,0.811
		v1.529c0,0.63,0,0.9-0.45,0.9h-1.71c-1.08,0-1.979,0.18-2.79,0.99c-1.35,1.26-5.85,11.159-7.2,14.489
		c-1.08,2.699-7.74,17.819-8.1,18.449c-0.72,1.26-1.17,2.069-2.16,2.069c-0.9,0-1.44-0.81-1.89-1.89l-7.02-18.27
		c-0.27-0.72-3.959-11.069-4.59-12.509c-1.17-2.61-2.07-3.33-3.69-3.33h-1.8c-0.45,0-0.54-0.36-0.54-0.9v-1.62
		c0-0.63,0.18-0.72,0.99-0.72c0.99,0,2.52,0.271,7.56,0.271c4.77,0,7.11-0.271,8.1-0.271c0.72,0,0.9,0.181,0.9,0.72v1.62
		c0,0.54-0.09,0.9-0.63,0.9h-1.8c-0.9,0-1.62,0.54-1.62,1.71c0,1.62,2.34,9.18,2.88,10.709
		C208.451,139.365,212.32,149.715,213.311,151.605z"/>
	<path d="M243.884,135.945c-0.18,0.811-0.27,2.25-0.27,4.32c0,8.819,5.58,15.479,12.78,15.479c5.489,0,9.359-3.15,10.889-6.12
		c0.18-0.359,0.54-0.54,0.81-0.45l1.17,0.63c0.27,0.091,0.45,0.36,0,1.351c-1.62,3.6-6.3,9.81-14.31,9.81
		c-5.13,0-10.799-1.53-14.129-6.39c-3.15-4.59-3.96-7.92-3.96-14.22c0-3.51,0.899-9.539,5.669-14.31c3.87-3.96,8.37-4.77,12.87-4.77
		c10.35,0,13.229,9.72,13.229,13.229c0,1.26-1.08,1.439-2.52,1.439H243.884z M258.193,133.246c1.71,0,2.43-0.45,2.43-1.26
		c0-2.07-1.08-8.01-6.93-8.01c-3.96,0-7.74,2.609-9.45,9.27H258.193z"/>
	<path d="M280.244,158.354c-0.45-0.27-0.45-0.81-0.54-1.26l-1.53-8.55c-0.09-0.449,0.18-0.63,0.54-0.72l1.17-0.27
		c0.36-0.091,0.63,0.09,0.81,0.54l2.25,4.409c1.8,3.33,3.06,5.58,7.83,5.58c3.149,0,7.109-1.89,7.109-6.12
		c0-4.05-1.98-6.39-8.729-8.279c-5.31-1.53-10.62-4.32-10.62-11.43c0-6.21,5.85-10.979,12.599-10.979c4.32,0,6.66,1.08,8.28,1.89
		c1.35,0.63,1.529,1.08,1.62,1.62l1.35,6.3c0,0.36-0.18,0.63-0.63,0.81l-1.08,0.36c-0.36,0.09-0.54,0-0.81-0.45l-3.06-4.14
		c-1.08-1.71-2.79-3.51-6.3-3.51c-3.42,0-6.93,2.07-6.93,5.939c0,5.22,4.23,6.21,8.64,7.47c6.57,1.891,10.71,4.59,10.8,11.52
		c-0.09,7.29-6.03,11.88-13.68,11.88C284.923,160.965,281.323,159.165,280.244,158.354z"/>
	<path d="M323.397,148.635c0,6.75,3.06,7.92,4.68,7.92c2.07,0,4.68-0.359,5.94-1.17c0.45-0.27,0.81-0.18,1.08,0.18l0.45,0.811
		c0.27,0.36,0.09,0.72-0.18,0.99c-0.9,0.899-4.59,3.6-9.989,3.6c-4.41,0-8.729-4.229-8.729-7.649c0-3.69,0.27-11.61,0.27-12.87
		v-1.979c0-1.62,0.09-7.74,0.18-11.52h-5.49c-0.81,0-1.35-0.36-1.35-1.08s0.54-0.99,1.62-1.62c2.16-1.26,9.089-8.189,10.259-11.249
		c0.271-0.721,0.72-0.9,1.26-0.9c0.72,0,0.9,0.63,0.9,1.35l-0.45,8.82h12.51c0.54,0,0.81,0.449,0.63,0.81l-0.9,3.15
		c-0.09,0.449-0.27,0.72-0.81,0.72h-11.609c-0.18,4.14-0.27,8.55-0.27,12.689V148.635z"/>
	<path d="M348.353,135.945c-0.18,0.811-0.27,2.25-0.27,4.32c0,8.819,5.58,15.479,12.779,15.479c5.49,0,9.36-3.15,10.89-6.12
		c0.18-0.359,0.54-0.54,0.81-0.45l1.17,0.63c0.27,0.091,0.45,0.36,0,1.351c-1.62,3.6-6.3,9.81-14.309,9.81
		c-5.13,0-10.8-1.53-14.13-6.39c-3.149-4.59-3.96-7.92-3.96-14.22c0-3.51,0.9-9.539,5.67-14.31c3.87-3.96,8.37-4.77,12.87-4.77
		c10.35,0,13.229,9.72,13.229,13.229c0,1.26-1.08,1.439-2.52,1.439H348.353z M362.662,133.246c1.71,0,2.43-0.45,2.43-1.26
		c0-2.07-1.08-8.01-6.93-8.01c-3.96,0-7.74,2.609-9.45,9.27H362.662z"/>
	<path d="M386.657,135.945c0-4.59-0.72-5.489-3.24-6.839l-1.71-0.9c-0.54-0.18-0.72-0.27-0.72-0.63v-0.54
		c0-0.36,0.18-0.54,0.72-0.81l8.909-4.59c0.54-0.271,0.9-0.36,1.26-0.36c0.54,0,0.63,0.54,0.63,1.08l0.45,6.39h0.36
		c2.7-4.14,6.93-7.83,10.8-7.83c3.06,0,4.59,1.891,4.59,3.96c0,2.61-2.16,4.41-3.78,4.41c-0.99,0-1.89-0.36-2.61-0.72
		c-0.72-0.45-1.8-0.721-2.97-0.721c-1.44,0-3.78,0.9-5.31,3.78c-0.54,0.99-0.899,2.609-0.899,2.88v18.719
		c0,2.79,0.63,3.69,2.52,3.69h4.23c0.54,0,0.63,0.27,0.63,0.81v1.62c0,0.54-0.09,0.81-0.45,0.81c-0.54,0-4.68-0.27-9.54-0.27
		c-5.58,0-9.359,0.27-9.899,0.27c-0.36,0-0.54-0.18-0.54-0.899v-1.53c0-0.63,0.18-0.81,0.99-0.81h3.51c1.35,0,1.979-0.54,1.979-1.71
		c0.09-2.97,0.09-6.12,0.09-10.8V135.945z"/>
	<path d="M410.785,134.056c0-0.54,0.18-0.63,0.81-0.63h25.199c0.72,0,0.99,0.18,0.99,0.99v3.42c0,0.54-0.36,0.63-1.08,0.63h-25.109
		c-0.63,0.09-0.81,0-0.81-0.45V134.056z"/>
	<path d="M460.922,136.036c0,4.229,0.09,16.469,0.18,17.729c0.18,1.98,1.08,2.88,2.97,2.88h5.76c0.63,0,0.72,0.271,0.72,0.63v2.16
		c0,0.45-0.09,0.72-0.81,0.72c-1.26,0-4.05-0.27-12.51-0.27c-7.92,0-11.43,0.27-12.419,0.27c-0.63,0-0.72-0.27-0.72-0.63v-2.25
		c0-0.449,0.09-0.63,0.54-0.63h3.87c3.06,0,3.689-0.449,3.96-2.88c0.09-0.899,0.359-14.939,0.359-25.379v-10.35
		c0-5.939-0.09-15.749-0.18-16.649c-0.18-1.8-1.08-1.979-3.51-1.979h-5.13c-0.45,0-0.54-0.18-0.54-0.72v-2.16
		c0-0.45,0.09-0.63,0.54-0.63c0.99,0,4.23,0.27,12.779,0.27c1.62,0,6.93-0.27,9.9-0.27c10.169,0,14.939,0.99,20.069,4.5
		c4.23,2.88,6.84,7.919,6.84,13.049c0,11.34-8.55,18.359-22.859,18.359c-3.33,0-6.93-0.09-9.81-0.45V136.036z M460.922,128.116
		c1.8,0.54,4.77,0.81,8.28,0.81c5.489,0,10.35-2.97,12.689-6.119c1.979-2.61,2.34-5.94,2.34-9.09
		c0-11.79-10.979-14.939-16.29-14.939c-1.53,0-5.22,0-7.02,0.63V128.116z"/>
	<path d="M512.807,133.065c0,4.681,0,18.27,0.09,21.06c0.09,1.53,0.45,2.79,2.34,2.79h4.05c0.81,0,0.99,0.27,0.99,0.81v1.53
		c0,0.54-0.18,0.899-0.54,0.899c-0.63,0-4.59-0.27-10.169-0.27c-5.76,0-9.359,0.27-10.169,0.27c-0.45,0-0.63-0.359-0.63-0.899v-1.53
		c0-0.63,0.18-0.81,1.17-0.81h4.32c0.99,0,1.89-0.63,1.98-2.25c0.09-2.79,0.09-18.27,0.09-23.489v-5.67
		c0-6.39-0.09-14.579-0.27-16.919c-0.18-3.06-1.62-4.5-4.5-5.399l-1.8-0.631c-0.45-0.18-0.54-0.27-0.54-0.449v-0.721
		c0-0.27,0.27-0.449,0.81-0.63c3.15-1.439,7.2-3.06,10.529-5.22c0.811-0.54,1.351-0.72,1.89-0.72c0.63,0,0.81,0.45,0.72,1.62
		c-0.09,4.949-0.36,23.669-0.36,28.619V133.065z"/>
	<path d="M556.258,155.925c1.439,0,2.699-0.72,3.15-1.35c0.359-0.45,0.539-0.63,0.899-0.36l0.899,0.72
		c0.271,0.271,0.45,0.721-0.09,1.62c-0.72,1.351-2.43,4.41-7.02,4.41c-3.24,0-5.58-2.34-6.39-6.03h-0.18
		c-1.89,2.25-4.86,4.141-8.91,5.49c-1.71,0.54-3.33,0.54-5.31,0.54c-2.16,0-5.399-1.8-5.399-7.47c0-4.14,1.89-7.74,8.999-10.89
		c4.051-1.8,8.73-3.96,10.17-5.22v-5.76c-0.18-1.53-0.27-3.87-1.26-5.04s-2.79-1.979-5.4-1.979c-1.8,0-4.59,0.72-5.85,1.89
		c-1.26,1.17-0.45,2.52-0.45,4.14c0,3.15-1.08,5.13-4.77,5.13c-1.439,0-2.16-0.81-2.16-2.88c0-2.88,2.52-6.3,6.209-8.46
		c3.78-2.249,6.93-3.149,10.979-3.149c4.23,0,5.94,1.26,7.2,2.43c1.89,1.89,1.979,3.96,1.979,6.39v19.079
		C553.558,154.305,554.638,155.925,556.258,155.925z M546.988,140.086c-3.24,2.43-12.06,4.229-12.06,11.699
		c0,3.33,1.979,4.95,4.68,4.95c2.61,0,7.38-3.15,7.38-5.58V140.086z"/>
	<path d="M605.45,155.025c0,1.439,0.81,1.89,1.979,1.89h2.881c0.81,0,0.989,0.27,0.989,0.81v1.44c0,0.63-0.18,0.989-0.72,0.989
		c-0.63,0-3.42-0.27-8.55-0.27c-4.59,0-7.47,0.27-8.1,0.27c-0.54,0-0.72-0.27-0.72-0.989v-1.44c0-0.63,0.27-0.81,1.17-0.81h2.609
		c0.99,0,1.71-0.45,1.801-2.07c0.09-2.34,0.18-5.22,0.18-7.56v-11.879c0-3.601,0-6.21-2.61-8.101
		c-2.159-1.619-4.319-1.619-6.569-1.619c-1.44,0-4.59,0.63-7.29,3.51c-1.8,1.979-2.069,4.409-2.069,6.119v18.63
		c0,2.43,0.27,2.97,2.159,2.97h2.25c0.72,0,0.9,0.27,0.9,0.899v1.53c0,0.54-0.181,0.81-0.63,0.81c-0.631,0-3.061-0.27-7.83-0.27
		c-4.59,0-7.47,0.27-8.01,0.27c-0.449,0-0.63-0.27-0.63-0.81v-1.62c0-0.54,0.181-0.81,0.9-0.81h2.609c1.17,0,1.8-0.271,1.8-1.8
		v-21.06c0-2.7-1.439-4.229-3.689-5.31l-0.72-0.36c-0.63-0.27-0.72-0.54-0.72-0.81v-0.45c0-0.45,0.359-0.72,0.81-0.899l7.739-4.32
		c0.721-0.36,1.26-0.63,1.62-0.63c0.45,0,0.63,0.36,0.72,1.08l0.631,5.489h0.18c2.609-3.239,7.829-6.569,12.329-6.569
		c2.7,0,5.49,0.54,7.649,1.979c2.7,1.801,4.95,6.3,4.95,8.55V155.025z"/>
	<path d="M650.973,141.615c0,4.32,0,8.729,0.18,10.62c0.27,2.79,1.26,3.149,2.34,3.149c0.54,0,1.89,0,2.97-0.27
		c0.72-0.181,0.99,0,1.08,0.359l0.271,1.17c0.09,0.54-0.09,0.721-0.45,0.811l-9.45,3.149c-0.539,0.181-1.08,0.36-1.8,0.36
		c-0.36,0-0.72-0.18-0.81-1.08l-0.721-5.22h-0.18c-2.52,3.51-7.739,6.3-12.239,6.3c-2.521,0-5.489-0.271-8.46-4.14
		c-3.689-4.771-3.51-7.74-3.51-17.64v-10.529c-0.09-2.521-1.35-3.15-3.42-3.42c-1.529-0.09-1.979-0.18-1.979-0.63v-1.62
		c0-0.54,0.18-0.72,0.989-0.72h8.01c0.541,0,0.9-0.09,1.261-0.181c0.359,0,0.72-0.09,0.989-0.09c0.631,0,1.08,0.45,0.99,1.08
		c-0.09,0.811-0.359,5.04-0.359,10.35v6.479c0,3.601-0.9,9.36,1.979,13.5c2.25,3.239,4.77,3.42,7.2,3.42
		c2.43,0,6.029-2.34,7.739-4.5c0.36-0.45,0.899-1.62,0.899-2.43v-21.51c-0.18-2.52-1.619-2.97-3.869-3.149
		c-1.53,0-1.98-0.18-1.98-0.63v-1.53c0-0.72,0.18-0.81,1.08-0.81h8.37c0.63,0,1.079-0.09,1.529-0.181c0.45,0,0.811-0.09,1.08-0.09
		c0.54,0,0.9,0.45,0.81,0.9c-0.09,0.81-0.539,3.149-0.539,11.97V141.615z"/>
	<path d="M702.29,155.025c0,1.439,0.81,1.89,1.979,1.89h2.881c0.81,0,0.989,0.27,0.989,0.81v1.44c0,0.63-0.18,0.989-0.72,0.989
		c-0.63,0-3.42-0.27-8.55-0.27c-4.59,0-7.47,0.27-8.1,0.27c-0.54,0-0.72-0.27-0.72-0.989v-1.44c0-0.63,0.27-0.81,1.17-0.81h2.609
		c0.99,0,1.71-0.45,1.801-2.07c0.09-2.34,0.18-5.22,0.18-7.56v-11.879c0-3.601,0-6.21-2.61-8.101
		c-2.159-1.619-4.319-1.619-6.569-1.619c-1.44,0-4.59,0.63-7.29,3.51c-1.8,1.979-2.069,4.409-2.069,6.119v18.63
		c0,2.43,0.27,2.97,2.159,2.97h2.25c0.72,0,0.9,0.27,0.9,0.899v1.53c0,0.54-0.181,0.81-0.63,0.81c-0.631,0-3.061-0.27-7.83-0.27
		c-4.59,0-7.47,0.27-8.01,0.27c-0.449,0-0.63-0.27-0.63-0.81v-1.62c0-0.54,0.181-0.81,0.9-0.81h2.609c1.17,0,1.8-0.271,1.8-1.8
		v-21.06c0-2.7-1.439-4.229-3.689-5.31l-0.72-0.36c-0.63-0.27-0.72-0.54-0.72-0.81v-0.45c0-0.45,0.359-0.72,0.81-0.899l7.739-4.32
		c0.721-0.36,1.26-0.63,1.62-0.63c0.45,0,0.63,0.36,0.72,1.08l0.631,5.489h0.18c2.609-3.239,7.829-6.569,12.329-6.569
		c2.7,0,5.49,0.54,7.649,1.979c2.7,1.801,4.95,6.3,4.95,8.55V155.025z"/>
	<path d="M717.744,181.484c-3.24-1.98-4.59-4.32-4.59-7.29c0-5.04,5.13-8.91,9.449-10.8v-0.36c-3.779-0.81-6.029-3.6-6.029-6.299
		c0-4.32,4.95-7.38,8.1-8.55v-0.181c-3.51-1.529-8.369-5.669-8.369-13.679c0-5.851,5.22-13.05,15.389-13.05
		c6.84,0,10.439,4.14,11.34,5.22c2.43-1.71,5.49-3.51,8.46-3.51s4.409,1.979,4.229,3.779c0,1.71-1.439,3.33-3.51,3.33
		c-1.53,0-2.43-0.72-3.15-1.35c-0.539-0.36-1.17-0.81-1.89-0.81c-0.63,0-1.71,0-2.88,0.539c0.721,1.801,1.35,3.78,1.35,6.84
		c0,3.51-0.989,6.93-3.329,9.72c-2.34,2.61-7.47,4.5-10.439,4.5c-1.98,0-3.24-0.09-4.59-0.45c-1.8,0.72-4.771,2.521-4.771,5.04
		c0,3.689,4.5,3.42,10.53,3.06c7.38-0.359,11.879,0.45,15.479,3.24c3.869,2.88,4.319,6.479,4.409,8.64
		c0,4.229-1.53,7.739-6.029,11.069c-2.34,1.71-7.74,4.229-15.39,4.229C727.193,184.363,722.064,183.914,717.744,181.484z
		 M747.443,172.214c0-5.31-4.05-9.359-13.05-8.729l-8.64,0.63c-2.79,0.721-7.199,3.78-7.199,8.64c0,2.25,1.709,4.95,3.51,6.21
		c2.97,2.07,6.209,2.521,12.6,2.521C737.993,181.484,747.893,179.144,747.443,172.214z M739.073,133.876c0-3.96-0.81-6.3-2.43-8.1
		c-1.17-1.17-2.97-1.98-4.319-1.98c-2.07,0-4.23,0.36-6.391,2.521c-2.879,3.06-3.239,7.199-3.239,10.619
		c0,3.06,0.989,5.85,2.88,7.83c1.619,1.529,3.24,2.25,5.399,2.25C737.094,147.016,739.073,139.546,739.073,133.876z"/>
	<path d="M769.16,143.415c0,0.36-0.091,0.63-0.631,0.63h-1.709c-0.45,0-0.631-0.18-0.631-0.63v-17.009c0-0.9,0.271-0.99,0.99-0.811
		c1.98,0.36,4.32,0.271,5.939,0.271c2.881,0,9.45-1.44,9.45-7.109c0-3.601-2.34-6.12-4.86-8.1c-4.5-3.69-6.659-4.32-10.439-4.32
		c-3.689,0-6.39-1.979-6.39-4.41c0-0.63,0.63-3.51,4.319-3.51c7.381,0,21.149,12.51,21.149,23.489
		c0,11.34-11.339,10.89-16.469,11.159c-0.63,0-0.72,0.271-0.72,0.721V143.415z M763.58,156.285c0-2.79,1.89-4.95,5.039-4.95
		c2.521,0,4.95,2.25,4.95,4.86c0,2.34-1.979,4.77-5.13,4.77C765.83,160.965,763.58,158.984,763.58,156.285z"/>
</g>
</svg>
