<?xml version="1.0" encoding="utf-8"?>
<!-- Generator: Adobe Illustrator 15.1.0, SVG Export Plug-In . SVG Version: 6.00 Build 0)  -->
<!DOCTYPE svg PUBLIC "-//W3C//DTD SVG 1.1//EN" "http://www.w3.org/Graphics/SVG/1.1/DTD/svg11.dtd">
<svg version="1.1" id="vs_text" xmlns="http://www.w3.org/2000/svg" xmlns:xlink="http://www.w3.org/1999/xlink" x="0px" y="0px"
	 width="1080px" height="1080px" viewBox="0 0 1080 1080" enable-background="new 0 0 1080 1080" xml:space="preserve">
<g>
	<path fill="#FFFFFF" d="M50.1,59.835h-8.88V49.636h29.999v10.199h-8.88v61.078h8.88v10.2H41.22v-10.2h8.88V59.835z"/>
	<path fill="#FFFFFF" d="M132.932,95.834h-10.08c-0.6-3.96-2.28-7.2-4.92-9.48c-2.52-2.16-6-3.36-10.08-3.36
		c-10.08,0-16.799,7.8-16.799,19.199c0,12.12,7.08,20.399,17.279,20.399c7.56,0,13.68-3.96,17.04-11.16l9.24,4.32
		c-4.92,11.16-14.28,17.039-26.639,17.039c-19.679,0-28.919-16.079-28.919-30.479c0-16.319,12.36-29.519,27.839-29.519
		c6.12,0,11.76,1.92,15.959,5.52v-3.84h10.08V95.834z"/>
	<path fill="#FFFFFF" d="M151.642,59.475h-10.2v-9.839h21.479v31.318c7.08-5.76,12.72-8.159,18.839-8.159
		c8.879,0,15.599,4.439,15.599,17.159v31.318h9.72v9.84H186.08V92.354c0-5.52-1.68-9.6-6.96-9.6c-4.08,0-9.839,2.64-16.199,7.439
		v31.079h9.72v9.84h-31.319v-9.84h10.32V59.475z"/>
	<path fill="#FFFFFF" d="M255.201,59.475h-10.199v-9.839h21.479v31.318c7.08-5.76,12.719-8.159,18.839-8.159
		c8.879,0,15.599,4.439,15.599,17.159v31.318h9.72v9.84H289.64V92.354c0-5.52-1.68-9.6-6.96-9.6c-4.08,0-9.839,2.64-16.199,7.439
		v31.079h9.72v9.84h-31.319v-9.84h10.319V59.475z"/>
	<path fill="#FFFFFF" d="M375.451,131.112h-19.679v-6.96c-7.08,5.76-12,7.92-18.239,7.92c-10.799,0-19.199-7.92-19.199-17.999
		c0-10.32,9-18.359,20.639-18.359c5.04,0,10.919,1.8,15.479,4.8v-7.44c0-8.04-5.88-10.919-12.6-10.919c-5.4,0-9.6,2.28-12.12,6.72
		l-10.679-2.88c4.8-8.76,12.959-13.199,24.479-13.199c16.56,0,22.199,8.279,22.199,17.399v31.079h9.72V131.112z M354.452,109.993
		c-4.8-3.72-9.84-5.64-14.64-5.64c-6.24,0-10.799,4.08-10.799,9.72c0,5.52,4.2,9.359,10.2,9.359c5.04,0,10.679-2.52,15.239-6.72
		V109.993z"/>
	<path fill="#FFFFFF" d="M382.772,121.272h10.08V59.475h-9.84v-9.839h21v32.759c6.12-6.72,12.359-9.6,20.639-9.6
		c15.959,0,27.599,12.239,27.599,29.398c0,17.279-11.759,29.879-27.719,29.879c-8.28,0-16.319-3.72-20.279-9.479h-0.24v8.52h-21.239
		V121.272z M422.131,122.232c10.439,0,18.119-8.52,18.119-20.279c0-13.799-10.2-18.959-17.879-18.959
		c-10.56,0-17.999,8.28-17.999,19.919C404.372,113.953,411.811,122.232,422.131,122.232z"/>
	<path fill="#FFFFFF" d="M474.259,105.553c1.68,11.04,8.88,17.399,19.439,17.399c7.32,0,14.16-3.24,18.359-9.24l9.84,4.32
		c-6.12,9.48-16.319,14.759-28.439,14.759c-18.359,0-31.559-12.479-31.559-29.999c0-18.359,15-29.999,29.759-29.999
		c15.719,0,30.239,11.999,30.239,32.758H474.259z M510.498,97.394c-1.8-9-9.72-15.599-18.6-15.599
		c-8.879,0-15.599,6.12-17.279,15.599H510.498z"/>
	<path fill="#FFFFFF" d="M50.58,189.475h-10.2v-9.839h21.479v50.878l21.239-16.68v-0.24h-9.479v-9.12h31.438v9.12h-8.759
		l-21.239,17.639l20.039,20.039h9.72v9.84H90.418l-28.559-28.559v18.719h8.4v9.84H40.26v-9.84h10.32V189.475z"/>
	<path fill="#FFFFFF" d="M122.579,235.553c1.68,11.04,8.88,17.399,19.439,17.399c7.319,0,14.159-3.24,18.359-9.24l9.839,4.32
		c-6.12,9.48-16.319,14.759-28.439,14.759c-18.359,0-31.559-12.479-31.559-29.999c0-18.359,15-29.999,29.759-29.999
		c15.719,0,30.239,11.999,30.239,32.758H122.579z M158.818,227.394c-1.8-9-9.72-15.599-18.599-15.599
		c-8.88,0-15.6,6.12-17.279,15.599H158.818z"/>
	<path fill="#FFFFFF" d="M187.487,214.314h-9v-9.84h20.279v46.798h9v9.84h-29.279v-9.84h9V214.314z M199.606,185.155
		c0,3.72-3,6.72-6.72,6.72s-6.72-3-6.72-6.72s3-6.72,6.72-6.72S199.606,181.436,199.606,185.155z"/>
	<path fill="#FFFFFF" d="M236.866,211.314c7.56-5.52,13.319-7.8,19.319-7.8c8.04,0,14.879,4.92,14.879,16.079v31.679h9.72v9.84h-21
		v-37.079c0-7.2-2.04-10.319-6.6-10.319s-10.56,2.64-16.319,7.2v30.358h9.72v9.84h-30.719v-9.84h9.719v-36.958h-9.959v-9.84h21.239
		V211.314z"/>
	<path fill="#FFFFFF" d="M298.125,235.553c1.68,11.04,8.88,17.399,19.439,17.399c7.32,0,14.159-3.24,18.359-9.24l9.84,4.32
		c-6.12,9.48-16.319,14.759-28.439,14.759c-18.359,0-31.559-12.479-31.559-29.999c0-18.359,15-29.999,29.759-29.999
		c15.719,0,30.239,11.999,30.239,32.758H298.125z M334.364,227.394c-1.8-9-9.72-15.599-18.6-15.599
		c-8.879,0-15.599,6.12-17.279,15.599H334.364z"/>
	<path fill="#FFFFFF" d="M39.78,385.713h10.56v-70.678H39.78v-5.399h20.879l25.199,60.957c0.84,1.92,2.04,5.28,3,8.64h0.24
		c0.48-2.279,1.2-4.8,2.4-7.68l25.319-61.917h20.999v5.399h-10.08v70.678h10.08v5.399h-27.119v-5.399h10.319v-72.357h-0.24
		l-31.798,77.757h-1.32l-31.439-77.757h-0.24v72.357h9.719v5.399H39.78V385.713z"/>
	<path fill="#FFFFFF" d="M184.665,382.953c-7.08,5.999-14.16,8.999-21,8.999c-9.6,0-17.279-7.439-17.279-16.799
		c0-10.2,8.76-17.52,21-17.52c5.64,0,11.039,1.439,17.279,4.68v-13.199c0-7.44-4.68-11.88-15.12-11.88
		c-8.76,0-14.399,3.12-17.519,9.72l-4.68-1.2c4.44-9.119,11.16-12.959,22.679-12.959c14.64,0,20.879,6.479,20.879,16.079v36.839
		h9.36v5.399h-15.599V382.953z M184.665,367.354c-6.48-3.72-10.68-5.04-16.2-5.04c-9.359,0-15.719,5.399-15.719,13.199
		c0,6.72,5.28,11.64,12.479,11.64c6.6,0,14.759-3.96,19.439-9.479V367.354z"/>
	<path fill="#FFFFFF" d="M258.08,375.753c-4.2,10.68-13.319,17.039-24.599,17.039c-16.439,0-28.079-12.239-28.079-29.398
		c0-17.039,11.639-29.879,27.239-29.879c7.68,0,14.04,2.88,17.999,8.279h0.24v-7.439h5.16v21.6h-5.16
		c0-10.32-8.399-16.8-17.999-16.8c-12.479,0-21.119,9.72-21.119,23.759c0,14.52,8.759,24.239,21.599,24.239
		c9.12,0,15.72-4.56,19.68-13.56L258.08,375.753z"/>
	<path fill="#FFFFFF" d="M263.361,385.713h10.439v-70.678h-10.439v-5.399h16.679v51.357l29.879-20.999v-0.24h-8.64v-5.399h23.639
		v5.399h-7.32l-29.879,21.239l28.319,24.72h9.959v5.399h-12.359l-33.599-29.278v23.879h10.439v5.399h-27.119V385.713z"/>
	<path fill="#FFFFFF" d="M334.953,364.113c0,13.08,10.68,23.639,23.879,23.639c8.76,0,16.679-4.439,22.199-12.359l4.92,2.28
		c-5.52,9.359-16.08,15.119-27.839,15.119c-17.16,0-29.399-12.479-29.399-29.999c0-17.519,12-29.998,28.919-29.998
		c16.679,0,27.959,12.359,28.319,31.318H334.953z M379.471,358.714c-2.16-13.08-10.439-20.64-22.319-20.64
		c-11.64,0-19.919,7.8-22.079,20.64H379.471z"/>
	<path fill="#FFFFFF" d="M391.183,385.713h10.44v-45.959h-10.44v-5.399h16.679v8.76c7.32-6.12,15-9.6,21.359-9.6
		c8.88,0,15.359,5.52,15.359,14.76v37.438h9.12v5.399h-25.439v-5.399h10.08v-35.759c0-7.319-3.6-10.8-9.479-10.8
		c-6.24,0-14.399,3.96-21,10.199v36.359h9.24v5.399h-25.919V385.713z"/>
	<path fill="#FFFFFF" d="M464.598,376.713h14.399v14.399h-14.399V376.713z M465.918,334.475v-24.839h11.759v24.839l-2.88,34.559h-6
		L465.918,334.475z"/>
</g>
<g>
	<path fill="#FFFFFF" d="M553.481,321.701v-10.199h38.278c31.56,0,41.519,20.399,41.519,39.958
		c0,26.279-13.319,41.519-42.598,41.519h-37.199v-10.199h11.04v-61.078H553.481z M576.761,382.779h14.399
		c22.56,0,29.639-13.8,29.639-30.959c0-17.399-8.64-30.119-29.398-30.119h-14.64V382.779z"/>
	<path fill="#FFFFFF" d="M701.773,392.979h-19.68v-6.96c-7.079,5.76-11.999,7.92-18.238,7.92c-10.8,0-19.199-7.92-19.199-17.999
		c0-10.32,8.999-18.359,20.639-18.359c5.04,0,10.92,1.8,15.479,4.8v-7.439c0-8.04-5.88-10.92-12.6-10.92
		c-5.399,0-9.6,2.28-12.119,6.72l-10.68-2.88c4.8-8.76,12.959-13.199,24.479-13.199c16.56,0,22.199,8.279,22.199,17.399v31.078h9.72
		V392.979z M680.774,371.859c-4.8-3.72-9.84-5.64-14.64-5.64c-6.239,0-10.8,4.08-10.8,9.72c0,5.52,4.2,9.359,10.2,9.359
		c5.039,0,10.68-2.52,15.239-6.72V371.859z"/>
	<path fill="#FFFFFF" d="M709.959,373.539h9.959v1.92c0.961,5.64,6.12,9.12,13.56,9.12c7.08,0,11.64-2.76,11.64-7.08
		c0-10.56-19.919-3.84-30.719-14.64c-2.64-2.64-4.439-6.6-4.439-10.799c0-9.72,8.399-16.68,19.919-16.68c5.16,0,10.08,1.2,13.8,3.24
		v-2.28h9.84v18.72h-9.84v-3.48c-3.24-4.8-7.439-6.959-13.199-6.959c-6,0-9.96,2.76-9.96,6.959c0,9.479,21.839,3.96,31.198,13.319
		c3.36,3.36,4.8,7.8,4.8,11.76c0,10.319-8.759,17.279-21.719,17.279c-6.12,0-10.8-1.32-14.88-4.08v3.12h-9.959V373.539z"/>
	<path fill="#FFFFFF" d="M799.718,373.539h9.96v1.92c0.959,5.64,6.119,9.12,13.559,9.12c7.08,0,11.64-2.76,11.64-7.08
		c0-10.56-19.919-3.84-30.719-14.64c-2.64-2.64-4.439-6.6-4.439-10.799c0-9.72,8.399-16.68,19.919-16.68c5.16,0,10.08,1.2,13.8,3.24
		v-2.28h9.839v18.72h-9.839v-3.48c-3.24-4.8-7.44-6.959-13.2-6.959c-5.999,0-9.959,2.76-9.959,6.959
		c0,9.479,21.839,3.96,31.198,13.319c3.36,3.36,4.8,7.8,4.8,11.76c0,10.319-8.76,17.279-21.719,17.279
		c-6.12,0-10.8-1.32-14.879-4.08v3.12h-9.96V373.539z"/>
	<path fill="#FFFFFF" d="M863.185,346.181h-9v-9.84h20.279v46.798h8.999v9.84h-29.278v-9.84h9V346.181z M875.304,317.021
		c0,3.72-3,6.72-6.72,6.72s-6.72-3-6.72-6.72s3-6.72,6.72-6.72S875.304,313.302,875.304,317.021z"/>
	<path fill="#FFFFFF" d="M912.563,343.181c7.561-5.52,13.32-7.8,19.319-7.8c8.04,0,14.88,4.92,14.88,16.079v31.679h9.72v9.84
		h-20.999V355.9c0-7.2-2.04-10.32-6.6-10.32c-4.561,0-10.561,2.64-16.32,7.2v30.358h9.72v9.84h-30.719v-9.84h9.72v-36.958h-9.959
		v-9.84h21.238V343.181z"/>
	<path fill="#FFFFFF" d="M1031.757,392.979h-21.599v-8.399c-5.88,6.359-12.24,9.359-20.159,9.359
		c-12.84,0-27.839-8.76-27.839-29.039c0-17.159,12.119-30.238,28.078-30.238c7.68,0,14.279,3.12,19.92,9.119v-22.439h-10.8v-9.839
		h22.079v71.637h10.319V392.979z M992.039,384.099c10.559,0,18.119-8.52,18.119-20.039c0-11.399-7.44-19.199-18.239-19.199
		c-10.08,0-17.76,8.399-17.76,19.68C974.159,376.18,981.479,384.099,992.039,384.099z"/>
	<path fill="#FFFFFF" d="M618.174,497.659h13.56c-2.159,7.8,3.24,12.36,8.64,12.36c6.12,0,10.56-4.44,10.56-10.32
		c0-13.319-23.999-19.439-23.999-37.198c0-7.92,5.04-21.599,22.68-21.599c7.079,0,11.64,1.8,15.959,6.359l1.32-5.76h12.959
		l-5.039,21.479h-12.96c1.08-5.039-2.88-8.759-9-8.759c-5.039,0-7.8,2.64-7.8,5.76c0,10.439,24.359,16.679,24.359,38.038
		c0,15.6-11.159,26.398-26.159,26.398c-6.72,0-11.039-2.039-15.959-7.56l-1.44,6.12h-13.559L618.174,497.659z"/>
	<path fill="#FFFFFF" d="M670.422,536.658h8.04l13.439-58.318h-8.04l2.76-12.119h25.439l-1.8,7.439l0.24,0.24
		c5.76-5.88,10.919-8.399,17.159-8.399c11.52,0,19.319,9.359,19.319,23.159c0,20.039-13.2,35.998-29.64,35.998
		c-7.319,0-12.359-2.88-16.559-9.359l-4.92,21.359h9.359l-2.88,12.119h-34.799L670.422,536.658z M714.341,511.219
		c8.279,0,14.879-9.72,14.879-21.719c0-6.359-3.479-10.319-8.88-10.319c-7.919,0-15.479,10.439-15.479,21.358
		C704.861,506.659,708.94,511.219,714.341,511.219z"/>
	<path fill="#FFFFFF" d="M807.086,511.819c-5.64,8.52-14.399,12.839-25.559,12.839c-15.84,0-25.92-9.6-25.92-24.599
		c0-18.359,13.439-35.278,32.759-35.278c14.88,0,28.799,11.039,24.359,33.358h-40.318c-1.68,10.319,3.6,15.239,10.199,15.239
		c5.04,0,8.64-2.28,11.64-7.319L807.086,511.819z M797.006,488.9c1.32-8.28-3.72-12.72-9.239-12.72
		c-6.12,0-10.319,4.079-13.199,12.72H797.006z"/>
	<path fill="#FFFFFF" d="M875.473,508.339c-6.48,10.8-15.84,16.319-27.239,16.319c-15.72,0-26.039-9.959-26.039-25.199
		c0-18.599,14.88-33.838,33.119-33.838c5.399,0,9.119,1.199,13.679,4.319l0.84-3.72h12.72l-4.92,21.239h-12.719
		c-0.12-2.52-1.08-4.56-2.761-6c-1.56-1.439-3.84-2.159-6.6-2.159c-8.64,0-15.359,8.879-15.359,20.519
		c0,6.479,4.08,10.92,9.72,10.92c5.04,0,9.84-3.12,13.08-8.52L875.473,508.339z"/>
	<path fill="#FFFFFF" d="M899.28,478.34h-7.68l2.76-12.119h25.079l-10.319,44.639h7.68l-2.76,12.119h-31.319l2.76-12.119h6.24
		L899.28,478.34z M914.16,439.941c5.279,0,9.6,4.2,9.6,9.48c0,5.279-4.32,9.6-9.6,9.6c-5.28,0-9.48-4.32-9.48-9.6
		C904.68,444.142,908.88,439.941,914.16,439.941z"/>
	<path fill="#FFFFFF" d="M984.01,522.979h-26.158l1.08-4.56c-6.12,3.84-10.32,5.279-15.359,5.279c-9.84,0-17.04-6.6-17.04-15.719
		c0-11.399,9.24-20.88,28.799-20.88c1.561,0,6.84,0.84,10.439,1.681l0.96-4.681c1.08-5.279-4.079-8.159-9.719-8.159
		c-3.96,0-7.8,1.08-13.32,3.84l-8.64-8.52c8.4-4.44,15.84-6.479,24.6-6.479c17.999,0,27.118,8.879,23.879,22.559l-5.52,23.52h9.479
		L984.01,522.979z M963.491,498.5c-3.601-0.961-5.16-1.2-8.64-1.2c-7.32,0-12.24,3.84-12.24,9.119c0,3.601,3,6.36,6.721,6.36
		c3.72,0,7.799-1.681,11.999-4.92L963.491,498.5z"/>
	<path fill="#FFFFFF" d="M996,510.859h6.239l13.2-57.238h-8.04l2.76-12.119h25.439l-15.96,69.357h7.68l-2.76,12.119H993.24
		L996,510.859z"/>
	<path fill="#FFFFFF" d="M598.725,640.259h7.68l12.959-56.037h-7.68l2.88-12.72h66.598l-6,25.919h-15.239l3-13.199h-23.039
		l-4.68,20.879h19.079l-3,12.72h-19.079l-5.16,22.438h23.52l3-12.839h14.759l-5.999,25.559h-66.598L598.725,640.259z"/>
	<path fill="#FFFFFF" d="M706.65,652.979h-30.839l2.76-12.119h5.76l7.56-32.52h-8.64l2.76-12.119h8.64
		c3.36-15.479,10.68-25.679,25.919-25.679c5.16,0,8.76,1.08,14.04,4.439l-4.68,11.64c-2.76-2.52-4.68-3.359-7.44-3.359
		c-6.239,0-8.399,4.56-10.439,12.959h7.32l-2.761,12.119h-7.319l-7.56,32.52h7.68L706.65,652.979z"/>
	<path fill="#FFFFFF" d="M749.021,652.979h-30.839l2.76-12.119h5.76l7.56-32.52h-8.64l2.76-12.119h8.64
		c3.36-15.479,10.68-25.679,25.919-25.679c5.16,0,8.76,1.08,14.04,4.439l-4.68,11.64c-2.76-2.52-4.68-3.359-7.44-3.359
		c-6.239,0-8.399,4.56-10.439,12.959h7.32l-2.761,12.119h-7.319l-7.56,32.52h7.68L749.021,652.979z"/>
	<path fill="#FFFFFF" d="M815.775,641.819c-5.64,8.52-14.399,12.839-25.559,12.839c-15.84,0-25.92-9.6-25.92-24.599
		c0-18.359,13.439-35.278,32.759-35.278c14.88,0,28.799,11.039,24.359,33.358h-40.318c-1.68,10.319,3.6,15.239,10.199,15.239
		c5.04,0,8.64-2.28,11.64-7.319L815.775,641.819z M805.695,618.9c1.32-8.28-3.72-12.72-9.239-12.72
		c-6.12,0-10.319,4.079-13.199,12.72H805.695z"/>
	<path fill="#FFFFFF" d="M884.162,638.339c-6.48,10.8-15.84,16.319-27.239,16.319c-15.72,0-26.039-9.959-26.039-25.199
		c0-18.599,14.88-33.838,33.119-33.838c5.399,0,9.119,1.199,13.679,4.319l0.84-3.72h12.72l-4.92,21.239h-12.719
		c-0.12-2.52-1.08-4.56-2.761-6c-1.56-1.439-3.84-2.159-6.6-2.159c-8.64,0-15.359,8.879-15.359,20.519
		c0,6.479,4.08,10.92,9.72,10.92c5.04,0,9.84-3.12,13.08-8.52L884.162,638.339z"/>
	<path fill="#FFFFFF" d="M925.177,651.179c-4.56,2.16-10.199,3.479-14.64,3.479c-7.319,0-12.239-4.56-12.239-11.52
		c0-2.64,0.36-5.399,0.96-7.92l6.24-26.879h-6.72l2.76-12.119h6.72l1.92-8.279l20.759-14.399l-5.279,22.679h7.68l-2.761,12.119
		h-7.68l-6.119,26.279c-0.96,4.32-0.6,6.24,3.12,6.24c2.04,0,4.919-0.84,8.399-2.76L925.177,651.179z"/>
	<path fill="#FFFFFF" d="M937.657,633.419h11.16c0.6,3.12,2.04,5.521,4.319,7.08c2.16,1.68,5.16,2.52,9,2.52
		c6.84,0,11.039-2.279,11.039-6.119c0-8.28-16.919-4.8-25.438-13.319c-2.76-2.76-4.44-6.36-4.44-10.2
		c0-10.319,9.72-17.759,23.279-17.759c5.64,0,8.88,0.84,13.199,3.6l0.721-3h12.239l-3.84,16.56h-11.64
		c-0.72-2.16-1.8-3.96-3.479-4.92c-1.681-1.08-3.96-1.68-6.96-1.68c-5.28,0-8.76,2.159-8.76,5.52c0,6.6,16.56,3.96,24.719,12.119
		c3.36,3.36,4.561,6.601,4.561,10.92c0,10.92-10.44,18.839-25.199,18.839c-6.84,0-11.64-1.199-15.96-3.84l-0.72,3.24h-12.359
		L937.657,633.419z"/>
	<path fill="#FFFFFF" d="M1003.44,634.619h18.359l-4.2,18.359H999.24L1003.44,634.619z"/>
</g>
</svg>
