<?xml version="1.0" encoding="utf-8"?>
<!-- Generator: Adobe Illustrator 15.1.0, SVG Export Plug-In . SVG Version: 6.00 Build 0)  -->
<!DOCTYPE svg PUBLIC "-//W3C//DTD SVG 1.1//EN" "http://www.w3.org/Graphics/SVG/1.1/DTD/svg11.dtd">
<svg version="1.1" id="vs_text" xmlns="http://www.w3.org/2000/svg" xmlns:xlink="http://www.w3.org/1999/xlink" x="0px" y="0px"
	 width="1080px" height="1080px" viewBox="0 0 1080 1080" enable-background="new 0 0 1080 1080" xml:space="preserve">
<g>
	<path d="M55.821,327.853h6.216c9.072,0,10.248-1.008,10.248-9.744v-63.335c0-8.736-1.176-9.744-10.248-9.744h-6.216v-14.616h59.136
		c23.184,0,36.456,3.36,47.712,12.096c12.096,9.408,18.312,24.36,18.312,43.849c0,19.487-6.216,34.607-18.312,44.016
		c-11.256,8.735-24.528,12.096-47.712,12.096H55.821V327.853z M114.957,327.853c10.92,0,19.488-3.863,23.52-10.416
		c4.032-6.72,6.216-17.64,6.216-31.247c0-16.969-3.528-29.568-9.912-35.28c-4.872-4.2-10.752-5.88-20.664-5.88h-10.584v82.823
		H114.957z"/>
	<path d="M285.207,321.133c0,9.408-1.176,13.44-4.872,17.472c-4.2,4.536-10.248,6.721-18.144,6.721
		c-10.92,0-15.96-3.024-20.16-11.929c-6.216,6.216-9.072,8.232-14.784,10.08c-4.2,1.344-8.4,2.017-12.6,2.017
		c-15.288,0-25.032-8.904-25.032-22.513c0-6.888,2.688-12.6,7.392-16.296c4.536-3.527,7.224-4.367,21-7.224
		c9.072-1.848,13.776-3.36,16.8-4.872c3.528-1.848,5.712-5.712,5.712-10.08c0-7.728-6.72-12.936-16.968-12.936
		c-5.376,0-8.568,0.84-12.6,3.359c6.552,0.841,9.912,4.2,9.912,9.744c0,5.712-6.048,10.416-13.44,10.416
		c-8.4,0-14.28-5.208-14.28-12.768c0-13.272,14.448-21.504,37.464-21.504c13.776,0,25.536,3.191,31.08,8.567
		c4.032,4.032,5.04,7.729,5.04,20.496v30.408c0,5.04,1.344,7.56,4.2,7.56c3.024,0,4.2-2.184,4.2-7.56v-6.888h10.08V321.133z
		 M239.847,303.661c-1.68,0.84-3.528,1.848-5.376,2.855c-3.36,1.681-6.72,3.36-10.248,4.872c-3.864,1.849-6.048,4.872-6.048,8.232
		c0,5.376,4.2,9.071,9.912,9.071c7.392,0,11.76-5.04,11.76-13.439V303.661z"/>
	<path d="M292.917,343.309v-29.399h13.104c3.36,7.224,5.376,9.743,9.912,12.768c4.368,2.856,9.072,4.2,14.448,4.2
		c8.064,0,12.264-2.521,12.264-7.393c0-2.184-1.176-3.695-3.864-5.039c-2.184-1.177-2.856-1.345-18.312-5.376
		c-10.92-2.856-16.8-5.376-21-8.904c-5.04-4.368-7.56-10.08-7.56-16.8c0-7.896,4.368-15.96,11.088-20.328
		c6.384-4.032,15.12-6.216,25.536-6.216c9.408,0,15.12,1.512,25.872,6.552l1.848-4.368h11.928v25.032h-11.928
		c-4.536-6.048-7.224-8.568-11.424-10.584c-3.864-1.848-9.24-3.024-13.272-3.024c-6.216,0-10.248,2.688-10.248,7.057
		c0,4.872,2.521,6.216,17.976,10.08c13.608,3.527,16.128,4.367,21.336,7.56c7.56,4.536,11.592,11.256,11.592,19.152
		c0,16.127-14.784,27.048-36.96,27.048c-9.744,0-14.448-1.345-28.056-7.896l-2.353,5.88H292.917z"/>
	<path d="M439.748,290.389c-2.856-11.088-4.704-12.936-14.112-13.607v-13.104h46.2v13.104h-3.36c-3.528,0-5.04,1.176-5.04,3.695
		c0,1.513,0.504,4.2,1.512,7.561l9.912,35.447l10.752-34.607c1.008-3.192,2.184-8.232,2.184-8.904c0-2.52-1.176-3.191-5.88-3.191
		h-3.024v-13.104h45.696v13.104h-3.024c-4.368,0-6.216,1.176-6.216,3.863c0,1.513,0.336,2.856,1.344,6.385l10.752,36.623
		l11.256-37.8c1.176-3.527,1.344-4.535,1.344-5.88c0-2.688-1.008-3.359-5.208-3.191h-3.024v-13.104h35.616v13.104
		c-9.408,0.336-11.76,2.184-14.112,10.584l-16.464,55.104h-28.56l-12.264-40.151l-12.264,40.151h-29.567L439.748,290.389z"/>
	<path d="M574.047,263.677h40.992v57.456c0,6.552,1.344,7.896,7.56,7.896h4.2v13.439h-52.752v-13.439h5.04
		c6.384,0,7.728-1.345,7.728-7.896v-33.768c0-9.072-0.504-9.912-7.56-9.912h-5.208V263.677z M613.359,243.35
		c0,7.392-6.553,13.943-13.944,13.943c-7.728,0-13.944-6.216-13.944-14.111c0-7.561,6.217-13.776,13.944-13.776
		C606.807,229.405,613.359,235.789,613.359,243.35z"/>
	<path d="M633.266,329.029h4.873c6.384,0,7.896-1.513,7.896-7.896v-36.12c0-6.384-1.512-7.896-7.896-7.896h-4.873v-13.44h39.313
		v7.896c7.729-7.729,12.6-10.08,20.664-10.08c11.256,0,18.647,7.224,18.647,18.144c0,9.576-5.88,15.96-14.784,15.96
		c-7.224,0-12.264-4.872-12.264-11.928c0-5.208,2.184-7.896,8.232-10.08c-2.184-0.84-4.2-1.344-5.376-1.344
		c-3.696,0-8.4,3.696-10.752,8.231c-1.681,3.36-3.024,10.248-3.024,15.624v25.032c0,6.384,1.512,7.896,7.896,7.896h6.72v13.439
		h-55.272V329.029z"/>
	<path d="M760.627,230.413h41.16v90.888c0,6.384,1.512,7.896,7.896,7.896h3.864v13.271h-38.305v-10.752
		c-7.728,10.416-13.775,13.776-24.863,13.776c-21,0-32.76-14.784-32.76-41.664c0-26.208,12.432-42.672,32.256-42.672
		c9.912,0,16.128,3.023,24.191,11.592v-21c0-4.032-0.168-4.704-1.008-5.88c-1.176-1.344-3.191-2.016-6.888-2.016h-5.544V230.413z
		 M747.69,301.98c0,19.488,4.368,28.896,13.44,28.896c8.736,0,12.936-9.072,12.936-27.552c0-18.313-4.031-26.712-13.104-26.712
		C752.059,276.613,747.69,284.845,747.69,301.98z"/>
	<path d="M55.821,497.029h4.368c6.216,0,7.728-1.513,7.728-7.896v-36.12c0-6.384-1.512-7.896-7.728-7.896h-4.368v-13.44h38.808
		v10.92c7.728-9.743,14.616-13.104,26.711-13.104c11.76,0,18.313,3.696,22.68,12.768c8.232-9.239,15.792-12.936,26.376-12.936
		c7.728,0,14.784,2.52,18.984,6.888c4.368,4.536,5.88,10.584,5.88,22.512v30.408c0,7.056,0.84,7.896,8.736,7.896h3.696v13.439
		h-48.048v-13.439c6.216-0.169,7.896-1.849,7.896-7.896v-30.408c0-5.712-0.504-8.231-2.184-10.584
		c-1.68-2.352-4.704-3.695-7.896-3.695c-7.56,0-11.76,6.384-11.76,17.808v25.872c0,7.896,0.672,8.735,7.56,8.904v13.439h-43.344
		v-13.439c6.552-0.169,8.064-1.681,8.064-7.896v-30.408c0-5.712-0.504-8.231-2.353-10.584c-1.68-2.352-4.704-3.695-7.896-3.695
		c-7.728,0-11.76,6.216-11.76,18.312v26.376c0,6.888,0.84,7.728,7.728,7.896v13.439h-47.88V497.029z"/>
	<path d="M294.01,483.757c-5.208,19.824-18.313,29.568-39.816,29.568c-25.536,0-42.167-16.465-42.167-42c0-25.872,16.128-42,42-42
		c18.648,0,32.088,8.231,38.304,23.52c2.688,6.721,3.024,8.736,3.024,21.672H241.09c0.504,16.632,4.872,23.017,16.296,23.017
		c5.712,0,11.088-2.185,13.776-5.544c1.344-1.681,2.352-4.2,3.024-8.232H294.01z M267.13,461.077
		c-0.168-6.552-0.84-9.576-2.688-12.433c-2.016-3.191-5.712-5.039-9.912-5.039c-4.2,0-8.4,2.184-10.416,5.376
		c-1.512,2.52-2.016,5.208-2.52,12.096H267.13z"/>
	<path d="M300.561,431.677h40.992v57.456c0,6.552,1.344,7.896,7.56,7.896h4.2v13.439h-52.751v-13.439h5.04
		c6.384,0,7.728-1.345,7.728-7.896v-33.768c0-9.072-0.504-9.912-7.56-9.912h-5.208V431.677z M339.873,411.35
		c0,7.392-6.552,13.943-13.944,13.943c-7.728,0-13.944-6.216-13.944-14.111c0-7.561,6.216-13.776,13.944-13.776
		C333.321,397.405,339.873,403.789,339.873,411.35z"/>
	<path d="M359.78,497.029h4.536c6.384,0,7.896-1.513,7.896-7.896v-36.12c0-6.384-1.512-7.896-7.896-7.896h-4.536v-13.44h38.976
		v12.097c8.736-10.584,16.128-14.28,28.392-14.28c8.4,0,15.624,2.52,19.992,6.72c4.368,4.368,5.712,9.576,5.712,22.512v30.408
		c0,6.384,1.512,7.896,7.728,7.896h3.864v13.439h-49.056v-13.439h1.848c6.216,0,7.728-1.513,7.728-7.896v-30.408
		c0-9.575-3.864-14.279-11.592-14.279c-8.568,0-13.272,6.384-13.272,17.976v26.712c0,6.384,1.512,7.896,7.729,7.896h1.68v13.439
		H359.78V497.029z"/>
	<path d="M547.266,398.413h65.352v14.616h-5.879c-9.24,0-10.416,1.008-10.416,9.744v50.063c0,16.296-3.192,25.368-11.088,31.92
		c-7.057,5.88-17.473,8.904-29.736,8.904c-24.192,0-40.32-12.769-40.32-31.92c0-12.265,7.56-20.832,18.312-20.832
		c9.576,0,16.296,6.384,16.296,15.456c0,7.56-5.208,13.439-12.264,13.439c-1.848,0-4.704-0.504-7.56-1.176
		c5.208,6.72,9.408,8.904,16.968,8.904c6.385,0,11.088-2.185,14.112-6.553c2.688-4.031,3.36-7.392,3.36-18.144v-50.063
		c0-8.736-1.176-9.744-10.248-9.744h-6.889V398.413z"/>
	<path d="M708.51,489.133c0,9.408-1.176,13.44-4.871,17.472c-4.201,4.536-10.248,6.721-18.145,6.721
		c-10.92,0-15.96-3.024-20.16-11.929c-6.216,6.216-9.072,8.232-14.783,10.08c-4.2,1.344-8.4,2.017-12.601,2.017
		c-15.288,0-25.032-8.904-25.032-22.513c0-6.888,2.688-12.6,7.393-16.296c4.536-3.527,7.224-4.367,21-7.224
		c9.072-1.848,13.775-3.36,16.8-4.872c3.528-1.848,5.712-5.712,5.712-10.08c0-7.728-6.72-12.936-16.968-12.936
		c-5.376,0-8.568,0.84-12.601,3.359c6.553,0.841,9.912,4.2,9.912,9.744c0,5.712-6.048,10.416-13.439,10.416
		c-8.4,0-14.28-5.208-14.28-12.768c0-13.272,14.448-21.504,37.464-21.504c13.775,0,25.536,3.191,31.08,8.567
		c4.031,4.032,5.04,7.729,5.04,20.496v30.408c0,5.04,1.344,7.56,4.2,7.56c3.023,0,4.199-2.184,4.199-7.56v-6.888h10.08V489.133z
		 M663.15,471.661c-1.68,0.84-3.528,1.848-5.376,2.855c-3.36,1.681-6.72,3.36-10.248,4.872c-3.864,1.849-6.048,4.872-6.048,8.232
		c0,5.376,4.199,9.071,9.912,9.071c7.392,0,11.76-5.04,11.76-13.439V471.661z"/>
	<path d="M714.557,497.029h4.032c6.384,0,7.896-1.513,7.896-7.896v-69.384c0-6.384-1.513-7.896-7.896-7.896h-4.032v-13.44h38.473
		v44.52c10.08-10.247,16.968-13.439,28.392-13.439c8.399,0,15.624,2.52,19.991,6.888c4.369,4.368,5.713,9.576,5.713,22.344v30.408
		c0,6.384,1.512,7.896,7.896,7.896h3.864v13.439h-49.224v-13.439h1.848c6.216,0,7.728-1.513,7.728-7.896v-30.408
		c0-9.575-3.695-14.111-11.424-14.111c-9.408,0-13.439,6.216-13.439,20.664v23.855c0,6.384,1.512,7.896,7.729,7.896h1.848v13.439
		h-49.393V497.029z"/>
	<path d="M825.235,497.029h4.872c6.384,0,7.896-1.513,7.896-7.896v-36.12c0-6.384-1.513-7.896-7.896-7.896h-4.872v-13.44h39.312
		v7.896c7.729-7.729,12.6-10.08,20.664-10.08c11.256,0,18.648,7.224,18.648,18.144c0,9.576-5.881,15.96-14.784,15.96
		c-7.224,0-12.265-4.872-12.265-11.928c0-5.208,2.185-7.896,8.232-10.08c-2.184-0.84-4.199-1.344-5.376-1.344
		c-3.696,0-8.399,3.696-10.752,8.231c-1.68,3.36-3.024,10.248-3.024,15.624v25.032c0,6.384,1.513,7.896,7.896,7.896h6.72v13.439
		h-55.271V497.029z"/>
	<path d="M931.999,499.717c0,7.728-6.216,14.112-13.944,14.112c-8.063,0-14.279-6.217-14.279-14.448
		c0-7.392,6.552-13.776,14.111-13.776C925.615,485.604,931.999,491.989,931.999,499.717z"/>
</g>
</svg>
