<?xml version="1.0" encoding="utf-8"?>
<!-- Generator: Adobe Illustrator 15.1.0, SVG Export Plug-In . SVG Version: 6.00 Build 0)  -->
<!DOCTYPE svg PUBLIC "-//W3C//DTD SVG 1.1//EN" "http://www.w3.org/Graphics/SVG/1.1/DTD/svg11.dtd">
<svg version="1.1" id="vs_text" xmlns="http://www.w3.org/2000/svg" xmlns:xlink="http://www.w3.org/1999/xlink" x="0px" y="0px"
	 width="1080px" height="1080px" viewBox="0 0 1080 1080" enable-background="new 0 0 1080 1080" xml:space="preserve">
<g>
	<path d="M146.682,605.234c9.938,8.938,14.938,20.375,14.938,34.375c0,12.063-3.75,23.438-10.75,32.125
		s-18.438,14.188-32.125,14.188c-2.438,0-6.438-0.188-11.875-0.5s-9.5-0.5-12.188-0.5c-5.875,0-12.563,1-12.5,1
		c-0.938,0-1.625-0.688-1.938-2c-0.938-3.25-1.438-6.375-1.438-9.375c0-1.063,0.813-1.688,2.438-1.938c3.688-0.688,7.375-1,11.125-1
		h1.938c1.563-2.375,2.313-7.75,2.313-16.125c0-4.438-0.063-10.5-0.188-18.188s-0.188-13-0.188-16c0-2.313,1.125-3.438,3.438-3.438
		h9.375c2.063,0,3.063,1.125,3.063,3.313l-0.125,32.5c0,9.625-1.125,15.875-3.375,18.688c3.438,0.188,5.875,0.25,7.438,0.25
		c8.813,0,15.75-3.125,20.875-9.438c5.125-6.25,7.688-14.125,7.688-23.563c0-10.063-3.438-18.25-10.375-24.5
		c-6.938-6.188-15.563-9.313-26-9.313c-8.563,0-15.625,2.25-21.188,6.75c-5.563,4.563-8.375,10-8.375,16.313
		c0,5.938,2.625,10.5,7.813,13.688c0.688,0.313,1,0.75,1.063,1.313c0,0.688-0.75,2.25-2.188,4.688c-1.438,2.5-2.625,4.188-3.5,5.125
		c-0.25,0.5-0.688,0.75-1.25,0.813c-1.938,0-5.375-2.188-9.375-5.938c-2.063-1.875-3.75-4.563-5.188-8.063
		s-2.188-7.375-2.188-11.625c0-10.938,4.313-19.813,12.875-26.688s19.125-10.313,31.75-10.313
		C123.932,591.859,136.682,596.297,146.682,605.234z"/>
	<path d="M176.307,675.859c-4.5-5.375-6.75-12.438-6.75-21.125c0-8.938,2.563-16.438,7.75-22.438
		c5.188-5.938,11.688-8.938,19.625-8.938c7,0,12.875,2.188,17.688,6.5l0.375-0.125v-1.625c0-2.063,1-3.063,2.938-3.125h9.875
		c2.063,0,3.063,1.125,3.063,3.375c0,0.188-0.25,4.375-0.688,12.625c-0.5,8.313-0.75,14.438-0.75,18.438c0,6,2.563,10.5,6.813,10.5
		c3,0,5.813-1.563,8.5-4.75c2.625-3.125,4.813-6.813,6.5-11.125c0.25-0.563,0.563-0.875,1-0.875c0.688,0,2.313,0.688,4.875,2
		s3.813,2.313,3.813,2.875c0,0.313-0.063,0.75-0.25,1.25c-1.5,4.938-4.25,10.063-8.813,15.438s-11.813,9.188-19.875,9.188
		c-4.688,0-8.5-1.063-11.438-3.188c-2.938-2.063-4.438-4.938-4.438-8.625v-1.25l-0.5-0.125c-1.688,3.813-4.438,7-8.125,9.438
		c-3.688,2.5-8.188,3.75-13.375,3.75C186.682,683.922,180.744,681.234,176.307,675.859z M207.244,665.047
		c2.813-3.188,4.813-6.813,6-10.813c1.188-3.938,1.75-7.75,1.75-11.313c-3.938-3.75-8.125-5.625-12.563-5.625
		c-4.688,0-8.625,1.688-11.688,5.125c-3.125,3.438-4.688,7.813-4.688,13.188c0,4.25,1.063,7.688,3.188,10.313
		c2.125,2.688,4.875,4,8.188,4C201.182,669.922,204.432,668.297,207.244,665.047z"/>
	<path d="M267.307,682.422c-2.938-1-5.125-2.063-6.688-3.25c-1.563-1.125-2.375-2-2.375-2.688c0-1.063,0.75-2.938,2.25-5.75
		c1.438-2.75,2.5-4.125,3.125-4.125c0.063,0,1.5,0.563,4.188,1.625c2.688,1.125,5,1.688,6.938,1.688c3,0,5.438-1,7.313-2.938
		s2.813-4.25,2.813-6.875c0-5.063-2.813-8.375-9-13.313c-7.563-6.125-11.438-9.313-11.625-9.5l-0.375,0.25
		c0.25,1.375,0.375,3.063,0.375,5.125c0,3.438-0.563,7.313-1.75,11.625c-1.188,4.375-2.625,8-4.25,10.938
		c-0.313,0.563-0.625,0.875-0.938,0.875c-0.813,0-2.563-0.688-5.125-2.125c-2.625-1.438-3.938-2.438-3.938-3.125
		c0-0.063,0.375-1,1.125-2.813c2.813-5.938,4.25-12.813,4.25-20.5c0-2.125-0.125-4.688-0.375-7.625s-0.375-4.438-0.375-4.5
		c0-1.125,1.75-2.75,5.25-4.875s5.938-3.188,7.375-3.188c0.5,0,1,0.313,1.563,0.875c5.063,5.875,11.313,11.563,18.813,17
		c5.188,3.938,9.125,7.688,11.813,11.375c2.625,3.688,3.938,8.25,3.938,13.625c0,7.188-2.375,12.875-7.125,17.188
		s-10.875,6.5-18.375,6.5C273.119,683.922,270.182,683.422,267.307,682.422z"/>
	<path d="M485.432,624.984c0.75,0,1.625,1.188,2.625,3.563c0.938,2.438,1.438,3.938,1.438,4.563c0,1.688-1.813,3.75-5.438,6.063
		s-7.938,3.5-12.875,3.5c-3.563,0-6.625-0.625-9.188-1.938c-1.063,7.563-3.563,15.125-7.5,22.563c-4,7.5-8.688,13.875-14.063,19.063
		c-0.688,0.688-1.438,1-2.25,1c-7.188,0-12.063-0.563-14.625-1.75c-0.75-0.25-1.25-0.875-1.5-1.938c-2.063-14.313-4.875-27-8.5-38
		h-0.375c-0.75,6.688-2.5,13.75-5.188,21.313c-2.75,7.563-6.125,13.938-10.188,19.125c-0.563,0.813-1.5,1.25-2.688,1.25
		c-6.25,0-10.75-0.5-13.563-1.5c-1.313-0.438-1.938-1.125-2-2.188c-3.063-13.75-7.188-26.438-12.313-38.125l-0.375,0.125
		c-0.5,8.563-2.313,16.063-5.375,22.5c-0.75,1.313-1.25,1.938-1.563,1.938c-0.813,0-2.563-0.688-5.125-2.125
		c-2.625-1.438-3.938-2.438-3.938-3.125c0-0.313,1.125-3,1.625-4.125c2.625-6.25,3.938-12.938,4-20.063v-5.125
		c0-1.188,2.188-2.813,6.5-4.875s7.313-3.063,9.125-3.063c0.688,0,1.5,0.688,2.563,2.063c3.563,5.438,6.938,12.188,10.125,20.188
		c3.125,8.063,5.313,16,6.625,23.938l0.375,0.125c4.938-10.688,8.688-24.375,11.25-41.063c0.188-0.5,0.625-0.938,1.313-1.313
		c1.188-0.438,3.75-0.938,7.688-1.5s6.625-0.875,8.188-0.875c0.5,0,0.938,0.375,1.375,1.125c2.813,5.063,5.563,11.75,8.125,20.063
		c2.563,8.375,4.125,16.188,4.688,23.438l0.375,0.125c7.75-10.75,11.625-21.938,11.688-33.625c0-2.125-0.188-4.375-0.563-6.688
		c-0.438-2.313-0.625-3.5-0.625-3.688c0-0.813,1.938-1.875,5.875-3.125c3.875-1.25,6.688-1.875,8.375-1.875
		c0.563,0,1.063,0.375,1.375,1.125c1.875,5.375,5.813,8.063,11.813,8.063c3.25,0,6.75-1.5,10.438-4.563
		C483.869,625.172,484.619,624.984,485.432,624.984z"/>
	<path d="M481.682,605.922c0-4.938,3.688-8.313,8.938-8.313c4.938,0,8.688,2.938,8.688,8.188c0,5.313-3.5,9-9.188,9
		C485.182,614.797,481.682,611.234,481.682,605.922z M482.182,662.234v-34c0-2.125,1-3.188,2.938-3.25h10.25
		c2.125,0,3.188,1.125,3.188,3.375c0,2.563-0.125,7.875-0.313,16c-0.188,8.188-0.313,13-0.313,14.438
		c0,7.438,2.5,11.125,7.438,11.125c3.25,0,6.313-1.625,9.125-4.938c2.813-3.25,4.875-6.875,6.188-10.813c0.25-0.688,0.688-1,1.313-1
		c0.688,0,2.313,0.688,4.875,2s3.813,2.313,3.813,2.875c0,0.313-0.063,0.75-0.25,1.25c-2.125,6.5-5.688,12.25-10.625,17.188
		s-11,7.438-18.063,7.438C489.244,683.922,482.182,676.047,482.182,662.234z"/>
	<path d="M591.807,655.172c2.5,1.313,3.75,2.313,3.75,2.875c0,0.313-0.063,0.75-0.25,1.25c-2.063,6.75-5.625,12.563-10.813,17.375
		s-11.438,7.25-18.875,7.25c-6.25,0-11.313-1.75-15.25-5.188s-5.875-7.938-5.875-13.375c0-6.563,2.813-15.063,8.438-25.5
		l-0.25-0.375c-4.438,1.125-8.688,1.688-12.813,1.688c-2.063,0-3.938-0.125-5.75-0.438c-0.188,8.938-2.188,17.125-6.125,24.5
		c-0.313,0.563-0.688,0.875-1.063,0.875c-0.75,0-2.438-0.688-5.063-2.125c-2.688-1.438-4-2.438-4-3.125
		c0-0.188,0.125-0.625,0.375-1.438c3.25-6.688,4.875-13.563,4.875-20.688v-1.063c-1.688-0.938-3.188-1.938-4.5-2.938
		c-0.813-0.75-1.25-1.625-1.25-2.563c0-1.125,1-3.188,3.063-6.25c2.063-3,3.625-4.5,4.75-4.5c0.563-0.25,6.438,5.875,18.125,5.625
		c7.688,0.125,16.688-3.188,17.063-3.063c1.063,0,2.875,1.438,5.438,4.313c2.563,2.938,3.875,4.875,3.875,5.938
		c0,0.313-1.5,4-4.563,11s-4.625,12.563-4.625,16.75c0,4.75,2.625,7.938,8.313,7.938c3.75,0,7.125-1.563,10.125-4.75
		c2.938-3.125,5.188-6.813,6.75-11c0.313-0.688,0.688-1,1.188-1C587.619,653.172,589.244,653.859,591.807,655.172z"/>
	<path d="M589.994,675.672c-4.5-5.438-6.75-12.5-6.75-21.063c0-8.688,2.563-16.125,7.625-22.188s11.813-9.063,20.125-9.063
		c6.75,0,13.125,2.313,19.125,6.875l0.5-0.125v-32.25c0-2.188,1-3.313,2.938-3.313h9.438c2.125,0,3.188,1.125,3.25,3.438
		c0,2.375-0.25,12-0.813,28.938s-0.875,27.813-0.875,32.625c0,6.938,2.375,10.375,7.188,10.375c3.063,0,6-1.625,8.688-4.938
		c2.688-3.25,4.875-6.875,6.5-10.938c0.25-0.563,0.625-0.875,1.063-0.875c0.75,0,2.375,0.688,4.938,2c2.5,1.313,3.75,2.25,3.75,2.75
		c0,0.438-0.063,0.875-0.25,1.375c-1.813,6.25-5.25,11.938-10.313,17s-11.188,7.625-18.25,7.625c-5.375,0-9.75-1.125-13.063-3.5
		c-3.313-2.313-5-5.375-5-9.188v-1.063l-0.5-0.125c-1.813,3.813-4.5,7.125-8.125,9.813s-8,4.063-13.125,4.063
		C600.494,683.922,594.432,681.172,589.994,675.672z M623.932,661.047c3.188-5.938,4.75-11.938,4.75-18.125
		c-3.938-3.75-8.125-5.625-12.563-5.625c-4.688,0-8.625,1.688-11.688,5.125c-3.125,3.438-4.688,7.75-4.688,13.063
		c0,4.313,1.063,7.813,3.25,10.438c2.125,2.688,4.938,4,8.438,4C616.557,669.922,620.744,666.984,623.932,661.047z"/>
	<path d="M792.432,678.734c-3.813-3.438-5.75-7.75-5.75-12.875c0-2.375,0.125-5.688,0.375-9.938c0.188-4.188,0.313-7.25,0.313-9.125
		c0-6.313-2.125-9.5-6.438-9.5c-4.438,0-8.188,3.875-11.25,11.688s-4.625,17.563-4.625,29.25c0,2.75-1.063,4.125-3.188,4.125h-9.563
		c-1.688,0-3.125-1.5-3.125-3.313c0-2.625,0.063-7.5,0.188-14.625c0.063-7.063,0.125-12.938,0.125-17.625c0-6.5-1.813-9.5-6.563-9.5
		c-3.5,0-6.563,2.188-9.25,6.563c-2.688,4.438-4.625,9.313-5.75,14.688c-1.188,5.375-1.75,10.438-1.75,15.125v5.5
		c0,2.125-1,3.188-2.938,3.188h-9.875c-2.063,0-3.063-1.125-3.063-3.313v-50.563c0-2.313,1.063-3.438,3.188-3.5h9.5
		c2.125,0,3.188,1.125,3.188,3.375c0,0.5-0.125,2-0.438,4.563s-0.5,4.188-0.5,4.875l0.563,0.125
		c5.375-9.688,12.75-14.563,22.125-14.563c4.188,0,7.625,1.438,10.438,4.25c2.75,2.875,4.125,6.25,4.125,10.063l-0.125,1.688
		l0.438,0.125c4.938-10.75,12.688-16.125,23.25-16.125c5.313,0,9.625,1.5,12.938,4.5c3.313,3.063,5,7.063,5,12.125
		c0,0.938-0.125,3.875-0.313,8.75c-0.188,4.938-0.313,8.938-0.313,12c0,6.125,2.188,9.188,6.5,9.188c3,0,5.875-1.688,8.625-5
		c2.688-3.313,4.813-6.938,6.25-10.875c0.25-0.563,0.625-0.875,1.125-0.875c0.688,0,2.25,0.625,4.813,1.875
		c2.5,1.313,3.75,2.25,3.75,2.813c0,0.625-0.063,1.313-0.25,2c-2.313,6.688-5.875,12.313-10.75,17
		c-4.938,4.688-10.688,7.063-17.375,7.063C800.744,683.922,796.244,682.172,792.432,678.734z"/>
	<path d="M831.182,675.547c-6.063-5.563-9.063-12.875-9.063-22c0-8.375,2.625-15.5,7.813-21.375s11.75-8.813,19.688-8.813
		c5.625,0,10.313,1.688,14,5.063s5.5,7.625,5.5,12.75c0,6.938-2.438,12.188-7.375,15.813s-11.125,5.438-18.625,5.438
		c-1.125,0-2.438-0.125-4-0.313c2.438,5.5,9,9,17.688,9c6.063,0,11.188-1.563,15.375-4.688s7.25-7.25,9.188-12.375
		c0.25-0.563,0.625-0.875,1.188-0.875c0.688,0,2.25,0.688,4.813,2c2.5,1.313,3.75,2.313,3.75,2.875c0,0.313-0.063,0.75-0.25,1.25
		c-2.188,7.5-6.5,13.5-12.875,17.938s-14.25,6.688-23.625,6.688C844.932,683.922,837.182,681.109,831.182,675.547z M851.557,648.797
		c3-1.813,4.5-4.375,4.5-7.813c0-3.563-2.5-6-6.563-6c-3.563,0-6.625,1.563-9.063,4.688c-2.5,3.125-3.688,6.688-3.563,10.688v0.875
		c1.188,0.188,2.375,0.25,3.688,0.25C844.869,651.484,848.557,650.609,851.557,648.797z"/>
	<path d="M880.494,605.922c0-4.938,3.688-8.313,8.938-8.313c4.938,0,8.688,2.938,8.688,8.188c0,5.313-3.5,9-9.188,9
		C883.994,614.797,880.494,611.234,880.494,605.922z M880.994,662.234v-34c0-2.125,1-3.188,2.938-3.25h10.25
		c2.125,0,3.188,1.125,3.188,3.375c0,2.563-0.125,7.875-0.313,16c-0.188,8.188-0.313,13-0.313,14.438
		c0,7.438,2.5,11.125,7.438,11.125c3.25,0,6.313-1.625,9.125-4.938c2.813-3.25,4.875-6.875,6.188-10.813c0.25-0.688,0.688-1,1.313-1
		c0.688,0,2.313,0.688,4.875,2s3.813,2.313,3.813,2.875c0,0.313-0.063,0.75-0.25,1.25c-2.125,6.5-5.688,12.25-10.625,17.188
		s-11,7.438-18.063,7.438C888.057,683.922,880.994,676.047,880.994,662.234z"/>
	<path d="M963.994,678.734c-3.688-3.438-5.563-7.75-5.563-12.875c0-2.313,0.125-5.563,0.313-9.813
		c0.188-4.188,0.313-7.375,0.313-9.5c0-6.125-2.438-9.188-7.313-9.25c-2.563,0-4.875,1.25-7.063,3.688
		c-2.188,2.5-3.938,5.688-5.25,9.5c-2.625,7.688-4.313,16.625-4.313,24.313v4c0,2.375-1.063,3.563-3.188,3.563h-9.5
		c-2.125,0-3.188-1.188-3.188-3.563v-50.063c0-2.438,1.125-3.688,3.313-3.75h9.375c2.125,0,3.188,1.125,3.188,3.375
		c0,0.688-0.313,3.875-0.938,9.563l0.563,0.125c5.063-9.813,12.563-14.75,22.625-14.688c5.688,0,10.188,1.563,13.438,4.688
		c3.25,3.188,4.875,7.375,4.875,12.563c0,1.063-0.125,3.813-0.313,8.375s-0.313,8.188-0.313,10.75c0,6.813,2.125,10.25,6.375,10.188
		c2.938,0,5.75-1.563,8.5-4.75c2.688-3.125,4.875-6.813,6.5-11.125c0.25-0.563,0.625-0.875,1.125-0.875c0.688,0,2.25,0.688,4.813,2
		c2.5,1.313,3.75,2.313,3.75,2.875c0,0.313-0.063,0.75-0.25,1.25c-1.688,5.813-5,11.313-9.875,16.625c-4.938,5.313-11,8-18.25,8
		C972.307,683.922,967.682,682.172,963.994,678.734z"/>
	<path d="M188.658,765.445c0,1.777-0.957,3.145-2.871,3.828c-4.785,1.504-9.16,2.598-13.125,3.418
		c-2.461,5.605-3.691,17.363-3.691,35.273v142.188c0,18.73-4.785,34.18-14.219,46.348c-9.57,12.168-23.242,18.32-40.879,18.32
		c-20.918,0-36.094-11.758-41.973-31.582c-0.684-1.777-1.094-3.281-1.094-4.375c-0.137-1.23,2.461-3.145,7.52-5.879
		c5.059-2.871,8.066-4.238,9.16-4.238c0.957,0,1.641,0.684,2.324,2.188c5.332,14.902,13.945,22.422,25.703,22.422
		c19.277,0,29.941-16.27,29.941-44.023V815.484c0-18.184,2.188-30.762,6.426-37.734c-43.34,10.801-64.941,27.207-64.941,49.219
		c0,6.426,2.324,11.895,6.973,16.406c4.512,4.512,10.117,7.246,16.543,8.203c1.504,0.137,2.188,0.82,2.324,2.051
		c0,1.23-0.684,3.828-2.188,7.52s-3.008,6.699-4.238,8.75c-0.41,1.094-1.094,1.641-2.324,1.641c-9.297,0-18.32-4.102-26.934-12.441
		c-8.75-8.34-13.125-18.73-13.125-31.309c0-35.137,27.07-58.652,81.211-70.82c5.605-1.504,11.348-3.008,17.227-4.785
		c5.879-1.641,10.391-2.871,13.398-3.691c2.871-0.82,4.648-1.23,5.195-1.23c1.23,0,2.188,0.684,3.145,2.188
		C187.154,757.105,188.658,762.438,188.658,765.445z"/>
	<path d="M216.822,927.867c-10.117-11.348-15.176-26.387-15.176-45.117c0-19.277,5.605-35.273,16.816-47.988
		s25.566-19.004,43.203-19.004c16.406,0,30.078,5.195,41.152,15.449l0.82-0.273v-6.699c0-3.555,1.641-5.332,5.059-5.332h13.672
		c3.555,0,5.332,1.914,5.332,5.605c0,0.41-0.547,10.391-1.504,30.078c-1.094,19.688-1.641,33.906-1.641,42.656
		c0,16.406,6.426,26.934,17.91,26.934c7.793,0,15.039-3.965,21.602-11.758s12.031-16.953,16.27-27.207
		c0.547-1.23,1.23-1.914,2.188-1.914c1.094,0,3.555,0.957,7.52,3.008c3.828,2.051,5.742,3.691,5.742,4.785
		c0,0.684-0.273,1.641-0.684,2.871c-3.281,10.391-9.434,21.191-18.73,32.402s-23.242,18.73-38.555,18.73
		c-9.98,0-17.91-2.598-23.926-7.93c-6.152-5.332-9.16-12.168-9.16-20.781c0-1.777,0.273-5.742,0.273-6.289l-1.094-0.273
		c-3.555,9.707-9.57,17.91-17.91,24.883c-8.477,6.973-18.867,10.391-31.172,10.391C239.518,945.094,226.803,939.352,216.822,927.867
		z M284.498,911.598c7.109-8.34,12.031-17.773,14.902-28.027s4.238-20.234,4.238-29.941c-3.691-4.512-8.887-8.34-15.449-11.758
		s-13.262-5.059-20.098-5.059c-12.168,0-22.148,4.238-29.941,12.852c-7.93,8.613-11.895,19.824-11.895,33.906
		c0,12.168,3.145,21.875,9.434,29.395s13.945,11.211,23.105,11.211C268.775,924.176,277.252,919.938,284.498,911.598z"/>
	<path d="M475.904,934.977c-7.52-6.699-11.211-15.449-11.211-26.25c0-5.742,0.41-13.809,1.094-24.199s0.957-18.32,0.957-23.926
		c0-15.859-6.152-23.789-18.457-23.789c-8.887,0-16.953,5.059-24.199,15.313s-12.441,22.012-15.723,35
		c-3.281,13.125-4.922,25.43-4.922,36.777v12.578c0,3.965-1.777,5.879-5.332,5.879h-13.398c-3.555,0-5.332-2.051-5.332-6.152
		V757.516c0-4.102,1.777-6.152,5.332-6.152h13.398c3.555,0,5.332,1.914,5.332,5.879v50.723c0,18.184-0.684,35.41-2.188,51.816
		l1.094,0.273c4.238-12.168,10.938-22.559,19.824-31.309c8.887-8.613,19.551-12.988,31.719-12.988
		c24.336,0,37.734,13.398,37.734,37.598c0,1.777-0.273,8.34-0.957,19.551s-0.957,20.371-0.957,27.48
		c0,15.859,6.016,23.789,18.184,23.789c7.793,0,15.176-3.965,21.875-12.031s11.895-16.953,15.859-26.934
		c0.547-1.23,1.367-1.914,2.324-1.914c1.094,0,3.555,0.957,7.383,3.008s5.742,3.691,5.742,4.785c0,0.684-0.137,1.641-0.547,2.871
		c-3.691,10.391-9.434,20.918-18.594,32.129s-23.379,19.004-39.102,19.004C492.311,945.094,483.424,941.676,475.904,934.977z"/>
	<path d="M694.381,886.305c3.828,2.051,5.742,3.691,5.742,4.785c0,0.684-0.137,1.641-0.547,2.871
		c-4.512,13.262-11.758,25.02-22.012,35.41c-10.254,10.527-22.832,15.723-37.598,15.723c-11.895,0-21.738-3.555-29.395-10.664
		c-7.656-6.973-11.484-16.27-11.484-27.891c0-12.441,5.195-33.086,15.449-61.934l-0.547-0.82c-8.887,2.461-18.32,3.691-28.027,3.691
		c-5.605,0-11.211-0.547-16.816-1.504v3.965c0,8.203-1.094,17.227-3.145,26.934c-2.188,9.844-5.195,18.184-8.887,24.883
		c-0.547,1.23-1.23,1.914-1.914,1.914c-1.504,0-4.102-1.094-8.066-3.281c-3.965-2.051-6.016-3.691-6.016-4.785
		c0,0,1.23-4.375,2.051-5.879c5.605-13.398,8.34-27.617,8.34-42.793c0-2.598-0.137-4.648-0.273-5.879
		c-3.965-1.777-7.656-4.102-11.211-6.836c-2.324-2.051-3.418-3.828-3.418-5.195c0-1.641,1.641-4.785,4.922-9.297
		s5.742-6.699,7.52-6.699c1.094,0,5.332,3.418,10.801,6.563c5.332,3.145,17.5,6.563,31.719,6.563
		c16.953,0.273,33.906-6.289,34.727-6.152c1.504,0,4.102,2.051,8.066,6.289s5.879,6.973,5.879,8.34
		c0,0.957-1.367,5.332-4.238,13.398s-5.879,17.227-8.75,27.754s-4.375,19.551-4.375,27.07c0,13.125,8.066,21.328,21.602,21.328
		c8.887,0,16.816-3.965,23.789-12.031s12.305-16.953,16.27-26.66c0.547-1.504,1.23-2.188,2.188-2.188
		C687.955,883.297,690.553,884.254,694.381,886.305z"/>
	<path d="M727.74,930.055c0-8.887,6.563-14.902,15.449-14.902s15.039,5.742,15.039,14.629c0,9.297-6.016,15.313-15.313,15.313
		C734.029,945.094,727.74,939.352,727.74,930.055z"/>
</g>
</svg>
