<?xml version="1.0" encoding="utf-8"?>
<!-- Generator: Adobe Illustrator 15.1.0, SVG Export Plug-In . SVG Version: 6.00 Build 0)  -->
<!DOCTYPE svg PUBLIC "-//W3C//DTD SVG 1.1//EN" "http://www.w3.org/Graphics/SVG/1.1/DTD/svg11.dtd">
<svg version="1.1" id="vs_text" xmlns="http://www.w3.org/2000/svg" xmlns:xlink="http://www.w3.org/1999/xlink" x="0px" y="0px"
	 width="1080px" height="1080px" viewBox="0 0 1080 1080" enable-background="new 0 0 1080 1080" xml:space="preserve">
<g>
	<path d="M240.671,202.915h-46.24v33.66h44.88v11.9h-44.88v44.029h46.24v11.9h-58.819V191.015h58.819V202.915z"/>
	<path d="M288.781,250.174c-1.7-4.08-5.27-7.14-9.86-7.14c-4.42,0-8.5,2.55-8.5,7.99c0,5.1,3.4,6.63,11.39,10.03
		c10.2,4.25,14.96,7.48,17.68,10.88c3.06,3.74,3.74,7.48,3.74,11.39c0,14.79-10.71,23.12-24.31,23.12c-2.89,0-18.7-0.34-24.65-18.02
		l10.54-4.42c1.36,3.74,5.44,11.56,14.28,11.56c7.99,0,11.56-5.95,11.56-11.22c0-6.63-4.76-8.84-11.39-11.73
		c-8.5-3.74-13.939-6.46-17.17-10.37c-2.72-3.4-3.229-6.8-3.229-10.37c0-12.41,8.67-19.72,20.569-19.72
		c3.74,0,13.77,0.68,19.38,12.75L288.781,250.174z"/>
	<path d="M374.797,180.475v79.559l25.84-26.18h15.979l-30.26,30.26l35.7,40.29h-15.98l-28.22-32.13l-3.06,3.06v29.07h-12.24V180.475
		H374.797z"/>
	<path d="M482.916,233.854h12.24v70.549h-12.24v-9.86c-4.08,5.27-11.73,11.9-24.14,11.9c-17.85,0-34.34-12.58-34.34-37.4
		c0-24.31,16.32-36.889,34.34-36.889c13.6,0,20.91,7.479,24.14,11.729V233.854z M437.017,269.044c0,15.13,8.5,26.52,23.12,26.52
		c14.959,0,23.459-12.41,23.459-26.35c0-18.19-12.58-26.18-23.459-26.18C448.066,243.035,437.017,251.875,437.017,269.044z"/>
	<path d="M516.642,233.854h12.24v8.16c2.21-2.89,8.5-9.86,20.229-9.86c8.33,0,15.98,3.4,20.23,9.69
		c3.569,5.27,4.08,11.05,4.08,18.87v43.689h-12.24v-43.35c0-4.25-0.34-9.18-3.23-12.92c-2.38-3.06-6.119-5.1-11.56-5.1
		c-4.25,0-8.84,1.19-12.41,5.44c-4.76,5.61-5.1,13.939-5.1,19.04v36.89h-12.24V233.854z"/>
	<path d="M594.721,233.854h12.24v8.16c2.209-2.89,8.5-9.86,20.229-9.86c8.33,0,15.979,3.4,20.229,9.69
		c3.57,5.27,4.08,11.05,4.08,18.87v43.689h-12.24v-43.35c0-4.25-0.34-9.18-3.229-12.92c-2.38-3.06-6.12-5.1-11.56-5.1
		c-4.25,0-8.84,1.19-12.41,5.44c-4.76,5.61-5.1,13.939-5.1,19.04v36.89h-12.24V233.854z"/>
	<path d="M717.626,233.854h12.239v8.16c2.211-2.89,8.5-9.86,20.23-9.86c8.33,0,15.979,3.4,20.229,9.69
		c3.57,5.27,4.08,11.05,4.08,18.87v43.689h-12.239v-43.35c0-4.25-0.341-9.18-3.23-12.92c-2.38-3.06-6.12-5.1-11.561-5.1
		c-4.25,0-8.84,1.19-12.409,5.44c-4.761,5.61-5.101,13.939-5.101,19.04v36.89h-12.239V233.854z"/>
	<path d="M807.435,274.994c0,4.93,0,10.71,3.399,15.13c1.87,2.38,5.61,5.44,12.41,5.44s10.54-3.06,12.41-5.44
		c3.399-4.42,3.399-10.2,3.399-15.13v-41.14h12.24v42.5c0,8.67-0.851,15.13-6.46,21.25c-6.29,6.63-14.62,8.84-21.59,8.84
		s-15.3-2.21-21.59-8.84c-5.609-6.12-6.46-12.58-6.46-21.25v-42.5h12.24V274.994z"/>
	<path d="M872.525,233.854h12.24v7.65c1.189-1.87,6.459-9.35,15.979-9.35c3.74,0,7.819,1.36,10.88,2.89l-5.779,11.05
		c-2.721-1.87-5.271-2.38-7.141-2.38c-4.93,0-7.99,2.04-9.859,4.42c-2.041,2.72-4.08,7.48-4.08,19.04v37.229h-12.24V233.854z"/>
</g>
<g>
	<path d="M222.62,388.479v85.247c9.216-12.544,23.04-16.64,35.583-16.64c15.616,0,29.696,5.888,39.68,15.36
		c11.008,10.496,17.919,26.112,17.919,45.056c0,17.664-6.144,34.048-17.919,45.823c-9.984,10.24-22.272,15.615-39.167,15.615
		c-20.224,0-30.464-9.471-36.096-17.663V575.1h-36.863V388.479H222.62z M228.508,497.277c-4.352,4.608-8.191,11.264-8.191,20.992
		c0,9.472,4.096,16.384,8.448,20.479c5.888,5.632,14.08,8.448,20.992,8.448c6.4,0,13.568-2.56,19.2-7.936
		c5.376-5.12,8.96-12.544,8.96-20.992c0-9.216-3.584-16.64-8.96-21.76c-5.888-5.632-12.288-7.68-19.711-7.68
		C241.308,488.829,234.396,491.133,228.508,497.277z"/>
	<path d="M455.064,524.413h-85.247c0,6.144,2.304,14.336,6.912,19.457c5.632,6.143,13.312,7.168,18.944,7.168
		c5.376,0,11.008-1.025,14.848-3.328c0.512-0.256,4.864-3.072,7.936-9.473l34.815,3.584c-5.12,16.128-15.36,24.576-22.016,28.672
		c-11.008,6.656-23.296,8.447-36.096,8.447c-17.151,0-32.255-3.071-45.567-16.383c-9.984-9.984-17.151-25.088-17.151-44.032
		c0-16.384,5.888-33.28,17.407-45.056c13.824-13.824,30.976-16.384,43.775-16.384s31.232,2.304,45.312,17.152
		c13.568,14.336,16.128,32.256,16.128,46.335V524.413z M421.017,502.397c-0.256-1.024-2.048-8.192-7.424-13.312
		c-4.096-3.84-9.983-6.4-17.407-6.4c-9.472,0-15.104,3.84-18.688,7.424c-2.816,3.072-5.376,7.168-6.4,12.288H421.017z"/>
	<path d="M544.178,490.109c-5.632-3.328-13.056-6.4-20.224-6.4c-3.84,0-8.192,1.024-10.496,3.328c-1.28,1.28-2.304,3.328-2.304,5.12
		c0,2.56,1.792,4.096,3.584,5.12c2.56,1.536,6.4,2.304,11.008,3.84l9.728,3.072c6.4,2.048,13.055,4.608,18.944,9.984
		c6.656,6.144,8.96,13.056,8.96,21.76c0,15.104-6.656,24.831-11.776,29.952c-11.264,11.264-25.087,13.055-37.119,13.055
		c-15.36,0-32-3.327-46.848-16.383l15.616-24.832c3.584,3.072,8.704,6.656,12.544,8.447c5.12,2.561,10.496,3.584,15.359,3.584
		c2.304,0,8.192,0,11.52-2.56c2.304-1.792,3.84-4.608,3.84-7.424c0-2.048-0.768-4.608-4.096-6.656
		c-2.56-1.536-5.888-2.56-11.264-4.096l-9.216-2.816c-6.656-2.048-13.568-5.632-18.432-10.496
		c-5.376-5.632-8.192-12.032-8.192-20.736c0-11.008,4.352-20.224,11.008-26.368c10.24-9.472,24.064-11.52,34.56-11.52
		c16.896,0,28.671,4.352,37.887,9.728L544.178,490.109z"/>
	<path d="M651.875,490.109c-5.632-3.328-13.057-6.4-20.225-6.4c-3.84,0-8.191,1.024-10.495,3.328c-1.28,1.28-2.304,3.328-2.304,5.12
		c0,2.56,1.791,4.096,3.584,5.12c2.56,1.536,6.399,2.304,11.008,3.84l9.728,3.072c6.399,2.048,13.056,4.608,18.944,9.984
		c6.655,6.144,8.959,13.056,8.959,21.76c0,15.104-6.656,24.831-11.775,29.952c-11.264,11.264-25.088,13.055-37.119,13.055
		c-15.36,0-32-3.327-46.848-16.383l15.615-24.832c3.584,3.072,8.704,6.656,12.544,8.447c5.12,2.561,10.496,3.584,15.36,3.584
		c2.304,0,8.191,0,11.52-2.56c2.304-1.792,3.84-4.608,3.84-7.424c0-2.048-0.768-4.608-4.096-6.656
		c-2.561-1.536-5.889-2.56-11.264-4.096l-9.217-2.816c-6.655-2.048-13.567-5.632-18.432-10.496
		c-5.375-5.632-8.191-12.032-8.191-20.736c0-11.008,4.352-20.224,11.008-26.368c10.24-9.472,24.063-11.52,34.56-11.52
		c16.896,0,28.672,4.352,37.888,9.728L651.875,490.109z"/>
	<path d="M808.672,524.413h-85.247c0,6.144,2.304,14.336,6.912,19.457c5.632,6.143,13.312,7.168,18.943,7.168
		c5.376,0,11.008-1.025,14.849-3.328c0.512-0.256,4.863-3.072,7.936-9.473l34.815,3.584c-5.12,16.128-15.36,24.576-22.016,28.672
		c-11.008,6.656-23.296,8.447-36.096,8.447c-17.151,0-32.256-3.071-45.567-16.383c-9.984-9.984-17.152-25.088-17.152-44.032
		c0-16.384,5.889-33.28,17.408-45.056c13.824-13.824,30.976-16.384,43.775-16.384s31.231,2.304,45.312,17.152
		c13.567,14.336,16.128,32.256,16.128,46.335V524.413z M774.624,502.397c-0.256-1.024-2.048-8.192-7.424-13.312
		c-4.096-3.84-9.983-6.4-17.407-6.4c-9.473,0-15.104,3.84-18.688,7.424c-2.815,3.072-5.376,7.168-6.399,12.288H774.624z"/>
	<path d="M831.354,460.926h36.864v17.919c3.327-6.4,8.448-12.288,14.336-15.872c6.144-3.84,12.544-4.864,19.712-4.864
		c4.607,0,7.936,0.512,12.031,1.792l-2.048,34.56c-4.864-2.56-10.239-4.096-16.64-4.096c-7.936,0-13.824,2.816-18.432,7.68
		c-8.192,8.704-8.96,20.992-8.96,30.72V575.1h-36.864V460.926z"/>
</g>
<g>
	<path d="M199.535,723.357l31.487,72.191l33.28-80.383l33.023,80.383l31.744-72.191h20.479L296.813,837.02l-32.768-79.358
		l-32.768,79.358l-52.223-113.662H199.535z"/>
	<path d="M457.605,802.461c-3.072,5.888-7.68,12.287-13.056,17.151c-9.728,8.704-21.759,13.056-35.328,13.056
		c-25.6,0-52.479-16.127-52.479-55.551c0-31.744,19.456-56.319,51.455-56.319c20.736,0,33.792,10.239,40.192,19.456
		c6.656,9.471,10.496,25.855,9.983,39.936h-82.687c0.256,22.016,15.359,36.095,33.792,36.095c8.704,0,15.616-2.56,21.76-7.68
		c4.864-4.096,8.704-9.472,11.008-14.592L457.605,802.461z M439.43,764.829c-3.072-16.64-15.616-27.647-31.232-27.647
		s-28.416,11.775-31.231,27.647H439.43z"/>
	<path d="M484.406,723.357h18.432v11.52c1.792-2.815,9.728-14.079,24.064-14.079c5.632,0,11.775,2.048,16.384,4.352l-8.704,16.64
		c-4.096-2.815-7.936-3.584-10.752-3.584c-7.424,0-12.032,3.072-14.848,6.656c-3.072,4.096-6.144,11.264-6.144,28.672v56.063
		h-18.432V723.357z"/>
	<path d="M637.107,642.975h18.432v186.621h-18.432v-14.848c-6.145,7.937-17.664,17.92-36.352,17.92
		c-26.88,0-51.712-18.943-51.712-56.319c0-36.607,24.576-55.551,51.712-55.551c20.479,0,31.487,11.264,36.352,17.663V642.975z
		 M567.988,776.349c0,22.784,12.799,39.936,34.815,39.936c22.527,0,35.327-18.688,35.327-39.679
		c0-27.393-18.943-39.424-35.327-39.424C584.628,737.182,567.988,750.493,567.988,776.349z"/>
	<path d="M782.998,802.461c-3.072,5.888-7.681,12.287-13.057,17.151c-9.728,8.704-21.76,13.056-35.327,13.056
		c-25.6,0-52.479-16.127-52.479-55.551c0-31.744,19.456-56.319,51.455-56.319c20.736,0,33.792,10.239,40.191,19.456
		c6.656,9.471,10.496,25.855,9.984,39.936h-82.688c0.257,22.016,15.36,36.095,33.792,36.095c8.704,0,15.616-2.56,21.76-7.68
		c4.864-4.096,8.704-9.472,11.008-14.592L782.998,802.461z M764.822,764.829c-3.072-16.64-15.616-27.647-31.232-27.647
		c-15.615,0-28.415,11.775-31.231,27.647H764.822z"/>
	<path d="M809.799,723.357h18.432v12.288c3.328-4.353,12.8-14.848,30.464-14.848c12.544,0,24.063,5.12,30.464,14.592
		c5.375,7.936,6.144,16.64,6.144,28.415v65.791H876.87v-65.279c0-6.399-0.513-13.823-4.864-19.455
		c-3.584-4.607-9.216-7.68-17.408-7.68c-6.399,0-13.312,1.792-18.688,8.191c-7.168,8.448-7.68,20.992-7.68,28.672v55.551h-18.432
		V723.357z"/>
</g>
</svg>
