<?xml version="1.0" encoding="utf-8"?>
<!-- Generator: Adobe Illustrator 15.1.0, SVG Export Plug-In . SVG Version: 6.00 Build 0)  -->
<!DOCTYPE svg PUBLIC "-//W3C//DTD SVG 1.1//EN" "http://www.w3.org/Graphics/SVG/1.1/DTD/svg11.dtd">
<svg version="1.1" id="vs_text" xmlns="http://www.w3.org/2000/svg" xmlns:xlink="http://www.w3.org/1999/xlink" x="0px" y="0px"
	 width="1080px" height="1080px" viewBox="0 0 1080 1080" enable-background="new 0 0 1080 1080" xml:space="preserve">
<g>
	<path d="M43.208,535.019c15.885,0,29.024,12.943,29.024,28.827V666.41H43.208V535.019z M82.821,535.019
		c15.885,0,29.024,12.943,29.024,28.827V666.41H82.821V535.019z M122.435,535.019h29.023v102.563
		c0,15.885-13.139,28.828-29.023,28.828V535.019z"/>
	<path d="M172.047,637.189v-44.908c0-15.885,13.139-28.827,29.024-28.827V666.41C185.187,666.41,172.047,653.271,172.047,637.189z
		 M211.661,563.454c16.081,0,29.024,13.14,29.024,29.023v8.629c0,15.885-12.943,28.827-29.024,28.827V563.454z M211.661,637.582
		h29.024c0,15.885-12.943,28.828-29.024,28.828V637.582z"/>
	<path d="M259.115,535.019c0-8.433,7.452-15.688,15.885-15.688c8.825,0,15.884,7.256,15.884,15.688
		c0,8.825-7.06,16.081-15.884,16.081C266.567,551.1,259.115,543.844,259.115,535.019z M260.292,563.454h29.023V666.41h-29.023
		V563.454z"/>
	<path d="M310.885,519.33h29.024v147.08h-29.024V519.33z M350.499,563.454c15.884,0,29.023,12.942,29.023,28.827v74.129h-29.023
		V563.454z"/>
	<path d="M400.11,563.454h29.023V666.41H400.11V563.454z M439.723,563.454c15.885,0,29.024,12.942,29.024,28.827v74.129h-29.024
		V563.454z"/>
	<path d="M516.789,563.454v28.827h-29.023C487.766,576.396,500.708,563.454,516.789,563.454z M487.766,637.386v-8.628
		c0-15.885,12.943-28.828,29.023-28.828v66.48C500.708,666.41,487.766,653.271,487.766,637.386z M527.379,563.454
		c15.885,0,29.023,13.14,29.023,29.22v44.908c0,15.885-13.139,28.828-29.023,28.828V563.454z"/>
	<path d="M574.048,637.189v-44.908c0-15.885,13.14-28.827,29.024-28.827V666.41C587.188,666.41,574.048,653.271,574.048,637.189z
		 M613.662,563.454c16.08,0,29.023,12.942,29.023,28.827v16.277h-29.023V563.454z M613.662,621.305h29.023v16.277
		c0,15.885-12.943,28.828-29.023,28.828V621.305z"/>
	<path d="M662.292,519.33h29.024v147.08h-29.024V519.33z M701.905,563.454c15.885,0,29.024,12.942,29.024,28.827v74.129h-29.024
		V563.454z"/>
	<path d="M751.517,637.189V535.019h29.023V666.41C764.656,666.41,751.517,653.271,751.517,637.189z M789.169,563.454h29.023
		c0,16.081-13.139,29.22-29.023,29.22V563.454z"/>
	<path d="M830.938,637.189v-44.908c0-15.885,13.139-28.827,29.023-28.827V666.41C844.076,666.41,830.938,653.271,830.938,637.189z
		 M870.551,563.454c16.08,0,29.023,13.14,29.023,29.023v8.629c0,15.885-12.943,28.827-29.023,28.827V563.454z M870.551,637.582
		h29.023c0,15.885-12.943,28.828-29.023,28.828V637.582z"/>
	<path d="M919.182,563.454h29.023V666.41h-29.023V563.454z M958.795,563.454c15.885,0,29.023,12.942,29.023,28.827v74.129h-29.023
		V563.454z"/>
	<path d="M1008.405,652.29c0-8.433,7.452-15.688,15.885-15.688c8.825,0,15.885,7.256,15.885,15.688
		c0,8.825-7.06,16.081-15.885,16.081C1015.857,668.371,1008.405,661.115,1008.405,652.29z M1009.582,535.019h29.023v60.009
		c0,16.08-13.139,29.22-29.023,29.22V535.019z"/>
</g>
<g>
	<path d="M50.928,362.831h29.023v131.391H50.928V362.831z M88.581,371.46v-8.629h29.023v37.456
		C101.523,400.287,88.581,387.345,88.581,371.46z M88.581,414.015h29.023v28.828C101.523,442.842,88.581,429.899,88.581,414.015z"/>
	<path d="M138.193,391.267h29.024v102.956h-29.024V391.267z M177.807,391.267c15.885,0,29.024,13.139,29.024,29.22v15.1h-29.024
		V391.267z"/>
	<path d="M224.479,465.002v-44.908c0-15.885,13.139-28.828,29.023-28.828v102.956C237.618,494.222,224.479,481.083,224.479,465.002z
		 M264.092,391.267c15.885,0,29.023,12.943,29.023,28.828v44.908c0,16.081-13.139,29.22-29.023,29.22V391.267z"/>
	<path d="M312.723,347.143h29.023v147.08h-29.023V347.143z M352.336,391.267c15.884,0,29.023,12.943,29.023,28.828v74.128h-29.023
		V391.267z"/>
	<path d="M399.986,465.002v-44.908c0-15.885,13.139-28.828,29.024-28.828v102.956C413.125,494.222,399.986,481.083,399.986,465.002z
		 M439.599,391.267c16.081,0,29.024,13.139,29.024,29.023v8.629c0,15.885-12.943,28.828-29.024,28.828V391.267z M439.599,465.395
		h29.024c0,15.885-12.943,28.828-29.024,28.828V465.395z"/>
</g>
</svg>
