<?xml version="1.0" encoding="utf-8"?>
<!-- Generator: Adobe Illustrator 15.1.0, SVG Export Plug-In . SVG Version: 6.00 Build 0)  -->
<!DOCTYPE svg PUBLIC "-//W3C//DTD SVG 1.1//EN" "http://www.w3.org/Graphics/SVG/1.1/DTD/svg11.dtd">
<svg version="1.1" id="vs_text" xmlns="http://www.w3.org/2000/svg" xmlns:xlink="http://www.w3.org/1999/xlink" x="0px" y="0px"
	 width="1080px" height="1080px" viewBox="0 0 1080 1080" enable-background="new 0 0 1080 1080" xml:space="preserve">
<g>
	<path fill="#FFFFFF" d="M69.62,61.353v86.76H57.98v-86.76H69.62z"/>
	<path fill="#FFFFFF" d="M124.243,147.752c-3.081,1.039-6.221,1.56-9.42,1.56c-5.361,0-10.101-1.08-14.22-3.24
		c-4.121-2.16-7.32-5.22-9.6-9.18c-2.28-3.96-3.42-8.539-3.42-13.74c0-5.119,1.2-9.66,3.6-13.62s5.599-7.02,9.6-9.18
		c4-2.16,8.319-3.24,12.96-3.24c7.599,0,13.879,2.081,18.84,6.24l-5.64,7.32c-1.601-1.2-3.44-2.22-5.52-3.06
		c-2.082-0.84-4.32-1.26-6.72-1.26c-2.96,0-5.661,0.74-8.1,2.22c-2.441,1.481-4.361,3.5-5.76,6.06c-1.401,2.561-2.1,5.4-2.1,8.52
		s0.739,5.96,2.22,8.52c1.479,2.561,3.499,4.601,6.06,6.12c2.56,1.521,5.479,2.28,8.76,2.28c4.08,0,7.639-1.2,10.68-3.6l5.76,6.96
		C129.982,145.273,127.322,146.713,124.243,147.752z"/>
	<path fill="#FFFFFF" d="M187.254,100.652c3.039,2.76,4.599,6.341,4.68,10.74v36.72h-11.28v-32.88
		c-0.161-2.799-1.001-4.999-2.52-6.6c-1.521-1.6-3.801-2.439-6.84-2.52c-2.88,0-5.481,0.801-7.8,2.4
		c-2.321,1.602-4.14,3.84-5.46,6.72c-1.32,2.88-1.98,6.081-1.98,9.6v23.28h-11.16v-93h10.92v52.32c1.839-3.279,4.5-5.919,7.98-7.92
		c3.48-1.999,7.458-3,11.94-3C180.373,96.512,184.213,97.892,187.254,100.652z"/>
	<path fill="#FFFFFF" d="M296.333,100.652c3.039,2.76,4.599,6.341,4.68,10.74v36.72h-11.28v-32.88
		c-0.161-2.799-1.001-4.999-2.52-6.6c-1.521-1.6-3.801-2.439-6.84-2.52c-2.88,0-5.481,0.801-7.8,2.4
		c-2.321,1.602-4.14,3.84-5.46,6.72c-1.32,2.88-1.98,6.081-1.98,9.6v23.28h-11.16v-93h10.92v52.32c1.839-3.279,4.5-5.919,7.98-7.92
		c3.48-1.999,7.458-3,11.94-3C289.452,96.512,293.292,97.892,296.333,100.652z"/>
	<path fill="#FFFFFF" d="M370.78,98.432v49.68h-11.16v-8.16c-1.761,2.321-4.32,4.461-7.68,6.42c-3.36,1.959-7.161,2.94-11.4,2.94
		c-4.721,0-8.981-1.02-12.78-3.06c-3.801-2.04-6.801-5.02-9-8.94c-2.202-3.919-3.3-8.599-3.3-14.04c0-5.439,1.14-10.18,3.42-14.22
		c2.28-4.039,5.359-7.159,9.24-9.36c3.879-2.199,8.179-3.3,12.9-3.3c4.239,0,7.92,0.921,11.04,2.76c3.12,1.841,5.64,4.241,7.56,7.2
		l0.84-7.92H370.78z M354.04,136.652c2.919-2.28,4.779-5.379,5.58-9.3v-9.84c-0.96-3.519-2.96-6.378-6-8.58
		c-3.042-2.199-6.521-3.3-10.44-3.3c-2.961,0-5.7,0.72-8.22,2.16s-4.521,3.461-6,6.06c-1.481,2.601-2.22,5.541-2.22,8.82
		c0,3.201,0.759,6.12,2.28,8.76c1.519,2.64,3.559,4.74,6.12,6.3c2.559,1.56,5.359,2.34,8.4,2.34
		C347.62,140.072,351.119,138.932,354.04,136.652z"/>
	<path fill="#FFFFFF" d="M432.807,99.632c3.72,2.16,6.66,5.201,8.82,9.12c2.16,3.92,3.24,8.48,3.24,13.68
		c0,5.441-1.161,10.2-3.48,14.28c-2.321,4.08-5.46,7.2-9.42,9.36s-8.261,3.24-12.9,3.24c-4.08,0-7.781-0.801-11.1-2.4
		c-3.321-1.599-6.021-3.759-8.1-6.48v7.68h-11.16v-93h11.16v49.92c2.08-2.64,4.939-4.74,8.58-6.3c3.64-1.56,7.659-2.34,12.06-2.34
		C424.986,96.392,429.087,97.472,432.807,99.632z M428.727,134.792c3.159-3.28,4.74-7.399,4.74-12.36c0-3.199-0.741-6.099-2.22-8.7
		c-1.481-2.599-3.5-4.66-6.06-6.18c-2.562-1.519-5.4-2.28-8.52-2.28c-4.08,0-7.662,1.101-10.74,3.3c-3.081,2.201-5.1,5.1-6.06,8.7
		v10.08c0.96,3.6,2.959,6.561,6,8.88c3.04,2.321,6.64,3.48,10.8,3.48C421.545,139.712,425.565,138.074,428.727,134.792z"/>
	<path fill="#FFFFFF" d="M495.602,135.392l5.16,8.28c-2.64,1.761-5.501,3.141-8.58,4.14c-3.081,0.999-6.06,1.5-8.94,1.5
		c-5.52,0-10.34-1.14-14.46-3.42c-4.121-2.28-7.301-5.418-9.54-9.42c-2.24-3.999-3.36-8.52-3.36-13.56
		c0-4.878,1.219-9.339,3.66-13.38c2.439-4.039,5.779-7.239,10.02-9.6c4.239-2.358,8.88-3.54,13.92-3.54
		c6.48,0,11.899,1.901,16.26,5.7c4.359,3.801,7.339,9.101,8.94,15.9l-39.36,13.8c1.44,2.48,3.379,4.421,5.82,5.82
		c2.439,1.4,5.22,2.1,8.34,2.1C487.64,139.712,491.681,138.272,495.602,135.392z M471.361,110.072
		c-2.96,3.201-4.44,7.281-4.44,12.24c0,1.2,0.04,2.121,0.12,2.76l28.92-10.68c-1.2-2.719-2.9-4.92-5.1-6.6
		c-2.201-1.68-4.94-2.52-8.22-2.52C478.082,105.272,474.32,106.874,471.361,110.072z"/>
	<path fill="#FFFFFF" d="M582.96,124.232l-6.48,5.28v18.6h-11.16v-93h11.16v62.76l25.68-20.64l6.841,6l-18.36,14.76l20.76,30.12
		h-13.08L582.96,124.232z"/>
	<path fill="#FFFFFF" d="M657.383,135.392l5.16,8.28c-2.641,1.761-5.502,3.141-8.58,4.14c-3.081,0.999-6.061,1.5-8.94,1.5
		c-5.52,0-10.341-1.14-14.46-3.42c-4.121-2.28-7.301-5.418-9.54-9.42c-2.24-3.999-3.359-8.52-3.359-13.56
		c0-4.878,1.219-9.339,3.659-13.38c2.439-4.039,5.779-7.239,10.021-9.6c4.239-2.358,8.88-3.54,13.92-3.54
		c6.48,0,11.898,1.901,16.26,5.7c4.359,3.801,7.339,9.101,8.94,15.9l-39.36,13.8c1.44,2.48,3.379,4.421,5.82,5.82
		c2.439,1.4,5.22,2.1,8.34,2.1C649.422,139.712,653.462,138.272,657.383,135.392z M633.143,110.072
		c-2.961,3.201-4.439,7.281-4.439,12.24c0,1.2,0.039,2.121,0.119,2.76l28.921-10.68c-1.2-2.719-2.901-4.92-5.101-6.6
		c-2.201-1.68-4.94-2.52-8.22-2.52C639.862,105.272,636.102,106.874,633.143,110.072z"/>
	<path fill="#FFFFFF" d="M683.854,76.112c1.359-1.2,2.92-1.8,4.68-1.8c1.759,0,3.301,0.6,4.62,1.8c1.32,1.2,1.98,2.681,1.98,4.44
		c0,1.761-0.66,3.24-1.98,4.44c-1.319,1.2-2.861,1.8-4.62,1.8c-1.76,0-3.32-0.6-4.68-1.8c-1.361-1.2-2.04-2.679-2.04-4.44
		C681.813,78.793,682.492,77.313,683.854,76.112z M693.813,98.432v49.68h-11.16v-49.68H693.813z"/>
	<path fill="#FFFFFF" d="M754.1,100.652c3.039,2.76,4.6,6.341,4.68,10.74v36.72H747.5v-32.88c-0.162-2.799-1.002-4.999-2.521-6.6
		c-1.521-1.6-3.801-2.439-6.84-2.52c-4.4,0-8.04,1.761-10.92,5.28c-2.88,3.521-4.32,8.001-4.32,13.44v23.28h-11.16v-49.68h10.08
		l0.72,9.6c1.759-3.6,4.399-6.42,7.921-8.46c3.519-2.04,7.56-3.06,12.119-3.06C747.219,96.512,751.059,97.892,754.1,100.652z"/>
	<path fill="#FFFFFF" d="M812.743,135.392l5.16,8.28c-2.641,1.761-5.502,3.141-8.58,4.14c-3.081,0.999-6.061,1.5-8.94,1.5
		c-5.52,0-10.341-1.14-14.46-3.42c-4.121-2.28-7.301-5.418-9.54-9.42c-2.24-3.999-3.359-8.52-3.359-13.56
		c0-4.878,1.219-9.339,3.659-13.38c2.439-4.039,5.779-7.239,10.021-9.6c4.239-2.358,8.88-3.54,13.92-3.54
		c6.48,0,11.898,1.901,16.26,5.7c4.359,3.801,7.339,9.101,8.94,15.9l-39.36,13.8c1.44,2.48,3.379,4.421,5.82,5.82
		c2.439,1.4,5.22,2.1,8.34,2.1C804.782,139.712,808.822,138.272,812.743,135.392z M788.503,110.072
		c-2.961,3.201-4.439,7.281-4.439,12.24c0,1.2,0.039,2.121,0.119,2.76l28.921-10.68c-1.2-2.719-2.901-4.92-5.101-6.6
		c-2.201-1.68-4.94-2.52-8.22-2.52C795.223,105.272,791.462,106.874,788.503,110.072z"/>
	<path fill="#FFFFFF" d="M54.05,190.811h28.12v127.302H54.05V190.811z M92.431,190.811h28.12v127.302h-28.12V190.811z
		 M130.811,190.811c15.39,0,28.121,12.73,28.121,28.311v98.991h-28.121V190.811z"/>
	<path fill="#FFFFFF" d="M201.414,218.361v27.931h-28.12C173.294,230.901,185.834,218.361,201.414,218.361z M173.294,289.992v-8.36
		c0-15.39,12.54-27.93,28.12-27.93v64.411C185.834,318.112,173.294,305.382,173.294,289.992z M211.674,218.361
		c15.39,0,28.121,12.73,28.121,28.311v43.511c0,15.39-12.73,27.93-28.121,27.93V218.361z"/>
	<path fill="#FFFFFF" d="M252.065,289.802v-43.51c0-15.39,12.73-27.931,28.12-27.931v99.751
		C264.795,318.112,252.065,305.382,252.065,289.802z M290.446,218.361c15.58,0,28.121,12.541,28.121,27.931v15.77h-28.121V218.361z
		 M290.446,274.412h28.121v15.771c0,15.39-12.541,27.93-28.121,27.93V274.412z"/>
	<path fill="#FFFFFF" d="M332.11,203.541c0-15.391,12.73-27.931,28.12-27.931v142.502h-28.12V203.541z M370.491,218.361h28.121
		c0,15.39-12.54,27.931-28.121,27.931V218.361z M370.491,253.702c15.581,0,28.121,12.54,28.121,27.93v36.48h-28.121V253.702z"/>
	<path fill="#FFFFFF" d="M411.319,289.802v-43.51c0-15.39,12.73-27.931,28.12-27.931v99.751
		C424.049,318.112,411.319,305.382,411.319,289.802z M449.699,218.361c15.58,0,28.12,12.73,28.12,28.121v8.36
		c0,15.39-12.54,27.931-28.12,27.931V218.361z M449.699,290.182h28.12c0,15.39-12.54,27.93-28.12,27.93V290.182z"/>
	<path fill="#FFFFFF" d="M490.946,218.361h28.121v99.751h-28.121V218.361z M529.326,218.361c15.391,0,28.12,12.541,28.12,27.931
		v71.821h-28.12V218.361z"/>
	<path fill="#FFFFFF" d="M571.428,304.432c0-8.17,7.22-15.2,15.39-15.2c8.55,0,15.391,7.03,15.391,15.2
		c0,8.55-6.841,15.581-15.391,15.581C578.647,320.013,571.428,312.982,571.428,304.432z M572.567,190.811h28.12v58.141
		c0,15.581-12.73,28.311-28.12,28.311V190.811z"/>
</g>
<g>
	<path fill="#FFFFFF" d="M320.014,622.739h23.76c10.8,0,19.74,2.142,26.82,6.42c7.08,4.28,12.24,9.8,15.48,16.56
		c3.24,6.762,4.86,13.901,4.86,21.42c0,8.4-1.961,15.821-5.88,22.261c-3.92,6.44-9.161,11.399-15.72,14.88
		c-6.561,3.479-13.68,5.22-21.36,5.22h-27.96V622.739z M345.694,698.219c6.399,0,12.12-1.26,17.16-3.779
		c5.04-2.521,8.979-6.181,11.82-10.98c2.838-4.8,4.26-10.519,4.26-17.16c0-6.799-1.481-12.64-4.44-17.52
		c-2.96-4.879-6.9-8.58-11.82-11.1c-4.92-2.521-10.221-3.781-15.9-3.781h-15.12v64.32H345.694z"/>
	<path fill="#FFFFFF" d="M458.746,659.819v49.68h-11.16v-8.16c-1.761,2.321-4.32,4.461-7.68,6.42c-3.36,1.96-7.161,2.94-11.4,2.94
		c-4.721,0-8.981-1.021-12.78-3.061c-3.801-2.04-6.801-5.019-9-8.939c-2.202-3.919-3.3-8.599-3.3-14.04
		c0-5.439,1.14-10.18,3.42-14.22c2.28-4.039,5.359-7.159,9.24-9.36c3.879-2.199,8.179-3.3,12.9-3.3c4.239,0,7.92,0.92,11.04,2.76
		c3.12,1.841,5.64,4.241,7.56,7.2l0.84-7.92H458.746z M442.006,698.039c2.919-2.28,4.779-5.38,5.58-9.3v-9.84
		c-0.96-3.52-2.96-6.379-6-8.58c-3.042-2.199-6.521-3.301-10.44-3.301c-2.961,0-5.7,0.721-8.22,2.16c-2.52,1.44-4.521,3.462-6,6.061
		c-1.481,2.601-2.22,5.54-2.22,8.819c0,3.201,0.759,6.12,2.28,8.761c1.519,2.64,3.559,4.739,6.12,6.3
		c2.559,1.56,5.359,2.34,8.4,2.34C435.586,701.459,439.084,700.319,442.006,698.039z"/>
	<path fill="#FFFFFF" d="M480.344,708.659c-3.32-1.279-6.021-3.159-8.1-5.641l4.8-6.479c1.999,1.92,4.099,3.401,6.3,4.44
		c2.2,1.04,4.38,1.56,6.54,1.56c2.64,0,4.8-0.52,6.48-1.56c1.681-1.039,2.521-2.641,2.521-4.801c0-1.68-0.521-3.039-1.561-4.08
		c-1.04-1.038-2.22-1.8-3.54-2.279c-1.319-0.48-3.54-1.2-6.66-2.16c-8.48-2.719-12.72-7.561-12.72-14.521
		c0-4.158,1.54-7.719,4.62-10.68c3.079-2.959,7.38-4.44,12.9-4.44c3.519,0,6.639,0.441,9.36,1.32c2.719,0.882,5.239,2.28,7.561,4.2
		l-4.44,6.84c-1.28-1.359-2.9-2.439-4.859-3.24c-1.962-0.799-3.821-1.239-5.58-1.319c-2.241,0-4.161,0.54-5.76,1.62
		c-1.602,1.079-2.4,2.54-2.4,4.38c0,1.521,0.519,2.78,1.56,3.779c1.039,1.002,2.119,1.722,3.24,2.16
		c1.119,0.44,3.318,1.182,6.6,2.221c4.08,1.36,7.261,3.119,9.54,5.279c2.28,2.16,3.42,5.081,3.42,8.76
		c0,4.801-1.68,8.761-5.04,11.881c-3.359,3.119-8.12,4.68-14.28,4.68C487.164,710.579,483.663,709.938,480.344,708.659z"/>
	<path fill="#FFFFFF" d="M572.021,708.659c-3.32-1.279-6.021-3.159-8.1-5.641l4.8-6.479c1.999,1.92,4.099,3.401,6.3,4.44
		c2.199,1.04,4.38,1.56,6.54,1.56c2.641,0,4.8-0.52,6.48-1.56c1.68-1.039,2.52-2.641,2.52-4.801c0-1.68-0.521-3.039-1.56-4.08
		c-1.041-1.038-2.221-1.8-3.54-2.279c-1.32-0.48-3.54-1.2-6.66-2.16c-8.48-2.719-12.72-7.561-12.72-14.521
		c0-4.158,1.539-7.719,4.62-10.68c3.078-2.959,7.38-4.44,12.899-4.44c3.52,0,6.64,0.441,9.36,1.32c2.719,0.882,5.238,2.28,7.56,4.2
		l-4.439,6.84c-1.281-1.359-2.901-2.439-4.86-3.24c-1.961-0.799-3.821-1.239-5.58-1.319c-2.24,0-4.16,0.54-5.76,1.62
		c-1.602,1.079-2.4,2.54-2.4,4.38c0,1.521,0.52,2.78,1.561,3.779c1.038,1.002,2.118,1.722,3.239,2.16
		c1.12,0.44,3.319,1.182,6.601,2.221c4.08,1.36,7.26,3.119,9.54,5.279s3.42,5.081,3.42,8.76c0,4.801-1.68,8.761-5.04,11.881
		c-3.36,3.119-8.121,4.68-14.28,4.68C578.841,710.579,575.341,709.938,572.021,708.659z"/>
	<path fill="#FFFFFF" d="M617.333,637.499c1.359-1.2,2.92-1.8,4.68-1.8c1.759,0,3.301,0.6,4.62,1.8c1.32,1.2,1.98,2.681,1.98,4.44
		s-0.66,3.24-1.98,4.439c-1.319,1.2-2.861,1.801-4.62,1.801c-1.76,0-3.32-0.601-4.68-1.801c-1.361-1.199-2.04-2.68-2.04-4.439
		S615.972,638.699,617.333,637.499z M627.293,659.819v49.68h-11.16v-49.68H627.293z"/>
	<path fill="#FFFFFF" d="M687.58,662.039c3.039,2.76,4.6,6.341,4.68,10.74v36.72H680.98v-32.88c-0.162-2.8-1.002-4.999-2.521-6.601
		c-1.521-1.599-3.801-2.438-6.84-2.52c-4.4,0-8.04,1.761-10.92,5.28c-2.88,3.521-4.32,8-4.32,13.439v23.28h-11.16v-49.68h10.08
		l0.72,9.6c1.759-3.6,4.399-6.42,7.921-8.46c3.519-2.04,7.56-3.06,12.119-3.06C680.699,657.899,684.539,659.279,687.58,662.039z"/>
	<path fill="#FFFFFF" d="M762.866,616.499v93h-11.279v-7.8c-2.4,2.801-5.34,5-8.82,6.6c-3.479,1.6-7.301,2.4-11.46,2.4
		c-4.641,0-8.841-1.121-12.6-3.36c-3.762-2.238-6.701-5.379-8.82-9.42c-2.121-4.039-3.18-8.7-3.18-13.979
		c0-5.359,1.119-10.021,3.359-13.98c2.239-3.96,5.319-6.979,9.24-9.06c3.919-2.08,8.358-3.12,13.32-3.12
		c3.759,0,7.38,0.779,10.859,2.34c3.48,1.56,6.22,3.701,8.221,6.42v-50.04H762.866z M745.767,697.619c3-2.319,4.938-5.439,5.82-9.36
		v-9.359c-0.96-3.601-3-6.54-6.12-8.82s-6.681-3.42-10.68-3.42c-3.042,0-5.841,0.74-8.4,2.22c-2.562,1.481-4.602,3.521-6.12,6.12
		c-1.521,2.601-2.28,5.541-2.28,8.82c0,3.2,0.76,6.12,2.28,8.76c1.519,2.64,3.559,4.721,6.12,6.24c2.56,1.521,5.358,2.279,8.4,2.279
		C739.106,701.099,742.767,699.94,745.767,697.619z"/>
	<path fill="#FFFFFF" d="M197.46,829.898h58.401c4.96,0,7.36-2.24,7.36-5.92c0-3.521-2.4-5.761-7.52-5.761h-26.561
		c-18.721,0-33.921-12.8-33.921-35.36c0-25.921,17.76-35.361,35.681-35.361h66.242v29.601h-57.121c-4.32,0-7.36,1.601-7.36,5.601
		c0,4.16,3.04,5.92,7.36,5.92h24.96c21.44,0,35.681,12.641,35.681,35.201c0,21.28-16,35.681-36.801,35.681H196.98L197.46,829.898z"
		/>
	<path fill="#FFFFFF" d="M418.822,792.938c0,18.08-14.24,31.041-30.561,31.041H349.7v35.521h-32.801v-96.802h69.602
		C402.021,762.697,418.822,771.977,418.822,792.938z M386.981,793.258c0-3.2-2.24-4.801-4.8-4.801H349.7v9.761h32.48
		C384.741,798.218,386.981,795.978,386.981,793.258z"/>
	<path fill="#FFFFFF" d="M463.25,788.617v9.44h59.202v25.921H463.25v9.6h59.202v25.921H430.45v-96.802h92.002v25.92H463.25z"/>
	<path fill="#FFFFFF" d="M537.233,811.018c0-27.521,22.4-49.921,50.081-49.921c13.761,0,26.241,5.601,35.361,14.721l-22.881,22.561
		c-3.2-3.2-7.52-5.12-12.48-5.12c-9.92,0-17.76,7.84-17.76,17.6c0,9.921,7.84,17.761,17.76,17.761c4.961,0,9.44-2.08,12.641-5.44
		l23.041,22.881c-9.121,9.28-21.761,15.04-35.682,15.04C559.634,861.099,537.233,838.698,537.233,811.018z"/>
	<path fill="#FFFFFF" d="M634.177,762.697h32.801v96.802h-32.801V762.697z"/>
	<path fill="#FFFFFF" d="M750.705,848.299h-34.881l-3.199,11.2h-36.802l32.321-96.802h50.241l32.32,96.802h-36.801L750.705,848.299z
		 M743.505,822.378l-9.439-33.761h-1.601l-9.44,33.761H743.505z"/>
	<path fill="#FFFFFF" d="M885.424,833.578v25.921h-85.602v-96.802h32.801v70.881H885.424z"/>
	<path fill="#FFFFFF" d="M177.621,926.938v11.68h61.441v29.601h-61.441v11.841h61.441v29.44H140.18V897.496h98.882v29.441H177.621z"
		/>
	<path fill="#FFFFFF" d="M292.051,938.617v9.44h59.202v25.921h-59.202v35.521H259.25v-96.802h92.002v25.92H292.051z"/>
	<path fill="#FFFFFF" d="M402.53,938.617v9.44h59.202v25.921H402.53v35.521h-32.801v-96.802h92.002v25.92H402.53z"/>
	<path fill="#FFFFFF" d="M513.01,938.617v9.44h59.201v25.921H513.01v9.6h59.201v25.921h-92.002v-96.802h92.002v25.92H513.01z"/>
	<path fill="#FFFFFF" d="M586.993,961.018c0-27.521,22.4-49.921,50.081-49.921c13.761,0,26.241,5.601,35.361,14.721l-22.881,22.561
		c-3.2-3.2-7.52-5.12-12.48-5.12c-9.92,0-17.76,7.84-17.76,17.6c0,9.921,7.84,17.761,17.76,17.761c4.961,0,9.44-2.08,12.641-5.44
		l23.041,22.881c-9.121,9.28-21.761,15.04-35.682,15.04C609.394,1011.099,586.993,988.698,586.993,961.018z"/>
	<path fill="#FFFFFF" d="M712.978,938.617h-32.32v-25.92H778.1v25.92h-32.321v70.882h-32.801V938.617z"/>
	<path fill="#FFFFFF" d="M789.104,983.578h55.681c4.16,0,5.92-2.24,5.92-4.96c0-3.04-1.92-4.64-6.08-4.64h-25.12
		c-18.24,0-32.161-9.28-32.161-30.561c0-22.401,18.4-30.721,33.921-30.721h57.922v25.92h-52.802c-4,0-5.6,2.08-5.6,4.641
		c0,2.56,1.6,4.8,5.6,4.8h21.44c23.041,0,36.321,11.84,36.321,29.921c0,18.08-13.761,31.521-35.841,31.521h-59.201V983.578z"/>
	<path fill="#FFFFFF" d="M900.781,979.898h37.441v29.601h-37.441V979.898z"/>
</g>
</svg>
