<?xml version="1.0" encoding="utf-8"?>
<!-- Generator: Adobe Illustrator 15.1.0, SVG Export Plug-In . SVG Version: 6.00 Build 0)  -->
<!DOCTYPE svg PUBLIC "-//W3C//DTD SVG 1.1//EN" "http://www.w3.org/Graphics/SVG/1.1/DTD/svg11.dtd">
<svg version="1.1" id="vs_text" xmlns="http://www.w3.org/2000/svg" xmlns:xlink="http://www.w3.org/1999/xlink" x="0px" y="0px"
	 width="1080px" height="1080px" viewBox="0 0 1080 1080" enable-background="new 0 0 1080 1080" xml:space="preserve">
<g>
	<path d="M118.525,726.059c6.12,0,20.06,0.34,28.899,8.67c7.31,6.97,8.16,16.49,8.16,21.42c0,4.42-0.681,9.52-3.74,14.449
		c-2.89,4.76-6.8,7.141-9.52,8.33c5.44,0.851,11.56,3.57,15.64,7.65c3.74,3.739,7.31,10.199,7.31,20.229
		c0,11.39-4.42,18.53-8.84,22.95c-9.35,9.01-22.95,9.689-29.92,9.689H83.846V726.059H118.525z M109.685,772.128h4.25
		c3.57,0,9.52-0.51,13.26-3.229c2.38-1.7,4.59-5.101,4.59-10.03s-2.38-7.99-4.42-9.52c-3.74-2.891-8.84-2.891-13.6-2.891h-4.08
		V772.128z M109.685,819.048h6.29c6.63,0,14.62-0.171,19.38-4.591c2.38-2.209,3.74-5.439,3.74-9.52c0-4.59-1.87-7.649-3.57-9.18
		c-4.59-4.25-13.43-4.25-18.7-4.25h-7.14V819.048z"/>
	<path d="M194.786,717.049c7.99,0,14.28,6.29,14.28,14.279c0,7.99-6.29,14.28-14.28,14.28c-7.99,0-14.279-6.29-14.279-14.28
		C180.507,723.339,186.796,717.049,194.786,717.049z M207.026,763.628v75.819h-24.479v-75.819H207.026z"/>
	<path d="M251.326,715.519v123.929h-24.48V715.519H251.326z"/>
	<path d="M295.048,715.519v123.929h-24.48V715.519H295.048z"/>
	<path d="M327.109,717.049c7.99,0,14.279,6.29,14.279,14.279c0,7.99-6.29,14.28-14.279,14.28c-7.99,0-14.28-6.29-14.28-14.28
		C312.829,723.339,319.119,717.049,327.109,717.049z M339.349,763.628v75.819h-24.48v-75.819H339.349z"/>
	<path d="M415.846,763.628h24.48v71.229c0,10.71-0.51,22.779-9.35,32.3c-9.35,10.029-23.629,11.22-31.959,11.22
		c-10.03,0-22.1-1.53-31.62-9.689c-4.76-4.08-9.689-10.54-11.39-20.061h26.689c1.02,3.91,3.4,6.12,5.44,7.48
		c2.89,1.869,6.97,2.55,10.54,2.55c6.97,0,10.54-2.55,12.24-4.08c4.76-4.59,4.93-12.58,4.93-15.81v-8.67
		c-2.89,4.76-8.669,11.39-22.609,11.39c-11.73,0-20.74-3.74-27.71-10.71c-6.12-6.29-11.05-15.47-11.05-28.56
		c0-12.92,4.76-23.63,11.22-30.26c4.59-4.76,13.43-10.88,27.54-10.88c13.77,0,19.89,7.31,22.609,11.39V763.628z M385.417,787.258
		c-3.74,3.57-5.78,9.52-5.78,14.109c0,4.931,1.87,10.03,5.27,13.601c3.4,3.569,7.99,5.439,13.77,5.439c6.46,0,10.71-2.55,13.26-4.93
		c3.74-3.57,5.95-8.84,5.95-14.45c0-5.949-2.55-10.88-5.779-13.939c-3.57-3.23-8.84-4.76-13.26-4.76
		C393.406,782.328,388.477,784.368,385.417,787.258z"/>
	<path d="M536.815,805.787h-56.609c0,4.08,1.53,9.521,4.59,12.92c3.74,4.08,8.84,4.761,12.58,4.761c3.57,0,7.31-0.681,9.86-2.21
		c0.34-0.17,3.23-2.04,5.27-6.29l23.12,2.38c-3.4,10.71-10.2,16.319-14.62,19.04c-7.31,4.42-15.47,5.609-23.97,5.609
		c-11.39,0-21.42-2.04-30.26-10.88c-6.63-6.63-11.39-16.66-11.39-29.239c0-10.88,3.91-22.1,11.56-29.92
		c9.18-9.18,20.57-10.88,29.069-10.88c8.5,0,20.74,1.53,30.09,11.39c9.01,9.521,10.71,21.42,10.71,30.77V805.787z M514.206,791.168
		c-0.17-0.68-1.36-5.44-4.93-8.84c-2.72-2.55-6.63-4.25-11.56-4.25c-6.29,0-10.03,2.55-12.41,4.93c-1.87,2.04-3.57,4.76-4.25,8.16
		H514.206z"/>
	<path d="M551.878,763.628h24.479v11.9c2.211-4.25,5.61-8.16,9.521-10.54c4.079-2.55,8.329-3.23,13.09-3.23
		c3.06,0,5.27,0.34,7.989,1.19l-1.359,22.949c-3.23-1.699-6.8-2.72-11.05-2.72c-5.271,0-9.181,1.87-12.24,5.1
		c-5.44,5.78-5.95,13.94-5.95,20.4v30.77h-24.479V763.628z"/>
	<path d="M619.824,811.228c8.67,0,15.471,6.8,15.471,15.47s-6.801,15.47-15.471,15.47s-15.47-6.8-15.47-15.47
		S611.154,811.228,619.824,811.228z"/>
</g>
<g>
	<path d="M79.309,78.163l29.919,84.999l35.53-90.779l33.659,90.779l33.15-84.999h13.94l-47.6,119.339l-33.319-90.779l-35.7,90.779
		L65.369,78.163H79.309z"/>
	<path d="M284.14,121.003h12.24v70.549h-12.24v-9.86c-4.08,5.271-11.73,11.9-24.14,11.9c-17.85,0-34.34-12.58-34.34-37.399
		c0-24.31,16.32-36.89,34.34-36.89c13.6,0,20.91,7.479,24.14,11.729V121.003z M238.24,156.192c0,15.13,8.5,26.52,23.12,26.52
		c14.96,0,23.459-12.41,23.459-26.35c0-18.19-12.58-26.18-23.459-26.18C249.29,130.183,238.24,139.022,238.24,156.192z"/>
	<path d="M348.262,137.322c-1.7-4.08-5.271-7.14-9.86-7.14c-4.42,0-8.5,2.55-8.5,7.989c0,5.101,3.4,6.631,11.39,10.03
		c10.2,4.25,14.96,7.48,17.68,10.88c3.06,3.74,3.74,7.48,3.74,11.39c0,14.79-10.71,23.12-24.31,23.12
		c-2.89,0-18.7-0.34-24.649-18.02l10.54-4.42c1.36,3.739,5.439,11.56,14.279,11.56c7.99,0,11.56-5.95,11.56-11.22
		c0-6.63-4.76-8.84-11.39-11.73c-8.5-3.739-13.94-6.46-17.17-10.369c-2.72-3.4-3.23-6.8-3.23-10.37c0-12.41,8.67-19.72,20.57-19.72
		c3.74,0,13.77,0.68,19.38,12.75L348.262,137.322z"/>
	<path d="M428.838,121.003l20.91,47.939l22.1-53.38l21.93,53.38l21.08-47.939h13.6l-35.02,75.479l-21.76-52.699l-21.76,52.699
		l-34.68-75.479H428.838z"/>
	<path d="M593.6,121.003h12.24v70.549H593.6v-9.86c-4.08,5.271-11.729,11.9-24.14,11.9c-17.85,0-34.34-12.58-34.34-37.399
		c0-24.31,16.32-36.89,34.34-36.89c13.6,0,20.909,7.479,24.14,11.729V121.003z M547.7,156.192c0,15.13,8.5,26.52,23.12,26.52
		c14.959,0,23.459-12.41,23.459-26.35c0-18.19-12.579-26.18-23.459-26.18C558.75,130.183,547.7,139.022,547.7,156.192z
		 M558.58,89.553c4.59,0,8.5,3.91,8.5,8.5s-3.91,8.5-8.5,8.5s-8.5-3.91-8.5-8.5S553.99,89.553,558.58,89.553z M588.16,89.553
		c4.59,0,8.5,3.91,8.5,8.5s-3.91,8.5-8.5,8.5s-8.5-3.91-8.5-8.5S583.57,89.553,588.16,89.553z"/>
	<path d="M629.025,121.003h12.24v7.649c1.19-1.87,6.46-9.35,15.98-9.35c3.739,0,7.819,1.359,10.879,2.89l-5.779,11.05
		c-2.721-1.87-5.27-2.38-7.141-2.38c-4.93,0-7.989,2.04-9.859,4.42c-2.04,2.72-4.08,7.48-4.08,19.04v37.229h-12.24V121.003z"/>
	<path d="M740.526,173.532c-2.04,3.91-5.1,8.159-8.67,11.39c-6.46,5.78-14.45,8.67-23.46,8.67c-17,0-34.85-10.71-34.85-36.89
		c0-21.08,12.92-37.399,34.17-37.399c13.77,0,22.439,6.8,26.689,12.92c4.42,6.29,6.971,17.17,6.63,26.52h-54.909
		c0.17,14.62,10.2,23.97,22.439,23.97c5.78,0,10.37-1.7,14.45-5.1c3.229-2.721,5.78-6.29,7.31-9.69L740.526,173.532z
		 M728.457,148.542c-2.041-11.05-10.37-18.359-20.74-18.359s-18.87,7.819-20.74,18.359H728.457z"/>
	<path d="M79.309,288.163l29.919,84.999l35.53-90.779l33.659,90.779l33.15-84.999h13.94l-47.6,119.339l-33.319-90.779l-35.7,90.779
		l-43.52-119.339H79.309z"/>
	<path d="M292.64,383.532c-2.04,3.91-5.1,8.159-8.67,11.39c-6.46,5.78-14.45,8.67-23.46,8.67c-17,0-34.85-10.71-34.85-36.89
		c0-21.08,12.92-37.399,34.17-37.399c13.77,0,22.439,6.8,26.689,12.92c4.42,6.29,6.97,17.17,6.63,26.52H238.24
		c0.17,14.62,10.2,23.97,22.439,23.97c5.78,0,10.37-1.7,14.45-5.1c3.229-2.721,5.78-6.29,7.31-9.69L292.64,383.532z
		 M280.569,358.542c-2.04-11.05-10.37-18.359-20.739-18.359c-10.37,0-18.87,7.819-20.74,18.359H280.569z"/>
	<path d="M318.308,295.643c4.76,0,8.67,3.91,8.67,8.67c0,4.761-3.91,8.67-8.67,8.67c-4.76,0-8.67-3.909-8.67-8.67
		C309.638,299.553,313.548,295.643,318.308,295.643z M324.428,331.003v70.549h-12.24v-70.549H324.428z"/>
	<path d="M347.479,277.623h12.24v61.539c2.21-2.89,8.5-9.859,20.229-9.859c8.33,0,15.98,3.399,20.23,9.689
		c3.57,5.271,4.08,11.05,4.08,18.87v43.689h-12.24v-43.35c0-4.25-0.34-9.18-3.23-12.92c-2.38-3.06-6.12-5.1-11.56-5.1
		c-4.25,0-8.84,1.189-12.41,5.439c-4.76,5.61-5.1,13.94-5.1,19.04v36.89h-12.24V277.623z"/>
	<path d="M427.257,331.003h12.24v8.159c2.21-2.89,8.5-9.859,20.23-9.859c8.33,0,15.98,3.399,20.23,9.689
		c3.57,5.271,4.08,11.05,4.08,18.87v43.689h-12.24v-43.35c0-4.25-0.34-9.18-3.23-12.92c-2.38-3.06-6.12-5.1-11.56-5.1
		c-4.25,0-8.84,1.189-12.41,5.439c-4.76,5.61-5.1,13.94-5.1,19.04v36.89h-12.24V331.003z"/>
	<path d="M561.504,331.003h12.239v70.549h-12.239v-9.86c-4.08,5.271-11.73,11.9-24.141,11.9c-17.85,0-34.339-12.58-34.339-37.399
		c0-24.31,16.32-36.89,34.339-36.89c13.6,0,20.91,7.479,24.141,11.729V331.003z M515.604,366.192c0,15.13,8.5,26.52,23.12,26.52
		c14.96,0,23.46-12.41,23.46-26.35c0-18.19-12.58-26.18-23.46-26.18C526.654,340.183,515.604,349.022,515.604,366.192z"/>
	<path d="M652.502,350.723c-6.46-8.16-15.81-10.54-22.1-10.54c-13.09,0-24.99,9.18-24.99,26.35s12.24,26.18,24.82,26.18
		c7.31,0,16.319-3.23,22.779-11.05v14.62c-7.65,5.609-15.81,7.31-22.439,7.31c-21.93,0-37.74-15.64-37.74-36.89
		c0-21.59,15.98-37.399,37.74-37.399c11.22,0,18.529,4.42,21.93,6.8V350.723z"/>
	<path d="M672.985,277.623h12.24v61.539c2.21-2.89,8.5-9.859,20.229-9.859c8.33,0,15.98,3.399,20.23,9.689
		c3.569,5.271,4.079,11.05,4.079,18.87v43.689h-12.239v-43.35c0-4.25-0.34-9.18-3.23-12.92c-2.38-3.06-6.119-5.1-11.56-5.1
		c-4.25,0-8.84,1.189-12.41,5.439c-4.76,5.61-5.1,13.94-5.1,19.04v36.89h-12.24V277.623z"/>
	<path d="M765.616,342.223v59.329h-12.24v-59.329h-7.479v-11.22h7.479v-25.5h12.24v25.5h12.239v11.22H765.616z"/>
	<path d="M852.772,383.532c-2.04,3.91-5.1,8.159-8.67,11.39c-6.46,5.78-14.45,8.67-23.46,8.67c-17,0-34.85-10.71-34.85-36.89
		c0-21.08,12.92-37.399,34.17-37.399c13.77,0,22.439,6.8,26.689,12.92c4.42,6.29,6.971,17.17,6.631,26.52h-54.91
		c0.17,14.62,10.2,23.97,22.439,23.97c5.78,0,10.37-1.7,14.45-5.1c3.229-2.721,5.78-6.29,7.31-9.69L852.772,383.532z
		 M840.703,358.542c-2.04-11.05-10.37-18.359-20.74-18.359c-10.369,0-18.869,7.819-20.74,18.359H840.703z"/>
	<path d="M872.27,331.003h12.24v8.159c2.21-2.89,8.5-9.859,20.23-9.859c8.329,0,15.979,3.399,20.229,9.689
		c3.569,5.271,4.079,11.05,4.079,18.87v43.689H916.81v-43.35c0-4.25-0.34-9.18-3.229-12.92c-2.381-3.06-6.12-5.1-11.561-5.1
		c-4.25,0-8.84,1.189-12.41,5.439c-4.76,5.61-5.1,13.94-5.1,19.04v36.89h-12.24V331.003z"/>
	<path d="M71.148,576.532c0-21.42,15.81-37.229,37.399-37.229s37.4,15.81,37.4,37.229s-15.98,37.06-37.4,37.06
		C87.128,613.592,71.148,597.952,71.148,576.532z M83.729,576.532c0,17.34,12.24,26.18,24.819,26.18c12.75,0,24.82-9.01,24.82-26.18
		c0-17.34-11.9-26.35-24.82-26.35S83.729,559.362,83.729,576.532z"/>
	<path d="M165.037,487.623h12.24v61.539c2.21-2.89,8.5-9.859,20.229-9.859c8.33,0,15.979,3.399,20.229,9.689
		c3.57,5.271,4.08,11.05,4.08,18.87v43.689h-12.24v-43.35c0-4.25-0.34-9.18-3.23-12.92c-2.38-3.06-6.12-5.1-11.56-5.1
		c-4.25,0-8.84,1.189-12.41,5.439c-4.76,5.61-5.1,13.94-5.1,19.04v36.89h-12.24V487.623z"/>
	<path d="M244.815,541.003h12.24v8.159c2.21-2.89,8.5-9.859,20.229-9.859c8.33,0,15.98,3.399,20.23,9.689
		c3.57,5.271,4.08,11.05,4.08,18.87v43.689h-12.24v-43.35c0-4.25-0.34-9.18-3.23-12.92c-2.38-3.06-6.12-5.1-11.56-5.1
		c-4.25,0-8.84,1.189-12.41,5.439c-4.76,5.61-5.1,13.94-5.1,19.04v36.89h-12.24V541.003z"/>
	<path d="M387.562,593.532c-2.04,3.91-5.1,8.159-8.67,11.39c-6.46,5.78-14.45,8.67-23.459,8.67c-17,0-34.85-10.71-34.85-36.89
		c0-21.08,12.919-37.399,34.169-37.399c13.77,0,22.44,6.8,26.689,12.92c4.42,6.29,6.97,17.17,6.63,26.52h-54.91
		c0.17,14.62,10.2,23.97,22.44,23.97c5.78,0,10.37-1.7,14.45-5.1c3.23-2.721,5.78-6.29,7.31-9.69L387.562,593.532z M375.492,568.542
		c-2.04-11.05-10.37-18.359-20.74-18.359s-18.87,7.819-20.74,18.359H375.492z"/>
	<path d="M468.818,546.782l48.279-48.619h17l-53.04,52.869l54.739,60.52h-17.34l-46.409-52.02l-3.23,3.23v48.789h-12.58V498.163
		h12.58V546.782z"/>
	<path d="M556.996,505.643c4.76,0,8.67,3.91,8.67,8.67c0,4.761-3.91,8.67-8.67,8.67s-8.67-3.909-8.67-8.67
		C548.326,509.553,552.236,505.643,556.996,505.643z M563.115,541.003v70.549h-12.239v-70.549H563.115z"/>
	<path d="M586.166,541.003h12.24v8.159c2.21-2.89,8.5-9.859,20.23-9.859c8.329,0,15.979,3.399,20.229,9.689
		c3.569,5.271,4.079,11.05,4.079,18.87v43.689h-12.239v-43.35c0-4.25-0.34-9.18-3.229-12.92c-2.381-3.06-6.12-5.1-11.561-5.1
		c-4.25,0-8.84,1.189-12.41,5.439c-4.76,5.61-5.1,13.94-5.1,19.04v36.89h-12.24V541.003z"/>
	<path d="M720.412,487.623h12.24v123.929h-12.24v-9.86c-4.08,5.271-11.729,11.9-24.14,11.9c-17.85,0-34.339-12.58-34.339-37.399
		c0-24.31,16.319-36.89,34.339-36.89c13.601,0,20.91,7.479,24.14,11.729V487.623z M674.513,576.192c0,15.13,8.5,26.52,23.12,26.52
		c14.96,0,23.46-12.41,23.46-26.35c0-18.19-12.58-26.18-23.46-26.18C685.563,550.183,674.513,559.022,674.513,576.192z"/>
	<path d="M818.993,593.532c-2.04,3.91-5.101,8.159-8.67,11.39c-6.46,5.78-14.45,8.67-23.46,8.67c-17,0-34.85-10.71-34.85-36.89
		c0-21.08,12.92-37.399,34.17-37.399c13.77,0,22.439,6.8,26.689,12.92c4.42,6.29,6.971,17.17,6.63,26.52h-54.909
		c0.17,14.62,10.199,23.97,22.439,23.97c5.78,0,10.37-1.7,14.45-5.1c3.229-2.721,5.78-6.29,7.31-9.69L818.993,593.532z
		 M806.924,568.542c-2.041-11.05-10.371-18.359-20.74-18.359c-10.37,0-18.87,7.819-20.74,18.359H806.924z"/>
	<path d="M838.49,541.003h12.24v7.649c1.189-1.87,6.46-9.35,15.98-9.35c3.739,0,7.819,1.359,10.879,2.89l-5.779,11.05
		c-2.721-1.87-5.27-2.38-7.141-2.38c-4.93,0-7.989,2.04-9.859,4.42c-2.04,2.72-4.08,7.48-4.08,19.04v37.229h-12.24V541.003z"/>
	<path d="M937.055,562.422c0,7.99-2.721,14.79-6.971,19.21c-2.719,2.891-8.159,6.8-17.51,6.8c-8.67,0-14.279-3.399-17.68-6.8
		c-2.72-2.72-6.799-8.33-6.799-17.51c0-12.069,6.799-17.68,14.279-21.079c5.949-2.721,10.71-3.4,14.279-4.761
		c10.03-3.569,10.881-10.54,10.881-14.96c0-3.399-0.511-8.329-4.42-11.899c-1.871-1.7-5.101-3.57-10.371-3.57
		c-3.909,0-7.989,1.021-10.709,3.57c-3.061,2.89-4.42,7.65-4.42,11.39c0,2.21,0.34,4.93,1.02,7.14h-12.58
		c-0.51-2.38-0.68-4.76-0.68-7.479c0-5.439,1.02-12.58,6.46-18.359c4.08-4.42,10.71-7.82,20.739-7.82c7.48,0,14.45,1.7,20.061,7.31
		c3.57,3.57,7.479,9.69,7.479,20.061c0,6.119-1.36,11.56-5.78,16.659c-3.569,4.08-7.989,6.63-13.09,8.5
		c-3.909,1.36-8.159,2.38-12.239,4.25c-2.55,1.19-8.33,3.91-8.33,11.9c0,4.42,1.7,7.14,3.399,8.84c1.531,1.529,4.25,3.06,8.33,3.06
		c3.57,0,6.461-1.189,8.33-3.06c2.551-2.551,4.08-7.311,4.08-11.391H937.055z M912.744,596.592c4.591,0,8.5,3.91,8.5,8.5
		s-3.909,8.5-8.5,8.5c-4.59,0-8.499-3.91-8.499-8.5S908.154,596.592,912.744,596.592z"/>
</g>
</svg>
