<?xml version="1.0" encoding="utf-8"?>
<!-- Generator: Adobe Illustrator 15.1.0, SVG Export Plug-In . SVG Version: 6.00 Build 0)  -->
<!DOCTYPE svg PUBLIC "-//W3C//DTD SVG 1.1//EN" "http://www.w3.org/Graphics/SVG/1.1/DTD/svg11.dtd">
<svg version="1.1" id="vs_text" xmlns="http://www.w3.org/2000/svg" xmlns:xlink="http://www.w3.org/1999/xlink" x="0px" y="0px"
	 width="1080px" height="1080px" viewBox="0 0 1080 1080" enable-background="new 0 0 1080 1080" xml:space="preserve">
<g>
	<path d="M135.695,802.088c0,25.159-8.67,37.06-25.839,37.06h-15.98c-9.689,0-13.939-5.271-13.939-13.43v-94.52
		c0-8.16,4.25-13.43,13.939-13.43h14.79c17,0,24.65,12.41,24.65,29.75c0,13.43-3.4,20.229-7.65,24.989
		C131.275,776.928,135.695,785.938,135.695,802.088z M99.655,762.818h6.12c5.1,0,7.82-3.57,7.82-14.28s-2.72-13.09-7.82-13.09h-6.12
		V762.818z M114.955,801.237c0-14.79-3.06-19.21-7.65-19.21h-7.65v38.42h7.65C111.895,820.447,114.955,815.857,114.955,801.237z"/>
	<path d="M147.068,720.148c0-5.779,4.42-10.2,10.2-10.2c5.78,0,10.2,4.421,10.2,10.2c0,5.78-4.42,10.2-10.2,10.2
		C151.488,730.349,147.068,725.929,147.068,720.148z M147.238,828.947v-82.959c0-5.61,4.42-10.2,10.03-10.2
		c5.609,0,10.029,4.59,10.029,10.2v82.959c0,5.61-4.42,10.03-10.029,10.03C151.658,838.978,147.238,834.558,147.238,828.947z"/>
	<path d="M179.571,828.947V720.148c0-5.609,4.42-10.2,10.03-10.2c5.61,0,10.03,4.591,10.03,10.2v108.799
		c0,5.61-4.42,10.03-10.03,10.03C183.991,838.978,179.571,834.558,179.571,828.947z"/>
	<path d="M211.82,828.947V720.148c0-5.609,4.42-10.2,10.029-10.2c5.61,0,10.03,4.591,10.03,10.2v108.799
		c0,5.61-4.42,10.03-10.03,10.03C216.24,838.978,211.82,834.558,211.82,828.947z"/>
	<path d="M243.983,720.148c0-5.779,4.42-10.2,10.2-10.2c5.78,0,10.2,4.421,10.2,10.2c0,5.78-4.42,10.2-10.2,10.2
		C248.403,730.349,243.983,725.929,243.983,720.148z M244.153,828.947v-82.959c0-5.61,4.42-10.2,10.03-10.2
		c5.609,0,10.029,4.59,10.029,10.2v82.959c0,5.61-4.42,10.03-10.029,10.03C248.573,838.978,244.153,834.558,244.153,828.947z"/>
	<path d="M327.521,762.648v85.339c0,13.6-7.48,21.76-21.08,21.76h-22.78c-5.1,0-8.84-3.91-8.84-9.01c0-5.101,3.74-9.011,8.84-9.011
		h17.51c4.08,0,6.29-2.209,6.29-5.949v-6.12c-1.87,0.68-3.91,0.85-6.12,0.85c-15.47,0-25.839-9.859-25.839-28.56v-49.299
		c0-18.7,10.37-28.561,25.839-28.561C317.15,734.088,327.521,743.948,327.521,762.648z M307.46,810.758v-47.77
		c0-8.16-1.87-11.05-6.12-11.05c-4.08,0-5.78,2.89-5.78,11.05v48.789c0,8.16,1.7,10.71,5.78,10.71
		C305.25,822.487,307.46,818.747,307.46,810.758z"/>
	<path d="M338.417,811.438v-48.619c0-18.53,10.37-28.39,25.839-28.39c15.81,0,25.84,9.859,25.84,28.39v23.8
		c0,8.499-4.59,12.579-13.09,12.579h-18.529v12.24c0,7.48,2.38,10.71,6.63,10.71c4.93,0,5.95-3.229,5.95-7.649v-1.021
		c0-5.271,4.08-9.35,9.35-9.35c5.27,0,9.35,4.079,9.35,9.35v2.55c0,15.81-9.69,24.14-24.819,24.14
		C348.786,840.167,338.417,830.308,338.417,811.438z M370.376,783.048v-20.91c0-8.159-1.7-10.88-6.12-10.88
		c-3.91,0-5.779,2.721-5.779,10.88v20.91H370.376z"/>
	<path d="M400.551,828.947v-66.299c0-18.7,10.2-28.561,25.33-28.561c15.129,0,24.99,8.84,24.99,27.71v9.01
		c0,5.61-4.42,10.03-9.69,10.03c-5.61,0-9.69-4.42-9.69-10.03v-8.159c0-7.99-1.53-10.37-5.61-10.37c-3.91,0-5.27,2.89-5.27,11.05
		v65.619c0,5.61-4.42,10.03-10.03,10.03C404.971,838.978,400.551,834.558,400.551,828.947z"/>
	<path d="M442.845,828.098c0-7.141,5.61-12.75,12.75-12.75s12.75,5.609,12.75,12.75c0,7.14-5.61,12.75-12.75,12.75
		S442.845,835.237,442.845,828.098z"/>
</g>
<g>
	<path d="M75.059,165.372V78.673c0-3.57,2.89-6.46,6.46-6.46c3.57,0,6.46,2.89,6.46,6.46v84.829c0,12.24,4.08,17.85,11.899,17.85
		c7.82,0,11.9-5.609,11.9-17.85V78.673c0-3.57,2.89-6.46,6.46-6.46c3.57,0,6.46,2.89,6.46,6.46v84.829
		c0,12.24,4.08,17.85,11.9,17.85s11.9-5.609,11.9-17.85V78.673c0-3.57,2.89-6.46,6.46-6.46s6.46,2.89,6.46,6.46v86.699
		c0,17.17-8.84,27.88-24.82,27.88c-7.65,0-14.11-3.4-18.36-9.18c-4.25,5.779-10.709,9.18-18.36,9.18
		C83.898,193.252,75.059,182.542,75.059,165.372z"/>
	<path d="M228.056,123.893v61.709c0,3.4-2.89,6.29-6.29,6.29c-2.89,0-4.93-1.7-5.95-4.25c-3.4,3.74-7.14,5.61-13.6,5.61
		c-13.43,0-21.42-8.33-21.42-25.33v-14.279c0-17,7.99-25.33,21.42-25.33c6.29,0,10.03,1.7,13.26,5.27v-7.649
		c0-11.73-3.74-17-11.56-17s-10.709,4.25-10.709,10.88v0.17c0,3.23-1.87,5.78-5.95,5.78c-3.23,0-5.78-2.72-5.78-6.29v-1.7
		c0-11.899,7.14-20.569,22.439-20.569C219.216,97.203,228.056,106.893,228.056,123.893z M215.476,164.522v-7.48
		c0-11.05-5.44-17-11.9-17c-7.31,0-10.2,4.42-10.2,16.15v9.18c0,11.729,2.89,16.149,10.2,16.149
		C210.036,181.521,215.476,175.572,215.476,164.522z"/>
	<path d="M244.478,170.302c0-2.72,0.17-5.439,1.19-8.84c1.19-4.59,4.59-6.29,8.33-5.439c3.57,0.85,4.76,4.42,3.74,7.989
		c-0.51,2.04-0.68,4.08-0.68,5.271c0,6.97,3.4,12.239,12.07,12.239c8.84,0,12.24-6.29,12.24-15.47
		c0-12.069-3.23-16.829-14.96-23.119l-5.95-3.23c-9.86-5.1-13.6-12.069-13.6-21.59c0-11.05,6.8-21.25,22.44-21.25
		c14.959,0,22.1,8.67,22.1,20.57v1.87c0,3.569-2.21,6.12-5.95,6.12c-3.57,0-5.78-2.551-5.78-5.78v-0.17
		c0-6.8-2.89-11.05-10.37-11.05c-6.97,0-9.86,3.74-9.86,9.18c0,5.1,2.04,8.5,7.649,11.39l7.65,4.08
		c13.77,7.31,19.209,15.81,19.379,31.62c0.17,18.359-9.35,28.39-25.33,28.39C252.808,193.082,244.478,182.882,244.478,170.302z"/>
	<path d="M421.273,104.683v62.39c0,17-8.5,26.18-23.29,26.18c-8.5,0-13.43-3.23-17-9.01c-3.57,5.779-8.5,9.01-17,9.01
		c-14.79,0-23.29-9.18-23.29-26.18v-62.39c0-3.399,2.89-6.29,6.29-6.29s6.29,2.891,6.29,6.29v60.35
		c0,11.729,3.57,16.489,10.71,16.489c7.14,0,10.709-4.76,10.709-16.489v-60.35c0-3.399,2.89-6.29,6.29-6.29s6.29,2.891,6.29,6.29
		v60.35c0,11.729,3.57,16.489,10.71,16.489c7.14,0,10.71-4.76,10.71-16.489v-60.35c0-3.399,2.89-6.29,6.29-6.29
		C418.384,98.393,421.273,101.283,421.273,104.683z"/>
	<path d="M486.197,123.893v61.709c0,3.4-2.89,6.29-6.29,6.29c-2.89,0-4.93-1.7-5.95-4.25c-3.4,3.74-7.14,5.61-13.6,5.61
		c-13.43,0-21.419-8.33-21.419-25.33v-14.279c0-17,7.99-25.33,21.419-25.33c6.29,0,10.03,1.7,13.26,5.27v-7.649
		c0-11.73-3.74-17-11.56-17s-10.71,4.25-10.71,10.88v0.17c0,3.23-1.87,5.78-5.95,5.78c-3.23,0-5.78-2.72-5.78-6.29v-1.7
		c0-11.899,7.14-20.569,22.44-20.569S486.197,106.893,486.197,123.893z M443.867,79.863c0-4.25,3.4-7.65,7.65-7.65
		s7.65,3.4,7.65,7.65s-3.4,7.649-7.65,7.649S443.867,84.113,443.867,79.863z M473.617,164.522v-7.48c0-11.05-5.44-17-11.9-17
		c-7.31,0-10.2,4.42-10.2,16.15v9.18c0,11.729,2.89,16.149,10.2,16.149C468.177,181.521,473.617,175.572,473.617,164.522z
		 M467.327,79.863c0-4.25,3.4-7.65,7.65-7.65s7.65,3.4,7.65,7.65s-3.4,7.649-7.65,7.649S467.327,84.113,467.327,79.863z"/>
	<path d="M504.744,185.602v-62.389c0-17,8.33-26.351,22.95-26.351c14.45,0,22.1,8.841,22.1,26.86v4.08c0,3.909-2.72,6.46-6.119,6.46
		c-3.23,0-6.121-2.551-6.121-6.46v-2.55c0-11.221-2.38-16.66-9.35-16.66c-7.14,0-10.88,4.93-10.88,16.66v60.349
		c0,3.4-2.89,6.29-6.29,6.29S504.744,189.002,504.744,185.602z"/>
	<path d="M577.96,156.872v7.48c0,11.729,3.74,16.999,11.9,16.999c7.819,0,11.05-5.1,11.05-11.729v-0.34c0-3.91,2.38-6.46,5.949-6.46
		c3.74,0,5.95,2.55,5.95,6.46v1.529c0,12.75-7.649,22.271-22.949,22.271c-15.64,0-24.479-9.69-24.479-26.69v-42.499
		c0-17,8.84-26.689,24.139-26.689c15.301,0,23.801,9.689,23.801,26.689v22.609c0,7.141-3.061,10.37-10.37,10.37H577.96z
		 M577.96,125.933v18.87h23.12v-18.87c0-11.73-3.74-17-11.561-17C581.7,108.933,577.96,114.202,577.96,125.933z"/>
	<path d="M75.059,375.372v-86.699c0-3.57,2.89-6.46,6.46-6.46c3.57,0,6.46,2.89,6.46,6.46v84.829c0,12.24,4.08,17.85,11.899,17.85
		c7.82,0,11.9-5.609,11.9-17.85v-84.829c0-3.57,2.89-6.46,6.46-6.46c3.57,0,6.46,2.89,6.46,6.46v84.829
		c0,12.24,4.08,17.85,11.9,17.85s11.9-5.609,11.9-17.85v-84.829c0-3.57,2.89-6.46,6.46-6.46s6.46,2.89,6.46,6.46v86.699
		c0,17.17-8.84,27.88-24.82,27.88c-7.65,0-14.11-3.4-18.36-9.18c-4.25,5.779-10.709,9.18-18.36,9.18
		C83.898,403.252,75.059,392.542,75.059,375.372z"/>
	<path d="M193.75,366.872v7.48c0,11.729,3.74,16.999,11.9,16.999c7.82,0,11.05-5.1,11.05-11.729v-0.34c0-3.91,2.38-6.46,5.95-6.46
		c3.74,0,5.95,2.55,5.95,6.46v1.529c0,12.75-7.65,22.271-22.95,22.271c-15.64,0-24.48-9.69-24.48-26.69v-42.499
		c0-17,8.84-26.689,24.14-26.689s23.8,9.689,23.8,26.689v22.609c0,7.141-3.06,10.37-10.37,10.37H193.75z M193.75,335.933v18.87
		h23.12v-18.87c0-11.73-3.74-17-11.56-17C197.49,318.933,193.75,324.202,193.75,335.933z"/>
	<path d="M246.126,289.183c0-4.08,3.23-7.31,7.31-7.31s7.31,3.229,7.31,7.31s-3.23,7.311-7.31,7.311
		S246.126,293.263,246.126,289.183z M247.146,395.602v-80.919c0-3.399,2.89-6.29,6.29-6.29s6.29,2.891,6.29,6.29v80.919
		c0,3.4-2.89,6.29-6.29,6.29S247.146,399.002,247.146,395.602z"/>
	<path d="M327.247,333.553v62.049c0,3.4-2.89,6.29-6.29,6.29c-3.4,0-6.29-2.89-6.29-6.29v-60.009c0-11.73-3.74-17-11.56-17
		s-11.56,5.27-11.56,17v60.009c0,3.4-2.89,6.29-6.29,6.29c-3.4,0-6.29-2.89-6.29-6.29V282.383c0-3.399,2.89-6.29,6.29-6.29
		c3.4,0,6.29,2.891,6.29,6.29v28.39c3.57-2.38,7.99-3.91,12.24-3.91C318.407,306.862,327.247,316.553,327.247,333.553z"/>
	<path d="M345.792,395.602v-62.049c0-17,8.84-26.69,24.14-26.69s24.14,9.69,24.14,26.69v62.049c0,3.4-2.89,6.29-6.29,6.29
		c-3.4,0-6.29-2.89-6.29-6.29v-60.009c0-11.73-3.74-17-11.56-17s-11.56,5.27-11.56,17v60.009c0,3.4-2.89,6.29-6.29,6.29
		S345.792,399.002,345.792,395.602z"/>
	<path d="M458.909,333.893v61.709c0,3.4-2.89,6.29-6.29,6.29c-2.89,0-4.93-1.7-5.95-4.25c-3.4,3.74-7.14,5.61-13.6,5.61
		c-13.43,0-21.42-8.33-21.42-25.33v-14.279c0-17,7.99-25.33,21.42-25.33c6.29,0,10.03,1.7,13.26,5.27v-7.649
		c0-11.73-3.74-17-11.56-17c-7.82,0-10.71,4.25-10.71,10.88v0.17c0,3.23-1.87,5.78-5.95,5.78c-3.23,0-5.78-2.72-5.78-6.29v-1.7
		c0-11.899,7.14-20.569,22.439-20.569S458.909,316.893,458.909,333.893z M446.33,374.522v-7.48c0-11.05-5.44-17-11.9-17
		c-7.31,0-10.2,4.42-10.2,16.15v9.18c0,11.729,2.89,16.149,10.2,16.149C440.89,391.521,446.33,385.572,446.33,374.522z"/>
	<path d="M476.929,376.222v-42.159c0-17,8.84-26.689,24.14-26.689c15.3,0,22.439,8.67,22.439,20.569v1.7c0,3.57-2.21,6.12-5.95,6.12
		c-3.57,0-5.78-2.55-5.78-5.78v-0.17c0-6.63-3.06-10.71-10.709-10.71c-7.82,0-11.56,5.271-11.56,17v38.079c0,11.73,3.74,17,11.56,17
		c7.82,0,10.709-4.25,10.709-10.71v-0.17c0-3.399,2.21-6.12,5.78-6.12c3.74,0,5.95,2.721,5.95,5.95v2.21
		c0,11.9-7.14,20.57-22.439,20.57C485.769,402.912,476.929,393.222,476.929,376.222z"/>
	<path d="M589.128,333.553v62.049c0,3.4-2.89,6.29-6.29,6.29c-3.399,0-6.289-2.89-6.289-6.29v-60.009c0-11.73-3.74-17-11.561-17
		c-7.819,0-11.56,5.27-11.56,17v60.009c0,3.4-2.89,6.29-6.29,6.29s-6.29-2.89-6.29-6.29V282.383c0-3.399,2.89-6.29,6.29-6.29
		s6.29,2.891,6.29,6.29v28.39c3.57-2.38,7.99-3.91,12.24-3.91C580.288,306.862,589.128,316.553,589.128,333.553z"/>
	<path d="M657.977,380.132v2.21c0,11.9-7.82,20.57-20.061,20.57c-13.43,0-21.59-8.5-21.59-23.46v-58.819h-8.84
		c-3.229,0-5.949-2.72-5.949-5.95c0-3.229,2.72-5.95,5.949-5.95h8.84v-21.93c0-3.399,2.891-6.29,6.29-6.29
		c3.4,0,6.29,2.891,6.29,6.29v21.93h12.41c3.229,0,5.95,2.721,5.95,5.95c0,3.23-2.721,5.95-5.95,5.95h-12.41v56.779
		c0,9.689,3.74,13.77,9.521,13.77c4.93,0,7.819-4.25,7.819-10.88v-0.34c0-3.91,2.38-6.46,5.95-6.46
		C655.937,373.502,657.977,376.222,657.977,380.132z"/>
	<path d="M684.767,366.872v7.48c0,11.729,3.74,16.999,11.899,16.999c7.82,0,11.051-5.1,11.051-11.729v-0.34
		c0-3.91,2.38-6.46,5.949-6.46c3.74,0,5.95,2.55,5.95,6.46v1.529c0,12.75-7.649,22.271-22.95,22.271
		c-15.64,0-24.479-9.69-24.479-26.69v-42.499c0-17,8.84-26.689,24.14-26.689c15.301,0,23.8,9.689,23.8,26.689v22.609
		c0,7.141-3.06,10.37-10.369,10.37H684.767z M684.767,335.933v18.87h23.12v-18.87c0-11.73-3.74-17-11.561-17
		C688.507,318.933,684.767,324.202,684.767,335.933z"/>
	<path d="M737.772,395.602v-62.049c0-17,8.84-26.69,24.14-26.69s24.14,9.69,24.14,26.69v62.049c0,3.4-2.89,6.29-6.29,6.29
		s-6.29-2.89-6.29-6.29v-60.009c0-11.73-3.74-17-11.56-17c-7.82,0-11.561,5.27-11.561,17v60.009c0,3.4-2.89,6.29-6.289,6.29
		C740.662,401.892,737.772,399.002,737.772,395.602z"/>
	<path d="M72.849,586.563v-42.84c0-17,8.84-26.689,24.14-26.689s24.14,9.689,24.14,26.689v42.84c0,16.999-8.84,26.689-24.14,26.689
		S72.849,603.562,72.849,586.563z M108.548,584.522v-38.76c0-11.73-3.74-17-11.56-17s-11.56,5.27-11.56,17v38.76
		c0,11.729,3.74,16.999,11.56,16.999S108.548,596.252,108.548,584.522z"/>
	<path d="M187.918,543.553v62.049c0,3.4-2.89,6.29-6.29,6.29s-6.29-2.89-6.29-6.29v-60.009c0-11.73-3.74-17-11.56-17
		s-11.56,5.27-11.56,17v60.009c0,3.4-2.89,6.29-6.29,6.29c-3.4,0-6.29-2.89-6.29-6.29V492.383c0-3.399,2.89-6.29,6.29-6.29
		c3.4,0,6.29,2.891,6.29,6.29v28.39c3.57-2.38,7.99-3.91,12.24-3.91C179.079,516.862,187.918,526.553,187.918,543.553z"/>
	<path d="M206.464,605.602v-62.049c0-17,8.84-26.69,24.14-26.69s24.14,9.69,24.14,26.69v62.049c0,3.4-2.89,6.29-6.29,6.29
		c-3.4,0-6.29-2.89-6.29-6.29v-60.009c0-11.73-3.74-17-11.56-17s-11.56,5.27-11.56,17v60.009c0,3.4-2.89,6.29-6.29,6.29
		C209.354,611.892,206.464,609.002,206.464,605.602z"/>
	<path d="M285.343,576.872v7.48c0,11.729,3.74,16.999,11.9,16.999c7.82,0,11.05-5.1,11.05-11.729v-0.34c0-3.91,2.38-6.46,5.95-6.46
		c3.74,0,5.95,2.55,5.95,6.46v1.529c0,12.75-7.65,22.271-22.95,22.271c-15.64,0-24.48-9.69-24.48-26.69v-42.499
		c0-17,8.84-26.689,24.14-26.689s23.8,9.689,23.8,26.689v22.609c0,7.141-3.06,10.37-10.37,10.37H285.343z M285.343,545.933v18.87
		h23.12v-18.87c0-11.73-3.74-17-11.56-17S285.343,534.202,285.343,545.933z"/>
	<path d="M421.681,568.372v37.74c0,3.569-2.89,6.459-6.46,6.459s-6.46-2.89-6.46-6.459v-34.17c0-9.69-5.78-17.17-14.11-17.17h-9.18
		v51.34c0,3.569-2.89,6.459-6.46,6.459s-6.46-2.89-6.46-6.459V498.673c0-3.57,2.89-6.46,6.46-6.46s6.46,2.89,6.46,6.46v43.52h10.03
		c8.16,0,12.07-4.08,12.07-12.41v-31.109c0-3.57,2.89-6.46,6.46-6.46c3.57,0,6.46,2.89,6.46,6.46v32.3
		c0,9.52-3.74,16.149-8.33,18.359C416.921,552.563,421.681,559.022,421.681,568.372z"/>
	<path d="M440.925,499.183c0-4.08,3.23-7.31,7.31-7.31s7.31,3.229,7.31,7.31s-3.23,7.311-7.31,7.311
		S440.925,503.263,440.925,499.183z M441.945,605.602v-80.919c0-3.399,2.89-6.29,6.29-6.29s6.29,2.891,6.29,6.29v80.919
		c0,3.4-2.89,6.29-6.29,6.29S441.945,609.002,441.945,605.602z"/>
	<path d="M473.223,605.602v-62.049c0-17,8.84-26.69,24.14-26.69s24.14,9.69,24.14,26.69v62.049c0,3.4-2.89,6.29-6.29,6.29
		s-6.29-2.89-6.29-6.29v-60.009c0-11.73-3.74-17-11.56-17c-7.82,0-11.56,5.27-11.56,17v60.009c0,3.4-2.89,6.29-6.29,6.29
		S473.223,609.002,473.223,605.602z"/>
	<path d="M588.481,492.383v94.18c0,16.999-8.84,26.689-24.479,26.689c-15.641,0-24.48-9.69-24.48-26.689v-43.01
		c0-17,8.839-26.69,24.48-26.69c4.25,0,8.5,1.36,11.899,3.4v-27.88c0-3.399,2.89-6.29,6.29-6.29S588.481,488.983,588.481,492.383z
		 M575.901,545.593c0-11.05-5.439-17-11.899-17c-8.16,0-11.9,5.27-11.9,17v38.93c0,11.729,3.74,16.999,11.9,16.999
		s11.899-5.27,11.899-16.999V545.593z"/>
	<path d="M619.08,576.872v7.48c0,11.729,3.74,16.999,11.899,16.999c7.82,0,11.05-5.1,11.05-11.729v-0.34c0-3.91,2.38-6.46,5.95-6.46
		c3.74,0,5.95,2.55,5.95,6.46v1.529c0,12.75-7.65,22.271-22.95,22.271c-15.64,0-24.479-9.69-24.479-26.69v-42.499
		c0-17,8.84-26.689,24.14-26.689s23.8,9.689,23.8,26.689v22.609c0,7.141-3.061,10.37-10.37,10.37H619.08z M619.08,545.933v18.87
		h23.119v-18.87c0-11.73-3.739-17-11.56-17C622.82,528.933,619.08,534.202,619.08,545.933z"/>
	<path d="M672.085,605.602v-62.389c0-17,8.33-26.351,22.95-26.351c14.449,0,22.1,8.841,22.1,26.86v4.08c0,3.909-2.72,6.46-6.12,6.46
		c-3.229,0-6.12-2.551-6.12-6.46v-2.55c0-11.221-2.38-16.66-9.35-16.66c-7.14,0-10.88,4.93-10.88,16.66v60.349
		c0,3.4-2.89,6.29-6.29,6.29C674.976,611.892,672.085,609.002,672.085,605.602z"/>
	<path d="M745.88,578.742v-14.96c0-17,2.72-22.1,9.01-29.75l4.42-5.27c4.08-4.93,5.27-8.67,5.27-14.11
		c0-5.779-3.399-11.22-11.05-11.22c-7.989,0-11.56,6.8-11.56,14.11v2.72c0,3.74-2.55,6.8-6.29,6.8s-6.46-3.06-6.46-7.649v-2.04
		c0-16.32,8.67-26.18,24.479-26.18c14.96,0,23.8,10.029,23.8,24.31c0,12.239-5.95,17.17-11.05,23.97l-4.08,5.439
		c-3.06,4.08-3.569,8.16-3.569,19.72v14.11c0,3.399-3.061,6.29-6.46,6.29C748.939,585.032,745.88,582.142,745.88,578.742z
		 M744.35,605.262c0-4.76,3.74-8.5,8.5-8.5s8.5,3.74,8.5,8.5s-3.74,8.5-8.5,8.5S744.35,610.021,744.35,605.262z"/>
</g>
</svg>
