<?xml version="1.0" encoding="utf-8"?>
<!-- Generator: Adobe Illustrator 15.1.0, SVG Export Plug-In . SVG Version: 6.00 Build 0)  -->
<!DOCTYPE svg PUBLIC "-//W3C//DTD SVG 1.1//EN" "http://www.w3.org/Graphics/SVG/1.1/DTD/svg11.dtd">
<svg version="1.1" id="vs_text" xmlns="http://www.w3.org/2000/svg" xmlns:xlink="http://www.w3.org/1999/xlink" x="0px" y="0px"
	 width="1080px" height="1080px" viewBox="0 0 1080 1080" enable-background="new 0 0 1080 1080" xml:space="preserve">
<g>
	<path d="M52.445,114.568v-58.24h89.6v14.561h-73.08v29.12h71.959v14.56H68.965v43.68h-16.24L52.445,114.568z"/>
	<path d="M176.946,56.328h59.919c17.64,0,29.4,13.16,29.4,29.12c0,12.32-7.28,23.24-18.76,27.44l18.76,45.359h-17.08l-18.2-43.68
		h-37.52v43.68h-16.52V56.328z M235.186,100.009c8.68,0,14.56-5.881,14.56-14.561s-5.88-14.56-14.56-14.56h-41.72v29.12H235.186z"/>
	<path d="M298.856,107.288c0-28.84,24.08-52.359,52.919-52.359c31.08,0,52.64,21.279,52.64,52.359c0,28.561-24.08,52.36-52.64,52.36
		C320.696,159.648,298.856,138.368,298.856,107.288z M387.615,107.288c0-20.72-15.12-37.52-35.84-37.52
		c-20.72,0-36.12,16.8-36.12,37.52s15.4,37.52,36.12,37.52C372.496,144.808,387.615,128.008,387.615,107.288z"/>
	<path d="M442.578,56.328h16.52v43.681h56.28V56.328h16.52v101.92h-16.52v-43.68h-56.28v43.68h-16.52V56.328z"/>
	<path d="M574.064,56.328h89.6v14.561h-73.08v29.12h71.96v14.56h-71.96v29.12h73.08v14.56h-89.6V56.328z"/>
	<path d="M698.719,143.688h58.24c8.68,0,14.56-5.88,14.56-14.561c0-8.68-5.88-14.56-14.56-14.56h-30.8
		c-17.36,0-29.12-12.32-29.12-29.12c0-15.399,11.76-29.12,29.12-29.12h52.919v14.561h-51.239c-8.68,0-14.56,5.88-14.56,14.56
		s5.88,14.561,14.56,14.561h30.8c17.36,0,29.12,12.319,29.12,29.119c0,15.12-11.76,29.12-29.12,29.12h-59.92V143.688z"/>
	<path d="M52.445,208.328h14l73.359,77.56v-77.56h16.52v101.92h-14l-73.359-77.56v77.56h-16.52V208.328z"/>
	<path d="M198.576,208.328h89.6v14.561h-73.08v29.12h71.96v14.56h-71.96v29.12h73.08v14.56h-89.6V208.328z"/>
	<path d="M325.093,267.128v-58.8h16.52v60.2c0,15.96,12.04,28.279,28.28,28.279c15.96,0,28-12.319,28-28.279v-60.2h16.52v58.8
		c0,26.88-20.72,44.521-45.36,44.521S325.093,294.008,325.093,267.128z"/>
	<path d="M455.586,208.328h89.599v14.561h-73.079v29.12h71.96v14.56h-71.96v29.12h73.079v14.56h-89.599V208.328z"/>
	<path d="M580.241,295.688h58.239c8.681,0,14.561-5.88,14.561-14.561c0-8.68-5.88-14.56-14.561-14.56h-30.799
		c-17.36,0-29.12-12.32-29.12-29.12c0-15.399,11.76-29.12,29.12-29.12h52.919v14.561h-51.239c-8.68,0-14.561,5.88-14.561,14.56
		s5.881,14.561,14.561,14.561h30.8c17.359,0,29.12,12.319,29.12,29.119c0,15.12-11.761,29.12-29.12,29.12h-59.92V295.688z"/>
	<path d="M47.125,433.688v-0.561h16.38v0.84c0,9.101,5.32,15.12,13.72,15.12c8.26,0,13.72-6.02,13.58-15.12v-73.64h16.38v73.36
		c0,19.319-12.6,29.96-29.96,29.96C59.725,463.648,47.125,453.008,47.125,433.688z"/>
	<path d="M179.088,360.328h14.56l43.68,101.92h-16.24l-6.16-14.56h-57.12l-5.88,14.56h-16.52L179.088,360.328z M208.768,433.128
		l-22.4-53.76l-22.4,53.76H208.768z"/>
	<path d="M270.018,360.328h16.52v43.681h56.28v-43.681h16.52v101.92h-16.52v-43.68h-56.28v43.68h-16.52V360.328z"/>
	<path d="M401.504,360.328h59.919c17.64,0,29.4,13.16,29.4,29.12c0,12.32-7.28,23.24-18.76,27.44l18.76,45.359h-17.08l-18.2-43.68
		h-37.52v43.68h-16.52V360.328z M459.744,404.009c8.68,0,14.56-5.881,14.56-14.561s-5.88-14.56-14.56-14.56h-41.72v29.12H459.744z"
		/>
	<path d="M527.88,453.988c0-5.32,4.34-9.66,9.66-9.66c5.32,0,9.66,4.34,9.66,9.66c0,5.319-4.34,9.66-9.66,9.66
		C532.22,463.648,527.88,459.308,527.88,453.988z M529.42,360.328h16.24v72.8h-16.24V360.328z"/>
</g>
</svg>
