<?xml version="1.0" encoding="utf-8"?>
<!-- Generator: Adobe Illustrator 15.1.0, SVG Export Plug-In . SVG Version: 6.00 Build 0)  -->
<!DOCTYPE svg PUBLIC "-//W3C//DTD SVG 1.1//EN" "http://www.w3.org/Graphics/SVG/1.1/DTD/svg11.dtd">
<svg version="1.1" id="vs_text" xmlns="http://www.w3.org/2000/svg" xmlns:xlink="http://www.w3.org/1999/xlink" x="0px" y="0px"
	 width="1080px" height="1080px" viewBox="0 0 1080 1080" enable-background="new 0 0 1080 1080" xml:space="preserve">
<g>
	<path d="M87.057,468.498V349.277h23.951l64.704,76.859v-76.859h27.526v119.221h-23.951l-64.705-77.217v77.217H87.057z"/>
	<path d="M251.927,388.779v43.971c0,3.574,0.357,9.115,4.469,12.869c1.787,1.608,5.005,3.754,10.725,3.754
		c4.826,0,8.58-1.609,10.903-3.754c3.753-3.575,4.29-8.938,4.29-12.869v-43.971h25.739v46.473c0,9.116-0.894,17.695-8.937,25.561
		c-9.116,8.937-22.521,10.366-31.995,10.366c-9.831,0-23.058-1.43-32.174-10.366c-7.328-7.15-8.758-15.193-8.758-23.952v-48.081
		H251.927z"/>
	<path d="M327.623,388.779h25.739v12.512c2.323-4.469,5.898-8.579,10.009-11.082c4.29-2.681,8.758-3.396,13.763-3.396
		c3.217,0,5.541,0.357,8.401,1.251l-1.43,24.13c-3.396-1.787-7.149-2.859-11.618-2.859c-5.541,0-9.652,1.966-12.869,5.362
		c-5.72,6.077-6.256,14.656-6.256,21.448v32.353h-25.739V388.779z"/>
	<path d="M438.976,468.498l19.125-119.221h22.879l29.671,71.318l29.671-71.318h22.879l19.125,119.221H554.8l-9.473-71.139
		l-29.85,71.139h-9.652l-29.85-71.139l-9.473,71.139H438.976z"/>
	<path d="M624.848,388.779v43.971c0,3.574,0.357,9.115,4.469,12.869c1.787,1.608,5.005,3.754,10.725,3.754
		c4.826,0,8.579-1.609,10.902-3.754c3.754-3.575,4.29-8.938,4.29-12.869v-43.971h25.739v46.473c0,9.116-0.894,17.695-8.938,25.561
		c-9.115,8.937-22.521,10.366-31.994,10.366c-9.831,0-23.059-1.43-32.174-10.366c-7.328-7.15-8.758-15.193-8.758-23.952v-48.081
		H624.848z"/>
	<path d="M728.928,409.514v58.984h-25.738v-58.984h-8.938v-20.734h8.938v-25.738h25.738v25.738h15.908v20.734H728.928z"/>
	<path d="M766.643,438.827c9.115,0,16.266,7.149,16.266,16.266c0,9.115-7.15,16.265-16.266,16.265
		c-9.116,0-16.266-7.149-16.266-16.265C750.377,445.977,757.526,438.827,766.643,438.827z"/>
</g>
<g>
	<path d="M154.442,563.619h-39.859v23.058h37.893v23.236h-37.893v26.454h39.859v23.236H87.057V540.383h67.385V563.619z"/>
	<path d="M221.917,600.262c-3.932-2.324-9.116-4.469-14.121-4.469c-2.681,0-5.72,0.715-7.328,2.323
		c-0.894,0.894-1.609,2.324-1.609,3.575c0,1.787,1.251,2.859,2.502,3.574c1.787,1.073,4.469,1.609,7.686,2.682l6.792,2.145
		c4.468,1.431,9.116,3.218,13.227,6.972c4.647,4.289,6.256,9.115,6.256,15.192c0,10.546-4.647,17.338-8.222,20.913
		c-7.865,7.864-17.517,9.115-25.917,9.115c-10.725,0-22.343-2.323-32.71-11.439l10.903-17.338c2.502,2.146,6.077,4.647,8.758,5.898
		c3.575,1.788,7.329,2.503,10.725,2.503c1.609,0,5.72,0,8.043-1.787c1.608-1.252,2.681-3.218,2.681-5.184
		c0-1.431-0.537-3.218-2.86-4.647c-1.788-1.072-4.111-1.787-7.865-2.86l-6.435-1.966c-4.647-1.43-9.473-3.933-12.87-7.328
		c-3.753-3.933-5.72-8.401-5.72-14.479c0-7.686,3.039-14.12,7.686-18.41c7.15-6.613,16.802-8.043,24.13-8.043
		c11.797,0,20.019,3.038,26.453,6.792L221.917,600.262z"/>
	<path d="M342.028,659.604h-16.086l-39.681-79.719h28.241l20.555,42.361l20.198-43.434h13.584l20.198,43.434l20.555-42.361h28.241
		l-39.681,79.719h-16.087l-20.019-45.4L342.028,659.604z"/>
	<path d="M462.071,530.91c8.401,0,15.014,6.613,15.014,15.014c0,8.401-6.613,15.015-15.014,15.015s-15.014-6.613-15.014-15.015
		C447.057,537.523,453.67,530.91,462.071,530.91z M474.94,579.885v79.719h-25.739v-79.719H474.94z"/>
	<path d="M495.565,579.885h25.739v12.512c2.324-4.469,5.898-8.579,10.01-11.082c4.29-2.681,8.758-3.396,13.763-3.396
		c3.218,0,5.541,0.357,8.4,1.251l-1.43,24.13c-3.396-1.787-7.149-2.859-11.618-2.859c-5.541,0-9.651,1.966-12.869,5.362
		c-5.72,6.077-6.256,14.656-6.256,21.448v32.353h-25.739V579.885z"/>
	<path d="M651.176,659.604h-25.739v-9.652c-3.933,5.72-11.082,12.333-25.202,12.333c-11.797,0-20.377-3.753-27.348-10.902
		c-8.223-8.223-12.512-19.662-12.512-31.995c0-13.227,4.826-24.13,12.512-31.459c6.971-6.613,16.802-10.724,27.705-10.724
		c8.758,0,18.41,2.859,24.845,11.618v-59.521h25.739V659.604z M593.084,604.729c-3.753,3.575-6.256,8.759-6.256,15.193
		c0,5.898,2.503,11.082,6.256,14.657c3.933,3.753,8.938,5.541,13.406,5.541c4.826,0,10.546-1.967,14.656-5.898
		c3.039-2.86,5.898-7.687,5.898-14.3c0-6.792-2.681-11.439-5.719-14.657c-4.111-4.289-8.938-5.898-14.479-5.898
		C601.664,599.367,597.195,600.798,593.084,604.729z"/>
	<path d="M777.722,579.885h25.738v74.893c0,11.261-0.536,23.951-9.831,33.961c-9.83,10.546-24.845,11.797-33.603,11.797
		c-10.546,0-23.236-1.608-33.246-10.188c-5.005-4.289-10.188-11.082-11.976-21.091h28.063c1.072,4.11,3.574,6.435,5.72,7.864
		c3.038,1.966,7.328,2.682,11.082,2.682c7.328,0,11.081-2.682,12.869-4.29c5.005-4.826,5.184-13.228,5.184-16.623v-9.116
		c-3.039,5.005-9.116,11.976-23.772,11.976c-12.334,0-21.807-3.932-29.135-11.261c-6.436-6.613-11.619-16.265-11.619-30.028
		c0-13.584,5.006-24.845,11.797-31.815c4.826-5.005,14.121-11.439,28.957-11.439c14.478,0,20.912,7.686,23.772,11.976V579.885z
		 M745.727,604.729c-3.932,3.754-6.077,10.01-6.077,14.836c0,5.184,1.966,10.546,5.541,14.3c3.575,3.753,8.401,5.719,14.479,5.719
		c6.792,0,11.261-2.681,13.941-5.183c3.933-3.754,6.256-9.295,6.256-15.193c0-6.256-2.681-11.439-6.077-14.657
		c-3.754-3.396-9.295-5.004-13.941-5.004C754.128,599.547,748.944,601.691,745.727,604.729z"/>
	<path d="M848.77,579.885v43.971c0,3.574,0.357,9.115,4.469,12.869c1.787,1.608,5.005,3.754,10.725,3.754
		c4.826,0,8.579-1.609,10.902-3.754c3.754-3.575,4.29-8.938,4.29-12.869v-43.971h25.739v46.473c0,9.116-0.894,17.695-8.938,25.561
		c-9.115,8.937-22.521,10.366-31.994,10.366c-9.831,0-23.059-1.43-32.174-10.366c-7.328-7.15-8.758-15.193-8.758-23.952v-48.081
		H848.77z"/>
	<path d="M952.85,600.619v58.984h-25.738v-58.984h-8.938v-20.734h8.938v-25.738h25.738v25.738h15.908v20.734H952.85z"/>
	<path d="M990.564,629.933c9.115,0,16.266,7.149,16.266,16.266c0,9.115-7.15,16.265-16.266,16.265
		c-9.116,0-16.266-7.149-16.266-16.265C974.299,637.082,981.448,629.933,990.564,629.933z"/>
</g>
</svg>
