<?xml version="1.0" encoding="utf-8"?>
<!-- Generator: Adobe Illustrator 15.1.0, SVG Export Plug-In . SVG Version: 6.00 Build 0)  -->
<!DOCTYPE svg PUBLIC "-//W3C//DTD SVG 1.1//EN" "http://www.w3.org/Graphics/SVG/1.1/DTD/svg11.dtd">
<svg version="1.1" id="vs_text" xmlns="http://www.w3.org/2000/svg" xmlns:xlink="http://www.w3.org/1999/xlink" x="0px" y="0px"
	 width="1080px" height="1080px" viewBox="0 0 1080 1080" enable-background="new 0 0 1080 1080" xml:space="preserve">
<g>
	<path fill="#FFFFFF" d="M214.858,188.064c-3.72-9.24-9.839-25.319-20.039-49.318c-3.36-7.8-3.6-8.399-9.72-9
		c-0.72-0.12-0.84-0.24-0.84-0.72c0-0.24,0.84-1.8,1.2-2.28c0.36-0.48,0.84-0.72,1.68-0.72c2.28,0,7.56,0.24,10.08,0.24
		c4.2,0,8.4-0.24,12.72-0.24c0.6,0,1.08,1.68,1.08,3c0,0.48-0.12,0.84-0.72,0.96c-4.8,0.48-6.479,0.84-6.24,2.4
		c0.12,0.84,0.6,2.64,1.2,4.32c6.48,17.64,16.439,41.519,20.759,50.998c0.24,0.6,1.08,0.84,1.32,0.24
		c3.48-7.8,12.36-30.359,15.6-38.879c0.48-1.08,0.24-1.92-0.12-2.88c-2.16-6.239-3.72-10.319-4.68-12.839
		c-1.08-2.76-1.8-3.12-7.32-3.24c-0.36,0-0.84-0.36-0.84-0.72c0.36-2.52,1.08-3.36,1.92-3.36c2.88,0,7.08,0.24,11.52,0.24
		c6,0,9.479-0.36,11.28-0.36c0.84,0.36,1.439,3.6,0.72,3.84c-6.36,0.72-7.08,1.08-6,4.32c4.2,12.959,14.28,38.998,20.52,53.998
		c0.24,0.48,0.72,0.36,1.08-0.36c4.2-10.2,17.999-44.158,20.039-54.358c0.36-2.4-0.72-3-2.16-3.12c-1.8-0.24-4.08-0.24-5.76-0.48
		c-0.24-0.12-0.36-0.36-0.24-0.96c0.24-2.28,0.48-3.12,1.44-3.12c1.2,0,8.399,0.36,11.279,0.36c3.84,0,7.8-0.24,8.76-0.24
		c1.44,0,2.04,0.24,2.16,0.96l0.36,2.64c0,0.24-0.24,0.479-0.48,0.479c-6.24-0.12-6.48,0.72-12.12,13.2
		c-3.48,7.44-13.2,31.799-20.519,50.398c-0.96,2.16-3.6,7.08-5.16,11.04c-0.36,0.84-1.2,1.32-1.92,1.32
		c-1.439,0-2.04-0.84-2.64-2.52c-0.72-2.16-1.68-5.16-3.72-10.8c-2.28-6.6-8.4-23.639-14.04-37.318
		c-4.44,10.319-9.479,21.839-15.479,36.718c-1.44,3.72-3.84,8.88-5.28,12.72c-0.24,0.6-0.48,0.84-0.84,0.96
		c-0.6,0.36-1.44,0.48-2.28,0.48c-0.6,0-1.08-0.36-1.32-1.32C220.499,202.944,218.579,197.304,214.858,188.064z"/>
	<path fill="#FFFFFF" d="M325.498,156.266c3.72,0,7.92,2.16,9.96,4.319c2.04,2.04,3.72,4.56,4.8,7.92
		c1.08-0.24,3.359-0.84,3.72-0.36c0.36,0.24,0.36,0.6,0.24,1.08c-0.36,1.08-1.2,3.24-2.28,3.48c-8.16,1.92-23.639,4.92-28.799,6.48
		c-0.6,0.12-0.84,0.72-0.84,2.16c0.36,11.879,6.72,16.799,14.639,16.799c5.52,0,10.2-2.28,14.28-5.88
		c0.6-0.479,2.04-0.479,1.92-0.12c-0.12,2.88-0.36,3.72-1.08,4.44c-5.16,4.319-10.8,6.72-14.879,7.919c-1.56,0.48-3.12,0.6-4.44,0.6
		c-8.399,0-13.799-5.04-15.239-6.72c-1.92-2.04-5.4-7.32-5.4-15.12c0-10.56,6.12-18.599,12.6-23.159c3-2.16,7.32-3.84,10.679-3.84
		H325.498z M330.898,169.706c0-3.36-4.56-8.88-9.6-8.88c-0.72,0-1.92,0.36-3,1.2c-3.48,2.399-5.52,8.399-5.28,13.439
		c5.52-1.44,11.04-2.4,16.439-3.72c0.84-0.24,1.44-0.6,1.44-1.92V169.706z"/>
	<path fill="#FFFFFF" d="M351.623,201.384c3.72-1.32,5.16-2.16,5.52-5.4c0.6-3.6,0.84-10.68,0.84-16.56c0-4.68-0.24-9-0.36-11.16
		c0-1.2-0.48-1.68-6-3c-0.48-0.6-0.72-0.36-0.24-2.28c0-0.36,0.36-0.6,1.08-0.84c5.16-2.52,10.439-5.4,11.04-5.879
		c0.36-0.24,0.84-0.36,1.32-0.36c0.6,0,1.2,0.36,1.2,0.84c0.12,2.04,0.24,4.32,0.24,6.36c0,0.6,0.12,1.08,0.6,1.08
		c5.28-3,7.32-3.96,10.56-5.4c1.92-0.96,4.56-1.68,6.72-1.68c3.48,0,5.88,0.84,8.16,2.64c3.12,2.4,4.8,6.72,5.28,11.88
		c0.24,2.52,0.24,5.399,0.24,10.56c0,8.759,0.12,13.919,0.12,16.679c0,1.08,0.12,1.2,0.48,1.2c1.08,0,4.56-0.36,6.36-0.48
		c0.36,0,0.6,0.48,0.6,1.2c0,0.72-0.36,2.4-0.48,2.88c-0.24,0.6-0.48,0.6-0.96,0.6c-10.68,0-14.279,0.479-18.839,0.479
		c-0.72,0-1.32,0-1.44-0.479l-0.6-2.4c3.48-1.2,4.8-2.16,5.28-5.52c0.6-3.6,0.72-8.04,0.72-16.56c0-6.6-0.12-9.959-2.88-12.959
		c-1.92-2.04-4.56-3-8.04-3c-2.88,0-7.44,1.68-10.08,3.24c-1.08,0.84-1.2,1.56-1.32,2.88c-0.24,4.2-0.24,21.359-0.24,27.839
		c0,1.56,0.24,1.8,6.479,2.76c0.72,0.12,0.84,0.36,0.72,0.84l-0.72,2.64h-10.199c-4.8,0-8.64,0.6-11.04,0.6
		c-0.24,0-0.36-0.24-0.36-0.72L351.623,201.384z"/>
	<path fill="#FFFFFF" d="M413.841,201.384c3.72-1.32,5.16-2.16,5.52-5.4c0.6-3.6,0.84-10.68,0.84-16.56c0-4.68-0.24-9-0.36-11.16
		c0-1.2-0.48-1.68-6-3c-0.48-0.6-0.72-0.36-0.24-2.28c0-0.36,0.36-0.6,1.08-0.84c5.16-2.52,10.439-5.4,11.04-5.879
		c0.36-0.24,0.84-0.36,1.32-0.36c0.6,0,1.2,0.36,1.2,0.84c0.12,2.04,0.24,4.32,0.24,6.36c0,0.6,0.12,1.08,0.6,1.08
		c5.28-3,7.32-3.96,10.56-5.4c1.92-0.96,4.56-1.68,6.72-1.68c3.48,0,5.88,0.84,8.16,2.64c3.12,2.4,4.8,6.72,5.28,11.88
		c0.24,2.52,0.24,5.399,0.24,10.56c0,8.759,0.12,13.919,0.12,16.679c0,1.08,0.12,1.2,0.48,1.2c1.08,0,4.56-0.36,6.36-0.48
		c0.36,0,0.6,0.48,0.6,1.2c0,0.72-0.36,2.4-0.48,2.88c-0.24,0.6-0.48,0.6-0.96,0.6c-10.68,0-14.279,0.479-18.839,0.479
		c-0.72,0-1.32,0-1.44-0.479l-0.6-2.4c3.48-1.2,4.8-2.16,5.28-5.52c0.6-3.6,0.72-8.04,0.72-16.56c0-6.6-0.12-9.959-2.88-12.959
		c-1.92-2.04-4.56-3-8.04-3c-2.88,0-7.44,1.68-10.08,3.24c-1.08,0.84-1.2,1.56-1.32,2.88c-0.24,4.2-0.24,21.359-0.24,27.839
		c0,1.56,0.24,1.8,6.479,2.76c0.72,0.12,0.84,0.36,0.72,0.84l-0.72,2.64h-10.199c-4.8,0-8.64,0.6-11.04,0.6
		c-0.24,0-0.36-0.24-0.36-0.72L413.841,201.384z"/>
	<path fill="#FFFFFF" d="M505.16,183.985c0-5.88,1.92-12.72,8.879-19.199c4.2-3.84,12.72-8.28,18.479-8.28
		c2.76,0,6.84,0.6,8.399,1.2c0.48,0.12,1.32-0.24,1.32-0.96c0.12-1.68,0.24-3.959,0.24-8.279c0.12-9.96-0.12-13.8-0.36-16.199
		c-0.12-1.68-0.359-2.28-5.88-3c-0.6-0.12-0.84-0.6-0.96-0.96l-0.24-0.96c-0.12-0.48-0.12-0.72,0.24-0.84
		c5.64-2.28,9.6-4.08,14.04-6.72c0.359-0.24,1.319-0.36,1.56-0.36c0.48,0.12,0.84,0.96,0.84,1.92
		c-0.12,10.92-0.72,35.398-0.72,49.318v14.639c0,3.84,0.12,9.72,0.72,12.719c0.24,1.56,0.84,1.8,1.561,1.8
		c1.319,0,4.079-1.08,5.399-1.68c0.6-0.24,1.2-0.24,1.32,0.24c0.359,1.08,0.6,2.52,0.6,3.479s-0.72,1.08-1.44,1.2
		c-3.72,1.2-13.199,3.36-14.399,3.36c-0.96,0-2.039-1.08-2.279-2.4c-0.12-1.8-0.24-4.56-0.24-6c-9.12,4.44-16.319,7.2-17.879,7.2
		c-4.92,0-9.72-3-12.479-5.52c-4.56-4.32-6.72-11.04-6.72-15.599V183.985z M526.999,162.026c-1.8,0-5.88,1.08-8.4,3.72
		c-2.4,2.28-4.32,6.479-4.32,11.399c0,3,0.36,11.52,6.6,17.039c3.72,3.24,6.84,3.6,9.84,3.6c2.4,0,7.8-1.32,9.72-2.64
		c1.08-0.72,1.439-0.96,1.56-1.8c0.48-5.16,0.48-20.519-0.12-24.839c-0.239-1.2-0.239-1.8-2.04-2.88c-3.36-2.4-7.92-3.6-12.72-3.6
		H526.999z"/>
	<path fill="#FFFFFF" d="M574.831,165.985c-0.12-0.6-0.84-0.96-6.479-1.92c-0.48-0.12-0.601-0.36-0.24-0.96
		c0.84-2.16,0.96-2.4,1.56-2.52c4.681-1.56,8.88-3.359,14.16-5.16c0.239-0.12,0.359-0.12,0.6-0.12s0.24,0.24,0.24,0.96
		c-0.48,8.159-1.08,25.079-1.08,31.318c0,6.12,0,8.28,0.12,9.72c0.24,1.68,0.479,2.4,1.68,2.28c3.72-0.24,4.68-0.24,5.04-0.24
		c0.359,0,1.08,0.72,0.96,1.08l-0.36,3.12c-0.12,0.72-0.359,0.72-0.96,0.72c-3.479,0-6.84-0.24-10.68-0.24
		c-5.279,0-10.079,0.72-10.439,0.72c-0.6,0-0.84-0.12-0.96-0.6c-0.24-0.84-0.24-2.04-0.24-2.76c0-0.48,0.24-0.6,0.601-0.6
		c4.319-0.48,5.279-0.84,6-4.2c0.359-1.92,1.079-10.32,0.84-17.879L574.831,165.985z M581.791,129.027c3.12,0,5.159,2.64,5.159,5.52
		c0,4.08-2.88,6.479-5.999,6.479c-2.88,0-5.28-2.28-5.28-5.52c0-4.2,3.36-6.48,6-6.48H581.791z"/>
	<path fill="#FFFFFF" d="M601.122,200.424c2.761-0.96,3.36-1.2,3.601-2.76c0.239-1.44,0.239-4.68,0.239-15.119v-10.8
		c0-2.88-0.239-3.6-4.919-4.919c-0.96-0.36-1.561-1.92-1.32-2.64c4.56-3,9.479-5.64,13.199-8.16c0.48-0.24,1.2-0.48,1.44-0.48
		c0.479,0,1.08,0.84,0.84,1.92c-0.12,3.12-0.48,5.88-0.36,9.479c2.4-1.2,9.72-7.08,11.279-8.16c1.08-0.84,2.4-1.68,3.48-1.68
		c3.12,0,6.6,3,6.6,5.64c0,1.92-3,5.4-4.08,6.36c-0.72,0.48-1.319,0.96-2.04,0.96c-0.72,0-1.08-0.24-1.56-0.84
		c-0.96-1.32-2.64-2.76-4.56-2.76c-2.641,0-5.88,2.16-8.04,4.08c-0.84,0.72-1.08,2.28-1.08,7.919v15c0,3,0.12,4.56,0.48,5.16
		c0.359,0.6,0.84,0.96,2.159,0.84l6.48-0.24c0.6,0,1.08,0.6,0.96,1.08l-0.721,3.72c-5.279,0-10.56,0-15.839,0
		c-3.12,0-6.12,0.24-6.96,0.24c-0.479,0-0.72-0.36-0.359-1.08L601.122,200.424z"/>
	<path fill="#FFFFFF" d="M185.82,313.985c0-5.88,1.92-12.72,8.879-19.199c4.2-3.84,12.72-8.28,18.479-8.28
		c2.76,0,6.84,0.6,8.399,1.2c0.48,0.12,1.32-0.24,1.32-0.96c0.12-1.68,0.24-3.959,0.24-8.279c0.12-9.96-0.12-13.8-0.36-16.199
		c-0.12-1.68-0.36-2.28-5.88-3c-0.6-0.12-0.84-0.6-0.96-0.96l-0.24-0.96c-0.12-0.48-0.12-0.72,0.24-0.84
		c5.64-2.28,9.6-4.08,14.04-6.72c0.36-0.24,1.32-0.36,1.56-0.36c0.48,0.12,0.84,0.96,0.84,1.92c-0.12,10.92-0.72,35.398-0.72,49.318
		v14.639c0,3.84,0.12,9.72,0.72,12.719c0.24,1.56,0.84,1.8,1.56,1.8c1.32,0,4.08-1.08,5.4-1.68c0.6-0.24,1.2-0.24,1.32,0.24
		c0.36,1.08,0.6,2.52,0.6,3.479s-0.72,1.08-1.44,1.2c-3.72,1.2-13.199,3.36-14.399,3.36c-0.96,0-2.04-1.08-2.28-2.4
		c-0.12-1.8-0.24-4.56-0.24-6c-9.12,4.44-16.319,7.2-17.879,7.2c-4.92,0-9.72-3-12.479-5.52c-4.56-4.32-6.72-11.04-6.72-15.599
		V313.985z M207.659,292.026c-1.8,0-5.88,1.08-8.4,3.72c-2.4,2.28-4.32,6.479-4.32,11.399c0,3,0.36,11.52,6.6,17.039
		c3.72,3.24,6.84,3.6,9.84,3.6c2.4,0,7.8-1.32,9.72-2.64c1.08-0.72,1.439-0.96,1.56-1.8c0.48-5.16,0.48-20.519-0.12-24.839
		c-0.24-1.2-0.24-1.8-2.04-2.88c-3.36-2.4-7.92-3.6-12.72-3.6H207.659z"/>
	<path fill="#FFFFFF" d="M253.031,301.025c-0.72,0.24-1.439,0.36-2.16,0.36c-0.48,0-1.44-0.96-1.44-1.56c0-0.84,0.36-1.8,0.96-2.76
		c2.28-3.36,10.919-8.52,14.04-9.6c2.64-0.96,4.68-1.44,6.6-1.44c5.28,0,8.04,2.04,9.959,4.32c2.04,2.16,2.28,4.32,2.28,5.76
		c0,8.52-0.36,16.919-0.36,24.839c0,6.36,1.08,8.64,3,8.64c2.04,0,5.52-1.44,5.88-1.56c0.36-0.24,1.2,0.72,1.2,1.2l-0.24,2.04
		c0,0.48-0.24,0.96-0.72,1.32c-1.44,0.84-9.24,2.88-13.319,3c-2.04,0-3.96-1.2-4.92-6.24c-4.68,2.04-13.799,6-15.239,6
		c-1.68,0-4.08-0.48-6.84-2.52c-1.44-1.32-3.36-4.439-3.36-9.239c0-2.64,1.8-4.56,5.16-6.24c6.12-3.24,13.439-5.16,20.639-6.48
		c0.24-1.56,0.24-6.12,0.24-8.64c0-4.92-0.96-7.68-2.04-8.76c-0.96-0.84-3.96-1.8-6.72-1.8c-2.4,0-4.08,0.48-4.8,0.72
		c-0.48,0.36-0.84,1.2-0.84,5.16c0,0.84,0,1.2-0.72,1.44L253.031,301.025z M263.831,329.224c1.2,0,4.44-1.08,7.439-2.52
		c1.44-0.96,2.4-1.68,2.64-3.12c0.12-1.56,0.36-6,0.36-7.68c0-0.84-0.24-1.44-0.6-1.44c-7.08,1.2-11.52,2.52-14.16,4.56
		c-0.72,0.48-1.2,1.44-1.2,3.6c0,4.08,1.2,6.6,5.399,6.6H263.831z"/>
	<path fill="#FFFFFF" d="M333.981,322.145c0,3.48-1.8,6.959-5.76,9.719c-3.6,2.4-8.16,3.24-12.12,3.24
		c-3.24,0-8.399-0.72-10.319-1.08s-2.52-0.48-4.08,0.24c-0.12,0-0.72,0-1.08-0.24c-0.36-0.36-0.36-0.72-0.24-1.32
		c0.6-4.44,0.48-8.52,0-13.2c0.12-0.36,0.12-0.6,0.36-0.84c0.48-0.24,1.08-0.48,2.88-0.84c1.08,3.24,3.12,6.84,5.28,9.359
		c3.24,3.48,6.12,4.32,8.16,4.32c2.76,0,7.44-2.52,7.44-6.839c0-6.48-7.08-9.24-10.68-11.16c-3-1.68-11.759-5.52-11.759-13.32
		c0-3.84,1.68-7.08,5.279-10.079c3.36-2.64,7.56-3.72,10.32-3.72c2.88,0,5.28,0.36,7.919,0.36c1.08,0,1.8-0.12,2.04-0.24
		c0.24-0.12,0.48-0.12,0.96,0.12c0.36,0.24,0.36,0.48,0.36,0.84c0.12,3.48,0.96,7.56,2.28,12c0,0.48-0.84,1.08-1.08,1.08
		c-1.92,0-2.4-0.12-3.48-1.68c-1.68-3.12-4.8-8.64-10.919-8.64c-2.16,0-5.28,1.92-5.28,6.24c0,5.4,4.8,7.92,9.84,10.56
		c3.24,1.56,13.679,5.52,13.679,15V322.145z"/>
	<path fill="#FFFFFF" d="M431.298,314.945c0.48,0,2.64,0.6,3.24,0.96c0.48,0.48,0.48,0.84,0.36,1.32
		c-1.44,4.92-2.76,10.08-3.6,15.239c-0.24,1.2-1.08,1.68-2.04,1.8c-1.2,0.12-2.52,0.12-7.56,0.12c-4.92,0-10.799-0.36-31.079-0.36
		c-6.48,0-12.359,0.6-14.04,0.72c-1.32,0.12-2.04,0.12-2.28,0.12c-0.36-0.48-1.08-3-0.96-3.72c5.88-0.72,8.879-1.8,9.839-5.4
		c0.48-1.68,0.84-6.12,0.84-18.359v-24.599c0-10.2-0.24-16.679-0.6-19.319c-0.36-2.76-1.32-3.24-9.84-3.12
		c-0.36,0-0.72-0.72-0.48-1.44l0.96-2.16c0.12-0.6,0.24-0.6,0.48-0.6c3.6,0,7.32,0.12,11.16,0c6.12-0.12,12.479-0.48,18.719-0.72
		c0.48,0.36,0.84,2.64,0.84,3.6c-7.2,0.84-10.08,1.44-10.679,6.36c-0.36,3.48-0.72,11.399-0.6,21.119l0.12,14.639
		c0.12,18.959,0.24,22.679,0.36,24.839c0.12,1.68,0.84,2.64,2.28,3c2.04,0.72,5.76,0.96,11.16,0.96
		c7.919,0,15.599-0.24,19.559-6.359c1.32-2.04,2.28-4.32,3.12-8.04c0.12-0.479,0.24-0.6,0.6-0.6H431.298z"/>
	<path fill="#FFFFFF" d="M466.746,286.266c3.72,0,7.92,2.16,9.96,4.319c2.04,2.04,3.72,4.56,4.8,7.92
		c1.08-0.24,3.359-0.84,3.72-0.36c0.36,0.24,0.36,0.6,0.24,1.08c-0.36,1.08-1.2,3.24-2.28,3.48c-8.16,1.92-23.639,4.92-28.799,6.48
		c-0.6,0.12-0.84,0.72-0.84,2.16c0.36,11.879,6.72,16.799,14.639,16.799c5.52,0,10.2-2.28,14.28-5.88
		c0.6-0.479,2.04-0.479,1.92-0.12c-0.12,2.88-0.36,3.72-1.08,4.44c-5.16,4.319-10.8,6.72-14.879,7.919c-1.56,0.48-3.12,0.6-4.44,0.6
		c-8.399,0-13.799-5.04-15.239-6.72c-1.92-2.04-5.4-7.32-5.4-15.12c0-10.56,6.12-18.599,12.6-23.159c3-2.16,7.32-3.84,10.679-3.84
		H466.746z M472.146,299.706c0-3.36-4.56-8.88-9.6-8.88c-0.72,0-1.92,0.36-3,1.2c-3.48,2.399-5.52,8.399-5.28,13.439
		c5.52-1.44,11.04-2.4,16.439-3.72c0.84-0.24,1.44-0.6,1.44-1.92V299.706z"/>
	<path fill="#FFFFFF" d="M542.393,307.025c0,12.959-6.839,20.279-17.279,25.799c-2.88,1.56-6.839,1.92-8.52,1.92
		c-2.88,0-7.319-0.24-8.879-0.36c-3.36-0.24-5.4-0.24-7.92,0.24c-1.32,0.36-1.8,0.12-2.4-0.36c-1.56-2.16-1.56-6.12-1.56-24.719
		v-24.719c0-6.839,0.12-13.919-0.12-17.399c-0.36-3.48-0.72-4.56-4.92-7.8c-1.08-1.08-0.84-1.8,0.12-2.52
		c2.04-1.2,12.239-7.68,13.799-7.68c0.48,0,0.72,0.84,0.72,4.08c0,4.8-0.6,14.399-0.6,36.958c0,0.48,0.96,0.96,1.44,0.84
		c7.439-2.76,14.279-5.28,15.479-5.4c3.6-0.12,9.119,1.44,12.839,5.16c5.04,4.919,7.799,11.039,7.799,15.839V307.025z
		 M533.273,311.825c0-3.96-1.56-8.879-5.04-12.719c-4.8-5.64-9.359-6.24-13.199-6.24c-4.2,0-8.28,1.56-9.36,2.4
		c-0.72,0.6-0.96,0.96-1.08,2.64c-0.12,1.92-0.36,5.52-0.36,16.08c0,4.08,0.84,9.479,3.96,12.239c2.52,2.28,6.12,4.44,9.479,4.44
		c2.16,0,5.28-0.72,8.399-3.24c5.04-4.08,7.2-8.52,7.2-15.479V311.825z"/>
	<path fill="#FFFFFF" d="M574.77,286.266c3.72,0,7.92,2.16,9.96,4.319c2.04,2.04,3.72,4.56,4.8,7.92c1.08-0.24,3.359-0.84,3.72-0.36
		c0.36,0.24,0.36,0.6,0.24,1.08c-0.36,1.08-1.2,3.24-2.28,3.48c-8.159,1.92-23.639,4.92-28.799,6.48c-0.6,0.12-0.84,0.72-0.84,2.16
		c0.36,11.879,6.72,16.799,14.64,16.799c5.52,0,10.199-2.28,14.279-5.88c0.6-0.479,2.04-0.479,1.92-0.12
		c-0.12,2.88-0.36,3.72-1.08,4.44c-5.16,4.319-10.8,6.72-14.879,7.919c-1.561,0.48-3.12,0.6-4.44,0.6
		c-8.399,0-13.799-5.04-15.239-6.72c-1.92-2.04-5.399-7.32-5.399-15.12c0-10.56,6.119-18.599,12.6-23.159
		c2.999-2.16,7.319-3.84,10.679-3.84H574.77z M580.17,299.706c0-3.36-4.561-8.88-9.6-8.88c-0.721,0-1.92,0.36-3,1.2
		c-3.48,2.399-5.52,8.399-5.28,13.439c5.521-1.44,11.04-2.4,16.439-3.72c0.84-0.24,1.44-0.6,1.44-1.92V299.706z"/>
	<path fill="#FFFFFF" d="M600.895,331.384c3.72-1.32,5.159-2.16,5.52-5.4c0.6-3.6,0.84-10.68,0.84-16.56c0-4.68-0.24-9-0.36-11.16
		c0-1.2-0.479-1.68-5.999-3c-0.48-0.6-0.721-0.36-0.24-2.28c0-0.36,0.359-0.6,1.08-0.84c5.159-2.52,10.439-5.4,11.039-5.879
		c0.36-0.24,0.84-0.36,1.32-0.36c0.6,0,1.2,0.36,1.2,0.84c0.119,2.04,0.239,4.32,0.239,6.36c0,0.6,0.12,1.08,0.601,1.08
		c5.279-3,7.319-3.96,10.56-5.4c1.92-0.96,4.56-1.68,6.72-1.68c3.479,0,5.88,0.84,8.159,2.64c3.12,2.4,4.8,6.72,5.28,11.88
		c0.239,2.52,0.239,5.399,0.239,10.56c0,8.759,0.12,13.919,0.12,16.679c0,1.08,0.12,1.2,0.48,1.2c1.08,0,4.56-0.36,6.359-0.48
		c0.36,0,0.6,0.48,0.6,1.2c0,0.72-0.359,2.4-0.479,2.88c-0.24,0.6-0.48,0.6-0.96,0.6c-10.68,0-14.279,0.479-18.839,0.479
		c-0.721,0-1.32,0-1.44-0.479l-0.6-2.4c3.479-1.2,4.8-2.16,5.279-5.52c0.601-3.6,0.721-8.04,0.721-16.56
		c0-6.6-0.12-9.959-2.88-12.959c-1.92-2.04-4.561-3-8.04-3c-2.88,0-7.439,1.68-10.08,3.24c-1.079,0.84-1.199,1.56-1.319,2.88
		c-0.24,4.2-0.24,21.359-0.24,27.839c0,1.56,0.24,1.8,6.479,2.76c0.721,0.12,0.84,0.36,0.721,0.84l-0.721,2.64h-10.199
		c-4.8,0-8.64,0.6-11.04,0.6c-0.239,0-0.359-0.24-0.359-0.72L600.895,331.384z"/>
	<path fill="#FFFFFF" d="M715.611,286.266c3.72,0,7.92,2.16,9.96,4.319c2.04,2.04,3.72,4.56,4.8,7.92
		c1.08-0.24,3.359-0.84,3.72-0.36c0.36,0.24,0.36,0.6,0.24,1.08c-0.36,1.08-1.2,3.24-2.28,3.48c-8.16,1.92-23.639,4.92-28.799,6.48
		c-0.6,0.12-0.84,0.72-0.84,2.16c0.359,11.879,6.72,16.799,14.64,16.799c5.52,0,10.199-2.28,14.279-5.88
		c0.6-0.479,2.04-0.479,1.92-0.12c-0.12,2.88-0.36,3.72-1.08,4.44c-5.16,4.319-10.8,6.72-14.88,7.919
		c-1.56,0.48-3.119,0.6-4.439,0.6c-8.399,0-13.8-5.04-15.239-6.72c-1.92-2.04-5.399-7.32-5.399-15.12
		c0-10.56,6.119-18.599,12.599-23.159c3-2.16,7.32-3.84,10.68-3.84H715.611z M721.012,299.706c0-3.36-4.561-8.88-9.6-8.88
		c-0.721,0-1.92,0.36-3,1.2c-3.48,2.399-5.521,8.399-5.28,13.439c5.52-1.44,11.04-2.4,16.439-3.72c0.84-0.24,1.44-0.6,1.44-1.92
		V299.706z"/>
	<path fill="#FFFFFF" d="M747.508,295.985c-0.12-0.6-0.84-0.96-6.479-1.92c-0.48-0.12-0.601-0.36-0.24-0.96
		c0.84-2.16,0.96-2.4,1.56-2.52c4.68-1.56,8.88-3.359,14.16-5.16c0.239-0.12,0.359-0.12,0.6-0.12s0.24,0.24,0.24,0.96
		c-0.48,8.159-1.08,25.079-1.08,31.318c0,6.12,0,8.28,0.12,9.72c0.239,1.68,0.479,2.4,1.68,2.28c3.72-0.24,4.68-0.24,5.04-0.24
		c0.359,0,1.08,0.72,0.96,1.08l-0.36,3.12c-0.12,0.72-0.36,0.72-0.96,0.72c-3.479,0-6.84-0.24-10.68-0.24
		c-5.279,0-10.079,0.72-10.439,0.72c-0.6,0-0.84-0.12-0.96-0.6c-0.24-0.84-0.24-2.04-0.24-2.76c0-0.48,0.24-0.6,0.601-0.6
		c4.319-0.48,5.279-0.84,5.999-4.2c0.36-1.92,1.08-10.32,0.84-17.879L747.508,295.985z M754.468,259.027
		c3.119,0,5.159,2.64,5.159,5.52c0,4.08-2.88,6.479-6,6.479c-2.879,0-5.279-2.28-5.279-5.52c0-4.2,3.359-6.48,6-6.48H754.468z"/>
	<path fill="#FFFFFF" d="M772.286,331.384c3.72-1.32,5.16-2.16,5.521-5.4c0.6-3.6,0.84-10.68,0.84-16.56c0-4.68-0.24-9-0.36-11.16
		c0-1.2-0.479-1.68-6-3c-0.479-0.6-0.72-0.36-0.239-2.28c0-0.36,0.359-0.6,1.08-0.84c5.159-2.52,10.439-5.4,11.039-5.879
		c0.36-0.24,0.84-0.36,1.32-0.36c0.6,0,1.199,0.36,1.199,0.84c0.12,2.04,0.24,4.32,0.24,6.36c0,0.6,0.12,1.08,0.6,1.08
		c5.28-3,7.32-3.96,10.561-5.4c1.92-0.96,4.56-1.68,6.719-1.68c3.48,0,5.88,0.84,8.16,2.64c3.12,2.4,4.8,6.72,5.279,11.88
		c0.24,2.52,0.24,5.399,0.24,10.56c0,8.759,0.12,13.919,0.12,16.679c0,1.08,0.12,1.2,0.48,1.2c1.079,0,4.56-0.36,6.359-0.48
		c0.36,0,0.6,0.48,0.6,1.2c0,0.72-0.359,2.4-0.479,2.88c-0.24,0.6-0.48,0.6-0.96,0.6c-10.68,0-14.279,0.479-18.839,0.479
		c-0.721,0-1.32,0-1.44-0.479l-0.6-2.4c3.479-1.2,4.8-2.16,5.279-5.52c0.601-3.6,0.72-8.04,0.72-16.56
		c0-6.6-0.119-9.959-2.88-12.959c-1.92-2.04-4.56-3-8.039-3c-2.88,0-7.44,1.68-10.08,3.24c-1.08,0.84-1.2,1.56-1.319,2.88
		c-0.24,4.2-0.24,21.359-0.24,27.839c0,1.56,0.24,1.8,6.479,2.76c0.72,0.12,0.84,0.36,0.72,0.84l-0.72,2.64h-10.199
		c-4.8,0-8.64,0.6-11.04,0.6c-0.24,0-0.359-0.24-0.359-0.72L772.286,331.384z"/>
	<path fill="#FFFFFF" d="M855.036,286.266c3.72,0,7.92,2.16,9.96,4.319c2.04,2.04,3.72,4.56,4.8,7.92
		c1.08-0.24,3.359-0.84,3.72-0.36c0.359,0.24,0.359,0.6,0.24,1.08c-0.36,1.08-1.2,3.24-2.28,3.48
		c-8.159,1.92-23.639,4.92-28.799,6.48c-0.6,0.12-0.84,0.72-0.84,2.16c0.36,11.879,6.72,16.799,14.64,16.799
		c5.52,0,10.199-2.28,14.279-5.88c0.6-0.479,2.04-0.479,1.92-0.12c-0.12,2.88-0.36,3.72-1.08,4.44
		c-5.16,4.319-10.8,6.72-14.88,7.919c-1.56,0.48-3.119,0.6-4.439,0.6c-8.399,0-13.8-5.04-15.239-6.72c-1.92-2.04-5.4-7.32-5.4-15.12
		c0-10.56,6.12-18.599,12.6-23.159c3-2.16,7.32-3.84,10.68-3.84H855.036z M860.436,299.706c0-3.36-4.56-8.88-9.6-8.88
		c-0.72,0-1.92,0.36-2.999,1.2c-3.48,2.399-5.521,8.399-5.28,13.439c5.52-1.44,11.04-2.4,16.439-3.72
		c0.84-0.24,1.439-0.6,1.439-1.92V299.706z"/>
	<path fill="#FFFFFF" d="M219.059,464.024c-15.959,0-22.679,0.479-28.559,0.479c-0.84,0-1.44-0.359-2.52-2.039
		c-0.36-0.601-0.36-1.2,0.24-1.561c0.84-0.84,4.2-4.199,13.08-14.279c9.719-11.159,36.358-43.198,44.758-53.998
		c0.6-0.6-0.12-1.319-0.96-1.319c-5.28-0.48-11.16-0.601-16.919-0.601c-8.64,0-14.64,0.24-19.799,0.721
		c-5.64,0.479-8.64,3.239-11.16,6.72c-2.76,3.72-6,9.72-6.839,11.159l-0.6-0.12c-2.4-0.6-2.52-0.96-2.4-1.68
		c1.8-7.319,7.919-23.759,8.64-25.679c0.24-0.721,0.6-0.96,0.84-0.96c0.6,0,2.4,0.6,2.88,0.72c-0.12,3.359-0.12,4.08,0.36,4.199
		c4.08,0.24,7.32,0.36,18.12,0.36h17.759c9.48,0,17.879-0.479,22.319-0.6c1.68,0,3.48,0,4.32,0c0.36,0,0.6,0.12,0.48,0.96
		c-0.48,1.8-1.08,3.359-3.12,5.52c-7.08,7.56-15.479,16.919-29.278,34.078c-8.76,11.16-16.68,20.64-26.039,32.639
		c0.96,0.36,4.08,0.841,20.639,0.841c23.639,0,26.759-1.561,29.999-5.4c2.16-2.399,4.32-7.079,7.2-14.039
		c0.12-0.24,0.48-0.72,2.52-0.72c0.72,0,0.96,0.119,0.84,0.72c-1.08,5.64-3.72,16.319-5.28,21.359c-1.2,4.079-1.8,5.76-2.16,5.88
		c-0.6,0.239-2.4,0.6-3.36,0.6c0-3.24,0-3.48-1.2-3.72c-3.12-0.36-10.319-0.24-23.279-0.24H219.059z"/>
	<path fill="#FFFFFF" d="M280.151,425.986c-0.12-0.601-0.84-0.96-6.48-1.92c-0.48-0.12-0.6-0.36-0.24-0.96
		c0.84-2.16,0.96-2.4,1.56-2.521c4.68-1.56,8.879-3.359,14.159-5.159c0.24-0.12,0.36-0.12,0.6-0.12c0.24,0,0.24,0.24,0.24,0.96
		c-0.48,8.159-1.08,25.079-1.08,31.318c0,6.12,0,8.28,0.12,9.72c0.24,1.68,0.48,2.4,1.68,2.28c3.72-0.24,4.68-0.24,5.04-0.24
		c0.36,0,1.08,0.72,0.96,1.08l-0.36,3.12c-0.12,0.72-0.36,0.72-0.96,0.72c-3.48,0-6.84-0.24-10.68-0.24
		c-5.28,0-10.08,0.72-10.439,0.72c-0.6,0-0.84-0.12-0.96-0.6c-0.24-0.84-0.24-2.04-0.24-2.76c0-0.48,0.24-0.601,0.6-0.601
		c4.32-0.479,5.28-0.84,6-4.199c0.36-1.92,1.08-10.319,0.84-17.88L280.151,425.986z M287.11,389.027c3.12,0,5.16,2.64,5.16,5.52
		c0,4.08-2.88,6.48-6,6.48c-2.88,0-5.28-2.28-5.28-5.521c0-4.199,3.36-6.479,6-6.479H287.11z"/>
	<path fill="#FFFFFF" d="M316.75,408.586c0.12,0,0.24,0.239,0.24,0.72c0,1.56-0.6,7.92-0.6,9c5.76,0,12.839-0.601,17.039-0.601
		c1.2,0,1.32,0.36,1.32,1.32c0,1.08-0.24,2.399-0.72,4.08c-0.24,0.96-0.84,1.079-1.8,1.079c-3.48,0.12-9.12,0.12-15.479,0.36
		c-0.36,0-0.6,0.36-0.72,1.68c-0.36,5.4-0.24,17.88-0.24,24.6c0,5.279,3.48,8.159,8.88,8.159c2.88,0,4.68-0.84,7.56-2.64
		c0.6-0.36,0.84-0.36,0.96,0.12c0.24,0.84,0.36,1.56,0.36,2.279c0,0.601-0.36,1.08-0.84,1.32c-4.56,2.64-9.24,5.28-15,5.28
		c-2.16,0-6.6-0.841-9.12-3.84c-1.56-1.92-1.92-4.08-1.68-8.76c0.24-6.479,0.24-23.039,0.48-26.399c0.12-0.84-0.48-1.68-1.08-1.68
		c-1.68-0.12-4.08-0.12-4.92-0.12c-0.24-0.12-0.96-1.08-0.6-1.319c4.44-3.96,11.879-11.16,14.52-13.8
		c0.48-0.601,1.08-0.84,1.32-0.84H316.75z"/>
	<path fill="#FFFFFF" d="M344.349,460.424c2.76-0.96,3.36-1.2,3.6-2.76c0.24-1.44,0.24-4.681,0.24-15.12v-10.799
		c0-2.88-0.24-3.601-4.919-4.92c-0.96-0.36-1.56-1.92-1.32-2.641c4.56-2.999,9.479-5.64,13.199-8.159
		c0.48-0.24,1.2-0.479,1.44-0.479c0.48,0,1.08,0.84,0.84,1.92c-0.12,3.119-0.48,5.879-0.36,9.479c2.4-1.2,9.72-7.08,11.279-8.16
		c1.08-0.84,2.4-1.68,3.48-1.68c3.12,0,6.6,3,6.6,5.64c0,1.92-3,5.399-4.08,6.359c-0.72,0.48-1.32,0.96-2.04,0.96
		c-0.72,0-1.08-0.239-1.56-0.84c-0.96-1.319-2.64-2.76-4.56-2.76c-2.64,0-5.88,2.16-8.04,4.08c-0.84,0.72-1.08,2.28-1.08,7.92
		v14.999c0,3,0.12,4.56,0.48,5.16c0.36,0.6,0.84,0.96,2.16,0.84l6.48-0.24c0.6,0,1.08,0.6,0.96,1.08l-0.72,3.72
		c-5.279,0-10.56,0-15.839,0c-3.12,0-6.12,0.24-6.96,0.24c-0.48,0-0.72-0.36-0.36-1.08L344.349,460.424z"/>
	<path fill="#FFFFFF" d="M409.904,416.026c8.399,0,22.199,7.92,22.199,24.359c0,12.239-7.68,18.599-9.359,19.559
		c-5.28,3.24-10.919,5.28-16.079,5.28c-4.44,0-13.68-2.641-18.239-8.76c-3.6-4.68-5.04-11.16-5.04-15.359
		c0-4.92,1.92-10.68,4.8-14.399c2.4-3.12,4.8-5.04,8.04-6.84c4.08-2.16,9.959-3.84,13.56-3.84H409.904z M404.504,420.585
		c-2.04,0-4.44,0.96-6.12,2.76c-3.24,3.24-4.56,8.16-4.56,15.96c0,7.68,3.12,12.839,5.88,15.839c4.08,4.44,8.28,5.52,11.279,5.52
		c1.56,0,4.32-0.6,5.88-2.159c2.64-2.521,5.16-6.84,5.16-14.159c0-7.32-2.16-15-7.2-19.56c-2.28-2.16-6.239-4.2-10.199-4.2H404.504z
		"/>
	<path fill="#FFFFFF" d="M440.024,461.384c3.72-1.32,5.16-2.16,5.52-5.4c0.6-3.6,0.84-10.68,0.84-16.559c0-4.68-0.24-9-0.36-11.16
		c0-1.199-0.48-1.68-6-3c-0.48-0.6-0.72-0.359-0.24-2.279c0-0.36,0.36-0.601,1.08-0.84c5.16-2.521,10.439-5.4,11.04-5.88
		c0.36-0.24,0.84-0.36,1.32-0.36c0.6,0,1.2,0.36,1.2,0.84c0.12,2.04,0.24,4.32,0.24,6.36c0,0.6,0.12,1.079,0.6,1.079
		c5.28-2.999,7.32-3.959,10.56-5.399c1.92-0.96,4.56-1.68,6.72-1.68c3.48,0,5.88,0.84,8.16,2.64c3.12,2.4,4.8,6.72,5.28,11.88
		c0.24,2.52,0.24,5.399,0.24,10.56c0,8.76,0.12,13.919,0.12,16.679c0,1.08,0.12,1.2,0.48,1.2c1.08,0,4.56-0.359,6.36-0.479
		c0.36,0,0.6,0.479,0.6,1.199c0,0.721-0.36,2.4-0.48,2.88c-0.24,0.601-0.48,0.601-0.96,0.601c-10.68,0-14.28,0.479-18.839,0.479
		c-0.72,0-1.32,0-1.44-0.479l-0.6-2.4c3.48-1.2,4.8-2.159,5.28-5.52c0.6-3.6,0.72-8.04,0.72-16.56c0-6.6-0.12-9.959-2.88-12.959
		c-1.92-2.04-4.56-3-8.04-3c-2.88,0-7.439,1.68-10.079,3.24c-1.08,0.84-1.2,1.56-1.32,2.879c-0.24,4.2-0.24,21.359-0.24,27.84
		c0,1.56,0.24,1.8,6.479,2.76c0.72,0.119,0.84,0.359,0.72,0.84l-0.72,2.64h-10.2c-4.8,0-8.64,0.6-11.039,0.6
		c-0.24,0-0.36-0.239-0.36-0.72L440.024,461.384z"/>
	<path fill="#FFFFFF" d="M522.774,416.266c3.72,0,7.92,2.159,9.959,4.319c2.04,2.04,3.72,4.561,4.8,7.92
		c1.08-0.24,3.36-0.84,3.721-0.36c0.359,0.24,0.359,0.601,0.239,1.08c-0.359,1.08-1.2,3.24-2.28,3.48
		c-8.16,1.92-23.639,4.919-28.799,6.479c-0.6,0.12-0.84,0.72-0.84,2.16c0.36,11.879,6.72,16.799,14.639,16.799
		c5.52,0,10.2-2.279,14.279-5.88c0.6-0.479,2.04-0.479,1.92-0.12c-0.12,2.88-0.36,3.721-1.08,4.44
		c-5.16,4.319-10.8,6.72-14.879,7.919c-1.56,0.48-3.12,0.601-4.44,0.601c-8.4,0-13.799-5.04-15.239-6.72
		c-1.92-2.04-5.4-7.32-5.4-15.119c0-10.56,6.12-18.6,12.6-23.159c3-2.16,7.319-3.84,10.68-3.84H522.774z M528.174,429.706
		c0-3.36-4.56-8.88-9.6-8.88c-0.72,0-1.92,0.36-3,1.2c-3.479,2.399-5.52,8.399-5.28,13.439c5.52-1.44,11.04-2.4,16.439-3.72
		c0.84-0.24,1.44-0.601,1.44-1.92V429.706z"/>
	<path fill="#FFFFFF" d="M600.533,415.066c3.12,0,6.84,1.439,9,2.52c0.84,0.601,1.8,0.48,2.039,0.48c2.04,0,9-1.44,11.52-1.44
		c0.96,0,2.28,1.08,2.4,1.561c0.12,0.359,0.479,3.239,0.479,3.72c0,0.72-0.6,1.439-2.039,1.56c-1.32,0-4.92,0.12-10.2,0
		c1.8,2.88,3.24,7.08,3.24,10.439c0,8.4-6.12,15.84-15.359,19.56c-4.44,1.68-7.2,3.12-9.84,4.56c-0.72,0.36-1.08,1.2-1.08,1.561
		c0,2.159,2.88,3.239,6.12,3.239c1.439,0,8.999-0.24,10.079-0.24c5.04,0,9.6,0.601,13.68,3.601c1.8,1.319,3.36,4.319,3.36,8.399
		c0,3.84-1.08,5.88-4.32,9.84c-6.239,7.439-11.76,9.479-14.76,10.68c-2.76,0.96-8.279,1.8-11.759,1.8
		c-13.08,0-18.239-6.24-18.239-11.04c0-4.08,1.68-7.439,4.56-9.359c3-2.16,5.399-3.84,9-6.24c-5.16-2.279-8.04-3.84-8.04-7.439
		c0-1.08,0-1.56,0.72-2.52c1.2-1.08,6.6-3.84,11.52-6.24c-3.72-0.96-6.72-2.279-9.72-4.92c-3.359-2.999-5.279-7.919-5.279-12.599
		c0-7.2,3.84-12.72,9.239-16.56c3.96-2.64,8.52-4.92,13.56-4.92H600.533z M598.133,490.542c6.96,0,11.76-1.68,15-4.56
		c2.399-2.04,4.199-4.439,4.199-7.319c0-1.68-0.119-3.48-2.52-5.28c-2.64-1.92-6.12-2.64-10.319-2.64c-4.2,0-9.24,0.48-12.239,1.08
		c-1.2,0.24-2.641,1.08-4.561,2.88c-3.119,2.64-4.319,5.76-4.319,7.56c0,2.16,2.64,8.279,14.64,8.279H598.133z M608.933,438.105
		c0-3.84-0.96-8.88-3-12.119c-1.68-2.76-5.279-5.88-10.68-5.88c-2.159,0-4.079,0.84-6.119,2.64c-2.16,1.68-3.12,5.16-3.12,8.52
		c0,4.68,2.04,10.68,5.399,13.56c3.96,3.479,6.72,4.2,8.88,4.2c4.44,0,8.64-2.76,8.64-10.8V438.105z"/>
	<path fill="#FFFFFF" d="M639.221,425.986c-0.12-0.601-0.841-0.96-6.48-1.92c-0.479-0.12-0.6-0.36-0.239-0.96
		c0.84-2.16,0.96-2.4,1.56-2.521c4.68-1.56,8.88-3.359,14.159-5.159c0.24-0.12,0.36-0.12,0.601-0.12c0.239,0,0.239,0.24,0.239,0.96
		c-0.479,8.159-1.08,25.079-1.08,31.318c0,6.12,0,8.28,0.12,9.72c0.24,1.68,0.48,2.4,1.68,2.28c3.721-0.24,4.68-0.24,5.04-0.24
		s1.08,0.72,0.96,1.08l-0.359,3.12c-0.12,0.72-0.36,0.72-0.961,0.72c-3.479,0-6.839-0.24-10.679-0.24
		c-5.28,0-10.08,0.72-10.439,0.72c-0.601,0-0.84-0.12-0.96-0.6c-0.24-0.84-0.24-2.04-0.24-2.76c0-0.48,0.24-0.601,0.6-0.601
		c4.32-0.479,5.28-0.84,6-4.199c0.36-1.92,1.08-10.319,0.84-17.88L639.221,425.986z M646.18,389.027c3.12,0,5.16,2.64,5.16,5.52
		c0,4.08-2.88,6.48-6,6.48c-2.88,0-5.279-2.28-5.279-5.521c0-4.199,3.359-6.479,5.999-6.479H646.18z"/>
	<path fill="#FFFFFF" d="M711.925,437.025c0,12.96-6.84,20.279-17.279,25.799c-2.88,1.561-6.84,1.92-8.52,1.92
		c-2.88,0-7.319-0.24-8.88-0.359c-3.359-0.24-5.399-0.24-7.919,0.239c-1.32,0.36-1.8,0.12-2.4-0.359
		c-1.56-2.16-1.56-6.12-1.56-24.72v-24.719c0-6.84,0.12-13.919-0.12-17.399c-0.36-3.479-0.72-4.56-4.92-7.8
		c-1.08-1.079-0.84-1.8,0.12-2.52c2.04-1.2,12.239-7.68,13.799-7.68c0.48,0,0.721,0.84,0.721,4.08c0,4.8-0.601,14.399-0.601,36.958
		c0,0.48,0.96,0.96,1.44,0.841c7.439-2.761,14.279-5.28,15.479-5.4c3.6-0.12,9.119,1.44,12.839,5.16
		c5.04,4.92,7.8,11.039,7.8,15.839V437.025z M702.806,441.825c0-3.96-1.561-8.88-5.04-12.72c-4.8-5.64-9.359-6.239-13.199-6.239
		c-4.2,0-8.28,1.56-9.359,2.399c-0.721,0.601-0.961,0.96-1.08,2.641c-0.12,1.92-0.36,5.52-0.36,16.079
		c0,4.08,0.84,9.479,3.96,12.239c2.52,2.28,6.119,4.439,9.479,4.439c2.16,0,5.28-0.72,8.399-3.239c5.04-4.08,7.2-8.52,7.2-15.479
		V441.825z"/>
	<path fill="#FFFFFF" d="M734.174,408.586c0.12,0,0.24,0.239,0.24,0.72c0,1.56-0.6,7.92-0.6,9c5.76,0,12.84-0.601,17.039-0.601
		c1.2,0,1.32,0.36,1.32,1.32c0,1.08-0.24,2.399-0.721,4.08c-0.239,0.96-0.84,1.079-1.8,1.079c-3.479,0.12-9.119,0.12-15.479,0.36
		c-0.359,0-0.6,0.36-0.72,1.68c-0.359,5.4-0.239,17.88-0.239,24.6c0,5.279,3.479,8.159,8.879,8.159c2.88,0,4.68-0.84,7.56-2.64
		c0.601-0.36,0.841-0.36,0.96,0.12c0.24,0.84,0.36,1.56,0.36,2.279c0,0.601-0.36,1.08-0.84,1.32c-4.56,2.64-9.239,5.28-14.999,5.28
		c-2.16,0-6.601-0.841-9.12-3.84c-1.56-1.92-1.92-4.08-1.68-8.76c0.239-6.479,0.239-23.039,0.479-26.399
		c0.12-0.84-0.479-1.68-1.08-1.68c-1.68-0.12-4.079-0.12-4.92-0.12c-0.239-0.12-0.959-1.08-0.6-1.319
		c4.439-3.96,11.88-11.16,14.52-13.8c0.48-0.601,1.08-0.84,1.32-0.84H734.174z"/>
	<path fill="#FFFFFF" d="M769.01,447.464c1.08,0,5.04,2.76,5.04,7.08c0,8.76-7.8,17.999-14.88,22.199
		c-1.199,0.6-2.04,0.84-2.76,0.84c-0.6,0-1.08-0.24-1.08-0.72c0-0.721,0.48-1.561,1.32-2.521c3.359-3.239,7.319-8.039,7.319-12.959
		c0-2.28-1.439-4.2-3.479-5.64c-0.48-0.24-0.48-2.16,0-2.521c2.399-1.08,5.399-3.6,6.6-4.92c0.72-0.6,1.2-0.84,1.8-0.84H769.01z"/>
	<path fill="#FFFFFF" d="M212.339,554.066c-1.68,0-4.68-0.121-9.6-0.121c-0.84,0-1.2,0.24-1.2,5.641v21.959
		c0,6.84,0.36,7.92,1.56,7.92c0.84,0,5.64-0.48,6.6-0.48c0.6,0,0.96,0.48,0.96,2.879c0,2.16-0.24,2.16-1.68,2.16
		c-4.2,0-8.4,0-12.6,0c-2.64,0-9.12,0.6-10.799,0.6c-0.6,0-0.72-0.119-0.6-0.959c0.36-2.4,0.6-2.641,1.44-2.881
		c6-1.439,6.12-1.799,6.12-13.318v-21.119c0-2.041-0.36-2.52-3.12-2.76l-3.48-0.24c-0.36,0-1.08-0.48-0.84-0.84l1.08-1.92
		c0.36-0.961,0.6-1.199,1.2-1.32c0.6-0.24,3.479-0.959,5.16-1.199v-6.359c0-9.481,1.2-16.201,7.2-21.96
		c3-3.119,7.92-6.6,13.439-8.759c2.76-0.961,4.92-1.44,6.72-1.44c3.36,0,7.439,1.68,8.64,3.72c0.48,0.72,0.6,1.32,0.6,2.04
		c0,1.2-1.56,3.24-2.88,4.68c-0.36,0.36-0.96,0.72-1.8,0.72c-1.32,0-2.76-0.96-4.919-2.279c-3-1.8-4.44-2.521-6.72-2.521
		c-2.04,0-4.08,0.96-5.88,2.761c-3.36,3.479-4.92,10.319-4.92,27.958c0,0.961,0.72,1.561,1.32,1.561c3.72,0,10.68-0.6,11.16-0.6
		c0.84,0,1.8,0.84,1.92,1.439c0.24,0.6,0.36,3.24,0.36,3.84c0,0.721-0.36,1.201-1.32,1.201H212.339z"/>
	<path fill="#FFFFFF" d="M225.73,590.424c2.76-0.959,3.359-1.199,3.6-2.76c0.24-1.439,0.24-4.68,0.24-15.119v-10.799
		c0-2.881-0.24-3.602-4.92-4.92c-0.96-0.361-1.56-1.92-1.32-2.641c4.56-3,9.48-5.641,13.2-8.16c0.48-0.24,1.2-0.479,1.44-0.479
		c0.48,0,1.08,0.84,0.84,1.92c-0.12,3.119-0.48,5.879-0.36,9.479c2.4-1.199,9.72-7.08,11.28-8.16c1.08-0.84,2.399-1.68,3.479-1.68
		c3.12,0,6.6,3,6.6,5.641c0,1.92-3,5.398-4.08,6.359c-0.72,0.48-1.32,0.959-2.04,0.959c-0.72,0-1.08-0.238-1.56-0.84
		c-0.96-1.318-2.64-2.76-4.56-2.76c-2.64,0-5.88,2.16-8.04,4.08c-0.84,0.721-1.08,2.281-1.08,7.92v15c0,3,0.12,4.559,0.48,5.16
		c0.36,0.6,0.84,0.959,2.16,0.84l6.479-0.24c0.6,0,1.08,0.6,0.96,1.08l-0.72,3.719c-5.28,0-10.56,0-15.84,0
		c-3.12,0-6.12,0.24-6.959,0.24c-0.48,0-0.72-0.359-0.36-1.08L225.73,590.424z"/>
	<path fill="#FFFFFF" d="M270.766,561.025c-0.72,0.24-1.439,0.359-2.16,0.359c-0.48,0-1.44-0.959-1.44-1.559
		c0-0.84,0.36-1.801,0.96-2.76c2.28-3.361,10.919-8.521,14.04-9.6c2.64-0.961,4.68-1.441,6.6-1.441c5.28,0,8.04,2.041,9.959,4.32
		c2.04,2.16,2.28,4.32,2.28,5.76c0,8.52-0.36,16.92-0.36,24.84c0,6.359,1.08,8.639,3,8.639c2.04,0,5.52-1.439,5.88-1.561
		c0.36-0.238,1.2,0.721,1.2,1.201l-0.24,2.039c0,0.48-0.24,0.961-0.72,1.32c-1.44,0.84-9.24,2.881-13.319,3
		c-2.04,0-3.96-1.199-4.92-6.24c-4.68,2.041-13.799,6-15.239,6c-1.68,0-4.08-0.48-6.84-2.52c-1.44-1.32-3.36-4.439-3.36-9.24
		c0-2.639,1.8-4.559,5.16-6.24c6.12-3.238,13.439-5.158,20.639-6.479c0.24-1.561,0.24-6.119,0.24-8.641c0-4.92-0.96-7.68-2.04-8.76
		c-0.96-0.84-3.96-1.799-6.72-1.799c-2.4,0-4.08,0.48-4.8,0.719c-0.48,0.361-0.84,1.201-0.84,5.16c0,0.84,0,1.201-0.72,1.441
		L270.766,561.025z M281.565,589.225c1.2,0,4.44-1.08,7.439-2.52c1.44-0.961,2.4-1.682,2.64-3.121c0.12-1.559,0.36-6,0.36-7.68
		c0-0.84-0.24-1.439-0.6-1.439c-7.08,1.199-11.52,2.52-14.16,4.561c-0.72,0.479-1.2,1.439-1.2,3.6c0,4.08,1.2,6.6,5.399,6.6H281.565
		z"/>
	<path fill="#FFFFFF" d="M339.32,545.066c3.12,0,6.839,1.439,9,2.52c0.84,0.6,1.8,0.48,2.04,0.48c2.04,0,9-1.441,11.52-1.441
		c0.96,0,2.28,1.08,2.4,1.561c0.12,0.359,0.479,3.24,0.479,3.721c0,0.719-0.6,1.439-2.04,1.559c-1.32,0-4.92,0.121-10.2,0
		c1.8,2.881,3.24,7.08,3.24,10.439c0,8.4-6.12,15.84-15.359,19.561c-4.44,1.68-7.2,3.119-9.839,4.559
		c-0.72,0.361-1.08,1.201-1.08,1.561c0,2.16,2.88,3.24,6.12,3.24c1.44,0,9-0.24,10.08-0.24c5.04,0,9.6,0.6,13.68,3.6
		c1.8,1.32,3.36,4.32,3.36,8.4c0,3.84-1.08,5.879-4.32,9.84c-6.24,7.439-11.76,9.479-14.76,10.68
		c-2.76,0.959-8.279,1.799-11.759,1.799c-13.08,0-18.239-6.24-18.239-11.039c0-4.08,1.68-7.439,4.56-9.359c3-2.16,5.399-3.84,9-6.24
		c-5.16-2.279-8.04-3.84-8.04-7.439c0-1.08,0-1.561,0.72-2.52c1.2-1.08,6.6-3.84,11.52-6.24c-3.72-0.961-6.72-2.279-9.72-4.92
		c-3.36-3-5.28-7.92-5.28-12.6c0-7.199,3.84-12.719,9.24-16.559c3.96-2.641,8.52-4.92,13.56-4.92H339.32z M336.92,620.543
		c6.96,0,11.76-1.68,15-4.561c2.4-2.039,4.2-4.439,4.2-7.318c0-1.68-0.12-3.48-2.52-5.281c-2.64-1.92-6.12-2.639-10.32-2.639
		s-9.24,0.48-12.239,1.08c-1.2,0.24-2.64,1.08-4.56,2.879c-3.12,2.641-4.32,5.76-4.32,7.561c0,2.16,2.64,8.279,14.64,8.279H336.92z
		 M347.72,568.105c0-3.84-0.96-8.881-3-12.119c-1.68-2.76-5.28-5.881-10.68-5.881c-2.16,0-4.08,0.84-6.12,2.641
		c-2.16,1.68-3.12,5.16-3.12,8.52c0,4.68,2.04,10.68,5.399,13.559c3.96,3.48,6.72,4.201,8.88,4.201c4.44,0,8.64-2.76,8.64-10.801
		V568.105z"/>
	<path fill="#FFFFFF" d="M398.479,591.385c3.72-1.32,5.16-2.16,5.52-5.4c0.6-3.6,0.84-10.68,0.84-16.559c0-4.68-0.24-9-0.36-11.16
		c0-1.199-0.48-1.68-6-3c-0.48-0.6-0.72-0.359-0.24-2.279c0-0.361,0.36-0.602,1.08-0.84c5.16-2.521,10.439-5.4,11.04-5.881
		c0.36-0.24,0.84-0.359,1.32-0.359c0.6,0,1.2,0.359,1.2,0.84c0.12,2.039,0.24,4.32,0.24,6.359c0,0.6,0.12,1.08,0.6,1.08
		c5.28-3,7.32-3.959,10.56-5.4c1.92-0.959,4.56-1.68,6.72-1.68c3.48,0,5.88,0.84,8.16,2.641c3.12,2.4,4.8,6.719,5.28,11.879
		c0.24,2.52,0.24,5.4,0.24,10.561c0,8.76,0.12,13.918,0.12,16.678c0,1.08,0.12,1.201,0.48,1.201c1.08,0,4.56-0.359,6.36-0.48
		c0.36,0,0.6,0.48,0.6,1.199c0,0.721-0.36,2.4-0.48,2.881c-0.24,0.6-0.48,0.6-0.96,0.6c-10.68,0-14.279,0.48-18.839,0.48
		c-0.72,0-1.32,0-1.44-0.48l-0.6-2.4c3.48-1.199,4.8-2.158,5.28-5.52c0.6-3.6,0.72-8.039,0.72-16.559c0-6.6-0.12-9.959-2.88-12.959
		c-1.92-2.041-4.56-3-8.04-3c-2.88,0-7.44,1.68-10.08,3.24c-1.08,0.84-1.2,1.559-1.32,2.879c-0.24,4.199-0.24,21.359-0.24,27.84
		c0,1.559,0.24,1.799,6.479,2.76c0.72,0.119,0.84,0.359,0.72,0.84l-0.72,2.639h-10.199c-4.8,0-8.64,0.6-11.04,0.6
		c-0.24,0-0.36-0.238-0.36-0.719L398.479,591.385z"/>
	<path fill="#FFFFFF" d="M464.873,561.025c-0.72,0.24-1.439,0.359-2.16,0.359c-0.48,0-1.44-0.959-1.44-1.559
		c0-0.84,0.36-1.801,0.96-2.76c2.28-3.361,10.919-8.521,14.04-9.6c2.64-0.961,4.68-1.441,6.6-1.441c5.28,0,8.04,2.041,9.959,4.32
		c2.04,2.16,2.28,4.32,2.28,5.76c0,8.52-0.36,16.92-0.36,24.84c0,6.359,1.08,8.639,3,8.639c2.04,0,5.52-1.439,5.88-1.561
		c0.36-0.238,1.2,0.721,1.2,1.201l-0.24,2.039c0,0.48-0.24,0.961-0.72,1.32c-1.44,0.84-9.24,2.881-13.319,3
		c-2.04,0-3.96-1.199-4.92-6.24c-4.68,2.041-13.799,6-15.239,6c-1.68,0-4.08-0.48-6.84-2.52c-1.44-1.32-3.36-4.439-3.36-9.24
		c0-2.639,1.8-4.559,5.16-6.24c6.12-3.238,13.439-5.158,20.639-6.479c0.24-1.561,0.24-6.119,0.24-8.641c0-4.92-0.96-7.68-2.04-8.76
		c-0.96-0.84-3.96-1.799-6.72-1.799c-2.4,0-4.08,0.48-4.8,0.719c-0.48,0.361-0.84,1.201-0.84,5.16c0,0.84,0,1.201-0.72,1.441
		L464.873,561.025z M475.673,589.225c1.2,0,4.44-1.08,7.439-2.52c1.44-0.961,2.4-1.682,2.64-3.121c0.12-1.559,0.36-6,0.36-7.68
		c0-0.84-0.24-1.439-0.6-1.439c-7.08,1.199-11.52,2.52-14.16,4.561c-0.72,0.479-1.2,1.439-1.2,3.6c0,4.08,1.2,6.6,5.399,6.6H475.673
		z"/>
	<path fill="#FFFFFF" d="M538.059,545.906c3.959,0,8.879,1.439,11.28,3.959c0.479,0.48,0.84,0.961,0.84,1.68
		c0,1.682-2.4,3.721-3.84,4.561c-0.96,0.48-2.28,0.721-2.76,0.48c-0.72-0.24-1.32-0.6-2.64-1.561c-2.761-1.68-6.24-3-9-3
		c-3.72,0-6.48,1.439-8.04,3c-3.12,3.119-4.08,7.68-4.08,14.279c0,7.199,2.28,12.24,3.84,14.039c3.6,4.32,8.28,5.52,11.16,5.52
		c3.6,0,9.479-2.879,12.84-4.918c0.359-0.121,1.439,0.359,1.439,0.719c0,0.721-0.479,3.121-1.32,3.721
		c-1.56,1.32-6.959,4.08-10.919,5.52c-2.52,0.84-5.28,1.199-6.72,1.199c-4.32,0-9.719-1.799-13.439-4.799
		c-2.52-2.041-6.6-7.68-6.6-15.359c0-12.119,5.16-16.68,7.2-18.721c2.52-2.639,7.92-5.998,10.68-7.439
		c3.12-1.68,6.24-2.879,9.959-2.879H538.059z"/>
	<path fill="#FFFFFF" d="M555.712,592.703c-0.36-0.6-0.24-0.84,0.12-1.078c6.359-2.881,6.72-3.24,6.72-14.641v-47.877
		c0-7.08-0.24-7.2-4.44-11.04c-0.479-0.36-0.359-1.08,0.12-1.56c1.8-1.44,8.88-5.4,12.119-7.2c0.601-0.239,1.32-0.239,1.681,0.12
		c0.239,0.24,0.239,0.6,0.239,1.32c0,7.56-0.359,15.359-0.359,23.879v17.639c0,0.359,0.479,0.961,0.84,0.721
		c2.399-0.961,9.479-4.32,12.6-5.4c2.52-0.84,4.56-1.199,6.6-1.199c10.8,0,13.199,9.119,13.199,19.078
		c0,3.6-0.359,11.879-0.359,19.559c0,3.961,0.479,4.32,5.159,5.641c1.08,0.24,1.2,0.359,1.2,0.84v1.92c0,0.721-0.12,0.84-0.84,0.84
		h-8.52c-5.76,0-10.8,0.6-12.12,0.721c-0.479,0-0.6-0.24-0.6-1.68c-0.24-1.441-0.12-1.68,0.24-1.92
		c0.359-0.24,2.279-0.84,3.359-1.32c2.16-1.08,2.64-1.92,3-4.801c0.6-5.398,0.48-8.879,0.48-13.559c0-11.16-2.04-14.279-4.561-16.32
		c-2.76-2.039-4.92-2.279-7.199-2.279c-3.48,0-7.92,1.439-11.279,3.24c-1.08,0.48-1.44,1.32-1.44,3.719v12.84
		c0,6.359,0.24,9.84,0.72,13.08c0.36,2.879,0.84,3.48,6.24,4.08c0.479,0,0.6,0.24,0.84,2.879c-0.12,0.961-0.24,1.08-0.6,1.08
		c-9.72,0-16.2,0-21.479,0.84c-0.72,0.121-0.84,0.121-0.96-0.24L555.712,592.703z"/>
	<path fill="#FFFFFF" d="M264.598,675.479c5.55,0,9.6,1.049,12.6,2.1c0.9,0.449,2.85,1.35,4.95,1.049l3.75-0.449
		c0.75,0,1.35,1.051,1.35,1.801c0.45,6.748-1.05,18.148-1.2,23.398c-2.7,0-4.8-0.75-5.1-1.5c-2.85-12.449-6.9-21.299-19.049-21.299
		c-9.6,0-13.799,7.949-13.799,15.6c0,6.75,3.6,11.998,9.6,17.248c6.899,5.701,16.949,13.199,20.549,16.65
		c4.8,4.648,8.85,10.799,8.85,16.949c0,7.35-2.4,18.299-17.099,25.498c-5.1,2.551-13.5,4.201-19.949,4.201
		c-5.7,0-12.149-1.201-16.799-2.701c-3-1.049-6.9-2.699-10.35-3c0.15-5.1,1.5-22.348,2.25-25.648c0.15-1.051,0.45-1.199,1.95-0.75
		c3.15,1.051,3.45,1.65,3.75,3.15c2.25,14.1,9.45,23.248,24.599,23.248c9,0,15.449-6.299,15.449-15.148c0-7.051-3.15-12-7.65-16.199
		c-4.2-3.9-12.299-10.35-19.799-17.4c-6.6-5.85-10.05-13.049-10.05-19.498c0-7.801,2.55-13.199,7.35-18.15
		c4.05-4.049,11.55-9.148,23.699-9.148H264.598z"/>
	<path fill="#FFFFFF" d="M308.669,776.424c-1.2,0-3.9-1.199-5.7-3.301c-3.15-3.299-4.8-8.1-4.8-15.449
		c0-9.6,4.05-20.549,8.85-25.799c3.75-4.199,9.899-9.6,22.199-16.949c1.05-0.75,3.75-1.648,6.3-1.648c3.45,0,7.649,0.299,9.75,1.049
		c2.55-0.75,6-1.799,9.6-1.949c-3,10.049-5.4,20.1-7.2,30.598c-1.5,9-1.05,15.15-0.15,15.9c4.05-2.25,7.05-4.35,9.75-6.301
		c0.3,0,1.35,2.1,1.2,3c-3.15,4.051-19.349,21.15-23.099,21.15c-1.35,0-3-1.65-3.75-2.551c2.55-15,3.9-25.35,3.45-26.398
		c-5.25,6.898-22.049,25.498-23.699,26.998c-1.2,1.201-1.95,1.65-2.55,1.65H308.669z M311.519,749.875c0,5.4,1.8,9.9,6,9.9
		c3,0,12.899-11.1,17.25-19.35c1.35-3.15,2.1-6.75,3.75-16.051c-2.1-0.748-5.399-1.648-10.799-1.648c-4.65,0-7.35,2.1-9.6,5.25
		c-4.35,5.85-6.6,14.998-6.6,21.748V749.875z"/>
	<path fill="#FFFFFF" d="M395.698,761.574c0,1.199-0.15,1.5-0.9,2.25c-0.75,0.9-18,12.75-18.899,12.75c-5.1,0-6.899-6.75-7.05-11.25
		c0-5.25,3.3-26.699,6.45-46.348c4.05-25.648,4.5-31.799,4.65-33.299c0.15-1.801-0.15-2.1-1.8-1.65c-2.4,0.75-6.9,2.1-8.399,2.551
		c-0.75,0-0.15-3.6,0.45-3.9c3.75-2.551,21.599-12.6,22.799-12.6c1.95,0,3.6,4.051,2.4,10.199c-5.25,27-10.5,57.598-12.45,73.348
		c-0.75,6.15,0.3,9,1.8,9c1.8,0,6.6-1.35,10.65-3L395.698,761.574z"/>
	<path fill="#FFFFFF" d="M425.068,712.826c4.35,0,8.7,1.801,12.75,3.301c3.9,1.5,7.95,2.549,10.649,2.549c3.3,0,6.6-2.85,7.65-5.699
		c0.15-0.75,0.6-1.35,1.35-1.35c1.05,0,2.25,1.949,2.25,4.199c0,3.449-3.15,7.5-5.7,9.9c-2.85,2.398-27.449,25.199-31.649,29.697
		c-1.5,1.5-2.1,2.852-1.5,3c3.899,0.301,8.85,2.701,12.899,4.35c4.5,1.801,8.549,3.301,11.1,3.301c4.35,0,8.25-4.35,10.199-9.299
		c0.9-1.951,1.35-2.25,2.1-2.25c0.3,0,2.1,2.549,2.1,3.6c0,3-7.2,14.1-11.7,17.248c-3.3,2.102-6.15,3-9.45,3
		c-2.7,0-6.6-1.648-11.549-4.799c-5.4-3.75-9.45-5.85-12.75-5.85c-2.55,0-5.55,3.15-6.6,7.199c-0.15,0.6-0.45,0.75-1.2,0.75
		c-1.65,0-3-2.25-3-4.799c0-3.301,3.45-8.551,9.15-14.25c8.399-8.1,23.999-21.449,31.199-28.648c-4.95,0.6-11.1-0.602-14.7-1.352
		c-3.6-0.898-7.049-1.799-9.899-1.799c-3.75,0-7.05,3.75-8.1,6.6c-0.3,0.9-0.75,2.1-1.05,3c-0.6,0.6-2.7,1.65-4.35,1.949
		c-0.15-0.449-0.15-1.049-0.15-1.65c0-3.148,1.95-9.299,6.3-13.799c4.65-5.1,9.899-8.1,13.5-8.1H425.068z"/>
	<path fill="#FFFFFF" d="M517.316,726.266c0.84,0,1.08,0.721,1.32,1.92c0.12,1.201,0.12,3.6-0.12,8.4
		c-0.24,5.639-0.72,16.559-0.72,23.998c0,5.76,6,8.041,9.719,8.041c4.32-0.121,8.16-1.801,11.4-3.961c0.6-0.48,1.08-0.959,1.2-2.52
		c0.48-3.6,0.84-8.879,0.84-14.76c0-8.279-0.359-11.16-1.2-12.6c-0.72-1.08-2.16-1.439-6.24-2.52c-0.6-0.119-0.84-0.359-0.96-0.721
		c-0.12-0.359-0.48-1.92-0.48-2.279c0-0.24,0.24-0.359,0.48-0.359c0.36-0.121,10.439-1.439,15.359-1.439
		c1.32,0,1.68,0.479,1.92,1.439c0.12,1.08,0.24,1.92,0.12,5.279c-0.12,3.48-0.479,7.561-0.479,15v11.639c0,3.721,0.479,6.6,0.6,7.32
		c0.12,0.6,0.36,0.719,0.96,0.6s3.479-0.721,6.239-1.32c0.36-0.119,1.32,0.48,1.2,1.08c-0.96,3.721-1.2,4.08-1.68,4.08
		c-6,0.48-13.439,2.641-14.64,2.881c-0.72,0-1.08,0.119-1.68-0.602c-0.6-0.719-0.84-1.08-0.84-1.559l0.24-5.16
		c-3,1.439-7.68,3.959-10.8,5.52c-2.28,1.199-5.28,1.801-7.56,1.801c-4.08,0-8.16-1.32-10.919-5.641c-1.2-1.92-1.44-5.16-1.44-7.68
		c0-12.359,0.24-20.52,0.24-24.6c0-1.92-0.12-2.52-4.68-4.68c-0.6-0.359-1.08-0.6-1.2-1.92c-0.12-1.199,0-1.439,0.72-1.68
		c1.92-0.359,11.759-3,12.959-3H517.316z"/>
	<path fill="#FFFFFF" d="M566.252,771.385c3.72-1.32,5.16-2.16,5.52-5.4c0.601-3.6,0.84-10.68,0.84-16.559
		c0-4.68-0.239-9-0.359-11.16c0-1.199-0.48-1.68-6-3c-0.479-0.6-0.72-0.359-0.24-2.279c0-0.361,0.36-0.602,1.08-0.84
		c5.16-2.521,10.439-5.4,11.04-5.881c0.359-0.24,0.84-0.359,1.319-0.359c0.601,0,1.2,0.359,1.2,0.84
		c0.12,2.039,0.24,4.32,0.24,6.359c0,0.6,0.12,1.08,0.6,1.08c5.28-3,7.32-3.959,10.56-5.4c1.92-0.959,4.56-1.68,6.72-1.68
		c3.48,0,5.88,0.84,8.16,2.641c3.119,2.4,4.8,6.719,5.279,11.879c0.24,2.52,0.24,5.4,0.24,10.561c0,8.76,0.12,13.918,0.12,16.678
		c0,1.08,0.12,1.201,0.479,1.201c1.08,0,4.561-0.359,6.36-0.48c0.359,0,0.6,0.48,0.6,1.199c0,0.721-0.36,2.4-0.479,2.881
		c-0.24,0.6-0.48,0.6-0.96,0.6c-10.68,0-14.28,0.48-18.84,0.48c-0.72,0-1.319,0-1.439-0.48l-0.601-2.4
		c3.48-1.199,4.8-2.158,5.28-5.52c0.6-3.6,0.72-8.039,0.72-16.559c0-6.6-0.12-9.959-2.88-12.959c-1.92-2.041-4.56-3-8.04-3
		c-2.88,0-7.439,1.68-10.079,3.24c-1.08,0.84-1.2,1.559-1.32,2.879c-0.239,4.199-0.239,21.359-0.239,27.84
		c0,1.559,0.239,1.799,6.479,2.76c0.72,0.119,0.84,0.359,0.72,0.84l-0.72,2.639h-10.2c-4.8,0-8.64,0.6-11.039,0.6
		c-0.24,0-0.36-0.238-0.36-0.719L566.252,771.385z"/>
	<path fill="#FFFFFF" d="M625.519,753.984c0-5.879,1.92-12.719,8.88-19.199c4.2-3.84,12.72-8.279,18.479-8.279
		c2.761,0,6.84,0.6,8.4,1.199c0.479,0.121,1.319-0.238,1.319-0.959c0.12-1.68,0.24-3.961,0.24-8.279
		c0.12-9.961-0.12-13.801-0.36-16.199c-0.119-1.68-0.359-2.281-5.879-3c-0.601-0.121-0.84-0.6-0.96-0.961l-0.24-0.959
		c-0.12-0.48-0.12-0.721,0.24-0.84c5.64-2.281,9.6-4.08,14.039-6.721c0.36-0.24,1.32-0.359,1.56-0.359
		c0.48,0.119,0.84,0.959,0.84,1.92c-0.119,10.92-0.72,35.398-0.72,49.318v14.639c0,3.84,0.12,9.719,0.72,12.719
		c0.24,1.561,0.841,1.801,1.561,1.801c1.32,0,4.08-1.08,5.399-1.68c0.601-0.24,1.2-0.24,1.32,0.24c0.36,1.08,0.6,2.52,0.6,3.479
		c0,0.961-0.72,1.08-1.439,1.201c-3.72,1.199-13.2,3.359-14.399,3.359c-0.96,0-2.04-1.08-2.28-2.4c-0.12-1.799-0.24-4.559-0.24-6
		c-9.119,4.441-16.318,7.201-17.879,7.201c-4.92,0-9.72-3-12.479-5.52c-4.56-4.32-6.72-11.041-6.72-15.6V753.984z M647.357,732.025
		c-1.8,0-5.879,1.08-8.399,3.721c-2.399,2.279-4.319,6.479-4.319,11.398c0,3,0.359,11.52,6.6,17.039
		c3.72,3.24,6.84,3.602,9.839,3.602c2.4,0,7.8-1.32,9.72-2.641c1.08-0.721,1.44-0.961,1.561-1.801
		c0.479-5.158,0.479-20.518-0.12-24.838c-0.24-1.201-0.24-1.801-2.04-2.881c-3.36-2.398-7.92-3.6-12.72-3.6H647.357z"/>
	<path fill="#FFFFFF" d="M388.797,826.178c40.198,0,43.798-0.75,48.448-3.299c0.75,2.549,0.75,4.799,0,6.299
		c-2.4,4.5-6.9,16.199-7.35,18.6c-0.15,0.75-0.75,0.75-2.4,0c-2.1-1.051-2.55-1.35-2.55-2.25c1.65-12.299-0.45-13.799-16.199-13.799
		c-5.7,0-8.85,0-10.35,0.299c-0.75,0.15-1.65,1.051-2.1,4.051c-9.15,62.098-10.35,68.096-10.95,76.346c-0.15,2.4,0.15,3.9,3,4.35
		c3.6,0.75,7.049,1.051,12.899,1.5c0.45,0,0.45,1.051,0,3.15c-0.3,0.75-0.9,1.35-1.8,1.5c-1.2,0.15-2.55,0.15-5.85,0.15
		c-9.45-0.15-16.799-1.051-26.699-1.051c-6.3,0-13.649,0.6-15.899,0.6c-0.15,0-1.05-1.199-1.65-3.299c0-0.6,0.45-1.35,1.35-1.35
		c2.25-0.301,5.1-0.6,7.65-0.75c7.2-0.451,8.1-3.451,10.05-10.801c1.95-7.799,6.75-34.197,11.099-63.146
		c0.75-4.5,1.2-8.25,0.9-9.449c-0.3-1.35-0.75-1.951-2.25-1.951c-16.799-0.148-21.599,0.451-24.599,2.25
		c-2.25,0.9-4.5,2.85-9.75,11.4c-0.6,1.049-4.2,1.65-4.8,1.5c-0.45-0.451-0.75-0.75-0.45-1.801c4.8-17.549,7.35-20.398,9.15-22.049
		c0.3-0.75,1.2-0.6,1.5-0.15c1.95,1.801,4.95,1.951,7.5,2.4s25.499,0.75,31.949,0.75H388.797z"/>
	<path fill="#FFFFFF" d="M423.059,901.475c0-11.85,4.8-26.85,14.1-32.848c2.7-1.801,17.399-7.65,19.649-7.65
		c3.15,0,12,3.15,12.149,13.5c0,3.299-1.95,7.35-2.85,8.1c-4.05,3.75-21.299,6.898-28.349,8.398c-0.45,2.1-0.45,4.051-0.45,6.75
		c0,8.85,4.05,14.4,12.75,14.4c4.5,0,10.949-2.25,14.549-3.301c1.5-0.449,1.8-0.15,2.55,2.551
		c-7.5,5.398-25.199,12.748-27.149,12.748c-7.8,0-16.799-5.549-16.949-22.498V901.475z M447.658,868.326c-6,0-8.85,12.9-9.15,16.949
		c0,0.9,0.75,1.801,1.2,1.65c4.95-1.051,16.649-5.4,16.649-8.1c0-2.85-1.5-10.5-8.55-10.5H447.658z"/>
	<path fill="#FFFFFF" d="M488.893,924.574c-1.65,0-4.95-2.25-7.35-4.949c-2.1-2.701-4.05-6.9-4.05-14.4
		c0-10.5,5.25-19.648,14.849-29.398c4.95-5.25,17.1-14.85,23.549-14.85c3,0,7.05,0.75,11.1,2.4c1.95-1.201,6.45-2.701,7.05-2.25
		c-2.85,14.85-6.3,39.447-8.25,53.998c-1.95,14.549-3.75,31.947-3.75,34.348c0,3,1.35,3.15,11.85,4.051c0,0.898-0.6,3.898-1.5,3.75
		c-13.649,0.299-35.698,3.299-39.898,3.299c-0.9,0-0.9-0.449-0.15-2.549c0.6-1.201,1.35-1.5,2.7-1.801
		c8.85-1.801,10.35-2.85,11.1-5.551c1.2-1.949,5.55-26.398,8.399-45.447c-8.1,6.6-22.649,19.35-25.499,19.35H488.893z
		 M499.542,910.625c2.25,0,9.75-5.25,14.1-9.6c0.9-0.9,1.5-2.4,1.95-4.051c0.6-3.9,2.55-16.498,2.7-23.699
		c-1.05-0.9-4.95-2.85-10.2-2.85c-4.35,0-7.2,2.4-9.75,5.699c-3.6,4.5-7.05,12.301-7.05,20.699c0,6.15,1.65,13.801,8.1,13.801
		H499.542z"/>
	<path fill="#FFFFFF" d="M543.988,877.926c3.3-3.449,21.749-17.1,25.948-17.1c0.9,0,3,1.949,2.4,3.6
		c-5.85,13.199-9.75,28.049-10.649,35.699c-0.601,4.5,1.199,6.6,3.3,6.6c3.149,0,7.05-2.85,11.1-7.799
		c5.399-6.301,12.149-19.65,15.899-33.6c2.999-1.65,10.799-4.799,11.399-4.799c1.35,0,2.1,2.1,1.8,3.449
		c-3.75,11.25-8.399,31.348-8.399,41.398c0,1.949,1.05,2.4,10.199-4.201c1.05-0.148,2.25,1.801,1.95,3.451
		c-2.55,2.85-21.449,20.248-22.649,20.248c-1.35,0-4.5-1.35-4.649-5.248c0-4.201,3.449-16.35,4.949-26.4
		c-2.1,0.75-5.55,5.701-9.899,11.25c-3.899,4.801-11.399,13.199-16.949,17.85c-1.35,1.199-2.25,1.799-3.6,1.799
		c-3.9,0-7.8-6.748-7.8-12.898c-0.15-6.301,2.1-18.6,4.949-31.648c0-0.9-0.6-1.5-1.35-1.35c-1.649,0.449-5.399,2.699-7.949,3.898
		V877.926z"/>
	<path fill="#FFFFFF" d="M626.981,924.574c-3.15,0-7.5-5.85-6.149-12c2.1-10.35,5.1-24.6,7.049-33.898
		c0.45-1.65-0.6-1.949-2.249-1.35c-3.3,1.35-5.25,2.4-7.95,3.449c-0.6-0.9-1.35-2.25-1.2-3c0.601-0.9,23.85-17.398,24.899-17.398
		s3.45,2.699,2.7,5.398c-3.75,13.35-6.601,32.1-7.8,40.648c-0.601,4.951,0.45,4.951,9.749,0.15c0.601,0.6,0.601,3.6,0,4.199
		c-2.1,2.4-16.799,13.801-18.898,13.801H626.981z M643.181,827.828c3.3,0,5.7,3.299,5.7,7.199c0,5.4-3.9,8.85-8.85,8.85
		c-4.351,0-7.2-3-7.2-6.75c0-6,5.85-9.299,10.199-9.299H643.181z"/>
	<path fill="#FFFFFF" d="M685.823,909.574c0,1.199-0.15,1.5-0.9,2.25c-0.75,0.9-17.999,12.75-18.898,12.75
		c-5.101,0-6.9-6.75-7.05-11.25c0-5.25,3.3-26.699,6.449-46.348c4.05-25.648,4.5-31.799,4.65-33.299c0.149-1.801-0.15-2.1-1.8-1.65
		c-2.4,0.75-6.9,2.1-8.4,2.551c-0.75,0-0.149-3.6,0.45-3.9c3.75-2.551,21.6-12.6,22.799-12.6c1.95,0,3.601,4.051,2.4,10.199
		c-5.25,27-10.5,57.598-12.449,73.348c-0.75,6.15,0.3,9,1.8,9c1.8,0,6.6-1.35,10.649-3L685.823,909.574z"/>
	<path fill="#FFFFFF" d="M722.122,909.574c0,1.199-0.15,1.5-0.9,2.25c-0.75,0.9-17.999,12.75-18.898,12.75
		c-5.101,0-6.9-6.75-7.05-11.25c0-5.25,3.3-26.699,6.449-46.348c4.05-25.648,4.5-31.799,4.65-33.299c0.149-1.801-0.15-2.1-1.8-1.65
		c-2.4,0.75-6.9,2.1-8.4,2.551c-0.75,0-0.149-3.6,0.45-3.9c3.75-2.551,21.6-12.6,22.799-12.6c1.95,0,3.601,4.051,2.4,10.199
		c-5.25,27-10.5,57.598-12.449,73.348c-0.75,6.15,0.3,9,1.8,9c1.8,0,6.6-1.35,10.649-3L722.122,909.574z"/>
	<path fill="#FFFFFF" d="M741.203,924.424c-1.2,0-3.9-1.199-5.7-3.301c-3.149-3.299-4.8-8.1-4.8-15.449
		c0-9.6,4.05-20.549,8.85-25.799c3.75-4.199,9.899-9.6,22.199-16.949c1.05-0.75,3.75-1.648,6.3-1.648
		c3.45,0,7.649,0.299,9.749,1.049c2.551-0.75,6-1.799,9.6-1.949c-2.999,10.049-5.399,20.1-7.199,30.598c-1.5,9-1.05,15.15-0.15,15.9
		c4.05-2.25,7.05-4.35,9.75-6.301c0.3,0,1.35,2.1,1.2,3c-3.15,4.051-19.35,21.15-23.1,21.15c-1.35,0-3-1.65-3.75-2.551
		c2.55-15,3.9-25.35,3.45-26.398c-5.25,6.898-22.049,25.498-23.699,26.998c-1.199,1.201-1.949,1.65-2.55,1.65H741.203z
		 M744.053,897.875c0,5.4,1.8,9.9,6,9.9c2.999,0,12.899-11.1,17.249-19.35c1.35-3.15,2.1-6.75,3.75-16.051
		c-2.101-0.748-5.4-1.648-10.8-1.648c-4.649,0-7.35,2.1-9.6,5.25c-4.35,5.85-6.6,14.998-6.6,21.748V897.875z"/>
</g>
</svg>
