<?xml version="1.0" encoding="utf-8"?>
<!-- Generator: Adobe Illustrator 15.1.0, SVG Export Plug-In . SVG Version: 6.00 Build 0)  -->
<!DOCTYPE svg PUBLIC "-//W3C//DTD SVG 1.1//EN" "http://www.w3.org/Graphics/SVG/1.1/DTD/svg11.dtd">
<svg version="1.1" id="vs_text" xmlns="http://www.w3.org/2000/svg" xmlns:xlink="http://www.w3.org/1999/xlink" x="0px" y="0px"
	 width="1080px" height="1080px" viewBox="0 0 1080 1080" enable-background="new 0 0 1080 1080" xml:space="preserve">
<g>
	<path d="M709.493,111.737h7.36V75.816h-7.36v-9.2h28.08v9.2h-6.56v35.921h6.56v9.2h-28.08V111.737z M741.414,111.737h6.399
		l-16.4-19.36l17.761-16.561h-6.4v-9.2h26.561v9.2h-6.8l-15.28,14.96l17.84,20.96h5.521v9.2h-29.2V111.737z"/>
	<path d="M779.948,111.737h7.76V75.816h-7.76v-9.2h29.841v9.2h-7.92v35.921h16v-16.8h10.641v26h-48.562V111.737z"/>
	<path d="M838.092,111.737h8.24V75.816h-8.24v-9.2h30.641v9.2h-8.24v35.921h8.24v9.2h-30.641V111.737z"/>
	<path d="M879.755,111.737h7.28V75.816h-7.28v-9.2h22.721l19.92,33.921h0.16V75.816h-7.04v-9.2h24.4v9.2h-7.68v45.121h-12.16
		l-23.201-39.921h-0.16v30.721h6.801v9.2h-23.761V111.737z"/>
	<path d="M983.307,93.497h25.441c1.119,21.84-16.961,28.16-29.441,28.16c-20.24,0-30.24-12.72-30.24-28
		c0-16.4,11.84-27.921,28.801-27.921c6.96,0,13.12,1.92,16.96,5.36v-4.48h9.2v19.28h-9.2c-1.04-3.2-3.04-5.84-5.681-7.68
		c-2.8-2-5.76-2.8-9.279-2.8c-9.28,0-15.601,7.04-15.601,17.36c0,13.68,8.24,18.96,16,18.96c6.4,0,10.881-3.2,12.561-9.04h-9.521
		V93.497z"/>
	<path d="M1035.33,107.817v13.12c0,9.84-3.68,14.32-13.04,14.32v-5.92c4.479-0.561,6.479-2.88,6.479-8.4h-6.56v-13.12H1035.33z"/>
</g>
<g>
	<path d="M450.632,190.509h25.441c1.12,21.841-16.96,28.161-29.441,28.161c-20.24,0-30.24-12.72-30.24-28
		c0-16.4,11.84-27.921,28.8-27.921c6.96,0,13.121,1.92,16.96,5.36v-4.48h9.2v19.281h-9.2c-1.04-3.2-3.04-5.84-5.68-7.68
		c-2.8-2-5.76-2.8-9.28-2.8c-9.28,0-15.601,7.04-15.601,17.36c0,13.68,8.24,18.96,16,18.96c6.4,0,10.881-3.2,12.561-9.04h-9.521
		V190.509z"/>
	<path d="M486.839,208.749h7.76v-35.921h-7.76v-9.2h29.841v9.2h-7.92v35.921h16v-16.8H535.4v26h-48.562V208.749z"/>
	<path d="M606.392,190.749c0,13.92-9.68,27.92-30.24,27.92c-20.4,0-30.161-13.84-30.161-27.92c0-14.48,10.16-28.001,30.161-28.001
		C596.392,162.748,606.392,176.349,606.392,190.749z M561.191,190.989c0,10.48,6.08,17.76,14.96,17.76c7.44,0,15.04-5.6,15.04-18.08
		c0-11.2-6.561-18-15.04-18C569.031,172.668,561.191,177.869,561.191,190.989z M572.951,152.668c0,3.12-2.561,5.68-5.68,5.68
		c-3.121,0-5.601-2.56-5.601-5.68s2.479-5.6,5.601-5.6C570.391,147.068,572.951,149.548,572.951,152.668z M590.712,152.668
		c0,3.12-2.561,5.68-5.681,5.68s-5.6-2.56-5.6-5.68s2.479-5.6,5.6-5.6S590.712,149.548,590.712,152.668z"/>
	<path d="M672.255,163.628v19.121h-9.2c-0.96-2.48-2.641-5.52-4.16-6.72c-3.84-2.96-5.84-3.6-9.36-3.6
		c-9.76,0-16.16,7.36-16.16,18.48c0,10.56,6.24,17.84,15.28,17.84c7.521,0,13.12-5.2,15.12-14.16l10.721,5.12
		c-4,14.641-16.16,18.96-26.881,18.96c-23.2,0-29.44-16.081-29.44-27.92c0-16.561,11.6-28.001,28.561-28.001
		c6.641,0,11.84,1.6,16.32,5.12v-4.24H672.255z"/>
	<path d="M685.093,208.749h7.36v-35.921h-7.36v-9.2h28.081v9.2h-6.561v35.921h6.561v9.2h-28.081V208.749z M717.014,208.749h6.4
		l-16.4-19.36l17.76-16.561h-6.399v-9.2h26.561v9.2h-6.8l-15.281,14.961l17.841,20.96h5.521v9.2h-29.201V208.749z"/>
	<path d="M808.262,163.628v19.121h-9.201c-0.959-2.48-2.64-5.52-4.16-6.72c-3.84-2.96-5.84-3.6-9.359-3.6
		c-9.761,0-16.16,7.36-16.16,18.48c0,10.56,6.24,17.84,15.279,17.84c7.521,0,13.121-5.2,15.121-14.16l10.72,5.12
		c-4,14.641-16.16,18.96-26.88,18.96c-23.201,0-29.441-16.081-29.441-27.92c0-16.561,11.601-28.001,28.561-28.001
		c6.641,0,11.841,1.6,16.32,5.12v-4.24H808.262z"/>
	<path d="M821.491,208.749h6.4v-35.921h-6.4v-9.2h26.081v9.2h-5.521v11.921h14.8v-11.921h-5.52v-9.2h26.08v9.2h-6.399v35.921h6.399
		v9.2h-26.08v-9.2h5.52v-14.8h-14.8v14.8h5.521v9.2h-26.081V208.749z"/>
	<path d="M889.723,208.749h6.4v-35.921h-6.4v-9.2h47.762v17.201h-10.32v-8h-16.881v12.48h13.601v9.2h-13.601v14.24h16.881v-8.08
		h10.32v17.28h-47.762V208.749z"/>
	<path d="M950.042,208.749h7.28v-35.921h-7.28v-9.2h22.721l19.921,33.921h0.16v-24.721h-7.041v-9.2h24.4v9.2h-7.68v45.121h-12.16
		l-23.2-39.921h-0.16v30.721h6.8v9.2h-23.761V208.749z"/>
	<path d="M1035.33,204.829v13.12c0,9.841-3.68,14.32-13.04,14.32v-5.92c4.479-0.56,6.479-2.88,6.479-8.4h-6.56v-13.12H1035.33z"/>
</g>
<g>
	<path d="M57.943,527.541h-8.159v-8.16h26.398v8.16h-8.448v48.86h7.488v8.16H49.784v-8.16h8.159V527.541z M89.045,527.541h-7.488
		v-8.16h25.534v8.16h-6.911l-19.967,22.558l20.543,26.302h7.007v8.16H81.27v-8.16h7.007l-20.063-26.302L89.045,527.541z"/>
	<path d="M130.136,527.541h-8.64v-8.16h26.687v8.16h-8.256v48.86h20.351v-22.174h9.023v30.334h-47.805v-8.16h8.64V527.541z"/>
	<path d="M191.076,527.541h-7.104v-8.16h23.998v8.16h-7.104v48.86h7.104v8.16h-23.998v-8.16h7.104V527.541z"/>
	<path d="M231.673,527.541h-9.311v-8.16h22.27l28.222,50.685h0.192v-42.525h-9.12v-8.16h26.782v8.16h-9.599v57.692h-10.271
		l-30.91-55.676h-0.192V576.4h9.407v8.16h-26.782v-8.16h9.311V527.541z"/>
	<path d="M370.6,553.074c0.576,23.807-16.127,32.638-33.118,32.638c-27.742,0-34.654-21.214-34.654-33.981
		c0-15.167,9.12-33.405,32.926-33.405c9.312,0,16.031,2.496,22.847,8.255v-7.2h8.351v21.406h-8.351
		c-3.744-8.255-12.479-13.823-21.982-13.823c-13.631,0-23.039,10.175-23.039,24.862c0,14.592,10.079,25.15,23.999,25.15
		c10.847,0,19.486-6.527,21.022-15.742h-11.808v-8.16H370.6z"/>
	<path d="M394.123,527.541h-8.448v-8.16h54.044v19.583h-8.063v-11.423h-27.742v19.391h24.19v8.158h-24.19V576.4h27.742v-11.902
		h8.063v20.063h-54.044v-8.16h8.448V527.541z"/>
	<path d="M464.52,527.541h-8.64v-8.16h26.687v8.16h-8.256v48.86h20.351v-22.174h9.023v30.334H455.88v-8.16h8.64V527.541z"/>
	<path d="M525.46,527.541h-7.104v-8.16h23.998v8.16h-7.104v48.86h7.104v8.16h-23.998v-8.16h7.104V527.541z"/>
	<path d="M566.058,527.541h-9.312v-8.16h22.271l28.222,50.685h0.192v-42.525h-9.12v-8.16h26.782v8.16h-9.599v57.692h-10.271
		l-30.91-55.676h-0.191V576.4h9.407v8.16h-26.782v-8.16h9.312V527.541z"/>
	<path d="M704.983,553.074c0.576,23.807-16.127,32.638-33.118,32.638c-27.741,0-34.652-21.214-34.652-33.981
		c0-15.167,9.119-33.405,32.925-33.405c9.312,0,16.031,2.496,22.847,8.255v-7.2h8.352v21.406h-8.352
		c-3.744-8.255-12.479-13.823-21.982-13.823c-13.631,0-23.038,10.175-23.038,24.862c0,14.592,10.079,25.15,23.998,25.15
		c10.847,0,19.486-6.527,21.022-15.742h-11.807v-8.16H704.983z"/>
	<path d="M728.507,527.541h-8.448v-8.16h54.045v19.583h-8.063v-11.423h-27.742v19.391h24.19v8.158h-24.19V576.4h27.742v-11.902
		h8.063v20.063h-54.045v-8.16h8.448V527.541z"/>
	<path d="M798.903,527.541h-8.64v-8.16h26.687v8.16h-8.255v48.86h20.35v-22.174h9.023v30.334h-47.805v-8.16h8.64V527.541z"/>
	<path d="M859.844,527.541h-7.104v-8.16h23.998v8.16h-7.104v48.86h7.104v8.16H852.74v-8.16h7.104V527.541z"/>
	<path d="M900.441,527.541h-9.312v-8.16H913.4l28.222,50.685h0.192v-42.525h-9.119v-8.16h26.781v8.16h-9.6v57.692h-10.271
		l-30.91-55.676h-0.191V576.4h9.407v8.16H891.13v-8.16h9.312V527.541z"/>
	<path d="M1039.367,553.074c0.576,23.807-16.127,32.638-33.117,32.638c-27.742,0-34.654-21.214-34.654-33.981
		c0-15.167,9.12-33.405,32.926-33.405c9.312,0,16.031,2.496,22.847,8.255v-7.2h8.352v21.406h-8.352
		c-3.743-8.255-12.479-13.823-21.982-13.823c-13.631,0-23.038,10.175-23.038,24.862c0,14.592,10.079,25.15,23.998,25.15
		c10.848,0,19.486-6.527,21.022-15.742h-11.808v-8.16H1039.367z"/>
</g>
</svg>
