<?xml version="1.0" encoding="utf-8"?>
<!-- Generator: Adobe Illustrator 15.1.0, SVG Export Plug-In . SVG Version: 6.00 Build 0)  -->
<!DOCTYPE svg PUBLIC "-//W3C//DTD SVG 1.1//EN" "http://www.w3.org/Graphics/SVG/1.1/DTD/svg11.dtd">
<svg version="1.1" id="vs_text" xmlns="http://www.w3.org/2000/svg" xmlns:xlink="http://www.w3.org/1999/xlink" x="0px" y="0px"
	 width="1080px" height="1080px" viewBox="0 0 1080 1080" enable-background="new 0 0 1080 1080" xml:space="preserve">
<g>
	<path d="M114.409,78.112c0,24.841-21.276,38.341-37.153,38.341H32.219V40.852H78.12C96.696,40.852,114.409,55,114.409,78.112z
		 M88.92,78.005c0-12.204-7.668-17.173-19.333-17.173H57.492v35.641h12.96C81.036,96.473,88.92,89.345,88.92,78.005z"/>
	<path d="M176.907,108.785H149.69l-2.052,7.668h-26.245l22.033-75.602h39.745l22.032,75.602h-26.245L176.907,108.785z
		 M171.507,88.589l-7.344-27.757h-1.728l-7.344,27.757H171.507z"/>
	<path d="M216.454,96.473h39.421c3.348,0,4.968-1.512,4.968-3.996c0-2.376-1.62-3.888-5.076-3.888h-17.928
		c-12.636,0-22.896-8.641-22.896-23.868c0-17.497,11.988-23.869,24.084-23.869h44.712v19.98h-38.557c-2.916,0-4.968,1.08-4.968,3.78
		c0,2.808,2.052,3.996,4.968,3.996h16.849c14.472,0,24.084,8.532,24.084,23.761c0,14.364-10.8,24.084-24.84,24.084H216.13
		L216.454,96.473z"/>
	<path d="M334.173,40.852h27.108l9.072,41.689h0.864l15.66-21.709h1.08l15.66,21.709h0.864l9.072-41.689h27.108l-17.712,75.602
		h-23.112l-12.312-19.98h-0.432l-12.096,19.98h-23.112L334.173,40.852z"/>
	<path d="M453.643,40.852h25.272v75.602h-25.272V40.852z"/>
	<path d="M535.28,88.48H523.4v27.973h-25.272V40.852h53.461c15.336,0,24.624,8.856,24.624,23.977
		c0,10.044-6.695,18.145-15.66,21.709l18.145,29.916h-27.433L535.28,88.48z M523.4,68.717h23.437c2.376,0,4.104-1.62,4.104-4.104
		c0-2.7-1.728-3.888-4.104-3.888H523.4V68.717z"/>
	<path d="M675.713,78.112c0,24.841-21.276,38.341-37.153,38.341h-45.036V40.852h45.9C658,40.852,675.713,55,675.713,78.112z
		 M650.225,78.005c0-12.204-7.669-17.173-19.333-17.173h-12.096v35.641h12.96C642.34,96.473,650.225,89.345,650.225,78.005z"/>
	<path d="M728.631,40.852h25.596l16.957,23.977h0.863l16.957-23.977H814.6v75.602h-25.272V76.925h-0.647l-16.633,21.924h-0.863
		l-16.633-21.924h-0.648v39.528h-25.271V40.852z"/>
	<path d="M859.547,60.725v7.884h41.473v19.98h-41.473v7.992h41.473v19.872h-66.745V40.852h66.745v19.873H859.547z"/>
	<path d="M920.327,40.852H945.6v75.602h-25.272V40.852z"/>
	<path d="M964.813,40.852h25.272l30.024,39.313h0.756V40.852h25.272v75.602h-25.272l-29.916-38.017h-0.864v38.017h-25.272V40.852z"
		/>
	<path d="M69.18,260.135h60.579c0.521,25.479,10.4,38.22,28.6,38.22c17.939,0,27.299-13,27.299-37.18v-96.718h60.839v98.538
		c0,61.358-39.259,86.058-88.398,86.058C102.72,349.053,69.18,317.334,69.18,260.135z"/>
	<path d="M404.731,327.993h-65.519l-4.94,18.46h-63.178l53.039-181.996h95.678l53.039,181.996h-63.179L404.731,327.993z
		 M391.731,279.375l-17.68-66.819h-4.16l-17.68,66.819H391.731z"/>
	<path d="M696.472,164.457v181.996h-60.839v-67.078h-73.058v67.078h-60.839V164.457h60.839v66.818h73.058v-66.818H696.472z"/>
	<path d="M832.113,279.114h-28.6v67.339h-60.838V164.457h128.697c36.919,0,59.278,21.319,59.278,57.719
		c0,24.18-16.12,43.679-37.699,52.259l43.679,72.019h-66.038L832.113,279.114z M803.514,231.535h56.419
		c5.72,0,9.88-3.899,9.88-9.879c0-6.5-4.16-9.36-9.88-9.36h-56.419V231.535z"/>
	<path d="M975.217,298.354h60.838v48.099h-60.838V298.354z"/>
</g>
</svg>
