<?xml version="1.0" encoding="utf-8"?>
<!-- Generator: Adobe Illustrator 15.1.0, SVG Export Plug-In . SVG Version: 6.00 Build 0)  -->
<!DOCTYPE svg PUBLIC "-//W3C//DTD SVG 1.1//EN" "http://www.w3.org/Graphics/SVG/1.1/DTD/svg11.dtd">
<svg version="1.1" id="vs_text" xmlns="http://www.w3.org/2000/svg" xmlns:xlink="http://www.w3.org/1999/xlink" x="0px" y="0px"
	 width="1080px" height="1080px" viewBox="0 0 1080 1080" enable-background="new 0 0 1080 1080" xml:space="preserve">
<g>
	<path d="M90.488,225.227h11.36l8.16-97.922h-12.8l0.64-7.04h19.2l54.881,91.522c1.44,2.4,2.88,5.28,3.68,6.72h0.32l8-91.202h-14.24
		l0.64-7.04h33.281l-0.641,7.04h-11.36l-9.121,104.962h-7.68l-54.881-91.683c-1.28-2.239-2.24-4.319-2.72-5.6h-0.32l-7.36,90.242
		h14.24l-0.64,7.04h-33.28L90.488,225.227z"/>
	<path d="M285.928,232.267h-22.4l3.2-27.36c0.8-6.4,2.08-12.641,3.04-19.041h-0.319c-0.48,2.4-1.601,6.561-2.721,10.08
		c-3.2,10.4-16,37.922-35.681,37.922c-11.52,0-13.76-9.761-13.76-19.361c0-10.88,4-41.761,6.081-57.441h-13.281l0.64-7.04h21.601
		c-2.24,15.2-7.36,49.121-7.36,64.002c0,5.92,1.28,12.16,8,12.16c8.801,0,31.041-14.24,38.881-76.162h7.681
		c-1.44,10.721-2.88,23.041-4,35.521l-3.521,39.681h14.561L285.928,232.267z"/>
	<path d="M297.077,150.024h20.96l-2.24,22.081c-0.64,5.92-1.6,12-2.72,17.92h0.32c0.8-2.72,1.12-5.6,1.92-8.32
		c3.68-12.32,9.12-33.28,29.761-33.28c2.08,0,4.48,0.319,6.08,0.8l-1.28,7.521c-1.44-0.32-3.04-0.641-5.44-0.641
		c-26.88,0-31.681,58.562-33.441,76.162h-7.68c0.64-6.561,2.4-21.601,4-43.041l2.56-32.161h-13.44L297.077,150.024z"/>
	<path d="M406.195,225.227h11.36l9.92-97.922h-14.4l0.64-7.04h24.48l26.081,89.921c1.44,4.801,2.72,9.601,3.52,14.4h0.32
		c1.439-4.8,3.36-9.76,5.439-14.4l41.121-89.921h22.4l-0.64,7.04h-11.36l-6.72,97.922h13.28l-0.64,7.04h-32.32l0.64-7.04h11.36
		l6.4-93.762h-0.32c-1.28,3.68-4.48,11.041-7.68,17.76l-38.562,83.042h-7.68l-24.801-83.042c-1.92-6.24-3.04-11.2-3.68-14.4h-0.32
		l-8.8,90.402h13.28l-0.64,7.04h-32.32L406.195,225.227z"/>
	<path d="M619.925,232.267h-22.4l3.2-27.36c0.8-6.4,2.08-12.641,3.039-19.041h-0.319c-0.479,2.4-1.601,6.561-2.72,10.08
		c-3.2,10.4-16.001,37.922-35.682,37.922c-11.52,0-13.76-9.761-13.76-19.361c0-10.88,4-41.761,6.08-57.441h-13.28l0.64-7.04h21.601
		c-2.24,15.2-7.36,49.121-7.36,64.002c0,5.92,1.28,12.16,8,12.16c8.801,0,31.041-14.24,38.881-76.162h7.681
		c-1.44,10.721-2.88,23.041-4,35.521l-3.521,39.681h14.561L619.925,232.267z"/>
	<path d="M630.481,150.024h14.08l1.92-21.76h7.681l-1.92,21.76h24.641l-0.641,7.04h-24.641l-3.359,38.401
		c-0.32,4-1.28,14.72-1.28,18.24c0,7.681,2.239,13.12,10.24,13.12c6.56,0,12.479-2.399,16.8-5.12l-0.479,7.521
		c-4,2.08-10.24,4.641-17.921,4.641c-14.24,0-16.32-9.44-16.32-18.401c0-5.439,0.801-13.92,1.12-18.4l3.521-40.001h-14.08
		L630.481,150.024z"/>
	<path d="M697.328,218.347c4.16,0,6.72,3.52,6.72,7.52c0,4.48-3.521,7.36-6.88,7.36c-4.32,0-6.881-2.88-6.881-6.561
		C690.287,222.187,692.848,218.347,697.328,218.347z"/>
</g>
<g>
	<path d="M174.003,424.989h10.88l8.64-97.923h-13.28l0.641-7.04h69.441l-1.92,22.721h-7.041l0.64-15.681h-40.161l-3.84,43.361
		h41.121l-0.48,7.04h-41.281l-4.16,47.521h44.961l2.24-15.681h7.041l-2.08,22.721h-72.002L174.003,424.989z"/>
	<path d="M263.251,408.988h7.681v14.081c1.76,1.28,9.12,3.52,16.16,3.52c14.08,0,21.92-6.08,21.92-16
		c0-7.36-3.68-10.88-16.161-15.841c-18.56-7.359-26.24-10.4-26.24-23.521c0-14.56,11.521-23.04,29.921-23.04
		c6.88,0,14.88,1.76,20.8,3.68v19.041h-7.68v-13.921c-3.68-1.28-7.68-2.399-13.92-2.399c-10.24,0-20.8,4.16-20.8,16
		c0,7.36,5.6,10.561,16.48,14.721c14.56,5.6,25.92,9.92,25.92,24c0,12.961-9.28,24.32-30.081,24.32
		c-11.841,0-20.641-3.199-24.001-4.8V408.988z"/>
	<path d="M384.849,349.787h21.921c-0.48,2.24-3.36,32.321-3.36,46.881c0,13.601,0,29.281,12.32,29.281
		c10.561,0,20.32-16.801,23.201-30.561c2.4-11.2,4.48-35.361,5.44-45.602h7.681c-1.12,14.721-2.721,29.601-2.721,44.642
		c0,17.44,1.76,31.521,12.961,31.521c24.48,0,28.32-58.081,28.32-69.121h-13.44l0.48-7.041h21.28
		c-1.12,22.881-4.32,83.842-38.081,83.842c-13.28,0-17.92-12.16-17.92-26.4v-6.4h-0.32c-4,18.241-14.4,32.801-28.801,32.801
		c-18.721,0-18.721-22.4-18.721-35.521c0-8.64,1.44-27.521,2.561-41.28h-13.44L384.849,349.787z"/>
	<path d="M528.111,356.828h-13.601l0.64-7.041h21.281l-6.721,75.202h13.601l-0.64,7.04h-21.281L528.111,356.828z M534.831,307.706
		c4,0,6.561,3.04,6.561,7.2c0,4.641-3.04,7.841-7.681,7.841c-4,0-6.4-3.2-6.4-6.721
		C527.311,310.587,530.991,307.706,534.831,307.706z"/>
	<path d="M554.015,349.787h20.961l-2.24,22.081c-0.64,5.92-1.601,12-2.72,17.92h0.319c0.8-2.72,1.12-5.6,1.921-8.32
		c3.68-12.32,9.119-33.28,29.76-33.28c2.08,0,4.48,0.32,6.08,0.8l-1.279,7.521c-1.44-0.32-3.041-0.641-5.44-0.641
		c-26.881,0-31.681,58.562-33.44,76.162h-7.681c0.64-6.561,2.4-21.601,4-43.041l2.561-32.16h-13.44L554.015,349.787z"/>
	<path d="M660.559,399.229c0.48-4.48,1.6-8.96,2.4-13.44h-0.32c-0.8,3.04-1.279,6.08-2.24,8.96
		c-5.439,15.521-14.4,38.881-32.961,38.881c-10.72,0-17.76-11.359-17.76-28.96c0-15.841,4-31.841,12.96-43.041
		c7.521-9.28,16.961-13.44,29.44-13.44c4.801,0,9.601,1.12,12.001,2.08l3.2-34.241h-15.521l0.64-7.04H675.6l-10.24,116.003h13.12
		l-0.641,7.04h-20.8L660.559,399.229z M663.599,357.947c-2.56-1.279-6.24-2.72-13.12-2.72c-26.24,0-32.48,29.921-32.48,46.721
		c0,16.48,3.68,24.001,11.04,24.001c17.601,0,31.041-41.281,33.28-57.762L663.599,357.947z"/>
	<path d="M745.035,458.109c3.36,2.24,11.36,7.041,22.24,7.041c26.241,0,28.001-20.641,29.921-43.201l1.28-13.28
		c0.641-7.681,2.08-15.36,4-23.681h-0.32c-0.959,2.72-1.6,5.44-2.72,8c-5.44,13.44-15.36,40.001-34.4,40.001
		c-15.2,0-18.561-17.28-18.561-29.28c0-16.16,6.88-55.521,43.201-55.521c7.04,0,12.96,1.6,16.64,3.04h5.44
		c-0.479,2.72-1.44,8.32-2.24,17.601c-0.96,11.04-4.479,61.121-5.92,69.762c-2.08,12.479-6.08,33.601-36.161,33.601
		c-9.6,0-17.92-3.2-23.04-5.601L745.035,458.109z M802.797,357.468c-3.521-1.601-8.16-2.88-12.801-2.88
		c-26.08,0-35.2,25.92-35.2,49.281c0,14.72,4.64,22.08,11.36,22.08c14.72,0,31.36-34.241,35.041-57.762L802.797,357.468z"/>
	<path d="M903.932,432.029h-22.4l3.199-27.36c0.801-6.4,2.08-12.641,3.04-19.041h-0.319c-0.48,2.4-1.601,6.561-2.721,10.081
		c-3.199,10.399-16,37.92-35.681,37.92c-11.521,0-13.761-9.76-13.761-19.36c0-10.88,4.001-41.761,6.081-57.44h-13.28l0.64-7.041
		h21.601c-2.24,15.201-7.36,49.121-7.36,64.002c0,5.92,1.28,12.16,8,12.16c8.801,0,31.041-14.24,38.881-76.162h7.681
		c-1.44,10.721-2.881,23.041-4,35.521l-3.521,39.681h14.561L903.932,432.029z"/>
	<path d="M914.488,349.787h14.08l1.92-21.76h7.68l-1.92,21.76h24.641l-0.64,7.041h-24.641l-3.36,38.4
		c-0.32,4-1.279,14.721-1.279,18.24c0,7.681,2.239,13.12,10.24,13.12c6.56,0,12.479-2.399,16.8-5.12l-0.479,7.521
		c-4,2.08-10.24,4.64-17.921,4.64c-14.24,0-16.32-9.439-16.32-18.4c0-5.439,0.8-13.92,1.12-18.4l3.52-40h-14.08L914.488,349.787z"/>
	<path d="M981.334,418.109c4.16,0,6.721,3.52,6.721,7.52c0,4.48-3.521,7.36-6.881,7.36c-4.319,0-6.88-2.88-6.88-6.56
		C974.294,421.949,976.854,418.109,981.334,418.109z"/>
</g>
</svg>
