<?xml version="1.0" encoding="utf-8"?>
<!-- Generator: Adobe Illustrator 15.1.0, SVG Export Plug-In . SVG Version: 6.00 Build 0)  -->
<!DOCTYPE svg PUBLIC "-//W3C//DTD SVG 1.1//EN" "http://www.w3.org/Graphics/SVG/1.1/DTD/svg11.dtd">
<svg version="1.1" id="vs_text" xmlns="http://www.w3.org/2000/svg" xmlns:xlink="http://www.w3.org/1999/xlink" x="0px" y="0px"
	 width="1080px" height="1080px" viewBox="0 0 1080 1080" enable-background="new 0 0 1080 1080" xml:space="preserve">
<g>
	<path d="M44.903,92.167c0-2.952-0.492-34.933-0.492-36.245c0-1.804-0.82-3.936-4.92-3.936h-5.74c-0.984,0-1.312-0.328-1.312-1.148
		v-4.264c0-0.656,0.328-0.984,1.312-0.984c1.968,0,6.888,0.492,19.188,0.492c10.988,0,16.4-0.492,18.532-0.492
		c0.984,0,1.313,0.328,1.313,0.984v4.264c0,0.82-0.328,1.148-1.148,1.148h-6.888c-3.28,0-4.592,1.148-4.592,5.084
		c0,2.46-0.492,28.044-0.492,36.08v8.2h2.952c2.624,0,4.428-0.656,6.724-2.296c3.608-2.624,33.948-41.328,35.424-43.46
		c1.476-2.296,0.656-3.936-1.476-3.936h-2.296c-0.656,0-0.82-0.328-0.82-1.148v-3.772c0-0.82,0.328-1.148,0.984-1.148
		c1.968,0,8.692,0.492,16.236,0.492c4.756,0,10.496-0.492,12.464-0.492c0.82,0,1.148,0.328,1.148,0.82v4.428
		c0,0.82-0.492,1.148-1.312,1.148h-3.444c-2.296,0-6.068,0.984-9.02,3.116c-6.068,4.428-31.16,33.456-38.212,42.64l43.952,54.449
		c2.788,3.444,7.544,4.1,11.48,4.1h5.74c0.82,0,1.148,0.492,1.148,1.148v4.1c0,0.82-0.328,1.148-1.312,1.148
		c-1.64,0-7.872-0.492-20.172-0.492c-13.612,0-20.008,0.492-22.305,0.492c-0.656,0-0.983-0.328-0.983-0.984v-4.264
		c0-0.656,0.328-0.984,0.983-0.984h2.46c3.116,0,3.444-2.788,2.624-4.428c-1.476-3.28-30.504-41.656-32.636-43.296
		c-2.624-2.132-4.756-2.46-7.216-2.46h-3.116v11.809c0,8.2,0.328,32.308,0.492,34.604c0.164,2.132,1.64,3.608,3.772,3.608h7.216
		c0.82,0,1.312,0.328,1.312,0.984v4.264c0,0.656-0.164,1.148-0.984,1.148c-1.968,0-6.888-0.492-18.532-0.492
		c-12.956,0-18.204,0.492-19.68,0.492c-0.82,0-1.148-0.328-1.148-1.148v-4.264c0-0.82,0.492-0.984,1.148-0.984h6.724
		c2.952,0,4.101-1.312,4.428-2.952c0.164-1.476,0.492-31.161,0.492-51.661V92.167z"/>
	<path d="M174.97,113.323c0,8.528,0,33.292,0.164,38.376c0.164,2.788,0.82,5.084,4.264,5.084h7.38c1.476,0,1.804,0.492,1.804,1.476
		v2.788c0,0.984-0.328,1.64-0.984,1.64c-1.148,0-8.364-0.492-18.532-0.492c-10.496,0-17.056,0.492-18.532,0.492
		c-0.82,0-1.148-0.656-1.148-1.64v-2.788c0-1.148,0.328-1.476,2.132-1.476h7.872c1.804,0,3.444-1.148,3.608-4.1
		c0.164-5.084,0.164-33.292,0.164-42.804V99.547c0-11.645-0.164-26.568-0.492-30.833c-0.328-5.576-2.952-8.2-8.2-9.84l-3.28-1.148
		c-0.82-0.328-0.984-0.492-0.984-0.82v-1.312c0-0.492,0.492-0.82,1.477-1.148c5.74-2.624,13.12-5.576,19.188-9.512
		c1.476-0.984,2.46-1.313,3.444-1.313c1.148,0,1.476,0.82,1.312,2.952c-0.164,9.02-0.656,43.132-0.656,52.152V113.323z"/>
	<path d="M209.999,114.471c0-5.576-0.983-8.528-9.184-9.84c-1.148-0.164-1.476-0.492-1.476-1.148v-1.476
		c0-0.492,0.328-0.82,1.148-1.148c5.248-1.968,11.48-4.592,17.712-8.036c1.313-0.656,2.132-0.984,3.116-0.984
		c0.82,0,0.984,0.82,0.82,1.968c-0.328,2.788-0.328,13.12-0.328,26.732v17.876c0,6.396,0,12.3,0.164,14.104
		c0.328,3.116,0.82,4.264,2.624,4.264h7.544c1.312,0,1.64,0.492,1.64,1.476v2.788c0,1.148-0.328,1.64-1.476,1.64
		c-1.313,0-8.856-0.492-15.744-0.492c-9.512,0-15.908,0.492-17.712,0.492c-0.82,0-1.312-0.328-1.312-1.313v-3.28
		c0-0.984,0.492-1.312,1.64-1.312h8.036c1.804,0,2.46-0.656,2.624-3.28c0.164-4.92,0.164-10.004,0.164-14.924V114.471z
		 M202.291,64.123c0-4.264,3.608-9.184,10.332-9.184c6.068,0,8.856,4.92,8.856,8.692c0,4.428-2.952,9.676-9.84,9.676
		C207.867,73.307,202.291,69.534,202.291,64.123z"/>
	<path d="M311.876,153.339c0,2.624,1.476,3.444,3.608,3.444h5.248c1.476,0,1.804,0.492,1.804,1.476v2.624
		c0,1.148-0.328,1.804-1.312,1.804c-1.148,0-6.232-0.492-15.58-0.492c-8.364,0-13.612,0.492-14.76,0.492
		c-0.984,0-1.312-0.492-1.312-1.804v-2.624c0-1.148,0.492-1.476,2.132-1.476h4.756c1.804,0,3.116-0.82,3.28-3.772
		c0.164-4.264,0.328-9.512,0.328-13.776v-21.648c0-6.56,0-11.316-4.756-14.76c-3.937-2.952-7.872-2.952-11.973-2.952
		c-2.624,0-8.364,1.147-13.284,6.396c-3.28,3.608-3.771,8.036-3.771,11.152v33.948c0,4.428,0.492,5.412,3.936,5.412h4.101
		c1.312,0,1.64,0.492,1.64,1.64v2.788c0,0.984-0.328,1.476-1.148,1.476c-1.148,0-5.576-0.492-14.268-0.492
		c-8.364,0-13.612,0.492-14.596,0.492c-0.82,0-1.148-0.492-1.148-1.476v-2.952c0-0.984,0.328-1.476,1.64-1.476h4.756
		c2.132,0,3.28-0.492,3.28-3.28v-38.376c0-4.92-2.624-7.708-6.724-9.676l-1.313-0.656c-1.147-0.492-1.312-0.984-1.312-1.476v-0.82
		c0-0.82,0.656-1.313,1.476-1.64l14.104-7.872c1.312-0.656,2.296-1.148,2.952-1.148c0.82,0,1.147,0.656,1.312,1.968l1.148,10.004
		h0.328c4.756-5.904,14.268-11.972,22.468-11.972c4.92,0,10.004,0.984,13.94,3.608c4.92,3.28,9.02,11.48,9.02,15.58V153.339z"/>
	<path d="M336.754,201.556c-5.904-3.608-8.364-7.872-8.364-13.284c0-9.184,9.348-16.236,17.22-19.68v-0.656
		c-6.888-1.476-10.988-6.561-10.988-11.48c0-7.872,9.021-13.448,14.76-15.58v-0.328c-6.396-2.788-15.252-10.332-15.252-24.928
		c0-10.66,9.513-23.78,28.044-23.78c12.464,0,19.024,7.544,20.665,9.512c4.428-3.116,10.004-6.396,15.416-6.396
		s8.036,3.608,7.708,6.888c0,3.116-2.624,6.068-6.396,6.068c-2.788,0-4.428-1.313-5.74-2.46c-0.984-0.656-2.132-1.476-3.444-1.476
		c-1.148,0-3.116,0-5.248,0.984c1.312,3.28,2.46,6.888,2.46,12.464c0,6.396-1.804,12.628-6.068,17.712
		c-4.264,4.756-13.612,8.2-19.024,8.2c-3.608,0-5.904-0.164-8.364-0.82c-3.28,1.312-8.692,4.592-8.692,9.184
		c0,6.724,8.2,6.232,19.188,5.576c13.448-0.656,21.648,0.82,28.208,5.904c7.052,5.248,7.872,11.808,8.036,15.744
		c0,7.708-2.788,14.104-10.988,20.172c-4.264,3.116-14.104,7.708-28.044,7.708C353.975,206.804,344.626,205.983,336.754,201.556z
		 M390.875,184.664c0-9.676-7.38-17.056-23.78-15.908l-15.744,1.148c-5.084,1.312-13.12,6.888-13.12,15.744
		c0,4.1,3.116,9.02,6.396,11.316c5.412,3.771,11.316,4.592,22.96,4.592C373.654,201.556,391.695,197.292,390.875,184.664z
		 M375.623,114.799c0-7.216-1.476-11.48-4.428-14.76c-2.132-2.132-5.412-3.608-7.872-3.608c-3.772,0-7.708,0.656-11.644,4.592
		c-5.248,5.576-5.904,13.12-5.904,19.353c0,5.576,1.804,10.66,5.248,14.268c2.952,2.788,5.904,4.1,9.84,4.1
		C372.015,138.743,375.623,125.131,375.623,114.799z"/>
	<path d="M438.465,159.079c0,17.22-15.908,28.864-19.188,30.833c-0.983,0.492-2.132,1.476-3.28,1.476
		c-1.312,0-1.968-0.492-1.968-1.476s0.164-1.312,1.477-2.46c3.936-3.608,11.644-11.644,11.644-20.665
		c0-2.132-1.476-4.428-2.788-4.92c-1.64-0.656-9.348-2.624-9.348-10.824c0-4.1,3.28-7.708,9.184-7.708
		C429.937,143.335,438.465,148.747,438.465,159.079z"/>
</g>
<g>
	<path d="M388.485,328.286c0-5.904-1.804-7.544-6.724-7.544h-6.888c-0.82,0-1.148-0.328-1.148-0.984v-4.1
		c0-0.984,0.164-1.312,0.984-1.312c2.296,0,9.676,0.492,20.828,0.492c11.808,0,17.056-0.492,19.352-0.492
		c1.148,0,1.313,0.492,1.313,1.148v3.936c0,0.656-0.164,1.312-1.148,1.312h-6.396c-2.952,0-5.084,1.148-5.084,6.232v21.648
		c0,2.296,0.656,3.936,0.656,5.248c0,1.312-0.984,1.968-2.624,2.624c-13.284,6.724-26.404,10.496-44.772,10.496
		c-14.596,0-34.604-5.412-45.92-18.696c-10.004-11.316-15.088-25.256-15.088-45.101c0-14.924,6.396-30.832,18.532-41.656
		c11.644-10.004,26.404-15.58,46.084-15.58c14.104,0,26.732,5.248,32.308,9.512c1.804,1.477,2.788,1.148,3.772-0.164l2.46-2.952
		c0.656-0.656,1.313-1.476,2.296-1.476c1.148,0,1.476,0.82,1.476,1.968l0.492,31.325c0,0.82-0.164,1.476-0.82,1.476l-2.952,0.328
		c-0.656,0-1.148-0.492-1.312-1.313c-1.312-4.592-4.1-12.3-9.84-19.352c-4.92-6.068-15.088-13.448-29.848-13.448
		c-11.316,0-21.484,2.788-31.325,13.284c-8.856,9.348-14.432,22.96-14.432,37.72c0,19.353,5.412,36.245,15.58,45.921
		c8.2,7.872,18.204,11.644,28.864,11.644c13.12,0,21.156-2.296,26.896-5.576c3.772-2.296,4.428-5.904,4.428-14.432V328.286z"/>
	<path d="M447.721,315.658c0,8.528,0,33.292,0.164,38.376c0.164,2.788,0.82,5.084,4.264,5.084h7.38c1.476,0,1.804,0.492,1.804,1.476
		v2.788c0,0.984-0.328,1.64-0.984,1.64c-1.148,0-8.364-0.492-18.532-0.492c-10.496,0-17.056,0.492-18.532,0.492
		c-0.82,0-1.147-0.656-1.147-1.64v-2.788c0-1.147,0.328-1.476,2.132-1.476h7.872c1.804,0,3.444-1.148,3.608-4.1
		c0.164-5.084,0.164-33.292,0.164-42.804v-10.333c0-11.644-0.164-26.568-0.492-30.832c-0.328-5.576-2.952-8.2-8.2-9.84l-3.28-1.148
		c-0.82-0.328-0.984-0.492-0.984-0.82v-1.312c0-0.492,0.492-0.82,1.476-1.148c5.74-2.624,13.12-5.576,19.188-9.512
		c1.476-0.984,2.46-1.312,3.444-1.312c1.148,0,1.476,0.82,1.313,2.952c-0.164,9.02-0.656,43.132-0.656,52.152V315.658z"/>
	<path d="M475.501,355.182c-7.544-9.02-9.02-15.088-9.02-26.732c0-8.364,4.428-18.86,14.104-26.404
		c8.528-6.56,16.564-7.872,21.976-7.872c9.021,0,18.041,4.592,22.96,9.512c7.38,7.544,11.152,16.072,11.152,26.732
		c0,17.876-16.072,36.08-36.244,36.08C492.558,366.498,482.39,363.382,475.501,355.182z M495.51,268.097
		c0,4.264-3.444,7.216-7.38,7.216c-2.952,0-8.364-1.64-8.364-7.872c0-2.132,1.804-7.38,8.364-7.38
		C491.902,260.061,495.51,263.013,495.51,268.097z M522.898,328.778c0-18.205-13.284-29.684-21.648-29.684
		c-4.428,0-8.692,0.983-12.628,5.248c-6.396,6.56-8.692,13.284-8.692,25.748c0,9.184,0.984,15.416,6.232,22.96
		c3.772,5.412,8.528,8.528,16.236,8.528C514.862,361.578,522.898,346.326,522.898,328.778z M523.226,268.097
		c0,4.264-3.444,7.216-7.216,7.216c-2.952,0-8.528-1.64-8.528-7.872c0-2.132,1.804-7.38,8.528-7.38
		C519.618,260.061,523.226,263.013,523.226,268.097z"/>
	<path d="M560.813,324.842c0,8.856,3.936,18.86,8.363,24.928c5.412,7.052,12.301,8.364,17.877,8.364
		c8.199,0,12.464-1.804,18.04-7.052c0.327-0.328,0.819-0.492,1.312,0l1.641,1.64c0.655,0.656,0.819,1.148,0,2.132
		c-4.756,5.412-15.252,11.644-26.404,11.644c-8.692,0-17.877-1.968-25.421-11.48c-6.067-8.036-7.38-14.924-7.38-22.304
		c0-19.188,13.448-38.541,35.097-38.541c17.056,0,22.304,9.84,22.304,13.284c-0.164,3.772-2.624,5.74-6.068,5.74
		c-3.771,0-6.56-2.132-9.02-6.56c-3.607-6.724-7.052-7.216-10.988-7.216C570.816,299.421,560.813,307.949,560.813,324.842z"/>
	<path d="M628.002,270.393c0-6.724-0.492-9.512-8.527-11.644c-1.805-0.492-2.297-0.656-2.297-1.148v-1.476
		c0-0.656,0.492-0.984,2.133-1.64l16.728-7.216c1.476-0.656,2.624-1.312,3.608-1.312s1.147,0.82,0.984,2.788
		c-0.82,7.872-0.82,31.98-0.82,51.66v25.912c2.132,0,6.231-0.492,7.872-1.804c3.116-2.132,16.071-16.4,17.384-18.368
		c0.984-1.804,0.984-3.116,0-3.772c-1.313-0.984-3.28-0.984-4.264-0.984c-1.148,0-1.313-0.492-1.313-1.476v-3.116
		c0-0.82,0.328-1.312,1.148-1.312c0.984,0,6.888,0.492,15.252,0.492c8.036,0,12.136-0.492,13.284-0.492
		c0.655,0,0.983,0.492,0.983,1.64v2.952c0,0.984-0.164,1.313-1.312,1.313h-1.147c-3.28,0-8.037,1.64-11.316,3.772
		c-2.297,1.312-16.072,14.104-21.648,19.516c3.28,3.28,30.832,30.832,33.62,32.145c2.952,1.476,6.724,2.296,8.528,2.296
		c0.984,0,1.313,0.328,1.313,1.476v2.952c0,0.984-0.328,1.476-1.477,1.476c-1.313,0-5.904-0.492-13.612-0.492
		c-9.676,0-16.563,0.492-17.876,0.492c-0.82,0-1.148-0.492-1.148-1.64v-2.624c0-0.82,0.328-1.312,1.641-1.312h1.148
		c1.312,0,2.295-1.148,1.804-2.624c-0.492-1.313-19.188-21.156-21.813-23.616c-1.804-1.477-4.92-1.804-7.052-1.804v7.216
		c0,5.74,0,11.316,0.164,17.056c0.164,2.296,0.983,3.444,3.279,3.444h4.756c1.148,0,1.477,0.328,1.477,1.312v2.788
		c0,1.313-0.328,1.804-1.313,1.804c-0.983,0-6.396-0.492-14.596-0.492c-8.855,0-14.596,0.492-15.744,0.492
		c-0.492,0-0.82-0.656-0.82-1.64v-2.788c0-1.147,0.492-1.476,1.641-1.476h6.068c2.131,0,2.951-1.804,2.951-3.937
		c0.164-7.216,0.328-16.072,0.328-30.504V270.393z"/>
	<path d="M712.984,324.842c0,8.856,3.937,18.86,8.364,24.928c5.412,7.052,12.3,8.364,17.876,8.364c8.2,0,12.465-1.804,18.041-7.052
		c0.328-0.328,0.819-0.492,1.312,0l1.64,1.64c0.656,0.656,0.82,1.148,0,2.132c-4.756,5.412-15.252,11.644-26.404,11.644
		c-8.691,0-17.876-1.968-25.42-11.48c-6.068-8.036-7.38-14.924-7.38-22.304c0-19.188,13.448-38.541,35.097-38.541
		c17.056,0,22.304,9.84,22.304,13.284c-0.164,3.772-2.624,5.74-6.067,5.74c-3.772,0-6.561-2.132-9.021-6.56
		c-3.608-6.724-7.052-7.216-10.988-7.216C722.988,299.421,712.984,307.949,712.984,324.842z"/>
	<path d="M780.848,275.149c0-10.004-1.969-11.809-7.873-13.776l-2.787-0.984c-0.984-0.328-1.148-0.492-1.148-0.984v-1.476
		c0-0.656,0.492-0.82,1.969-1.64l17.056-9.02c1.312-0.656,2.46-1.312,3.772-1.312c0.983,0,1.64,1.312,1.312,4.1
		c-0.328,2.788-0.492,36.08-0.492,44.28v10.496h0.82c5.739-6.888,15.252-10.66,22.468-10.66c6.889,0,11.645,2.132,16.236,6.56
		c7.38,6.888,7.053,15.252,7.053,24.108v9.348c0,9.185,0.327,19.353,0.327,22.469c0,1.968,2.624,2.46,6.068,2.46h2.788
		c1.313,0,1.804,0.328,1.804,1.476v2.46c0,1.313-0.328,1.968-1.312,1.968c-1.148,0-6.396-0.492-15.744-0.492
		c-8.036,0-13.94,0.492-15.416,0.492c-1.148,0-1.477-0.492-1.477-1.804v-2.788c0-0.82,0.164-1.312,1.148-1.312h3.771
		c2.788,0,6.068-0.328,6.232-3.116c0.164-2.296,0-10.988,0-16.236v-13.284c0-9.184-0.656-15.744-5.412-20.172
		c-3.28-3.116-6.725-4.592-10.824-4.592c-4.756,0-10.66,1.64-15.252,6.888c-1.477,1.804-3.28,5.084-3.28,8.036v35.752
		c0,5.248,0.492,6.724,3.608,6.724h4.92c1.148,0,1.804,0.328,1.804,1.312v2.788c0,1.148-0.328,1.804-1.312,1.804
		c-1.313,0-8.036-0.492-15.58-0.492c-8.2,0-14.433,0.492-15.908,0.492c-0.656,0-1.148-0.492-1.148-1.64v-2.952
		c0-1.147,0.656-1.312,2.46-1.312h3.444c2.624,0,5.084-0.656,5.412-2.624c0.492-3.116,0.492-21.156,0.492-31.816V275.149z"/>
	<path d="M870.553,320.906c-0.328,1.476-0.492,4.1-0.492,7.872c0,16.072,10.168,28.208,23.289,28.208
		c10.004,0,17.056-5.74,19.844-11.152c0.328-0.656,0.984-0.984,1.477-0.82l2.132,1.148c0.491,0.164,0.819,0.656,0,2.46
		c-2.952,6.56-11.48,17.876-26.077,17.876c-9.348,0-19.68-2.788-25.748-11.644c-5.74-8.364-7.216-14.432-7.216-25.913
		c0-6.396,1.64-17.384,10.332-26.076c7.052-7.216,15.253-8.692,23.452-8.692c18.86,0,24.108,17.712,24.108,24.108
		c0,2.296-1.968,2.624-4.592,2.624H870.553z M896.629,315.985c3.116,0,4.429-0.82,4.429-2.296c0-3.772-1.968-14.596-12.628-14.596
		c-7.217,0-14.104,4.756-17.221,16.892H896.629z"/>
	<path d="M994.291,355.674c0,2.624,1.476,3.444,3.607,3.444h5.248c1.477,0,1.805,0.492,1.805,1.476v2.624
		c0,1.148-0.328,1.804-1.313,1.804c-1.148,0-6.232-0.492-15.58-0.492c-8.364,0-13.612,0.492-14.76,0.492
		c-0.984,0-1.313-0.492-1.313-1.804v-2.624c0-1.147,0.492-1.476,2.132-1.476h4.757c1.804,0,3.115-0.82,3.279-3.772
		c0.164-4.264,0.328-9.512,0.328-13.776v-21.648c0-6.561,0-11.316-4.756-14.76c-3.936-2.952-7.872-2.952-11.973-2.952
		c-2.623,0-8.363,1.148-13.283,6.396c-3.28,3.608-3.772,8.036-3.772,11.152v33.948c0,4.428,0.492,5.412,3.937,5.412h4.1
		c1.313,0,1.64,0.492,1.64,1.64v2.788c0,0.984-0.327,1.476-1.147,1.476c-1.148,0-5.576-0.492-14.269-0.492
		c-8.364,0-13.612,0.492-14.596,0.492c-0.82,0-1.148-0.492-1.148-1.476v-2.952c0-0.984,0.328-1.476,1.64-1.476h4.757
		c2.132,0,3.28-0.492,3.28-3.28v-38.376c0-4.92-2.625-7.708-6.725-9.676l-1.313-0.656c-1.147-0.492-1.312-0.984-1.312-1.476v-0.82
		c0-0.82,0.656-1.312,1.476-1.64l14.104-7.872c1.312-0.656,2.296-1.148,2.952-1.148c0.82,0,1.148,0.656,1.313,1.968l1.147,10.004
		h0.328c4.756-5.904,14.269-11.972,22.468-11.972c4.92,0,10.004,0.984,13.94,3.608c4.92,3.28,9.021,11.48,9.021,15.58V355.674z"/>
	<path d="M1041.637,361.414c0,17.22-15.908,28.864-19.188,30.832c-0.984,0.492-2.133,1.476-3.28,1.476
		c-1.313,0-1.968-0.492-1.968-1.476c0-0.984,0.164-1.312,1.476-2.46c3.937-3.608,11.644-11.644,11.644-20.664
		c0-2.132-1.476-4.428-2.787-4.92c-1.641-0.656-9.349-2.624-9.349-10.824c0-4.1,3.28-7.708,9.185-7.708
		C1033.109,345.67,1041.637,351.082,1041.637,361.414z"/>
</g>
<g>
	<path d="M47.563,555.029c-0.984,0-1.313-0.656-0.82-1.804l38.704-96.105c1.804-4.428,0.164-7.216-5.904-7.216h-4.428
		c-0.984,0-1.148-0.656-0.82-1.64l0.984-2.624c0.492-0.82,0.656-1.313,1.968-1.313h21.812c1.64,0,1.64,1.804,1.312,2.788
		l-23.616,56.909l0.82,0.328c5.084-6.56,16.893-17.548,27.88-17.548c3.444,0,8.528,1.804,8.528,9.676
		c0,12.957-22.96,26.077-30.34,28.864v0.656l10.66,17.22c2.46,4.101,5.248,6.725,8.2,6.725c3.116,0,5.904-2.46,7.708-4.264
		c0.492-0.656,1.148-0.656,1.476-0.164l1.64,1.804c0.328,0.328,0.328,0.819-0.164,1.476c-0.82,0.984-7.052,7.873-13.776,7.873
		c-8.2,0-10.988-2.133-14.924-9.677l-9.02-17.22c-1.148-2.132-3.608-2.296-8.2-1.804l-10.168,25.912
		c-0.328,0.984-0.984,1.148-2.46,1.148H47.563z M68.718,524.033c15.581,1.804,34.604-14.104,34.604-24.272
		c0-2.624-1.968-4.92-4.592-4.92c-8.364,0-19.516,11.48-21.812,14.104c-1.312,1.476-3.444,4.1-4.428,6.068L68.718,524.033z"/>
	<path d="M159.294,460.236c2.46-6.232,2.296-10.332-2.46-10.332h-4.756c-1.148,0-1.312-0.656-0.984-1.476l0.984-2.952
		c0.328-0.984,0.656-1.148,1.64-1.148h20.336c1.476,0,1.968,0.984,1.476,2.46l-34.112,86.757
		c-1.476,3.772-5.412,12.792-1.968,12.792c2.624,0,10.168-6.396,12.136-8.528c0.656-0.656,0.984-0.492,1.476,0l1.804,1.968
		c0.328,0.328,0.492,0.984-0.164,1.64c-0.82,1.313-16.072,15.253-26.568,15.253c-2.132,0-3.608-0.984-3.608-4.757
		c0-2.46,4.1-12.792,6.068-17.712L159.294,460.236z"/>
	<path d="M173.053,552.569c0-3.772,2.788-11.316,9.676-29.685l4.756-12.792c1.64-4.428,2.952-7.708,2.952-9.676
		c0-1.476-0.984-2.132-2.296-2.132c-2.788,0-10.496,8.856-13.12,11.48c-0.656,0.656-1.313,0.656-1.804,0.164l-1.312-1.476
		c-0.656-0.492-0.984-0.82-0.492-1.477c0.656-0.983,17.384-20.664,27.88-20.172c1.968,0,3.936,1.312,3.936,4.1
		c0,2.952-2.624,10.332-5.576,18.204l-9.512,24.928c-2.296,6.068-2.952,9.676-2.952,10.824c0,1.476,0.492,2.46,1.804,2.788
		c3.444-0.656,12.3-10.004,13.12-11.48c0.328-0.492,0.984-0.492,1.804,0.328l1.312,1.148c0.656,0.82,0.82,1.148,0.328,1.968
		c-0.984,1.313-14.104,17.057-27.716,17.057C174.201,556.506,173.053,555.193,173.053,552.569z M193.717,456.957
		c0-4.428,3.444-8.2,8.528-8.2c5.74,0,8.692,4.1,8.692,7.872c0,2.46-1.968,8.2-8.692,8.2
		C195.029,464.829,193.717,458.761,193.717,456.957z"/>
	<path d="M220.218,555.029c-1.804,0-2.132-0.328-1.804-1.477l11.644-30.34c3.936-10.168,8.528-21.976,8.528-24.764
		c0-1.64-0.656-2.788-2.46-2.788c-3.116,0-10.988,7.872-13.776,10.988c-0.492,0.492-0.984,0.492-1.64-0.164l-1.476-1.476
		c-0.656-0.656-0.82-0.984-0.328-1.64c2.46-2.952,14.596-16.564,26.404-16.564c3.772,0,5.248,2.788,5.248,4.92
		c0,5.084-7.052,20.664-8.364,24.437l0.656,0.328c4.92-7.872,22.796-29.685,37.393-29.685c4.92,0,8.2,2.46,8.2,6.724
		c0,7.216-3.772,15.744-9.185,29.028c-4.428,10.824-8.364,20.008-8.364,22.632c0,0.984,0.656,2.132,1.968,2.132
		c2.46,0,9.676-6.068,11.808-8.364c0.656-0.492,1.312-0.328,1.804,0.328l1.148,1.313c0.656,0.655,0.82,0.983,0.164,1.804
		c-1.968,2.624-15.252,14.269-26.24,14.269c-2.132,0-3.936-0.82-3.936-3.281c0-3.115,5.904-16.071,10.988-30.176
		c2.296-6.396,8.2-20.008,8.2-23.616c0-2.296-1.148-3.772-4.1-3.772c-6.396,0-22.633,15.088-29.849,26.732
		c-2.952,4.756-5.576,9.02-9.84,20.5l-4.1,10.988c-0.328,0.656-0.656,0.984-2.296,0.984H220.218z"/>
	<path d="M284.406,582.254c0-12.137,19.681-20.173,27.716-23.617c-4.756-3.443-6.232-6.396-6.232-9.512
		c0-3.115,2.952-5.904,13.94-12.136c-4.428-1.148-12.792-7.052-12.792-18.86c0-12.3,10.824-31.324,29.028-31.324
		c8.2,0,12.464,5.248,13.94,7.708c1.804-1.804,7.872-6.068,13.94-6.068c5.412,0,6.888,4.428,6.888,6.396
		c0,1.804-1.147,5.084-5.248,5.084c-3.116,0-4.428-1.312-5.412-2.46c-0.82-0.82-2.132-1.148-3.116-1.148
		c-1.476,0-4.1,1.148-4.756,2.296c0.656,1.64,1.313,6.724,1.313,9.184c0,7.872-4.592,26.24-23.452,29.521
		c-2.952,0.492-4.428,0.82-4.92,1.147c-3.116,1.313-8.528,5.084-8.528,7.872c0,1.804,1.64,3.608,2.788,4.429
		c2.788,1.968,10.66,6.888,21.32,13.939c9.512,6.232,12.136,11.645,12.136,17.713c0,2.623-2.788,21.32-34.932,21.32
		C300.971,603.738,284.406,594.062,284.406,582.254z M321.307,598.654c11.152,0,20.5-3.937,20.5-13.121
		c0-7.216-6.888-11.644-10.988-14.432l-14.432-9.348c-13.448,5.412-20.664,11.644-20.664,19.352
		C295.723,592.422,310.318,598.654,321.307,598.654z M343.119,501.893c0-7.544-2.952-10.988-7.38-10.988
		c-9.84,0-18.204,19.188-18.204,31.488c0,7.38,2.788,11.152,7.708,11.152C337.215,533.545,343.119,513.701,343.119,501.893z"/>
	<path d="M369.111,540.598c0-13.776,9.02-30.997,20.992-42.805c5.248-5.248,14.104-10.988,21.976-10.988
		c6.396,0,9.348,4.756,9.348,8.692c0,8.036-6.068,16.564-15.252,21.32c-8.856,4.428-17.712,6.232-23.78,6.724
		c-0.82,1.968-2.132,7.38-2.132,15.088c0,7.381,5.412,10.332,8.528,10.332c8.036,0,15.252-6.068,18.696-11.644
		c0.328-0.492,0.82-0.82,1.477-0.164l1.804,1.476c0.82,0.492,0.82,0.984,0.164,1.477c-4.1,5.74-13.94,16.564-26.568,16.564
		C373.703,556.67,369.111,551.422,369.111,540.598z M383.707,518.785c5.74,0.492,27.225-6.396,27.225-18.532
		c0-3.28-1.64-6.232-5.248-6.232C395.188,494.021,385.02,512.881,383.707,518.785z"/>
	<path d="M460.738,460.236c2.46-6.232,2.296-10.332-2.46-10.332h-4.756c-1.148,0-1.312-0.656-0.984-1.476l0.984-2.952
		c0.328-0.984,0.656-1.148,1.64-1.148h20.336c1.476,0,1.968,0.984,1.476,2.46l-34.112,86.757
		c-1.476,3.772-5.412,12.792-1.968,12.792c2.624,0,10.168-6.396,12.136-8.528c0.656-0.656,0.984-0.492,1.476,0l1.804,1.968
		c0.328,0.328,0.492,0.984-0.164,1.64c-0.82,1.313-16.072,15.253-26.568,15.253c-2.132,0-3.608-0.984-3.608-4.757
		c0-2.46,4.1-12.792,6.068-17.712L460.738,460.236z"/>
	<path d="M474.497,552.569c0-3.772,2.788-11.316,9.676-29.685l4.756-12.792c1.64-4.428,2.952-7.708,2.952-9.676
		c0-1.476-0.984-2.132-2.296-2.132c-2.788,0-10.496,8.856-13.12,11.48c-0.656,0.656-1.312,0.656-1.804,0.164l-1.312-1.476
		c-0.656-0.492-0.984-0.82-0.492-1.477c0.656-0.983,17.384-20.664,27.88-20.172c1.968,0,3.936,1.312,3.936,4.1
		c0,2.952-2.624,10.332-5.576,18.204l-9.513,24.928c-2.296,6.068-2.952,9.676-2.952,10.824c0,1.476,0.492,2.46,1.804,2.788
		c3.444-0.656,12.3-10.004,13.12-11.48c0.328-0.492,0.984-0.492,1.804,0.328l1.312,1.148c0.656,0.82,0.82,1.148,0.328,1.968
		c-0.984,1.313-14.104,17.057-27.716,17.057C475.645,556.506,474.497,555.193,474.497,552.569z M495.161,456.957
		c0-4.428,3.444-8.2,8.528-8.2c5.74,0,8.692,4.1,8.692,7.872c0,2.46-1.968,8.2-8.692,8.2
		C496.474,464.829,495.161,458.761,495.161,456.957z"/>
	<path d="M521.661,555.029c-1.804,0-2.132-0.328-1.804-1.477l11.644-30.34c3.936-10.168,8.528-21.976,8.528-24.764
		c0-1.64-0.656-2.788-2.46-2.788c-3.116,0-10.988,7.872-13.776,10.988c-0.492,0.492-0.984,0.492-1.64-0.164l-1.476-1.476
		c-0.656-0.656-0.82-0.984-0.328-1.64c2.46-2.952,14.596-16.564,26.404-16.564c3.771,0,5.248,2.788,5.248,4.92
		c0,5.084-7.053,20.664-8.364,24.437l0.656,0.328c4.92-7.872,22.796-29.685,37.392-29.685c4.92,0,8.2,2.46,8.2,6.724
		c0,7.216-3.771,15.744-9.184,29.028c-4.429,10.824-8.364,20.008-8.364,22.632c0,0.984,0.656,2.132,1.968,2.132
		c2.46,0,9.677-6.068,11.809-8.364c0.655-0.492,1.312-0.328,1.804,0.328l1.148,1.313c0.656,0.655,0.819,0.983,0.164,1.804
		c-1.969,2.624-15.252,14.269-26.24,14.269c-2.133,0-3.937-0.82-3.937-3.281c0-3.115,5.904-16.071,10.988-30.176
		c2.296-6.396,8.2-20.008,8.2-23.616c0-2.296-1.148-3.772-4.101-3.772c-6.396,0-22.632,15.088-29.848,26.732
		c-2.952,4.756-5.576,9.02-9.84,20.5l-4.1,10.988c-0.328,0.656-0.656,0.984-2.296,0.984H521.661z"/>
	<path d="M585.851,582.254c0-12.137,19.681-20.173,27.716-23.617c-4.756-3.443-6.231-6.396-6.231-9.512
		c0-3.115,2.952-5.904,13.94-12.136c-4.429-1.148-12.793-7.052-12.793-18.86c0-12.3,10.824-31.324,29.028-31.324
		c8.2,0,12.464,5.248,13.94,7.708c1.804-1.804,7.872-6.068,13.939-6.068c5.412,0,6.889,4.428,6.889,6.396
		c0,1.804-1.148,5.084-5.248,5.084c-3.116,0-4.428-1.312-5.412-2.46c-0.82-0.82-2.132-1.148-3.116-1.148
		c-1.476,0-4.1,1.148-4.756,2.296c0.656,1.64,1.312,6.724,1.312,9.184c0,7.872-4.592,26.24-23.451,29.521
		c-2.953,0.492-4.429,0.82-4.921,1.147c-3.116,1.313-8.528,5.084-8.528,7.872c0,1.804,1.641,3.608,2.789,4.429
		c2.787,1.968,10.66,6.888,21.32,13.939c9.512,6.232,12.136,11.645,12.136,17.713c0,2.623-2.788,21.32-34.933,21.32
		C602.414,603.738,585.851,594.062,585.851,582.254z M622.751,598.654c11.151,0,20.5-3.937,20.5-13.121
		c0-7.216-6.888-11.644-10.988-14.432l-14.432-9.348c-13.448,5.412-20.665,11.644-20.665,19.352
		C597.166,592.422,611.763,598.654,622.751,598.654z M644.563,501.893c0-7.544-2.951-10.988-7.38-10.988
		c-9.84,0-18.204,19.188-18.204,31.488c0,7.38,2.788,11.152,7.708,11.152C638.659,533.545,644.563,513.701,644.563,501.893z"/>
	<path d="M670.555,540.598c0-13.776,9.021-30.997,20.992-42.805c5.248-5.248,14.104-10.988,21.977-10.988
		c6.396,0,9.349,4.756,9.349,8.692c0,8.036-6.068,16.564-15.253,21.32c-8.855,4.428-17.712,6.232-23.779,6.724
		c-0.82,1.968-2.133,7.38-2.133,15.088c0,7.381,5.412,10.332,8.528,10.332c8.036,0,15.252-6.068,18.696-11.644
		c0.328-0.492,0.82-0.82,1.477-0.164l1.804,1.476c0.819,0.492,0.819,0.984,0.164,1.477c-4.101,5.74-13.94,16.564-26.568,16.564
		C675.147,556.67,670.555,551.422,670.555,540.598z M685.151,518.785c5.74,0.492,27.225-6.396,27.225-18.532
		c0-3.28-1.641-6.232-5.248-6.232C696.632,494.021,686.463,512.881,685.151,518.785z"/>
	<path d="M762.182,460.236c2.461-6.232,2.297-10.332-2.459-10.332h-4.757c-1.147,0-1.312-0.656-0.983-1.476l0.983-2.952
		c0.328-0.984,0.656-1.148,1.641-1.148h20.336c1.476,0,1.968,0.984,1.476,2.46l-34.111,86.757
		c-1.477,3.772-5.412,12.792-1.969,12.792c2.624,0,10.168-6.396,12.137-8.528c0.655-0.656,0.983-0.492,1.476,0l1.804,1.968
		c0.328,0.328,0.492,0.984-0.164,1.64c-0.82,1.313-16.072,15.253-26.568,15.253c-2.132,0-3.607-0.984-3.607-4.757
		c0-2.46,4.1-12.792,6.068-17.712L762.182,460.236z"/>
	<path d="M775.941,552.569c0-3.772,2.788-11.316,9.676-29.685l4.756-12.792c1.641-4.428,2.952-7.708,2.952-9.676
		c0-1.476-0.983-2.132-2.296-2.132c-2.788,0-10.496,8.856-13.12,11.48c-0.656,0.656-1.312,0.656-1.804,0.164l-1.313-1.476
		c-0.656-0.492-0.984-0.82-0.492-1.477c0.656-0.983,17.385-20.664,27.881-20.172c1.968,0,3.936,1.312,3.936,4.1
		c0,2.952-2.624,10.332-5.576,18.204l-9.512,24.928c-2.296,6.068-2.952,9.676-2.952,10.824c0,1.476,0.492,2.46,1.804,2.788
		c3.444-0.656,12.301-10.004,13.121-11.48c0.328-0.492,0.983-0.492,1.804,0.328l1.312,1.148c0.656,0.82,0.82,1.148,0.328,1.968
		c-0.984,1.313-14.104,17.057-27.716,17.057C777.09,556.506,775.941,555.193,775.941,552.569z M796.605,456.957
		c0-4.428,3.443-8.2,8.528-8.2c5.739,0,8.692,4.1,8.692,7.872c0,2.46-1.969,8.2-8.692,8.2
		C797.918,464.829,796.605,458.761,796.605,456.957z"/>
	<path d="M823.105,555.029c-1.804,0-2.132-0.328-1.804-1.477l11.644-30.34c3.937-10.168,8.528-21.976,8.528-24.764
		c0-1.64-0.656-2.788-2.46-2.788c-3.116,0-10.988,7.872-13.776,10.988c-0.491,0.492-0.983,0.492-1.64-0.164l-1.477-1.476
		c-0.656-0.656-0.819-0.984-0.328-1.64c2.461-2.952,14.597-16.564,26.404-16.564c3.772,0,5.248,2.788,5.248,4.92
		c0,5.084-7.052,20.664-8.363,24.437l0.656,0.328c4.92-7.872,22.796-29.685,37.392-29.685c4.92,0,8.2,2.46,8.2,6.724
		c0,7.216-3.771,15.744-9.184,29.028c-4.429,10.824-8.364,20.008-8.364,22.632c0,0.984,0.655,2.132,1.968,2.132
		c2.46,0,9.676-6.068,11.809-8.364c0.655-0.492,1.312-0.328,1.804,0.328l1.147,1.313c0.656,0.655,0.82,0.983,0.164,1.804
		c-1.968,2.624-15.252,14.269-26.24,14.269c-2.132,0-3.936-0.82-3.936-3.281c0-3.115,5.904-16.071,10.988-30.176
		c2.296-6.396,8.199-20.008,8.199-23.616c0-2.296-1.147-3.772-4.1-3.772c-6.396,0-22.633,15.088-29.848,26.732
		c-2.953,4.756-5.576,9.02-9.841,20.5l-4.1,10.988c-0.328,0.656-0.656,0.984-2.296,0.984H823.105z"/>
	<path d="M887.295,582.254c0-12.137,19.68-20.173,27.716-23.617c-4.756-3.443-6.231-6.396-6.231-9.512
		c0-3.115,2.951-5.904,13.939-12.136c-4.428-1.148-12.792-7.052-12.792-18.86c0-12.3,10.824-31.324,29.028-31.324
		c8.2,0,12.464,5.248,13.939,7.708c1.805-1.804,7.873-6.068,13.94-6.068c5.412,0,6.889,4.428,6.889,6.396
		c0,1.804-1.148,5.084-5.248,5.084c-3.116,0-4.429-1.312-5.412-2.46c-0.82-0.82-2.132-1.148-3.116-1.148
		c-1.477,0-4.1,1.148-4.756,2.296c0.656,1.64,1.312,6.724,1.312,9.184c0,7.872-4.592,26.24-23.452,29.521
		c-2.952,0.492-4.428,0.82-4.92,1.147c-3.116,1.313-8.528,5.084-8.528,7.872c0,1.804,1.641,3.608,2.788,4.429
		c2.788,1.968,10.66,6.888,21.32,13.939c9.512,6.232,12.137,11.645,12.137,17.713c0,2.623-2.789,21.32-34.933,21.32
		C903.858,603.738,887.295,594.062,887.295,582.254z M924.195,598.654c11.151,0,20.5-3.937,20.5-13.121
		c0-7.216-6.889-11.644-10.988-14.432l-14.432-9.348c-13.449,5.412-20.665,11.644-20.665,19.352
		C898.61,592.422,913.207,598.654,924.195,598.654z M946.007,501.893c0-7.544-2.952-10.988-7.38-10.988
		c-9.84,0-18.204,19.188-18.204,31.488c0,7.38,2.788,11.152,7.708,11.152C940.104,533.545,946.007,513.701,946.007,501.893z"/>
</g>
</svg>
