<?xml version="1.0" encoding="utf-8"?>
<!-- Generator: Adobe Illustrator 15.1.0, SVG Export Plug-In . SVG Version: 6.00 Build 0)  -->
<!DOCTYPE svg PUBLIC "-//W3C//DTD SVG 1.1//EN" "http://www.w3.org/Graphics/SVG/1.1/DTD/svg11.dtd">
<svg version="1.1" id="vs_text" xmlns="http://www.w3.org/2000/svg" xmlns:xlink="http://www.w3.org/1999/xlink" x="0px" y="0px"
	 width="1080px" height="1080px" viewBox="0 0 1080 1080" enable-background="new 0 0 1080 1080" xml:space="preserve">
<g>
	<path d="M126.376,551.264c-9.38,0.699-10.92,1.399-11.62,2.66c-0.98,1.399-1.96,6.159-4.48,22.68
		c-3.78,24.219-5.46,35.84-9.52,61.6c-1.26,8.26-3.5,14-7.14,17.359c-3.64,3.5-9.94,7.42-14.98,9.801
		c-4.62,1.959-9.24,3.08-12.18,3.08c-4.2,0-8.68-1.541-10.78-3.781c-0.7-0.979-1.4-1.819-1.4-3.5c0-1.539,3.22-4.479,5.18-5.459
		c0.98-0.561,2.24,0,3.78,1.26c2.66,2.1,6.86,4.199,11.479,4.199c7.56,0,11.06-4.76,13.86-18.34c4.9-24.219,9.8-56.84,12.88-80.919
		c1.26-9.521,0.7-10.5-12.04-10.36c-0.28-0.279,0.42-4.199,2.38-4.199c9.24,0,13.72,0.56,18.34,0.56c6.44,0,11.48-0.56,14.42-0.42
		c1.12,0,1.54,0.42,1.68,1.54L126.376,551.264z"/>
	<path d="M131.302,639.463c-1.26,0-3.5-0.98-5.18-2.939c-2.52-2.66-4.2-7.701-4.2-13.86c0-8.82,3.92-18.62,8.26-23.38
		c4.06-4.62,9.1-9.801,20.58-16.52c1.26-0.701,4.061-1.4,7.28-1.4s6.16,0.14,7.28,0.56c2.52-0.7,4.48-1.399,6.86-1.54
		c-3.08,9.939-5.6,21.28-7,31.92c-1.12,8.82-0.84,12.18-0.14,12.46c3.36-1.68,5.88-3.64,8.82-6.021c0.28-0.139,1.26,1.4,0.98,2.381
		c-2.66,3.92-16.1,18.619-18.76,18.619c-0.98,0-2.1-1.119-2.8-1.819c2.66-16.66,3.5-22.54,3.5-24.64
		c-2.521,3.08-21.28,23.1-23.1,24.779c-1.26,0.98-1.82,1.4-2.24,1.4H131.302z M131.582,618.604c0,5.739,2.52,8.959,4.9,8.959
		c3.22,0,15.54-13.3,20.44-20.859c0.84-1.82,1.54-4.48,3.92-16.801c-1.12-0.56-4.76-1.399-8.96-1.399c-5.32,0-9.38,2.8-12.88,7.28
		c-4.76,6.3-7.42,15.68-7.42,22.68V618.604z"/>
	<path d="M192.382,616.923c3.22,0,7.28,4.2,7.7,10.36c0.7,11.199-9.24,18.479-19.32,21.279c-1.54,0.42-2.52-0.14-2.52-1.26
		c0-0.279,0.7-0.98,1.54-1.68c4.62-3.5,10.5-8.54,10.5-13.58c0-3.78-2.38-6.02-3.92-7.28c-0.84-0.84-1.4-2.1-1.54-3.079
		c0-1.82,5.18-4.761,7.42-4.761H192.382z"/>
	<path d="M87.456,811.604c-1.96,0-5.32-5.041-4.06-10.641c1.68-8.26,5.74-28,6.72-33.88c0.28-1.261-0.42-1.681-1.68-1.12
		c-3.22,1.68-4.9,2.801-7.14,3.92c-0.56-0.561-0.84-2.24-0.7-2.52c0.28-0.84,17.92-14.98,18.9-14.98c1.54,0,2.52,3.221,2.1,4.9
		c-3.22,11.34-6.58,28-7.979,39.619c-0.561,4.201,0.28,4.34,9.38-1.119c0.56,1.68,0.56,2.939-0.14,3.779
		c-1.82,2.381-12.88,12.041-15.26,12.041H87.456z M101.456,722.424c2.52,0,4.2,2.52,4.2,5.319c0,4.06-2.94,6.58-6.58,6.58
		c-3.22,0-5.32-2.101-5.32-4.899c0-4.48,4.2-7,7.56-7H101.456z"/>
	<path d="M138.625,753.223c2.66,0,6.58,0.98,7.28,3.641c0.42,0.98,0.7,3.92,0.7,5.18c0,1.54-0.98,1.96-2.1,1.96
		c-0.7,0-2.52-0.42-4.479-0.979c-2.66-1.121-4.9-1.961-7.14-1.961c-4.2,0-5.74,4.061-5.74,6.301c0,3.64,3.22,6.16,6.58,9.24
		c4.9,4.199,11.76,9.52,11.76,16.379c0,5.32-8.54,11.9-14.28,14.98c-2.94,1.54-6.44,3.22-10.22,3.22c-4.48,0-8.54-2.239-8.96-3.78
		c-0.42-1.959-0.7-3.359-0.7-5.18c0-1.4,1.82-2.52,2.38-2.52c0.42,0,2.24,0.279,5.32,1.4c3.08,0.979,6.439,2.1,9.939,2.1
		c6.3,0,8.12-3.78,8.12-6.021c0-2.8-3.78-7.14-7-10.079c-3.92-3.361-10.64-9.101-10.64-14.561c0-5.6,9.1-14.699,14-17.92
		c1.54-0.98,3.36-1.4,5.04-1.4H138.625z"/>
	<path d="M175.276,762.184c-0.98,0-1.54,1.119-1.82,2.239c-1.96,10.36-4.06,22.54-4.2,30.521c-0.14,5.739,1.26,6.58,3.22,6.58
		c2.38,0,7-2.101,10.92-5.32c1.26-0.28,1.54,2.66,0.56,3.64c-0.7,0.979-13.16,11.899-20.16,11.899c-1.399,0-3.08-1.119-3.92-2.239
		c-1.26-1.96-1.54-6.3-0.7-12.601c0.98-7.56,3.64-23.799,5.32-32.899c-0.42-1.12-1.54-1.54-6.3-1.54c-0.84,0-1.54-0.699-0.7-1.4
		c2.38-2.66,5.18-4.06,8.96-4.899c2.38-7.7,6.58-14.14,10.92-17.64c1.26-1.12,2.38-1.26,3.5-1.26c0.42,0,0.28,0.42,0,1.119
		c-2.66,5.881-4.34,11.48-5.18,16.94c4.34-0.14,5.88-0.28,9.52-0.7c0.7-0.141,1.82,0.42,1.96,1.12l0.42,5.319
		c0,0.42-1.54,1.121-2.52,1.121H175.276z"/>
	<path d="M239.533,811.604c-6.58,0-11.06-8.82-11.06-18.48c0-4.9,0.98-9.24,2.52-13.02c4.48-11.621,18.06-22.121,26.88-25.9
		c1.54-0.7,2.94-1.12,4.48-1.12c2.66,0,5.18,0.14,8.12,1.261c1.82-10.361,4.2-27.58,4.479-32.761c0.141-1.68-0.979-2.38-2.52-2.1
		c-5.6,0.979-6.58,1.12-7.7,1.12c-0.56,0-1.82-1.82-1.54-2.1c4.2-2.24,18.2-7.701,21.28-7.701c1.96,0,1.4,4.48-0.84,17.36
		c-1.26,6.86-6.16,32.62-8.681,53.06c-2.24,18.061-1.54,19.04,1.26,17.36c1.96-0.979,5.74-4.479,7.7-5.88
		c0.84-0.7,1.26,0.14,0.98,2.52c-1.96,3.36-16.24,17.221-20.02,17.221c-1.12,0-2.38-1.541-1.82-4.9
		c2.66-17.92,2.8-21.42,2.24-21.561c-4.34,4.76-21.98,22.961-23.24,24.221c-0.7,0.84-1.4,1.4-2.38,1.4H239.533z M244.293,800.123
		c3.22,0,14-9.66,21-21.7c1.82-3.22,3.08-10.5,3.78-15.96c-3.08-1.68-6.58-2.52-11.2-2.52c-4.48,0-8.4,2.939-11.34,6.02
		c-3.92,3.92-8.26,12.74-8.26,21.98c0,7.56,2.66,12.18,5.88,12.18H244.293z"/>
	<path d="M293.937,790.742c0-13.579,6.44-26.6,13.3-31.219c2.52-1.68,13.58-6.44,16.52-6.44c2.38,0,10.36,2.24,10.36,10.78
		c0,4.479-2.24,7.56-3.22,8.4c-3.5,2.379-18.9,5.6-26.88,7.279c-0.28,1.68-0.42,3.641-0.42,6.3c0,10.92,3.5,16.66,12.46,16.66
		c4.62,0,12.18-3.08,13.859-3.64c1.4-0.28,1.681,0.56,1.96,2.1c-6.3,4.199-22.26,10.5-24.22,10.5c-3.22,0-13.72-3.359-13.72-20.58
		V790.742z M315.917,759.243c-6.58,0-10.22,11.06-10.92,15.399c0,0.7,0.56,1.26,0.98,1.26c5.88-1.26,18.9-5.6,18.9-8.539
		c0-3.36-1.82-8.12-8.82-8.12H315.917z"/>
	<path d="M400.167,795.643c0.14,1.68-17.78,16.381-21.14,16.381c-0.84,0-2.94-2.521-2.66-3.221c4.34-11.34,8.68-29.82,9.66-38.5
		c0.56-5.18-0.42-7.84-2.94-7.84c-3.64,0-14.84,12.04-21.28,25.62c-4.06,7.7-7.98,19.6-8.96,21.42c-0.28,0.56-4.9,1.96-6.02,1.96
		s-1.82-1.68-1.96-2.801c0.14-2.1,3.22-12.319,5.32-20.859c2.8-10.779,4.2-19.32,4.2-20.859c0.141-1.26-0.14-2.24-0.84-2.24
		c-1.54,0-5.6,2.66-9.52,5.32c-1.26-1.121-1.54-1.961-1.12-2.521c3.64-4.2,14.56-14,16.939-14c0.84,0,1.96,0.979,2.66,2.38
		c1.26,2.94,1.12,6.439-3.22,26.32c7.56-11.2,15.26-18.76,21.56-23.801c4.061-3.359,8.68-6.02,9.94-6.02
		c3.92,0,6.02,5.74,5.18,12.04c-0.56,4.899-5.74,28-6.3,33.181c-0.28,1.819,1.54,1.539,9.94-4.48L400.167,795.643z"/>
	<path d="M465.91,795.643c0.14,1.68-17.78,16.381-21.14,16.381c-0.84,0-2.94-2.521-2.66-3.221c4.34-11.34,8.68-29.82,9.66-38.5
		c0.56-5.18-0.42-7.84-2.94-7.84c-3.64,0-14.84,12.04-21.28,25.62c-4.06,7.7-7.98,19.6-8.96,21.42c-0.28,0.56-4.9,1.96-6.02,1.96
		s-1.82-1.68-1.96-2.801c0.14-2.1,3.22-12.319,5.32-20.859c2.8-10.779,4.2-19.32,4.2-20.859c0.141-1.26-0.14-2.24-0.84-2.24
		c-1.54,0-5.6,2.66-9.52,5.32c-1.26-1.121-1.54-1.961-1.12-2.521c3.64-4.2,14.56-14,16.939-14c0.84,0,1.96,0.979,2.66,2.38
		c1.26,2.94,1.12,6.439-3.22,26.32c7.56-11.2,15.26-18.76,21.56-23.801c4.061-3.359,8.68-6.02,9.94-6.02
		c3.92,0,6.02,5.74,5.18,12.04c-0.56,4.899-5.74,28-6.3,33.181c-0.28,1.819,1.54,1.539,9.94-4.48L465.91,795.643z"/>
	<path d="M540.947,812.443c-1.68,0-3.92-1.4-4.48-2.521c0.42-1.681,4.48-10.36,6.02-11.2c2.101,0.84,4.479,1.54,6.58,1.54
		c1.819,0,5.6-6.72,5.319-20.72c-0.14-11.76-4.479-16.38-7.699-16.38c-1.4,0-3.92,1.399-5.88,3.36c-4.2,4.34-7.42,8.399-11.9,14.979
		c-4.76,7-7.7,19.319-9.52,27.159c-0.141,0.841-1.96,2.521-5.04,2.521c-0.7,0-2.521-0.56-3.64-1.399
		c2.52-17.92,7.42-43.961,11.9-75.18c0.98-6.721,1.4-10.641,1.26-12.461c-1.96-0.42-8.54,1.961-10.64,2.381
		c-0.7-1.68,0-2.1,0.42-2.52c1.12-1.121,13.02-8.681,20.44-11.061c1.26,0.42,1.68,1.82,1.4,3.64c-1.26,7.979-6.86,37.8-10.92,64.54
		c2.8-3.359,23.94-26.18,26.88-26.18c3.5,0,6.439,2.52,8.54,5.6c2.1,2.939,3.92,9.1,3.92,14.98c0,7.279-2.101,15.119-4.34,20.02
		c-1.681,3.08-14.56,18.9-18.479,18.9H540.947z"/>
	<path d="M573.791,790.742c0-13.579,6.44-26.6,13.301-31.219c2.52-1.68,13.579-6.44,16.52-6.44c2.38,0,10.359,2.24,10.359,10.78
		c0,4.479-2.24,7.56-3.22,8.4c-3.5,2.379-18.899,5.6-26.88,7.279c-0.279,1.68-0.42,3.641-0.42,6.3c0,10.92,3.5,16.66,12.46,16.66
		c4.62,0,12.18-3.08,13.86-3.64c1.399-0.28,1.68,0.56,1.959,2.1c-6.299,4.199-22.26,10.5-24.219,10.5
		c-3.221,0-13.721-3.359-13.721-20.58V790.742z M595.771,759.243c-6.58,0-10.221,11.06-10.92,15.399c0,0.7,0.56,1.26,0.979,1.26
		c5.88-1.26,18.9-5.6,18.9-8.539c0-3.36-1.82-8.12-8.82-8.12H595.771z"/>
	<path d="M622.776,768.623c1.96-2.24,18.2-15.68,21.28-15.68c0.56,0,2.239,1.68,1.819,2.52c-6.3,14.42-9.66,32.9-10.22,37.1
		c-0.561,3.92,0.98,6.16,3.359,6.16c2.66,0,6.86-3.5,11.34-8.68c5.32-6.301,12.461-16.8,16.94-34.02c1.82-0.98,7.7-3.5,8.26-3.5
		c0.98,0,1.54,1.399,1.12,2.52c-3.5,10.641-8.4,28.42-8.82,40.32c-0.14,2.66,0.841,2.66,9.66-3.92c0.7-0.28,1.82,1.119,1.681,2.379
		c-1.681,1.961-17.5,18.201-19.32,18.201c-1.12,0-2.94-1.4-3.08-3.781c-0.14-3.639,3.08-15.819,4.48-25.059
		c-1.54-0.141-3.78,3.359-9.38,10.779c-3.08,4.061-9.66,11.061-15.12,15.96c-1.12,0.84-1.96,1.54-2.94,1.54
		c-3.359,0-7.279-5.6-7.279-11.34c0-4.9,1.539-14.42,5.459-31.641c0-1.119-0.56-1.539-1.119-1.399c-1.82,0.7-5.601,3.36-7.98,4.479
		L622.776,768.623z"/>
	<path d="M706.369,762.184c-0.98,0-1.54,1.119-1.82,2.239c-1.96,10.36-4.061,22.54-4.2,30.521c-0.14,5.739,1.261,6.58,3.22,6.58
		c2.381,0,7-2.101,10.92-5.32c1.261-0.28,1.541,2.66,0.561,3.64c-0.7,0.979-13.16,11.899-20.16,11.899
		c-1.399,0-3.08-1.119-3.92-2.239c-1.26-1.96-1.54-6.3-0.699-12.601c0.979-7.56,3.64-23.799,5.319-32.899
		c-0.42-1.12-1.54-1.54-6.3-1.54c-0.84,0-1.54-0.699-0.7-1.4c2.38-2.66,5.181-4.06,8.96-4.899c2.38-7.7,6.58-14.14,10.92-17.64
		c1.26-1.12,2.38-1.26,3.5-1.26c0.42,0,0.28,0.42,0,1.119c-2.66,5.881-4.34,11.48-5.18,16.94c4.34-0.14,5.88-0.28,9.52-0.7
		c0.7-0.141,1.82,0.42,1.96,1.12l0.42,5.319c0,0.42-1.54,1.121-2.52,1.121H706.369z"/>
	<path d="M783.646,753.223c2.66,0,6.58,0.98,7.28,3.641c0.42,0.98,0.699,3.92,0.699,5.18c0,1.54-0.979,1.96-2.1,1.96
		c-0.699,0-2.52-0.42-4.479-0.979c-2.66-1.121-4.9-1.961-7.14-1.961c-4.201,0-5.74,4.061-5.74,6.301c0,3.64,3.22,6.16,6.58,9.24
		c4.899,4.199,11.76,9.52,11.76,16.379c0,5.32-8.54,11.9-14.28,14.98c-2.94,1.54-6.44,3.22-10.22,3.22c-4.48,0-8.54-2.239-8.96-3.78
		c-0.42-1.959-0.7-3.359-0.7-5.18c0-1.4,1.82-2.52,2.38-2.52c0.42,0,2.24,0.279,5.32,1.4c3.08,0.979,6.439,2.1,9.939,2.1
		c6.3,0,8.12-3.78,8.12-6.021c0-2.8-3.779-7.14-7-10.079c-3.92-3.361-10.64-9.101-10.64-14.561c0-5.6,9.1-14.699,14-17.92
		c1.54-0.98,3.36-1.4,5.04-1.4H783.646z"/>
	<path d="M813.94,811.463c-3.08,0-6.72-1.96-9.1-4.62c-1.681-1.96-4.061-5.46-4.061-13.021c0-7.979,2.521-17.5,5.04-22.399
		c2.94-6.021,11.061-11.76,16.8-15.819c1.96-1.26,6.021-2.521,8.4-2.521c1.68,0,5.46,0.56,6.86,1.96
		c0.979,0.98,1.819,3.221,1.819,4.62c0,2.101-0.7,3.64-2.38,4.899c-2.66-0.84-7.42-3.08-13.02-3.08c-4.76,0-6.86,1.541-8.54,4.34
		c-2.8,4.621-5.04,14.701-5.04,24.5c0,7.281,2.52,11.9,9.52,11.9c5.6,0,12.88-5.46,14.84-6.58c0.28-0.42,0.98-0.279,0.98,0.84
		c0.14,0.561-0.141,1.26-0.28,1.82c-3.64,3.641-15.54,13.16-21.7,13.16H813.94z"/>
	<path d="M875.05,812.443c-1.681,0-3.92-1.4-4.48-2.521c0.421-1.681,4.48-10.36,6.021-11.2c2.1,0.84,4.479,1.54,6.58,1.54
		c1.819,0,5.6-6.72,5.319-20.72c-0.14-11.76-4.479-16.38-7.7-16.38c-1.399,0-3.92,1.399-5.879,3.36
		c-4.2,4.34-7.42,8.399-11.9,14.979c-4.76,7-7.7,19.319-9.52,27.159c-0.141,0.841-1.961,2.521-5.041,2.521
		c-0.699,0-2.52-0.56-3.64-1.399c2.521-17.92,7.42-43.961,11.9-75.18c0.979-6.721,1.399-10.641,1.26-12.461
		c-1.96-0.42-8.54,1.961-10.64,2.381c-0.7-1.68,0-2.1,0.42-2.52c1.119-1.121,13.02-8.681,20.439-11.061
		c1.26,0.42,1.68,1.82,1.4,3.64c-1.26,7.979-6.86,37.8-10.92,64.54c2.8-3.359,23.939-26.18,26.88-26.18c3.5,0,6.439,2.52,8.54,5.6
		c2.1,2.939,3.92,9.1,3.92,14.98c0,7.279-2.101,15.119-4.34,20.02c-1.681,3.08-14.561,18.9-18.48,18.9H875.05z"/>
	<path d="M939.043,753.083c6.86,0,14.98,6.86,14.98,22.12c0,9.1-2.24,16.24-5.88,21c-4.06,5.32-11.76,10.64-20.021,14
		c-1.68,0.84-3.5,1.4-4.619,1.4c-10.78,0-15.96-10.221-15.96-21.561c0-10.78,4.06-20.3,10.359-26.32
		c2.94-2.939,17.08-10.64,21-10.64H939.043z M932.744,760.223c-3.08,0-5.32,1.4-7.42,3.36c-3.5,3.36-7.421,13.16-7.421,23.94
		c0,8.399,3.08,16.939,11.061,16.939c2.659,0,5.04-0.7,7-2.66c4.2-4.061,7.979-13.02,7.979-24.22c0-7-1.4-11.06-2.939-13.58
		c-1.961-2.38-4.48-3.78-8.12-3.78H932.744z"/>
	<path d="M1020.857,795.643c0.141,1.68-17.779,16.381-21.14,16.381c-0.84,0-2.939-2.521-2.659-3.221
		c4.34-11.34,8.68-29.82,9.659-38.5c0.561-5.18-0.42-7.84-2.939-7.84c-3.64,0-14.84,12.04-21.28,25.62
		c-4.06,7.7-7.979,19.6-8.96,21.42c-0.28,0.56-4.899,1.96-6.02,1.96s-1.82-1.68-1.96-2.801c0.14-2.1,3.22-12.319,5.319-20.859
		c2.8-10.779,4.2-19.32,4.2-20.859c0.141-1.26-0.14-2.24-0.84-2.24c-1.54,0-5.6,2.66-9.52,5.32
		c-1.261-1.121-1.541-1.961-1.121-2.521c3.641-4.2,14.561-14,16.94-14c0.84,0,1.96,0.979,2.66,2.38c1.26,2.94,1.12,6.439-3.22,26.32
		c7.56-11.2,15.26-18.76,21.56-23.801c4.06-3.359,8.68-6.02,9.94-6.02c3.92,0,6.02,5.74,5.18,12.04c-0.561,4.899-5.74,28-6.3,33.181
		c-0.28,1.819,1.54,1.539,9.939-4.48L1020.857,795.643z"/>
	<path d="M152.133,896.523c-8.54,0.699-9.52,1.539-9.8,3.359c-0.14,1.26-0.14,4.48,1.68,16.24c3.08,19.18,6.16,35.279,7.56,42.279
		c0.28,1.121,1.4,1.261,2.24-0.14c7-11.899,18.48-34.999,26.46-55.439c1.82-4.62,0.7-5.04-1.68-5.32c-2.24-0.28-5.18-0.42-8.12-0.7
		c-0.7-0.14-1.68-0.699-1.26-1.68l1.4-3.5c1.4,0,9.24,0.28,14,0.28c7.42,0,16.52-0.42,18.9-0.42c0.56,0-0.84,4.479-0.98,5.319
		c-9.24,0.84-11.06,2.24-15.68,10.641c-9.66,17.64-26.18,50.539-28.7,55.299c-1.96,3.781-5.74,11.761-10.08,20.58
		c-0.42,0.84-1.26,0.98-4.34,0c-2.94-0.84-4.62-1.68-5.04-3.359c-1.26-10.08-6.44-37.1-10.36-58.939
		c-2.94,5.32-14.42,26.6-20.72,38.64c-3.22,6.159-5.6,12.319-9.38,19.319c-2.1,4.061-4.479,5.18-8.68,5.18
		c-1.4,0-2.1-0.279-2.38-1.959c-0.14-1.541-1.26-10.92-3.22-24.78c-1.82-12.18-5.32-41.021-8.4-54.46c-1.26-5.46-2.1-5.6-10.5-5.88
		c-0.42,0-0.98-0.56-2.1-4.479c-0.14-0.7,0.7-1.12,0.979-1.12c1.26,0,12.32,0.42,17.64,0.42c8.26,0,19.04-0.42,20.72-0.42
		c0.56,0,0.84,0.56,0.84,0.979c-1.12,3.78-1.26,4.34-1.96,4.34c-7.56,0.84-8.4,1.26-7.98,5.041c2.1,20.02,3.78,35.559,6.86,55.159
		c0.42,0.979,1.54,1.12,2.1,0.14c6.72-10.64,17.22-29.819,23.8-44.799c0.42-0.98,0.98-2.381,0.14-7.281
		c-1.26-6.439-2.24-7.699-5.32-8.119c-1.82-0.28-4.62-0.561-6.3-0.84c0.84-4.2,0.98-4.62,1.68-4.62c2.24,0,13.16,0.42,19.32,0.42
		c6.3,0,14.56,0,16.38-0.14c1.12,0,1.68,0.279,1.26,1.959L152.133,896.523z"/>
	<path d="M188.449,961.902c0-9.939,3.64-24.359,13.02-30.379c2.66-1.68,17.36-7.42,19.18-7.42c3.08,0,11.62,3.22,11.76,13.299
		c0,2.66-1.68,6.58-2.38,7.281c-4.06,3.92-20.3,6.859-26.32,8.119c-0.42,2.1-0.42,3.78-0.42,6.301c0,7.139,3.78,12.039,11.62,12.039
		c3.92,0,9.38-1.68,13.44-2.939c1.4-0.42,1.82-0.42,2.66,2.52c-7.42,5.46-24.08,12.6-25.899,12.6c-8.96,0-16.52-5.879-16.66-21.279
		V961.902z M211.829,931.243c-5.18,0-7.42,12.46-7.56,16.1c0,0.841,0.84,1.681,1.26,1.54c4.06-0.84,14-4.76,14-7.14
		s-1.26-10.5-7.56-10.5H211.829z"/>
	<path d="M250.159,983.742c-3.359,0-7.56-5.6-6.439-11.34c2.1-10.359,4.479-20.859,6.58-30.659c0.42-1.681-0.561-1.82-2.24-1.261
		c-3.08,1.121-4.9,1.82-7.56,2.801c-0.7-0.84-1.4-2.1-1.26-2.801c0.561-0.84,24.08-16.799,25.06-16.799c0.7,0,3.64,2.239,2.8,5.039
		c-3.64,13.021-6.16,30.66-7,37.1c-0.7,4.761,0.42,4.761,8.96,0.701c0.56,0.14,0.56,3.639,0.14,4.06
		c-2.1,2.239-17.08,13.159-18.899,13.159H250.159z M265.839,892.883c3.36,0,5.88,3.36,5.88,7.28c0,5.46-3.92,8.96-8.96,8.96
		c-4.48,0-7.42-3.08-7.42-6.859c0-6.021,6.02-9.381,10.36-9.381H265.839z"/>
	<path d="M310.989,984.023c-1.54,0-5.74-1.961-7.42-3.781c0.28-1.399,4.9-9.799,7.56-12.039c3.36,1.82,6.58,3.08,8.68,3.08
		c1.54,0,3.08-3.78,3.08-15.961c0-5.739-0.84-16.659-8.26-16.659c-2.24,0-3.78,1.26-4.62,2.101c-5.18,5.319-9.24,12.18-10.92,15.819
		c-1.68,3.36-6.02,18.2-7.56,24.22c-0.28,0.7-2.8,2.66-5.04,2.66c-1.54,0-6.02-1.54-7.7-2.66c3.08-21.98,7.14-45.22,11.2-78.119
		c0.42-3.5,0-4.201-0.56-4.201c-2.24,0-7.84,1.681-10.36,1.961c-0.42-1.68-0.28-2.52,0.56-3.221c2.24-1.959,17.5-9.52,25.62-12.18
		c0.979,0.141,2.24,1.26,1.96,2.66c-1.26,6.859-6.58,35.98-10.08,60.9c3.5-3.36,23.52-24.641,25.76-24.641
		c4.2,0,7.56,3.08,9.24,5.46c2.24,3.36,4.34,9.38,4.34,16.24c0,6.159-1.68,14-5.04,19.46c-2.66,4.06-17.36,18.9-20.3,18.9H310.989z"
		/>
	<path d="M408.146,966.242c0.42,1.82-20.86,17.92-26.32,17.92c-0.84,0-3.36-3.079-2.94-4.199c3.5-10.78,7.98-27.16,8.96-35.98
		c0.56-4.199-1.12-6.719-3.36-6.719c-2.66,0-9.66,6.859-17.5,25.199c-2.24,5.04-5.319,14.98-7,18.34
		c-0.56,0.98-9.24,2.52-10.22,2.52c-1.4,0-2.52-1.959-2.38-3.08c0.42-2.939,2.38-12.319,4.48-20.299
		c2.38-9.101,3.08-15.961,3.36-17.92c0.42-1.681,0-3.36-0.84-3.36c-1.96,0-5.88,2.521-9.8,4.899c-0.84-1.68-1.12-2.52-0.56-3.22
		c3.08-4.06,17.5-15.68,19.32-15.68c0.98,0,2.52,1.26,3.64,2.94c2.66,4.34,1.4,8.399-0.84,22.959c7-9.24,12.32-15.119,19.04-20.58
		c3.22-2.659,9.1-6.299,10.92-6.299c4.76,0,7.14,6.299,6.44,12.459c-0.42,4.48-3.92,23.66-5.04,31.08
		c-0.141,1.12,2.52,0.7,9.66-3.779L408.146,966.242z"/>
	<path d="M425.631,983.742c-0.98,0-3.64-1.119-5.32-3.08c-3.08-3.359-4.62-7.559-4.62-14.84c0-8.959,3.78-19.319,8.26-24.219
		c3.36-3.781,9.38-8.681,20.72-15.681c0.98-0.56,3.36-1.54,5.32-1.54c3.22,0,7.56,0.28,9.8,1.12c2.38-0.7,6.021-1.819,9.8-1.819
		c-2.66,9.1-4.76,17.639-6.44,27.02c-1.54,8.4-1.12,15.119-0.14,15.96c3.92-2.24,6.86-4.2,9.24-5.88c0.28,0.14,1.12,2.24,1.12,3.08
		c-3.08,3.64-18.9,20.16-22.82,20.16c-1.4,0-2.94-1.681-3.78-2.66c2.24-12.881,3.78-24.08,3.22-24.5
		c-5.88,7.699-20.3,23.939-21.7,25.34c-0.98,1.119-1.82,1.539-2.52,1.539H425.631z M429.411,957.143c0,4.76,1.4,9.381,5.88,9.381
		c2.521,0,10.5-9.101,14.141-16.801c1.54-3.359,2.24-7.14,3.359-14.279c-2.24-0.7-5.18-1.541-10.5-1.541
		c-3.92,0-5.74,1.541-7.28,3.781c-3.78,5.18-5.6,13.439-5.6,19.319V957.143z"/>
	<path d="M494.747,983.742c-3.359,0-7.84-2.52-9.939-5.18c-1.82-2.24-4.34-7-4.34-14.699c0-7.28,2.24-15.961,5.04-20.58
		c3.64-5.74,13.16-12.46,18.34-16.381c1.54-1.26,6.3-2.799,9.1-2.799c1.68,0,5.04,0.279,6.86,1.959c1.54,1.121,2.66,3.781,2.94,5.32
		c0,3.221-1.54,5.74-3.36,8.26c-3.5-1.68-10.22-5.74-16.94-5.74c-1.68,0-2.66,0.841-3.64,2.521c-1.96,3.5-4.061,12.04-4.061,21.56
		c0,7.84,1.82,13.58,10.08,13.58c4.9,0,11.06-3.779,13.86-5.32c-0.141-0.139,0.56,0.421,0.84,1.261c0.14,1.399-0.56,2.38-1.26,2.94
		c-5.32,4.199-17.22,13.299-23.38,13.299H494.747z"/>
	<path d="M560.784,984.023c-1.54,0-5.74-1.961-7.42-3.781c0.28-1.399,4.899-9.799,7.56-12.039c3.36,1.82,6.58,3.08,8.68,3.08
		c1.541,0,3.08-3.78,3.08-15.961c0-5.739-0.84-16.659-8.26-16.659c-2.24,0-3.779,1.26-4.619,2.101
		c-5.181,5.319-9.24,12.18-10.92,15.819c-1.681,3.36-6.021,18.2-7.561,24.22c-0.28,0.7-2.8,2.66-5.04,2.66
		c-1.54,0-6.02-1.54-7.7-2.66c3.08-21.98,7.14-45.22,11.2-78.119c0.42-3.5,0-4.201-0.56-4.201c-2.24,0-7.84,1.681-10.36,1.961
		c-0.42-1.68-0.28-2.52,0.56-3.221c2.24-1.959,17.5-9.52,25.62-12.18c0.98,0.141,2.24,1.26,1.96,2.66
		c-1.26,6.859-6.58,35.98-10.08,60.9c3.5-3.36,23.521-24.641,25.76-24.641c4.2,0,7.561,3.08,9.24,5.46
		c2.24,3.36,4.34,9.38,4.34,16.24c0,6.159-1.68,14-5.039,19.46c-2.66,4.06-17.36,18.9-20.301,18.9H560.784z"/>
	<path d="M618.378,935.163c-0.84,0.14-1.96,1.12-2.1,1.68c-1.96,9.38-3.92,21.841-3.92,28.28c0,4.76,1.819,5.46,3.78,5.46
		c2.379,0,6.859-1.681,10.359-3.36c1.12-0.42,2.24,2.24,0.98,3.92c-1.681,1.82-15.681,12.6-24.08,12.6
		c-1.54,0-3.92-1.539-5.32-3.219c-1.54-2.66-1.82-6.721-1.4-11.761c0.7-8.26,3.92-25.2,5.32-32.76c-2.24-0.42-3.359-0.42-6.16-0.42
		c-1.399,0-1.539,0.14-1.399-0.84c2.659-4.761,5.04-5.74,9.659-7.42c3.36-7.28,7.42-13.86,12.881-17.5
		c1.68-1.12,3.5-1.399,5.6-1.399c1.12,0,0.98,0.279,0.561,1.119c-2.94,7.141-4.2,13.16-4.761,17.221
		c4.48-0.281,7.28-0.561,10.22-0.841c0.561-0.14,1.541,0.7,1.541,0.979l0.56,6.861c0,0.42-1.261,1.399-2.24,1.399H618.378z"/>
	<path d="M635.668,961.902c0-9.939,3.641-24.359,13.02-30.379c2.66-1.68,17.36-7.42,19.181-7.42c3.08,0,11.62,3.22,11.76,13.299
		c0,2.66-1.681,6.58-2.38,7.281c-4.061,3.92-20.3,6.859-26.32,8.119c-0.42,2.1-0.42,3.78-0.42,6.301
		c0,7.139,3.78,12.039,11.62,12.039c3.92,0,9.38-1.68,13.44-2.939c1.399-0.42,1.819-0.42,2.659,2.52
		c-7.42,5.46-24.079,12.6-25.899,12.6c-8.96,0-16.52-5.879-16.66-21.279V961.902z M659.048,931.243c-5.18,0-7.42,12.46-7.56,16.1
		c0,0.841,0.84,1.681,1.26,1.54c4.06-0.84,14-4.76,14-7.14s-1.26-10.5-7.561-10.5H659.048z"/>
	<path d="M750.788,966.242c0.42,1.82-20.86,17.92-26.32,17.92c-0.84,0-3.36-3.079-2.939-4.199c3.499-10.78,7.979-27.16,8.96-35.98
		c0.56-4.199-1.12-6.719-3.36-6.719c-2.66,0-9.66,6.859-17.5,25.199c-2.24,5.04-5.319,14.98-7,18.34
		c-0.56,0.98-9.239,2.52-10.22,2.52c-1.4,0-2.52-1.959-2.38-3.08c0.42-2.939,2.38-12.319,4.479-20.299
		c2.381-9.101,3.08-15.961,3.36-17.92c0.42-1.681,0-3.36-0.84-3.36c-1.96,0-5.88,2.521-9.8,4.899c-0.84-1.68-1.12-2.52-0.561-3.22
		c3.08-4.06,17.5-15.68,19.32-15.68c0.979,0,2.52,1.26,3.64,2.94c2.66,4.34,1.4,8.399-0.84,22.959c7-9.24,12.319-15.119,19.04-20.58
		c3.22-2.659,9.1-6.299,10.92-6.299c4.76,0,7.14,6.299,6.439,12.459c-0.42,4.48-3.92,23.66-5.039,31.08
		c-0.141,1.12,2.52,0.7,9.659-3.779L750.788,966.242z"/>
	<path d="M768.734,962.043c6.44,0,11.061,3.359,11.061,11.061c0,6.859-5.88,9.939-10.08,9.939c-8.26,0-11.34-6.721-11.34-9.381
		c0-4.76,3.64-11.619,10.22-11.619H768.734z M766.635,953.923c-0.561,0.28-1.68,0-1.68-0.56c0-3.221-1.54-18.62-1.68-20.021
		c0-0.56,1.26-1.399,1.959-1.399c7.7,0,22.12-1.4,25.48-3.92c1.68-1.4,2.1-2.94,2.1-4.061c0-2.52-1.82-4.199-6.16-6.16
		c-3.92-1.68-11.06-2.52-16.659-1.82c-0.561,0.141-1.681-0.699-1.681-1.26c0-2.24,1.12-10.5,1.26-11.34
		c0.141-0.979,1.261-1.68,1.961-1.959c1.68-0.701,4.199-1.121,7.84-1.121c12.04,0,20.58,10.92,20.58,20.721
		c0,3.64-3.641,12.459-6.58,17.779c-2.381,4.48-7.7,7-19.18,7.42c-2.66,0.141-2.94,1.26-3.5,5.74L766.635,953.923z"/>
</g>
</svg>
