<?xml version="1.0" encoding="utf-8"?>
<!-- Generator: Adobe Illustrator 15.1.0, SVG Export Plug-In . SVG Version: 6.00 Build 0)  -->
<!DOCTYPE svg PUBLIC "-//W3C//DTD SVG 1.1//EN" "http://www.w3.org/Graphics/SVG/1.1/DTD/svg11.dtd">
<svg version="1.1" id="vs_text" xmlns="http://www.w3.org/2000/svg" xmlns:xlink="http://www.w3.org/1999/xlink" x="0px" y="0px"
	 width="1080px" height="1080px" viewBox="0 0 1080 1080" enable-background="new 0 0 1080 1080" xml:space="preserve">
<g>
	<path d="M118.587,150.547v39.958c0,3.779-3.06,6.839-6.84,6.839s-6.84-3.06-6.84-6.839v-36.179c0-10.26-6.12-18.179-14.939-18.179
		h-9.72v54.358c0,3.779-3.06,6.839-6.839,6.839s-6.84-3.06-6.84-6.839V76.75c0-3.779,3.06-6.839,6.84-6.839s6.839,3.06,6.839,6.839
		v46.078h10.62c8.64,0,12.78-4.319,12.78-13.139V76.75c0-3.779,3.06-6.839,6.84-6.839c3.78,0,6.839,3.06,6.839,6.839v34.199
		c0,10.08-3.959,17.099-8.819,19.439C113.547,133.808,118.587,140.647,118.587,150.547z"/>
	<path d="M140.242,189.966V70.091c0-3.6,3.06-6.66,6.66-6.66c3.6,0,6.66,3.06,6.66,6.66v119.875c0,3.6-3.06,6.66-6.66,6.66
		C143.302,196.625,140.242,193.565,140.242,189.966z"/>
	<path d="M172.855,77.29c0-4.319,3.42-7.739,7.74-7.739s7.74,3.42,7.74,7.739c0,4.32-3.42,7.74-7.74,7.74
		S172.855,81.61,172.855,77.29z M173.936,189.966v-85.677c0-3.6,3.06-6.66,6.66-6.66c3.6,0,6.66,3.06,6.66,6.66v85.677
		c0,3.6-3.06,6.66-6.66,6.66C176.995,196.625,173.936,193.565,173.936,189.966z"/>
	<path d="M207.053,189.966v-65.697c0-18,9.359-28.259,25.559-28.259c16.2,0,25.559,10.259,25.559,28.259v65.697
		c0,3.6-3.06,6.66-6.66,6.66c-3.6,0-6.66-3.06-6.66-6.66v-63.538c0-12.419-3.96-18-12.24-18c-8.279,0-12.239,5.58-12.239,18v63.538
		c0,3.6-3.06,6.66-6.66,6.66C210.112,196.625,207.053,193.565,207.053,189.966z"/>
	<path d="M328.946,124.269v84.416c0,13.32-7.38,20.699-20.699,20.699h-24.839c-3.959,0-6.839-2.88-6.839-6.659
		c0-3.78,2.88-6.66,6.839-6.66h24.119c5.22,0,8.1-2.88,8.1-8.1v-13.5c-3.6,2.16-8.1,3.6-12.599,3.6
		c-16.56,0-25.919-10.26-25.919-28.259v-45.538c0-18,9.359-28.259,25.919-28.259C319.586,96.01,328.946,106.269,328.946,124.269z
		 M315.626,167.646v-41.218c0-12.419-3.959-18-12.599-18s-12.6,5.58-12.6,18v41.218c0,12.419,3.96,17.999,12.6,17.999
		C309.867,185.646,315.626,179.346,315.626,167.646z"/>
	<path d="M347.99,203.825l4.14-25.199c0.54-3.06,3.06-5.22,6.66-5.22c4.14,0,6.66,3.42,5.939,7.38l-4.14,25.199
		c-0.54,3.06-3.06,5.22-6.12,5.22C349.79,211.205,347.271,207.785,347.99,203.825z"/>
</g>
<g>
	<path d="M424.909,169.987V99.43c0-18.179,9.719-29.519,27.359-29.519c17.099,0,25.919,10.26,25.919,27.719v2.52
		c0,4.14-3.06,6.66-6.66,6.66c-3.6,0-6.66-2.52-6.66-7.02c0-10.979-3.06-16.919-12.599-16.919c-9,0-13.68,6.12-13.68,18.899v65.877
		c0,12.419,4.14,17.459,13.319,17.459c9.18,0,13.68-5.76,13.68-18.899v-26.819h-9.36c-4.14,0-6.839-3.06-6.839-6.66
		s2.7-6.66,6.839-6.66h14.22c5.04,0,7.74,2.88,7.74,7.919v34.559c0,18.18-9.18,29.519-26.279,29.519
		C434.269,198.066,424.909,188.166,424.909,169.987z"/>
	<path d="M499.067,189.966V70.091c0-3.6,3.06-6.66,6.66-6.66c3.6,0,6.66,3.06,6.66,6.66v119.875c0,3.6-3.06,6.66-6.66,6.66
		C502.127,196.626,499.067,193.566,499.067,189.966z"/>
	<path d="M531.789,169.807v-45.358c0-18,9.359-28.259,25.559-28.259s25.559,10.259,25.559,28.259v45.358
		c0,18-9.359,28.259-25.559,28.259S531.789,187.806,531.789,169.807z M536.828,78.011c0-4.5,3.601-8.1,8.1-8.1
		c4.5,0,8.1,3.6,8.1,8.1s-3.6,8.1-8.1,8.1C540.429,86.11,536.828,82.511,536.828,78.011z M569.587,167.647v-41.039
		c0-12.419-3.96-17.999-12.239-17.999s-12.239,5.58-12.239,17.999v41.039c0,12.419,3.96,18,12.239,18
		S569.587,180.066,569.587,167.647z M561.668,78.011c0-4.5,3.6-8.1,8.1-8.1s8.1,3.6,8.1,8.1s-3.6,8.1-8.1,8.1
		S561.668,82.511,561.668,78.011z"/>
	<path d="M601.59,169.447v-44.639c0-17.999,9.359-28.259,25.56-28.259c16.199,0,23.759,9.18,23.759,21.779v1.8
		c0,3.78-2.34,6.479-6.3,6.479c-3.78,0-6.12-2.7-6.12-6.119v-0.18c0-7.02-3.239-11.339-11.339-11.339
		c-8.28,0-12.24,5.58-12.24,17.999v40.318c0,12.419,3.96,17.999,12.24,17.999c8.279,0,11.339-4.5,11.339-11.339v-0.18
		c0-3.6,2.34-6.479,6.12-6.479c3.96,0,6.3,2.88,6.3,6.3v2.34c0,12.6-7.56,21.779-23.759,21.779
		C610.949,197.706,601.59,187.446,601.59,169.447z"/>
	<path d="M719.668,157.928v32.038c0,3.6-3.061,6.66-6.66,6.66s-6.66-3.06-6.66-6.66v-29.519c0-5.22-2.88-9.899-8.1-9.899h-15.659
		v39.418c0,3.6-3.06,6.66-6.659,6.66c-3.601,0-6.66-3.06-6.66-6.66V70.091c0-3.6,3.06-6.66,6.66-6.66c3.6,0,6.659,3.06,6.659,6.66
		v67.678h13.68c5.22,0,8.46-2.88,8.46-8.1V104.29c0-3.6,3.06-6.66,6.659-6.66s6.66,3.06,6.66,6.66v26.099
		c0,5.939-1.44,10.979-5.04,13.499C717.508,146.228,719.668,151.628,719.668,157.928z"/>
	<path d="M738.604,169.447v-44.639c0-17.999,9.359-28.259,25.559-28.259c16.2,0,23.76,9.18,23.76,21.779v1.8
		c0,3.78-2.34,6.479-6.3,6.479c-3.78,0-6.12-2.7-6.12-6.119v-0.18c0-7.02-3.24-11.339-11.34-11.339
		c-8.279,0-12.239,5.58-12.239,17.999v40.318c0,12.419,3.96,17.999,12.239,17.999c8.28,0,11.34-4.5,11.34-11.339v-0.18
		c0-3.6,2.34-6.479,6.12-6.479c3.96,0,6.3,2.88,6.3,6.3v2.34c0,12.6-7.56,21.779-23.76,21.779
		C747.963,197.706,738.604,187.446,738.604,169.447z"/>
	<path d="M857.401,124.269v65.697c0,3.6-3.061,6.66-6.66,6.66s-6.659-3.06-6.659-6.66v-63.537c0-12.419-3.96-17.999-12.24-17.999
		c-8.279,0-12.239,5.58-12.239,17.999v63.537c0,3.6-3.06,6.66-6.659,6.66c-3.601,0-6.66-3.06-6.66-6.66V70.091
		c0-3.6,3.06-6.66,6.66-6.66c3.6,0,6.659,3.06,6.659,6.66v30.059c3.78-2.52,8.46-4.14,12.96-4.14
		C848.041,96.01,857.401,106.27,857.401,124.269z"/>
	<path d="M889.8,159.547v7.919c0,12.42,3.96,18,12.6,18c8.28,0,11.7-5.4,11.7-12.419v-0.36c0-4.14,2.52-6.839,6.299-6.839
		c3.96,0,6.301,2.7,6.301,6.839v1.62c0,13.5-8.101,23.579-24.3,23.579c-16.56,0-25.919-10.26-25.919-28.259v-44.998
		c0-18,9.359-28.259,25.56-28.259c16.199,0,25.198,10.259,25.198,28.259v23.939c0,7.56-3.239,10.979-10.979,10.979H889.8z
		 M889.8,126.789v19.979h24.479v-19.979c0-12.419-3.96-17.999-12.239-17.999C893.76,108.79,889.8,114.369,889.8,126.789z"/>
	<path d="M945.924,189.966v-65.697c0-17.999,9.359-28.259,25.559-28.259s25.56,10.26,25.56,28.259v65.697c0,3.6-3.06,6.66-6.66,6.66
		c-3.6,0-6.659-3.06-6.659-6.66v-63.537c0-12.419-3.96-17.999-12.24-17.999c-8.279,0-12.239,5.58-12.239,17.999v63.537
		c0,3.6-3.06,6.66-6.659,6.66C948.983,196.626,945.924,193.566,945.924,189.966z"/>
	<path d="M1015.188,203.826l4.14-25.199c0.54-3.06,3.06-5.22,6.66-5.22c4.14,0,6.659,3.42,5.939,7.38l-4.14,25.199
		c-0.54,3.06-3.06,5.22-6.12,5.22C1016.987,211.205,1014.468,207.785,1015.188,203.826z"/>
</g>
<g>
	<path d="M128.705,739.686v37.055c0,4.164-3.539,7.702-7.702,7.702s-7.703-3.538-7.703-7.702V742.6c0-6.037-3.331-11.45-9.368-11.45
		H85.82v45.591c0,4.164-3.539,7.702-7.702,7.702s-7.703-3.538-7.703-7.702V638.096c0-4.164,3.539-7.703,7.703-7.703
		s7.702,3.539,7.702,7.703v78.273h15.822c6.037,0,9.784-3.33,9.784-9.367v-29.354c0-4.163,3.539-7.702,7.703-7.702
		c4.163,0,7.702,3.539,7.702,7.702v30.186c0,6.87-1.665,12.699-5.829,15.613C126.207,726.153,128.705,732.398,128.705,739.686z"/>
	<path d="M151.662,776.74V638.096c0-4.164,3.539-7.703,7.703-7.703s7.703,3.539,7.703,7.703V776.74c0,4.164-3.539,7.702-7.703,7.702
		S151.662,780.904,151.662,776.74z"/>
	<path d="M189.38,646.422c0-4.996,3.955-8.951,8.951-8.951c4.997,0,8.952,3.955,8.952,8.951s-3.955,8.952-8.952,8.952
		C193.335,655.374,189.38,651.418,189.38,646.422z M190.629,776.74v-99.092c0-4.163,3.539-7.702,7.702-7.702
		c4.164,0,7.703,3.539,7.703,7.702v99.092c0,4.164-3.539,7.702-7.703,7.702C194.168,784.442,190.629,780.904,190.629,776.74z"/>
	<path d="M228.929,776.74v-75.984c0-20.817,10.825-32.684,29.561-32.684c18.735,0,29.561,11.866,29.561,32.684v75.984
		c0,4.164-3.539,7.702-7.702,7.702c-4.164,0-7.703-3.538-7.703-7.702v-73.486c0-14.363-4.58-20.817-14.156-20.817
		c-9.576,0-14.156,6.454-14.156,20.817v73.486c0,4.164-3.539,7.702-7.702,7.702C232.468,784.442,228.929,780.904,228.929,776.74z"/>
	<path d="M369.903,700.756v97.635c0,15.404-8.535,23.939-23.94,23.939h-28.728c-4.58,0-7.911-3.33-7.911-7.702
		c0-4.371,3.331-7.702,7.911-7.702h27.896c6.037,0,9.368-3.331,9.368-9.368v-15.613c-4.163,2.498-9.368,4.164-14.572,4.164
		c-19.152,0-29.977-11.866-29.977-32.684v-52.669c0-20.817,10.825-32.684,29.977-32.684
		C359.078,668.072,369.903,679.938,369.903,700.756z M354.498,750.927v-47.673c0-14.363-4.58-20.817-14.572-20.817
		c-9.992,0-14.572,6.454-14.572,20.817v47.673c0,14.364,4.58,20.817,14.572,20.817C347.836,771.744,354.498,764.458,354.498,750.927
		z"/>
	<path d="M407.371,741.559v9.16c0,14.363,4.58,20.817,14.572,20.817c9.576,0,13.531-6.245,13.531-14.364v-0.416
		c0-4.789,2.915-7.911,7.287-7.911c4.58,0,7.286,3.122,7.286,7.911v1.873c0,15.613-9.368,27.271-28.104,27.271
		c-19.152,0-29.977-11.866-29.977-32.684v-52.045c0-20.816,10.825-32.684,29.561-32.684c18.736,0,29.145,11.867,29.145,32.684
		v27.688c0,8.744-3.747,12.699-12.698,12.699H407.371z M407.371,703.671v23.107h28.312v-23.107c0-14.364-4.58-20.817-14.156-20.817
		S407.371,689.307,407.371,703.671z"/>
	<path d="M472.756,776.74V638.096c0-4.164,3.539-7.703,7.702-7.703c4.164,0,7.703,3.539,7.703,7.703V776.74
		c0,4.164-3.539,7.702-7.703,7.702C476.295,784.442,472.756,780.904,472.756,776.74z"/>
	<path d="M510.473,646.422c0-4.996,3.955-8.951,8.952-8.951c4.996,0,8.951,3.955,8.951,8.951s-3.955,8.952-8.951,8.952
		C514.428,655.374,510.473,651.418,510.473,646.422z M511.722,776.74v-99.092c0-4.163,3.539-7.702,7.703-7.702
		c4.163,0,7.702,3.539,7.702,7.702v99.092c0,4.164-3.539,7.702-7.702,7.702C515.261,784.442,511.722,780.904,511.722,776.74z"/>
	<path d="M550.022,776.74v-75.984c0-20.817,10.825-32.684,29.561-32.684c18.736,0,29.562,11.866,29.562,32.684v75.984
		c0,4.164-3.539,7.702-7.703,7.702c-4.163,0-7.702-3.538-7.702-7.702v-73.486c0-14.363-4.58-20.817-14.156-20.817
		c-9.575,0-14.155,6.454-14.155,20.817v73.486c0,4.164-3.539,7.702-7.703,7.702C553.562,784.442,550.022,780.904,550.022,776.74z"/>
	<path d="M690.996,700.756v97.635c0,15.404-8.535,23.939-23.939,23.939h-28.729c-4.58,0-7.911-3.33-7.911-7.702
		c0-4.371,3.331-7.702,7.911-7.702h27.896c6.037,0,9.368-3.331,9.368-9.368v-15.613c-4.164,2.498-9.368,4.164-14.572,4.164
		c-19.152,0-29.978-11.866-29.978-32.684v-52.669c0-20.817,10.825-32.684,29.978-32.684
		C680.171,668.072,690.996,679.938,690.996,700.756z M675.592,750.927v-47.673c0-14.363-4.58-20.817-14.572-20.817
		c-9.993,0-14.572,6.454-14.572,20.817v47.673c0,14.364,4.579,20.817,14.572,20.817C668.93,771.744,675.592,764.458,675.592,750.927
		z"/>
	<path d="M728.464,741.559v9.16c0,14.363,4.58,20.817,14.572,20.817c9.576,0,13.531-6.245,13.531-14.364v-0.416
		c0-4.789,2.915-7.911,7.286-7.911c4.58,0,7.286,3.122,7.286,7.911v1.873c0,15.613-9.368,27.271-28.104,27.271
		c-19.152,0-29.978-11.866-29.978-32.684v-52.045c0-20.816,10.825-32.684,29.562-32.684c18.735,0,29.145,11.867,29.145,32.684
		v27.688c0,8.744-3.747,12.699-12.699,12.699H728.464z M728.464,703.671v23.107h28.312v-23.107c0-14.364-4.579-20.817-14.155-20.817
		S728.464,689.307,728.464,703.671z"/>
	<path d="M793.85,776.74V638.096c0-4.164,3.538-7.703,7.702-7.703c4.163,0,7.702,3.539,7.702,7.703V776.74
		c0,4.164-3.539,7.702-7.702,7.702C797.388,784.442,793.85,780.904,793.85,776.74z"/>
	<path d="M831.566,646.422c0-4.996,3.955-8.951,8.951-8.951s8.952,3.955,8.952,8.951s-3.956,8.952-8.952,8.952
		S831.566,651.418,831.566,646.422z M832.815,776.74v-99.092c0-4.163,3.539-7.702,7.702-7.702c4.164,0,7.703,3.539,7.703,7.702
		v99.092c0,4.164-3.539,7.702-7.703,7.702C836.354,784.442,832.815,780.904,832.815,776.74z"/>
	<path d="M871.115,776.74v-75.984c0-20.817,10.825-32.684,29.562-32.684c18.735,0,29.561,11.866,29.561,32.684v75.984
		c0,4.164-3.539,7.702-7.702,7.702c-4.164,0-7.703-3.538-7.703-7.702v-73.486c0-14.363-4.579-20.817-14.155-20.817
		s-14.156,6.454-14.156,20.817v73.486c0,4.164-3.539,7.702-7.702,7.702C874.654,784.442,871.115,780.904,871.115,776.74z"/>
	<path d="M1012.09,700.756v97.635c0,15.404-8.535,23.939-23.94,23.939h-28.728c-4.58,0-7.911-3.33-7.911-7.702
		c0-4.371,3.331-7.702,7.911-7.702h27.895c6.037,0,9.368-3.331,9.368-9.368v-15.613c-4.163,2.498-9.368,4.164-14.572,4.164
		c-19.152,0-29.978-11.866-29.978-32.684v-52.669c0-20.817,10.825-32.684,29.978-32.684S1012.09,679.938,1012.09,700.756z
		 M996.685,750.927v-47.673c0-14.363-4.579-20.817-14.572-20.817c-9.992,0-14.572,6.454-14.572,20.817v47.673
		c0,14.364,4.58,20.817,14.572,20.817C990.023,771.744,996.685,764.458,996.685,750.927z"/>
</g>
</svg>
