<?xml version="1.0" encoding="utf-8"?>
<!-- Generator: Adobe Illustrator 15.1.0, SVG Export Plug-In . SVG Version: 6.00 Build 0)  -->
<!DOCTYPE svg PUBLIC "-//W3C//DTD SVG 1.1//EN" "http://www.w3.org/Graphics/SVG/1.1/DTD/svg11.dtd">
<svg version="1.1" id="vs_text" xmlns="http://www.w3.org/2000/svg" xmlns:xlink="http://www.w3.org/1999/xlink" x="0px" y="0px"
	 width="1080px" height="1080px" viewBox="0 0 1080 1080" enable-background="new 0 0 1080 1080" xml:space="preserve">
<g>
	<path d="M160.523,341.603L133.911,275.3l-31.022,66.607L57.876,225.573h25.852l22.05,64.782l17.032-42.732l-8.82-22.05h21.898
		l25.091,62.197l19.009-62.197h23.723L160.523,341.603z"/>
	<path d="M253.149,316.055l9.428,15.815c-3.649,2.029-7.503,3.649-11.557,4.866c-4.056,1.217-7.908,1.825-11.557,1.825
		c-7.908,0-14.728-1.497-20.454-4.486c-5.729-2.989-10.063-7.197-13.002-12.622c-2.942-5.422-4.41-11.633-4.41-18.628
		c0-6.487,1.697-12.47,5.094-17.944c3.396-5.475,8.034-9.809,13.915-13.002c5.878-3.194,12.318-4.791,19.313-4.791
		c9.528,0,17.36,2.79,23.495,8.364c6.133,5.577,10.112,13.534,11.938,23.875l-48.663,15.511c3.244,3.751,7.654,5.626,13.23,5.626
		C244.177,320.465,248.587,318.997,253.149,316.055z M226.841,288.53c-2.839,3.246-4.258,7.604-4.258,13.078v1.369l29.197-9.884
		c-2.129-6.285-6.641-9.429-13.534-9.429C233.479,283.664,229.678,285.287,226.841,288.53z"/>
	<path d="M290.588,239.032c2.381-2.077,5.094-3.118,8.136-3.118c2.939,0,5.574,1.041,7.907,3.118
		c2.331,2.079,3.498,4.638,3.498,7.679c0,3.042-1.167,5.577-3.498,7.604c-2.333,2.029-4.968,3.042-7.907,3.042
		c-3.042,0-5.755-1.012-8.136-3.042c-2.383-2.027-3.574-4.562-3.574-7.604C287.014,243.67,288.205,241.111,290.588,239.032z
		 M308.76,270.282v66.455h-21.29v-66.455H308.76z"/>
	<path d="M389.935,272.715c4.206,3.751,6.361,8.516,6.463,14.294v49.727h-21.29v-41.819c-0.304-6.487-3.55-9.732-9.732-9.732
		c-4.866,0-8.77,2.281-11.709,6.843c-2.941,4.562-4.41,10.443-4.41,17.64v27.068h-21.29V216.753H348.8v64.021
		c2.433-4.258,5.803-7.604,10.113-10.037c4.308-2.433,9.402-3.65,15.283-3.65C380.48,267.088,385.727,268.966,389.935,272.715z"/>
	<path d="M477.374,272.715c4.206,3.751,6.361,8.516,6.463,14.294v49.727h-21.29v-41.819c-0.304-6.487-3.55-9.732-9.732-9.732
		c-4.866,0-8.77,2.281-11.709,6.843c-2.941,4.562-4.41,10.443-4.41,17.64v27.068h-21.29v-66.455h19.313l1.521,10.645
		c2.433-4.357,5.803-7.755,10.113-10.188c4.308-2.433,9.402-3.65,15.283-3.65C467.92,267.088,473.166,268.966,477.374,272.715z"/>
	<path d="M575.55,270.282v66.455h-21.29v-8.212c-6.387,6.691-13.788,10.037-22.202,10.037c-9.834,0-17.818-2.939-23.951-8.82
		c-6.135-5.878-9.201-14.599-9.201-26.156c0-7.299,1.495-13.71,4.486-19.237c2.989-5.524,6.969-9.809,11.938-12.85
		c4.966-3.042,10.289-4.562,15.968-4.562c5.878,0,10.542,0.889,13.99,2.661c3.445,1.775,6.487,4.284,9.124,7.527l1.369-6.843H575.55
		z M554.26,311.189v-16.271c-1.216-3.244-3.321-5.829-6.311-7.756c-2.991-1.924-6.516-2.889-10.569-2.889
		c-4.665,0-8.644,1.725-11.938,5.17c-3.295,3.448-4.942,7.808-4.942,13.078c0,3.448,0.81,6.615,2.433,9.504
		c1.621,2.889,3.776,5.146,6.463,6.767c2.686,1.623,5.601,2.433,8.744,2.433C545.54,321.226,550.915,317.88,554.26,311.189z"/>
	<path d="M641.016,336.433c-4.409,1.418-8.743,2.129-13.002,2.129c-11.557,0-20.707-3.117-27.448-9.352
		c-6.743-6.235-10.112-14.827-10.112-25.776c0-7.095,1.646-13.306,4.941-18.629c3.294-5.322,7.628-9.376,13.002-12.166
		c5.373-2.787,11.151-4.182,17.337-4.182c11.049,0,20.021,2.942,26.916,8.82l-10.341,13.686c-4.359-3.445-9.227-5.17-14.599-5.17
		c-4.462,0-8.237,1.673-11.329,5.019c-3.094,3.346-4.639,7.554-4.639,12.622c0,5.07,1.673,9.302,5.019,12.698
		c3.346,3.398,7.704,5.094,13.078,5.094c4.662,0,8.517-1.267,11.558-3.802l10.645,13.382
		C649.1,333.139,645.426,335.014,641.016,336.433z"/>
	<path d="M726.949,272.715c4.206,3.751,6.361,8.516,6.463,14.294v49.727h-21.289v-41.819c-0.305-6.487-3.551-9.732-9.732-9.732
		c-4.867,0-8.771,2.281-11.71,6.843c-2.941,4.562-4.41,10.443-4.41,17.64v27.068h-21.29V216.753h20.834v64.021
		c2.434-4.258,5.803-7.604,10.113-10.037c4.308-2.433,9.401-3.65,15.282-3.65C717.495,267.088,722.741,268.966,726.949,272.715z"/>
	<path d="M778.182,241.084v28.894h16.119v16.576h-16.119v50.183h-21.29v-50.183h-10.341v-16.576h10.341v-28.894H778.182z"/>
	<path d="M854.322,316.055l9.429,15.815c-3.65,2.029-7.504,3.649-11.558,4.866c-4.057,1.217-7.908,1.825-11.558,1.825
		c-7.907,0-14.727-1.497-20.453-4.486c-5.729-2.989-10.063-7.197-13.002-12.622c-2.942-5.422-4.41-11.633-4.41-18.628
		c0-6.487,1.696-12.47,5.095-17.944c3.395-5.475,8.033-9.809,13.914-13.002c5.879-3.194,12.317-4.791,19.313-4.791
		c9.528,0,17.36,2.79,23.495,8.364c6.133,5.577,10.112,13.534,11.938,23.875l-48.662,15.511c3.243,3.751,7.653,5.626,13.229,5.626
		C845.35,320.465,849.76,318.997,854.322,316.055z M828.014,288.53c-2.839,3.246-4.258,7.604-4.258,13.078v1.369l29.197-9.884
		c-2.129-6.285-6.641-9.429-13.533-9.429C834.652,283.664,830.852,285.287,828.014,288.53z"/>
	<path d="M950.612,272.715c4.206,3.751,6.36,8.516,6.463,14.294v49.727h-21.29v-41.819c-0.304-6.487-3.55-9.732-9.732-9.732
		c-4.866,0-8.77,2.281-11.709,6.843c-2.941,4.562-4.41,10.443-4.41,17.64v27.068h-21.29v-66.455h19.313l1.521,10.645
		c2.433-4.357,5.802-7.755,10.112-10.188c4.309-2.433,9.402-3.65,15.283-3.65C941.158,267.088,946.404,268.966,950.612,272.715z"/>
	<path d="M982.805,298.719c0-6.691,1.114-12.038,3.346-16.043c2.229-4.004,5.372-7.984,9.428-11.938
		c3.65-3.346,6.312-6.183,7.984-8.516c1.673-2.331,2.509-5.27,2.509-8.82c0-3.042-1.091-5.551-3.27-7.528
		c-2.181-1.977-4.538-2.965-7.071-2.965c-3.953,0-7.098,1.269-9.428,3.802c-2.334,2.536-4.36,5.931-6.083,10.189l-17.488-8.212
		c1.013-3.346,2.837-6.943,5.475-10.797c2.635-3.852,6.437-7.273,11.405-10.265c4.966-2.989,10.999-4.486,18.096-4.486
		c9.225,0,16.702,2.333,22.431,6.995c5.727,4.665,8.593,11.762,8.593,21.29c0,6.591-1.041,11.762-3.118,15.511
		c-2.079,3.752-4.334,6.819-6.767,9.2c-2.434,2.383-4.006,3.93-4.715,4.638c-3.245,3.246-5.729,6.539-7.451,9.885
		c-1.725,3.345-2.585,7.656-2.585,12.926v3.193h-21.29V298.719z M984.478,335.9c-2.333-1.977-3.498-4.586-3.498-7.832
		c0-3.141,1.19-5.779,3.574-7.908c2.381-2.129,5.346-3.193,8.896-3.193c3.548,0,6.463,1.064,8.744,3.193s3.422,4.767,3.422,7.908
		c0,3.246-1.117,5.854-3.346,7.832c-2.23,1.977-5.17,2.965-8.82,2.965C989.8,338.866,986.809,337.877,984.478,335.9z"/>
</g>
<g>
	<path d="M83.294,155.227c-2.109,3.994-5.033,7.062-8.772,9.204c-3.739,2.141-8.005,3.274-12.799,3.403v-9.012
		c4.729-0.256,8.484-1.902,11.265-4.938c2.78-3.035,4.17-7.43,4.17-13.182V84.235h9.299v56.755
		C86.458,146.487,85.403,151.233,83.294,155.227z"/>
	<path d="M143.94,113.859v39.69h-8.916v-6.519c-1.406,1.854-3.451,3.563-6.136,5.129c-2.684,1.565-5.721,2.349-9.107,2.349
		c-3.771,0-7.175-0.814-10.21-2.444c-3.036-1.63-5.433-4.01-7.19-7.143c-1.759-3.13-2.636-6.87-2.636-11.217
		c0-4.345,0.911-8.132,2.732-11.36c1.822-3.227,4.281-5.719,7.382-7.478c3.099-1.757,6.534-2.636,10.306-2.636
		c3.387,0,6.327,0.735,8.82,2.205c2.493,1.471,4.506,3.388,6.04,5.752l0.671-6.327H143.94z M130.566,144.393
		c2.333-1.821,3.818-4.297,4.458-7.43v-7.861c-0.767-2.812-2.365-5.096-4.793-6.854c-2.43-1.757-5.21-2.637-8.341-2.637
		c-2.365,0-4.554,0.575-6.567,1.726c-2.013,1.15-3.611,2.766-4.793,4.842c-1.183,2.078-1.773,4.426-1.773,7.046
		c0,2.557,0.607,4.889,1.822,6.999c1.213,2.109,2.843,3.787,4.889,5.033c2.044,1.247,4.281,1.87,6.71,1.87
		C125.438,147.125,128.233,146.215,130.566,144.393z"/>
	<path d="M161.062,158.534l-2.78,6.711h-7.286l2.493-6.711c2.876-7.732,4.537-12.207,4.985-13.422h8.148L161.062,158.534z"/>
	<path d="M211.104,96.027c1.086-0.958,2.332-1.438,3.739-1.438c1.405,0,2.636,0.479,3.691,1.438
		c1.055,0.959,1.582,2.142,1.582,3.547c0,1.407-0.527,2.588-1.582,3.547c-1.055,0.958-2.286,1.438-3.691,1.438
		c-1.407,0-2.653-0.479-3.739-1.438c-1.088-0.959-1.63-2.141-1.63-3.547C209.475,98.169,210.017,96.986,211.104,96.027z
		 M219.062,113.859v39.69h-8.916v-39.69H219.062z"/>
	<path d="M235.233,152.878c-2.652-1.022-4.81-2.524-6.471-4.506l3.835-5.177c1.597,1.534,3.274,2.717,5.033,3.547
		c1.757,0.831,3.5,1.246,5.225,1.246c2.109,0,3.835-0.415,5.177-1.246c1.342-0.83,2.014-2.109,2.014-3.835
		c0-1.342-0.417-2.428-1.247-3.259c-0.832-0.83-1.774-1.438-2.828-1.822c-1.055-0.383-2.828-0.958-5.321-1.726
		c-6.775-2.172-10.162-6.04-10.162-11.6c0-3.323,1.229-6.167,3.691-8.533c2.459-2.364,5.896-3.547,10.306-3.547
		c2.812,0,5.304,0.352,7.478,1.054c2.172,0.704,4.186,1.822,6.04,3.355l-3.547,5.465c-1.023-1.086-2.317-1.949-3.882-2.588
		c-1.567-0.638-3.053-0.99-4.458-1.055c-1.79,0-3.324,0.431-4.602,1.294c-1.279,0.863-1.917,2.03-1.917,3.5
		c0,1.215,0.415,2.221,1.246,3.02c0.83,0.8,1.693,1.375,2.589,1.726c0.895,0.352,2.651,0.944,5.272,1.773
		c3.26,1.087,5.8,2.493,7.622,4.218c1.821,1.726,2.732,4.06,2.732,6.999c0,3.835-1.343,6.999-4.027,9.491s-6.488,3.739-11.409,3.739
		C240.682,154.412,237.885,153.899,235.233,152.878z"/>
	<path d="M282.659,96.411v17.544h10.833v7.094h-10.833v32.5h-9.012v-32.5h-7.286v-7.094h7.286V96.411H282.659z"/>
	<path d="M377.952,79.25v74.299h-9.012v-6.231c-1.918,2.238-4.267,3.995-7.047,5.273c-2.78,1.277-5.833,1.917-9.155,1.917
		c-3.708,0-7.063-0.896-10.066-2.684c-3.005-1.789-5.354-4.298-7.046-7.526c-1.694-3.227-2.541-6.951-2.541-11.169
		c0-4.281,0.895-8.005,2.685-11.168c1.788-3.164,4.25-5.576,7.382-7.238c3.131-1.661,6.678-2.493,10.642-2.493
		c3.003,0,5.896,0.623,8.676,1.87c2.78,1.246,4.969,2.957,6.567,5.129V79.25H377.952z M364.291,144.058
		c2.397-1.853,3.946-4.346,4.65-7.478v-7.478c-0.768-2.876-2.397-5.225-4.89-7.046c-2.493-1.822-5.337-2.732-8.532-2.732
		c-2.43,0-4.666,0.592-6.711,1.774c-2.046,1.183-3.676,2.813-4.89,4.889c-1.215,2.078-1.821,4.426-1.821,7.046
		c0,2.557,0.606,4.889,1.821,6.999c1.214,2.109,2.843,3.772,4.89,4.985c2.045,1.215,4.281,1.821,6.711,1.821
		C358.97,146.838,361.894,145.912,364.291,144.058z"/>
	<path d="M420.21,143.387l4.122,6.615c-2.109,1.407-4.395,2.509-6.854,3.308c-2.461,0.798-4.841,1.198-7.143,1.198
		c-4.41,0-8.261-0.911-11.552-2.732c-3.293-1.822-5.833-4.329-7.622-7.526c-1.79-3.195-2.684-6.807-2.684-10.833
		c0-3.897,0.974-7.461,2.924-10.689c1.949-3.227,4.617-5.784,8.005-7.669c3.387-1.884,7.094-2.828,11.121-2.828
		c5.177,0,9.506,1.519,12.99,4.554c3.482,3.037,5.863,7.271,7.142,12.703l-31.445,11.025c1.15,1.981,2.7,3.532,4.65,4.649
		c1.949,1.119,4.17,1.678,6.663,1.678C413.85,146.838,417.078,145.688,420.21,143.387z M400.844,123.158
		c-2.366,2.557-3.547,5.816-3.547,9.779c0,0.958,0.031,1.694,0.096,2.205l23.105-8.533c-0.958-2.172-2.317-3.931-4.075-5.273
		c-1.759-1.342-3.947-2.013-6.567-2.013C406.213,119.323,403.208,120.603,400.844,123.158z"/>
	<path d="M473.282,115.632c2.428,2.205,3.674,5.066,3.739,8.581v29.336h-9.012v-26.268c-0.129-2.237-0.8-3.994-2.013-5.273
		c-1.215-1.278-3.037-1.949-5.465-2.013c-3.516,0-6.423,1.406-8.724,4.218c-2.301,2.813-3.451,6.392-3.451,10.737v18.599h-8.916
		v-39.69h8.053l0.575,7.669c1.405-2.876,3.514-5.129,6.327-6.759c2.812-1.63,6.04-2.445,9.683-2.445
		C467.784,112.325,470.853,113.427,473.282,115.632z"/>
	<path d="M524.141,115.632c2.428,2.205,3.674,5.066,3.739,8.581v29.336h-9.012v-26.268c-0.129-2.237-0.8-3.994-2.013-5.273
		c-1.215-1.278-3.037-1.949-5.465-2.013c-3.516,0-6.423,1.406-8.724,4.218c-2.301,2.813-3.451,6.392-3.451,10.737v18.599h-8.916
		v-39.69h8.053l0.575,7.669c1.405-2.876,3.514-5.129,6.327-6.759c2.812-1.63,6.04-2.445,9.683-2.445
		C518.643,112.325,521.711,113.427,524.141,115.632z"/>
	<path d="M609.367,115.632c2.429,2.205,3.675,5.066,3.739,8.581v29.336h-9.012v-26.268c-0.129-2.237-0.8-3.994-2.014-5.273
		c-1.215-1.278-3.036-1.949-5.464-2.013c-2.301,0-4.379,0.64-6.232,1.917c-1.854,1.279-3.307,3.068-4.361,5.369
		c-1.055,2.301-1.582,4.858-1.582,7.669v18.599h-8.916V79.25h8.725v41.799c1.469-2.62,3.595-4.729,6.375-6.327
		c2.78-1.597,5.959-2.397,9.539-2.397C603.87,112.325,606.938,113.427,609.367,115.632z"/>
	<path d="M655.26,143.387l4.122,6.615c-2.108,1.407-4.395,2.509-6.854,3.308c-2.461,0.798-4.842,1.198-7.143,1.198
		c-4.41,0-8.261-0.911-11.552-2.732c-3.293-1.822-5.833-4.329-7.622-7.526c-1.79-3.195-2.684-6.807-2.684-10.833
		c0-3.897,0.973-7.461,2.924-10.689c1.948-3.227,4.616-5.784,8.005-7.669c3.387-1.884,7.095-2.828,11.121-2.828
		c5.177,0,9.506,1.519,12.99,4.554c3.482,3.037,5.862,7.271,7.142,12.703l-31.445,11.025c1.15,1.981,2.7,3.532,4.65,4.649
		c1.949,1.119,4.17,1.678,6.663,1.678C648.899,146.838,652.127,145.688,655.26,143.387z M635.895,123.158
		c-2.366,2.557-3.548,5.816-3.548,9.779c0,0.958,0.031,1.694,0.096,2.205l23.104-8.533c-0.958-2.172-2.316-3.931-4.074-5.273
		c-1.759-1.342-3.947-2.013-6.566-2.013C641.263,119.323,638.258,120.603,635.895,123.158z"/>
	<path d="M711.4,113.859v39.69h-8.054l-0.575-7.574c-1.342,2.685-3.42,4.875-6.231,6.567c-2.813,1.693-5.944,2.541-9.396,2.541
		c-3.643,0-6.631-1.102-8.963-3.307c-2.334-2.205-3.564-5.065-3.691-8.581v-29.336h8.916v26.172
		c0.127,2.238,0.781,4.012,1.965,5.321c1.182,1.311,2.955,1.998,5.321,2.061c2.172,0,4.153-0.654,5.943-1.965
		c1.789-1.309,3.212-3.116,4.267-5.417s1.582-4.856,1.582-7.669v-18.503H711.4z"/>
	<path d="M737.188,96.411v17.544h10.833v7.094h-10.833v32.5h-9.012v-32.5h-7.286v-7.094h7.286V96.411H737.188z"/>
	<path d="M793.894,152.878c-2.653-1.022-4.81-2.524-6.472-4.506l3.835-5.177c1.597,1.534,3.274,2.717,5.033,3.547
		c1.757,0.831,3.499,1.246,5.226,1.246c2.108,0,3.834-0.415,5.176-1.246c1.343-0.83,2.014-2.109,2.014-3.835
		c0-1.342-0.416-2.428-1.246-3.259c-0.831-0.83-1.773-1.438-2.828-1.822s-2.828-0.958-5.32-1.726
		c-6.775-2.172-10.162-6.04-10.162-11.6c0-3.323,1.229-6.167,3.69-8.533c2.46-2.364,5.896-3.547,10.306-3.547
		c2.813,0,5.305,0.352,7.479,1.054c2.172,0.704,4.185,1.822,6.039,3.355l-3.547,5.465c-1.023-1.086-2.317-1.949-3.883-2.588
		c-1.566-0.638-3.053-0.99-4.458-1.055c-1.79,0-3.323,0.431-4.602,1.294c-1.279,0.863-1.917,2.03-1.917,3.5
		c0,1.215,0.414,2.221,1.246,3.02c0.83,0.8,1.692,1.375,2.588,1.726c0.895,0.352,2.652,0.944,5.273,1.773
		c3.26,1.087,5.8,2.493,7.621,4.218c1.822,1.726,2.732,4.06,2.732,6.999c0,3.835-1.342,6.999-4.026,9.491s-6.487,3.739-11.408,3.739
		C799.342,154.412,796.545,153.899,793.894,152.878z"/>
	<path d="M854.674,153.261c-2.461,0.83-4.971,1.246-7.525,1.246c-4.283,0-8.07-0.863-11.361-2.588
		c-3.292-1.726-5.848-4.17-7.67-7.334c-1.821-3.164-2.731-6.822-2.731-10.977c0-4.089,0.958-7.717,2.876-10.881
		c1.917-3.164,4.473-5.608,7.67-7.334c3.194-1.726,6.646-2.588,10.354-2.588c6.071,0,11.088,1.663,15.051,4.985l-4.506,5.848
		c-1.278-0.959-2.748-1.774-4.409-2.445c-1.663-0.671-3.452-1.007-5.369-1.007c-2.365,0-4.522,0.592-6.471,1.774
		c-1.95,1.183-3.484,2.796-4.603,4.841c-1.118,2.046-1.678,4.314-1.678,6.807s0.591,4.762,1.774,6.807
		c1.182,2.046,2.795,3.676,4.841,4.89c2.045,1.215,4.377,1.821,6.999,1.821c3.259,0,6.103-0.958,8.532-2.876l4.602,5.561
		C859.259,151.281,857.133,152.431,854.674,153.261z"/>
	<path d="M904.056,115.632c2.428,2.205,3.675,5.066,3.739,8.581v29.336h-9.012v-26.268c-0.129-2.237-0.801-3.994-2.014-5.273
		c-1.215-1.278-3.037-1.949-5.465-2.013c-2.301,0-4.379,0.64-6.231,1.917c-1.854,1.279-3.308,3.068-4.362,5.369
		c-1.055,2.301-1.582,4.858-1.582,7.669v18.599h-8.916V79.25h8.725v41.799c1.47-2.62,3.596-4.729,6.375-6.327
		c2.78-1.597,5.959-2.397,9.539-2.397C898.558,112.325,901.626,113.427,904.056,115.632z"/>
	<path d="M921.043,122.631c1.885-3.227,4.506-5.767,7.861-7.622c3.355-1.853,7.143-2.78,11.36-2.78c4.219,0,7.973,0.927,11.265,2.78
		c3.291,1.854,5.848,4.378,7.67,7.574c1.821,3.197,2.732,6.775,2.732,10.737c0,3.964-0.911,7.559-2.732,10.785
		c-1.822,3.229-4.396,5.769-7.718,7.622c-3.324,1.853-7.127,2.78-11.408,2.78c-4.155,0-7.895-0.879-11.217-2.636
		c-3.324-1.757-5.929-4.233-7.813-7.43c-1.886-3.195-2.828-6.903-2.828-11.121C918.215,129.423,919.157,125.859,921.043,122.631z
		 M928.904,140.319c1.117,2.109,2.651,3.772,4.602,4.985c1.949,1.215,4.105,1.821,6.472,1.821c3.706,0,6.773-1.309,9.203-3.931
		c2.429-2.62,3.644-5.879,3.644-9.779c0-3.897-1.215-7.173-3.644-9.827c-2.43-2.651-5.497-3.979-9.203-3.979
		c-2.431,0-4.603,0.623-6.52,1.87c-1.917,1.246-3.437,2.924-4.554,5.033c-1.119,2.109-1.678,4.41-1.678,6.902
		C927.227,135.909,927.785,138.209,928.904,140.319z"/>
	<path d="M1006.194,115.632c2.428,2.205,3.675,5.066,3.739,8.581v29.336h-9.012v-26.268c-0.129-2.237-0.801-3.994-2.014-5.273
		c-1.215-1.278-3.037-1.949-5.465-2.013c-3.516,0-6.423,1.406-8.725,4.218c-2.301,2.813-3.451,6.392-3.451,10.737v18.599h-8.916
		v-39.69h8.054l0.575,7.669c1.405-2.876,3.514-5.129,6.327-6.759c2.812-1.63,6.04-2.445,9.683-2.445
		C1000.696,112.325,1003.765,113.427,1006.194,115.632z"/>
</g>
</svg>
