<?xml version="1.0" encoding="utf-8"?>
<!-- Generator: Adobe Illustrator 15.1.0, SVG Export Plug-In . SVG Version: 6.00 Build 0)  -->
<!DOCTYPE svg PUBLIC "-//W3C//DTD SVG 1.1//EN" "http://www.w3.org/Graphics/SVG/1.1/DTD/svg11.dtd">
<svg version="1.1" id="vs_text" xmlns="http://www.w3.org/2000/svg" xmlns:xlink="http://www.w3.org/1999/xlink" x="0px" y="0px"
	 width="1080px" height="1080px" viewBox="0 0 1080 1080" enable-background="new 0 0 1080 1080" xml:space="preserve">
<g>
	<path d="M157.869,127.501h25.16V241.4h-25.16V127.501z M190.509,134.981v-7.48h25.16v32.47
		C201.729,159.971,190.509,148.751,190.509,134.981z M190.509,171.871h25.16v24.99C201.729,196.86,190.509,185.641,190.509,171.871z
		 M190.509,233.75c0-13.77,11.22-24.99,25.16-24.99v32.64h-25.16V233.75z"/>
	<path d="M225.716,184.791v-7.48c0-13.77,11.22-25.16,25.16-25.16v57.629C236.936,209.78,225.716,198.561,225.716,184.791z
		 M225.716,216.41h25.16v24.99C236.936,241.4,225.716,230.18,225.716,216.41z M260.055,152.151c13.94,0,25.16,11.22,25.16,24.99
		h-25.16V152.151z M260.055,183.771c13.94,0,25.16,11.22,25.16,24.99v7.48c0,13.77-11.22,25.16-25.16,25.16V183.771z"/>
	<path d="M334.513,138.891c0-13.77,11.39-24.99,25.16-24.99V241.4h-25.16V138.891z M368.853,152.151h25.16
		c0,13.77-11.22,24.99-25.16,24.99V152.151z M368.853,183.771c13.94,0,25.16,11.22,25.16,24.99v32.64h-25.16V183.771z"/>
	<path d="M428.997,152.151v24.99h-25.16C403.837,163.371,415.057,152.151,428.997,152.151z M403.837,216.24v-7.48
		c0-13.77,11.22-24.99,25.16-24.99V241.4C415.057,241.4,403.837,230.01,403.837,216.24z M438.177,152.151
		c13.77,0,25.16,11.39,25.16,25.33v38.93c0,13.77-11.39,24.99-25.16,24.99V152.151z"/>
	<path d="M474.062,152.151h25.16V241.4h-25.16V152.151z M508.401,152.151c13.77,0,25.16,11.22,25.16,24.99V241.4h-25.16V152.151z"/>
	<path d="M545.052,152.151h25.159V241.4h-25.159V152.151z M579.392,152.151c13.77,0,25.159,11.22,25.159,24.99V241.4h-25.159
		V152.151z"/>
	<path d="M157.019,296.151h25.16V385.4h-25.16V296.151z M191.358,296.151c13.77,0,25.16,11.22,25.16,24.99V385.4h-25.16V296.151z"/>
	<path d="M227.244,360.41v-64.259h25.16V385.4C238.634,385.4,227.244,374.18,227.244,360.41z M261.583,296.151h25.16v64.259
		c0,13.77-11.39,24.99-25.16,24.99V296.151z"/>
	<path d="M298.167,296.151h25.16V385.4h-25.16V296.151z M332.507,296.151c13.77,0,25.16,11.39,25.16,25.33v13.09h-25.16V296.151z"/>
</g>
<g>
	<path d="M156.903,625.051V432.323h47.46v240.509C178.389,672.832,156.903,651.347,156.903,625.051z M221.68,504.476
		c25.975,0,47.46,21.165,47.46,47.14v73.436c0,26.296-21.485,47.781-47.46,47.781V504.476z"/>
	<path d="M286.651,625.051v-73.436c0-25.975,21.485-47.14,47.46-47.14v168.356C308.137,672.832,286.651,651.347,286.651,625.051z
		 M351.428,504.476c26.296,0,47.46,21.485,47.46,47.46v14.11c0,25.976-21.165,47.14-47.46,47.14V504.476z M351.428,625.692h47.46
		c0,25.975-21.165,47.14-47.46,47.14V625.692z"/>
	<path d="M416.396,566.046v-14.11c0-25.975,21.165-47.46,47.46-47.46v108.71C437.561,613.186,416.396,592.021,416.396,566.046z
		 M416.396,625.692h47.46v47.14C437.561,672.832,416.396,651.667,416.396,625.692z M481.173,504.476
		c26.295,0,47.46,21.165,47.46,47.14h-47.46V504.476z M481.173,564.122c26.295,0,47.46,21.165,47.46,47.14v14.109
		c0,25.976-21.165,47.461-47.46,47.461V564.122z"/>
	<path d="M546.141,566.046v-14.11c0-25.975,21.165-47.46,47.461-47.46v108.71C567.306,613.186,546.141,592.021,546.141,566.046z
		 M546.141,625.692h47.461v47.14C567.306,672.832,546.141,651.667,546.141,625.692z M610.918,504.476
		c26.296,0,47.461,21.165,47.461,47.14h-47.461V504.476z M610.918,564.122c26.296,0,47.461,21.165,47.461,47.14v14.109
		c0,25.976-21.165,47.461-47.461,47.461V564.122z"/>
	<path d="M675.886,625.051v-73.436c0-25.975,21.485-47.14,47.461-47.14v168.356C697.371,672.832,675.886,651.347,675.886,625.051z
		 M740.663,504.476c26.296,0,47.46,21.485,47.46,47.46v14.11c0,25.976-21.164,47.14-47.46,47.14V504.476z M740.663,625.692h47.46
		c0,25.975-21.164,47.14-47.46,47.14V625.692z"/>
	<path d="M807.074,504.476h47.46v168.356h-47.46V504.476z M871.851,504.476c25.976,0,47.461,21.485,47.461,47.781v24.692h-47.461
		V504.476z"/>
</g>
<g>
	<path d="M481.194,752.35c13.77,0,25.16,11.22,25.16,24.99v64.259h-25.16V752.35z M515.534,752.35c13.77,0,25.16,11.22,25.16,24.99
		v64.259h-25.16V752.35z M549.873,752.35h25.16v64.26c0,13.77-11.39,24.989-25.16,24.989V752.35z"/>
	<path d="M585.268,816.27v-38.93c0-13.771,11.39-24.99,25.159-24.99v89.249C596.657,841.599,585.268,830.209,585.268,816.27z
		 M619.606,752.35c13.94,0,25.16,11.39,25.16,25.16v7.479c0,13.77-11.22,24.989-25.16,24.989V752.35z M619.606,816.609h25.16
		c0,13.77-11.22,24.989-25.16,24.989V816.609z"/>
	<path d="M654.813,752.35h25.16v89.249h-25.16V752.35z M689.152,752.35c13.77,0,25.159,11.39,25.159,25.33v13.09h-25.159V752.35z"/>
	<path d="M723.594,816.27v-38.93c0-13.771,11.391-24.99,25.16-24.99v89.249C734.984,841.599,723.594,830.209,723.594,816.27z
		 M757.934,714.1h25.16v102.17c0,13.939-11.391,25.329-25.16,25.329V714.1z"/>
	<path d="M793.515,816.27v-38.93c0-13.771,11.39-24.99,25.16-24.99v89.249C804.904,841.599,793.515,830.209,793.515,816.27z
		 M827.854,752.35c13.939,0,25.159,11.39,25.159,25.16v7.479c0,13.77-11.22,24.989-25.159,24.989V752.35z M827.854,816.609h25.159
		c0,13.77-11.22,24.989-25.159,24.989V816.609z"/>
	<path d="M863.06,752.35h25.16v89.249h-25.16V752.35z M897.399,752.35c13.77,0,25.159,11.22,25.159,24.99v64.259h-25.159V752.35z"/>
</g>
</svg>
