<?xml version="1.0" encoding="utf-8"?>
<!-- Generator: Adobe Illustrator 15.1.0, SVG Export Plug-In . SVG Version: 6.00 Build 0)  -->
<!DOCTYPE svg PUBLIC "-//W3C//DTD SVG 1.1//EN" "http://www.w3.org/Graphics/SVG/1.1/DTD/svg11.dtd">
<svg version="1.1" id="vs_text" xmlns="http://www.w3.org/2000/svg" xmlns:xlink="http://www.w3.org/1999/xlink" x="0px" y="0px"
	 width="1080px" height="1080px" viewBox="0 0 1080 1080" enable-background="new 0 0 1080 1080" xml:space="preserve">
<g>
	<path d="M40.688,486.033h32.339c19.424,0,34.019,12.18,34.019,37.063c0,21.734-11.129,37.904-34.019,37.904H40.688V486.033z
		 M57.172,547.141h14.7c9.554,0,18.689-5.881,18.689-22.469c0-15.121-5.25-24.779-21.629-24.779H57.172V547.141z"/>
	<path d="M116.802,523.41c0.84-13.963,13.334-18.164,25.514-18.164c10.814,0,23.834,2.416,23.834,15.436v28.244
		c0,4.934,0.525,9.869,1.89,12.074h-15.119c-0.525-1.68-0.945-3.465-1.05-5.25c-4.725,4.934-11.655,6.719-18.27,6.719
		c-10.29,0-18.479-5.145-18.479-16.273c0-12.285,9.24-15.225,18.479-16.484c9.135-1.365,17.64-1.051,17.64-7.141
		c0-6.404-4.41-7.35-9.66-7.35c-5.669,0-9.344,2.311-9.869,8.189H116.802z M151.241,534.436c-2.52,2.205-7.77,2.311-12.39,3.15
		c-4.62,0.945-8.82,2.52-8.82,7.979c0,5.566,4.305,6.93,9.135,6.93c11.655,0,12.075-9.238,12.075-12.494V534.436z"/>
	<path d="M190.259,543.359c0.105,6.51,5.564,9.135,11.444,9.135c4.305,0,9.765-1.68,9.765-6.93c0-4.514-6.194-6.09-16.904-8.398
		c-8.609-1.891-17.219-4.936-17.219-14.49c0-13.859,11.97-17.43,23.624-17.43c11.865,0,22.784,3.99,23.939,17.324h-14.174
		c-0.42-5.773-4.83-7.35-10.185-7.35c-3.36,0-8.294,0.631-8.294,5.041c0,5.354,8.399,6.09,16.904,8.084
		c8.714,1.994,17.219,5.145,17.219,15.225c0,14.279-12.39,18.898-24.779,18.898c-12.6,0-24.884-4.725-25.514-19.109H190.259z"/>
	<path d="M330.535,561h-15.329l-9.66-36.434h-0.21L296.097,561h-15.435l-17.219-54.283h15.749l9.975,36.854h0.21l9.03-36.854h14.489
		l9.24,36.748h0.21l9.975-36.748h15.329L330.535,561z"/>
	<path d="M370.311,498.316h-14.909v-12.283h14.909V498.316z M355.401,506.717h14.909V561h-14.909V506.717z"/>
	<path d="M383.152,506.717h14.175v10.08h0.21c2.729-6.826,10.079-11.551,17.324-11.551c1.05,0,2.31,0.211,3.255,0.525v13.859
		c-1.365-0.314-3.57-0.525-5.355-0.525c-10.919,0-14.699,7.875-14.699,17.43V561h-14.91V506.717z"/>
	<path d="M464.242,554.07h-0.21c-3.465,5.879-9.554,8.398-16.484,8.398c-16.379,0-24.359-14.068-24.359-29.084
		c0-14.594,8.084-28.139,24.044-28.139c6.404,0,12.704,2.73,16.064,8.086h0.21v-27.299h14.909V561h-14.174V554.07z M451.222,516.48
		c-9.765,0-13.125,8.4-13.125,17.324c0,8.506,3.885,17.43,13.125,17.43c9.87,0,12.809-8.609,12.809-17.533
		C464.031,524.881,460.882,516.48,451.222,516.48z"/>
	<path d="M523.462,506.717h14.069v7.35h0.21c3.885-5.564,9.555-8.82,16.589-8.82c6.825,0,12.915,2.521,15.854,9.031
		c3.15-4.727,8.819-9.031,16.379-9.031c11.55,0,19.845,5.355,19.845,19.426V561H591.5v-30.764c0-7.246-0.631-13.23-9.135-13.23
		c-8.4,0-9.975,6.93-9.975,13.756V561h-14.91v-30.449c0-6.299,0.42-13.545-9.029-13.545c-2.939,0-10.08,1.891-10.08,12.494V561
		h-14.909V506.717z"/>
	<path d="M631.611,537.48c0.42,9.449,5.039,13.754,13.334,13.754c5.984,0,10.814-3.674,11.76-7.033h13.124
		c-4.2,12.809-13.124,18.268-25.409,18.268c-17.114,0-27.719-11.76-27.719-28.559c0-16.273,11.234-28.664,27.719-28.664
		c18.479,0,27.404,15.541,26.354,32.234H631.611z M655.865,528.031c-1.365-7.561-4.62-11.551-11.865-11.551
		c-9.449,0-12.18,7.35-12.389,11.551H655.865z"/>
	<path d="M695.723,498.316h-14.909v-12.283h14.909V498.316z M680.813,506.717h14.909V561h-14.909V506.717z"/>
	<path d="M708.564,506.717h14.174v7.561h0.315c3.78-6.09,10.29-9.031,16.589-9.031c15.854,0,19.845,8.926,19.845,22.365V561h-14.909
		v-30.66c0-8.924-2.625-13.334-9.555-13.334c-8.085,0-11.55,4.516-11.55,15.539V561h-14.909V506.717z"/>
	<path d="M849.682,537.375c0,9.66-2.625,25.41-24.99,25.41c-12.494,0-24.674-6.826-24.674-23.205v-6.51h14.91v3.359
		c0,7.246,1.785,12.496,9.555,12.496c8.715,0,8.715-7.035,8.715-12.285v-50.607h16.484V537.375z"/>
	<path d="M862.272,523.41c0.84-13.963,13.335-18.164,25.514-18.164c10.814,0,23.834,2.416,23.834,15.436v28.244
		c0,4.934,0.525,9.869,1.89,12.074h-15.119c-0.525-1.68-0.945-3.465-1.05-5.25c-4.725,4.934-11.654,6.719-18.269,6.719
		c-10.29,0-18.48-5.145-18.48-16.273c0-12.285,9.24-15.225,18.48-16.484c9.134-1.365,17.639-1.051,17.639-7.141
		c0-6.404-4.41-7.35-9.66-7.35c-5.669,0-9.344,2.311-9.869,8.189H862.272z M896.711,534.436c-2.52,2.205-7.77,2.311-12.39,3.15
		c-4.62,0.945-8.819,2.52-8.819,7.979c0,5.566,4.305,6.93,9.135,6.93c11.654,0,12.074-9.238,12.074-12.494V534.436z"/>
	<path d="M924.557,486.033h14.91v28.244h0.314c3.78-6.09,10.29-9.031,15.854-9.031c15.854,0,19.845,8.926,19.845,22.365V561h-14.91
		v-30.66c0-8.924-2.625-13.334-9.555-13.334c-8.084,0-11.549,4.516-11.549,15.539V561h-14.91V486.033z"/>
	<path d="M988.165,506.717h14.175v10.08h0.209c2.73-6.826,10.08-11.551,17.324-11.551c1.051,0,2.311,0.211,3.256,0.525v13.859
		c-1.365-0.314-3.57-0.525-5.355-0.525c-10.92,0-14.699,7.875-14.699,17.43V561h-14.909V506.717z"/>
	<path d="M1022.908,544.83h16.484V561h-16.484V544.83z"/>
</g>
</svg>
