<?xml version="1.0" encoding="utf-8"?>
<!-- Generator: Adobe Illustrator 15.1.0, SVG Export Plug-In . SVG Version: 6.00 Build 0)  -->
<!DOCTYPE svg PUBLIC "-//W3C//DTD SVG 1.1//EN" "http://www.w3.org/Graphics/SVG/1.1/DTD/svg11.dtd">
<svg version="1.1" id="vs_text" xmlns="http://www.w3.org/2000/svg" xmlns:xlink="http://www.w3.org/1999/xlink" x="0px" y="0px"
	 width="1080px" height="1080px" viewBox="0 0 1080 1080" enable-background="new 0 0 1080 1080" xml:space="preserve">
<g>
	<path d="M96.151,116.28c5.85,0,10.271-0.13,13.521-0.39c7.8-0.521,8.45-1.04,10.141-8.71c0.52-0.39,3.51-0.65,4.16-0.52
		c-0.26,3.77-1.04,9.75-1.04,13.78c0.13,4.42,0.52,8.061,0.91,11.831c-1.04,0.26-2.08,0.39-2.99,0.39
		c-0.65,0.13-0.91-0.26-1.17-0.78c-0.52-1.43-1.17-3.51-1.56-5.07c-0.78-3.51-2.34-4.68-7.54-5.07c-2.86-0.26-7.15-0.26-13.781-0.26
		c-6.5,0-7.8,0.13-8.58,0.26c-0.52,0.13-0.91,0.26-1.3,0.78c-0.39,0.78-1.17,5.33-1.17,15.991c0,9.49,0,13,1.3,15.081
		c1.82,2.47,6.371,3.12,17.031,3.12c15.21,0,22.491-1.43,26.521-15.21c0.52-0.13,1.82,0,3.12,0.13c0.39,0.26,0.39,0.39,0.39,1.04
		c-0.26,5.98-2.34,14.3-4.03,18.071c-0.65,0.78-1.04,1.04-1.69,1.04c-0.91,0-1.82,0-6.11-0.13c-3.9-0.13-13-0.26-23.791-0.26
		c-10.4,0-20.67,0.52-31.071,0.91c-0.26-0.13-0.39-2.86-0.26-3.9c0-0.26,0.39-0.52,0.52-0.52c5.98-1.04,6.5-1.95,6.63-3.9
		c0.26-1.95,0.91-10.271,0.91-23.531V107.96c0-17.291-0.78-23.011-0.91-23.791c-0.13-0.78-0.39-1.43-1.69-1.69
		c-1.3-0.52-3.77-0.91-6.89-1.69c-0.13-0.13-0.13-0.13-0.13-0.52l0.26-2.99c0-0.52,0-0.65,0.65-0.65h4.55
		c4.03,0,8.97,0.26,16.9,0.39h12.61c7.931,0,17.421-0.65,23.921-0.78c1.69,0,2.47,0.26,3.12,0.65c1.17,0.78,1.17,0.78,0.65,3.12
		c-1.04,5.721-1.17,13.261-1.17,16.641c-3.38,0-3.9-0.39-4.03-1.17c-1.82-9.36-2.73-14.041-12.871-14.041h-8.97
		c-7.67,0-11.96,0.26-13.391,0.65c-1.69,0.521-1.95,1.82-1.95,4.811c0,9.1,0.13,18.201,0.26,27.301c0,1.17,0.78,2.08,1.69,2.08
		H96.151z"/>
	<path d="M153.297,164.382c-0.26,0-0.65-0.13-1.17-0.78c-0.52-0.91-0.78-2.47-0.91-4.68c-0.26-6.63-1.17-13.13-2.08-19.241
		c-0.39-0.78-0.26-1.17,0.39-1.3c0.78-0.13,2.08-0.39,2.86-0.39c0.65,0,0.91,0.26,1.3,1.56c0.52,2.08,1.43,5.2,3.77,8.32
		c4.16,6.11,12.871,11.18,21.451,11.18c11.57,0,19.631-7.41,19.631-18.2c0-4.55-2.21-8.32-5.851-10.921
		c-2.6-2.08-5.98-3.9-16.25-7.67c-8.971-3.51-15.341-6.5-19.501-11.311c-2.6-2.99-4.811-8.58-4.811-13.13
		c0-9.36,4.681-15.21,10.921-18.591c3.12-1.82,10.66-4.42,19.11-4.42c3.641,0,10.141,0.65,12.48,1.04
		c1.69,0.39,2.86,0.39,3.641,0.39c0.91,0,2.08-1.04,3.12-2.6c1.3-0.13,2.99,0,3.25,0.13c-0.39,7.15,0,13.521,1.04,20.411
		c0.26,0.78,0,1.3-0.39,1.56c-0.39,0.39-1.95,1.17-2.99,1.43c-0.39,0.13-0.52-0.13-0.78-0.65c-1.43-4.68-2.47-9.1-6.24-12.09
		c-2.601-2.73-9.23-4.94-15.73-4.94c-9.881,0-16.251,6.37-16.251,14.95c0,4.16,1.69,7.41,3.51,9.49
		c3.25,3.38,6.89,5.59,16.641,8.971c9.23,3.38,15.47,6.63,19.5,10.14c5.2,4.68,6.891,9.621,6.891,15.861
		c0,9.36-4.811,16.38-11.44,20.021c-5.851,3.12-17.291,4.68-21.581,4.68c-5.72,0-11.311-0.91-16.771-1.95
		c-1.04-0.26-1.69,0-2.34,0.26c-0.78,0.39-1.69,0.91-2.601,1.69c-0.78,0.65-1.17,0.78-1.69,0.78H153.297z"/>
	<path d="M272.896,105.75c0-19.761-0.65-21.971-2.6-23.141c-1.56-1.17-3.64-1.43-7.28-1.69c0-1.04,0.52-3.64,1.17-4.03
		c4.29,0,8.71,0.13,13.13,0.13c9.23-0.13,13.521-0.52,14.82-0.52c0.78,0,1.04,0.26,1.17,0.52c0.26,0.52,0.52,2.6,0.39,3.38
		c-4.16,0.52-6.11,1.04-8.06,1.69c-1.56,0.78-1.95,3.771-1.95,15.991v17.161c0,1.3,0.13,1.56,0.78,1.56c0.91,0,2.86-1.69,6.24-4.29
		c7.541-6.24,22.101-18.721,30.682-27.301c2.08-1.95,2.08-3.25,1.17-3.25c-2.21-0.13-4.42-0.39-7.41-0.65l-0.13-3.51
		c0.13-0.65,0.26-0.78,0.78-0.91c12.871,0.13,27.561-0.39,28.471-0.39c0.65,0,0.78,0.13,0.65,0.91c-0.39,2.6-0.52,3.12-1.17,3.12
		c-7.67,1.17-10.79,3.51-14.561,6.24c-7.54,5.46-15.601,11.7-31.981,26.001c-0.78,0.65-1.17,1.69-0.39,2.47
		c7.931,8.581,22.491,20.801,33.542,31.071c7.28,6.76,10.92,9.49,13.65,10.141c1.95,0.39,3.77,0.78,5.07,1.04
		c1.04,0.26,1.43,0.65,1.3,1.56l-1.04,2.73c-7.93-0.39-15.21-0.52-30.291-0.39l0.52-3.9c0.52-0.26,2.6-0.78,3.9-1.04
		c0.91-0.13,1.3-0.91,0.13-1.95c-11.051-10.4-29.771-27.431-33.021-30.681c-3.77-3.64-5.59-3.9-6.11-3.9
		c-0.39,0-0.78,0.26-0.78,1.95v11.57c0,17.681,0.91,20.541,1.56,21.321c1.17,1.82,4.16,2.08,9.23,2.6c0.26,0,0.52,0.39,0.52,0.91
		l-0.39,3.51c-4.29-0.13-7.54-0.39-17.291-0.39c-4.16,0-12.741,0.39-14.301,0.39c-0.26-0.52,0.13-3.771,0.39-4.03
		c1.69-0.39,3.9-0.52,6.24-1.17c2.6-0.52,3.25-2.21,3.25-18.331V105.75z"/>
	<path d="M407.367,74.679c0.91,0,1.17,0.65,1.56,1.95c3.9,12.61,6.63,19.111,11.181,31.331c4.16,11.57,14.69,36.142,16.38,40.172
		c2.73,6.11,4.55,8.45,11.96,9.88c0.26,0-0.52,3.51-1.04,3.9c-10.791-0.13-13.39-0.13-17.681-0.13c-4.16,0-7.8,0.52-8.97,0.39
		c-0.52,0-0.78-0.13-0.91-0.39c-0.26-0.78-0.78-3.12-0.65-3.38c6.63-1.82,7.541-2.73,5.98-7.8c-0.65-2.6-4.81-13.13-6.5-17.291
		c-0.39-0.91-1.17-1.95-2.21-1.95c-9.36,0-20.411,0.13-28.081,0.52c-1.56,0.13-2.21,0.52-3.25,2.73c-1.3,2.73-5.59,13.91-5.59,17.42
		c0,2.86,1.04,3.9,7.54,5.85c0.13,0.78-0.52,3.25-1.04,3.64c-6.37-0.13-13.78-0.13-16.51-0.13c-2.21,0-4.291,0.13-4.811,0
		c-0.65,0-0.78-0.13-0.91-0.39c-0.52-0.78-0.91-3.25-0.65-3.64c5.59-1.56,6.89-4.42,10.4-11.05
		c3.64-7.15,18.461-43.682,26.001-61.622c1.43-3.51,2.21-5.721,2.99-7.801c0.13-0.65,0.26-0.78,0.78-1.04
		c0.521-0.26,2.73-1.17,3.9-1.17H407.367z M391.507,125.901c0.78,0,3.51,0.26,9.36,0.26c6.11,0,9.75-0.13,13.26-0.26
		c0.91,0,1.3-1.17,1.04-1.82c-5.07-13.78-7.67-21.451-11.7-31.851c-0.26-0.52-1.17-0.26-1.56,0.52
		c-6.11,14.17-7.8,18.46-12.871,31.721c-0.13,0.52,0.65,1.43,2.34,1.43H391.507z"/>
	<path d="M461.017,76.499c5.98,0.26,8.84,0.52,18.07,0.52c0.78,0,1.43,0.13,1.69,0.39c0.52,0.39,1.17,1.43,1.56,2.34
		c0.91,1.69,5.46,7.67,8.581,10.53c7.8,7.931,26.781,26.781,52.652,51.222c0.13-4.16,0.261-15.861,0.261-25.481
		c0-13.521-0.131-20.541-0.65-27.171c-0.26-2.21-0.521-5.46-3.38-6.371c-1.43-0.52-4.94-0.91-7.67-1.17
		c-0.39-0.13-0.65-0.26-0.65-0.65l-0.26-3.64c4.94,0,9.881,0,14.691,0c5.069,0,10.27-0.39,14.3-0.52c0.65,0,1.04,0.26,1.17,0.65
		l0.78,2.73c-4.68,1.04-6.5,1.56-8.58,2.86c-2.471,1.43-3.25,5.59-3.9,23.271c-0.26,11.701-0.39,20.151-0.39,37.572
		c0,8.32,0.39,15.991,0.39,18.201c-0.13,0.78-0.91,1.43-2.6,2.08c-0.65,0.26-1.17,0.26-1.82-0.65
		c-7.67-11.31-19.761-23.531-33.411-37.051c-10.791-10.791-21.061-20.931-31.722-31.591c-0.39,7.28-0.65,16.511-0.65,23.791
		c0,11.831,0,29.381,1.56,34.321c1.04,2.99,5.07,4.03,10.4,5.07l0.91,3.12c0.13,0.39-0.65,1.04-1.04,1.04
		c-5.46,0-11.181-0.52-16.511-0.52c-4.55,0-8.45,0.39-10.66,0.39c-0.26-1.3-0.65-2.6-1.04-3.64c8.19-2.21,8.71-3.51,9.36-7.8
		c0.39-3.25,1.56-15.211,1.56-33.542v-14.43c0-13.391-0.26-15.601-2.34-17.551c-2.08-2.21-4.16-3.38-9.62-4.03
		c-0.78-0.26-1.04-0.39-1.04-0.91V76.499z"/>
	<path d="M575.402,76.499c5.98,0.26,8.841,0.52,18.07,0.52c0.781,0,1.431,0.13,1.69,0.39c0.521,0.39,1.171,1.43,1.561,2.34
		c0.909,1.69,5.46,7.67,8.58,10.53c7.8,7.931,26.781,26.781,52.651,51.222c0.131-4.16,0.261-15.861,0.261-25.481
		c0-13.521-0.13-20.541-0.65-27.171c-0.26-2.21-0.52-5.46-3.38-6.371c-1.43-0.52-4.94-0.91-7.67-1.17
		c-0.391-0.13-0.65-0.26-0.65-0.65l-0.26-3.64c4.939,0,9.88,0,14.69,0c5.07,0,10.271-0.39,14.3-0.52c0.65,0,1.041,0.26,1.171,0.65
		l0.78,2.73c-4.681,1.04-6.501,1.56-8.581,2.86c-2.47,1.43-3.25,5.59-3.899,23.271c-0.261,11.701-0.391,20.151-0.391,37.572
		c0,8.32,0.391,15.991,0.391,18.201c-0.131,0.78-0.91,1.43-2.601,2.08c-0.649,0.26-1.17,0.26-1.82-0.65
		c-7.67-11.31-19.761-23.531-33.411-37.051c-10.79-10.791-21.061-20.931-31.721-31.591c-0.391,7.28-0.65,16.511-0.65,23.791
		c0,11.831,0,29.381,1.561,34.321c1.039,2.99,5.07,4.03,10.4,5.07l0.91,3.12c0.129,0.39-0.65,1.04-1.041,1.04
		c-5.46,0-11.18-0.52-16.51-0.52c-4.551,0-8.451,0.39-10.661,0.39c-0.26-1.3-0.649-2.6-1.04-3.64c8.19-2.21,8.711-3.51,9.36-7.8
		c0.39-3.25,1.561-15.211,1.561-33.542v-14.43c0-13.391-0.261-15.601-2.341-17.551c-2.08-2.21-4.16-3.38-9.62-4.03
		c-0.78-0.26-1.04-0.39-1.04-0.91V76.499z"/>
	<path d="M723.991,76.499c5.979,0.26,8.841,0.52,18.07,0.52c0.78,0,1.431,0.13,1.69,0.39c0.52,0.39,1.17,1.43,1.561,2.34
		c0.909,1.69,5.459,7.67,8.58,10.53c7.8,7.931,26.781,26.781,52.651,51.222c0.13-4.16,0.261-15.861,0.261-25.481
		c0-13.521-0.131-20.541-0.65-27.171c-0.26-2.21-0.52-5.46-3.381-6.371c-1.43-0.52-4.939-0.91-7.67-1.17
		c-0.39-0.13-0.65-0.26-0.65-0.65l-0.26-3.64c4.94,0,9.881,0,14.691,0c5.07,0,10.27-0.39,14.3-0.52c0.65,0,1.04,0.26,1.171,0.65
		l0.779,2.73c-4.68,1.04-6.5,1.56-8.58,2.86c-2.471,1.43-3.25,5.59-3.9,23.271c-0.26,11.701-0.39,20.151-0.39,37.572
		c0,8.32,0.39,15.991,0.39,18.201c-0.13,0.78-0.91,1.43-2.6,2.08c-0.65,0.26-1.17,0.26-1.82-0.65
		c-7.67-11.31-19.761-23.531-33.411-37.051c-10.79-10.791-21.062-20.931-31.722-31.591c-0.39,7.28-0.65,16.511-0.65,23.791
		c0,11.831,0,29.381,1.561,34.321c1.04,2.99,5.07,4.03,10.4,5.07l0.91,3.12c0.13,0.39-0.65,1.04-1.04,1.04
		c-5.46,0-11.181-0.52-16.511-0.52c-4.55,0-8.45,0.39-10.66,0.39c-0.26-1.3-0.65-2.6-1.04-3.64c8.19-2.21,8.71-3.51,9.36-7.8
		c0.39-3.25,1.561-15.211,1.561-33.542v-14.43c0-13.391-0.261-15.601-2.341-17.551c-2.08-2.21-4.16-3.38-9.62-4.03
		c-0.78-0.26-1.04-0.39-1.04-0.91V76.499z"/>
	<path d="M927.703,80.919c-1.17,0.26-3.51,0.65-5.07,0.91c-0.52,0.13-1.299,0.78-1.689,2.21c-0.91,3.12-1.3,10.661-1.95,33.411
		c-0.39,14.951-1.3,22.881-7.28,31.591c-6.24,9.101-18.33,14.691-29.771,14.691c-12.09,0-21.45-4.94-25.48-9.23
		c-6.76-6.891-8.58-15.471-8.711-24.831c-0.129-6.63-0.129-14.82,0.261-25.481c0.521-14.431,0.521-18.201,0-20.151
		c-0.65-2.34-2.601-2.99-8.581-3.64l0.131-2.99c0.13-0.78,0.52-0.91,2.34-0.91c2.86,0,9.75,0.52,12.48,0.52
		c5.85-0.13,11.051-0.52,17.031-0.52c0.649,0,0.779,0,0.779,0.39c0,0.521-0.13,3.25-0.39,3.51c-8.45,1.04-10.53,1.82-11.44,4.94
		c-0.391,1.82-0.91,5.07-1.04,13.26c-0.13,7.28-0.521,20.021-0.521,28.731c0,11.31,3.51,18.721,8.711,22.881
		c4.68,4.03,11.7,5.98,19.24,5.98c11.44,0,16.381-4.29,19.371-8.19c5.07-6.76,6.76-16.25,6.76-30.031
		c0-13.781,0.131-26.391-0.39-31.981c-0.521-4.42-2.601-4.55-12.48-4.55c-0.39,0-1.04-0.91-0.91-1.56c0.39-0.65,1.17-1.69,1.56-2.47
		c0.391-0.39,0.78-0.521,2.99-0.521c1.17,0,8.061,0.13,11.311,0.13c4.03,0,10.271-0.13,13.521-0.39c0.65,0,0.65,0.39,0.39,0.91
		L927.703,80.919z"/>
	<path d="M943.65,77.929c-0.13-0.39,0.13-0.65,0.52-0.91c6.761-0.13,12.74-0.13,18.331-0.65c5.98-0.39,9.49-0.521,13.001-0.521
		c7.8,0,15.86,1.04,22.62,5.851c6.11,4.29,9.23,10.66,9.23,16.9c0,10.271-8.841,16.381-13.78,19.241c-0.78,0.39-1.17,1.04-0.91,1.95
		c0.65,2.73,3.38,10.4,8.971,18.981c5.98,9.23,12.48,15.86,23.53,21.19c1.3,0.65,1.431,1.17,1.3,1.82
		c-0.129,1.17-0.649,2.47-0.91,2.47c-11.57-1.17-19.891-5.07-27.301-11.96c-5.46-5.331-9.49-12.611-13.91-21.061
		c-2.99-5.98-4.42-7.15-12.48-7.15c-3.77,0-5.2,0.13-6.24,0.39c-0.78,0.26-1.689,0.91-1.689,1.95c0,9.88,0.129,17.551,0.52,25.091
		c0.13,1.95,0.65,2.99,1.3,3.38c1.3,1.3,7.021,2.08,10.011,2.86c0,0.65-0.65,2.86-0.91,3.38c-0.13,0.26-0.52,0.26-1.82,0.26
		c-1.43,0-12.09-0.13-17.42-0.13c-4.681,0-7.15,0.39-8.451,0.39c-1.689,0-1.949,0-2.08-0.26c-0.65-0.65-0.779-2.99-0.779-3.77
		c2.6-0.52,6.5-1.3,7.41-3.12c1.43-2.08,1.689-12.61,1.689-28.341v-15.34c0-7.541-0.13-16.901-0.26-23.141
		c-0.13-4.03-0.78-4.68-9.101-6.76L943.65,77.929z M994.872,98.99c0-10.01-7.67-18.851-19.37-18.851c-4.421,0-6.891,0.52-8.711,1.43
		c-1.17,0.52-1.561,1.3-1.82,2.34c-0.649,4.03-1.039,10.66-0.91,22.491c0,12.221,0.391,12.611,0.91,13
		c0.65,0.26,2.211,0.39,4.16,0.39c10.141,0,16.251-1.43,20.411-6.37c3.12-3.77,5.33-8.84,5.33-14.301V98.99z"/>
</g>
<g>
	<path d="M86.51,733.85c0-18,0-32.25-0.75-40.75c-0.5-6-1-7-17.25-11.25l3.5-8c4-0.5,10-0.5,16.25-1c8.5-0.5,38-1.5,48.25-1.5
		c11,0,24,0.5,37.5,5.75c8.5,3.25,21.25,13.25,21.25,30.25c0,9-3.25,18.5-13,25.75c-6,4.5-13.25,6.75-16,7.75c-1,0.5,0,2,2.25,2.5
		c19,4,40,17.75,40,43c0,23-16,37.25-36.75,44.25c-11.25,3.75-23.5,4-27.75,4c-4.5,0-35.5-1-45-1c-11,0-24,1.25-26.75,1.25
		c-0.75,0-3-6-2.75-7.25c2.75-1.5,5.75-2.75,8.5-4.25c5.75-2.75,7.25-4.5,7.5-14c0.5-16.25,1-28.25,1-36.75V733.85z M136.26,824.85
		c17,0,36.75-12,36.75-36.25c0-12.5-2.25-20.75-9.5-27.75c-9.25-9.25-20.5-9.75-27.75-9.75c-4.5,0-13.25,0.25-15.75,3.5
		c-1.25,1.25-2.5,3.5-2.5,13.25c-0.25,44.25,0.25,45.75,5.25,51.25s7.25,5.75,13.25,5.75H136.26z M161.51,710.35
		c0-8.75-2-15.25-8-21.25c-5.5-5.25-14.75-8-21.5-8c-2.25,0-5.25,0.25-8.5,1.25c-2.75,0.75-3,1.25-3.5,3
		c-0.25,2.5-1.25,8.25-1.25,19.75c0,13.75,0.25,24.25,1,30.25c0,4.5,1.25,4.75,4,5.25s6.5,0.75,10.25,0.75c3.25,0,11-0.5,15.75-3
		c8.5-5.75,11.75-15,11.75-27.75V710.35z"/>
	<path d="M297.032,747.1c11,0,17.5-0.25,22.5-0.5c13.25-0.75,15.75-3.75,20.75-17c0.75-1.25,6.25-2,9.75-1.25
		c-0.75,6.25-2,19.25-2,28c0.25,9.75,0.5,14.25,1.5,23c-1,0.25-3.25,0.75-5.75,0.75c-2,0.25-3.25-0.25-4-1.5
		c-0.75-2.25-2.75-8.25-4-11c-1.75-5.5-6-8.5-14.5-9c-6.5-0.5-12.25-0.5-23-0.5c-7.5,0-10,0.25-11.5,0.5
		c-1.25,0.25-2.5,0.75-2.75,2.5c-0.75,1.75-1.75,14.25-1.75,34c0,15.5,0,19.75,2,22.5c3.5,5,17.5,5.5,27.75,5.5
		c24,0,39.5-4.5,48.5-32.5c1-0.75,6.25-0.25,7.5,0c0.75,0,0.75,0,0.75,2c-0.5,14.75-5,33.25-8.5,39.75c-0.75,1.5-1.5,2-2.75,2
		c-1.75,0-3.75,0-11.5-0.25c-7-0.25-23.75-0.5-45.5-0.5c-25.5,0-48.75,1-67,1.5c-1.25-0.5-1-5-0.5-7c0.25-1.25,0.5-1.5,1.25-1.75
		c12-2.75,14.5-3.5,14.75-8.5c0.25-3.25,1.75-20.75,1.75-43.5V717.6c0-21.5-1.25-28-1.75-29.5c-0.25-2-0.5-4.25-3-4.75
		s-6.25-1.5-14.5-3.25c-0.75-0.25-1-0.25-0.75-1.5l0.75-5.5c0-1,0-1.5,1.5-1.5h8c7.75,0,19.5,0.75,38.5,0.75h20.5
		c21.25,0,35.5-1.5,51-1.5c3.25,0,5,0.25,6,1.25c0.75,1,2,2.5,1.25,6.75c-2.75,14.25-2.75,25.25-2.75,33
		c-8.25,0.25-8.75-0.5-9.25-2.25c-7-20-11.75-26.75-24.25-26.75h-10.75c-14.75,0-21.25,0.5-24.25,0.75
		c-4.5,0.25-4.75,5.25-4.75,8.25c0,17.75,0,33.75,0.25,50.25c0,3.25,1,5,2.5,5H297.032z"/>
	<path d="M405.732,839.6c-1.25,0-2-0.25-3.25-1c-0.5-0.5-1.25-2.75-1.5-9.5c-0.5-13-2-25-4.25-40.25c-0.25-1.75,0-2,1.25-2.25
		c1.5-0.25,3.5-0.5,4.75-0.5c1.5,0,2.75,0.5,3.5,2.5c1.5,3.75,3,8.75,7.25,14.5c9.5,13,27,24.5,40.75,24.5
		c17.75,0,31.5-12,31.5-30.25c0-7.75-4.75-16.25-12.5-21c-4-2.5-9.75-6.5-23.5-12.5c-17.5-7.5-29.25-14.25-38.25-25
		c-5-5.75-9.25-15.25-9.25-27.75c0-17,10-28.25,21.5-34.75c6.25-3.5,21-8,38.75-8c7,0,17.25,1,21.75,1.5c2.75,0.5,5,0.5,8,0.75
		c2.5,0.25,4.5-1,6-5c3.25,0,7.75,0,8.5,0.25c-0.75,13-0.25,25.75,2.5,41c0.5,2.25,0,3-1,3.75c-2.5,1.5-3.75,2.75-6,3.75
		c-0.5,0.25-1.75-0.25-2.25-2c-4.25-11.5-7.5-18.5-15.5-24.5c-6.25-5-17.75-9.25-27.75-9.25c-13,0-23.5,12-23.5,23.75
		c0,7.25,2.25,13.25,7,17.75c5.75,5.5,11.25,9.75,25,15.5c17,7.25,30,13.5,38,21.25c10.25,10,14.25,19,14.25,32.75
		c0,18.5-10.25,31.75-23.5,38.75c-13,7-34.75,9.75-43.75,9.75c-9.75,0-21.5-1.5-30.25-3.75c-2-0.5-3.25-0.5-4.75,0
		c-1.5,0.75-2.75,2-4.25,3.75c-1.75,1.25-3.25,1.5-5,1.5H405.732z"/>
	<path d="M555.432,839.6c-1.25,0-2-0.25-3.25-1c-0.5-0.5-1.25-2.75-1.5-9.5c-0.5-13-2-25-4.25-40.25c-0.25-1.75,0-2,1.25-2.25
		c1.5-0.25,3.5-0.5,4.75-0.5c1.5,0,2.75,0.5,3.5,2.5c1.5,3.75,3,8.75,7.25,14.5c9.5,13,27,24.5,40.75,24.5
		c17.75,0,31.5-12,31.5-30.25c0-7.75-4.75-16.25-12.5-21c-4-2.5-9.75-6.5-23.5-12.5c-17.5-7.5-29.25-14.25-38.25-25
		c-5-5.75-9.25-15.25-9.25-27.75c0-17,10-28.25,21.5-34.75c6.25-3.5,21-8,38.75-8c7,0,17.25,1,21.75,1.5c2.75,0.5,5,0.5,8,0.75
		c2.5,0.25,4.5-1,6-5c3.25,0,7.75,0,8.5,0.25c-0.75,13-0.25,25.75,2.5,41c0.5,2.25,0,3-1,3.75c-2.5,1.5-3.75,2.75-6,3.75
		c-0.5,0.25-1.75-0.25-2.25-2c-4.25-11.5-7.5-18.5-15.5-24.5c-6.25-5-17.75-9.25-27.75-9.25c-13,0-23.5,12-23.5,23.75
		c0,7.25,2.25,13.25,7,17.75c5.75,5.5,11.25,9.75,25,15.5c17,7.25,30,13.5,38,21.25c10.25,10,14.25,19,14.25,32.75
		c0,18.5-10.25,31.75-23.5,38.75c-13,7-34.75,9.75-43.75,9.75c-9.75,0-21.5-1.5-30.25-3.75c-2-0.5-3.25-0.5-4.75,0
		c-1.5,0.75-2.75,2-4.25,3.75c-1.75,1.25-3.25,1.5-5,1.5H555.432z"/>
	<path d="M756.605,747.1c11,0,17.5-0.25,22.5-0.5c13.25-0.75,15.75-3.75,20.75-17c0.75-1.25,6.25-2,9.75-1.25
		c-0.75,6.25-2,19.25-2,28c0.25,9.75,0.5,14.25,1.5,23c-1,0.25-3.25,0.75-5.75,0.75c-2,0.25-3.25-0.25-4-1.5
		c-0.75-2.25-2.75-8.25-4-11c-1.75-5.5-6-8.5-14.5-9c-6.5-0.5-12.25-0.5-23-0.5c-7.5,0-10,0.25-11.5,0.5
		c-1.25,0.25-2.5,0.75-2.75,2.5c-0.75,1.75-1.75,14.25-1.75,34c0,15.5,0,19.75,2,22.5c3.5,5,17.5,5.5,27.75,5.5
		c24,0,39.5-4.5,48.5-32.5c1-0.75,6.25-0.25,7.5,0c0.75,0,0.75,0,0.75,2c-0.5,14.75-5,33.25-8.5,39.75c-0.75,1.5-1.5,2-2.75,2
		c-1.75,0-3.75,0-11.5-0.25c-7-0.25-23.75-0.5-45.5-0.5c-25.5,0-48.75,1-67,1.5c-1.25-0.5-1-5-0.5-7c0.25-1.25,0.5-1.5,1.25-1.75
		c12-2.75,14.5-3.5,14.75-8.5c0.25-3.25,1.75-20.75,1.75-43.5V717.6c0-21.5-1.25-28-1.75-29.5c-0.25-2-0.5-4.25-3-4.75
		s-6.25-1.5-14.5-3.25c-0.75-0.25-1-0.25-0.75-1.5l0.75-5.5c0-1,0-1.5,1.5-1.5h8c7.75,0,19.5,0.75,38.5,0.75h20.5
		c21.25,0,35.5-1.5,51-1.5c3.25,0,5,0.25,6,1.25c0.75,1,2,2.5,1.25,6.75c-2.75,14.25-2.75,25.25-2.75,33
		c-8.25,0.25-8.75-0.5-9.25-2.25c-7-20-11.75-26.75-24.25-26.75h-10.75c-14.75,0-21.25,0.5-24.25,0.75
		c-4.5,0.25-4.75,5.25-4.75,8.25c0,17.75,0,33.75,0.25,50.25c0,3.25,1,5,2.5,5H756.605z"/>
	<path d="M851.906,674.35c-0.25-1.5,1.25-2,2.75-2c11-0.25,23.25-0.5,34.25-0.75c15.5-1,21.5-1.25,31-1.25c17,0,31.75,1.75,47.25,12
		c10.25,6.75,17.75,19.75,17.75,30.5c0,22-16.75,31.25-25.5,36.75c-1,0.75-1.75,3.25-1.25,5c1.75,6.75,7.5,21,16.5,35.5
		c10,16.5,25.75,33,40.5,39.25c3,1.25,3,3.25,2.25,7c-0.25,2.75-2.25,3-3.25,3c-23.25-1.25-41.5-7-57.5-23.25
		c-10.25-10.5-17-24-23.25-38.5c-4-8.75-7.75-14-20-14c-4,0-6.5,0.25-9.25,0.75c-1.25,0.25-2,2.75-2,4.5
		c0,21.75,0.5,34.75,0.75,44.25c0.25,4.5,1,5.5,2.25,6.5c2.5,2,14,3.25,20,5c0.75,1.25-0.25,7.5-1.25,8.5c-0.25,0.5-1.5,0.5-4,0.5
		s-28.75-0.25-41.5-0.25c-8.5,0-13.5,0.75-19.75,0.75c-2.5,0-3.5,0-3.75-0.75c-0.75-2-1.75-6.25-1.25-8c5.25-1.25,11.5-3,13.75-5.25
		c3-3.75,3.75-20,3.75-52v-31.25c0-14.75-0.5-32.75-0.75-40.75c-0.25-9.5-1-9.5-17-14L851.906,674.35z M949.156,715.85
		c0-21.5-14.5-35.75-29.5-35.75c-5,0-7.25,0.75-11.5,2.25c-2.5,1-4,2.75-4.5,5.25c-1,7.5-1.25,18-1.5,39.5
		c-0.25,25.25-0.25,25.5,1.75,26s6,0.5,10.75,0.5c11,0,20.75-3.25,26.75-10.75c4.75-6.25,7.75-15.75,7.75-26.75V715.85z"/>
</g>
<g>
	<path d="M96.151,976.889c-4.03-10.011-10.661-27.432-21.711-53.433c-3.64-8.45-3.9-9.101-10.53-9.751
		c-0.78-0.129-0.91-0.26-0.91-0.779c0-0.26,0.91-1.95,1.3-2.471c0.39-0.52,0.91-0.779,1.82-0.779c2.47,0,8.19,0.26,10.92,0.26
		c4.55,0,9.1-0.26,13.78-0.26c0.65,0,1.17,1.82,1.17,3.25c0,0.52-0.13,0.91-0.78,1.04c-5.2,0.521-7.021,0.91-6.76,2.601
		c0.13,0.909,0.65,2.859,1.3,4.68c7.02,19.11,17.811,44.981,22.491,55.252c0.26,0.65,1.17,0.91,1.43,0.26
		c3.77-8.45,13.39-32.891,16.9-42.121c0.52-1.17,0.26-2.08-0.13-3.12c-2.34-6.761-4.03-11.181-5.07-13.911
		c-1.17-2.99-1.95-3.38-7.93-3.51c-0.39,0-0.91-0.391-0.91-0.78c0.39-2.729,1.17-3.64,2.08-3.64c3.12,0,7.67,0.26,12.48,0.26
		c6.5,0,10.271-0.391,12.22-0.391c0.91,0.391,1.561,3.9,0.78,4.16c-6.89,0.781-7.67,1.171-6.5,4.681
		c4.55,14.04,15.47,42.252,22.23,58.503c0.26,0.52,0.78,0.39,1.17-0.391c4.55-11.051,19.501-47.842,21.711-58.893
		c0.39-2.6-0.78-3.25-2.34-3.38c-1.95-0.26-4.42-0.26-6.24-0.521c-0.26-0.129-0.39-0.39-0.26-1.039
		c0.26-2.471,0.52-3.381,1.56-3.381c1.3,0,9.101,0.391,12.221,0.391c4.16,0,8.45-0.26,9.49-0.26c1.56,0,2.21,0.26,2.34,1.039
		l0.39,2.86c0,0.261-0.26,0.521-0.52,0.521c-6.76-0.131-7.02,0.779-13.13,14.301c-3.77,8.06-14.3,34.451-22.231,54.602
		c-1.04,2.34-3.9,7.67-5.59,11.961c-0.39,0.91-1.3,1.43-2.08,1.43c-1.561,0-2.21-0.91-2.86-2.73c-0.78-2.34-1.82-5.59-4.03-11.7
		c-2.47-7.15-9.1-25.61-15.21-40.432c-4.81,11.181-10.271,23.661-16.771,39.782c-1.56,4.029-4.16,9.619-5.72,13.779
		c-0.26,0.65-0.52,0.91-0.91,1.041c-0.65,0.39-1.56,0.52-2.47,0.52c-0.65,0-1.17-0.39-1.43-1.43
		C102.261,993.009,100.181,986.898,96.151,976.889z"/>
	<path d="M240.32,949.066c5.851,0,10.271-0.129,13.521-0.39c7.801-0.52,8.451-1.04,10.141-8.71c0.52-0.391,3.51-0.65,4.16-0.52
		c-0.26,3.77-1.04,9.75-1.04,13.779c0.13,4.421,0.52,8.061,0.91,11.831c-1.04,0.26-2.08,0.39-2.99,0.39
		c-0.65,0.131-0.91-0.26-1.17-0.779c-0.52-1.431-1.17-3.511-1.56-5.07c-0.78-3.51-2.34-4.681-7.541-5.07
		c-2.86-0.26-7.15-0.26-13.78-0.26c-6.5,0-7.8,0.13-8.581,0.26c-0.52,0.13-0.91,0.26-1.3,0.779c-0.39,0.781-1.17,5.331-1.17,15.991
		c0,9.49,0,13.001,1.3,15.081c1.82,2.47,6.37,3.119,17.031,3.119c15.21,0,22.491-1.43,26.521-15.21c0.52-0.13,1.82,0,3.12,0.13
		c0.39,0.26,0.39,0.391,0.39,1.04c-0.26,5.98-2.34,14.301-4.03,18.071c-0.65,0.779-1.04,1.039-1.69,1.039c-0.91,0-1.82,0-6.11-0.13
		c-3.9-0.13-13-0.26-23.791-0.26c-10.4,0-20.671,0.521-31.071,0.91c-0.26-0.13-0.39-2.86-0.26-3.9c0-0.26,0.39-0.521,0.52-0.521
		c5.98-1.039,6.5-1.949,6.63-3.899c0.26-1.95,0.91-10.271,0.91-23.531v-22.491c0-17.29-0.78-23.01-0.91-23.79
		c-0.13-0.78-0.39-1.431-1.69-1.69c-1.3-0.52-3.77-0.91-6.89-1.689c-0.13-0.131-0.13-0.131-0.13-0.521l0.26-2.99
		c0-0.521,0-0.649,0.65-0.649h4.55c4.03,0,8.971,0.26,16.901,0.39h12.61c7.93,0,17.42-0.65,23.921-0.78c1.69,0,2.47,0.26,3.12,0.65
		c1.17,0.779,1.17,0.779,0.65,3.12c-1.04,5.72-1.17,13.261-1.17,16.641c-3.38,0-3.9-0.39-4.03-1.171
		c-1.82-9.359-2.73-14.04-12.87-14.04h-8.971c-7.67,0-11.96,0.261-13.391,0.65c-1.69,0.52-1.95,1.819-1.95,4.81
		c0,9.101,0.13,18.201,0.26,27.301c0,1.171,0.78,2.08,1.69,2.08H240.32z"/>
	<path d="M291.551,910.716c-0.13-0.39,0.13-0.65,0.52-0.91c6.76-0.13,12.741-0.13,18.331-0.65c5.98-0.39,9.49-0.52,13-0.52
		c7.801,0,15.861,1.04,22.621,5.851c6.11,4.289,9.23,10.66,9.23,16.9c0,10.27-8.84,16.381-13.781,19.24
		c-0.78,0.391-1.17,1.04-0.91,1.95c0.65,2.729,3.38,10.4,8.97,18.98c5.98,9.23,12.48,15.86,23.531,21.19
		c1.3,0.65,1.43,1.171,1.3,1.82c-0.13,1.17-0.65,2.471-0.91,2.471c-11.571-1.17-19.891-5.07-27.301-11.961
		c-5.46-5.33-9.49-12.61-13.91-21.061c-2.99-5.98-4.42-7.15-12.48-7.15c-3.771,0-5.2,0.13-6.24,0.391
		c-0.78,0.26-1.69,0.91-1.69,1.949c0,9.881,0.13,17.551,0.52,25.092c0.13,1.949,0.65,2.99,1.3,3.38c1.3,1.3,7.02,2.08,10.01,2.86
		c0,0.649-0.65,2.859-0.91,3.38c-0.13,0.26-0.52,0.26-1.82,0.26c-1.43,0-12.091-0.13-17.421-0.13c-4.68,0-7.15,0.39-8.45,0.39
		c-1.69,0-1.95,0-2.08-0.26c-0.65-0.649-0.78-2.99-0.78-3.771c2.601-0.52,6.5-1.3,7.411-3.119c1.43-2.08,1.69-12.611,1.69-28.342
		v-15.34c0-7.541-0.13-16.901-0.26-23.142c-0.13-4.03-0.78-4.681-9.101-6.761L291.551,910.716z M342.773,931.776
		c0-10.011-7.67-18.851-19.371-18.851c-4.42,0-6.89,0.52-8.71,1.43c-1.17,0.521-1.56,1.301-1.82,2.34
		c-0.65,4.031-1.04,10.661-0.91,22.491c0,12.221,0.39,12.61,0.91,13.001c0.65,0.26,2.21,0.39,4.16,0.39
		c10.141,0,16.251-1.431,20.411-6.37c3.12-3.771,5.33-8.84,5.33-14.301V931.776z"/>
	<path d="M475.256,951.797c0,7.28-3.12,18.721-12.351,27.432c-9.23,8.58-15.21,11.311-22.23,13.391
		c-6.761,1.949-11.44,2.08-20.671,2.08c-6.891,0-19.761-0.521-22.621-0.521c-2.86,0-7.67,0.13-9.62,0.13
		c-0.13-0.26-0.52-3.51-0.26-4.03c6.11-1.819,7.28-2.6,7.411-5.069c0.65-10.791,0.65-32.502,0.65-48.232
		c0-14.561,0-17.551-0.39-19.111c-0.13-1.819-1.17-2.989-7.28-3.77c-0.13-0.13-0.52-0.52-0.52-1.689l-0.13-2.601
		c4.81,0,9.1-0.261,15.86-0.39c8.84-0.131,13.521-0.521,19.761-0.521c9.36,0,26.261,1.3,38.222,11.96
		c9.49,8.581,14.17,19.241,14.17,30.812V951.797z M422.734,913.445c-4.94,0-13.13,1.561-14.3,2.601
		c-0.65,0.521-0.78,1.17-0.91,2.601c-0.39,5.72-0.91,17.811-0.91,28.601c0,19.241,0.13,32.371,2.08,39.132
		c0.26,0.91,0.65,1.43,1.82,1.949c2.86,1.301,7.41,2.08,11.31,2.08c6.371,0,14.301-1.039,23.271-6.76
		c11.05-7.021,16.511-19.631,16.511-32.762c0-13.91-6.37-23.4-12.221-28.601c-8.84-7.8-19.891-8.841-26.521-8.841H422.734z"/>
	<path d="M518.868,949.066c5.851,0,10.271-0.129,13.521-0.39c7.801-0.52,8.451-1.04,10.141-8.71c0.52-0.391,3.51-0.65,4.16-0.52
		c-0.26,3.77-1.04,9.75-1.04,13.779c0.13,4.421,0.521,8.061,0.91,11.831c-1.04,0.26-2.08,0.39-2.99,0.39
		c-0.649,0.131-0.91-0.26-1.17-0.779c-0.521-1.431-1.17-3.511-1.56-5.07c-0.781-3.51-2.341-4.681-7.541-5.07
		c-2.86-0.26-7.15-0.26-13.78-0.26c-6.5,0-7.8,0.13-8.581,0.26c-0.52,0.13-0.91,0.26-1.3,0.779c-0.39,0.781-1.17,5.331-1.17,15.991
		c0,9.49,0,13.001,1.3,15.081c1.82,2.47,6.37,3.119,17.031,3.119c15.211,0,22.49-1.43,26.521-15.21c0.52-0.13,1.819,0,3.119,0.13
		c0.391,0.26,0.391,0.391,0.391,1.04c-0.26,5.98-2.34,14.301-4.03,18.071c-0.65,0.779-1.04,1.039-1.69,1.039
		c-0.91,0-1.82,0-6.109-0.13c-3.9-0.13-13.001-0.26-23.792-0.26c-10.4,0-20.671,0.521-31.071,0.91c-0.26-0.13-0.39-2.86-0.26-3.9
		c0-0.26,0.39-0.521,0.52-0.521c5.98-1.039,6.5-1.949,6.63-3.899c0.26-1.95,0.91-10.271,0.91-23.531v-22.491
		c0-17.29-0.78-23.01-0.91-23.79c-0.13-0.78-0.39-1.431-1.69-1.69c-1.3-0.52-3.77-0.91-6.89-1.689
		c-0.13-0.131-0.13-0.131-0.13-0.521l0.26-2.99c0-0.521,0-0.649,0.65-0.649h4.55c4.03,0,8.971,0.26,16.901,0.39h12.61
		c7.93,0,17.42-0.65,23.92-0.78c1.69,0,2.471,0.26,3.121,0.65c1.17,0.779,1.17,0.779,0.649,3.12c-1.04,5.72-1.17,13.261-1.17,16.641
		c-3.38,0-3.9-0.39-4.03-1.171c-1.82-9.359-2.73-14.04-12.87-14.04h-8.971c-7.67,0-11.96,0.261-13.391,0.65
		c-1.69,0.52-1.95,1.819-1.95,4.81c0,9.101,0.13,18.201,0.26,27.301c0,1.171,0.78,2.08,1.69,2.08H518.868z"/>
	<path d="M568.148,909.285c5.98,0.26,8.841,0.521,18.071,0.521c0.78,0,1.431,0.13,1.69,0.39c0.52,0.391,1.17,1.43,1.56,2.34
		c0.91,1.69,5.46,7.671,8.581,10.531c7.8,7.93,26.78,26.781,52.651,51.222c0.13-4.16,0.26-15.86,0.26-25.481
		c0-13.52-0.13-20.541-0.649-27.171c-0.26-2.21-0.521-5.46-3.381-6.37c-1.43-0.52-4.939-0.91-7.67-1.17
		c-0.391-0.13-0.65-0.26-0.65-0.65l-0.26-3.64c4.94,0,9.881,0,14.69,0c5.07,0,10.271-0.39,14.301-0.521c0.649,0,1.04,0.26,1.17,0.65
		l0.78,2.73c-4.68,1.039-6.5,1.56-8.58,2.859c-2.471,1.431-3.25,5.591-3.9,23.271c-0.26,11.7-0.391,20.15-0.391,37.571
		c0,8.32,0.391,15.99,0.391,18.2c-0.13,0.78-0.91,1.431-2.6,2.08c-0.65,0.26-1.171,0.26-1.82-0.649
		c-7.671-11.311-19.762-23.531-33.412-37.052c-10.79-10.79-21.061-20.931-31.721-31.591c-0.391,7.28-0.65,16.511-0.65,23.79
		c0,11.831,0,29.382,1.561,34.322c1.04,2.99,5.07,4.029,10.4,5.07l0.91,3.119c0.13,0.391-0.65,1.041-1.04,1.041
		c-5.46,0-11.181-0.521-16.511-0.521c-4.551,0-8.45,0.39-10.66,0.39c-0.26-1.3-0.65-2.6-1.041-3.64
		c8.191-2.21,8.711-3.511,9.361-7.8c0.39-3.251,1.56-15.211,1.56-33.542v-14.431c0-13.391-0.26-15.601-2.34-17.551
		c-2.08-2.21-4.16-3.38-9.62-4.029c-0.78-0.261-1.041-0.391-1.041-0.91V909.285z"/>
</g>
</svg>
