<?xml version="1.0" encoding="utf-8"?>
<!-- Generator: Adobe Illustrator 15.1.0, SVG Export Plug-In . SVG Version: 6.00 Build 0)  -->
<!DOCTYPE svg PUBLIC "-//W3C//DTD SVG 1.1//EN" "http://www.w3.org/Graphics/SVG/1.1/DTD/svg11.dtd">
<svg version="1.1" id="vs_text" xmlns="http://www.w3.org/2000/svg" xmlns:xlink="http://www.w3.org/1999/xlink" x="0px" y="0px"
	 width="1080px" height="1080px" viewBox="0 0 1080 1080" enable-background="new 0 0 1080 1080" xml:space="preserve">
<g>
	<path d="M103.927,256.988h29.599v133.998h-29.599V256.988z M142.327,265.788v-8.8h29.599v38.199
		C155.526,295.188,142.327,281.988,142.327,265.788z M142.327,309.188h29.599v29.399
		C155.526,338.587,142.327,325.388,142.327,309.188z"/>
	<path d="M192.927,285.988h29.6v104.998h-29.6V285.988z M233.326,285.988c16.2,0,29.6,13.399,29.6,29.799v15.4h-29.6V285.988z"/>
	<path d="M280.926,361.187v-45.799c0-16.2,13.4-29.399,29.6-29.399v104.998C294.326,390.986,280.926,377.587,280.926,361.187z
		 M321.326,285.988c16.2,0,29.6,13.199,29.6,29.399v45.799c0,16.4-13.4,29.8-29.6,29.8V285.988z"/>
	<path d="M370.924,240.988h29.6v149.998h-29.6V240.988z M411.323,285.988c16.2,0,29.6,13.199,29.6,29.399v75.599h-29.6V285.988z"/>
	<path d="M459.922,361.187v-45.799c0-16.2,13.399-29.399,29.6-29.399v104.998C473.321,390.986,459.922,377.587,459.922,361.187z
		 M500.321,285.988c16.399,0,29.6,13.399,29.6,29.6v8.8c0,16.199-13.2,29.399-29.6,29.399V285.988z M500.321,361.587h29.6
		c0,16.199-13.2,29.399-29.6,29.399V361.587z"/>
	<path d="M547.92,324.388v-8.8c0-16.2,13.199-29.6,29.6-29.6v67.799C561.119,353.787,547.92,340.587,547.92,324.388z
		 M547.92,361.587h29.6v29.399C561.119,390.986,547.92,377.786,547.92,361.587z M588.318,285.988c16.4,0,29.6,13.199,29.6,29.399
		h-29.6V285.988z M588.318,323.188c16.4,0,29.6,13.199,29.6,29.399v8.8c0,16.2-13.199,29.6-29.6,29.6V323.188z"/>
</g>
<g>
	<path d="M102.927,445.721h29.599v104.998h-29.599V445.721z M143.327,445.721c16.2,0,29.599,13.199,29.599,29.399v75.599h-29.599
		V445.721z"/>
	<path d="M191.925,520.919V475.12c0-16.2,13.399-29.399,29.6-29.399v104.998C205.324,550.719,191.925,537.319,191.925,520.919z
		 M232.324,445.721c16.399,0,29.6,13.399,29.6,29.6v8.8c0,16.199-13.2,29.399-29.6,29.399V445.721z M232.324,521.319h29.6
		c0,16.199-13.2,29.399-29.6,29.399V521.319z"/>
	<path d="M280.922,521.319v-75.599h29.6v104.998C294.322,550.719,280.922,537.519,280.922,521.319z M321.322,445.721h29.6v75.599
		c0,16.199-13.4,29.399-29.6,29.399V445.721z"/>
	<path d="M369.922,520.919V475.12c0-16.2,13.4-29.399,29.6-29.399v104.998C383.322,550.719,369.922,537.319,369.922,520.919z
		 M410.321,445.721c16.4,0,29.6,13.399,29.6,29.6v8.8c0,16.199-13.2,29.399-29.6,29.399V445.721z M410.321,521.319h29.6
		c0,16.199-13.2,29.399-29.6,29.399V521.319z"/>
	<path d="M457.92,484.12v-8.8c0-16.2,13.2-29.6,29.6-29.6v67.799C471.12,513.52,457.92,500.319,457.92,484.12z M457.92,521.319h29.6
		v29.399C471.12,550.719,457.92,537.519,457.92,521.319z M498.319,445.721c16.399,0,29.6,13.199,29.6,29.399h-29.6V445.721z
		 M498.319,482.92c16.399,0,29.6,13.199,29.6,29.399v8.8c0,16.2-13.2,29.6-29.6,29.6V482.92z"/>
	<path d="M592.917,521.319V490.12h29.6v60.599C606.117,550.719,592.917,537.519,592.917,521.319z M633.316,416.721h29.6v104.198
		c0,16.4-13.4,29.8-29.6,29.8V416.721z"/>
	<path d="M713.915,445.721v29.399h-29.6C684.315,458.92,697.516,445.721,713.915,445.721z M684.315,521.119v-8.8
		c0-16.2,13.2-29.399,29.6-29.399v67.799C697.516,550.719,684.315,537.319,684.315,521.119z M724.715,445.721
		c16.199,0,29.6,13.399,29.6,29.799v45.8c0,16.199-13.4,29.399-29.6,29.399V445.721z"/>
	<path d="M774.313,400.721h29.6v149.998h-29.6V400.721z M814.712,445.721c16.2,0,29.6,13.199,29.6,29.399v75.599h-29.6V445.721z"/>
	<path d="M865.311,445.721h29.6v104.998h-29.6V445.721z M905.71,445.721c16.199,0,29.599,13.399,29.599,29.799v15.4H905.71V445.721z
		"/>
	<path d="M955.311,536.319c0-8.601,7.6-16,16.199-16c9,0,16.199,7.399,16.199,16c0,8.999-7.199,16.399-16.199,16.399
		C962.91,552.719,955.311,545.318,955.311,536.319z M956.51,416.721h29.6v61.199c0,16.399-13.399,29.8-29.6,29.8V416.721z"/>
</g>
</svg>
