<?xml version="1.0" encoding="utf-8"?>
<!-- Generator: Adobe Illustrator 15.1.0, SVG Export Plug-In . SVG Version: 6.00 Build 0)  -->
<!DOCTYPE svg PUBLIC "-//W3C//DTD SVG 1.1//EN" "http://www.w3.org/Graphics/SVG/1.1/DTD/svg11.dtd">
<svg version="1.1" id="vs_text" xmlns="http://www.w3.org/2000/svg" xmlns:xlink="http://www.w3.org/1999/xlink" x="0px" y="0px"
	 width="1080px" height="1080px" viewBox="0 0 1080 1080" enable-background="new 0 0 1080 1080" xml:space="preserve">
<g>
	<path d="M147.69,964.572c0,4.93-2.175,10.73-5.51,14.355c-7.975,8.555-17.98,12.325-31.466,12.325c-7.83,0-15.66-0.726-21.896-0.58
		c-5.8,0-11.746,0.435-14.21,0.435c-1.885,0-2.9-1.449-3.335-3.479c0-1.015,0.726-1.74,1.305-1.74
		c2.465,0.146,7.685,0.29,9.86,0.146c1.305,0,2.465-1.016,3.19-4.351c4.061-18.415,10.15-56.842,12.326-76.707
		c0.29-2.03-1.305-2.755-2.9-2.755c-4.641,0-9.716,0.58-11.601,0.58c-0.145-1.45,0.725-5.076,2.03-5.076
		c1.595,0,10.15,0.291,13.05,0.291c2.175,0,4.641-0.146,7.396-0.436c2.61-0.145,5.655-0.29,9.28-0.29
		c15.37,0,30.161,5.655,30.161,21.315c0,7.976-5.221,13.485-7.686,15.371c-3.335,2.609-13.485,6.234-12.76,6.96
		c10.585,4.06,14.791,7.396,17.11,9.715c3.48,3.48,5.655,8.41,5.655,13.775V964.572z M133.915,965.007
		c0-14.21-10.15-21.46-23.491-21.46c-2.755,0-5.075,0.435-7.396,1.16c-2.755,17.255-4.495,29.87-4.785,35.525
		c0,2.175,0.146,3.335,1.306,4.205c1.595,1.305,5.51,2.465,10.73,2.465c13.775,0,23.636-8.555,23.636-21.75V965.007z
		 M132.609,918.461c0-11.166-6.235-16.531-18.416-16.531c-2.465,0-4.205,0.436-4.64,1.45c-0.435,1.16-2.465,14.065-5.22,33.206
		c-0.146,1.016,0.145,1.74,1.015,1.886c1.885,0.29,4.205,0.435,7.396,0.435c4.495,0,8.265-0.87,11.31-2.755
		c6.09-3.915,8.555-9.57,8.555-17.546V918.461z"/>
	<path d="M165.087,992.993c-2.03,0-5.51-5.221-4.205-11.021c1.74-8.556,5.945-29.001,6.96-35.091c0.29-1.306-0.435-1.74-1.74-1.16
		c-3.335,1.74-5.075,2.899-7.396,4.06c-0.58-0.58-0.87-2.319-0.725-2.609c0.29-0.87,18.561-15.516,19.576-15.516
		c1.595,0,2.61,3.335,2.175,5.075c-3.335,11.745-6.815,29.001-8.265,41.036c-0.58,4.35,0.29,4.495,9.715-1.16
		c0.58,1.74,0.58,3.045-0.145,3.915c-1.885,2.465-13.34,12.471-15.805,12.471H165.087z M179.588,900.625
		c2.61,0,4.35,2.61,4.35,5.511c0,4.205-3.045,6.814-6.815,6.814c-3.335,0-5.51-2.175-5.51-5.075c0-4.64,4.35-7.25,7.83-7.25H179.588
		z"/>
	<path d="M214.909,979.508c-0.146,1.16-0.435,1.74-1.015,2.175c-0.87,0.58-13.92,11.455-15.371,11.455c-4.93,0-6.09-5.8-6.09-9.28
		c-0.146-6.67,3.625-27.405,6.96-47.706c4.495-26.536,5.075-33.786,5.22-35.091c0.29-1.596,0-1.596-1.305-1.16
		c-2.465,0.725-6.67,2.175-8.12,2.609c-0.435,0-0.145-2.899,0.145-3.189c2.9-2.03,16.965-10.875,18.416-10.875
		c1.74,0,3.045,3.189,1.74,9.715c-5.221,28.131-10.585,57.566-12.761,73.662c-1.015,7.25-0.145,9.57,1.305,9.57
		c1.74,0,6.38-1.45,10.585-3.771L214.909,979.508z"/>
	<path d="M246.46,979.508c-0.145,1.16-0.435,1.74-1.015,2.175c-0.87,0.58-13.92,11.455-15.37,11.455c-4.93,0-6.09-5.8-6.09-9.28
		c-0.145-6.67,3.625-27.405,6.96-47.706c4.495-26.536,5.075-33.786,5.22-35.091c0.29-1.596,0-1.596-1.305-1.16
		c-2.465,0.725-6.67,2.175-8.12,2.609c-0.436,0-0.146-2.899,0.145-3.189c2.9-2.03,16.966-10.875,18.416-10.875
		c1.74,0,3.045,3.189,1.74,9.715c-5.22,28.131-10.585,57.566-12.76,73.662c-1.015,7.25-0.145,9.57,1.305,9.57
		c1.74,0,6.38-1.45,10.585-3.771L246.46,979.508z"/>
	<path d="M260.785,992.993c-2.03,0-5.51-5.221-4.205-11.021c1.74-8.556,5.945-29.001,6.96-35.091c0.29-1.306-0.435-1.74-1.74-1.16
		c-3.335,1.74-5.075,2.899-7.395,4.06c-0.58-0.58-0.87-2.319-0.726-2.609c0.29-0.87,18.561-15.516,19.576-15.516
		c1.595,0,2.61,3.335,2.175,5.075c-3.335,11.745-6.815,29.001-8.266,41.036c-0.58,4.35,0.29,4.495,9.716-1.16
		c0.58,1.74,0.58,3.045-0.146,3.915c-1.885,2.465-13.34,12.471-15.805,12.471H260.785z M275.286,900.625
		c2.61,0,4.35,2.61,4.35,5.511c0,4.205-3.045,6.814-6.815,6.814c-3.335,0-5.51-2.175-5.51-5.075c0-4.64,4.35-7.25,7.83-7.25H275.286
		z"/>
	<path d="M314.827,931.801c2.32,0,6.235,2.61,8.265,4.061c3.045,0,10.585,0.145,12.47,0.29c0.87,0.145,2.465,1.015,2.465,1.74
		c0.146,0.725-0.145,5.365-0.435,5.365c-2.755-0.29-8.846-1.306-11.166-1.45c1.595,3.479,1.74,6.96,1.74,11.165
		c0,7.396-5.075,16.82-10.15,20.881c-5.945,4.785-10.295,7.25-15.226,8.555c-1.015,1.16-1.45,2.61-1.45,3.771
		c0,4.061,7.25,8.555,11.165,11.455c5.365,3.771,16.676,11.601,16.676,16.386c0,2.175-2.61,4.931-4.495,6.235
		c-2.32,1.595-10.875,7.105-20.301,9.135c-2.03,0.58-3.771,0.726-5.655,0.726c-8.12,0-19.575-3.771-24.506-11.165
		c-0.87-1.306-1.305-2.9-1.305-3.771c0-1.45,0.87-3.045,2.755-4.931c2.175-2.175,15.95-11.31,19.431-13.485
		c-2.175-2.175-3.19-4.35-3.19-6.67c0-0.87,0.58-1.74,1.305-2.465c1.015-1.16,3.77-3.625,5.51-5.511
		c-7.105-2.029-11.745-7.54-11.745-16.53c-0.146-11.601,5.22-19.575,10.875-25.086c2.32-2.029,13.92-8.845,16.82-8.7H314.827z
		 M318.452,1016.483c0-3.77-7.25-8.7-20.301-17.255c-5.22,3.189-14.065,10.439-14.21,13.485c0,2.029,1.305,4.205,4.35,6.38
		c3.335,2.465,10.44,4.641,15.951,4.785c8.555,0.145,14.355-3.335,14.21-7.25V1016.483z M318.597,952.972
		c0-6.96-2.175-14.646-8.991-14.646c-2.03,0-3.77,0.725-5.365,2.32c-2.755,1.885-7.105,10.295-7.105,20.155
		c0,4.931,0.87,8.7,2.465,11.165c1.45,2.176,4.06,3.626,7.25,3.626c2.175,0,4.205-1.016,6.09-2.756
		c2.175-2.319,5.655-8.265,5.655-19.72V952.972z"/>
	<path d="M340.098,971.388c0-14.065,6.67-27.552,13.775-32.337c2.61-1.739,14.065-6.67,17.11-6.67c2.465,0,10.73,2.32,10.73,11.166
		c0,4.64-2.32,7.83-3.335,8.7c-3.625,2.465-19.576,5.8-27.841,7.54c-0.29,1.74-0.436,3.77-0.436,6.525
		c0,11.31,3.625,17.255,12.906,17.255c4.785,0,12.615-3.189,14.355-3.77c1.45-0.29,1.74,0.58,2.03,2.175
		c-6.525,4.35-23.056,10.875-25.086,10.875c-3.335,0-14.21-3.479-14.21-21.315V971.388z M362.863,938.762
		c-6.815,0-10.585,11.455-11.311,15.95c0,0.725,0.58,1.305,1.015,1.305c6.09-1.305,19.576-5.8,19.576-8.845
		c0-3.48-1.885-8.41-9.135-8.41H362.863z"/>
	<path d="M406.405,932.526c2.175,0,3.77,3.335,3.915,5.8c0.145,2.175-0.29,8.41-1.16,15.226c0,0.725,0.58,0.725,1.16,0
		c4.495-6.96,10.295-17.256,12.47-19.575c1.305-1.45,3.915-2.176,5.8-2.176c2.465,0,7.105,2.03,7.105,5.511
		c0,2.319-0.435,6.96-2.175,8.265c-1.015,0.87-1.595,0.726-2.32,0.29c-1.015-0.87-2.32-2.03-5.655-2.03
		c-6.525,0-13.051,11.311-15.226,18.996c-1.74,6.815-5.365,26.681-6.09,27.551c-1.015,1.16-5.945,2.61-8.555,2.61
		c-0.435,0-2.03-1.306-1.595-2.466c2.32-10.439,6.67-29,7.541-43.065c0.145-2.466-0.58-3.046-2.32-2.176
		c-2.9,1.45-6.09,3.771-7.105,4.206c-0.58,0.289-2.465-1.16-2.465-1.596c1.74-2.32,14.355-15.37,16.53-15.37H406.405z"/>
	<path d="M441.045,972.112c0.436,0,0.58,0.87,0.726,1.885c0.58,3.625,0.58,4.205,5.22,6.091c1.45,0.725,1.595,3.189,1.45,4.64
		c-5.945,0.87-6.235,1.595-8.7,7.396c-0.29,0.58-1.16,1.015-2.03,1.015c-1.015,0-1.885-1.16-2.03-1.74
		c-1.45-3.915-2.32-5.8-5.22-6.814c-1.16-0.436-1.885-1.16-2.175-2.03c-0.29-0.725,1.305-2.9,1.74-3.19
		c4.64-0.87,5.075-1.015,6.96-5.075c0.725-1.45,2.03-2.175,3.915-2.175H441.045z"/>
</g>
<g>
	<path d="M104.32,158.267c-4.495-11.166-11.89-30.597-24.216-59.598c-4.06-9.425-4.35-10.149-11.746-10.875
		c-0.87-0.145-1.015-0.29-1.015-0.87c0-0.29,1.015-2.175,1.45-2.755c0.435-0.58,1.015-0.87,2.03-0.87c2.755,0,9.135,0.29,12.18,0.29
		c5.075,0,10.15-0.29,15.371-0.29c0.725,0,1.305,2.03,1.305,3.625c0,0.58-0.145,1.016-0.87,1.16c-5.8,0.58-7.83,1.016-7.54,2.9
		c0.145,1.015,0.725,3.189,1.45,5.22c7.831,21.315,19.866,50.172,25.086,61.627c0.29,0.726,1.305,1.016,1.595,0.29
		c4.205-9.425,14.936-36.686,18.851-46.981c0.58-1.305,0.29-2.32-0.146-3.479c-2.61-7.541-4.495-12.471-5.655-15.516
		c-1.305-3.335-2.175-3.771-8.845-3.915c-0.435,0-1.015-0.436-1.015-0.87c0.435-3.045,1.305-4.061,2.32-4.061
		c3.48,0,8.556,0.29,13.921,0.29c7.25,0,11.455-0.435,13.63-0.435c1.015,0.435,1.74,4.35,0.87,4.64
		c-7.685,0.87-8.555,1.306-7.25,5.221c5.075,15.66,17.255,47.126,24.796,65.252c0.29,0.58,0.87,0.435,1.305-0.436
		c5.075-12.325,21.751-53.361,24.216-65.687c0.435-2.9-0.87-3.625-2.61-3.771c-2.175-0.29-4.93-0.29-6.96-0.58
		c-0.29-0.145-0.435-0.435-0.29-1.16c0.29-2.755,0.58-3.77,1.74-3.77c1.45,0,10.15,0.435,13.63,0.435c4.64,0,9.425-0.29,10.585-0.29
		c1.74,0,2.465,0.29,2.61,1.16l0.435,3.19c0,0.29-0.29,0.58-0.58,0.58c-7.54-0.146-7.83,0.87-14.646,15.95
		c-4.205,8.99-15.95,38.426-24.796,60.901c-1.16,2.61-4.35,8.556-6.235,13.341c-0.435,1.015-1.45,1.595-2.32,1.595
		c-1.74,0-2.465-1.015-3.19-3.045c-0.87-2.61-2.03-6.235-4.495-13.05c-2.755-7.976-10.15-28.566-16.966-45.097
		c-5.365,12.471-11.455,26.391-18.705,44.371c-1.74,4.495-4.641,10.73-6.38,15.37c-0.29,0.726-0.58,1.016-1.015,1.16
		c-0.725,0.436-1.74,0.58-2.755,0.58c-0.725,0-1.305-0.435-1.595-1.595C111.135,176.247,108.815,169.432,104.32,158.267z"/>
	<path d="M215.315,137.676c-0.87,0.29-1.74,0.435-2.61,0.435c-0.58,0-1.74-1.16-1.74-1.885c0-1.015,0.435-2.175,1.16-3.335
		c2.755-4.061,13.195-10.296,16.965-11.601c3.19-1.16,5.655-1.74,7.976-1.74c6.38,0,9.715,2.465,12.035,5.221
		c2.465,2.609,2.755,5.22,2.755,6.96c0,10.295-0.435,20.445-0.435,30.016c0,7.686,1.305,10.44,3.625,10.44
		c2.465,0,6.67-1.74,7.105-1.885c0.435-0.29,1.45,0.87,1.45,1.45l-0.29,2.465c0,0.58-0.29,1.16-0.87,1.595
		c-1.74,1.016-11.165,3.48-16.095,3.625c-2.465,0-4.785-1.45-5.945-7.54c-5.655,2.465-16.676,7.25-18.416,7.25
		c-2.03,0-4.93-0.58-8.265-3.045c-1.74-1.595-4.061-5.365-4.061-11.165c0-3.19,2.175-5.511,6.235-7.54
		c7.396-3.915,16.241-6.235,24.941-7.83c0.29-1.886,0.29-7.396,0.29-10.44c0-5.945-1.16-9.28-2.465-10.586
		c-1.16-1.015-4.785-2.175-8.12-2.175c-2.9,0-4.93,0.58-5.8,0.87c-0.58,0.435-1.016,1.45-1.016,6.235c0,1.015,0,1.45-0.87,1.74
		L215.315,137.676z M228.366,171.752c1.45,0,5.365-1.306,8.99-3.046c1.74-1.159,2.9-2.029,3.19-3.77
		c0.145-1.885,0.435-7.25,0.435-9.28c0-1.016-0.29-1.74-0.725-1.74c-8.555,1.45-13.92,3.045-17.11,5.51
		c-0.87,0.58-1.45,1.74-1.45,4.351c0,4.93,1.45,7.976,6.525,7.976H228.366z"/>
	<path d="M313.132,163.196c0,4.205-2.175,8.41-6.96,11.745c-4.35,2.9-9.86,3.915-14.646,3.915c-3.915,0-10.15-0.87-12.47-1.305
		c-2.32-0.435-3.045-0.58-4.93,0.29c-0.145,0-0.87,0-1.305-0.29c-0.435-0.435-0.435-0.87-0.29-1.595
		c0.725-5.365,0.58-10.296,0-15.951c0.145-0.435,0.145-0.725,0.435-1.015c0.58-0.29,1.305-0.58,3.48-1.015
		c1.305,3.915,3.77,8.265,6.38,11.31c3.915,4.205,7.395,5.221,9.86,5.221c3.335,0,8.99-3.045,8.99-8.266
		c0-7.83-8.555-11.165-12.905-13.485c-3.625-2.03-14.21-6.67-14.21-16.096c0-4.64,2.03-8.555,6.38-12.18
		c4.06-3.19,9.135-4.495,12.47-4.495c3.48,0,6.38,0.435,9.57,0.435c1.305,0,2.175-0.145,2.465-0.29
		c0.29-0.145,0.58-0.145,1.16,0.146c0.435,0.29,0.435,0.58,0.435,1.015c0.145,4.205,1.16,9.136,2.755,14.5
		c0,0.58-1.015,1.306-1.305,1.306c-2.32,0-2.9-0.146-4.206-2.03c-2.03-3.771-5.8-10.44-13.195-10.44c-2.61,0-6.38,2.32-6.38,7.54
		c0,6.525,5.8,9.57,11.891,12.761c3.915,1.885,16.53,6.67,16.53,18.126V163.196z"/>
	<path d="M381.569,125.351c-5.945,1.16-6.235,1.885-5.365,5.51c0.87,3.48,6.815,19.285,11.601,31.321
		c0.145,0.725,1.015,0.435,1.16,0.145c3.915-8.7,6.96-15.37,10.73-24.36c0.58-1.306,0.29-2.32-0.145-4.061
		c-2.175-6.67-2.465-6.815-8.7-7.975c0-0.58,0.29-1.886,0.725-2.9c0.145-0.87,0.725-1.16,1.595-1.16
		c8.41,0.145,15.515,0,21.896-0.29c0.145,2.755,0.145,3.915-0.58,4.351c-5.075,1.015-5.945,1.595-5.075,4.205
		c3.19,10.15,7.396,22.766,11.166,32.626c0.145,0.58,1.015,0.58,1.305,0c2.61-5.511,8.12-18.561,10.44-25.376
		c1.305-3.915,2.61-7.54,2.465-8.556c0-1.015-1.45-2.03-8.846-3.045c0-0.87,0.726-3.48,1.16-3.771
		c10.15-0.145,12.905-0.145,15.371-0.435c2.465-0.145,3.77-0.29,5.075-0.29c0.58,0,0.87,0,0.87,0.87v1.885
		c0,0.87,0,1.16-1.885,1.886c-2.175,1.015-3.045,2.609-5.51,7.25c-2.61,5.22-11.6,25.521-15.225,33.206
		c-2.61,5.8-4.351,9.715-4.931,11.31c-0.435,1.306-1.74,1.74-3.77,1.74c-1.016,0-1.595-0.145-2.03-1.595
		c-3.915-11.455-7.83-22.766-12.035-32.916c-0.146-0.58-0.726-0.87-0.87-0.29c-7.83,16.82-11.021,23.926-14.791,33.496
		c-0.29,0.725-0.725,1.305-1.595,1.305s-1.305,0-1.885-0.145c-0.87-0.29-1.45-0.726-1.885-2.465
		c-4.93-14.065-10.15-27.261-16.531-42.776c-2.465-6.091-3.48-7.105-8.12-7.976c-0.58-0.145-0.725-0.29-0.58-0.87l1.015-2.32
		c0.145-0.87,0.435-1.015,1.015-1.015c7.54,0,13.485-0.435,20.591-0.435c1.015,0,1.16,0.29,1.305,1.159L381.569,125.351z"/>
	<path d="M459.289,137.676c-0.87,0.29-1.74,0.435-2.61,0.435c-0.58,0-1.74-1.16-1.74-1.885c0-1.015,0.435-2.175,1.16-3.335
		c2.755-4.061,13.195-10.296,16.965-11.601c3.19-1.16,5.655-1.74,7.975-1.74c6.38,0,9.715,2.465,12.035,5.221
		c2.465,2.609,2.755,5.22,2.755,6.96c0,10.295-0.435,20.445-0.435,30.016c0,7.686,1.305,10.44,3.625,10.44
		c2.465,0,6.67-1.74,7.105-1.885c0.435-0.29,1.45,0.87,1.45,1.45l-0.29,2.465c0,0.58-0.29,1.16-0.87,1.595
		c-1.74,1.016-11.166,3.48-16.096,3.625c-2.465,0-4.785-1.45-5.945-7.54c-5.655,2.465-16.675,7.25-18.415,7.25
		c-2.03,0-4.931-0.58-8.266-3.045c-1.74-1.595-4.06-5.365-4.06-11.165c0-3.19,2.175-5.511,6.235-7.54
		c7.395-3.915,16.24-6.235,24.941-7.83c0.29-1.886,0.29-7.396,0.29-10.44c0-5.945-1.16-9.28-2.465-10.586
		c-1.16-1.015-4.785-2.175-8.121-2.175c-2.9,0-4.93,0.58-5.8,0.87c-0.58,0.435-1.015,1.45-1.015,6.235c0,1.015,0,1.45-0.87,1.74
		L459.289,137.676z M466.684,92.435c0.725,0,1.305,0,1.45,0.29c1.595,2.609,2.175,3.625,5.075,4.495c0.87,0,0.725,3.625,0,4.205
		c-2.9,1.45-3.48,2.609-5.075,6.235c-0.145,0.725-3.335,0.725-3.625,0c-1.45-2.756-2.755-4.495-5.365-4.785
		c-0.725-0.146-1.305-3.336-0.435-4.206c2.9-1.885,3.77-2.319,5.075-5.8c0.145-0.29,1.45-0.435,2.755-0.435H466.684z
		 M472.339,171.752c1.45,0,5.365-1.306,8.99-3.046c1.74-1.159,2.9-2.029,3.19-3.77c0.145-1.885,0.435-7.25,0.435-9.28
		c0-1.016-0.29-1.74-0.725-1.74c-8.556,1.45-13.921,3.045-17.111,5.51c-0.87,0.58-1.45,1.74-1.45,4.351
		c0,4.93,1.45,7.976,6.525,7.976H472.339z M490.174,92.289c0.87,0,1.885,0.146,2.03,0.29c1.305,2.61,2.32,3.48,5.22,4.641
		c0.87,0.435,0.725,3.915,0,4.35c-3.335,1.16-4.205,3.045-5.075,6.381c-0.29,0.579-3.915,0.435-4.495-1.016
		c-1.015-2.9-2.32-3.19-5.365-5.075c-0.725-0.435-0.725-3.479,0-3.77c3.19-1.596,3.77-2.176,5.365-5.365
		c0.145-0.29,1.305-0.436,2.175-0.436H490.174z"/>
	<path d="M518.229,173.201c3.335-1.159,4.06-1.449,4.35-3.335c0.29-1.739,0.29-5.655,0.29-18.271v-13.05
		c0-3.48-0.29-4.351-5.945-5.945c-1.16-0.436-1.885-2.32-1.595-3.19c5.51-3.625,11.456-6.815,15.951-9.86
		c0.58-0.29,1.45-0.58,1.74-0.58c0.58,0,1.305,1.016,1.015,2.32c-0.145,3.771-0.58,7.105-0.435,11.455
		c2.9-1.45,11.746-8.555,13.631-9.86c1.305-1.015,2.9-2.029,4.205-2.029c3.77,0,7.975,3.625,7.975,6.814
		c0,2.32-3.625,6.525-4.93,7.686c-0.87,0.58-1.596,1.16-2.465,1.16c-0.87,0-1.306-0.29-1.885-1.015
		c-1.16-1.596-3.19-3.336-5.511-3.336c-3.19,0-7.105,2.61-9.715,4.931c-1.015,0.87-1.305,2.755-1.305,9.57v18.125
		c0,3.625,0.145,5.511,0.58,6.235c0.435,0.726,1.015,1.16,2.61,1.016l7.83-0.29c0.726,0,1.305,0.725,1.16,1.305l-0.87,4.495
		c-6.38,0-12.761,0-19.141,0c-3.77,0-7.396,0.29-8.41,0.29c-0.58,0-0.87-0.435-0.435-1.305L518.229,173.201z"/>
	<path d="M593.107,119.84c4.496,0,9.57,2.61,12.035,5.221c2.466,2.465,4.496,5.51,5.801,9.57c1.305-0.29,4.061-1.016,4.495-0.436
		c0.435,0.29,0.435,0.726,0.29,1.306c-0.436,1.305-1.45,3.915-2.755,4.205c-9.86,2.319-28.565,5.944-34.802,7.83
		c-0.725,0.145-1.015,0.87-1.015,2.609c0.435,14.355,8.12,20.301,17.69,20.301c6.67,0,12.326-2.755,17.256-7.104
		c0.725-0.58,2.465-0.58,2.32-0.146c-0.146,3.48-0.436,4.495-1.306,5.365c-6.235,5.22-13.05,8.12-17.98,9.57
		c-1.885,0.58-3.771,0.725-5.365,0.725c-10.149,0-16.675-6.09-18.415-8.12c-2.32-2.465-6.525-8.845-6.525-18.271
		c0-12.76,7.395-22.476,15.226-27.985c3.625-2.61,8.845-4.641,12.905-4.641H593.107z M599.633,136.08
		c0-4.06-5.51-10.729-11.6-10.729c-0.871,0-2.32,0.435-3.625,1.449c-4.206,2.9-6.671,10.15-6.381,16.241
		c6.67-1.74,13.34-2.9,19.865-4.495c1.016-0.29,1.74-0.726,1.74-2.32V136.08z"/>
	<path d="M104.32,338.267c-4.495-11.166-11.89-30.597-24.216-59.598c-4.06-9.425-4.35-10.149-11.746-10.875
		c-0.87-0.145-1.015-0.29-1.015-0.87c0-0.29,1.015-2.175,1.45-2.755c0.435-0.58,1.015-0.87,2.03-0.87c2.755,0,9.135,0.29,12.18,0.29
		c5.075,0,10.15-0.29,15.371-0.29c0.725,0,1.305,2.03,1.305,3.625c0,0.58-0.145,1.016-0.87,1.16c-5.8,0.58-7.83,1.016-7.54,2.9
		c0.145,1.015,0.725,3.189,1.45,5.22c7.831,21.315,19.866,50.172,25.086,61.627c0.29,0.726,1.305,1.016,1.595,0.29
		c4.205-9.425,14.936-36.686,18.851-46.981c0.58-1.305,0.29-2.32-0.146-3.479c-2.61-7.541-4.495-12.471-5.655-15.516
		c-1.305-3.335-2.175-3.771-8.845-3.915c-0.435,0-1.015-0.436-1.015-0.87c0.435-3.045,1.305-4.061,2.32-4.061
		c3.48,0,8.556,0.29,13.921,0.29c7.25,0,11.455-0.435,13.63-0.435c1.015,0.435,1.74,4.35,0.87,4.64
		c-7.685,0.87-8.555,1.306-7.25,5.221c5.075,15.66,17.255,47.126,24.796,65.252c0.29,0.58,0.87,0.435,1.305-0.436
		c5.075-12.325,21.751-53.361,24.216-65.687c0.435-2.9-0.87-3.625-2.61-3.771c-2.175-0.29-4.93-0.29-6.96-0.58
		c-0.29-0.145-0.435-0.435-0.29-1.16c0.29-2.755,0.58-3.77,1.74-3.77c1.45,0,10.15,0.435,13.63,0.435c4.64,0,9.425-0.29,10.585-0.29
		c1.74,0,2.465,0.29,2.61,1.16l0.435,3.19c0,0.29-0.29,0.58-0.58,0.58c-7.54-0.146-7.83,0.87-14.646,15.95
		c-4.205,8.99-15.95,38.426-24.796,60.901c-1.16,2.61-4.35,8.556-6.235,13.341c-0.435,1.015-1.45,1.595-2.32,1.595
		c-1.74,0-2.465-1.015-3.19-3.045c-0.87-2.61-2.03-6.235-4.495-13.05c-2.755-7.976-10.15-28.566-16.966-45.097
		c-5.365,12.471-11.455,26.391-18.705,44.371c-1.74,4.495-4.641,10.73-6.38,15.37c-0.29,0.726-0.58,1.016-1.015,1.16
		c-0.725,0.436-1.74,0.58-2.755,0.58c-0.725,0-1.305-0.435-1.595-1.595C111.135,356.247,108.815,349.432,104.32,338.267z"/>
	<path d="M238.009,299.84c4.495,0,9.57,2.61,12.035,5.221c2.465,2.465,4.495,5.51,5.8,9.57c1.305-0.29,4.06-1.016,4.495-0.436
		c0.435,0.29,0.435,0.726,0.29,1.306c-0.435,1.305-1.45,3.915-2.755,4.205c-9.86,2.319-28.566,5.944-34.801,7.83
		c-0.725,0.145-1.015,0.87-1.015,2.609c0.435,14.355,8.12,20.301,17.69,20.301c6.67,0,12.325-2.755,17.255-7.104
		c0.725-0.58,2.465-0.58,2.32-0.146c-0.145,3.48-0.435,4.495-1.305,5.365c-6.235,5.22-13.051,8.12-17.98,9.57
		c-1.885,0.58-3.771,0.725-5.365,0.725c-10.15,0-16.676-6.09-18.416-8.12c-2.32-2.465-6.525-8.845-6.525-18.271
		c0-12.76,7.395-22.476,15.226-27.985c3.625-2.61,8.845-4.641,12.905-4.641H238.009z M244.534,316.08
		c0-4.06-5.51-10.729-11.601-10.729c-0.87,0-2.32,0.435-3.625,1.449c-4.205,2.9-6.67,10.15-6.38,16.241
		c6.67-1.74,13.34-2.9,19.866-4.495c1.015-0.29,1.74-0.726,1.74-2.32V316.08z"/>
	<path d="M276.549,311.585c-0.146-0.725-1.016-1.159-7.831-2.319c-0.58-0.146-0.725-0.436-0.29-1.16
		c1.015-2.61,1.16-2.9,1.885-3.045c5.655-1.886,10.73-4.061,17.11-6.235c0.29-0.146,0.435-0.146,0.725-0.146s0.29,0.29,0.29,1.16
		c-0.58,9.86-1.305,30.306-1.305,37.847c0,7.395,0,10.005,0.145,11.745c0.29,2.03,0.58,2.9,2.03,2.755
		c4.495-0.29,5.655-0.29,6.09-0.29s1.305,0.87,1.16,1.305l-0.435,3.771c-0.145,0.87-0.435,0.87-1.16,0.87
		c-4.205,0-8.265-0.29-12.905-0.29c-6.38,0-12.18,0.87-12.615,0.87c-0.725,0-1.015-0.146-1.16-0.726
		c-0.29-1.015-0.29-2.465-0.29-3.335c0-0.58,0.29-0.725,0.725-0.725c5.22-0.58,6.38-1.015,7.25-5.075
		c0.435-2.32,1.305-12.471,1.015-21.605L276.549,311.585z M284.959,266.924c3.77,0,6.235,3.19,6.235,6.671
		c0,4.93-3.48,7.83-7.25,7.83c-3.48,0-6.38-2.756-6.38-6.671c0-5.075,4.06-7.83,7.25-7.83H284.959z"/>
	<path d="M305.722,355.957c-0.436-0.726-0.29-1.016,0.145-1.306c7.686-3.479,8.12-3.915,8.12-17.69v-57.856
		c0-8.556-0.29-8.7-5.365-13.341c-0.58-0.435-0.435-1.305,0.145-1.885c2.175-1.74,10.73-6.525,14.646-8.7
		c0.725-0.29,1.595-0.29,2.03,0.146c0.29,0.289,0.29,0.725,0.29,1.595c0,9.135-0.435,18.561-0.435,28.855v21.315
		c0,0.436,0.58,1.16,1.015,0.87c2.9-1.16,11.456-5.22,15.225-6.524c3.045-1.016,5.511-1.45,7.976-1.45
		c13.05,0,15.95,11.021,15.95,23.056c0,4.35-0.435,14.355-0.435,23.636c0,4.785,0.58,5.22,6.235,6.814
		c1.305,0.29,1.45,0.436,1.45,1.016v2.32c0,0.869-0.145,1.015-1.015,1.015h-10.295c-6.96,0-13.051,0.725-14.646,0.87
		c-0.58,0-0.725-0.29-0.725-2.03c-0.29-1.74-0.145-2.03,0.29-2.32c0.436-0.29,2.755-1.015,4.061-1.595
		c2.61-1.305,3.19-2.32,3.625-5.8c0.725-6.525,0.58-10.73,0.58-16.386c0-13.485-2.465-17.256-5.51-19.721
		c-3.335-2.465-5.945-2.755-8.7-2.755c-4.205,0-9.57,1.74-13.63,3.915c-1.305,0.58-1.74,1.595-1.74,4.495v15.516
		c0,7.685,0.29,11.89,0.87,15.806c0.435,3.479,1.015,4.205,7.54,4.93c0.58,0,0.725,0.29,1.015,3.48
		c-0.145,1.16-0.29,1.305-0.725,1.305c-11.745,0-19.575,0-25.956,1.015c-0.87,0.146-1.015,0.146-1.16-0.29L305.722,355.957z"/>
	<path d="M383.396,354.361c4.495-1.595,6.235-2.609,6.67-6.524c0.725-4.351,1.015-12.906,1.015-20.011
		c0-5.655-0.29-10.876-0.435-13.485c0-1.45-0.58-2.03-7.25-3.625c-0.58-0.726-0.87-0.436-0.29-2.756
		c0-0.435,0.436-0.725,1.306-1.015c6.235-3.045,12.615-6.525,13.34-7.105c0.436-0.29,1.015-0.435,1.595-0.435
		c0.725,0,1.45,0.435,1.45,1.015c0.145,2.465,0.29,5.221,0.29,7.686c0,0.725,0.145,1.305,0.725,1.305
		c6.38-3.625,8.845-4.785,12.76-6.525c2.32-1.159,5.51-2.029,8.12-2.029c4.205,0,7.105,1.015,9.86,3.189
		c3.77,2.9,5.8,8.12,6.38,14.355c0.29,3.045,0.29,6.525,0.29,12.761c0,10.585,0.145,16.82,0.145,20.155
		c0,1.306,0.146,1.45,0.58,1.45c1.305,0,5.51-0.435,7.686-0.58c0.435,0,0.725,0.58,0.725,1.45s-0.435,2.9-0.58,3.48
		c-0.29,0.725-0.58,0.725-1.16,0.725c-12.905,0-17.255,0.58-22.766,0.58c-0.87,0-1.595,0-1.74-0.58l-0.725-2.9
		c4.205-1.45,5.8-2.609,6.38-6.67c0.725-4.351,0.87-9.715,0.87-20.011c0-7.975-0.145-12.035-3.48-15.66
		c-2.32-2.465-5.51-3.625-9.715-3.625c-3.48,0-8.991,2.03-12.181,3.915c-1.305,1.015-1.45,1.885-1.595,3.479
		c-0.29,5.075-0.29,25.812-0.29,33.642c0,1.885,0.29,2.175,7.83,3.335c0.87,0.145,1.015,0.435,0.87,1.015l-0.87,3.19h-12.325
		c-5.8,0-10.44,0.725-13.34,0.725c-0.29,0-0.436-0.29-0.436-0.869L383.396,354.361z"/>
	<path d="M463.624,317.676c-0.87,0.29-1.74,0.435-2.61,0.435c-0.58,0-1.74-1.16-1.74-1.885c0-1.015,0.436-2.175,1.16-3.335
		c2.755-4.061,13.195-10.296,16.966-11.601c3.19-1.16,5.655-1.74,7.975-1.74c6.38,0,9.715,2.465,12.035,5.221
		c2.465,2.609,2.755,5.22,2.755,6.96c0,10.295-0.435,20.445-0.435,30.016c0,7.686,1.305,10.44,3.625,10.44
		c2.465,0,6.67-1.74,7.105-1.885c0.436-0.29,1.45,0.87,1.45,1.45l-0.29,2.465c0,0.58-0.29,1.16-0.87,1.595
		c-1.74,1.016-11.165,3.48-16.095,3.625c-2.465,0-4.785-1.45-5.945-7.54c-5.655,2.465-16.675,7.25-18.416,7.25
		c-2.03,0-4.93-0.58-8.265-3.045c-1.74-1.595-4.06-5.365-4.06-11.165c0-3.19,2.175-5.511,6.235-7.54
		c7.395-3.915,16.24-6.235,24.94-7.83c0.29-1.886,0.29-7.396,0.29-10.44c0-5.945-1.16-9.28-2.465-10.586
		c-1.16-1.015-4.785-2.175-8.121-2.175c-2.9,0-4.93,0.58-5.8,0.87c-0.58,0.435-1.015,1.45-1.015,6.235c0,1.015,0,1.45-0.87,1.74
		L463.624,317.676z M476.674,351.752c1.45,0,5.365-1.306,8.99-3.046c1.74-1.159,2.9-2.029,3.19-3.77
		c0.145-1.885,0.435-7.25,0.435-9.28c0-1.016-0.29-1.74-0.725-1.74c-8.555,1.45-13.92,3.045-17.11,5.51
		c-0.87,0.58-1.45,1.74-1.45,4.351c0,4.93,1.45,7.976,6.525,7.976H476.674z"/>
	<path d="M552.059,299.405c4.785,0,10.73,1.74,13.631,4.785c0.58,0.58,1.015,1.16,1.015,2.03c0,2.029-2.9,4.495-4.641,5.51
		c-1.159,0.58-2.755,0.87-3.335,0.58c-0.87-0.29-1.595-0.726-3.189-1.885c-3.336-2.03-7.541-3.626-10.876-3.626
		c-4.495,0-7.83,1.74-9.715,3.626c-3.771,3.77-4.931,9.28-4.931,17.255c0,8.7,2.755,14.791,4.641,16.966
		c4.35,5.22,10.005,6.67,13.485,6.67c4.35,0,11.455-3.479,15.515-5.945c0.436-0.145,1.74,0.436,1.74,0.87
		c0,0.87-0.58,3.771-1.595,4.495c-1.885,1.596-8.41,4.931-13.195,6.671c-3.045,1.015-6.38,1.449-8.12,1.449
		c-5.22,0-11.746-2.175-16.241-5.8c-3.045-2.465-7.975-9.28-7.975-18.561c0-14.646,6.235-20.155,8.7-22.621
		c3.045-3.189,9.57-7.25,12.905-8.99c3.771-2.029,7.54-3.479,12.036-3.479H552.059z"/>
	<path d="M573.387,355.957c-0.436-0.726-0.291-1.016,0.145-1.306c7.686-3.479,8.12-3.915,8.12-17.69v-57.856
		c0-8.556-0.29-8.7-5.365-13.341c-0.58-0.435-0.435-1.305,0.146-1.885c2.175-1.74,10.73-6.525,14.645-8.7
		c0.726-0.29,1.596-0.29,2.03,0.146c0.29,0.289,0.29,0.725,0.29,1.595c0,9.135-0.435,18.561-0.435,28.855v21.315
		c0,0.436,0.58,1.16,1.015,0.87c2.9-1.16,11.455-5.22,15.226-6.524c3.045-1.016,5.511-1.45,7.976-1.45
		c13.05,0,15.95,11.021,15.95,23.056c0,4.35-0.435,14.355-0.435,23.636c0,4.785,0.58,5.22,6.234,6.814
		c1.305,0.29,1.45,0.436,1.45,1.016v2.32c0,0.869-0.146,1.015-1.015,1.015h-10.295c-6.961,0-13.051,0.725-14.646,0.87
		c-0.58,0-0.725-0.29-0.725-2.03c-0.29-1.74-0.145-2.03,0.29-2.32s2.755-1.015,4.06-1.595c2.61-1.305,3.19-2.32,3.625-5.8
		c0.726-6.525,0.58-10.73,0.58-16.386c0-13.485-2.465-17.256-5.51-19.721c-3.335-2.465-5.945-2.755-8.7-2.755
		c-4.205,0-9.57,1.74-13.63,3.915c-1.306,0.58-1.74,1.595-1.74,4.495v15.516c0,7.685,0.29,11.89,0.87,15.806
		c0.435,3.479,1.015,4.205,7.54,4.93c0.58,0,0.725,0.29,1.015,3.48c-0.145,1.16-0.29,1.305-0.725,1.305
		c-11.745,0-19.575,0-25.956,1.015c-0.87,0.146-1.015,0.146-1.16-0.29L573.387,355.957z"/>
	<path d="M665.707,290.56c0.145,0,0.29,0.29,0.29,0.87c0,1.885-0.726,9.57-0.726,10.875c6.961,0,15.516-0.725,20.592-0.725
		c1.449,0,1.595,0.435,1.595,1.595c0,1.306-0.29,2.9-0.87,4.931c-0.29,1.16-1.016,1.305-2.176,1.305
		c-4.205,0.146-11.02,0.146-18.705,0.436c-0.436,0-0.725,0.435-0.87,2.029c-0.435,6.525-0.29,21.606-0.29,29.727
		c0,6.38,4.205,9.86,10.73,9.86c3.48,0,5.655-1.016,9.135-3.19c0.726-0.435,1.016-0.435,1.16,0.145
		c0.291,1.016,0.436,1.886,0.436,2.756c0,0.725-0.436,1.305-1.016,1.595c-5.51,3.19-11.165,6.38-18.125,6.38
		c-2.61,0-7.976-1.015-11.021-4.64c-1.885-2.32-2.319-4.931-2.03-10.586c0.29-7.83,0.29-27.841,0.58-31.9
		c0.146-1.015-0.58-2.03-1.305-2.03c-2.03-0.145-4.93-0.145-5.945-0.145c-0.29-0.146-1.16-1.306-0.725-1.596
		c5.365-4.785,14.355-13.485,17.545-16.675c0.58-0.726,1.305-1.016,1.596-1.016H665.707z"/>
	<path d="M722.096,299.84c4.495,0,9.57,2.61,12.035,5.221c2.466,2.465,4.496,5.51,5.801,9.57c1.305-0.29,4.061-1.016,4.495-0.436
		c0.435,0.29,0.435,0.726,0.29,1.306c-0.436,1.305-1.45,3.915-2.756,4.205c-9.859,2.319-28.565,5.944-34.801,7.83
		c-0.725,0.145-1.015,0.87-1.015,2.609c0.435,14.355,8.12,20.301,17.69,20.301c6.67,0,12.325-2.755,17.256-7.104
		c0.725-0.58,2.465-0.58,2.32-0.146c-0.146,3.48-0.436,4.495-1.306,5.365c-6.235,5.22-13.05,8.12-17.98,9.57
		c-1.885,0.58-3.771,0.725-5.365,0.725c-10.15,0-16.675-6.09-18.415-8.12c-2.32-2.465-6.525-8.845-6.525-18.271
		c0-12.76,7.395-22.476,15.225-27.985c3.626-2.61,8.846-4.641,12.906-4.641H722.096z M728.621,316.08
		c0-4.06-5.51-10.729-11.601-10.729c-0.87,0-2.319,0.435-3.625,1.449c-4.205,2.9-6.67,10.15-6.38,16.241
		c6.67-1.74,13.34-2.9,19.865-4.495c1.016-0.29,1.74-0.726,1.74-2.32V316.08z"/>
	<path d="M753.661,354.361c4.495-1.595,6.235-2.609,6.67-6.524c0.726-4.351,1.015-12.906,1.015-20.011
		c0-5.655-0.289-10.876-0.435-13.485c0-1.45-0.58-2.03-7.25-3.625c-0.58-0.726-0.87-0.436-0.29-2.756
		c0-0.435,0.435-0.725,1.305-1.015c6.235-3.045,12.615-6.525,13.341-7.105c0.435-0.29,1.015-0.435,1.595-0.435
		c0.725,0,1.45,0.435,1.45,1.015c0.146,2.465,0.29,5.221,0.29,7.686c0,0.725,0.145,1.305,0.725,1.305
		c6.381-3.625,8.846-4.785,12.761-6.525c2.32-1.159,5.511-2.029,8.12-2.029c4.205,0,7.105,1.015,9.86,3.189
		c3.771,2.9,5.8,8.12,6.38,14.355c0.29,3.045,0.29,6.525,0.29,12.761c0,10.585,0.146,16.82,0.146,20.155
		c0,1.306,0.145,1.45,0.58,1.45c1.305,0,5.51-0.435,7.686-0.58c0.435,0,0.725,0.58,0.725,1.45s-0.436,2.9-0.58,3.48
		c-0.29,0.725-0.58,0.725-1.16,0.725c-12.905,0-17.256,0.58-22.766,0.58c-0.87,0-1.596,0-1.74-0.58l-0.725-2.9
		c4.205-1.45,5.8-2.609,6.38-6.67c0.726-4.351,0.87-9.715,0.87-20.011c0-7.975-0.145-12.035-3.48-15.66
		c-2.32-2.465-5.51-3.625-9.715-3.625c-3.48,0-8.99,2.03-12.181,3.915c-1.305,1.015-1.45,1.885-1.595,3.479
		c-0.29,5.075-0.29,25.812-0.29,33.642c0,1.885,0.29,2.175,7.83,3.335c0.87,0.145,1.015,0.435,0.87,1.015l-0.87,3.19h-12.325
		c-5.801,0-10.44,0.725-13.341,0.725c-0.29,0-0.435-0.29-0.435-0.869L753.661,354.361z"/>
	<path d="M101.274,479.55c10.15,0,26.826,9.57,26.826,29.437c0,14.79-9.28,22.476-11.311,23.636
		c-6.38,3.915-13.195,6.38-19.431,6.38c-5.365,0-16.53-3.19-22.041-10.586c-4.35-5.654-6.09-13.485-6.09-18.561
		c0-5.944,2.32-12.905,5.8-17.4c2.9-3.77,5.8-6.09,9.715-8.265c4.93-2.61,12.035-4.641,16.386-4.641H101.274z M94.75,485.061
		c-2.465,0-5.365,1.16-7.395,3.335c-3.916,3.915-5.511,9.86-5.511,19.285c0,9.28,3.771,15.516,7.105,19.141
		c4.93,5.365,10.005,6.67,13.63,6.67c1.885,0,5.22-0.725,7.105-2.609c3.19-3.045,6.235-8.266,6.235-17.11
		c0-8.846-2.61-18.126-8.7-23.636c-2.755-2.61-7.54-5.075-12.325-5.075H94.75z"/>
	<path d="M135.682,535.957c-0.435-0.726-0.29-1.016,0.145-1.306c7.685-3.479,8.121-3.915,8.121-17.69v-57.856
		c0-8.556-0.29-8.7-5.365-13.341c-0.58-0.435-0.436-1.305,0.145-1.885c2.175-1.74,10.73-6.525,14.646-8.7
		c0.725-0.29,1.595-0.29,2.03,0.146c0.29,0.289,0.29,0.725,0.29,1.595c0,9.135-0.435,18.561-0.435,28.855v21.315
		c0,0.436,0.58,1.16,1.015,0.87c2.9-1.16,11.455-5.22,15.226-6.524c3.045-1.016,5.51-1.45,7.975-1.45
		c13.05,0,15.95,11.021,15.95,23.056c0,4.35-0.435,14.355-0.435,23.636c0,4.785,0.58,5.22,6.235,6.814
		c1.305,0.29,1.45,0.436,1.45,1.016v2.32c0,0.869-0.145,1.015-1.015,1.015h-10.295c-6.96,0-13.05,0.725-14.646,0.87
		c-0.58,0-0.725-0.29-0.725-2.03c-0.29-1.74-0.146-2.03,0.29-2.32c0.435-0.29,2.755-1.015,4.06-1.595
		c2.61-1.305,3.19-2.32,3.625-5.8c0.725-6.525,0.58-10.73,0.58-16.386c0-13.485-2.465-17.256-5.51-19.721
		c-3.335-2.465-5.945-2.755-8.7-2.755c-4.205,0-9.57,1.74-13.631,3.915c-1.305,0.58-1.74,1.595-1.74,4.495v15.516
		c0,7.685,0.29,11.89,0.87,15.806c0.435,3.479,1.015,4.205,7.54,4.93c0.58,0,0.725,0.29,1.015,3.48
		c-0.145,1.16-0.29,1.305-0.725,1.305c-11.746,0-19.576,0-25.956,1.015c-0.87,0.146-1.015,0.146-1.16-0.29L135.682,535.957z"/>
	<path d="M213.357,534.361c4.495-1.595,6.235-2.609,6.67-6.524c0.725-4.351,1.015-12.906,1.015-20.011
		c0-5.655-0.29-10.876-0.435-13.485c0-1.45-0.58-2.03-7.25-3.625c-0.58-0.726-0.87-0.436-0.29-2.756
		c0-0.435,0.435-0.725,1.305-1.015c6.235-3.045,12.615-6.525,13.341-7.105c0.435-0.29,1.015-0.435,1.595-0.435
		c0.725,0,1.45,0.435,1.45,1.015c0.145,2.465,0.29,5.221,0.29,7.686c0,0.725,0.145,1.305,0.725,1.305
		c6.38-3.625,8.846-4.785,12.761-6.525c2.32-1.159,5.51-2.029,8.12-2.029c4.205,0,7.105,1.015,9.86,3.189
		c3.77,2.9,5.8,8.12,6.38,14.355c0.29,3.045,0.29,6.525,0.29,12.761c0,10.585,0.146,16.82,0.146,20.155
		c0,1.306,0.145,1.45,0.58,1.45c1.305,0,5.51-0.435,7.685-0.58c0.436,0,0.726,0.58,0.726,1.45s-0.436,2.9-0.58,3.48
		c-0.29,0.725-0.58,0.725-1.16,0.725c-12.905,0-17.256,0.58-22.766,0.58c-0.87,0-1.595,0-1.74-0.58l-0.725-2.9
		c4.206-1.45,5.8-2.609,6.38-6.67c0.725-4.351,0.87-9.715,0.87-20.011c0-7.975-0.145-12.035-3.48-15.66
		c-2.32-2.465-5.51-3.625-9.715-3.625c-3.48,0-8.99,2.03-12.181,3.915c-1.305,1.015-1.45,1.885-1.595,3.479
		c-0.29,5.075-0.29,25.812-0.29,33.642c0,1.885,0.29,2.175,7.83,3.335c0.87,0.145,1.015,0.435,0.87,1.015l-0.87,3.19h-12.325
		c-5.8,0-10.44,0.725-13.341,0.725c-0.29,0-0.435-0.29-0.435-0.869L213.357,534.361z"/>
	<path d="M313.349,479.84c4.495,0,9.57,2.61,12.035,5.221c2.465,2.465,4.495,5.51,5.8,9.57c1.305-0.29,4.061-1.016,4.495-0.436
		c0.436,0.29,0.436,0.726,0.29,1.306c-0.435,1.305-1.45,3.915-2.755,4.205c-9.86,2.319-28.566,5.944-34.801,7.83
		c-0.725,0.145-1.015,0.87-1.015,2.609c0.435,14.355,8.12,20.301,17.69,20.301c6.67,0,12.326-2.755,17.255-7.104
		c0.725-0.58,2.465-0.58,2.32-0.146c-0.145,3.48-0.435,4.495-1.305,5.365c-6.235,5.22-13.05,8.12-17.98,9.57
		c-1.885,0.58-3.77,0.725-5.365,0.725c-10.15,0-16.675-6.09-18.416-8.12c-2.32-2.465-6.525-8.845-6.525-18.271
		c0-12.76,7.396-22.476,15.226-27.985c3.625-2.61,8.845-4.641,12.905-4.641H313.349z M319.874,496.08
		c0-4.06-5.51-10.729-11.6-10.729c-0.87,0-2.32,0.435-3.625,1.449c-4.205,2.9-6.67,10.15-6.38,16.241
		c6.67-1.74,13.341-2.9,19.866-4.495c1.015-0.29,1.74-0.726,1.74-2.32V496.08z"/>
	<path d="M391.792,475.49c0-22.041-0.725-24.506-2.9-25.812c-1.74-1.305-4.06-1.595-8.12-1.885c0-1.16,0.58-4.06,1.305-4.495
		c4.785,0,9.715,0.146,14.646,0.146c10.295-0.146,15.081-0.58,16.53-0.58c0.87,0,1.16,0.29,1.306,0.58
		c0.29,0.58,0.58,2.899,0.435,3.77c-4.64,0.58-6.815,1.16-8.99,1.886c-1.74,0.869-2.175,4.205-2.175,17.835v19.141
		c0,1.45,0.145,1.74,0.87,1.74c1.015,0,3.19-1.885,6.96-4.785c8.41-6.96,24.651-20.881,34.221-30.451
		c2.32-2.175,2.32-3.625,1.306-3.625c-2.465-0.145-4.931-0.435-8.266-0.725l-0.145-3.915c0.145-0.726,0.29-0.87,0.87-1.016
		c14.355,0.146,30.741-0.435,31.756-0.435c0.725,0,0.87,0.145,0.725,1.015c-0.435,2.9-0.58,3.48-1.305,3.48
		c-8.555,1.305-12.035,3.915-16.24,6.96c-8.411,6.09-17.401,13.051-35.671,29.001c-0.87,0.725-1.305,1.885-0.435,2.755
		c8.845,9.57,25.085,23.201,37.411,34.656c8.12,7.54,12.18,10.585,15.225,11.311c2.175,0.435,4.205,0.869,5.655,1.159
		c1.16,0.29,1.595,0.726,1.45,1.74l-1.16,3.045c-8.845-0.435-16.965-0.579-33.786-0.435l0.58-4.351c0.58-0.29,2.9-0.869,4.35-1.159
		c1.015-0.146,1.45-1.016,0.145-2.176c-12.325-11.6-33.206-30.596-36.831-34.221c-4.205-4.061-6.235-4.351-6.815-4.351
		c-0.436,0-0.87,0.29-0.87,2.176v12.905c0,19.721,1.015,22.91,1.74,23.78c1.305,2.03,4.64,2.32,10.295,2.9
		c0.29,0,0.58,0.435,0.58,1.015l-0.435,3.915c-4.785-0.145-8.41-0.435-19.286-0.435c-4.64,0-14.21,0.435-15.95,0.435
		c-0.29-0.579,0.145-4.205,0.435-4.495c1.885-0.435,4.351-0.58,6.96-1.305c2.9-0.58,3.625-2.465,3.625-20.445V475.49z"/>
	<path d="M495.566,491.585c-0.145-0.725-1.015-1.159-7.83-2.319c-0.58-0.146-0.725-0.436-0.29-1.16c1.015-2.61,1.16-2.9,1.885-3.045
		c5.655-1.886,10.73-4.061,17.11-6.235c0.29-0.146,0.436-0.146,0.726-0.146c0.29,0,0.29,0.29,0.29,1.16
		c-0.58,9.86-1.305,30.306-1.305,37.847c0,7.395,0,10.005,0.146,11.745c0.29,2.03,0.58,2.9,2.03,2.755
		c4.495-0.29,5.655-0.29,6.09-0.29s1.305,0.87,1.16,1.305l-0.436,3.771c-0.145,0.87-0.435,0.87-1.16,0.87
		c-4.205,0-8.265-0.29-12.906-0.29c-6.38,0-12.18,0.87-12.615,0.87c-0.725,0-1.015-0.146-1.16-0.726
		c-0.29-1.015-0.29-2.465-0.29-3.335c0-0.58,0.29-0.725,0.725-0.725c5.22-0.58,6.38-1.015,7.25-5.075
		c0.435-2.32,1.305-12.471,1.015-21.605L495.566,491.585z M503.977,446.924c3.77,0,6.235,3.19,6.235,6.671
		c0,4.93-3.48,7.83-7.25,7.83c-3.48,0-6.38-2.756-6.38-6.671c0-5.075,4.061-7.83,7.25-7.83H503.977z"/>
	<path d="M525.508,534.361c4.495-1.595,6.235-2.609,6.67-6.524c0.725-4.351,1.015-12.906,1.015-20.011
		c0-5.655-0.29-10.876-0.435-13.485c0-1.45-0.58-2.03-7.25-3.625c-0.58-0.726-0.87-0.436-0.29-2.756
		c0-0.435,0.435-0.725,1.305-1.015c6.235-3.045,12.616-6.525,13.341-7.105c0.435-0.29,1.015-0.435,1.595-0.435
		c0.726,0,1.45,0.435,1.45,1.015c0.145,2.465,0.29,5.221,0.29,7.686c0,0.725,0.146,1.305,0.726,1.305
		c6.38-3.625,8.845-4.785,12.76-6.525c2.32-1.159,5.51-2.029,8.12-2.029c4.205,0,7.105,1.015,9.86,3.189
		c3.771,2.9,5.801,8.12,6.381,14.355c0.289,3.045,0.289,6.525,0.289,12.761c0,10.585,0.146,16.82,0.146,20.155
		c0,1.306,0.146,1.45,0.58,1.45c1.305,0,5.51-0.435,7.685-0.58c0.436,0,0.726,0.58,0.726,1.45s-0.435,2.9-0.58,3.48
		c-0.29,0.725-0.58,0.725-1.16,0.725c-12.905,0-17.255,0.58-22.766,0.58c-0.87,0-1.595,0-1.74-0.58l-0.725-2.9
		c4.205-1.45,5.8-2.609,6.38-6.67c0.725-4.351,0.87-9.715,0.87-20.011c0-7.975-0.146-12.035-3.479-15.66
		c-2.32-2.465-5.511-3.625-9.716-3.625c-3.479,0-8.99,2.03-12.181,3.915c-1.305,1.015-1.449,1.885-1.595,3.479
		c-0.29,5.075-0.29,25.812-0.29,33.642c0,1.885,0.29,2.175,7.83,3.335c0.87,0.145,1.016,0.435,0.87,1.015l-0.87,3.19h-12.325
		c-5.8,0-10.44,0.725-13.34,0.725c-0.29,0-0.435-0.29-0.435-0.869L525.508,534.361z"/>
	<path d="M597.121,513.336c0-7.105,2.32-15.37,10.73-23.2c5.075-4.641,15.371-10.006,22.331-10.006c3.335,0,8.265,0.726,10.15,1.45
		c0.58,0.146,1.595-0.29,1.595-1.16c0.145-2.03,0.29-4.785,0.29-10.005c0.146-12.035-0.146-16.676-0.435-19.576
		c-0.146-2.029-0.436-2.755-7.105-3.625c-0.725-0.145-1.016-0.725-1.16-1.16l-0.29-1.16c-0.146-0.579-0.146-0.869,0.29-1.015
		c6.815-2.755,11.601-4.93,16.966-8.12c0.435-0.29,1.595-0.435,1.885-0.435c0.58,0.145,1.015,1.159,1.015,2.319
		c-0.145,13.195-0.869,42.776-0.869,59.597v17.69c0,4.641,0.145,11.746,0.869,15.371c0.291,1.885,1.016,2.175,1.885,2.175
		c1.596,0,4.931-1.305,6.525-2.03c0.726-0.29,1.45-0.29,1.596,0.29c0.435,1.306,0.725,3.045,0.725,4.205s-0.87,1.306-1.74,1.45
		c-4.494,1.45-15.95,4.061-17.4,4.061c-1.16,0-2.465-1.306-2.755-2.9c-0.146-2.175-0.29-5.51-0.29-7.25
		c-11.021,5.365-19.721,8.7-21.605,8.7c-5.945,0-11.745-3.625-15.08-6.67c-5.511-5.221-8.121-13.341-8.121-18.851V513.336z
		 M623.512,486.8c-2.174,0-7.104,1.306-10.149,4.495c-2.9,2.756-5.221,7.831-5.221,13.776c0,3.625,0.436,13.92,7.976,20.59
		c4.495,3.915,8.266,4.351,11.891,4.351c2.899,0,9.425-1.596,11.745-3.19c1.305-0.87,1.739-1.16,1.885-2.175
		c0.58-6.235,0.58-24.796-0.146-30.016c-0.289-1.45-0.289-2.176-2.465-3.48c-4.06-2.9-9.57-4.351-15.37-4.351H623.512z"/>
	<path d="M698.637,479.84c4.495,0,9.57,2.61,12.035,5.221c2.465,2.465,4.495,5.51,5.801,9.57c1.305-0.29,4.06-1.016,4.494-0.436
		c0.436,0.29,0.436,0.726,0.291,1.306c-0.436,1.305-1.451,3.915-2.756,4.205c-9.86,2.319-28.565,5.944-34.801,7.83
		c-0.725,0.145-1.016,0.87-1.016,2.609c0.436,14.355,8.121,20.301,17.691,20.301c6.67,0,12.325-2.755,17.256-7.104
		c0.725-0.58,2.465-0.58,2.319-0.146c-0.146,3.48-0.435,4.495-1.305,5.365c-6.235,5.22-13.051,8.12-17.981,9.57
		c-1.885,0.58-3.77,0.725-5.364,0.725c-10.15,0-16.676-6.09-18.416-8.12c-2.319-2.465-6.524-8.845-6.524-18.271
		c0-12.76,7.395-22.476,15.225-27.985c3.625-2.61,8.846-4.641,12.906-4.641H698.637z M705.162,496.08
		c0-4.06-5.511-10.729-11.601-10.729c-0.87,0-2.32,0.435-3.625,1.449c-4.205,2.9-6.671,10.15-6.38,16.241
		c6.67-1.74,13.34-2.9,19.865-4.495c1.015-0.29,1.74-0.726,1.74-2.32V496.08z"/>
	<path d="M733.059,533.201c3.334-1.159,4.06-1.449,4.35-3.335c0.29-1.739,0.29-5.655,0.29-18.271v-13.05
		c0-3.48-0.29-4.351-5.945-5.945c-1.16-0.436-1.885-2.32-1.595-3.19c5.51-3.625,11.455-6.815,15.95-9.86
		c0.58-0.29,1.45-0.58,1.74-0.58c0.58,0,1.305,1.016,1.015,2.32c-0.145,3.771-0.58,7.105-0.435,11.455
		c2.899-1.45,11.745-8.555,13.63-9.86c1.305-1.015,2.9-2.029,4.205-2.029c3.771,0,7.976,3.625,7.976,6.814
		c0,2.32-3.625,6.525-4.931,7.686c-0.869,0.58-1.595,1.16-2.465,1.16c-0.869,0-1.305-0.29-1.885-1.015
		c-1.16-1.596-3.19-3.336-5.51-3.336c-3.19,0-7.105,2.61-9.716,4.931c-1.015,0.87-1.305,2.755-1.305,9.57v18.125
		c0,3.625,0.145,5.511,0.58,6.235c0.435,0.726,1.015,1.16,2.61,1.016l7.83-0.29c0.725,0,1.305,0.725,1.16,1.305l-0.871,4.495
		c-6.38,0-12.76,0-19.141,0c-3.77,0-7.395,0.29-8.41,0.29c-0.58,0-0.869-0.435-0.435-1.305L733.059,533.201z"/>
	<path d="M795.408,518.267c1.885,0,3.045,0.435,3.915,2.465c0.726,2.03,1.45,3.479,3.915,4.495c1.885,0.58,2.465,1.015,2.61,2.465
		c0.435,1.885,0.29,2.03-2.03,3.335c-2.465,1.306-3.77,2.9-4.641,6.235c-0.435,1.45-2.465,2.175-3.914,2.175
		c-0.726,0-1.306-0.725-1.74-1.74c-0.58-2.029-1.886-4.495-4.205-5.654c-2.03-1.016-2.61-1.886-3.19-2.756
		c-0.87-1.595-0.726-2.029,0.58-2.899c4.785-2.03,5.8-3.19,6.67-5.511c0.58-2.319,1.16-2.609,1.886-2.609H795.408z M803.963,450.984
		c10.006,0,16.241,12.615,16.241,19.721c0,6.38-1.16,12.325-3.771,17.835c-3.335,7.25-8.41,8.41-11.021,8.556
		c-1.595,0.145-7.104,0.58-8.555,0.58c-4.061,0-4.785,2.03-4.061,10.73c-1.015,0.435-1.739,1.16-2.319,1.739
		c-1.16,0.436-1.16,0.436-1.306-0.579c-0.58-1.74-2.61-11.166-2.61-16.386c0-1.886,4.351-7.686,5.221-7.686c2.029,0,3.915,0,5.8,0
		c8.556,0,16.966-2.175,16.966-9.86c0-8.555-5.075-12.035-14.936-12.181c-1.16,0-3.915-2.465-3.915-4.35
		c0-4.205,4.205-8.12,8.12-8.12H803.963z"/>
</g>
</svg>
