<?xml version="1.0" encoding="utf-8"?>
<!-- Generator: Adobe Illustrator 15.1.0, SVG Export Plug-In . SVG Version: 6.00 Build 0)  -->
<!DOCTYPE svg PUBLIC "-//W3C//DTD SVG 1.1//EN" "http://www.w3.org/Graphics/SVG/1.1/DTD/svg11.dtd">
<svg version="1.1" id="vs_text" xmlns="http://www.w3.org/2000/svg" xmlns:xlink="http://www.w3.org/1999/xlink" x="0px" y="0px"
	 width="1080px" height="1080px" viewBox="0 0 1080 1080" enable-background="new 0 0 1080 1080" xml:space="preserve">
<g>
	<path d="M193.519,620.876c0-9.75,1.25-18.25,3.75-24.5c4-9.75,11.5-13.75,19.5-12.25c8.25,1.5,13.25,8.25,10.5,17.5
		c-1.75,6-3.75,10.25-3.75,19.75c0,11.25,5.25,15.75,11.75,15.75c4.25,0,7.75-1.75,10-7c1.75-4.5,2.75-11.75,2.75-19
		c0-6.75-1-13.75-2.5-18c-2.75-7.5-7.75-13.5-16.75-20.25l-7-5.25c-15.5-11.75-24.25-25.5-24.25-45c0-26,15.5-40.75,39.75-40.75
		c22,0,37.5,10.75,37.5,38v3c0,8.75-5.75,14.75-13.75,14.75c-8.5,0-14.25-5.5-14.25-14.75v-1.75c0-8.75-3.25-12.5-9-12.5
		c-6,0-9.75,4.75-9.75,12.75c0,9.25,3.25,14,12.25,20.75l10.75,8.25c16.75,12.75,27.5,30.25,27.5,56.5c0,39-15,57.5-43.25,57.5
		C208.269,664.376,193.519,646.876,193.519,620.876z"/>
	<path d="M294.116,622.126v-71.5c0-27.75,15.25-42,38-42s35.5,14,35.5,34v2.75c0,9.25-5.5,15-14,15c-7.75,0-13.75-4.5-13.75-13.5
		v-0.5c0-6.75-2.25-11-8-11c-5.25,0-8.25,4.25-8.25,16.25v69.75c0,12,3,16,8.5,16s7.75-4,7.75-10.5v-1c0-8.75,5.25-14.5,14-14.5
		c8.25,0,13.75,6.25,13.75,14.5v4c0,19.75-13.25,34.25-35.5,34.25C309.366,664.126,294.116,649.876,294.116,622.126z"/>
	<path d="M458.489,549.876v97.5c0,8.25-6.5,14.75-14.75,14.75s-14.75-6.5-14.75-14.75v-96.5c0-12-2.5-16.25-9-16.25
		c-5.75,0-8.5,4.25-8.5,16.25v96.5c0,8.25-6.5,14.75-14.75,14.75s-14.75-6.5-14.75-14.75v-160c0-8.25,6.5-15,14.75-15
		s14.75,6.75,14.75,15v21.75c2.75-1,5.75-1.25,8.5-1.25C443.239,507.876,458.489,522.376,458.489,549.876z"/>
	<path d="M475.738,647.376v-160c0-8.25,6.5-15,14.75-15s14.75,6.75,14.75,15v160c0,8.25-6.5,14.75-14.75,14.75
		S475.738,655.626,475.738,647.376z"/>
	<path d="M596.388,549.876v97.5c0,8.25-6.5,14.75-14.75,14.75c-3.25,0-6.5-1-8.75-3c-5,3.5-12.5,5.25-17.75,5.25
		c-21.25,0-35-12.5-35-36v-28.25c0-24,13.75-36.5,35-36.5c3.5,0,8,1,12,2.5v-16.25c0-11.5-2.75-14.75-8-14.75
		c-5.75,0-8.5,4-8.5,10.75v0.5c0,7.75-5.5,13.75-13.75,13.75c-8.5,0-14-5.75-14-15v-2c0-20,13.25-34.5,36-34.5
		C584.138,508.626,596.388,523.126,596.388,549.876z M567.138,604.126c0-11.75-3.75-17.25-9.25-17.25c-6,0-8.75,3.75-8.75,16v22.25
		c0,11.75,2.75,16,8.75,16c5.5,0,9.25-6,9.25-17.5V604.126z"/>
	<path d="M677.237,494.626c-1.5,5.5-5.25,9-9.75,9c-5,0-7-3-11-3c-4.75,0-6.75,2.25-6.75,11.25v0.5h1.25c7.5,0,13.5,6,13.5,13.5
		s-6,13.5-13.5,13.5h-1.25v108c0,8.25-6.5,14.75-14.75,14.75s-14.75-6.5-14.75-14.75v-108c-7.75,0-13.5-6-13.5-13.5
		s5.75-13.5,13.5-13.5v-0.5c0-24.5,11.75-39,33.75-39c5.5,0,10.25,0.75,15.5,3.25C676.737,479.626,679.737,485.876,677.237,494.626z
		"/>
	<path d="M674.962,621.626v-71.5c0-27.25,15.25-41.75,38-41.75c23.25,0,38,14.5,38,41.75v35c0,12.5-6.75,18.5-19.25,18.5h-27.25v18
		c0,11,3.5,15.75,9.75,15.75c7.25,0,8.75-4.75,8.75-11.25v-1.5c0-7.75,6-13.75,13.75-13.75s13.75,6,13.75,13.75v3.75
		c0,23.25-14.25,35.5-36.5,35.5C690.212,663.876,674.962,649.376,674.962,621.626z M721.962,579.876v-30.75c0-12-2.5-16-9-16
		c-5.75,0-8.5,4-8.5,16v30.75H721.962z"/>
	<path d="M766.335,647.376v-97.5c0-27.5,15.25-42,38-42c23.25,0,38.5,14.5,38.5,42v97.5c0,8.25-6.5,14.75-14.75,14.75
		s-14.75-6.5-14.75-14.75v-96.5c0-12-2.5-16.25-9-16.25c-5.75,0-8.5,4.25-8.5,16.25v96.5c0,8.25-6.5,14.75-14.75,14.75
		S766.335,655.626,766.335,647.376z"/>
	<path d="M860.134,647.376c0-9.75,7.75-17.5,17.5-17.5s17.5,7.75,17.5,17.5s-7.75,17.5-17.5,17.5S860.134,657.126,860.134,647.376z
		 M862.884,606.376v-108.75c0-8,6.75-14.75,14.75-14.75s14.75,6.75,14.75,14.75v108.75c0,8-6.75,14.75-14.75,14.75
		S862.884,614.376,862.884,606.376z"/>
</g>
<g>
	<path d="M197.889,212.243c0-4.84,1.1-8.579,1.87-10.34c1.1-2.529,3.41-3.52,5.83-2.75c2.2,0.66,2.86,3.3,1.98,5.61
		c-0.88,2.53-1.32,4.51-1.32,7.04c0,6.71,3.3,11.22,8.91,11.22c5.39,0,8.91-3.85,8.91-14.96c0-8.8-2.31-13.42-9.57-18.15l-4.18-2.75
		c-7.15-4.619-10.56-9.569-10.56-18.37c0-10.119,6.49-16.609,15.84-16.609c9.79,0,15.51,5.5,15.51,16.609v0.881
		c0,2.529-1.76,4.069-4.07,4.069c-2.2,0-4.07-1.54-4.07-4.29v-0.66c0-6.819-2.97-8.909-7.15-8.909c-4.62,0-7.7,3.63-7.7,8.909
		c0,5.171,1.87,8.03,6.16,10.78l4.18,2.75c10.34,6.601,14.08,12.54,14.08,25.19c0,17.271-7.37,23.32-17.601,23.32
		C204.819,230.834,197.889,223.903,197.889,212.243z"/>
	<path d="M244.197,157.134c0-2.641,2.09-4.73,4.73-4.73c2.64,0,4.73,2.09,4.73,4.73c0,2.64-2.09,4.729-4.73,4.729
		C246.288,161.863,244.197,159.773,244.197,157.134z M244.857,225.994v-52.36c0-2.2,1.87-4.07,4.07-4.07c2.2,0,4.07,1.87,4.07,4.07
		v52.36c0,2.199-1.87,4.069-4.07,4.069C246.728,230.063,244.857,228.193,244.857,225.994z"/>
	<path d="M265.998,225.994v-73.261c0-2.2,1.87-4.07,4.07-4.07c2.2,0,4.07,1.87,4.07,4.07v73.261c0,2.199-1.87,4.069-4.07,4.069
		C267.868,230.063,265.998,228.193,265.998,225.994z"/>
	<path d="M286.665,212.243v-38.609c0-2.2,1.87-4.07,4.07-4.07c2.2,0,4.07,1.87,4.07,4.07v37.95c0,6.05,3.85,10.89,6.38,10.89
		c1.54,0,3.19-1.979,4.73-4.84c1.98-3.74,3.41-9.13,3.41-13.86v-13.53c0-5.39-1.21-9.899-6.27-14.189
		c-1.76-1.431-2.2-4.07-0.88-5.721c1.54-1.979,4.29-1.649,5.94-0.33c7.81,6.601,9.35,11.551,9.35,22.221v10.78
		c0,7.26-2.31,15.18-6.05,20.79c-2.75,4.18-6.38,7.149-10.34,7.149C294.365,230.943,286.665,221.594,286.665,212.243z"/>
	<path d="M337.232,207.403v4.84c0,7.591,2.42,11.001,7.7,11.001c5.06,0,7.15-3.301,7.15-7.591v-0.22c0-2.53,1.54-4.18,3.85-4.18
		c2.42,0,3.85,1.649,3.85,4.18v0.99c0,8.25-4.95,14.41-14.85,14.41c-10.12,0-15.84-6.271-15.84-17.271v-27.5
		c0-11,5.72-17.271,15.62-17.271c9.9,0,15.4,6.271,15.4,17.271v14.63c0,4.62-1.98,6.71-6.71,6.71H337.232z M337.232,187.384v12.21
		h14.96v-12.21c0-7.59-2.42-11-7.48-11S337.232,179.794,337.232,187.384z"/>
	<path d="M370.814,216.094c0-1.76,0.11-3.521,0.77-5.72c0.77-2.971,2.97-4.07,5.39-3.521c2.31,0.55,3.08,2.86,2.42,5.17
		c-0.33,1.32-0.44,2.641-0.44,3.41c0,4.51,2.2,7.92,7.81,7.92c5.72,0,7.92-4.069,7.92-10.01c0-7.811-2.09-10.891-9.68-14.96
		l-3.85-2.09c-6.38-3.301-8.8-7.811-8.8-13.971c0-7.149,4.4-13.75,14.52-13.75c9.68,0,14.3,5.61,14.3,13.311v1.21
		c0,2.31-1.43,3.96-3.85,3.96c-2.31,0-3.74-1.65-3.74-3.74v-0.11c0-4.399-1.87-7.149-6.71-7.149c-4.51,0-6.38,2.42-6.38,5.939
		c0,3.301,1.32,5.5,4.95,7.37l4.95,2.641c8.91,4.729,12.43,10.229,12.54,20.46c0.11,11.88-6.05,18.37-16.39,18.37
		C376.205,230.834,370.814,224.233,370.814,216.094z"/>
	<path d="M446.394,215.983v1.431c0,7.699-5.06,13.31-12.98,13.31c-8.69,0-13.97-5.5-13.97-15.18v-38.061h-5.72
		c-2.09,0-3.85-1.76-3.85-3.85c0-2.091,1.76-3.851,3.85-3.851h5.72v-14.189c0-2.2,1.87-4.07,4.07-4.07c2.2,0,4.07,1.87,4.07,4.07
		v14.189h8.03c2.09,0,3.85,1.76,3.85,3.851c0,2.09-1.76,3.85-3.85,3.85h-8.03v36.74c0,6.271,2.42,8.91,6.16,8.91
		c3.19,0,5.06-2.75,5.06-7.04v-0.22c0-2.53,1.54-4.181,3.85-4.181C445.074,211.693,446.394,213.454,446.394,215.983z"/>
	<path d="M464.279,207.403v4.84c0,7.591,2.42,11.001,7.7,11.001c5.06,0,7.15-3.301,7.15-7.591v-0.22c0-2.53,1.54-4.18,3.85-4.18
		c2.42,0,3.85,1.649,3.85,4.18v0.99c0,8.25-4.95,14.41-14.85,14.41c-10.12,0-15.84-6.271-15.84-17.271v-27.5
		c0-11,5.72-17.271,15.62-17.271c9.9,0,15.4,6.271,15.4,17.271v14.63c0,4.62-1.98,6.71-6.71,6.71H464.279z M464.279,187.384v12.21
		h14.96v-12.21c0-7.59-2.42-11-7.48-11C466.699,176.384,464.279,179.794,464.279,187.384z"/>
	<path d="M499.126,225.994v-40.371c0-11,5.39-17.05,14.85-17.05c9.35,0,14.3,5.72,14.3,17.38v2.641c0,2.53-1.76,4.18-3.96,4.18
		c-2.09,0-3.96-1.649-3.96-4.18v-1.65c0-7.26-1.54-10.78-6.05-10.78c-4.62,0-7.04,3.19-7.04,10.78v39.051
		c0,2.199-1.87,4.069-4.07,4.069C500.997,230.063,499.126,228.193,499.126,225.994z"/>
	<path d="M538.098,198.163c0-2.31,1.761-4.069,3.96-4.069h19.58c2.2,0,3.96,1.76,3.96,4.069c0,2.311-1.76,4.07-3.96,4.07h-19.58
		C539.858,202.233,538.098,200.474,538.098,198.163z"/>
	<path d="M611.577,173.634v14.3c0,13.31-6.38,20.57-17.38,20.57h-6.38v17.6c0,2.311-1.87,4.181-4.181,4.181
		c-2.31,0-4.18-1.87-4.18-4.181v-66.44c0-4.62,1.979-6.6,6.71-6.6h8.03C605.197,153.063,611.577,160.323,611.577,173.634z
		 M603.217,175.394c0-9.9-2.75-14.63-9.79-14.63h-5.609v40.04h5.609c7.04,0,9.79-4.73,9.79-14.63V175.394z"/>
	<path d="M624.149,225.994v-73.261c0-2.2,1.87-4.07,4.07-4.07s4.07,1.87,4.07,4.07v73.261c0,2.199-1.87,4.069-4.07,4.069
		S624.149,228.193,624.149,225.994z"/>
	<path d="M674.913,186.063v39.931c0,2.199-1.87,4.069-4.07,4.069c-1.869,0-3.189-1.1-3.85-2.75c-2.2,2.42-4.62,3.63-8.8,3.63
		c-8.69,0-13.86-5.39-13.86-16.39v-9.24c0-11,5.17-16.39,13.86-16.39c4.069,0,6.489,1.1,8.58,3.41v-4.95c0-7.59-2.42-11-7.48-11
		c-5.06,0-6.93,2.75-6.93,7.04v0.109c0,2.09-1.21,3.74-3.851,3.74c-2.09,0-3.739-1.76-3.739-4.07v-1.1
		c0-7.7,4.62-13.311,14.52-13.311C669.193,168.793,674.913,175.063,674.913,186.063z M666.773,212.354v-4.84c0-7.15-3.521-11-7.7-11
		c-4.73,0-6.6,2.86-6.6,10.45v5.939c0,7.591,1.869,10.45,6.6,10.45C663.253,223.354,666.773,219.504,666.773,212.354z"/>
	<path d="M687.464,225.994v-40.15c0-11,5.72-17.271,15.62-17.271c9.899,0,15.62,6.271,15.62,17.271v40.15
		c0,2.199-1.87,4.069-4.07,4.069s-4.07-1.87-4.07-4.069v-38.831c0-7.59-2.42-11-7.479-11c-5.061,0-7.48,3.41-7.48,11v38.831
		c0,2.199-1.87,4.069-4.069,4.069C689.334,230.063,687.464,228.193,687.464,225.994z"/>
	<path d="M731.134,213.674v-40.04c0-2.2,1.869-4.07,4.069-4.07s4.07,1.87,4.07,4.07v38.72c0,7.59,2.42,11,7.48,11
		c5.06,0,7.479-3.41,7.479-11v-38.72c0-2.2,1.87-4.07,4.07-4.07s4.07,1.87,4.07,4.07v40.04c0,11-5.721,17.27-15.62,17.27
		C736.854,230.943,731.134,224.674,731.134,213.674z"/>
	<path d="M774.804,225.994v-40.15c0-11,5.72-17.271,15.619-17.271c9.9,0,15.621,6.271,15.621,17.271v40.15
		c0,2.199-1.871,4.069-4.07,4.069c-2.2,0-4.07-1.87-4.07-4.069v-38.831c0-7.59-2.42-11-7.48-11c-5.06,0-7.479,3.41-7.479,11v38.831
		c0,2.199-1.87,4.069-4.07,4.069S774.804,228.193,774.804,225.994z"/>
	<path d="M849.845,185.844v51.59c0,8.141-4.51,12.65-12.649,12.65h-15.181c-2.42,0-4.18-1.76-4.18-4.07c0-2.31,1.76-4.07,4.18-4.07
		h14.74c3.19,0,4.95-1.76,4.95-4.949v-8.25c-2.2,1.319-4.95,2.199-7.7,2.199c-10.12,0-15.84-6.27-15.84-17.27v-27.83
		c0-11,5.72-17.271,15.84-17.271S849.845,174.844,849.845,185.844z M841.705,212.354v-25.19c0-7.59-2.42-11-7.7-11s-7.7,3.41-7.7,11
		v25.19c0,7.59,2.42,11,7.7,11C838.185,223.354,841.705,219.504,841.705,212.354z"/>
	<path d="M870.304,208.613v-9.68c0-11,1.76-14.3,5.83-19.25l2.86-3.41c2.64-3.19,3.409-5.61,3.409-9.13
		c0-3.74-2.199-7.26-7.149-7.26c-5.17,0-7.48,4.399-7.48,9.13v1.76c0,2.42-1.649,4.4-4.069,4.4s-4.181-1.98-4.181-4.95v-1.32
		c0-10.56,5.61-16.94,15.841-16.94c9.68,0,15.399,6.49,15.399,15.73c0,7.92-3.85,11.11-7.149,15.51l-2.641,3.521
		c-1.979,2.64-2.31,5.28-2.31,12.76v9.13c0,2.2-1.98,4.07-4.181,4.07C872.284,212.684,870.304,210.813,870.304,208.613z
		 M869.313,225.773c0-3.08,2.42-5.5,5.5-5.5s5.5,2.42,5.5,5.5s-2.42,5.5-5.5,5.5S869.313,228.854,869.313,225.773z"/>
</g>
</svg>
