<?xml version="1.0" encoding="utf-8"?>
<!-- Generator: Adobe Illustrator 15.1.0, SVG Export Plug-In . SVG Version: 6.00 Build 0)  -->
<!DOCTYPE svg PUBLIC "-//W3C//DTD SVG 1.1//EN" "http://www.w3.org/Graphics/SVG/1.1/DTD/svg11.dtd">
<svg version="1.1" id="vs_text" xmlns="http://www.w3.org/2000/svg" xmlns:xlink="http://www.w3.org/1999/xlink" x="0px" y="0px"
	 width="1080px" height="1080px" viewBox="0 0 1080 1080" enable-background="new 0 0 1080 1080" xml:space="preserve">
<g>
	<path d="M104.392,501.536H79.55v14.836h23.001v14.95H79.55v31.972h-17.71v-76.709h42.552V501.536z"/>
	<path d="M114.013,512.002h16.561v8.05c1.495-2.875,3.795-5.521,6.44-7.13c2.76-1.726,5.635-2.186,8.855-2.186
		c2.07,0,3.565,0.23,5.405,0.805l-0.92,15.526c-2.185-1.15-4.6-1.84-7.476-1.84c-3.565,0-6.21,1.265-8.28,3.45
		c-3.68,3.91-4.025,9.43-4.025,13.8v20.816h-16.561V512.002z"/>
	<path d="M209.223,556.738c-4.601,4.601-12.421,8.28-22.426,8.28s-17.826-3.68-22.426-8.28c-5.175-5.175-7.705-12.535-7.705-19.091
		c0-6.555,2.53-13.915,7.705-19.091c4.601-4.6,12.421-8.28,22.426-8.28s17.826,3.681,22.426,8.28
		c5.175,5.176,7.705,12.536,7.705,19.091C216.928,544.203,214.398,551.563,209.223,556.738z M177.481,527.987
		c-2.415,2.415-3.795,5.521-3.795,9.66c0,4.716,1.84,7.706,3.795,9.661c2.07,2.069,5.06,3.68,9.431,3.68
		c3.68,0,6.785-1.265,9.2-3.68c2.416-2.416,3.795-5.521,3.795-9.661c0-4.14-1.38-7.245-3.795-9.66
		c-2.415-2.415-5.52-3.681-9.315-3.681C183.001,524.307,179.896,525.572,177.481,527.987z"/>
	<path d="M228.275,479.455h16.561v38.642c2.07-2.53,4.255-4.255,6.21-5.29c3.45-1.84,6.325-2.186,10.005-2.186
		c4.025,0,10.005,0.575,14.491,5.176c4.715,4.715,5.06,11.04,5.06,14.95v32.547h-16.561v-26.336c0-3.565-0.115-7.706-2.76-10.235
		c-1.495-1.495-4.025-2.301-6.44-2.301c-3.565,0-5.635,1.61-6.555,2.53c-3.335,3.22-3.45,8.165-3.45,10.695v25.646h-16.561V479.455z
		"/>
	<path d="M346.831,540.522h-38.297c0,2.761,1.035,6.44,3.105,8.741c2.53,2.76,5.98,3.22,8.51,3.22c2.415,0,4.945-0.46,6.67-1.495
		c0.229-0.115,2.185-1.38,3.565-4.255l15.641,1.609c-2.3,7.246-6.9,11.041-9.89,12.881c-4.945,2.99-10.466,3.795-16.216,3.795
		c-7.706,0-14.491-1.38-20.471-7.36c-4.485-4.484-7.706-11.271-7.706-19.78c0-7.36,2.646-14.951,7.821-20.241
		c6.21-6.21,13.916-7.36,19.666-7.36c5.75,0,14.031,1.035,20.356,7.705c6.095,6.44,7.245,14.491,7.245,20.816V540.522z
		 M331.535,530.633c-0.115-0.461-0.92-3.681-3.335-5.98c-1.84-1.726-4.485-2.875-7.82-2.875c-4.255,0-6.785,1.725-8.396,3.335
		c-1.265,1.38-2.415,3.22-2.875,5.521H331.535z"/>
	<path d="M388.011,525.112c-2.53-1.495-5.865-2.875-9.085-2.875c-1.725,0-3.68,0.46-4.715,1.495c-0.575,0.574-1.035,1.495-1.035,2.3
		c0,1.15,0.805,1.84,1.61,2.3c1.15,0.69,2.875,1.035,4.945,1.726l4.37,1.38c2.875,0.92,5.865,2.07,8.51,4.485
		c2.99,2.76,4.025,5.865,4.025,9.775c0,6.785-2.99,11.155-5.29,13.455c-5.061,5.061-11.271,5.865-16.676,5.865
		c-6.9,0-14.376-1.494-21.046-7.36l7.015-11.155c1.61,1.38,3.91,2.99,5.636,3.795c2.3,1.15,4.715,1.61,6.9,1.61
		c1.035,0,3.68,0,5.175-1.149c1.035-0.806,1.726-2.07,1.726-3.336c0-0.92-0.345-2.069-1.84-2.99c-1.15-0.689-2.645-1.149-5.06-1.84
		l-4.141-1.265c-2.99-0.92-6.095-2.53-8.28-4.716c-2.415-2.529-3.68-5.405-3.68-9.315c0-4.945,1.955-9.085,4.945-11.846
		c4.6-4.255,10.811-5.175,15.526-5.175c7.59,0,12.88,1.955,17.021,4.37L388.011,525.112z"/>
	<path d="M437.917,512.002h16.561v6.095c5.06-6.44,11.041-7.476,15.871-7.476c4.485,0,10.351,0.806,14.721,5.176
		c4.83,4.83,5.175,10.926,5.175,15.065v32.432h-16.561v-26.336c0-3.336-0.115-7.591-2.76-10.235
		c-1.265-1.266-3.335-2.301-6.325-2.301c-3.45,0-5.636,1.38-6.9,2.761c-2.76,2.76-3.22,6.439-3.22,9.775v26.336h-16.561V512.002z"/>
	<path d="M556.472,540.522h-38.297c0,2.761,1.035,6.44,3.105,8.741c2.53,2.76,5.98,3.22,8.51,3.22c2.415,0,4.945-0.46,6.67-1.495
		c0.23-0.115,2.185-1.38,3.565-4.255l15.64,1.609c-2.3,7.246-6.9,11.041-9.891,12.881c-4.944,2.99-10.465,3.795-16.215,3.795
		c-7.706,0-14.491-1.38-20.471-7.36c-4.485-4.484-7.706-11.271-7.706-19.78c0-7.36,2.646-14.951,7.82-20.241
		c6.21-6.21,13.916-7.36,19.666-7.36c5.75,0,14.03,1.035,20.356,7.705c6.095,6.44,7.245,14.491,7.245,20.816V540.522z
		 M541.176,530.633c-0.115-0.461-0.92-3.681-3.335-5.98c-1.84-1.726-4.485-2.875-7.82-2.875c-4.255,0-6.786,1.725-8.396,3.335
		c-1.265,1.38-2.415,3.22-2.875,5.521H541.176z"/>
	<path d="M583.966,512.002v28.291c0,2.3,0.229,5.865,2.875,8.28c1.15,1.035,3.221,2.415,6.9,2.415c3.105,0,5.521-1.035,7.016-2.415
		c2.415-2.3,2.76-5.75,2.76-8.28v-28.291h16.562v29.901c0,5.865-0.575,11.385-5.751,16.445c-5.865,5.75-14.49,6.67-20.586,6.67
		c-6.325,0-14.835-0.92-20.7-6.67c-4.716-4.601-5.636-9.775-5.636-15.411v-30.936H583.966z"/>
	<path d="M686.098,540.522h-38.296c0,2.761,1.034,6.44,3.104,8.741c2.53,2.76,5.98,3.22,8.511,3.22c2.415,0,4.945-0.46,6.671-1.495
		c0.229-0.115,2.185-1.38,3.564-4.255l15.641,1.609c-2.3,7.246-6.9,11.041-9.891,12.881c-4.945,2.99-10.465,3.795-16.215,3.795
		c-7.706,0-14.491-1.38-20.472-7.36c-4.485-4.484-7.705-11.271-7.705-19.78c0-7.36,2.646-14.951,7.82-20.241
		c6.21-6.21,13.915-7.36,19.666-7.36c5.75,0,14.03,1.035,20.356,7.705c6.095,6.44,7.244,14.491,7.244,20.816V540.522z
		 M670.803,530.633c-0.115-0.461-0.92-3.681-3.336-5.98c-1.84-1.726-4.484-2.875-7.82-2.875c-4.255,0-6.785,1.725-8.395,3.335
		c-1.266,1.38-2.416,3.22-2.875,5.521H670.803z"/>
	<path d="M727.278,525.112c-2.53-1.495-5.865-2.875-9.085-2.875c-1.726,0-3.681,0.46-4.716,1.495
		c-0.575,0.574-1.035,1.495-1.035,2.3c0,1.15,0.806,1.84,1.61,2.3c1.15,0.69,2.875,1.035,4.945,1.726l4.37,1.38
		c2.875,0.92,5.865,2.07,8.511,4.485c2.99,2.76,4.025,5.865,4.025,9.775c0,6.785-2.99,11.155-5.291,13.455
		c-5.061,5.061-11.271,5.865-16.676,5.865c-6.9,0-14.375-1.494-21.046-7.36l7.016-11.155c1.61,1.38,3.91,2.99,5.635,3.795
		c2.3,1.15,4.716,1.61,6.9,1.61c1.035,0,3.681,0,5.176-1.149c1.034-0.806,1.725-2.07,1.725-3.336c0-0.92-0.345-2.069-1.84-2.99
		c-1.15-0.689-2.646-1.149-5.061-1.84l-4.14-1.265c-2.99-0.92-6.096-2.53-8.281-4.716c-2.414-2.529-3.68-5.405-3.68-9.315
		c0-4.945,1.955-9.085,4.945-11.846c4.6-4.255,10.811-5.175,15.525-5.175c7.591,0,12.881,1.955,17.021,4.37L727.278,525.112z"/>
	<path d="M810.076,486.585v52.213c0,5.75-0.346,14.261-6.671,20.471c-5.06,5.061-11.271,5.75-16.216,5.75
		c-4.14,0-8.165-0.345-12.19-2.76c-2.415-1.495-5.29-4.025-7.245-6.44l11.041-12.42c0.689,1.38,1.84,3.335,2.76,4.255
		c1.265,1.265,2.645,1.725,4.37,1.725c1.495,0,2.875-0.345,4.14-1.609c2.186-2.186,2.301-5.865,2.301-9.086v-52.098H810.076z"/>
	<path d="M864.861,512.002h16.561v51.292h-16.561v-6.21c-4.485,6.9-10.926,7.935-15.181,7.935c-7.36,0-13.57-1.84-19.206-7.82
		c-5.405-5.75-7.475-12.42-7.475-19.205c0-8.626,3.22-15.986,7.935-20.701c4.485-4.485,10.696-7.016,17.826-7.016
		c4.37,0,11.386,1.035,16.101,7.476V512.002z M843.815,528.217c-1.726,1.726-3.795,4.716-3.795,9.316c0,4.6,1.955,7.59,3.45,9.2
		c2.3,2.415,5.865,4.025,9.775,4.025c3.335,0,6.439-1.381,8.625-3.565c2.186-2.07,4.025-5.29,4.025-9.66
		c0-3.681-1.38-7.131-3.795-9.431c-2.53-2.415-6.211-3.565-9.201-3.565C849.336,524.537,846,526.032,843.815,528.217z"/>
	<path d="M895.529,479.455h16.561v38.642c2.07-2.53,4.256-4.255,6.211-5.29c3.449-1.84,6.324-2.186,10.005-2.186
		c4.025,0,10.005,0.575,14.491,5.176c4.715,4.715,5.06,11.04,5.06,14.95v32.547h-16.561v-26.336c0-3.565-0.115-7.706-2.761-10.235
		c-1.494-1.495-4.024-2.301-6.439-2.301c-3.565,0-5.636,1.61-6.556,2.53c-3.335,3.22-3.45,8.165-3.45,10.695v25.646h-16.561V479.455
		z"/>
	<path d="M961.654,512.002h16.561v8.05c1.495-2.875,3.795-5.521,6.44-7.13c2.76-1.726,5.635-2.186,8.855-2.186
		c2.069,0,3.565,0.23,5.405,0.805l-0.92,15.526c-2.186-1.15-4.601-1.84-7.476-1.84c-3.565,0-6.21,1.265-8.28,3.45
		c-3.681,3.91-4.025,9.43-4.025,13.8v20.816h-16.561V512.002z"/>
	<path d="M1016.06,544.203c5.865,0,10.466,4.601,10.466,10.466s-4.601,10.465-10.466,10.465s-10.466-4.6-10.466-10.465
		S1010.194,544.203,1016.06,544.203z M1007.549,538.567v-51.982h17.021v51.982H1007.549z"/>
</g>
</svg>
