<?xml version="1.0" encoding="utf-8"?>
<!-- Generator: Adobe Illustrator 15.1.0, SVG Export Plug-In . SVG Version: 6.00 Build 0)  -->
<!DOCTYPE svg PUBLIC "-//W3C//DTD SVG 1.1//EN" "http://www.w3.org/Graphics/SVG/1.1/DTD/svg11.dtd">
<svg version="1.1" id="vs_text" xmlns="http://www.w3.org/2000/svg" xmlns:xlink="http://www.w3.org/1999/xlink" x="0px" y="0px"
	 width="1080px" height="1080px" viewBox="0 0 1080 1080" enable-background="new 0 0 1080 1080" xml:space="preserve">
<g>
	<path d="M63.947,500.229c-2.423-1.601-3.658-2.835-3.658-3.795c0-0.412,0.594-1.372,1.738-2.79
		c1.143-1.418,1.966-2.149,2.378-2.149c0.137,0,0.64,0.32,1.509,1.006c2.241,2.058,4.436,3.11,6.539,3.11
		c6.86,0,10.29-5.67,10.335-16.966v-30.045c0-2.241,0.229-4.07,0.731-5.441H72.087c-3.567,0-6.494,0.823-8.826,2.469
		c-2.333,1.646-3.521,4.07-3.521,7.271c0,2.149,0.777,3.979,2.287,5.533c1.509,1.555,3.384,2.516,5.579,2.881
		c0.549,0.137,0.823,0.366,0.823,0.686c0,1.143-0.732,2.973-2.149,5.579c-0.183,0.366-0.458,0.549-0.823,0.594
		c-2.927,0-5.899-1.509-8.872-4.481c-3.019-2.972-4.527-6.54-4.527-10.701c0-5.122,1.738-9.238,5.259-12.302
		c3.476-3.064,8.049-4.573,13.765-4.573h17.972c1.189,0,1.783,0.731,1.783,2.241c0,0.045,0,1.188-0.045,3.43
		c-0.046,2.241-0.046,4.802-0.092,7.683c-0.045,2.881-0.045,5.167-0.045,6.813v22.362c0.091,6.677-1.555,13.674-5.808,18.658
		c-2.744,3.247-7.317,5.305-13.033,5.305C69.023,502.606,66.371,501.829,63.947,500.229z M115.851,500.092
		c-1.143-0.961-2.104-1.83-2.881-2.653c-0.777-0.777-1.646-1.966-2.607-3.567c-0.96-1.601-1.692-2.881-2.149-3.841
		c-0.503-0.96-1.235-2.424-2.241-4.344c-4.161-8.369-6.905-12.805-10.747-13.674c-0.869-0.32-1.326-0.777-1.326-1.417v-5.167
		c0-0.549,0.366-1.006,1.144-1.372c2.058-1.189,4.07-3.018,6.036-5.487c1.966-2.47,3.704-4.985,5.305-7.546
		c1.555-2.561,3.156-5.076,4.802-7.5c3.293-4.893,7.774-8.323,12.896-8.323c3.247,0,5.991,1.006,8.323,3.064
		c0.229,0.229,0.366,0.549,0.366,0.869c0,0.411-0.549,1.417-1.601,2.972c-1.098,1.601-1.829,2.378-2.149,2.378
		c-0.183,0-0.503-0.138-0.915-0.412c-1.235-0.96-2.606-1.417-4.024-1.372c-1.738,0-3.521,1.006-5.35,3.019
		c-1.875,2.058-3.476,4.39-4.894,6.997c-1.417,2.606-3.201,5.396-5.259,8.277c-2.104,2.881-4.162,4.985-6.128,6.219v0.366
		c1.875,0.823,3.521,2.332,5.03,4.573c1.509,2.24,3.201,5.396,5.167,9.42c2.927,5.945,5.03,9.649,6.357,11.113
		c1.737,1.92,3.704,2.881,5.899,2.927c2.79,0,5.442-1.555,7.912-4.71c2.469-3.109,4.39-6.448,5.762-10.015
		c0.183-0.412,0.458-0.641,0.778-0.641c0.366,0,1.189,0.32,2.469,1.006s1.921,1.235,1.921,1.601c0,0.229-0.046,0.549-0.183,0.96
		c-1.098,3.476-3.292,7.454-6.54,11.615c-3.292,4.208-8.323,7.18-13.445,7.18C120.607,502.606,118.046,501.966,115.851,500.092z"/>
	<path d="M180.877,481.25c1.281,0.686,1.921,1.235,1.921,1.601c0,0.32-0.046,0.64-0.183,1.052c-1.783,4.985-4.71,9.1-8.78,12.256
		c-4.07,3.155-9.192,4.756-15.32,4.756c-6.356,0-11.433-2.058-15.137-6.173c-3.75-4.116-5.625-9.604-5.625-16.463v-11.799
		c0-11.89,2.47-21.448,8.369-27.576c2.973-3.064,6.585-4.573,10.884-4.573c3.887,0,6.997,1.188,9.329,3.612
		c2.333,2.424,3.521,5.442,3.521,9.146c0,5.351-2.378,10.335-7.088,14.954c-4.756,4.618-10.563,7.911-17.377,9.786v6.082
		c0,4.984,1.28,8.963,3.887,11.936c2.606,2.973,6.082,4.436,10.472,4.436c8.048,0,13.994-4.482,17.881-13.399
		c0.183-0.412,0.411-0.641,0.731-0.641C178.728,480.244,179.551,480.564,180.877,481.25z M148.546,448.188
		c-1.966,4.756-3.018,10.243-3.155,16.509c4.162-1.235,8.048-3.521,11.661-6.814c3.613-3.247,5.396-6.768,5.396-10.518
		c0-3.704-2.012-6.265-5.716-6.265C153.21,441.099,150.512,443.477,148.546,448.188z"/>
	<path d="M176.486,445.397c0-2.881,2.195-4.847,5.076-4.847c2.881,0,4.984,1.784,4.984,4.665c0,3.109-1.92,5.259-5.167,5.259
		C178.499,450.474,176.486,448.37,176.486,445.397z M181.196,496.662c-2.561-2.835-3.841-6.768-3.841-11.752V460.58
		c0-1.234,0.549-1.875,1.692-1.875h4.665c1.235,0,1.875,0.641,1.875,1.875c0,1.006-0.045,4.391-0.137,10.198
		c-0.091,5.808-0.137,9.832-0.137,12.073c0,7.363,2.607,11.067,7.866,11.067c2.012,0,3.979-0.777,5.854-2.378
		c1.875-1.555,3.384-3.201,4.436-4.985s1.966-3.613,2.744-5.579c0.183-0.503,0.458-0.732,0.823-0.732c0.412,0,1.28,0.32,2.515,1.006
		s1.875,1.235,1.875,1.601c0,0.229-0.046,0.549-0.183,0.96c-1.555,4.436-3.979,8.369-7.271,11.844
		c-3.338,3.521-7.454,5.259-12.393,5.259C187.233,500.915,183.757,499.497,181.196,496.662z"/>
	<path d="M238.268,497.53c-2.516-2.24-3.75-5.167-3.75-8.78c0-1.92,0.137-4.664,0.366-8.186s0.32-6.219,0.32-8.003
		c0-5.259-2.104-7.865-6.265-7.865c-2.973,0-5.671,1.691-8.049,5.122c-2.378,3.43-4.116,7.363-5.213,11.752
		c-1.097,4.436-1.646,8.598-1.646,12.53v3.933c0,1.326-0.595,1.966-1.784,1.966h-4.481c-1.189,0-1.784-0.64-1.784-1.966v-37.179
		c0-1.417,0.595-2.149,1.784-2.149h4.481c1.189,0,1.784,0.641,1.784,1.875c0,0.96-0.229,4.207-0.458,7.866
		c-0.137,1.875-0.229,3.156-0.274,3.933l0.366,0.091c1.418-4.116,3.659-7.637,6.631-10.518c2.972-2.881,6.585-4.299,10.792-4.299
		c8.003,0,12.439,4.573,12.439,12.302c0,0.595-0.091,2.835-0.32,6.677c-0.229,3.841-0.32,6.951-0.32,9.329
		c0,5.305,2.012,7.957,5.991,7.957c2.698,0,5.122-1.326,7.362-3.979c2.195-2.652,3.979-5.671,5.351-9.055
		c0.183-0.412,0.458-0.641,0.777-0.641c0.366,0,1.189,0.32,2.47,1.006c1.28,0.686,1.92,1.235,1.92,1.601
		c0,0.229-0.045,0.549-0.183,0.96c-1.235,3.476-3.156,6.997-6.22,10.747c-3.064,3.75-7.82,6.356-13.079,6.356
		C243.755,500.915,240.783,499.771,238.268,497.53z"/>
	<path d="M271.101,521.631c-2.835-1.738-4.253-3.247-4.253-4.573c0-0.595,0.548-1.555,1.601-2.835
		c1.052-1.326,1.829-1.966,2.423-1.966c0.229,0,0.823,0.366,1.692,1.052c2.927,2.561,5.899,3.841,8.872,3.841
		c4.162,0,7.454-1.692,9.878-5.076c2.423-3.43,3.613-8.231,3.613-14.405v-8.644l-0.366-0.091c-1.326,3.247-3.338,6.037-6.128,8.415
		s-6.265,3.567-10.472,3.567c-5.259,0-9.512-1.966-12.805-5.854c-3.338-3.887-4.984-8.917-4.984-15.091
		c0-6.356,1.875-11.707,5.625-15.96c3.75-4.253,8.597-6.356,14.542-6.356c5.351,0,9.924,1.738,13.673,5.168l0.274-0.092v-2.332
		c0-1.144,0.549-1.692,1.692-1.692h4.665c1.052,0,1.601,0.641,1.601,1.875v37.362c0,16.829-7.5,26.295-21.356,26.295
		C277.183,524.237,273.936,523.368,271.101,521.631z M290.17,486.555c2.744-4.893,4.116-10.335,4.116-16.234
		c-1.234-1.509-2.972-2.79-5.167-3.933c-2.195-1.143-4.436-1.691-6.722-1.691c-4.07,0-7.409,1.463-10.015,4.344
		c-2.652,2.881-3.979,6.631-3.979,11.204c0,4.07,1.052,7.363,3.155,9.878c2.104,2.516,4.71,3.796,7.82,3.796
		C283.813,493.918,287.38,491.448,290.17,486.555z"/>
	<path d="M320.671,510.198c-0.777-0.687-1.143-1.189-1.143-1.51c0-0.229,0.137-0.503,0.366-0.731
		c2.424-2.561,3.933-4.848,4.436-6.905c-2.516,0-4.802-1.966-4.802-5.076c0-3.109,2.286-5.076,5.167-5.076
		c3.476,0,5.305,2.698,5.305,6.951c0,1.921-0.549,3.979-1.646,6.174c-1.143,2.195-2.287,3.933-3.476,5.213
		c-1.189,1.281-2.012,1.921-2.515,1.921C321.997,511.158,321.448,510.838,320.671,510.198z"/>
</g>
<g>
	<path d="M71.172,639.81c-2.881-1.509-4.298-2.789-4.298-3.841c0-0.687,0.503-1.692,1.555-2.973
		c1.006-1.326,1.784-1.967,2.287-1.967c0.229,0,0.823,0.32,1.738,1.006c2.744,1.921,5.67,2.882,8.734,2.928
		c5.259,0,9.146-1.875,11.707-5.671s3.841-8.78,3.841-15.046v-8.322h-0.274c-1.143,3.43-3.201,6.493-6.265,9.1
		c-3.064,2.607-7.088,3.934-12.027,3.934c-7.18,0-13.079-2.927-17.606-8.826c-4.527-5.854-6.814-13.17-6.814-21.996
		c0-10.062,2.698-18.567,8.14-25.564c5.442-6.95,12.439-10.426,20.99-10.426c5.625,0,10.152,1.555,13.628,4.71
		c3.43,3.155,5.167,7.271,5.167,12.256c0,5.076-1.738,9.421-5.259,13.079c-3.521,3.658-7.958,6.036-13.262,7.134
		c-0.777,0.138-1.28,0.046-1.509-0.183c-0.32-0.229-0.732-1.098-1.326-2.561c-0.595-1.464-0.96-2.47-1.006-3.064
		c0-0.503,0.229-0.823,0.732-1.006c4.07-1.006,7.317-2.698,9.832-5.031c2.515-2.332,3.75-5.121,3.75-8.459
		c0-2.882-0.96-5.214-2.927-7.043c-1.967-1.783-4.619-2.698-7.912-2.698c-6.082,0-11.021,2.835-14.862,8.46
		c-3.841,5.671-5.762,12.484-5.762,20.396c0,6.676,1.601,12.301,4.848,16.828c3.201,4.573,7.317,6.859,12.301,6.859
		c4.802,0,8.78-2.148,11.844-6.447c3.064-4.253,4.619-8.598,4.619-12.941c0-1.235,0.595-1.875,1.784-1.875h4.527
		c1.189,0,1.784,0.64,1.784,1.966c0,0.183-0.046,1.052-0.092,2.562c-0.091,1.555-0.137,2.835-0.137,3.795
		c0,0.777,0.046,3.019,0.183,6.814c0.091,3.795,0.137,6.447,0.137,8.002c0,8.552-1.921,15.457-5.762,20.625
		s-9.604,7.729-17.286,7.729C77.3,642.051,74.053,641.319,71.172,639.81z"/>
	<path d="M156.503,599.064c1.281,0.686,1.921,1.234,1.921,1.6c0,0.32-0.046,0.641-0.183,1.053c-1.783,4.984-4.71,9.1-8.78,12.256
		c-4.07,3.154-9.192,4.756-15.32,4.756c-6.356,0-11.433-2.059-15.137-6.174c-3.75-4.116-5.625-9.604-5.625-16.463v-11.799
		c0-11.89,2.47-21.447,8.369-27.576c2.973-3.063,6.585-4.572,10.884-4.572c3.887,0,6.997,1.188,9.329,3.612
		c2.333,2.424,3.521,5.442,3.521,9.146c0,5.351-2.378,10.335-7.088,14.954c-4.756,4.618-10.563,7.911-17.377,9.786v6.082
		c0,4.984,1.28,8.963,3.887,11.936c2.606,2.973,6.082,4.437,10.472,4.437c8.048,0,13.994-4.482,17.881-13.399
		c0.183-0.411,0.411-0.641,0.731-0.641C154.354,598.058,155.177,598.378,156.503,599.064z M124.172,566.001
		c-1.966,4.756-3.018,10.243-3.155,16.509c4.162-1.235,8.048-3.521,11.661-6.814c3.613-3.246,5.396-6.768,5.396-10.518
		c0-3.704-2.012-6.266-5.716-6.266C128.836,558.912,126.138,561.291,124.172,566.001z"/>
	<path d="M157.554,612.829c-3.796-3.933-5.716-9.146-5.716-15.64c0-6.129,2.012-11.296,6.036-15.457
		c4.024-4.162,9.192-6.266,15.503-6.266c6.082,0,11.021,1.967,14.816,5.945c3.796,3.979,5.717,9.055,5.717,15.229
		c0,5.99-1.875,11.203-5.625,15.548s-9.009,6.54-15.731,6.54C166.38,618.729,161.35,616.762,157.554,612.829z M182.157,607.753
		c2.287-2.881,3.43-6.677,3.43-11.296c0-4.161-1.098-7.591-3.292-10.289c-2.195-2.698-5.167-4.024-8.917-4.024
		c-3.887,0-7.042,1.464-9.466,4.39c-2.469,2.928-3.704,6.448-3.704,10.564c0,4.619,1.235,8.277,3.658,10.975
		c2.424,2.699,5.442,4.025,9.055,4.025C176.807,612.098,179.871,610.634,182.157,607.753z M161.396,563.211
		c0-2.881,2.012-4.848,4.984-4.848c2.744,0,4.756,1.784,4.756,4.665c0,3.109-1.83,5.259-4.939,5.259
		C163.316,568.287,161.396,566.32,161.396,563.211z M175.16,563.211c0-2.881,2.012-4.848,4.894-4.848
		c2.881,0,4.847,1.784,4.847,4.665c0,3.109-1.829,5.259-4.939,5.259C177.081,568.287,175.16,566.32,175.16,563.211z"/>
	<path d="M206.713,612.92c-4.253-3.841-6.356-9.009-6.356-15.502c0-6.082,1.92-11.25,5.716-15.549
		c3.795-4.253,8.552-6.402,14.222-6.402c3.979,0,7.317,1.144,10.015,3.43c2.652,2.287,3.979,4.894,3.979,7.82
		c0,0.549-0.732,1.143-2.241,1.737c-1.509,0.641-2.698,0.961-3.476,0.961c-0.549,0-0.869-0.274-0.96-0.823
		c-0.595-3.704-3.338-6.082-7.5-6.082c-3.155,0-5.899,1.371-8.14,4.07c-2.241,2.697-3.384,6.127-3.384,10.243
		c0,4.894,1.555,8.644,4.619,11.296s6.905,3.979,11.524,3.979c4.756,0,8.688-1.281,11.752-3.888s5.396-5.762,6.951-9.512
		c0.366-0.869,0.777-1.007,3.338,0.366c1.28,0.686,1.92,1.234,1.92,1.6c0,0.138-0.091,0.458-0.274,1.053
		c-1.555,4.481-4.436,8.414-8.597,11.844c-4.207,3.43-9.741,5.168-16.6,5.168C216.408,618.729,210.92,616.808,206.713,612.92z"/>
	<path d="M267.122,614.658c-3.064-2.698-5.534-6.128-7.5-10.244c-1.052-2.148-1.601-3.658-1.601-4.572
		c0-0.412,0.595-0.915,1.784-1.418c8.369-2.516,12.53-5.945,12.576-10.381c0-3.247-2.195-5.442-5.533-5.442
		c-3.247,0-6.082,1.692-8.598,5.076c-2.515,3.431-4.298,7.271-5.35,11.524c-1.052,4.299-1.601,8.414-1.601,12.348v4.207
		c0,1.371-0.641,2.058-1.875,2.058h-4.39c-1.189,0-1.784-0.777-1.784-2.332v-59.404c0-1.418,0.595-2.149,1.784-2.149h4.481
		c1.189,0,1.784,0.641,1.784,1.875v17.24c0,0.961-0.229,6.677-0.641,17.149l0.366,0.091c1.509-4.299,3.704-7.865,6.631-10.654
		c2.927-2.79,6.631-4.162,11.158-4.162c3.384,0,6.128,1.006,8.231,3.019c2.058,2.058,3.11,4.664,3.11,7.865
		c0,3.704-1.326,6.905-4.024,9.695c-2.698,2.789-5.991,4.664-9.923,5.671c1.189,2.561,2.927,4.847,5.259,6.904
		c2.287,2.059,4.665,3.11,7.18,3.11c2.79,0,5.351-1.326,7.683-4.024c2.333-2.698,4.116-5.671,5.442-9.009
		c0.183-0.411,0.412-0.641,0.732-0.641c0.366,0,1.189,0.32,2.469,1.007c1.281,0.686,1.921,1.234,1.921,1.6
		c0,0.229-0.046,0.549-0.183,0.961c-1.417,3.704-3.338,7.408-6.402,11.021c-3.063,3.658-7.728,6.082-12.713,6.082
		C273.661,618.729,270.186,617.356,267.122,614.658z"/>
	<path d="M296.662,612.92c-4.253-3.841-6.356-9.009-6.356-15.502c0-6.082,1.92-11.25,5.716-15.549
		c3.795-4.253,8.552-6.402,14.222-6.402c3.979,0,7.317,1.144,10.015,3.43c2.652,2.287,3.979,4.894,3.979,7.82
		c0,0.549-0.732,1.143-2.241,1.737c-1.509,0.641-2.698,0.961-3.476,0.961c-0.549,0-0.869-0.274-0.96-0.823
		c-0.595-3.704-3.338-6.082-7.5-6.082c-3.155,0-5.899,1.371-8.14,4.07c-2.241,2.697-3.384,6.127-3.384,10.243
		c0,4.894,1.555,8.644,4.619,11.296s6.905,3.979,11.524,3.979c4.756,0,8.688-1.281,11.752-3.888s5.396-5.762,6.951-9.512
		c0.366-0.869,0.777-1.007,3.338,0.366c1.28,0.686,1.92,1.234,1.92,1.6c0,0.138-0.091,0.458-0.274,1.053
		c-1.555,4.481-4.436,8.414-8.597,11.844c-4.207,3.43-9.741,5.168-16.6,5.168C306.357,618.729,300.869,616.808,296.662,612.92z"/>
	<path d="M365.485,615.344c-2.516-2.24-3.75-5.167-3.75-8.78c0-1.921,0.137-4.618,0.366-8.094s0.32-6.128,0.32-8.003
		c0-5.305-2.058-7.957-6.174-7.957c-2.973,0-5.67,1.691-8.094,5.121s-4.162,7.363-5.259,11.707
		c-1.097,4.391-1.646,8.506-1.646,12.302v4.208c0,1.326-0.595,1.966-1.784,1.966h-4.481c-1.189,0-1.784-0.687-1.784-2.058v-59.77
		c0-1.373,0.595-2.059,1.784-2.059h4.481c1.189,0,1.784,0.641,1.784,1.967v16.966c0,6.082-0.229,11.845-0.732,17.332l0.366,0.091
		c1.418-4.069,3.659-7.545,6.631-10.472c2.972-2.881,6.539-4.345,10.609-4.345c8.14,0,12.622,4.481,12.622,12.576
		c0,0.595-0.091,2.789-0.32,6.539c-0.229,3.75-0.32,6.814-0.32,9.192c0,5.305,2.012,7.957,6.082,7.957
		c2.606,0,5.076-1.326,7.317-4.024s3.979-5.671,5.305-9.009c0.183-0.411,0.458-0.641,0.777-0.641c0.366,0,1.189,0.32,2.47,1.007
		c1.28,0.686,1.92,1.234,1.92,1.6c0,0.229-0.045,0.549-0.183,0.961c-1.235,3.476-3.156,6.996-6.22,10.746s-7.82,6.357-13.079,6.357
		C370.973,618.729,368,617.585,365.485,615.344z"/>
	<path d="M393.791,612.829c-4.253-3.933-6.402-9.192-6.402-15.823c0-5.898,1.875-10.93,5.625-15.183
		c3.75-4.253,8.323-6.356,13.765-6.356c3.613,0,6.631,1.098,9.009,3.293s3.567,4.938,3.567,8.231c0,5.122-1.967,9.146-5.945,12.027
		c-3.979,2.927-8.688,4.39-14.131,4.39c-1.509,0-2.515-0.046-3.064-0.092c1.006,2.744,2.881,4.894,5.625,6.448
		c2.744,1.556,5.945,2.333,9.558,2.333c4.802,0,8.826-1.281,11.981-3.842c3.156-2.561,5.534-5.762,7.088-9.558
		c0.183-0.411,0.458-0.641,0.777-0.641c0.412,0,1.28,0.32,2.515,1.007c1.235,0.686,1.875,1.234,1.875,1.6
		c0,0.229-0.046,0.549-0.183,0.961c-1.6,4.802-4.573,8.871-8.917,12.164c-4.345,3.293-9.787,4.939-16.28,4.939
		C403.531,618.729,398.044,616.762,393.791,612.829z M408.196,594.72c2.79-1.875,4.208-4.481,4.208-7.82
		c0-3.247-2.378-5.259-5.716-5.259c-3.156,0-5.945,1.418-8.323,4.299s-3.521,6.265-3.476,10.061c0,0.686,0.046,1.189,0.092,1.418
		c1.234,0.137,2.287,0.183,3.109,0.183C402.022,597.601,405.406,596.641,408.196,594.72z"/>
	<path d="M462.568,615.344c-2.516-2.24-3.75-5.167-3.75-8.78c0-1.921,0.137-4.664,0.366-8.186s0.32-6.22,0.32-8.003
		c0-5.259-2.104-7.865-6.265-7.865c-2.973,0-5.671,1.691-8.049,5.121s-4.116,7.363-5.213,11.753
		c-1.097,4.437-1.646,8.598-1.646,12.53v3.934c0,1.326-0.595,1.966-1.784,1.966h-4.481c-1.189,0-1.784-0.64-1.784-1.966v-37.18
		c0-1.418,0.595-2.149,1.784-2.149h4.481c1.189,0,1.784,0.641,1.784,1.875c0,0.96-0.229,4.207-0.458,7.866
		c-0.137,1.875-0.229,3.155-0.274,3.933l0.366,0.091c1.418-4.115,3.659-7.637,6.631-10.518c2.972-2.881,6.585-4.299,10.792-4.299
		c8.003,0,12.439,4.573,12.439,12.302c0,0.595-0.091,2.835-0.32,6.677c-0.229,3.842-0.32,6.951-0.32,9.329
		c0,5.305,2.012,7.957,5.991,7.957c2.698,0,5.122-1.326,7.362-3.979c2.195-2.652,3.979-5.671,5.351-9.055
		c0.183-0.411,0.458-0.641,0.777-0.641c0.366,0,1.189,0.32,2.47,1.007c1.28,0.686,1.92,1.234,1.92,1.6
		c0,0.229-0.045,0.549-0.183,0.961c-1.235,3.476-3.156,6.996-6.22,10.746s-7.82,6.357-13.079,6.357
		C468.056,618.729,465.083,617.585,462.568,615.344z"/>
	<path d="M501.438,628.012c-0.777-0.687-1.143-1.189-1.143-1.51c0-0.229,0.137-0.503,0.366-0.731
		c2.424-2.561,3.933-4.848,4.436-6.905c-2.516,0-4.802-1.967-4.802-5.076s2.286-5.076,5.167-5.076c3.476,0,5.305,2.698,5.305,6.951
		c0,1.921-0.549,3.979-1.646,6.174c-1.143,2.195-2.287,3.933-3.476,5.213c-1.189,1.281-2.012,1.921-2.515,1.921
		C502.764,628.972,502.215,628.651,501.438,628.012z"/>
</g>
<g>
	<path d="M92.02,770.245c-4.462-3.93-8.059-8.925-10.923-14.92c-1.532-3.13-2.331-5.328-2.331-6.66c0-0.6,0.866-1.332,2.598-2.065
		c12.188-3.662,18.25-8.658,18.316-15.119c0-4.729-3.197-7.926-8.059-7.926c-4.729,0-8.858,2.465-12.521,7.394
		c-3.663,4.995-6.261,10.59-7.793,16.784c-1.532,6.261-2.331,12.256-2.331,17.983v6.128c0,1.998-0.932,2.997-2.73,2.997H59.85
		c-1.732,0-2.598-1.133-2.598-3.397v-86.52c0-2.064,0.866-3.13,2.598-3.13h6.527c1.732,0,2.598,0.933,2.598,2.73v25.11
		c0,1.398-0.333,9.725-0.932,24.977l0.533,0.133c2.198-6.26,5.395-11.455,9.658-15.519c4.263-4.063,9.658-6.061,16.251-6.061
		c4.929,0,8.925,1.465,11.989,4.396c2.997,2.997,4.529,6.794,4.529,11.456c0,5.396-1.932,10.058-5.861,14.12
		s-8.725,6.794-14.453,8.259c1.731,3.729,4.263,7.061,7.659,10.058c3.331,2.997,6.794,4.529,10.457,4.529
		c4.063,0,7.793-1.932,11.189-5.861c3.397-3.93,5.995-8.259,7.926-13.121c0.266-0.6,0.599-0.933,1.065-0.933
		c0.533,0,1.732,0.466,3.597,1.466c1.865,0.998,2.797,1.798,2.797,2.33c0,0.334-0.066,0.8-0.266,1.399
		c-2.065,5.395-4.862,10.79-9.325,16.052c-4.463,5.328-11.256,8.858-18.516,8.858C101.544,776.173,96.482,774.175,92.02,770.245z"/>
	<path d="M189.463,747.533c1.865,0.998,2.797,1.798,2.797,2.33c0,0.467-0.066,0.934-0.267,1.532
		c-2.598,7.261-6.86,13.255-12.788,17.851s-13.387,6.927-22.313,6.927c-9.258,0-16.651-2.997-22.046-8.991
		c-5.462-5.995-8.192-13.987-8.192-23.979V726.02c0-17.317,3.597-31.238,12.188-40.162c4.33-4.463,9.591-6.661,15.852-6.661
		c5.661,0,10.19,1.731,13.587,5.262c3.396,3.53,5.128,7.926,5.128,13.321c0,7.793-3.463,15.053-10.324,21.779
		c-6.927,6.728-15.386,11.522-25.31,14.254v8.858c0,7.26,1.865,13.054,5.661,17.384c3.796,4.329,8.858,6.46,15.252,6.46
		c11.723,0,20.381-6.526,26.042-19.515c0.267-0.6,0.6-0.933,1.066-0.933C186.333,746.067,187.532,746.533,189.463,747.533z
		 M142.374,699.377c-2.864,6.928-4.396,14.92-4.596,24.045c6.061-1.799,11.722-5.129,16.984-9.924
		c5.262-4.729,7.859-9.857,7.859-15.319c0-5.396-2.931-9.125-8.326-9.125C149.167,689.054,145.238,692.518,142.374,699.377z"/>
	<path d="M183.07,695.314c0-4.195,3.197-7.06,7.393-7.06s7.26,2.597,7.26,6.794c0,4.528-2.797,7.659-7.526,7.659
		C186.001,702.708,183.07,699.645,183.07,695.314z M189.931,769.979c-3.73-4.13-5.595-9.857-5.595-17.117v-35.434
		c0-1.799,0.799-2.731,2.464-2.731h6.793c1.798,0,2.731,0.933,2.731,2.731c0,1.465-0.067,6.394-0.2,14.853
		c-0.133,8.459-0.2,14.319-0.2,17.583c0,10.724,3.797,16.119,11.456,16.119c2.931,0,5.795-1.133,8.525-3.464
		c2.731-2.265,4.929-4.662,6.461-7.26c1.532-2.598,2.864-5.262,3.996-8.126c0.267-0.732,0.666-1.065,1.199-1.065
		c0.6,0,1.865,0.466,3.664,1.466c1.798,0.998,2.73,1.798,2.73,2.33c0,0.334-0.066,0.8-0.266,1.399
		c-2.265,6.46-5.795,12.188-10.59,17.251c-4.862,5.128-10.856,7.659-18.05,7.659C198.722,776.173,193.661,774.107,189.931,769.979z"
		/>
	<path d="M273.054,771.244c-3.663-3.264-5.461-7.526-5.461-12.788c0-2.798,0.2-6.794,0.533-11.923
		c0.333-5.128,0.466-9.058,0.466-11.655c0-7.659-3.063-11.456-9.125-11.456c-4.33,0-8.259,2.465-11.723,7.46
		s-5.994,10.724-7.593,17.117c-1.599,6.46-2.398,12.521-2.398,18.249v5.729c0,1.932-0.866,2.864-2.598,2.864h-6.527
		c-1.732,0-2.598-0.933-2.598-2.864v-54.149c0-2.065,0.866-3.131,2.598-3.131h6.527c1.732,0,2.598,0.933,2.598,2.731
		c0,1.398-0.333,6.127-0.666,11.455c-0.2,2.731-0.333,4.596-0.399,5.729l0.533,0.133c2.065-5.994,5.328-11.123,9.658-15.318
		c4.329-4.196,9.591-6.261,15.719-6.261c11.656,0,18.116,6.66,18.116,17.916c0,0.866-0.133,4.13-0.466,9.725
		s-0.466,10.124-0.466,13.587c0,7.727,2.93,11.59,8.725,11.59c3.93,0,7.459-1.932,10.723-5.795
		c3.197-3.863,5.795-8.259,7.793-13.188c0.266-0.6,0.666-0.933,1.132-0.933c0.533,0,1.731,0.466,3.597,1.466
		c1.865,0.998,2.797,1.798,2.797,2.33c0,0.334-0.067,0.8-0.267,1.399c-1.798,5.062-4.596,10.19-9.058,15.651
		c-4.462,5.462-11.39,9.259-19.049,9.259C281.046,776.173,276.717,774.508,273.054,771.244z"/>
	<path d="M397.007,747.533c1.865,0.998,2.797,1.731,2.797,2.197c0,0.467-0.066,0.933-0.267,1.532
		c-2.198,6.727-5.661,12.255-10.523,16.585c-4.862,4.328-11.056,6.46-18.583,6.46c-1.665,0-3.197-0.133-4.596-0.399
		c-0.533,23.445-11.256,36.232-30.705,36.232c-5.395,0-10.124-1.266-14.253-3.796c-4.13-2.531-6.194-4.729-6.194-6.661
		c0-0.799,0.799-2.131,2.331-4.063s2.664-2.931,3.53-2.931c0.333,0,1.199,0.533,2.464,1.532c4.263,3.729,8.592,5.595,12.921,5.595
		c6.061,0,10.857-2.464,14.387-7.394c3.53-4.995,5.262-11.988,5.262-20.98v-12.588l-0.533-0.133
		c-1.932,4.729-4.862,8.791-8.925,12.255c-4.063,3.464-9.125,5.195-15.252,5.195c-7.66,0-13.854-2.864-18.649-8.525
		c-4.862-5.661-7.26-12.988-7.26-21.979c0-9.258,2.73-17.051,8.192-23.245c5.462-6.194,12.522-9.258,21.181-9.258
		c7.792,0,14.453,2.53,19.915,7.526l0.4-0.134v-3.396c0-1.665,0.799-2.465,2.464-2.465h6.793c1.532,0,2.331,0.933,2.331,2.731
		l-0.399,45.824c1.998,0.466,3.863,0.666,5.595,0.666c9.458,0,16.385-5.662,20.847-16.918c0.267-0.6,0.6-0.933,1.066-0.933
		C393.876,746.067,395.075,746.533,397.007,747.533z M348.652,755.259c3.996-7.127,5.995-15.053,5.995-23.645
		c-1.798-2.198-4.33-4.063-7.526-5.728c-3.197-1.666-6.461-2.465-9.791-2.465c-5.928,0-10.79,2.131-14.586,6.327
		c-3.863,4.196-5.794,9.658-5.794,16.318c0,5.928,1.532,10.724,4.596,14.387c3.063,3.663,6.86,5.528,11.389,5.528
		C339.394,765.982,344.589,762.386,348.652,755.259z"/>
	<path d="M399.539,767.58c-6.194-5.728-9.324-13.387-9.324-23.045c0-8.592,2.73-15.918,8.192-22.112
		c5.461-6.194,12.122-9.258,20.048-9.258c5.262,0,9.658,1.599,13.121,4.795c3.463,3.197,5.195,7.193,5.195,11.989
		c0,7.459-2.864,13.32-8.659,17.517c-5.795,4.263-12.655,6.395-20.581,6.395c-2.198,0-3.663-0.067-4.462-0.134
		c1.465,3.996,4.196,7.127,8.192,9.392s8.659,3.396,13.92,3.396c6.993,0,12.854-1.864,17.45-5.595
		c4.596-3.729,8.059-8.392,10.324-13.92c0.267-0.6,0.666-0.933,1.132-0.933c0.6,0,1.865,0.466,3.663,1.466
		c1.798,0.998,2.731,1.798,2.731,2.33c0,0.334-0.066,0.8-0.267,1.399c-2.331,6.993-6.66,12.921-12.988,17.717
		c-6.327,4.796-14.253,7.193-23.711,7.193C413.726,776.173,405.733,773.309,399.539,767.58z M420.52,741.205
		c4.063-2.73,6.128-6.527,6.128-11.389c0-4.729-3.463-7.66-8.326-7.66c-4.596,0-8.659,2.064-12.122,6.261s-5.128,9.125-5.062,14.653
		c0,0.999,0.067,1.731,0.133,2.064c1.798,0.2,3.33,0.267,4.529,0.267C411.528,745.401,416.457,744.003,420.52,741.205z"/>
	<path d="M514.7,747.533c1.865,0.998,2.797,1.798,2.797,2.33c0,0.467-0.066,0.934-0.267,1.532
		c-2.598,7.261-6.86,13.255-12.788,17.851s-13.387,6.927-22.313,6.927c-9.258,0-16.651-2.997-22.046-8.991
		c-5.462-5.995-8.192-13.987-8.192-23.979V726.02c0-17.317,3.597-31.238,12.188-40.162c4.33-4.463,9.591-6.661,15.852-6.661
		c5.661,0,10.19,1.731,13.587,5.262c3.396,3.53,5.128,7.926,5.128,13.321c0,7.793-3.463,15.053-10.324,21.779
		c-6.927,6.728-15.386,11.522-25.31,14.254v8.858c0,7.26,1.865,13.054,5.661,17.384c3.796,4.329,8.858,6.46,15.252,6.46
		c11.723,0,20.381-6.526,26.042-19.515c0.267-0.6,0.6-0.933,1.066-0.933C511.569,746.067,512.768,746.533,514.7,747.533z
		 M467.61,699.377c-2.864,6.928-4.396,14.92-4.596,24.045c6.061-1.799,11.722-5.129,16.984-9.924
		c5.262-4.729,7.859-9.857,7.859-15.319c0-5.396-2.931-9.125-8.326-9.125C474.404,689.054,470.474,692.518,467.61,699.377z"/>
	<path d="M508.307,695.314c0-4.195,3.197-7.06,7.393-7.06s7.26,2.597,7.26,6.794c0,4.528-2.797,7.659-7.526,7.659
		C511.237,702.708,508.307,699.645,508.307,695.314z M515.167,769.979c-3.73-4.13-5.595-9.857-5.595-17.117v-35.434
		c0-1.799,0.799-2.731,2.464-2.731h6.793c1.798,0,2.731,0.933,2.731,2.731c0,1.465-0.067,6.394-0.2,14.853
		c-0.133,8.459-0.2,14.319-0.2,17.583c0,10.724,3.797,16.119,11.456,16.119c2.931,0,5.795-1.133,8.525-3.464
		c2.73-2.265,4.929-4.662,6.461-7.26c1.531-2.598,2.863-5.262,3.996-8.126c0.267-0.732,0.666-1.065,1.199-1.065
		c0.6,0,1.865,0.466,3.663,1.466c1.798,0.998,2.73,1.798,2.73,2.33c0,0.334-0.066,0.8-0.267,1.399
		c-2.264,6.46-5.795,12.188-10.59,17.251c-4.862,5.128-10.856,7.659-18.05,7.659C523.958,776.173,518.897,774.107,515.167,769.979z"
		/>
	<path d="M598.29,771.244c-3.663-3.264-5.462-7.526-5.462-12.788c0-2.798,0.2-6.794,0.533-11.923
		c0.333-5.128,0.467-9.058,0.467-11.655c0-7.659-3.064-11.456-9.125-11.456c-4.33,0-8.26,2.465-11.723,7.46
		s-5.994,10.724-7.593,17.117c-1.599,6.46-2.397,12.521-2.397,18.249v5.729c0,1.932-0.866,2.864-2.598,2.864h-6.527
		c-1.732,0-2.598-0.933-2.598-2.864v-54.149c0-2.065,0.865-3.131,2.598-3.131h6.527c1.731,0,2.598,0.933,2.598,2.731
		c0,1.398-0.334,6.127-0.666,11.455c-0.2,2.731-0.334,4.596-0.4,5.729l0.533,0.133c2.064-5.994,5.328-11.123,9.658-15.318
		c4.328-4.196,9.59-6.261,15.719-6.261c11.655,0,18.115,6.66,18.115,17.916c0,0.866-0.133,4.13-0.466,9.725
		s-0.466,10.124-0.466,13.587c0,7.727,2.93,11.59,8.725,11.59c3.93,0,7.46-1.932,10.724-5.795c3.197-3.863,5.795-8.259,7.793-13.188
		c0.267-0.6,0.666-0.933,1.132-0.933c0.533,0,1.732,0.466,3.598,1.466c1.864,0.998,2.797,1.798,2.797,2.33
		c0,0.334-0.066,0.8-0.267,1.399c-1.798,5.062-4.596,10.19-9.058,15.651c-4.463,5.462-11.391,9.259-19.049,9.259
		C606.283,776.173,601.953,774.508,598.29,771.244z"/>
	<path d="M722.243,747.533c1.864,0.998,2.798,1.731,2.798,2.197c0,0.467-0.066,0.933-0.268,1.532
		c-2.197,6.727-5.66,12.255-10.523,16.585c-4.861,4.328-11.056,6.46-18.582,6.46c-1.665,0-3.197-0.133-4.596-0.399
		c-0.533,23.445-11.256,36.232-30.705,36.232c-5.395,0-10.123-1.266-14.253-3.796c-4.13-2.531-6.194-4.729-6.194-6.661
		c0-0.799,0.799-2.131,2.331-4.063s2.664-2.931,3.53-2.931c0.333,0,1.199,0.533,2.465,1.532c4.262,3.729,8.592,5.595,12.92,5.595
		c6.062,0,10.857-2.464,14.387-7.394c3.531-4.995,5.262-11.988,5.262-20.98v-12.588l-0.532-0.133
		c-1.932,4.729-4.862,8.791-8.925,12.255s-9.125,5.195-15.252,5.195c-7.66,0-13.854-2.864-18.65-8.525
		c-4.861-5.661-7.26-12.988-7.26-21.979c0-9.258,2.73-17.051,8.192-23.245s12.522-9.258,21.181-9.258
		c7.793,0,14.453,2.53,19.914,7.526l0.4-0.134v-3.396c0-1.665,0.799-2.465,2.465-2.465h6.793c1.531,0,2.331,0.933,2.331,2.731
		l-0.399,45.824c1.998,0.466,3.863,0.666,5.595,0.666c9.458,0,16.385-5.662,20.847-16.918c0.268-0.6,0.6-0.933,1.066-0.933
		C719.113,746.067,720.312,746.533,722.243,747.533z M673.889,755.259c3.996-7.127,5.994-15.053,5.994-23.645
		c-1.799-2.198-4.33-4.063-7.526-5.728c-3.197-1.666-6.461-2.465-9.791-2.465c-5.928,0-10.79,2.131-14.587,6.327
		c-3.863,4.196-5.794,9.658-5.794,16.318c0,5.928,1.532,10.724,4.596,14.387s6.86,5.528,11.39,5.528
		C664.631,765.982,669.825,762.386,673.889,755.259z"/>
	<path d="M724.775,767.58c-6.193-5.728-9.324-13.387-9.324-23.045c0-8.592,2.73-15.918,8.192-22.112s12.122-9.258,20.048-9.258
		c5.262,0,9.658,1.599,13.121,4.795c3.463,3.197,5.195,7.193,5.195,11.989c0,7.459-2.864,13.32-8.658,17.517
		c-5.795,4.263-12.655,6.395-20.582,6.395c-2.197,0-3.662-0.067-4.462-0.134c1.466,3.996,4.196,7.127,8.192,9.392
		s8.658,3.396,13.92,3.396c6.994,0,12.855-1.864,17.451-5.595c4.596-3.729,8.059-8.392,10.323-13.92
		c0.267-0.6,0.666-0.933,1.132-0.933c0.6,0,1.865,0.466,3.664,1.466c1.798,0.998,2.73,1.798,2.73,2.33
		c0,0.334-0.066,0.8-0.267,1.399c-2.331,6.993-6.66,12.921-12.987,17.717c-6.328,4.796-14.254,7.193-23.711,7.193
		C738.963,776.173,730.97,773.309,724.775,767.58z M745.756,741.205c4.063-2.73,6.128-6.527,6.128-11.389
		c0-4.729-3.464-7.66-8.325-7.66c-4.596,0-8.659,2.064-12.123,6.261c-3.463,4.196-5.128,9.125-5.062,14.653
		c0,0.999,0.067,1.731,0.134,2.064c1.798,0.2,3.33,0.267,4.529,0.267C736.765,745.401,741.693,744.003,745.756,741.205z"/>
	<path d="M839.936,747.533c1.865,0.998,2.798,1.798,2.798,2.33c0,0.467-0.066,0.934-0.267,1.532
		c-2.598,7.261-6.86,13.255-12.788,17.851s-13.388,6.927-22.313,6.927c-9.258,0-16.651-2.997-22.046-8.991
		c-5.462-5.995-8.192-13.987-8.192-23.979V726.02c0-17.317,3.597-31.238,12.188-40.162c4.33-4.463,9.592-6.661,15.852-6.661
		c5.662,0,10.191,1.731,13.588,5.262s5.129,7.926,5.129,13.321c0,7.793-3.464,15.053-10.324,21.779
		c-6.927,6.728-15.386,11.522-25.31,14.254v8.858c0,7.26,1.864,13.054,5.661,17.384c3.797,4.329,8.858,6.46,15.252,6.46
		c11.723,0,20.382-6.526,26.043-19.515c0.267-0.6,0.6-0.933,1.066-0.933C836.806,746.067,838.004,746.533,839.936,747.533z
		 M792.847,699.377c-2.864,6.928-4.396,14.92-4.596,24.045c6.062-1.799,11.722-5.129,16.983-9.924
		c5.262-4.729,7.859-9.857,7.859-15.319c0-5.396-2.93-9.125-8.325-9.125C799.641,689.054,795.711,692.518,792.847,699.377z"/>
	<path d="M833.543,695.314c0-4.195,3.197-7.06,7.393-7.06c4.197,0,7.26,2.597,7.26,6.794c0,4.528-2.797,7.659-7.525,7.659
		C836.474,702.708,833.543,699.645,833.543,695.314z M840.403,769.979c-3.729-4.13-5.595-9.857-5.595-17.117v-35.434
		c0-1.799,0.799-2.731,2.465-2.731h6.793c1.799,0,2.73,0.933,2.73,2.731c0,1.465-0.066,6.394-0.199,14.853s-0.2,14.319-0.2,17.583
		c0,10.724,3.797,16.119,11.456,16.119c2.931,0,5.795-1.133,8.525-3.464c2.73-2.265,4.929-4.662,6.461-7.26
		c1.531-2.598,2.863-5.262,3.996-8.126c0.267-0.732,0.666-1.065,1.199-1.065c0.6,0,1.865,0.466,3.663,1.466
		c1.798,0.998,2.73,1.798,2.73,2.33c0,0.334-0.066,0.8-0.267,1.399c-2.264,6.46-5.795,12.188-10.59,17.251
		c-4.862,5.128-10.856,7.659-18.05,7.659C849.195,776.173,844.133,774.107,840.403,769.979z"/>
	<path d="M923.526,771.244c-3.663-3.264-5.462-7.526-5.462-12.788c0-2.798,0.2-6.794,0.533-11.923
		c0.333-5.128,0.467-9.058,0.467-11.655c0-7.659-3.064-11.456-9.125-11.456c-4.33,0-8.26,2.465-11.723,7.46
		s-5.994,10.724-7.593,17.117c-1.599,6.46-2.397,12.521-2.397,18.249v5.729c0,1.932-0.866,2.864-2.598,2.864h-6.527
		c-1.732,0-2.598-0.933-2.598-2.864v-54.149c0-2.065,0.865-3.131,2.598-3.131h6.527c1.731,0,2.598,0.933,2.598,2.731
		c0,1.398-0.334,6.127-0.666,11.455c-0.2,2.731-0.334,4.596-0.4,5.729l0.533,0.133c2.064-5.994,5.328-11.123,9.658-15.318
		c4.328-4.196,9.59-6.261,15.719-6.261c11.655,0,18.115,6.66,18.115,17.916c0,0.866-0.133,4.13-0.466,9.725
		s-0.466,10.124-0.466,13.587c0,7.727,2.93,11.59,8.725,11.59c3.93,0,7.46-1.932,10.724-5.795c3.197-3.863,5.795-8.259,7.793-13.188
		c0.267-0.6,0.666-0.933,1.132-0.933c0.533,0,1.732,0.466,3.598,1.466c1.864,0.998,2.797,1.798,2.797,2.33
		c0,0.334-0.066,0.8-0.267,1.399c-1.798,5.062-4.596,10.19-9.058,15.651c-4.463,5.462-11.391,9.259-19.049,9.259
		C931.52,776.173,927.189,774.508,923.526,771.244z"/>
	<path d="M971.351,806.345c-4.13-2.531-6.194-4.729-6.194-6.661c0-0.865,0.799-2.264,2.331-4.129
		c1.532-1.932,2.664-2.864,3.53-2.864c0.333,0,1.199,0.533,2.465,1.532c4.262,3.729,8.592,5.595,12.92,5.595
		c6.062,0,10.857-2.464,14.387-7.394c3.531-4.995,5.262-11.988,5.262-20.98v-12.588l-0.532-0.133
		c-1.932,4.729-4.862,8.791-8.925,12.255s-9.125,5.195-15.252,5.195c-7.66,0-13.854-2.864-18.65-8.525
		c-4.861-5.661-7.26-12.988-7.26-21.979c0-9.258,2.73-17.051,8.192-23.245s12.522-9.258,21.181-9.258
		c7.793,0,14.453,2.53,19.914,7.526l0.4-0.134v-3.396c0-1.665,0.799-2.465,2.465-2.465h6.793c1.531,0,2.331,0.933,2.331,2.731
		v54.416c0,24.51-10.923,38.297-31.104,38.297C980.209,810.141,975.48,808.875,971.351,806.345z M999.125,755.259
		c3.996-7.127,5.994-15.053,5.994-23.645c-1.799-2.198-4.33-4.063-7.526-5.728c-3.197-1.666-6.461-2.465-9.791-2.465
		c-5.928,0-10.79,2.131-14.587,6.327c-3.863,4.196-5.794,9.658-5.794,16.318c0,5.928,1.532,10.724,4.596,14.387
		s6.86,5.528,11.39,5.528C989.867,765.982,995.062,762.386,999.125,755.259z"/>
</g>
</svg>
