<?xml version="1.0" encoding="utf-8"?>
<!-- Generator: Adobe Illustrator 15.1.0, SVG Export Plug-In . SVG Version: 6.00 Build 0)  -->
<!DOCTYPE svg PUBLIC "-//W3C//DTD SVG 1.1//EN" "http://www.w3.org/Graphics/SVG/1.1/DTD/svg11.dtd">
<svg version="1.1" id="vs_text" xmlns="http://www.w3.org/2000/svg" xmlns:xlink="http://www.w3.org/1999/xlink" x="0px" y="0px"
	 width="1080px" height="1080px" viewBox="0 0 1080 1080" enable-background="new 0 0 1080 1080" xml:space="preserve">
<g>
	<path d="M116.119,813.807c-1.113-0.297-1.781-0.891-1.93-1.855c-2.152-9.129-5.27-20.484-9.426-34.141
		c-4.156-13.582-7.496-25.234-9.945-34.809c-2.523-9.574-3.785-17.441-3.785-23.602H78.119c-5.863,0-10.688,1.336-14.473,4.082
		s-5.715,6.605-5.715,11.727c0,3.34,1.336,6.383,3.934,9.055s5.641,4.23,9.129,4.75c0.668,0.074,1.039,0.445,1.039,0.965
		c0,1.707-1.113,4.676-3.34,8.758c-0.371,0.816-0.816,1.188-1.336,1.262c-4.824,0-9.723-2.375-14.547-7.199
		c-4.898-4.75-7.348-10.613-7.348-17.59c0-8.238,2.895-14.844,8.684-19.816c5.715-4.973,12.988-7.422,21.82-7.422h24.492
		c2.449,0,3.637,1.188,3.637,3.637c0,8.609,2.895,24.047,8.758,46.313s9.5,37.406,11.059,45.348l0.445,0.148
		c12.766-25.531,21.152-52.695,25.086-81.566c0.074-0.594,2.004-1.262,5.715-2.078c3.637-0.742,6.234-1.113,7.645-1.113
		c0.891,0,1.484,0.371,1.781,1.188c8.906,26.496,15.066,54.254,18.555,83.422l0.445,0.148c9.129-11.949,16.031-25.309,20.781-39.93
		c4.676-14.621,7.051-28.277,7.051-41.043c0-2.746-0.223-5.863-0.594-9.5s-0.594-5.492-0.594-5.566c0-0.668,1.559-1.484,4.602-2.375
		c3.043-0.816,5.195-1.262,6.605-1.262c0.594,0,1.039,0.371,1.41,1.188c1.41,3.859,2.152,9.648,2.078,17.367
		c0,15.512-3.191,31.469-9.574,48.02s-15.363,31.395-26.867,44.68c-0.816,0.594-1.559,0.891-2.375,0.891s-4.453-0.668-10.836-2.078
		c-1.113-0.074-1.781-0.742-2.004-1.855c-2.449-18.184-7.422-42.602-15.066-73.254h-0.445c-4.676,28.352-14.102,53.66-28.277,76
		c-0.594,0.816-1.41,1.188-2.375,1.188C125.99,816.107,116.416,813.807,116.119,813.807z"/>
	<path d="M243.775,803.564c-6.902-6.383-10.391-14.918-10.391-25.68c0-9.574,3.043-17.738,9.129-24.641s13.508-10.316,22.34-10.316
		c5.863,0,10.762,1.781,14.621,5.344s5.789,8.016,5.789,13.359c0,8.313-3.191,14.844-9.648,19.52
		c-6.457,4.75-14.102,7.125-22.934,7.125c-2.449,0-4.082-0.074-4.973-0.148c1.633,4.453,4.676,7.941,9.129,10.465
		s9.648,3.785,15.512,3.785c7.793,0,14.324-2.078,19.445-6.234s8.98-9.352,11.504-15.512c0.297-0.668,0.742-1.039,1.262-1.039
		c0.668,0,2.078,0.52,4.082,1.633s3.043,2.004,3.043,2.598c0,0.371-0.074,0.891-0.297,1.559
		c-2.598,7.793-7.422,14.398-14.473,19.742s-15.883,8.016-26.422,8.016C259.584,813.139,250.678,809.947,243.775,803.564z
		 M267.154,774.174c4.527-3.043,6.828-7.273,6.828-12.691c0-5.27-3.859-8.535-9.277-8.535c-5.121,0-9.648,2.301-13.508,6.977
		s-5.715,10.168-5.641,16.328c0,1.113,0.074,1.93,0.148,2.301c2.004,0.223,3.711,0.297,5.047,0.297
		C257.135,778.85,262.627,777.291,267.154,774.174z"/>
	<path d="M301.592,723.037c0-4.676,3.563-7.867,8.238-7.867s8.09,2.895,8.09,7.57c0,5.047-3.117,8.535-8.387,8.535
		C304.857,731.275,301.592,727.861,301.592,723.037z M309.236,806.236c-4.156-4.602-6.234-10.984-6.234-19.074v-39.484
		c0-2.004,0.891-3.043,2.746-3.043h7.57c2.004,0,3.043,1.039,3.043,3.043c0,1.633-0.074,7.125-0.223,16.551
		s-0.223,15.957-0.223,19.594c0,11.949,4.23,17.961,12.766,17.961c3.266,0,6.457-1.262,9.5-3.859
		c3.043-2.523,5.492-5.195,7.199-8.09s3.191-5.863,4.453-9.055c0.297-0.816,0.742-1.188,1.336-1.188c0.668,0,2.078,0.52,4.082,1.633
		s3.043,2.004,3.043,2.598c0,0.371-0.074,0.891-0.297,1.559c-2.523,7.199-6.457,13.582-11.801,19.223
		c-5.418,5.715-12.098,8.535-20.113,8.535C319.033,813.139,313.393,810.838,309.236,806.236z"/>
	<path d="M401.861,807.646c-4.082-3.637-6.086-8.387-6.086-14.25c0-3.117,0.223-7.496,0.594-13.137s0.52-9.945,0.52-12.988
		c0-8.609-3.34-12.914-10.02-12.914c-4.824,0-9.203,2.746-13.137,8.313s-6.754,11.949-8.535,19
		c-1.781,7.125-2.672,13.805-2.672,19.965v6.828c0,2.152-0.965,3.191-2.895,3.191h-7.273c-1.93,0-2.895-1.113-2.895-3.34v-97.004
		c0-2.227,0.965-3.34,2.895-3.34h7.273c1.93,0,2.895,1.039,2.895,3.191v27.535c0,9.871-0.371,19.223-1.188,28.129l0.594,0.148
		c2.301-6.605,5.938-12.246,10.762-16.996c4.824-4.676,10.613-7.051,17.219-7.051c13.211,0,20.484,7.273,20.484,20.41
		c0,0.965-0.148,4.527-0.52,10.613s-0.52,11.059-0.52,14.918c0,8.609,3.266,12.914,9.871,12.914c4.23,0,8.238-2.152,11.875-6.531
		s6.457-9.203,8.609-14.621c0.297-0.668,0.742-1.039,1.262-1.039c0.594,0,1.93,0.52,4.008,1.633s3.117,2.004,3.117,2.598
		c0,0.371-0.074,0.891-0.297,1.559c-2.004,5.641-5.121,11.355-10.094,17.441s-12.691,10.316-21.227,10.316
		C410.768,813.139,405.943,811.283,401.861,807.646z"/>
	<path d="M491.666,807.646c-4.082-3.637-6.086-8.387-6.086-14.25c0-3.117,0.223-7.57,0.594-13.285s0.52-10.094,0.52-12.988
		c0-8.535-3.414-12.766-10.168-12.766c-4.824,0-9.203,2.746-13.063,8.313s-6.68,11.949-8.461,19.074
		c-1.781,7.199-2.672,13.953-2.672,20.336v6.383c0,2.152-0.965,3.191-2.895,3.191h-7.273c-1.93,0-2.895-1.039-2.895-3.191v-60.34
		c0-2.301,0.965-3.488,2.895-3.488h7.273c1.93,0,2.895,1.039,2.895,3.043c0,1.559-0.371,6.828-0.742,12.766
		c-0.223,3.043-0.371,5.121-0.445,6.383l0.594,0.148c2.301-6.68,5.938-12.395,10.762-17.07s10.688-6.977,17.516-6.977
		c12.988,0,20.188,7.422,20.188,19.965c0,0.965-0.148,4.602-0.52,10.836s-0.52,11.281-0.52,15.141
		c0,8.609,3.266,12.914,9.723,12.914c4.379,0,8.313-2.152,11.949-6.457c3.563-4.305,6.457-9.203,8.684-14.695
		c0.297-0.668,0.742-1.039,1.262-1.039c0.594,0,1.93,0.52,4.008,1.633s3.117,2.004,3.117,2.598c0,0.371-0.074,0.891-0.297,1.559
		c-2.004,5.641-5.121,11.355-10.094,17.441s-12.691,10.316-21.227,10.316C500.572,813.139,495.748,811.283,491.666,807.646z"/>
	<path d="M535.455,803.787c-5.492-6.16-8.238-14.324-8.238-24.492c0-10.465,3.043-19.148,9.129-26.051s13.879-10.316,23.453-10.316
		c8.906,0,16.328,2.82,22.34,8.387l0.445-0.148v-3.637c0-1.93,0.891-2.895,2.746-2.895h7.422c1.93,0,2.895,1.039,2.895,3.043
		c0,0.223-0.297,5.641-0.816,16.328c-0.594,10.688-0.891,18.406-0.891,23.156c0,8.906,3.488,14.621,9.723,14.621
		c4.23,0,8.164-2.152,11.727-6.383s6.531-9.203,8.832-14.77c0.297-0.668,0.668-1.039,1.188-1.039c0.594,0,1.93,0.52,4.082,1.633
		c2.078,1.113,3.117,2.004,3.117,2.598c0,0.371-0.148,0.891-0.371,1.559c-1.781,5.641-5.121,11.504-10.168,17.59
		s-12.617,10.168-20.93,10.168c-5.418,0-9.723-1.41-12.988-4.305c-3.34-2.895-4.973-6.605-4.973-11.281
		c0-0.965,0.148-3.117,0.148-3.414l-0.594-0.148c-1.93,5.27-5.195,9.723-9.723,13.508c-4.602,3.785-10.242,5.641-16.922,5.641
		C547.775,813.139,540.873,810.021,535.455,803.787z M572.193,794.955c3.859-4.527,6.531-9.648,8.09-15.215
		s2.301-10.984,2.301-16.254c-2.004-2.449-4.824-4.527-8.387-6.383s-7.199-2.746-10.91-2.746c-6.605,0-12.023,2.301-16.254,6.977
		c-4.305,4.676-6.457,10.762-6.457,18.406c0,6.605,1.707,11.875,5.121,15.957s7.57,6.086,12.543,6.086
		C563.658,801.783,568.26,799.482,572.193,794.955z"/>
	<path d="M632.162,803.713c-6.902-6.234-10.316-14.621-10.316-25.16c0-9.871,3.117-18.258,9.277-25.234
		c6.16-6.902,13.879-10.391,23.082-10.391c6.457,0,11.875,1.855,16.254,5.566c4.305,3.711,6.457,7.941,6.457,12.691
		c0,0.891-1.188,1.855-3.637,2.82c-2.449,1.039-4.379,1.559-5.641,1.559c-0.891,0-1.41-0.445-1.559-1.336
		c-0.965-6.012-5.418-9.871-12.172-9.871c-5.121,0-9.574,2.227-13.211,6.605s-5.492,9.945-5.492,16.625
		c0,7.941,2.523,14.027,7.496,18.332s11.207,6.457,18.703,6.457c7.719,0,14.102-2.078,19.074-6.309s8.758-9.352,11.281-15.438
		c0.594-1.41,1.262-1.633,5.418,0.594c2.078,1.113,3.117,2.004,3.117,2.598c0,0.223-0.148,0.742-0.445,1.707
		c-2.523,7.273-7.199,13.656-13.953,19.223c-6.828,5.566-15.809,8.387-26.941,8.387C647.896,813.139,638.99,810.021,632.162,803.713
		z"/>
	<path d="M743.861,807.646c-4.082-3.637-6.086-8.387-6.086-14.25c0-3.117,0.223-7.496,0.594-13.137s0.52-9.945,0.52-12.988
		c0-8.609-3.34-12.914-10.02-12.914c-4.824,0-9.203,2.746-13.137,8.313s-6.754,11.949-8.535,19
		c-1.781,7.125-2.672,13.805-2.672,19.965v6.828c0,2.152-0.965,3.191-2.895,3.191h-7.273c-1.93,0-2.895-1.113-2.895-3.34v-97.004
		c0-2.227,0.965-3.34,2.895-3.34h7.273c1.93,0,2.895,1.039,2.895,3.191v27.535c0,9.871-0.371,19.223-1.188,28.129l0.594,0.148
		c2.301-6.605,5.938-12.246,10.762-16.996c4.824-4.676,10.613-7.051,17.219-7.051c13.211,0,20.484,7.273,20.484,20.41
		c0,0.965-0.148,4.527-0.52,10.613s-0.52,11.059-0.52,14.918c0,8.609,3.266,12.914,9.871,12.914c4.23,0,8.238-2.152,11.875-6.531
		s6.457-9.203,8.609-14.621c0.297-0.668,0.742-1.039,1.262-1.039c0.594,0,1.93,0.52,4.008,1.633s3.117,2.004,3.117,2.598
		c0,0.371-0.074,0.891-0.297,1.559c-2.004,5.641-5.121,11.355-10.094,17.441s-12.691,10.316-21.227,10.316
		C752.768,813.139,747.943,811.283,743.861,807.646z"/>
	<path d="M836.783,781.225c2.078,1.113,3.117,1.93,3.117,2.449c0,0.297-0.148,0.891-0.445,1.855
		c-2.004,6.012-5.195,11.875-10.465,17.738c-5.27,5.938-13.359,9.871-22.488,9.871c-7.496,0-13.582-2.449-18.109-7.422
		s-6.828-11.652-6.828-20.039v-30.133c-1.336,0.074-2.969,0.148-4.898,0.148s-2.895-0.816-2.895-2.375v-5.938
		c0-1.633,0.742-2.449,2.301-2.449c2.227,0,4.082,0.074,5.492,0.148v-18.852c0-2.004,0.891-3.043,2.746-3.043h7.719
		c1.707,0,2.598,0.965,2.598,2.895v19.148c6.902-0.223,12.172-0.297,15.957-0.297c1.336,0,2.004,0.742,2.004,2.152v6.234
		c0,1.633-0.742,2.449-2.152,2.375c-3.563,0-8.906-0.074-15.957-0.297v24.195c0,14.324,3.711,22.191,14.473,22.191
		c5.27,0,9.797-2.152,13.582-6.531s6.754-9.203,8.906-14.621C832.033,779.221,832.627,778.998,836.783,781.225z"/>
	<path d="M839.604,803.564c-6.902-6.383-10.391-14.918-10.391-25.68c0-9.574,3.043-17.738,9.129-24.641s13.508-10.316,22.34-10.316
		c5.863,0,10.762,1.781,14.621,5.344s5.789,8.016,5.789,13.359c0,8.313-3.191,14.844-9.648,19.52
		c-6.457,4.75-14.102,7.125-22.934,7.125c-2.449,0-4.082-0.074-4.973-0.148c1.633,4.453,4.676,7.941,9.129,10.465
		s9.648,3.785,15.512,3.785c7.793,0,14.324-2.078,19.445-6.234s8.98-9.352,11.504-15.512c0.297-0.668,0.742-1.039,1.262-1.039
		c0.668,0,2.078,0.52,4.082,1.633s3.043,2.004,3.043,2.598c0,0.371-0.074,0.891-0.297,1.559
		c-2.598,7.793-7.422,14.398-14.473,19.742s-15.883,8.016-26.422,8.016C855.412,813.139,846.506,809.947,839.604,803.564z
		 M862.982,774.174c4.527-3.043,6.828-7.273,6.828-12.691c0-5.27-3.859-8.535-9.277-8.535c-5.121,0-9.648,2.301-13.508,6.977
		s-5.715,10.168-5.641,16.328c0,1.113,0.074,1.93,0.148,2.301c2.004,0.223,3.711,0.297,5.047,0.297
		C852.963,778.85,858.455,777.291,862.982,774.174z"/>
	<path d="M951.229,807.646c-4.082-3.637-6.086-8.387-6.086-14.25c0-3.117,0.223-7.57,0.594-13.285s0.52-10.094,0.52-12.988
		c0-8.535-3.414-12.766-10.168-12.766c-4.824,0-9.203,2.746-13.063,8.313s-6.68,11.949-8.461,19.074
		c-1.781,7.199-2.672,13.953-2.672,20.336v6.383c0,2.152-0.965,3.191-2.895,3.191h-7.273c-1.93,0-2.895-1.039-2.895-3.191v-60.34
		c0-2.301,0.965-3.488,2.895-3.488h7.273c1.93,0,2.895,1.039,2.895,3.043c0,1.559-0.371,6.828-0.742,12.766
		c-0.223,3.043-0.371,5.121-0.445,6.383l0.594,0.148c2.301-6.68,5.938-12.395,10.762-17.07s10.688-6.977,17.516-6.977
		c12.988,0,20.188,7.422,20.188,19.965c0,0.965-0.148,4.602-0.52,10.836s-0.52,11.281-0.52,15.141
		c0,8.609,3.266,12.914,9.723,12.914c4.379,0,8.313-2.152,11.949-6.457c3.563-4.305,6.457-9.203,8.684-14.695
		c0.297-0.668,0.742-1.039,1.262-1.039c0.594,0,1.93,0.52,4.008,1.633s3.117,2.004,3.117,2.598c0,0.371-0.074,0.891-0.297,1.559
		c-2.004,5.641-5.121,11.355-10.094,17.441s-12.691,10.316-21.227,10.316C960.135,813.139,955.311,811.283,951.229,807.646z"/>
	<path d="M1015.502,804.975c0-4.824,3.488-8.09,8.535-8.09c4.824,0,8.164,3.117,8.164,7.941c0,5.047-3.191,8.313-8.461,8.313
		C1018.916,813.139,1015.502,810.021,1015.502,804.975z M1020.994,780.779c-1.707,0-2.598-0.965-2.598-2.895
		c0-4.453-0.148-15.141-0.445-32.063s-0.445-28.574-0.445-34.957c0-1.93,0.816-2.895,2.523-2.895h7.496
		c2.004,0,3.043,1.039,3.043,3.191c0,6.309-0.148,17.887-0.445,34.734s-0.445,27.461-0.445,31.84c0,2.004-0.891,3.043-2.746,3.043
		H1020.994z"/>
</g>
<g>
	<path d="M127.846,548.655c0,0.891-0.594,1.484-1.781,1.855c-1.93,0.52-7.051,0.816-15.363,1.039
		c-1.41,4.23-2.152,10.613-2.152,19.148v16.551h13.359c1.707,0,2.598,0.742,2.598,2.301v7.719c0,1.559-0.742,2.301-2.301,2.301
		h-13.656v10.168c0,7.496-1.039,14.25-4.008,21.078c-1.484,3.414-3.34,6.383-5.566,8.832c-4.453,4.973-11.727,8.238-20.633,8.238
		c-3.34,0-6.605-0.668-9.723-2.004c-3.191-1.41-5.566-2.82-7.125-4.379c-1.633-1.484-2.449-2.672-2.449-3.637
		c0-0.816,0.965-2.375,2.82-4.676s3.117-3.488,3.859-3.488c0.52,0,1.336,0.52,2.523,1.633c3.785,3.266,7.348,4.898,10.688,4.898
		c6.902,0,11.875-3.488,14.25-9.203c2.301-5.641,3.191-11.207,3.191-17.738v-9.723h-8.461c-1.559,0-2.301-0.742-2.301-2.301v-7.719
		c0-1.559,0.668-2.301,2.004-2.301h8.758v-14.25c0-10.836,1.336-18.035,4.008-21.598c-1.262,0-5.195-0.148-11.949-0.52
		s-11.355-0.52-13.953-0.52c-5.121,0-9.277,1.336-12.395,3.934c-3.191,2.598-4.75,6.086-4.75,10.465
		c0,3.488,1.262,6.383,3.711,8.684s5.492,3.785,9.055,4.379c0.891,0.074,1.336,0.445,1.336,1.113c0,1.559-1.113,4.527-3.34,8.906
		c-0.297,0.594-0.816,0.891-1.484,0.965c-4.75,0-9.574-2.152-14.398-6.383c-4.898-4.23-7.348-10.168-7.348-17.664
		c0-7.941,2.82-14.176,8.387-18.777s12.691-6.902,21.375-6.902c4.379,0,10.168,0.223,17.367,0.594s12.469,0.594,15.809,0.594
		c8.609,0,17.516-1.188,17.293-1.188c0.742,0,1.262,0.371,1.559,1.039C127.475,544.499,127.846,547.319,127.846,548.655z"/>
	<path d="M219.803,613.226c2.078,1.113,3.117,2.004,3.117,2.598c0,0.371-0.074,0.891-0.297,1.559
		c-2.449,7.199-6.383,13.582-11.949,19.223c-5.566,5.715-12.395,8.535-20.41,8.535c-6.457,0-11.801-1.93-15.957-5.789
		c-4.156-3.785-6.234-8.832-6.234-15.141c0-6.754,2.82-17.961,8.387-33.621l-0.297-0.445c-4.824,1.336-9.945,2.004-15.215,2.004
		c-3.043,0-6.086-0.297-9.129-0.816v2.152c0,4.453-0.594,9.352-1.707,14.621c-1.188,5.344-2.82,9.871-4.824,13.508
		c-0.297,0.668-0.668,1.039-1.039,1.039c-0.816,0-2.227-0.594-4.379-1.781c-2.152-1.113-3.266-2.004-3.266-2.598
		c0,0,0.668-2.375,1.113-3.191c3.043-7.273,4.527-14.992,4.527-23.23c0-1.41-0.074-2.523-0.148-3.191
		c-2.152-0.965-4.156-2.227-6.086-3.711c-1.262-1.113-1.855-2.078-1.855-2.82c0-0.891,0.891-2.598,2.672-5.047
		s3.117-3.637,4.082-3.637c0.594,0,2.895,1.855,5.863,3.563c2.895,1.707,9.5,3.563,17.219,3.563
		c9.203,0.148,18.406-3.414,18.852-3.34c0.816,0,2.227,1.113,4.379,3.414s3.191,3.785,3.191,4.527c0,0.52-0.742,2.895-2.301,7.273
		s-3.191,9.352-4.75,15.066s-2.375,10.613-2.375,14.695c0,7.125,4.379,11.578,11.727,11.578c4.824,0,9.129-2.152,12.914-6.531
		s6.68-9.203,8.832-14.473c0.297-0.816,0.668-1.188,1.188-1.188C216.314,611.593,217.725,612.112,219.803,613.226z"/>
	<path d="M221.51,635.565c-6.16-6.383-9.277-14.844-9.277-25.383c0-9.945,3.266-18.332,9.797-25.086s14.918-10.168,25.16-10.168
		c9.871,0,17.887,3.191,24.047,9.648s9.277,14.695,9.277,24.715c0,9.723-3.043,18.184-9.129,25.234s-14.621,10.613-25.531,10.613
		C235.834,645.14,227.67,641.948,221.51,635.565z M261.439,627.327c3.711-4.676,5.566-10.836,5.566-18.332
		c0-6.754-1.781-12.32-5.344-16.699s-8.387-6.531-14.473-6.531c-6.309,0-11.43,2.375-15.363,7.125
		c-4.008,4.75-6.012,10.465-6.012,17.145c0,7.496,2.004,13.434,5.938,17.813s8.832,6.531,14.695,6.531
		C252.756,634.378,257.729,632.003,261.439,627.327z"/>
	<path d="M348.424,639.647c-4.082-3.637-6.086-8.387-6.086-14.25c0-3.117,0.223-7.496,0.594-13.137s0.52-9.945,0.52-12.988
		c0-8.609-3.34-12.914-10.02-12.914c-4.824,0-9.203,2.746-13.137,8.313s-6.754,11.949-8.535,19
		c-1.781,7.125-2.672,13.805-2.672,19.965v6.828c0,2.152-0.965,3.191-2.895,3.191h-7.273c-1.93,0-2.895-1.113-2.895-3.34v-97.004
		c0-2.227,0.965-3.34,2.895-3.34h7.273c1.93,0,2.895,1.039,2.895,3.191v27.535c0,9.871-0.371,19.223-1.188,28.129l0.594,0.148
		c2.301-6.605,5.938-12.246,10.762-16.996c4.824-4.676,10.613-7.051,17.219-7.051c13.211,0,20.484,7.273,20.484,20.41
		c0,0.965-0.148,4.527-0.52,10.613s-0.52,11.059-0.52,14.918c0,8.609,3.266,12.914,9.871,12.914c4.23,0,8.238-2.152,11.875-6.531
		s6.457-9.203,8.609-14.621c0.297-0.668,0.742-1.039,1.262-1.039c0.594,0,1.93,0.52,4.008,1.633s3.117,2.004,3.117,2.598
		c0,0.371-0.074,0.891-0.297,1.559c-2.004,5.641-5.121,11.355-10.094,17.441s-12.691,10.316-21.227,10.316
		C357.33,645.14,352.506,643.284,348.424,639.647z"/>
	<path d="M394.068,635.417c-6.754-6.457-10.094-14.992-10.094-25.531c0-9.426,3.043-17.59,9.129-24.566
		c6.086-6.902,13.508-10.391,22.34-10.391c5.863,0,10.762,1.781,14.621,5.344s5.789,8.016,5.789,13.359
		c0,8.238-3.117,14.695-9.352,19.445c-6.234,4.824-13.656,7.199-22.266,7.199c-2.895,0-4.898-0.074-5.938-0.148
		c1.336,4.379,3.934,7.793,7.719,10.391s8.016,3.859,12.766,3.859c8.238,0,14.992-3.414,20.41-10.316
		c0.594-0.668,1.113-1.039,1.484-1.113c0.594,0,1.781,0.816,3.637,2.449s2.746,2.746,2.746,3.34c0,0.668-0.223,1.262-0.594,1.855
		c-6.605,9.723-16.18,14.547-28.723,14.547C408.615,645.14,400.748,641.874,394.068,635.417z M417.67,606.175
		c4.602-3.043,6.902-7.273,6.902-12.691c0-5.27-3.859-8.535-9.277-8.535c-5.27,0-9.723,2.227-13.508,6.68
		c-3.785,4.527-5.641,9.871-5.641,16.18c0,1.262,0.074,2.152,0.148,2.746c2.004,0.223,3.711,0.297,5.047,0.297
		C407.65,610.851,413.068,609.292,417.67,606.175z"/>
</g>
</svg>
